<svg width="312" height="328" viewBox="0 0 312 328" fill="none" xmlns="http://www.w3.org/2000/svg">
<path d="M39.9374 264.79C89.9129 270.438 145.333 304.517 292.632 256.883C292.632 256.883 320.633 222.131 275.093 184.731C275.093 184.731 263.421 171.692 264.374 149.424L214.842 102.638C214.842 102.638 239.392 91.1616 224.655 77.765C209.918 64.3684 153.918 10.5335 153.918 10.5335L76.1586 85.5402C76.1586 85.5402 59.2453 90.6872 94.9847 106.358C94.9847 106.358 46.8239 133.705 41.8087 161.292L44.546 179.531L10.1847 220.493C0.165487 238.182 11.9431 261.631 39.9374 264.79Z" fill="#68BA39"/>
<path d="M94.7557 69.9228C94.7557 69.9228 176.084 104.939 220.337 97.4466C220.337 97.4466 113.608 57.81 113.721 51.2246C113.834 44.6393 94.7557 69.9228 94.7557 69.9228Z" fill="#389639"/>
<path d="M63.6577 125.229C63.6577 125.229 179.705 196.124 259.091 174.471C259.091 174.471 99.9167 142.896 92.4992 108.508C91.1098 102.069 63.6577 125.229 63.6577 125.229Z" fill="#389639"/>
<path d="M17.5947 205.469C17.5947 205.469 171.829 276.666 297.636 245.783C297.636 245.783 94.7589 232.733 52.7316 185.916C48.1268 180.792 17.5947 205.469 17.5947 205.469Z" fill="#389639"/>
<path d="M155.35 117.234C140.146 117.234 107.28 110.908 82.3845 105.599C79.5662 104.998 76.9624 103.648 74.8481 101.69C72.7338 99.732 71.1874 97.2396 70.3721 94.4757C69.5569 91.7119 69.5031 88.7792 70.2164 85.9873C70.9298 83.1954 72.3837 80.6479 74.4248 78.6138L151.894 1.42711C152.811 0.51316 154.054 0 155.349 0C156.643 0 157.886 0.51316 158.803 1.42711L232.778 75.1348C235.165 77.5117 236.864 80.49 237.695 83.7541C238.526 87.0181 238.459 90.4463 237.5 93.6753C236.542 96.9042 234.727 99.8136 232.249 102.095C229.771 104.377 226.722 105.945 223.425 106.634C200.33 111.469 169.782 117.234 155.35 117.234ZM155.35 11.8078L81.3377 85.5493C80.5448 86.3388 79.9798 87.3278 79.7024 88.4118C79.425 89.4957 79.4455 90.6345 79.7617 91.7078C80.078 92.7812 80.6782 93.7491 81.4991 94.5095C82.3199 95.2699 83.3309 95.7945 84.4252 96.0279C118.967 103.389 144.153 107.444 155.35 107.444C165.949 107.444 189.414 103.754 221.422 97.052C222.991 96.7255 224.443 95.9803 225.623 94.8956C226.803 93.8109 227.668 92.4271 228.125 90.8908C228.583 89.3546 228.616 87.7232 228.221 86.1697C227.827 84.6161 227.019 83.1983 225.884 82.0665L155.35 11.8078Z" fill="#225039"/>
<path d="M155.948 204.34C134.192 204.34 86.9765 194.174 51.1995 185.661C43.9892 183.94 38.2698 178.379 35.8978 170.781C33.3374 162.584 35.1937 153.657 40.7361 147.486L40.8151 147.395L86.2461 99.2156C86.6773 98.7117 87.2064 98.3007 87.8012 98.0075C88.3961 97.7143 89.0444 97.5451 89.7066 97.5101C90.3689 97.4751 91.0314 97.575 91.6539 97.8038C92.2763 98.0327 92.8458 98.3856 93.3277 98.8412C93.8097 99.2968 94.194 99.8456 94.4573 100.454C94.7207 101.063 94.8576 101.719 94.8598 102.382C94.862 103.045 94.7294 103.702 94.47 104.312C94.2106 104.923 93.8299 105.474 93.351 105.933L47.9803 154.052C44.7611 157.667 43.7106 162.949 45.243 167.848C46.5947 172.182 49.5918 175.198 53.47 176.131C82.3415 183.01 134.045 194.547 155.948 194.547C175.647 194.547 218.744 185.431 251.433 177.784C256.588 176.579 260.733 172.457 262.525 166.756C264.562 160.272 263.169 153.269 258.884 148.465L218.54 105.944C217.647 105.002 217.163 103.744 217.197 102.446C217.231 101.149 217.779 99.9173 218.721 99.0236C219.663 98.1298 220.921 97.6468 222.219 97.6807C223.516 97.7146 224.748 98.2626 225.641 99.2043L266.035 141.751L266.125 141.853C272.744 149.233 274.943 159.911 271.863 169.7C269.024 178.737 262.22 185.322 253.662 187.322C220.472 195.07 176.562 204.34 155.948 204.34Z" fill="#225039"/>
<path d="M232.503 98.1011C232.398 98.1011 232.296 98.1011 232.191 98.1011C189.975 95.4654 159.082 82.6411 140.595 72.3508C120.391 61.1042 110.277 50.4863 109.856 50.042C108.965 49.0978 108.485 47.8383 108.522 46.5404C108.56 45.2426 109.111 44.0128 110.055 43.1215C111 42.2303 112.259 41.7506 113.557 41.788C114.855 41.8255 116.085 42.3769 116.976 43.3211C117.134 43.4868 126.788 53.5248 145.757 64.0297C163.299 73.7327 192.641 85.8303 232.801 88.3417C234.099 88.3811 235.328 88.9346 236.218 89.8805C237.108 90.8263 237.586 92.087 237.547 93.3851C237.507 94.6833 236.954 95.9127 236.008 96.8027C235.062 97.6928 233.802 98.1706 232.503 98.1312V98.1011Z" fill="#225039"/>
<path d="M266.276 175.57H266.077C234.825 174.32 205.833 170.036 179.906 162.837C159.084 157.049 140.183 149.376 123.725 140.027C95.3772 123.919 84.0816 108.429 83.6147 107.774C82.8783 106.719 82.5871 105.416 82.8042 104.148C83.0212 102.879 83.7291 101.747 84.7745 100.997C85.82 100.246 87.1188 99.9379 88.3901 100.138C89.6613 100.338 90.8025 101.031 91.5668 102.066C95.2304 107.112 107.802 119.83 129.219 131.883C144.969 140.75 163.106 148.043 183.061 153.555C208.104 160.461 236.151 164.576 266.457 165.788C267.755 165.814 268.99 166.354 269.89 167.29C270.79 168.226 271.281 169.481 271.256 170.779C271.23 172.077 270.69 173.312 269.754 174.212C268.818 175.112 267.563 175.603 266.265 175.578L266.276 175.57Z" fill="#225039"/>
<path d="M183.642 324.198H127.454C126.664 324.194 125.886 324.013 125.176 323.668C124.465 323.322 123.842 322.822 123.351 322.204C122.86 321.585 122.515 320.865 122.34 320.095C122.165 319.325 122.165 318.525 122.34 317.756L128.96 288.921C129.228 287.761 129.881 286.725 130.813 285.983C131.745 285.241 132.9 284.837 134.092 284.836H176.461C177.635 284.838 178.775 285.231 179.7 285.954C180.625 286.677 181.282 287.688 181.567 288.827L188.751 317.673C188.941 318.448 188.952 319.256 188.784 320.036C188.616 320.816 188.273 321.548 187.781 322.177C187.289 322.805 186.661 323.313 185.944 323.663C185.227 324.014 184.44 324.196 183.642 324.198Z" fill="#B73F39"/>
<path d="M183.64 327.21H127.452C126.208 327.209 124.98 326.928 123.86 326.387C122.739 325.847 121.755 325.061 120.98 324.088C120.205 323.115 119.659 321.98 119.382 320.767C119.106 319.554 119.106 318.294 119.383 317.081L126.002 288.248C126.416 286.418 127.44 284.785 128.907 283.617C130.374 282.449 132.196 281.817 134.071 281.824H176.46C178.306 281.825 180.099 282.443 181.554 283.579C183.009 284.716 184.043 286.306 184.491 288.097L191.671 316.92C191.974 318.139 191.995 319.412 191.733 320.642C191.471 321.871 190.933 323.025 190.159 324.015C189.385 325.006 188.396 325.807 187.267 326.358C186.137 326.91 184.897 327.197 183.64 327.199V327.21ZM134.071 287.848C133.561 287.845 133.064 288.016 132.665 288.334C132.266 288.652 131.987 289.097 131.876 289.596L125.257 318.426C125.183 318.756 125.183 319.098 125.259 319.428C125.334 319.757 125.483 320.066 125.694 320.33C125.904 320.595 126.172 320.808 126.476 320.956C126.78 321.103 127.114 321.18 127.452 321.182H183.64C183.982 321.18 184.318 321.101 184.625 320.951C184.932 320.8 185.2 320.582 185.411 320.313C185.621 320.043 185.767 319.73 185.839 319.396C185.91 319.062 185.905 318.716 185.824 318.384L178.644 289.55C178.521 289.064 178.239 288.632 177.844 288.323C177.448 288.015 176.962 287.846 176.46 287.845L134.071 287.848Z" fill="#225039"/>
<path d="M158.109 290.695C142.356 290.695 105.679 286.177 20.4082 264.715C11.7068 262.528 4.68847 255.517 1.63112 245.964C-1.86299 235.045 0.347187 223.132 7.39189 214.849L7.47472 214.751L42.0092 176.244C42.465 175.736 43.022 175.329 43.6445 175.049C44.267 174.768 44.9412 174.622 45.6238 174.618H45.6539C46.3315 174.618 47.0017 174.759 47.6219 175.032C48.2422 175.305 48.799 175.703 49.2572 176.203C49.2911 176.233 53.2973 180.518 62.0589 186.7C70.1541 192.427 84.0703 200.951 104.41 209.235C127.302 218.535 153.497 225.587 182.259 230.203C218.108 235.956 258.072 237.914 301.044 236.017C302.128 227.771 299.914 219.487 294.764 213.425L263.031 177.016C262.598 176.533 262.267 175.969 262.054 175.356C261.842 174.744 261.753 174.096 261.793 173.449C261.834 172.802 262.002 172.169 262.289 171.588C262.575 171.007 262.974 170.488 263.463 170.062C263.952 169.637 264.52 169.312 265.135 169.108C265.75 168.903 266.4 168.823 267.046 168.872C267.692 168.92 268.322 169.097 268.9 169.391C269.478 169.685 269.991 170.091 270.41 170.585L302.162 207.017L302.204 207.062C310.702 217.066 313.345 231.45 309.094 244.628C305.397 256.093 296.97 264.474 286.552 267.05C242.898 277.833 185.174 290.695 158.109 290.695ZM14.8131 221.253C9.97481 226.984 8.49509 235.309 10.9575 242.997C13.0058 249.398 17.3245 253.864 22.8029 255.242C60.8917 264.824 129.117 280.906 158.109 280.906C172.504 280.906 206.063 276.85 284.206 257.542C290.091 256.085 294.959 251.947 298.009 245.938C255.417 247.621 215.747 245.543 180.03 239.759C150.455 234.966 123.496 227.635 99.8992 217.963C69.8491 205.647 52.9622 192.736 45.9363 186.542L14.8131 221.253Z" fill="#225039"/>
<path d="M231.532 98.1006H231.216C190.059 95.465 159.933 82.6219 141.913 72.3241C122.213 61.0661 112.356 50.4407 111.946 49.9927C111.097 49.0323 110.658 47.7773 110.725 46.4972C110.791 45.2171 111.357 44.0142 112.301 43.1468C113.245 42.2795 114.491 41.817 115.772 41.8586C117.053 41.9003 118.267 42.4429 119.152 43.3697C119.284 43.509 128.682 53.5357 147.165 64.0482C164.229 73.7398 192.773 85.8185 231.845 88.3299C233.143 88.3714 234.372 88.9268 235.26 89.874C236.149 90.8213 236.625 92.0828 236.583 93.3809C236.542 94.6791 235.987 95.9076 235.039 96.7963C234.092 97.6849 232.831 98.1609 231.532 98.1194V98.1006Z" fill="#225039"/>
<path d="M264.052 175.572H263.849C233.324 174.318 205.021 170.033 179.723 162.83C159.391 157.039 140.941 149.358 124.867 140.002C97.1893 123.883 86.161 108.374 85.7092 107.73C84.9633 106.667 84.6701 105.351 84.8943 104.072C85.1185 102.793 85.8417 101.655 86.9047 100.909C87.9677 100.163 89.2835 99.87 90.5626 100.094C91.8417 100.318 92.9794 101.042 93.7254 102.105C97.2948 107.142 109.539 119.858 130.436 131.906C145.794 140.766 163.461 148.052 182.946 153.56C207.363 160.462 234.721 164.573 264.274 165.786C265.573 165.812 266.807 166.353 267.706 167.29C268.605 168.227 269.096 169.482 269.069 170.78C269.043 172.079 268.502 173.313 267.565 174.212C266.628 175.112 265.373 175.602 264.075 175.575L264.052 175.572Z" fill="#225039"/>
<path d="M199.764 76.0255C199.346 76.0254 198.933 75.9383 198.55 75.7698C198.168 75.6012 197.825 75.3549 197.543 75.0466L159.292 33.2526C159.015 32.9626 158.798 32.6203 158.655 32.2456C158.512 31.871 158.446 31.4715 158.459 31.0707C158.472 30.6698 158.566 30.2757 158.733 29.9114C158.901 29.5471 159.14 29.22 159.436 28.9492C159.732 28.6785 160.079 28.4695 160.456 28.3346C160.834 28.1997 161.235 28.1416 161.635 28.1636C162.036 28.1857 162.428 28.2875 162.788 28.4631C163.149 28.6387 163.471 28.8845 163.735 29.1861L201.986 70.9801C202.38 71.4112 202.64 71.9477 202.735 72.5242C202.83 73.1008 202.755 73.6924 202.52 74.2272C202.284 74.7619 201.899 75.2166 201.409 75.5359C200.92 75.8552 200.348 76.0253 199.764 76.0255Z" fill="#98D639"/>
<path d="M284.221 229.944C283.803 229.944 283.39 229.857 283.008 229.688C282.625 229.52 282.282 229.273 282 228.965L253.339 197.642C252.8 197.053 252.517 196.273 252.553 195.475C252.589 194.676 252.94 193.925 253.53 193.386C254.119 192.847 254.899 192.564 255.697 192.599C256.495 192.635 257.247 192.986 257.786 193.576L286.443 224.899C286.837 225.33 287.098 225.866 287.192 226.443C287.287 227.019 287.212 227.611 286.977 228.146C286.742 228.68 286.356 229.135 285.866 229.454C285.377 229.774 284.806 229.944 284.221 229.944Z" fill="#98D639"/>
</svg>
