<svg width="98" height="98" viewBox="0 0 98 98" fill="none" xmlns="http://www.w3.org/2000/svg">
<path d="M49 98C67.6051 98 82.6875 82.9176 82.6875 64.3125C82.6875 45.7074 67.6051 30.625 49 30.625C30.3949 30.625 15.3125 45.7074 15.3125 64.3125C15.3125 82.9176 30.3949 98 49 98Z" fill="url(#paint0_linear_3_6073)"/>
<path d="M49 98C67.6051 98 82.6875 82.9176 82.6875 64.3125C82.6875 45.7074 67.6051 30.625 49 30.625C30.3949 30.625 15.3125 45.7074 15.3125 64.3125C15.3125 82.9176 30.3949 98 49 98Z" fill="url(#paint1_linear_3_6073)"/>
<path d="M56.6562 81.1563C56.657 79.7757 56.2844 78.4207 55.578 77.2346C54.8716 76.0485 53.8576 75.0755 52.6435 74.4186C51.4293 73.7616 50.0601 73.4452 48.6808 73.5027C47.3015 73.5603 45.9634 73.9897 44.8082 74.7456C43.6529 75.5014 42.7236 76.5555 42.1185 77.7963C41.5133 79.0372 41.255 80.4185 41.3707 81.7942C41.4864 83.1698 41.972 84.4886 42.7759 85.6109C43.5798 86.7331 44.6722 87.6172 45.9375 88.1694V97.8622C47.975 98.0459 50.025 98.0459 52.0625 97.8622V88.1694C53.4272 87.5738 54.5887 86.5931 55.4046 85.3475C56.2205 84.1018 56.6555 82.6453 56.6562 81.1563Z" fill="#F6B756"/>
<path d="M84.2188 67.375H13.7812C12.969 67.375 12.1901 67.0523 11.6157 66.478C11.0414 65.9037 10.7188 65.1247 10.7188 64.3125C10.7188 63.5003 11.0414 62.7213 11.6157 62.147C12.1901 61.5727 12.969 61.25 13.7812 61.25H84.2188C85.031 61.25 85.8099 61.5727 86.3843 62.147C86.9586 62.7213 87.2812 63.5003 87.2812 64.3125C87.2812 65.1247 86.9586 65.9037 86.3843 66.478C85.8099 67.0523 85.031 67.375 84.2188 67.375Z" fill="url(#paint2_linear_3_6073)"/>
<path d="M28.0372 17.9309L27.7769 16.9509C25.7364 18.5573 23.3835 19.7205 20.8682 20.3665C18.353 21.0124 15.7307 21.1269 13.1687 20.7025L8.39124 19.9063L11.4537 23.6425C13.1041 25.6489 14.3175 27.9778 15.0163 30.48C15.715 32.9823 15.8837 35.6029 15.5115 38.1741L16.4915 37.9138C17.4107 37.6679 18.3719 37.6222 19.3102 37.7799C20.2485 37.9376 21.142 38.2949 21.9303 38.8277C22.7186 39.3604 23.3833 40.0563 23.8795 40.8681C24.3756 41.68 24.6917 42.5889 24.8062 43.5334C26.7156 42.7308 28.8601 42.6916 30.7976 43.4239C32.735 44.1561 34.3175 45.6039 35.2187 47.4688L36.75 50.5313L49 29.3081L45.6159 29.5225C43.5535 29.6547 41.5187 28.992 39.9296 27.6706C38.3406 26.3492 37.3178 24.4695 37.0715 22.4175C36.1894 22.7912 35.2368 22.9698 34.2791 22.941C33.3215 22.9122 32.3814 22.6766 31.5233 22.2505C30.6652 21.8243 29.9094 21.2177 29.3077 20.4721C28.7059 19.7265 28.2725 18.8597 28.0372 17.9309Z" fill="url(#paint3_linear_3_6073)"/>
<path d="M43.6406 38.4803L34.8972 33.4425L33.9631 29.8747C33.8586 29.4965 33.6129 29.1728 33.2766 28.9705C32.9404 28.7682 32.5393 28.7027 32.1562 28.7875C31.9587 28.8309 31.7718 28.913 31.6062 29.0291C31.4406 29.1452 31.2996 29.2929 31.1914 29.4637C31.0832 29.6346 31.0099 29.8252 30.9758 30.0245C30.9416 30.2238 30.9473 30.4279 30.9925 30.625L31.1609 31.2375L23.7497 26.95C23.3963 26.7469 22.9768 26.6926 22.5834 26.7988C22.19 26.9051 21.8549 27.1632 21.6519 27.5166C21.4488 27.8699 21.3944 28.2894 21.5007 28.6828C21.6069 29.0762 21.8651 29.4113 22.2184 29.6144L25.6484 31.5897L25.0359 31.7428C24.8409 31.7951 24.658 31.8853 24.4978 32.0082C24.3376 32.1312 24.2032 32.2845 24.1022 32.4594C24.0013 32.6343 23.9358 32.8273 23.9094 33.0275C23.8831 33.2278 23.8964 33.4312 23.9487 33.6263C24.001 33.8213 24.0912 34.0042 24.2141 34.1644C24.3371 34.3246 24.4904 34.459 24.6653 34.5599C25.0185 34.7638 25.4382 34.819 25.8322 34.7134L29.3847 33.7488L42.1094 41.0988L43.6406 38.4803Z" fill="#2B8F0E"/>
<path d="M69.9628 17.9309L70.2231 16.9509C72.2636 18.5573 74.6165 19.7205 77.1318 20.3665C79.647 21.0124 82.2693 21.1269 84.8313 20.7025L89.6088 19.9063L86.5463 23.6425C84.8958 25.6489 83.6825 27.9778 82.9837 30.48C82.285 32.9823 82.1163 35.6029 82.4884 38.1741L81.5084 37.9138C80.5893 37.6679 79.6281 37.6222 78.6898 37.7799C77.7515 37.9376 76.858 38.2949 76.0697 38.8277C75.2814 39.3604 74.6167 40.0563 74.1205 40.8681C73.6244 41.68 73.3083 42.5889 73.1938 43.5334C71.2844 42.7308 69.1398 42.6916 67.2024 43.4239C65.265 44.1561 63.6825 45.6039 62.7813 47.4688L61.25 50.5313L49 29.2009L52.3841 29.4153C54.4465 29.5475 56.4813 28.8848 58.0704 27.5634C59.6594 26.242 60.6822 24.3623 60.9284 22.3103C61.8035 22.6853 62.7489 22.8679 63.7006 22.8458C64.6523 22.8236 65.5882 22.5973 66.4449 22.182C67.3015 21.7667 68.059 21.1723 68.6659 20.4388C69.2728 19.7054 69.7151 18.8502 69.9628 17.9309Z" fill="url(#paint4_linear_3_6073)"/>
<path d="M55.8906 41.1447L68.6153 33.7947L72.1678 34.7594C72.3629 34.8117 72.5663 34.825 72.7665 34.7987C72.9667 34.7723 73.1598 34.7068 73.3347 34.6058C73.5096 34.5049 73.6629 34.3705 73.7858 34.2103C73.9088 34.0501 73.999 33.8672 74.0513 33.6722C74.1035 33.4771 74.1169 33.2737 74.0905 33.0735C74.0642 32.8733 73.9987 32.6802 73.8977 32.5053C73.7968 32.3304 73.6624 32.1771 73.5022 32.0542C73.342 31.9312 73.1591 31.841 72.9641 31.7887L72.3516 31.6356L75.7816 29.6603C75.9565 29.5598 76.1099 29.4257 76.2331 29.2659C76.3562 29.1061 76.4467 28.9235 76.4993 28.7287C76.5519 28.5339 76.5656 28.3307 76.5397 28.1306C76.5138 27.9305 76.4487 27.7374 76.3481 27.5625C76.2476 27.3875 76.1136 27.2341 75.9537 27.111C75.7939 26.9878 75.6114 26.8974 75.4166 26.8447C75.2218 26.7921 75.0185 26.7784 74.8184 26.8043C74.6183 26.8303 74.4253 26.8954 74.2503 26.9959L66.8391 31.2834L67.0075 30.6709C67.0607 30.4759 67.0747 30.2722 67.0487 30.0717C67.0228 29.8712 66.9574 29.6778 66.8563 29.5027C66.7552 29.3276 66.6205 29.1742 66.4598 29.0515C66.2992 28.9287 66.1158 28.839 65.9203 28.7875C65.7252 28.7343 65.5216 28.7203 65.3211 28.7462C65.1206 28.7722 64.9272 28.8376 64.7521 28.9387C64.577 29.0397 64.4236 29.1745 64.3009 29.3351C64.1781 29.4958 64.0884 29.6792 64.0369 29.8747L63.1028 33.4425L54.3594 38.4803L55.8906 41.1447Z" fill="#2B8F0E"/>
<path d="M60.5456 16.0169L61.25 15.3125C58.8442 14.3553 56.6638 12.9081 54.8475 11.0627C53.0312 9.21744 51.6187 7.01443 50.6997 4.59375L49 0L47.3003 4.59375C46.3838 7.01584 44.9722 9.22011 43.1555 11.0657C41.3389 12.9114 39.1573 14.3578 36.75 15.3125L37.4544 16.0169C38.1278 16.6896 38.6489 17.4992 38.9823 18.3908C39.3157 19.2824 39.4537 20.2352 39.3869 21.1848C39.3201 22.1343 39.0501 23.0584 38.5952 23.8946C38.1402 24.7307 37.511 25.4594 36.75 26.0312C38.4044 27.2728 39.5212 29.1001 39.8714 31.1387C40.2216 33.1772 39.7787 35.2725 38.6334 36.995L36.75 39.8125H61.25L59.3666 36.995C58.2213 35.2725 57.7784 33.1772 58.1286 31.1387C58.4788 29.1001 59.5956 27.2728 61.25 26.0312C60.489 25.4594 59.8598 24.7307 59.4048 23.8946C58.9499 23.0584 58.6799 22.1343 58.6131 21.1848C58.5463 20.2352 58.6843 19.2824 59.0177 18.3908C59.3511 17.4992 59.8722 16.6896 60.5456 16.0169Z" fill="url(#paint5_linear_3_6073)"/>
<path d="M50.5312 39.8125V29.7216L53.1497 27.1184C53.438 26.8301 53.6 26.439 53.6 26.0312C53.6 25.6235 53.438 25.2324 53.1497 24.9441C52.8613 24.6557 52.4703 24.4937 52.0625 24.4937C51.6547 24.4937 51.2636 24.6557 50.9753 24.9441L50.5312 25.4034V16.8438C50.5312 16.4376 50.3699 16.0482 50.0827 15.761C49.7956 15.4738 49.4061 15.3125 49 15.3125C48.5939 15.3125 48.2044 15.4738 47.9172 15.761C47.6301 16.0482 47.4687 16.4376 47.4687 16.8438V20.8097L47.0247 20.3503C46.7363 20.062 46.3453 19.9 45.9375 19.9C45.5297 19.9 45.1386 20.062 44.8503 20.3503C44.562 20.6387 44.4 21.0297 44.4 21.4375C44.4 21.8453 44.562 22.2363 44.8503 22.5247L47.4687 25.1278V39.8125H50.5312Z" fill="#2B8F0E"/>
<path d="M39.8125 42.875C44.8866 42.875 49 38.7616 49 33.6875C49 28.6134 44.8866 24.5 39.8125 24.5C34.7384 24.5 30.625 28.6134 30.625 33.6875C30.625 38.7616 34.7384 42.875 39.8125 42.875Z" fill="url(#paint6_linear_3_6073)"/>
<path d="M58.31 42.875C63.3841 42.875 67.4975 38.7616 67.4975 33.6875C67.4975 28.6134 63.3841 24.5 58.31 24.5C53.2359 24.5 49.1225 28.6134 49.1225 33.6875C49.1225 38.7616 53.2359 42.875 58.31 42.875Z" fill="url(#paint7_linear_3_6073)"/>
<path d="M49 52.0625C54.0741 52.0625 58.1875 47.9491 58.1875 42.875C58.1875 37.8009 54.0741 33.6875 49 33.6875C43.9259 33.6875 39.8125 37.8009 39.8125 42.875C39.8125 47.9491 43.9259 52.0625 49 52.0625Z" fill="url(#paint8_linear_3_6073)"/>
<defs>
<linearGradient id="paint0_linear_3_6073" x1="15.3125" y1="64.3125" x2="82.6875" y2="64.3125" gradientUnits="userSpaceOnUse">
<stop stop-color="#FBCC88"/>
<stop offset="1" stop-color="#FFE5C3"/>
</linearGradient>
<linearGradient id="paint1_linear_3_6073" x1="15.3125" y1="64.3125" x2="82.6875" y2="64.3125" gradientUnits="userSpaceOnUse">
<stop stop-color="#FBCC88"/>
<stop offset="1" stop-color="#FFE5C3"/>
</linearGradient>
<linearGradient id="paint2_linear_3_6073" x1="10.7188" y1="64.3125" x2="87.2812" y2="64.3125" gradientUnits="userSpaceOnUse">
<stop stop-color="#E9A254"/>
<stop offset="1" stop-color="#F4BB79"/>
</linearGradient>
<linearGradient id="paint3_linear_3_6073" x1="19.5144" y1="40.4694" x2="31.7644" y2="19.2518" gradientUnits="userSpaceOnUse">
<stop stop-color="#46C129"/>
<stop offset="1" stop-color="#D4E6B6"/>
</linearGradient>
<linearGradient id="paint4_linear_3_6073" x1="77.8506" y1="39.3516" x2="65.6006" y2="18.0366" gradientUnits="userSpaceOnUse">
<stop stop-color="#46C129"/>
<stop offset="1" stop-color="#D4E6B6"/>
</linearGradient>
<linearGradient id="paint5_linear_3_6073" x1="36.75" y1="19.9062" x2="61.25" y2="19.9062" gradientUnits="userSpaceOnUse">
<stop stop-color="#46C129"/>
<stop offset="1" stop-color="#D4E6B6"/>
</linearGradient>
<linearGradient id="paint6_linear_3_6073" x1="30.625" y1="33.6875" x2="49" y2="33.6875" gradientUnits="userSpaceOnUse">
<stop stop-color="#FF0022"/>
<stop offset="1" stop-color="#F4929C"/>
</linearGradient>
<linearGradient id="paint7_linear_3_6073" x1="49.1225" y1="-7.30157e-07" x2="67.4975" y2="-7.30157e-07" gradientUnits="userSpaceOnUse">
<stop stop-color="#FF0022"/>
<stop offset="1" stop-color="#F4929C"/>
</linearGradient>
<linearGradient id="paint8_linear_3_6073" x1="39.8125" y1="42.875" x2="58.1875" y2="42.875" gradientUnits="userSpaceOnUse">
<stop stop-color="#FF0022"/>
<stop offset="1" stop-color="#F4929C"/>
</linearGradient>
</defs>
</svg>
