<svg width="98" height="98" viewBox="0 0 98 98" fill="none" xmlns="http://www.w3.org/2000/svg">
<path d="M18.7119 90.5734C23.786 90.5734 27.8994 86.4601 27.8994 81.3859C27.8994 76.3118 23.786 72.1984 18.7119 72.1984C13.6377 72.1984 9.52435 76.3118 9.52435 81.3859C9.52435 86.4601 13.6377 90.5734 18.7119 90.5734Z" fill="url(#paint0_linear_3_6088)"/>
<path d="M46.1825 78.6756L52.3075 70.8356C54.0365 68.7957 55.3367 66.4283 56.1306 63.8748C56.9245 61.3213 57.1958 58.634 56.9283 55.9733C56.6607 53.3126 55.8599 50.7331 54.5735 48.3888C53.2871 46.0445 51.5415 43.9833 49.441 42.3285C47.3405 40.6736 44.9281 39.4589 42.3478 38.7568C39.7676 38.0548 37.0723 37.8799 34.4229 38.2424C31.7735 38.605 29.2243 39.4977 26.9275 40.8671C24.6307 42.2366 22.6334 44.0548 21.0547 46.2131L14.9297 54.0531C13.5855 55.7682 11.9153 57.2005 10.0153 58.2675C8.11522 59.3345 6.0229 60.015 3.85875 60.27C3.02061 60.3824 2.23366 60.7376 1.59491 61.2918C0.956154 61.846 0.493506 62.5749 0.263985 63.3888C0.0344626 64.2027 0.0480969 65.066 0.303207 65.8723C0.558318 66.6785 1.04375 67.3925 1.69969 67.9262L35.77 94.815C36.4439 95.3399 37.2579 95.6539 38.1098 95.7176C38.9616 95.7813 39.8133 95.5918 40.5577 95.1729C41.3022 94.7541 41.9063 94.1245 42.2941 93.3634C42.6818 92.6022 42.836 91.7435 42.7372 90.895C42.4791 88.7317 42.6505 86.5387 43.2418 84.4419C43.833 82.345 44.8323 80.3854 46.1825 78.6756Z" fill="url(#paint1_linear_3_6088)"/>
<path d="M79.2881 90.5734C84.3623 90.5734 88.4756 86.4601 88.4756 81.3859C88.4756 76.3118 84.3623 72.1984 79.2881 72.1984C74.214 72.1984 70.1006 76.3118 70.1006 81.3859C70.1006 86.4601 74.214 90.5734 79.2881 90.5734Z" fill="url(#paint2_linear_3_6088)"/>
<path d="M83.1163 54.0531L76.9913 46.2131C73.7282 42.0586 68.9483 39.3705 63.7032 38.7401C58.4582 38.1098 53.1775 39.5889 49.023 42.852C44.8685 46.1151 42.1803 50.895 41.55 56.1401C40.9197 61.3851 42.3988 66.6658 45.6619 70.8203L51.7869 78.6756C53.1368 80.3912 54.1346 82.3565 54.7232 84.4586C55.3118 86.5608 55.4796 88.7585 55.2169 90.9256C55.1181 91.7741 55.2723 92.6329 55.66 93.394C56.0478 94.1551 56.6519 94.7847 57.3963 95.2035C58.1408 95.6224 58.9925 95.8119 59.8443 95.7482C60.6962 95.6845 61.5102 95.3705 62.1841 94.8456L96.3463 67.9722C97.0022 67.4384 97.4876 66.7244 97.7428 65.9182C97.9979 65.1119 98.0115 64.2487 97.782 63.4348C97.5525 62.6208 97.0898 61.8919 96.451 61.3377C95.8123 60.7835 95.0253 60.4283 94.1872 60.3159C92.021 60.0503 89.9283 59.3605 88.0287 58.2859C86.1291 57.2113 84.4598 55.773 83.1163 54.0531Z" fill="url(#paint3_linear_3_6088)"/>
<path d="M28.0372 20.9934L27.7769 20.0134C25.7364 21.6198 23.3835 22.783 20.8682 23.429C18.353 24.0749 15.7307 24.1894 13.1687 23.765L8.39124 22.9688L11.4537 26.705C13.1041 28.7114 14.3175 31.0403 15.0163 33.5425C15.715 36.0448 15.8837 38.6654 15.5115 41.2366L16.4915 40.9763C17.4107 40.7304 18.3719 40.6847 19.3102 40.8424C20.2485 41.0001 21.142 41.3574 21.9303 41.8902C22.7186 42.4229 23.3833 43.1188 23.8795 43.9306C24.3756 44.7425 24.6917 45.6514 24.8062 46.5959C26.7156 45.7933 28.8601 45.7541 30.7976 46.4864C32.735 47.2186 34.3175 48.6664 35.2187 50.5313L36.75 53.5938L49 32.3706L45.6159 32.585C43.5535 32.7172 41.5187 32.0545 39.9296 30.7331C38.3406 29.4117 37.3178 27.532 37.0715 25.48C36.1894 25.8537 35.2368 26.0323 34.2791 26.0035C33.3215 25.9747 32.3814 25.7391 31.5233 25.3129C30.6652 24.8868 29.9094 24.2802 29.3077 23.5346C28.7059 22.789 28.2725 21.9222 28.0372 20.9934Z" fill="url(#paint4_linear_3_6088)"/>
<path d="M43.6406 41.5428L34.8972 36.505L33.9631 32.9372C33.8586 32.559 33.6129 32.2353 33.2766 32.033C32.9404 31.8307 32.5393 31.7652 32.1562 31.85C31.9587 31.8934 31.7718 31.9755 31.6062 32.0916C31.4406 32.2077 31.2996 32.3554 31.1914 32.5262C31.0832 32.6971 31.0099 32.8877 30.9758 33.087C30.9416 33.2863 30.9473 33.4904 30.9925 33.6875L31.1609 34.3L23.7497 30.0125C23.3963 29.8094 22.9768 29.7551 22.5834 29.8613C22.19 29.9676 21.8549 30.2257 21.6519 30.5791C21.4488 30.9324 21.3944 31.3519 21.5007 31.7453C21.6069 32.1387 21.8651 32.4738 22.2184 32.6769L25.6484 34.6522L25.0359 34.8053C24.8409 34.8576 24.658 34.9478 24.4978 35.0707C24.3376 35.1937 24.2032 35.347 24.1022 35.5219C24.0013 35.6968 23.9358 35.8898 23.9094 36.09C23.8831 36.2903 23.8964 36.4937 23.9487 36.6888C24.001 36.8838 24.0912 37.0667 24.2141 37.2269C24.3371 37.3871 24.4904 37.5215 24.6653 37.6224C25.0185 37.8263 25.4382 37.8815 25.8322 37.7759L29.3847 36.8113L42.1094 44.1613L43.6406 41.5428Z" fill="#7ECE67"/>
<path d="M69.9628 20.9934L70.2231 20.0134C72.2636 21.6198 74.6165 22.783 77.1318 23.429C79.647 24.0749 82.2693 24.1894 84.8313 23.765L89.6088 22.9688L86.5463 26.705C84.8958 28.7114 83.6825 31.0403 82.9837 33.5425C82.285 36.0448 82.1163 38.6654 82.4884 41.2366L81.5084 40.9763C80.5893 40.7304 79.6281 40.6847 78.6898 40.8424C77.7515 41.0001 76.858 41.3574 76.0697 41.8902C75.2814 42.4229 74.6167 43.1188 74.1205 43.9306C73.6244 44.7425 73.3083 45.6514 73.1938 46.5959C71.2844 45.7933 69.1398 45.7541 67.2024 46.4864C65.265 47.2186 63.6825 48.6664 62.7813 50.5313L61.25 53.5938L49 32.2634L52.3841 32.4778C54.4465 32.61 56.4813 31.9473 58.0704 30.6259C59.6594 29.3045 60.6822 27.4248 60.9284 25.3728C61.8035 25.7478 62.7489 25.9304 63.7006 25.9083C64.6523 25.8861 65.5882 25.6598 66.4449 25.2445C67.3015 24.8292 68.059 24.2348 68.6659 23.5013C69.2728 22.7679 69.7151 21.9127 69.9628 20.9934Z" fill="url(#paint5_linear_3_6088)"/>
<path d="M55.8906 44.2072L68.6153 36.8572L72.1678 37.8219C72.3629 37.8742 72.5663 37.8875 72.7665 37.8612C72.9667 37.8348 73.1598 37.7693 73.3347 37.6683C73.5096 37.5674 73.6629 37.433 73.7858 37.2728C73.9088 37.1126 73.999 36.9297 74.0513 36.7347C74.1035 36.5396 74.1169 36.3362 74.0905 36.136C74.0642 35.9358 73.9987 35.7427 73.8977 35.5678C73.7968 35.3929 73.6624 35.2396 73.5022 35.1167C73.342 34.9937 73.1591 34.9035 72.9641 34.8512L72.3516 34.6981L75.7816 32.7228C75.9565 32.6223 76.1099 32.4882 76.2331 32.3284C76.3562 32.1686 76.4467 31.986 76.4993 31.7912C76.5519 31.5964 76.5656 31.3932 76.5397 31.1931C76.5138 30.993 76.4487 30.7999 76.3481 30.625C76.2476 30.45 76.1136 30.2966 75.9537 30.1735C75.7939 30.0503 75.6114 29.9599 75.4166 29.9072C75.2218 29.8546 75.0185 29.8409 74.8184 29.8668C74.6183 29.8928 74.4253 29.9579 74.2503 30.0584L66.8391 34.3459L67.0075 33.7334C67.0607 33.5384 67.0747 33.3347 67.0487 33.1342C67.0228 32.9337 66.9574 32.7403 66.8563 32.5652C66.7552 32.3901 66.6205 32.2367 66.4598 32.114C66.2992 31.9912 66.1158 31.9015 65.9203 31.85C65.7252 31.7968 65.5216 31.7828 65.3211 31.8087C65.1206 31.8347 64.9272 31.9001 64.7521 32.0012C64.577 32.1022 64.4236 32.237 64.3009 32.3976C64.1781 32.5583 64.0884 32.7417 64.0369 32.9372L63.1028 36.505L54.3594 41.5428L55.8906 44.2072Z" fill="#7ECE67"/>
<path d="M60.5456 19.0794L61.25 18.375C58.8442 17.4178 56.6638 15.9706 54.8475 14.1252C53.0312 12.2799 51.6187 10.0769 50.6997 7.65625L49 3.0625L47.3003 7.65625C46.3838 10.0783 44.9722 12.2826 43.1555 14.1282C41.3389 15.9739 39.1573 17.4203 36.75 18.375L37.4544 19.0794C38.1278 19.7521 38.6489 20.5617 38.9823 21.4533C39.3157 22.3449 39.4537 23.2977 39.3869 24.2473C39.3201 25.1968 39.0501 26.1209 38.5952 26.9571C38.1402 27.7932 37.511 28.5219 36.75 29.0938C38.4044 30.3353 39.5212 32.1626 39.8714 34.2012C40.2216 36.2397 39.7787 38.335 38.6334 40.0575L36.75 42.875H61.25L59.3666 40.0575C58.2213 38.335 57.7784 36.2397 58.1286 34.2012C58.4788 32.1626 59.5956 30.3353 61.25 29.0938C60.489 28.5219 59.8598 27.7932 59.4048 26.9571C58.9499 26.1209 58.6799 25.1968 58.6131 24.2473C58.5463 23.2977 58.6843 22.3449 59.0177 21.4533C59.3511 20.5617 59.8722 19.7521 60.5456 19.0794Z" fill="url(#paint6_linear_3_6088)"/>
<path d="M50.5312 42.875V32.7841L53.1497 30.1809C53.438 29.8926 53.6 29.5015 53.6 29.0938C53.6 28.686 53.438 28.2949 53.1497 28.0066C52.8613 27.7182 52.4703 27.5562 52.0625 27.5562C51.6547 27.5562 51.2636 27.7182 50.9753 28.0066L50.5312 28.4659V19.9062C50.5312 19.5001 50.3699 19.1107 50.0827 18.8235C49.7956 18.5363 49.4061 18.375 49 18.375C48.5939 18.375 48.2044 18.5363 47.9172 18.8235C47.6301 19.1107 47.4687 19.5001 47.4687 19.9062V23.8722L47.0247 23.4128C46.7363 23.1245 46.3453 22.9625 45.9375 22.9625C45.5297 22.9625 45.1386 23.1245 44.8503 23.4128C44.562 23.7012 44.4 24.0922 44.4 24.5C44.4 24.9078 44.562 25.2988 44.8503 25.5872L47.4687 28.1903V42.875H50.5312Z" fill="#7ECE67"/>
<path d="M39.8125 45.9375C44.8866 45.9375 49 41.8241 49 36.75C49 31.6759 44.8866 27.5625 39.8125 27.5625C34.7384 27.5625 30.625 31.6759 30.625 36.75C30.625 41.8241 34.7384 45.9375 39.8125 45.9375Z" fill="url(#paint7_linear_3_6088)"/>
<path d="M58.31 45.9375C63.3841 45.9375 67.4975 41.8241 67.4975 36.75C67.4975 31.6759 63.3841 27.5625 58.31 27.5625C53.2359 27.5625 49.1225 31.6759 49.1225 36.75C49.1225 41.8241 53.2359 45.9375 58.31 45.9375Z" fill="url(#paint8_linear_3_6088)"/>
<path d="M49 55.125C54.0741 55.125 58.1875 51.0116 58.1875 45.9375C58.1875 40.8634 54.0741 36.75 49 36.75C43.9259 36.75 39.8125 40.8634 39.8125 45.9375C39.8125 51.0116 43.9259 55.125 49 55.125Z" fill="url(#paint9_linear_3_6088)"/>
<defs>
<linearGradient id="paint0_linear_3_6088" x1="11.4985" y1="75.7075" x2="25.9406" y2="87.0682" gradientUnits="userSpaceOnUse">
<stop stop-color="#E9A254"/>
<stop offset="1" stop-color="#F4BB79"/>
</linearGradient>
<linearGradient id="paint1_linear_3_6088" x1="13.4076" y1="46.0374" x2="54.3269" y2="78.2261" gradientUnits="userSpaceOnUse">
<stop stop-color="#FBCC88"/>
<stop offset="1" stop-color="#FFE5C3"/>
</linearGradient>
<linearGradient id="paint2_linear_3_6088" x1="72.062" y1="87.0692" x2="86.5041" y2="75.7085" gradientUnits="userSpaceOnUse">
<stop stop-color="#E9A254"/>
<stop offset="1" stop-color="#F4BB79"/>
</linearGradient>
<linearGradient id="paint3_linear_3_6088" x1="43.6758" y1="78.2271" x2="84.5951" y2="46.0383" gradientUnits="userSpaceOnUse">
<stop stop-color="#FBCC88"/>
<stop offset="1" stop-color="#FFE5C3"/>
</linearGradient>
<linearGradient id="paint4_linear_3_6088" x1="19.5126" y1="43.5268" x2="31.7626" y2="22.3092" gradientUnits="userSpaceOnUse">
<stop stop-color="#46C129"/>
<stop offset="1" stop-color="#D4E6B6"/>
</linearGradient>
<linearGradient id="paint5_linear_3_6088" x1="78.4233" y1="43.4034" x2="66.1733" y2="22.0884" gradientUnits="userSpaceOnUse">
<stop stop-color="#8CD46C" stop-opacity="0.0705882"/>
<stop offset="1" stop-color="#D4E6B6"/>
</linearGradient>
<linearGradient id="paint6_linear_3_6088" x1="36.75" y1="22.9688" x2="61.25" y2="22.9688" gradientUnits="userSpaceOnUse">
<stop stop-color="#46C129"/>
<stop offset="1" stop-color="#D4E6B6"/>
</linearGradient>
<linearGradient id="paint7_linear_3_6088" x1="30.625" y1="36.75" x2="49" y2="36.75" gradientUnits="userSpaceOnUse">
<stop stop-color="#FF0022"/>
<stop offset="1" stop-color="#F4929C"/>
</linearGradient>
<linearGradient id="paint8_linear_3_6088" x1="49.1225" y1="0" x2="67.4975" y2="0" gradientUnits="userSpaceOnUse">
<stop stop-color="#FF0022"/>
<stop offset="1" stop-color="#F4929C"/>
</linearGradient>
<linearGradient id="paint9_linear_3_6088" x1="39.8125" y1="45.9375" x2="58.1875" y2="45.9375" gradientUnits="userSpaceOnUse">
<stop stop-color="#FF0022"/>
<stop offset="1" stop-color="#F4929C"/>
</linearGradient>
</defs>
</svg>
