<svg width="61" height="51" viewBox="0 0 61 51" fill="none" xmlns="http://www.w3.org/2000/svg">
<path d="M36.2266 8.88031H1.07764V15.413H36.2266V8.88031Z" fill="#FA6F00"/>
<path d="M36.2283 16.1699H1.0776C0.876979 16.1699 0.684578 16.0902 0.54272 15.9484C0.400862 15.8065 0.321167 15.6141 0.321167 15.4135V8.88033C0.321167 8.67971 0.400862 8.48731 0.54272 8.34545C0.684578 8.20359 0.876979 8.1239 1.0776 8.1239H36.2283C36.4289 8.1239 36.6213 8.20359 36.7632 8.34545C36.905 8.48731 36.9847 8.67971 36.9847 8.88033V15.4135C36.9847 15.6141 36.905 15.8065 36.7632 15.9484C36.6213 16.0902 36.4289 16.1699 36.2283 16.1699V16.1699ZM1.83403 14.6571H35.4719V9.63675H1.83403V14.6571Z" fill="black"/>
<path d="M27.2621 40.7171H4.45105V15.4133H32.8532V18.9459" fill="#FA9800"/>
<path d="M27.2617 41.4729H4.45247C4.25186 41.4729 4.05946 41.3932 3.9176 41.2514C3.77574 41.1095 3.69604 40.9171 3.69604 40.7165V15.4134C3.69604 15.2127 3.77574 15.0203 3.9176 14.8785C4.05946 14.7366 4.25186 14.6569 4.45247 14.6569H32.8535C33.0541 14.6569 33.2465 14.7366 33.3884 14.8785C33.5302 15.0203 33.6099 15.2127 33.6099 15.4134V18.9459C33.6099 19.1465 33.5302 19.3389 33.3884 19.4808C33.2465 19.6226 33.0541 19.7023 32.8535 19.7023C32.6529 19.7023 32.4605 19.6226 32.3186 19.4808C32.1768 19.3389 32.0971 19.1465 32.0971 18.9459V16.1698H5.20716V39.9601H27.26C27.4606 39.9601 27.653 40.0398 27.7949 40.1816C27.9367 40.3235 28.0164 40.5159 28.0164 40.7165C28.0164 40.9171 27.9367 41.1095 27.7949 41.2514C27.653 41.3932 27.4606 41.4729 27.26 41.4729H27.2617Z" fill="black"/>
<path d="M22.632 8.88031H14.672V15.413H22.632V8.88031Z" fill="#FE5B4A"/>
<path d="M22.6319 16.1699H14.672C14.4713 16.1699 14.2789 16.0902 14.1371 15.9484C13.9952 15.8065 13.9155 15.6141 13.9155 15.4135V8.88033C13.9155 8.67971 13.9952 8.48731 14.1371 8.34545C14.2789 8.20359 14.4713 8.1239 14.672 8.1239H22.6319C22.8325 8.1239 23.0249 8.20359 23.1668 8.34545C23.3087 8.48731 23.3884 8.67971 23.3884 8.88033V15.4135C23.3884 15.6141 23.3087 15.8065 23.1668 15.9484C23.0249 16.0902 22.8325 16.1699 22.6319 16.1699ZM15.4284 14.6571H21.8755V9.63675H15.4284V14.6571Z" fill="black"/>
<path d="M21.5 16.0522H15.8035V40.7171H21.5V16.0522Z" fill="#FE5B4A"/>
<path d="M21.5006 41.4729H15.8053C15.6046 41.4729 15.4122 41.3932 15.2704 41.2514C15.1285 41.1095 15.0488 40.9171 15.0488 40.7165V16.0522C15.0488 15.8516 15.1285 15.6592 15.2704 15.5173C15.4122 15.3755 15.6046 15.2958 15.8053 15.2958H21.5018C21.7024 15.2958 21.8948 15.3755 22.0366 15.5173C22.1785 15.6592 22.2582 15.8516 22.2582 16.0522V40.7165C22.2582 40.8159 22.2386 40.9144 22.2005 41.0063C22.1624 41.0981 22.1066 41.1815 22.0362 41.2518C21.9659 41.3221 21.8823 41.3777 21.7904 41.4157C21.6985 41.4536 21.6 41.4731 21.5006 41.4729V41.4729ZM16.5605 39.9601H20.7442V16.8086H16.5617L16.5605 39.9601Z" fill="black"/>
<path d="M18.3508 8.88092L25.5759 1.65527L29.9958 6.07573L27.1912 8.88092" fill="#FE5B4A"/>
<path d="M18.3508 9.63666C18.2012 9.6366 18.055 9.59221 17.9307 9.50909C17.8063 9.42597 17.7094 9.30785 17.6522 9.16966C17.5949 9.03148 17.58 8.87943 17.6091 8.73273C17.6383 8.58603 17.7103 8.45127 17.816 8.34549L25.0411 1.1204C25.1829 0.978628 25.3753 0.898987 25.5758 0.898987C25.7764 0.898987 25.9687 0.978628 26.1106 1.1204L30.5327 5.54262C30.6745 5.68446 30.7542 5.87681 30.7542 6.07736C30.7542 6.27791 30.6745 6.47025 30.5327 6.61209L27.7276 9.41729C27.5857 9.55911 27.3932 9.63876 27.1926 9.6387C26.992 9.63865 26.7996 9.5589 26.6578 9.417C26.516 9.2751 26.4363 9.08268 26.4364 8.88206C26.4364 8.68144 26.5162 8.48905 26.6581 8.34723L28.9274 6.07794L25.577 2.72753L18.8855 9.41904C18.8151 9.48871 18.7316 9.54379 18.6398 9.58113C18.5481 9.61848 18.4498 9.63735 18.3508 9.63666V9.63666Z" fill="black"/>
<path d="M18.3505 8.88092L11.1254 1.65527L6.70496 6.07573L9.51014 8.88092" fill="#FE5B4A"/>
<path d="M18.35 9.63671C18.2507 9.63694 18.1523 9.61752 18.0606 9.57957C17.9688 9.54162 17.8854 9.48589 17.8153 9.4156L11.1238 2.7241L7.77454 6.07567L10.0438 8.34496C10.1141 8.41522 10.1698 8.49863 10.2079 8.59043C10.2459 8.68223 10.2655 8.78062 10.2655 8.87999C10.2655 8.97935 10.2459 9.07774 10.2079 9.16954C10.1698 9.26134 10.1141 9.34475 10.0438 9.41501C9.97357 9.48527 9.89016 9.54101 9.79836 9.57903C9.70656 9.61706 9.60817 9.63663 9.5088 9.63663C9.40944 9.63663 9.31105 9.61706 9.21925 9.57903C9.12745 9.54101 9.04404 9.48527 8.97378 9.41501L6.16917 6.60982C6.02739 6.46798 5.94775 6.27563 5.94775 6.07509C5.94775 5.87454 6.02739 5.68219 6.16917 5.54035L10.5914 1.11814C10.7332 0.976369 10.9256 0.896729 11.1261 0.896729C11.3267 0.896729 11.519 0.976369 11.6608 1.11814L18.8848 8.34554C18.9905 8.45133 19.0625 8.58608 19.0916 8.73278C19.1208 8.87948 19.1058 9.03153 19.0486 9.16971C18.9914 9.3079 18.8945 9.42602 18.7701 9.50914C18.6458 9.59226 18.4996 9.63665 18.35 9.63671V9.63671Z" fill="black"/>
<path opacity="0.6" d="M32.8528 34.4504V16.0522H4.93701L32.8528 34.4504Z" fill="#B73F39"/>
<path d="M59.9214 23.3967H24.7725V28.7208H59.9214V23.3967Z" fill="#469BB5"/>
<path d="M59.9208 29.4771H24.7724C24.5718 29.4771 24.3794 29.3974 24.2375 29.2556C24.0957 29.1137 24.016 28.9213 24.016 28.7207V23.3966C24.016 23.196 24.0957 23.0036 24.2375 22.8618C24.3794 22.7199 24.5718 22.6402 24.7724 22.6402H59.9208C60.1214 22.6402 60.3138 22.7199 60.4557 22.8618C60.5975 23.0036 60.6772 23.196 60.6772 23.3966V28.7207C60.6772 28.9213 60.5975 29.1137 60.4557 29.2556C60.3138 29.3974 60.1214 29.4771 59.9208 29.4771V29.4771ZM25.5289 27.9643H59.1644V24.1531H25.5289V27.9643Z" fill="black"/>
<path d="M56.5481 28.7208H28.1459V49.3439H56.5481V28.7208Z" fill="#4DBAB5"/>
<path d="M56.5481 50.101H28.146C27.9453 50.101 27.7529 50.0213 27.6111 49.8794C27.4692 49.7376 27.3895 49.5452 27.3895 49.3445V28.7208C27.3895 28.5202 27.4692 28.3278 27.6111 28.1859C27.7529 28.0441 27.9453 27.9644 28.146 27.9644H56.5481C56.7487 27.9644 56.9411 28.0441 57.083 28.1859C57.2248 28.3278 57.3045 28.5202 57.3045 28.7208V49.3445C57.3045 49.5452 57.2248 49.7376 57.083 49.8794C56.9411 50.0213 56.7487 50.101 56.5481 50.101V50.101ZM28.9024 48.5881H55.7917V29.4772H28.9024V48.5881Z" fill="black"/>
<path d="M46.3268 23.3967H38.3668V28.7208H46.3268V23.3967Z" fill="#4161B5"/>
<path d="M46.3267 29.4771H38.3668C38.1662 29.4771 37.9738 29.3974 37.8319 29.2556C37.69 29.1137 37.6104 28.9213 37.6104 28.7207V23.3966C37.6104 23.196 37.69 23.0036 37.8319 22.8618C37.9738 22.7199 38.1662 22.6402 38.3668 22.6402H46.3267C46.5274 22.6402 46.7198 22.7199 46.8616 22.8618C47.0035 23.0036 47.0832 23.196 47.0832 23.3966V28.7207C47.0832 28.9213 47.0035 29.1137 46.8616 29.2556C46.7198 29.3974 46.5274 29.4771 46.3267 29.4771ZM39.1232 27.9643H45.5703V24.1531H39.1232V27.9643Z" fill="black"/>
<path d="M45.196 29.2415H39.4995V49.3439H45.196V29.2415Z" fill="#4161B5"/>
<path d="M45.1961 50.101H39.4996C39.299 50.101 39.1066 50.0213 38.9647 49.8794C38.8229 49.7376 38.7432 49.5452 38.7432 49.3445V29.2415C38.7432 29.0409 38.8229 28.8485 38.9647 28.7067C39.1066 28.5648 39.299 28.4851 39.4996 28.4851H45.1961C45.3967 28.4851 45.5891 28.5648 45.731 28.7067C45.8728 28.8485 45.9525 29.0409 45.9525 29.2415V49.3445C45.9525 49.5452 45.8728 49.7376 45.731 49.8794C45.5891 50.0213 45.3967 50.101 45.1961 50.101V50.101ZM40.256 48.5881H44.4397V29.998H40.256V48.5881Z" fill="black"/>
<path d="M42.0457 23.3966L49.2707 17.5081L53.6906 21.1104L50.886 23.3966" fill="#4161B5"/>
<path d="M50.8873 24.1532C50.7311 24.1534 50.5786 24.1051 50.4509 24.0151C50.3232 23.9251 50.2265 23.7978 50.1741 23.6506C50.1217 23.5034 50.1161 23.3436 50.1582 23.1932C50.2002 23.0427 50.2879 22.9089 50.409 22.8103L52.4944 21.1107L49.2714 18.4858L42.5217 23.9845C42.4451 24.05 42.3561 24.0995 42.2601 24.1301C42.164 24.1606 42.0628 24.1717 41.9624 24.1627C41.862 24.1536 41.7645 24.1246 41.6754 24.0772C41.5864 24.0299 41.5078 23.9653 41.4441 23.8871C41.3804 23.809 41.333 23.7189 41.3046 23.6222C41.2763 23.5255 41.2675 23.424 41.2789 23.3239C41.2903 23.2237 41.3216 23.1268 41.3709 23.0389C41.4203 22.951 41.4867 22.8739 41.5663 22.812L48.7914 16.9235C48.9263 16.8136 49.0951 16.7536 49.2691 16.7536C49.4432 16.7536 49.6119 16.8136 49.7468 16.9235L54.169 20.5259C54.2561 20.5968 54.3263 20.6863 54.3746 20.7877C54.4228 20.8892 54.4478 21.0001 54.4478 21.1124C54.4478 21.2247 54.4228 21.3356 54.3746 21.4371C54.3263 21.5385 54.2561 21.628 54.169 21.6989L51.3638 23.9845C51.2293 24.0941 51.0609 24.1537 50.8873 24.1532V24.1532Z" fill="black"/>
<path d="M42.0452 23.3966L34.8202 17.5081L30.3998 21.1104L33.2049 23.3966" fill="#4161B5"/>
<path d="M33.2025 24.1533C33.0284 24.1531 32.8597 24.0929 32.7248 23.9828L29.9202 21.6972C29.8331 21.6263 29.7629 21.5369 29.7147 21.4354C29.6665 21.334 29.6415 21.223 29.6415 21.1107C29.6415 20.9984 29.6665 20.8875 29.7147 20.786C29.7629 20.6846 29.8331 20.5951 29.9202 20.5242L34.3424 16.9218C34.4774 16.8119 34.6461 16.7519 34.8201 16.7519C34.9942 16.7519 35.1629 16.8119 35.2978 16.9218L42.5229 22.8103C42.6025 22.8722 42.6689 22.9494 42.7183 23.0372C42.7676 23.1251 42.7989 23.222 42.8103 23.3222C42.8217 23.4223 42.8129 23.5238 42.7846 23.6205C42.7562 23.7172 42.7088 23.8073 42.6451 23.8855C42.5814 23.9636 42.5028 24.0282 42.4137 24.0756C42.3247 24.1229 42.2272 24.1519 42.1268 24.161C42.0264 24.1701 41.9252 24.159 41.8291 24.1284C41.7331 24.0978 41.6441 24.0483 41.5674 23.9828L34.8178 18.4841L31.5948 21.1107L33.6803 22.8103C33.8014 22.909 33.889 23.0427 33.931 23.1931C33.9731 23.3435 33.9676 23.5032 33.9153 23.6504C33.8629 23.7975 33.7663 23.9249 33.6387 24.0149C33.5111 24.105 33.3587 24.1533 33.2025 24.1533V24.1533Z" fill="black"/>
<path opacity="0.6" d="M56.0034 47.6396V29.2415H28.0876L56.0034 47.6396Z" fill="#124379"/>
<path opacity="0.6" d="M59.553 28.21H25.3798V24.8585L36.174 26.0164L59.553 28.21Z" fill="#124379"/>
<path d="M14.1045 7.9237C14.0281 7.92391 13.9524 7.90894 13.8817 7.87968C13.8111 7.85041 13.747 7.80743 13.6931 7.75321L10.3765 4.43656C10.3209 4.38288 10.2766 4.31868 10.2461 4.24769C10.2156 4.1767 10.1995 4.10034 10.1989 4.02308C10.1982 3.94582 10.2129 3.8692 10.2422 3.79769C10.2714 3.72618 10.3146 3.66122 10.3693 3.60658C10.4239 3.55195 10.4889 3.50874 10.5604 3.47949C10.6319 3.45023 10.7085 3.43551 10.7858 3.43618C10.863 3.43685 10.9394 3.4529 11.0104 3.4834C11.0814 3.51389 11.1456 3.55822 11.1993 3.6138L14.5159 6.93045C14.5972 7.01182 14.6526 7.11549 14.6751 7.22835C14.6975 7.3412 14.686 7.45818 14.642 7.56449C14.5979 7.67079 14.5234 7.76166 14.4277 7.8256C14.3321 7.88954 14.2196 7.92368 14.1045 7.9237Z" fill="#FFEAE8"/>
<path d="M27.5706 6.6791C27.4163 6.67907 27.2683 6.61775 27.1592 6.50862L25.0849 4.43484C25.0308 4.38077 24.988 4.3166 24.9588 4.24598C24.9295 4.17536 24.9145 4.09968 24.9146 4.02325C24.9146 3.94682 24.9297 3.87115 24.9589 3.80055C24.9882 3.72995 25.0311 3.66581 25.0852 3.61178C25.1392 3.55776 25.2034 3.51491 25.274 3.48569C25.3446 3.45647 25.4203 3.44144 25.4967 3.44147C25.5732 3.44149 25.6488 3.45658 25.7194 3.48585C25.79 3.51512 25.8542 3.55801 25.9082 3.61207L27.9819 5.68469C28.0633 5.76607 28.1187 5.86973 28.1411 5.98259C28.1636 6.09544 28.1521 6.21242 28.108 6.31873C28.064 6.42503 27.9894 6.5159 27.8938 6.57984C27.7981 6.64378 27.6856 6.67792 27.5706 6.67794V6.6791Z" fill="#FFEAE8"/>
<path opacity="0.6" d="M35.824 14.8008H1.65088V11.4492L12.4451 12.6071L35.824 14.8008Z" fill="#B73F39"/>
<path d="M36.8107 22.0708C36.6795 22.0711 36.552 22.0268 36.4493 21.9451L34.5437 20.4323C34.4266 20.3352 34.3522 20.1961 34.3364 20.0448C34.3206 19.8936 34.3646 19.7421 34.4591 19.6229C34.5536 19.5037 34.691 19.4262 34.8419 19.4071C34.9928 19.3879 35.1452 19.4286 35.2664 19.5205L37.1726 21.0333C37.2671 21.1084 37.336 21.2111 37.3696 21.3271C37.4032 21.443 37.3998 21.5666 37.3601 21.6806C37.3203 21.7946 37.2461 21.8934 37.1476 21.9633C37.0492 22.0332 36.9314 22.0708 36.8107 22.0708V22.0708Z" fill="#8ECFB5"/>
<path d="M50.7542 22.0708C50.6229 22.0711 50.4955 22.0267 50.3928 21.9451L48.4872 20.4322C48.3663 20.3363 48.2885 20.1963 48.2708 20.043C48.2531 19.8897 48.2971 19.7356 48.393 19.6147C48.4889 19.4938 48.6289 19.4159 48.7822 19.3982C48.9355 19.3806 49.0896 19.4245 49.2105 19.5204L51.1161 21.0333C51.2106 21.1084 51.2794 21.211 51.313 21.327C51.3466 21.443 51.3433 21.5665 51.3035 21.6805C51.2638 21.7945 51.1895 21.8934 51.0911 21.9633C50.9926 22.0332 50.8749 22.0708 50.7542 22.0708V22.0708Z" fill="#8ECFB5"/>
<path d="M36.2283 16.1699H1.0776C0.876979 16.1699 0.684578 16.0902 0.54272 15.9484C0.400862 15.8065 0.321167 15.6141 0.321167 15.4135V8.88033C0.321167 8.67971 0.400862 8.48731 0.54272 8.34545C0.684578 8.20359 0.876979 8.1239 1.0776 8.1239H36.2283C36.4289 8.1239 36.6213 8.20359 36.7632 8.34545C36.905 8.48731 36.9847 8.67971 36.9847 8.88033V15.4135C36.9847 15.6141 36.905 15.8065 36.7632 15.9484C36.6213 16.0902 36.4289 16.1699 36.2283 16.1699V16.1699ZM1.83403 14.6571H35.4719V9.63675H1.83403V14.6571Z" fill="#690A3F"/>
<path d="M27.2617 41.4729H4.45247C4.25186 41.4729 4.05946 41.3932 3.9176 41.2514C3.77574 41.1095 3.69604 40.9171 3.69604 40.7165V15.4134C3.69604 15.2127 3.77574 15.0203 3.9176 14.8785C4.05946 14.7366 4.25186 14.6569 4.45247 14.6569H32.8535C33.0541 14.6569 33.2465 14.7366 33.3884 14.8785C33.5302 15.0203 33.6099 15.2127 33.6099 15.4134V18.9459C33.6099 19.1465 33.5302 19.3389 33.3884 19.4808C33.2465 19.6226 33.0541 19.7023 32.8535 19.7023C32.6529 19.7023 32.4605 19.6226 32.3186 19.4808C32.1768 19.3389 32.0971 19.1465 32.0971 18.9459V16.1698H5.20716V39.9601H27.26C27.4606 39.9601 27.653 40.0398 27.7949 40.1816C27.9367 40.3235 28.0164 40.5159 28.0164 40.7165C28.0164 40.9171 27.9367 41.1095 27.7949 41.2514C27.653 41.3932 27.4606 41.4729 27.26 41.4729H27.2617Z" fill="#690A3F"/>
<path d="M22.6319 16.1699H14.672C14.4713 16.1699 14.2789 16.0902 14.1371 15.9484C13.9952 15.8065 13.9155 15.6141 13.9155 15.4135V8.88033C13.9155 8.67971 13.9952 8.48731 14.1371 8.34545C14.2789 8.20359 14.4713 8.1239 14.672 8.1239H22.6319C22.8325 8.1239 23.0249 8.20359 23.1668 8.34545C23.3087 8.48731 23.3884 8.67971 23.3884 8.88033V15.4135C23.3884 15.6141 23.3087 15.8065 23.1668 15.9484C23.0249 16.0902 22.8325 16.1699 22.6319 16.1699ZM15.4284 14.6571H21.8755V9.63675H15.4284V14.6571Z" fill="#690A3F"/>
<path d="M21.5006 41.4729H15.8053C15.6046 41.4729 15.4122 41.3932 15.2704 41.2514C15.1285 41.1095 15.0488 40.9171 15.0488 40.7165V16.0522C15.0488 15.8516 15.1285 15.6592 15.2704 15.5173C15.4122 15.3755 15.6046 15.2958 15.8053 15.2958H21.5018C21.7024 15.2958 21.8948 15.3755 22.0366 15.5173C22.1785 15.6592 22.2582 15.8516 22.2582 16.0522V40.7165C22.2582 40.8159 22.2386 40.9144 22.2005 41.0063C22.1624 41.0981 22.1066 41.1815 22.0362 41.2518C21.9659 41.3221 21.8823 41.3777 21.7904 41.4157C21.6985 41.4536 21.6 41.4731 21.5006 41.4729V41.4729ZM16.5605 39.9601H20.7442V16.8086H16.5617L16.5605 39.9601Z" fill="#690A3F"/>
<path d="M18.3508 9.63666C18.2012 9.6366 18.055 9.59221 17.9307 9.50909C17.8063 9.42597 17.7094 9.30785 17.6522 9.16966C17.5949 9.03148 17.58 8.87943 17.6091 8.73273C17.6383 8.58603 17.7103 8.45127 17.816 8.34549L25.0411 1.1204C25.1829 0.978628 25.3753 0.898987 25.5758 0.898987C25.7764 0.898987 25.9687 0.978628 26.1106 1.1204L30.5327 5.54262C30.6745 5.68446 30.7542 5.87681 30.7542 6.07736C30.7542 6.27791 30.6745 6.47025 30.5327 6.61209L27.7276 9.41729C27.5857 9.55911 27.3932 9.63876 27.1926 9.6387C26.992 9.63865 26.7996 9.5589 26.6578 9.417C26.516 9.2751 26.4363 9.08268 26.4364 8.88206C26.4364 8.68144 26.5162 8.48905 26.6581 8.34723L28.9274 6.07794L25.577 2.72753L18.8855 9.41904C18.8151 9.48871 18.7316 9.54379 18.6398 9.58113C18.5481 9.61848 18.4498 9.63735 18.3508 9.63666V9.63666Z" fill="#690A3F"/>
<path d="M18.35 9.63671C18.2507 9.63694 18.1523 9.61752 18.0606 9.57957C17.9688 9.54162 17.8854 9.48589 17.8153 9.4156L11.1238 2.7241L7.77454 6.07567L10.0438 8.34496C10.1141 8.41522 10.1698 8.49863 10.2079 8.59043C10.2459 8.68223 10.2655 8.78062 10.2655 8.87999C10.2655 8.97935 10.2459 9.07774 10.2079 9.16954C10.1698 9.26134 10.1141 9.34475 10.0438 9.41501C9.97357 9.48527 9.89016 9.54101 9.79836 9.57903C9.70656 9.61706 9.60817 9.63663 9.5088 9.63663C9.40944 9.63663 9.31105 9.61706 9.21925 9.57903C9.12745 9.54101 9.04404 9.48527 8.97378 9.41501L6.16917 6.60982C6.02739 6.46798 5.94775 6.27563 5.94775 6.07509C5.94775 5.87454 6.02739 5.68219 6.16917 5.54035L10.5914 1.11814C10.7332 0.976369 10.9256 0.896729 11.1261 0.896729C11.3267 0.896729 11.519 0.976369 11.6608 1.11814L18.8848 8.34554C18.9905 8.45133 19.0625 8.58608 19.0916 8.73278C19.1208 8.87948 19.1058 9.03153 19.0486 9.16971C18.9914 9.3079 18.8945 9.42602 18.7701 9.50914C18.6458 9.59226 18.4996 9.63665 18.35 9.63671V9.63671Z" fill="#690A3F"/>
<path d="M59.9208 29.4771H24.7724C24.5718 29.4771 24.3794 29.3974 24.2375 29.2556C24.0957 29.1137 24.016 28.9213 24.016 28.7207V23.3966C24.016 23.196 24.0957 23.0036 24.2375 22.8618C24.3794 22.7199 24.5718 22.6402 24.7724 22.6402H59.9208C60.1214 22.6402 60.3138 22.7199 60.4557 22.8618C60.5975 23.0036 60.6772 23.196 60.6772 23.3966V28.7207C60.6772 28.9213 60.5975 29.1137 60.4557 29.2556C60.3138 29.3974 60.1214 29.4771 59.9208 29.4771V29.4771ZM25.5289 27.9643H59.1644V24.1531H25.5289V27.9643Z" fill="#690A3F"/>
<path d="M56.5481 50.101H28.146C27.9453 50.101 27.7529 50.0213 27.6111 49.8794C27.4692 49.7376 27.3895 49.5452 27.3895 49.3445V28.7208C27.3895 28.5202 27.4692 28.3278 27.6111 28.1859C27.7529 28.0441 27.9453 27.9644 28.146 27.9644H56.5481C56.7487 27.9644 56.9411 28.0441 57.083 28.1859C57.2248 28.3278 57.3045 28.5202 57.3045 28.7208V49.3445C57.3045 49.5452 57.2248 49.7376 57.083 49.8794C56.9411 50.0213 56.7487 50.101 56.5481 50.101V50.101ZM28.9024 48.5881H55.7917V29.4772H28.9024V48.5881Z" fill="#690A3F"/>
<path d="M46.3267 29.4771H38.3668C38.1662 29.4771 37.9738 29.3974 37.8319 29.2556C37.69 29.1137 37.6104 28.9213 37.6104 28.7207V23.3966C37.6104 23.196 37.69 23.0036 37.8319 22.8618C37.9738 22.7199 38.1662 22.6402 38.3668 22.6402H46.3267C46.5274 22.6402 46.7198 22.7199 46.8616 22.8618C47.0035 23.0036 47.0832 23.196 47.0832 23.3966V28.7207C47.0832 28.9213 47.0035 29.1137 46.8616 29.2556C46.7198 29.3974 46.5274 29.4771 46.3267 29.4771ZM39.1232 27.9643H45.5703V24.1531H39.1232V27.9643Z" fill="#690A3F"/>
<path d="M45.1961 50.101H39.4996C39.299 50.101 39.1066 50.0213 38.9647 49.8794C38.8229 49.7376 38.7432 49.5452 38.7432 49.3445V29.2415C38.7432 29.0409 38.8229 28.8485 38.9647 28.7067C39.1066 28.5648 39.299 28.4851 39.4996 28.4851H45.1961C45.3967 28.4851 45.5891 28.5648 45.731 28.7067C45.8728 28.8485 45.9525 29.0409 45.9525 29.2415V49.3445C45.9525 49.5452 45.8728 49.7376 45.731 49.8794C45.5891 50.0213 45.3967 50.101 45.1961 50.101V50.101ZM40.256 48.5881H44.4397V29.998H40.256V48.5881Z" fill="#690A3F"/>
<path d="M50.8873 24.1532C50.7311 24.1534 50.5786 24.1051 50.4509 24.0151C50.3232 23.9251 50.2265 23.7978 50.1741 23.6506C50.1217 23.5034 50.1161 23.3436 50.1582 23.1932C50.2002 23.0427 50.2879 22.9089 50.409 22.8103L52.4944 21.1107L49.2714 18.4858L42.5217 23.9845C42.4451 24.05 42.3561 24.0995 42.2601 24.1301C42.164 24.1606 42.0628 24.1717 41.9624 24.1627C41.862 24.1536 41.7645 24.1246 41.6754 24.0772C41.5864 24.0299 41.5078 23.9653 41.4441 23.8871C41.3804 23.809 41.333 23.7189 41.3046 23.6222C41.2763 23.5255 41.2675 23.424 41.2789 23.3239C41.2903 23.2237 41.3216 23.1268 41.3709 23.0389C41.4203 22.951 41.4867 22.8739 41.5663 22.812L48.7914 16.9235C48.9263 16.8136 49.0951 16.7536 49.2691 16.7536C49.4432 16.7536 49.6119 16.8136 49.7468 16.9235L54.169 20.5259C54.2561 20.5968 54.3263 20.6863 54.3746 20.7877C54.4228 20.8892 54.4478 21.0001 54.4478 21.1124C54.4478 21.2247 54.4228 21.3356 54.3746 21.4371C54.3263 21.5385 54.2561 21.628 54.169 21.6989L51.3638 23.9845C51.2293 24.0941 51.0609 24.1537 50.8873 24.1532V24.1532Z" fill="#690A3F"/>
<path d="M33.2025 24.1533C33.0284 24.1531 32.8597 24.0929 32.7248 23.9828L29.9202 21.6972C29.8331 21.6263 29.7629 21.5369 29.7147 21.4354C29.6665 21.334 29.6415 21.223 29.6415 21.1107C29.6415 20.9984 29.6665 20.8875 29.7147 20.786C29.7629 20.6846 29.8331 20.5951 29.9202 20.5242L34.3424 16.9218C34.4774 16.8119 34.6461 16.7519 34.8201 16.7519C34.9942 16.7519 35.1629 16.8119 35.2978 16.9218L42.5229 22.8103C42.6025 22.8722 42.6689 22.9494 42.7183 23.0372C42.7676 23.1251 42.7989 23.222 42.8103 23.3222C42.8217 23.4223 42.8129 23.5238 42.7846 23.6205C42.7562 23.7172 42.7088 23.8073 42.6451 23.8855C42.5814 23.9636 42.5028 24.0282 42.4137 24.0756C42.3247 24.1229 42.2272 24.1519 42.1268 24.161C42.0264 24.1701 41.9252 24.159 41.8291 24.1284C41.7331 24.0978 41.6441 24.0483 41.5674 23.9828L34.8178 18.4841L31.5948 21.1107L33.6803 22.8103C33.8014 22.909 33.889 23.0427 33.931 23.1931C33.9731 23.3435 33.9676 23.5032 33.9153 23.6504C33.8629 23.7975 33.7663 23.9249 33.6387 24.0149C33.5111 24.105 33.3587 24.1533 33.2025 24.1533V24.1533Z" fill="#690A3F"/>
</svg>
