<svg width="48" height="48" viewBox="0 0 48 48" fill="none" xmlns="http://www.w3.org/2000/svg">
<path d="M24.3473 36.1896C24.4087 36.1896 24.4702 36.1926 24.5312 36.1991C28.2475 36.5901 29.6195 41.9917 29.6195 41.9917C29.6495 42.0991 29.6871 42.2042 29.7321 42.3062C30.0943 43.1167 30.7234 43.7785 31.5144 44.1812C32.3055 44.584 33.2107 44.7034 34.0792 44.5196C34.9476 44.3357 35.7268 43.8597 36.2867 43.1709C36.8467 42.4821 37.1536 41.6221 37.1563 40.7344C37.1555 40.2897 37.0801 39.8483 36.9332 39.4286C36.5328 38.2843 35.6442 35.7762 34.7229 33.3747C33.8017 30.9732 32.6329 28.664 32.9926 27.9465C33.7179 26.4997 37.6985 26.6544 38.8127 26.727C39.0128 26.7403 39.2138 26.7292 39.4113 26.6939L39.7765 26.6286C40.5976 26.4043 41.3223 25.9163 41.8389 25.2398C42.3554 24.5632 42.6352 23.7355 42.6352 22.8843C42.6352 21.2971 41.683 20.0385 40.3209 19.3995L40.2126 19.3471C39.9162 19.2046 39.6016 19.1034 39.2776 19.0463C38.0135 18.8251 34.5425 18.3215 30.4497 18.6124C27.9927 18.7868 28.709 16.6985 28.709 16.6985C28.801 16.5956 28.9039 16.503 29.0158 16.4222C30.8635 15.0902 32.0516 13.011 32.0516 10.6752C32.0516 6.65544 28.5311 3.39454 24.1861 3.39454H23.8136C19.4694 3.39454 15.9503 6.65415 15.9503 10.6752C15.9503 13.011 17.1384 15.0898 18.9865 16.4222C19.0982 16.5031 19.2009 16.5957 19.2928 16.6985C19.2928 16.6985 20.0091 18.7868 17.5522 18.6124C13.4594 18.3215 9.98967 18.8251 8.72424 19.0463C8.40042 19.1034 8.08596 19.2046 7.78967 19.3471L7.68139 19.3995C6.31885 20.0385 5.36666 21.2971 5.36666 22.8843C5.36664 23.7355 5.64646 24.5632 6.16302 25.2398C6.67957 25.9163 7.40422 26.4043 8.22537 26.6286L8.59061 26.6939C8.78805 26.7292 8.98904 26.7403 9.18916 26.727C10.3033 26.6544 14.284 26.4997 15.0093 27.9465C15.3689 28.664 14.2023 30.9663 13.2789 33.3747C12.3555 35.7831 11.4669 38.2852 11.0665 39.4295C10.9197 39.8489 10.8443 40.29 10.8435 40.7344C10.8463 41.622 11.1534 42.4818 11.7134 43.1705C12.2734 43.8592 13.0526 44.335 13.921 44.5188C14.7894 44.7025 15.6945 44.5831 16.4855 44.1803C17.2765 43.7775 17.9055 43.1157 18.2676 42.3054C18.3125 42.2033 18.3503 42.0982 18.3806 41.9908C18.3806 41.9908 19.7737 36.505 23.5558 36.19C23.6142 36.1853 23.6731 36.184 23.732 36.1844L24.3473 36.1896Z" fill="#F3970D"/>
<path d="M33.2711 45.1641C32.4141 45.1643 31.5754 44.916 30.8567 44.4491C30.1381 43.9823 29.5703 43.317 29.2221 42.5339C29.1665 42.4085 29.1198 42.2793 29.0825 42.1472L29.0782 42.1309C29.0653 42.0811 27.7547 37.1014 24.4728 36.7564C24.4362 36.7525 24.3941 36.7503 24.3439 36.7499L23.7285 36.7456C23.6783 36.7456 23.6383 36.7456 23.6026 36.7495C20.2567 37.0279 18.9358 42.0776 18.9229 42.1309L18.9182 42.1472C18.8808 42.2793 18.8342 42.4085 18.7785 42.5339C18.3643 43.461 17.6448 44.218 16.7399 44.6788C15.8351 45.1396 14.7997 45.2763 13.8063 45.0661C12.8129 44.8559 11.9215 44.3115 11.2809 43.5238C10.6403 42.736 10.289 41.7524 10.2858 40.737C10.2861 40.2288 10.3721 39.7243 10.5401 39.2447C10.9776 37.9951 11.8472 35.5451 12.756 33.1753C12.9872 32.5738 13.2287 31.9847 13.4646 31.4162C13.7972 30.611 14.1113 29.8504 14.3081 29.2433C14.5659 28.4445 14.5165 28.224 14.5066 28.194C14.1418 27.4794 11.9714 27.1056 9.22443 27.2856C8.97924 27.3008 8.73312 27.2864 8.49138 27.2426L8.10122 27.173L8.07716 27.1666C7.13835 26.909 6.31 26.3504 5.71924 25.5766C5.12848 24.8028 4.80794 23.8566 4.80681 22.883C4.80681 21.1595 5.79122 19.6681 7.44037 18.8934L7.54607 18.8427C7.88864 18.6779 8.25228 18.561 8.62673 18.4955C9.94287 18.2647 13.4513 17.7603 17.5909 18.0542C18.1448 18.0937 18.5401 18.0001 18.7038 17.7899C18.8756 17.5717 18.8374 17.1944 18.7897 16.9838C18.7478 16.9446 18.7034 16.908 18.6569 16.8743C16.5803 15.3768 15.3913 13.1171 15.3913 10.6743C15.3896 6.3538 19.1687 2.83594 23.8136 2.83594H24.1862C28.8315 2.83594 32.608 6.35251 32.608 10.6752C32.608 13.1179 31.4169 15.3777 29.3424 16.8751C29.2959 16.9088 29.2515 16.9454 29.2096 16.9847C29.1637 17.1935 29.1263 17.5717 29.2956 17.7908C29.4593 18.0009 29.8542 18.0946 30.4089 18.0551C34.5485 17.7611 38.0573 18.2656 39.3731 18.4963C39.7473 18.562 40.1108 18.6788 40.4533 18.8435L40.5594 18.8942C42.2086 19.6677 43.1925 21.1604 43.1925 22.8839C43.1914 23.8574 42.8709 24.8037 42.2801 25.5775C41.6894 26.3512 40.861 26.9098 39.9222 27.1674L39.8981 27.1739L39.508 27.2435C39.2662 27.2872 39.0201 27.3017 38.7749 27.2865C36.0292 27.1056 33.8593 27.4794 33.4941 28.194C33.4842 28.224 33.4339 28.4449 33.6926 29.2433C33.8894 29.8504 34.2035 30.611 34.5361 31.4158C34.7707 31.9847 35.0134 32.5729 35.2446 33.1775C36.1534 35.5464 37.0231 37.9969 37.4605 39.2464C37.6281 39.7246 37.7141 40.2277 37.7149 40.7344C37.7103 41.9103 37.2402 43.0365 36.4074 43.8666C35.5746 44.6968 34.4469 45.1633 33.2711 45.1641ZM30.1584 41.8447C30.1816 41.9245 30.2103 42.0027 30.2443 42.0785C30.5551 42.7709 31.0935 43.336 31.7701 43.6798C32.4466 44.0237 33.2205 44.1256 33.963 43.9685C34.7055 43.8114 35.3718 43.4049 35.8512 42.8165C36.3305 42.2281 36.594 41.4933 36.5977 40.7344C36.5968 40.3532 36.532 39.9749 36.4061 39.6151C35.9708 38.3711 35.1054 35.9314 34.203 33.5754C33.977 32.9863 33.7368 32.4045 33.5044 31.8424C32.5878 29.6231 32.1268 28.4307 32.4946 27.6968C32.9002 26.8881 33.9478 26.4026 35.6979 26.2127C36.938 26.0778 38.2056 26.1267 38.8505 26.1697C39.0057 26.1801 39.1616 26.1714 39.3146 26.1439L39.6545 26.0833C40.3516 25.8865 40.9654 25.4677 41.4028 24.8903C41.8402 24.313 42.0772 23.6086 42.0779 22.8843C42.0779 21.6047 41.3329 20.491 40.0846 19.9049L39.9703 19.8516C39.7202 19.7313 39.4548 19.646 39.1814 19.5981C37.9057 19.3746 34.5051 18.8856 30.4893 19.171C29.5194 19.2397 28.8199 19.0042 28.4096 18.471C27.8054 17.6855 28.1406 16.6358 28.1805 16.5185L28.2175 16.4115L28.2931 16.3256C28.4119 16.193 28.5446 16.0736 28.6889 15.9693C30.4712 14.6842 31.493 12.7544 31.493 10.6752C31.493 6.96868 28.2153 3.95313 24.1883 3.95313H23.8158C19.7866 3.95313 16.5111 6.96868 16.5111 10.6752C16.5111 12.7544 17.5329 14.6842 19.3152 15.9689C19.4595 16.0733 19.5922 16.1929 19.711 16.3256L19.7866 16.4115L19.8235 16.5185C19.8635 16.6358 20.1987 17.6855 19.5945 18.471C19.1842 19.0042 18.4846 19.2401 17.5148 19.171C13.499 18.8852 10.0984 19.3742 8.82267 19.5981C8.54932 19.646 8.28387 19.7313 8.03376 19.8516L7.92076 19.9057C6.67251 20.4918 5.92743 21.6056 5.92743 22.8852C5.92815 23.6095 6.1652 24.3138 6.60258 24.8912C7.03997 25.4685 7.65379 25.8874 8.35087 26.0842L8.69076 26.1448C8.84396 26.1723 8.99995 26.1809 9.15525 26.1706C9.79978 26.1276 11.0674 26.0778 12.3074 26.2135C14.0576 26.4035 15.1051 26.889 15.5108 27.6977C15.8786 28.4316 15.4175 29.624 14.501 31.8433C14.2685 32.4058 14.0283 32.9871 13.8023 33.5762C12.8948 35.9318 12.0312 38.3711 11.5937 39.6138C11.4677 39.974 11.4029 40.3528 11.4021 40.7344C11.4055 41.4938 11.6689 42.2292 12.1485 42.818C12.6281 43.4068 13.2949 43.8136 14.038 43.9706C14.781 44.1275 15.5554 44.0253 16.2322 43.6808C16.909 43.3363 17.4473 42.7703 17.7576 42.0772C17.7916 42.0012 17.8203 41.9229 17.8435 41.843C18.1284 40.8248 18.5394 39.8461 19.0669 38.9297C20.2369 36.9192 21.7739 35.7801 23.5094 35.6353C23.579 35.6297 23.6512 35.6271 23.7358 35.628L24.3516 35.6323C24.4375 35.6323 24.5175 35.637 24.5901 35.6448C26.2946 35.8239 27.8033 36.9721 28.9527 38.9641C29.4716 39.871 29.8766 40.8386 30.1584 41.8447Z" fill="black"/>
<path opacity="0.3" d="M25.813 21.7186C24.1166 24.6947 21.1346 22.664 22.1052 20.6105C22.5005 19.7726 25.813 21.7186 25.813 21.7186Z" fill="#B73F39"/>
<path opacity="0.3" d="M25.813 26.7557C24.1166 29.7317 21.1346 27.701 22.1052 25.6475C22.5005 24.8096 25.813 26.7557 25.813 26.7557Z" fill="#B73F39"/>
<path opacity="0.3" d="M25.813 31.6611C24.1166 34.637 21.1346 32.6064 22.1052 30.5529C22.5005 29.715 25.813 31.6611 25.813 31.6611Z" fill="#B73F39"/>
<path d="M15.4875 36.3945C15.4862 36.3633 15.4824 36.3323 15.476 36.3017C15.4781 36.3202 15.4798 36.3386 15.4815 36.3567C15.4832 36.3747 15.4854 36.3829 15.4875 36.3945Z" fill="#FA6F00"/>
<path d="M17.7691 11.0468V11.0494C17.788 10.9875 17.7644 10.9295 17.7571 10.9432C17.7656 10.9771 17.7696 11.0119 17.7691 11.0468Z" fill="#FA6F00"/>
<path d="M19.0403 17.5226C19.0025 17.5381 19.0154 17.5355 19.0403 17.5226V17.5226Z" fill="#FA6F00"/>
<path d="M16.295 20.5628L16.2885 20.5688C16.3886 20.5207 16.4058 20.4906 16.3861 20.4949H16.3831C16.3547 20.516 16.3255 20.5426 16.295 20.5628Z" fill="#FA6F00"/>
<path d="M15.3548 21.9459C15.4408 21.7908 15.4137 21.814 15.3875 21.8647C15.3793 21.8832 15.3716 21.9034 15.3634 21.9236C15.3604 21.9309 15.3574 21.9386 15.3548 21.9459Z" fill="#FA6F00"/>
<path d="M36.3335 26.2611C36.3335 26.2611 37.8456 26.3351 39.3327 26.2611C40.8199 26.1872 42.2576 24.9291 42.2825 23.5064C42.3074 22.0837 42.3319 21.3387 40.5208 20.0101C38.7097 18.6815 36.1367 19.1241 36.1367 19.1241L37.2771 20.6396L34.5984 22.3179L36.9617 23.4132L34.2267 25.2316C34.2267 25.2316 35.3418 26.3351 36.3335 26.2611Z" fill="#F3D49E"/>
<path d="M11.6735 26.2611C11.6735 26.2611 10.1615 26.3351 8.67431 26.2611C7.18717 26.1872 5.74943 24.9291 5.72451 23.5064C5.69959 22.0837 5.6751 21.3387 7.48623 20.0101C9.29736 18.6815 11.872 19.1241 11.872 19.1241L10.7317 20.6396L13.4086 22.3179L11.0453 23.4132L13.7803 25.2316C13.7803 25.2316 12.6652 26.3351 11.6735 26.2611Z" fill="#F3D49E"/>
<path d="M18.6943 40.0672C18.6943 40.0672 18.3617 41.4387 17.63 42.7132C16.8982 43.9877 14.6677 44.7074 13.4848 44.1269C12.3018 43.5464 11.6762 43.2525 11.3973 41.1014C11.1185 38.9504 12.6469 36.8742 12.6469 36.8742L13.3812 38.5169L15.9718 36.8772L15.8085 39.4158L18.5405 37.7829C18.5405 37.7829 19.2026 39.228 18.6943 40.0672Z" fill="#F3D49E"/>
<path d="M29.3664 40.0672C29.3664 40.0672 29.699 41.4387 30.4308 42.7132C31.1625 43.9877 33.393 44.7074 34.576 44.1269C35.7589 43.5464 36.3845 43.2525 36.6634 41.1014C36.9423 38.9504 35.4139 36.8742 35.4139 36.8742L34.6795 38.5169L32.0889 36.8772L32.2522 39.4158L29.6986 38.1069C29.6986 38.1069 28.8581 39.228 29.3664 40.0672Z" fill="#F3D49E"/>
<path d="M33.2711 45.1641C32.4141 45.1643 31.5754 44.916 30.8567 44.4491C30.1381 43.9823 29.5703 43.317 29.2221 42.5339C29.1665 42.4085 29.1198 42.2793 29.0825 42.1472L29.0782 42.1309C29.0653 42.0811 27.7547 37.1014 24.4728 36.7564C24.4362 36.7525 24.3941 36.7503 24.3439 36.7499L23.7285 36.7456C23.6783 36.7456 23.6383 36.7456 23.6026 36.7495C20.2567 37.0279 18.9358 42.0776 18.9229 42.1309L18.9182 42.1472C18.8808 42.2793 18.8342 42.4085 18.7785 42.5339C18.3643 43.461 17.6448 44.218 16.7399 44.6788C15.8351 45.1396 14.7997 45.2763 13.8063 45.0661C12.8129 44.8559 11.9215 44.3115 11.2809 43.5238C10.6403 42.736 10.289 41.7524 10.2858 40.737C10.2861 40.2288 10.3721 39.7243 10.5401 39.2447C10.9776 37.9951 11.8472 35.5451 12.756 33.1753C12.9872 32.5738 13.2287 31.9847 13.4646 31.4162C13.7972 30.611 14.1113 29.8504 14.3081 29.2433C14.5659 28.4445 14.5165 28.224 14.5066 28.194C14.1418 27.4794 11.9714 27.1056 9.22443 27.2856C8.97924 27.3008 8.73312 27.2864 8.49138 27.2426L8.10122 27.173L8.07716 27.1666C7.13835 26.909 6.31 26.3504 5.71924 25.5766C5.12848 24.8028 4.80794 23.8566 4.80681 22.883C4.80681 21.1595 5.79122 19.6681 7.44037 18.8934L7.54607 18.8427C7.88864 18.6779 8.25228 18.561 8.62673 18.4955C9.94287 18.2647 13.4513 17.7603 17.5909 18.0542C18.1448 18.0937 18.5401 18.0001 18.7038 17.7899C18.8756 17.5717 18.8374 17.1944 18.7897 16.9838C18.7478 16.9446 18.7034 16.908 18.6569 16.8743C16.5803 15.3768 15.3913 13.1171 15.3913 10.6743C15.3896 6.3538 19.1687 2.83594 23.8136 2.83594H24.1862C28.8315 2.83594 32.608 6.35251 32.608 10.6752C32.608 13.1179 31.4169 15.3777 29.3424 16.8751C29.2959 16.9088 29.2515 16.9454 29.2096 16.9847C29.1637 17.1935 29.1263 17.5717 29.2956 17.7908C29.4593 18.0009 29.8542 18.0946 30.4089 18.0551C34.5485 17.7611 38.0573 18.2656 39.3731 18.4963C39.7473 18.562 40.1108 18.6788 40.4533 18.8435L40.5594 18.8942C42.2086 19.6677 43.1925 21.1604 43.1925 22.8839C43.1914 23.8574 42.8709 24.8037 42.2801 25.5775C41.6894 26.3512 40.861 26.9098 39.9222 27.1674L39.8981 27.1739L39.508 27.2435C39.2662 27.2872 39.0201 27.3017 38.7749 27.2865C36.0292 27.1056 33.8593 27.4794 33.4941 28.194C33.4842 28.224 33.4339 28.4449 33.6926 29.2433C33.8894 29.8504 34.2035 30.611 34.5361 31.4158C34.7707 31.9847 35.0134 32.5729 35.2446 33.1775C36.1534 35.5464 37.0231 37.9969 37.4605 39.2464C37.6281 39.7246 37.7141 40.2277 37.7149 40.7344C37.7103 41.9103 37.2402 43.0365 36.4074 43.8666C35.5746 44.6968 34.4469 45.1633 33.2711 45.1641ZM30.1584 41.8447C30.1816 41.9245 30.2103 42.0027 30.2443 42.0785C30.5551 42.7709 31.0935 43.336 31.7701 43.6798C32.4466 44.0237 33.2205 44.1256 33.963 43.9685C34.7055 43.8114 35.3718 43.4049 35.8512 42.8165C36.3305 42.2281 36.594 41.4933 36.5977 40.7344C36.5968 40.3532 36.532 39.9749 36.4061 39.6151C35.9708 38.3711 35.1054 35.9314 34.203 33.5754C33.977 32.9863 33.7368 32.4045 33.5044 31.8424C32.5878 29.6231 32.1268 28.4307 32.4946 27.6968C32.9002 26.8881 33.9478 26.4026 35.6979 26.2127C36.938 26.0778 38.2056 26.1267 38.8505 26.1697C39.0057 26.1801 39.1616 26.1714 39.3146 26.1439L39.6545 26.0833C40.3516 25.8865 40.9654 25.4677 41.4028 24.8903C41.8402 24.313 42.0772 23.6086 42.0779 22.8843C42.0779 21.6047 41.3329 20.491 40.0846 19.9049L39.9703 19.8516C39.7202 19.7313 39.4548 19.646 39.1814 19.5981C37.9057 19.3746 34.5051 18.8856 30.4893 19.171C29.5194 19.2397 28.8199 19.0042 28.4096 18.471C27.8054 17.6855 28.1406 16.6358 28.1805 16.5185L28.2175 16.4115L28.2931 16.3256C28.4119 16.193 28.5446 16.0736 28.6889 15.9693C30.4712 14.6842 31.493 12.7544 31.493 10.6752C31.493 6.96868 28.2153 3.95313 24.1883 3.95313H23.8158C19.7866 3.95313 16.5111 6.96868 16.5111 10.6752C16.5111 12.7544 17.5329 14.6842 19.3152 15.9689C19.4595 16.0733 19.5922 16.1929 19.711 16.3256L19.7866 16.4115L19.8235 16.5185C19.8635 16.6358 20.1987 17.6855 19.5945 18.471C19.1842 19.0042 18.4846 19.2401 17.5148 19.171C13.499 18.8852 10.0984 19.3742 8.82267 19.5981C8.54932 19.646 8.28387 19.7313 8.03376 19.8516L7.92076 19.9057C6.67251 20.4918 5.92743 21.6056 5.92743 22.8852C5.92815 23.6095 6.1652 24.3138 6.60258 24.8912C7.03997 25.4685 7.65379 25.8874 8.35087 26.0842L8.69076 26.1448C8.84396 26.1723 8.99995 26.1809 9.15525 26.1706C9.79978 26.1276 11.0674 26.0778 12.3074 26.2135C14.0576 26.4035 15.1051 26.889 15.5108 27.6977C15.8786 28.4316 15.4175 29.624 14.501 31.8433C14.2685 32.4058 14.0283 32.9871 13.8023 33.5762C12.8948 35.9318 12.0312 38.3711 11.5937 39.6138C11.4677 39.974 11.4029 40.3528 11.4021 40.7344C11.4055 41.4938 11.6689 42.2292 12.1485 42.818C12.6281 43.4068 13.2949 43.8136 14.038 43.9706C14.781 44.1275 15.5554 44.0253 16.2322 43.6808C16.909 43.3363 17.4473 42.7703 17.7576 42.0772C17.7916 42.0012 17.8203 41.9229 17.8435 41.843C18.1284 40.8248 18.5394 39.8461 19.0669 38.9297C20.2369 36.9192 21.7739 35.7801 23.5094 35.6353C23.579 35.6297 23.6512 35.6271 23.7358 35.628L24.3516 35.6323C24.4375 35.6323 24.5175 35.637 24.5901 35.6448C26.2946 35.8239 27.8033 36.9721 28.9527 38.9641C29.4716 39.871 29.8766 40.8386 30.1584 41.8447Z" fill="#B73F39"/>
<path d="M28.2395 10.9108C28.6081 10.5421 28.5584 9.89464 28.1283 9.46455C27.6982 9.03447 27.0507 8.98468 26.682 9.35335C26.3133 9.72201 26.3631 10.3695 26.7932 10.7996C27.2233 11.2297 27.8708 11.2795 28.2395 10.9108Z" fill="#FE5B4A"/>
<path d="M27.6181 11.3073C27.283 11.2976 26.9629 11.1662 26.7177 10.9375C26.4725 10.7088 26.3191 10.3987 26.2861 10.065C26.2715 9.91622 26.2896 9.76601 26.3393 9.62496C26.389 9.48391 26.4689 9.35545 26.5736 9.24863C27.0002 8.82152 27.7445 8.8718 28.2322 9.35949C28.4611 9.58328 28.6025 9.88151 28.6309 10.2004C28.6455 10.3492 28.6273 10.4994 28.5776 10.6404C28.5279 10.7815 28.448 10.9099 28.3434 11.0168C28.2477 11.1107 28.1343 11.1847 28.0098 11.2345C27.8853 11.2844 27.7522 11.3091 27.6181 11.3073ZM27.3032 9.2568C27.2081 9.25469 27.1135 9.27154 27.025 9.30636C26.9364 9.34118 26.8557 9.39328 26.7875 9.45961C26.7136 9.53612 26.6574 9.6279 26.6228 9.7285C26.5882 9.82909 26.5761 9.93605 26.5873 10.0418C26.61 10.2891 26.7203 10.5202 26.8984 10.6932C27.2692 11.0636 27.8222 11.1139 28.1316 10.8045C28.2055 10.728 28.2618 10.6362 28.2964 10.5357C28.331 10.4351 28.3431 10.3281 28.3318 10.2223C28.3046 9.96434 28.1854 9.72481 27.996 9.54751C27.8067 9.37022 27.5598 9.26703 27.3006 9.2568H27.3032Z" fill="#A81A3F"/>
<path d="M20.9624 10.7998C21.3924 10.3698 21.4422 9.72224 21.0736 9.35357C20.7049 8.9849 20.0574 9.03469 19.6273 9.46477C19.1972 9.89486 19.1474 10.5424 19.5161 10.911C19.8848 11.2797 20.5323 11.2299 20.9624 10.7998Z" fill="#FE5B4A"/>
<path d="M20.1377 11.3072C20.0033 11.3093 19.8698 11.2848 19.7449 11.235C19.62 11.1852 19.5063 11.1112 19.4102 11.0171C19.3056 10.9102 19.2257 10.7818 19.1761 10.6408C19.1264 10.4997 19.1082 10.3495 19.1227 10.2007C19.1511 9.88183 19.2926 9.5836 19.5215 9.35982C20.0092 8.87212 20.7534 8.82228 21.1801 9.24896C21.2847 9.35578 21.3647 9.48423 21.4144 9.62528C21.464 9.76633 21.4822 9.91654 21.4676 10.0654C21.4346 10.3986 21.2815 10.7085 21.0367 10.9371C20.792 11.1657 20.4724 11.2974 20.1377 11.3076V11.3072ZM20.4531 9.25669C20.1939 9.26692 19.947 9.37012 19.7576 9.54741C19.5683 9.7247 19.4491 9.96423 19.4218 10.2222C19.4106 10.328 19.4227 10.4349 19.4573 10.5355C19.4919 10.6361 19.5481 10.7279 19.622 10.8044C19.9314 11.1138 20.4844 11.0622 20.8553 10.6931C21.0335 10.5201 21.144 10.2891 21.1668 10.0417C21.1783 9.9361 21.1665 9.82924 21.1323 9.72866C21.0981 9.62807 21.0422 9.5362 20.9687 9.4595C20.9005 9.39317 20.8198 9.34108 20.7313 9.30626C20.6427 9.27144 20.5482 9.25459 20.4531 9.25669Z" fill="#A81A3F"/>
<path d="M23.7454 14.7614C20.2297 14.7614 19.3789 12.6228 19.3436 12.5296C19.311 12.4444 19.3136 12.3498 19.3508 12.2665C19.388 12.1832 19.4568 12.1181 19.5419 12.0855C19.6271 12.0529 19.7218 12.0555 19.805 12.0927C19.8883 12.1299 19.9534 12.1986 19.986 12.2838C19.9907 12.2963 20.1832 12.7625 20.7565 13.2093C21.5299 13.8109 22.6471 14.1117 23.9899 14.0687H24.0002C25.3803 14.0687 26.5125 13.7581 27.2748 13.1711C27.8407 12.7354 28.01 12.2937 28.0113 12.289C28.0266 12.2464 28.0501 12.2072 28.0806 12.1737C28.111 12.1402 28.1477 12.113 28.1887 12.0937C28.2296 12.0744 28.2739 12.0633 28.3191 12.0611C28.3644 12.0589 28.4096 12.0657 28.4522 12.081C28.4948 12.0963 28.5339 12.1198 28.5674 12.1502C28.601 12.1807 28.6281 12.2174 28.6474 12.2583C28.6668 12.2993 28.6778 12.3436 28.68 12.3888C28.6822 12.434 28.6754 12.4792 28.6601 12.5218C28.6283 12.6129 27.8313 14.7562 24.0062 14.7562C23.9174 14.7597 23.8304 14.7614 23.7454 14.7614Z" fill="#B73F39"/>
<path d="M24.0001 22.6124C24.8763 22.6124 25.5865 21.9022 25.5865 21.026C25.5865 20.1499 24.8763 19.4396 24.0001 19.4396C23.124 19.4396 22.4137 20.1499 22.4137 21.026C22.4137 21.9022 23.124 22.6124 24.0001 22.6124Z" fill="#68BA39"/>
<path d="M24.0001 22.9557C23.6183 22.9558 23.2451 22.8427 22.9276 22.6306C22.6101 22.4186 22.3627 22.1171 22.2165 21.7644C22.0704 21.4117 22.0321 21.0236 22.1066 20.6491C22.181 20.2747 22.3649 19.9307 22.6348 19.6607C22.9048 19.3908 23.2488 19.2069 23.6232 19.1325C23.9977 19.058 24.3858 19.0963 24.7385 19.2424C25.0912 19.3886 25.3927 19.636 25.6047 19.9535C25.8168 20.271 25.9299 20.6442 25.9298 21.026C25.9288 21.5375 25.7252 22.0277 25.3635 22.3894C25.0018 22.7511 24.5116 22.9547 24.0001 22.9557ZM24.0001 19.7833C23.7543 19.7833 23.514 19.8561 23.3096 19.9926C23.1052 20.1291 22.9459 20.3231 22.8517 20.5502C22.7576 20.7772 22.7329 21.0271 22.7808 21.2682C22.8287 21.5092 22.9471 21.7307 23.1208 21.9045C23.2946 22.0784 23.516 22.1968 23.7571 22.2447C23.9981 22.2927 24.248 22.2681 24.4751 22.1741C24.7022 22.0801 24.8963 21.9208 25.0329 21.7164C25.1694 21.5121 25.2423 21.2718 25.2423 21.026C25.242 20.6966 25.111 20.3808 24.8781 20.1478C24.6453 19.9149 24.3295 19.7838 24.0001 19.7833Z" fill="#227B39"/>
<path d="M24.0001 27.6117C24.8763 27.6117 25.5865 26.9015 25.5865 26.0253C25.5865 25.1492 24.8763 24.4389 24.0001 24.4389C23.124 24.4389 22.4137 25.1492 22.4137 26.0253C22.4137 26.9015 23.124 27.6117 24.0001 27.6117Z" fill="#68BA39"/>
<path d="M24.0001 27.955C23.6183 27.9551 23.2451 27.8419 22.9276 27.6299C22.6101 27.4178 22.3627 27.1164 22.2165 26.7637C22.0704 26.411 22.0321 26.0228 22.1066 25.6484C22.181 25.2739 22.3649 24.93 22.6348 24.66C22.9048 24.3901 23.2488 24.2062 23.6232 24.1318C23.9977 24.0573 24.3858 24.0956 24.7385 24.2417C25.0912 24.3878 25.3927 24.6353 25.6047 24.9528C25.8168 25.2702 25.9299 25.6435 25.9298 26.0253C25.9288 26.5367 25.7252 27.027 25.3635 27.3887C25.0018 27.7503 24.5116 27.954 24.0001 27.955ZM24.0001 24.7826C23.7543 24.7825 23.514 24.8553 23.3096 24.9918C23.1052 25.1283 22.9459 25.3224 22.8517 25.5494C22.7576 25.7765 22.7329 26.0264 22.7808 26.2674C22.8287 26.5085 22.9471 26.73 23.1208 26.9038C23.2946 27.0776 23.516 27.196 23.7571 27.244C23.9981 27.292 24.248 27.2674 24.4751 27.1734C24.7022 27.0793 24.8963 26.9201 25.0329 26.7157C25.1694 26.5113 25.2423 26.2711 25.2423 26.0253C25.242 25.6959 25.111 25.3801 24.8781 25.1471C24.6453 24.9142 24.3295 24.7831 24.0001 24.7826Z" fill="#227B39"/>
<path d="M24.0001 32.6113C24.8763 32.6113 25.5865 31.901 25.5865 31.0249C25.5865 30.1487 24.8763 29.4385 24.0001 29.4385C23.124 29.4385 22.4137 30.1487 22.4137 31.0249C22.4137 31.901 23.124 32.6113 24.0001 32.6113Z" fill="#68BA39"/>
<path d="M24.0001 32.9544C23.6184 32.9544 23.2452 32.8413 22.9277 32.6293C22.6103 32.4173 22.3628 32.116 22.2166 31.7633C22.0705 31.4107 22.0321 31.0226 22.1065 30.6482C22.1808 30.2738 22.3646 29.9299 22.6344 29.6598C22.9042 29.3898 23.2481 29.2059 23.6224 29.1313C23.9968 29.0567 24.3849 29.0947 24.7376 29.2407C25.0903 29.3866 25.3919 29.6339 25.6041 29.9512C25.8163 30.2685 25.9297 30.6416 25.9298 31.0233C25.9291 31.535 25.7257 32.0256 25.3639 32.3876C25.0022 32.7495 24.5118 32.9533 24.0001 32.9544ZM24.0001 29.782C23.7543 29.7819 23.5139 29.8547 23.3095 29.9913C23.105 30.1278 22.9457 30.322 22.8516 30.5491C22.7575 30.7762 22.7329 31.0262 22.7809 31.2673C22.8289 31.5084 22.9474 31.7298 23.1213 31.9036C23.2952 32.0774 23.5167 32.1957 23.7579 32.2435C23.999 32.2914 24.2489 32.2666 24.476 32.1724C24.7031 32.0781 24.8971 31.9187 25.0335 31.7141C25.1699 31.5096 25.2426 31.2692 25.2423 31.0233C25.2416 30.6942 25.1105 30.3787 24.8777 30.146C24.6448 29.9133 24.3293 29.7824 24.0001 29.782Z" fill="#227B39"/>
<path d="M11.3695 27.0463C11.2967 27.046 11.226 27.0225 11.1674 26.9794C11.1087 26.9363 11.0653 26.8757 11.0433 26.8063C11.0214 26.737 11.022 26.6624 11.0451 26.5934C11.0682 26.5244 11.1126 26.4645 11.1719 26.4224L13.1772 24.9941L11.1538 23.6453C11.1041 23.6122 11.0639 23.5667 11.0371 23.5133C11.0103 23.46 10.9979 23.4005 11.0011 23.3409C11.0042 23.2813 11.0229 23.2235 11.0551 23.1733C11.0874 23.123 11.1322 23.0821 11.1852 23.0544L12.9336 22.1392L10.7783 20.9043C10.7343 20.8791 10.6964 20.8445 10.6674 20.803C10.6384 20.7615 10.6188 20.7141 10.6103 20.6642C10.6017 20.6143 10.6042 20.563 10.6178 20.5142C10.6313 20.4654 10.6554 20.4202 10.6885 20.3818L12.4179 18.373C12.4785 18.3084 12.5617 18.2696 12.6501 18.2648C12.7385 18.26 12.8254 18.2896 12.8926 18.3472C12.9598 18.4049 13.0021 18.4863 13.0108 18.5744C13.0195 18.6625 12.9938 18.7506 12.9392 18.8203L11.4812 20.515L13.8204 21.8548C13.8736 21.8855 13.9176 21.9299 13.9478 21.9834C13.9779 22.0369 13.9932 22.0975 13.992 22.159C13.9909 22.2204 13.9732 22.2803 13.941 22.3326C13.9088 22.3849 13.8632 22.4276 13.8088 22.4563L12.0158 23.3939L13.9713 24.6972C14.0177 24.728 14.0559 24.7697 14.0826 24.8186C14.1094 24.8675 14.1238 24.9222 14.1247 24.978C14.1256 25.0337 14.1129 25.0888 14.0877 25.1385C14.0626 25.1883 14.0257 25.2312 13.9803 25.2635L11.5689 26.9823C11.5107 27.0238 11.441 27.0462 11.3695 27.0463Z" fill="#B73F39"/>
<path d="M36.6375 27.0464C36.566 27.0471 36.496 27.0255 36.4373 26.9845L34.0268 25.2657C33.9813 25.2334 33.9445 25.1905 33.9193 25.1408C33.8942 25.0911 33.8815 25.0359 33.8824 24.9802C33.8833 24.9245 33.8977 24.8698 33.9244 24.8209C33.9511 24.772 33.9894 24.7303 34.0358 24.6994L35.9913 23.3962L34.1982 22.4586C34.1439 22.4299 34.0982 22.3872 34.066 22.3349C34.0338 22.2826 34.0162 22.2227 34.015 22.1612C34.0138 22.0998 34.0291 22.0392 34.0593 21.9857C34.0895 21.9322 34.1334 21.8878 34.1866 21.857L36.5258 20.5173L35.0679 18.8204C35.0384 18.7862 35.016 18.7465 35.0019 18.7036C34.9878 18.6608 34.9822 18.6155 34.9856 18.5705C34.989 18.5254 35.0012 18.4815 35.0215 18.4412C35.0419 18.4009 35.07 18.365 35.1042 18.3355C35.1384 18.3061 35.1781 18.2837 35.221 18.2695C35.2639 18.2554 35.3091 18.2499 35.3542 18.2533C35.3992 18.2566 35.4431 18.2689 35.4834 18.2892C35.5237 18.3095 35.5596 18.3376 35.5891 18.3719L37.3186 20.3806C37.3516 20.419 37.3758 20.4643 37.3893 20.5131C37.4028 20.5619 37.4054 20.6131 37.3968 20.663C37.3882 20.713 37.3687 20.7604 37.3396 20.8019C37.3106 20.8434 37.2727 20.878 37.2288 20.9031L35.073 22.1381L36.824 23.0546C36.8769 23.0822 36.9218 23.1232 36.954 23.1734C36.9863 23.2236 37.005 23.2814 37.0081 23.341C37.0113 23.4007 36.9989 23.4601 36.9721 23.5135C36.9453 23.5668 36.9051 23.6123 36.8554 23.6454L34.832 24.9942L36.8373 26.4225C36.8968 26.4647 36.9413 26.5248 36.9643 26.594C36.9873 26.6632 36.9878 26.738 36.9655 26.8075C36.9433 26.8769 36.8995 26.9375 36.8405 26.9805C36.7816 27.0234 36.7105 27.0465 36.6375 27.0464Z" fill="#B73F39"/>
<path d="M29.2419 41.5195C29.2251 41.5194 29.2083 41.5182 29.1917 41.5156C29.1015 41.5024 29.0202 41.4539 28.9657 41.3809C28.9113 41.3078 28.888 41.2161 28.9012 41.1259L29.3279 38.1962C29.3359 38.1411 29.3571 38.0888 29.3899 38.0437C29.4226 37.9986 29.4658 37.9622 29.5157 37.9375C29.5656 37.9128 29.6208 37.9006 29.6765 37.902C29.7322 37.9033 29.7867 37.9182 29.8353 37.9453L31.8884 39.0896L31.9034 37.0666C31.9039 37.005 31.921 36.9446 31.9529 36.8918C31.9847 36.8391 32.0302 36.7958 32.0845 36.7667C32.1388 36.7375 32.1999 36.7235 32.2615 36.726C32.3231 36.7286 32.3828 36.7477 32.4345 36.7813L34.6947 38.2504L35.5351 36.1797C35.5508 36.1362 35.5752 36.0964 35.6066 36.0625C35.6381 36.0286 35.6761 36.0015 35.7184 35.9826C35.7606 35.9638 35.8062 35.9537 35.8524 35.9528C35.8986 35.952 35.9446 35.9606 35.9874 35.9779C36.0303 35.9953 36.0692 36.0211 36.1018 36.0538C36.1345 36.0866 36.1602 36.1256 36.1774 36.1685C36.1946 36.2114 36.203 36.2573 36.2021 36.3036C36.2011 36.3498 36.1909 36.3954 36.1719 36.4375L35.1746 38.8936C35.1556 38.9406 35.1264 38.9827 35.0891 39.017C35.0519 39.0514 35.0075 39.0771 34.9592 39.0923C34.9109 39.1074 34.8598 39.1118 34.8096 39.1049C34.7594 39.0981 34.7114 39.0802 34.6689 39.0526L32.5858 37.6987L32.5711 39.6752C32.5707 39.7349 32.5546 39.7934 32.5247 39.8451C32.4947 39.8967 32.4518 39.9396 32.4002 39.9696C32.3486 39.9996 32.2901 40.0157 32.2304 40.0162C32.1707 40.0167 32.1119 40.0017 32.0598 39.9726L29.9363 38.7888L29.5814 41.2251C29.5695 41.3067 29.5287 41.3814 29.4664 41.4354C29.4041 41.4894 29.3244 41.5193 29.2419 41.5195Z" fill="#B73F39"/>
<path d="M18.977 41.158C18.8945 41.158 18.8148 41.1282 18.7524 41.0743C18.69 41.0203 18.6491 40.9457 18.6371 40.8641L18.2822 38.4278L16.1583 39.6116C16.1061 39.6407 16.0473 39.6557 15.9876 39.6552C15.9278 39.6546 15.8693 39.6385 15.8177 39.6085C15.7661 39.5784 15.7232 39.5354 15.6932 39.4838C15.6633 39.4321 15.6473 39.3735 15.6469 39.3138L15.6327 37.3372L13.5496 38.6907C13.5072 38.7183 13.4591 38.7362 13.409 38.7431C13.3588 38.75 13.3077 38.7457 13.2594 38.7306C13.2111 38.7154 13.1667 38.6898 13.1295 38.6555C13.0922 38.6212 13.063 38.5791 13.0439 38.5322L12.0461 36.0761C12.0137 35.992 12.0157 35.8984 12.0515 35.8157C12.0874 35.733 12.1544 35.6677 12.238 35.6338C12.3216 35.6 12.4151 35.6004 12.4984 35.6349C12.5817 35.6694 12.6482 35.7353 12.6834 35.8183L13.5238 37.8885L15.7844 36.4194C15.8361 36.3858 15.8959 36.3667 15.9576 36.3642C16.0192 36.3616 16.0803 36.3757 16.1346 36.4049C16.189 36.4341 16.2344 36.4774 16.2662 36.5303C16.2981 36.5831 16.3151 36.6435 16.3155 36.7052L16.3301 38.7281L18.3832 37.5839C18.4318 37.5568 18.4864 37.5419 18.542 37.5405C18.5977 37.5392 18.6529 37.5514 18.7028 37.576C18.7528 37.6007 18.7959 37.6372 18.8287 37.6823C18.8614 37.7273 18.8826 37.7797 18.8906 37.8348L19.3173 40.7644C19.3305 40.8546 19.3073 40.9463 19.2528 41.0194C19.1983 41.0925 19.1171 41.141 19.0269 41.1541C19.0104 41.1567 18.9937 41.158 18.977 41.158Z" fill="#B73F39"/>
<path opacity="0.3" d="M20.8717 4.21664C20.8717 4.21664 13.0028 13.412 23.3144 16.9255C23.3144 16.9255 18.1152 18.4466 16.6405 14.4179C15.1658 10.3891 16.5378 5.87652 20.8717 4.21664Z" fill="#B73F39"/>
<path opacity="0.3" d="M10.2119 19.078C10.2119 19.078 8.30277 20.074 7.52804 21.1977C6.4276 22.7953 6.66565 24.7289 9.74996 25.0949C14.3395 25.6398 14.8061 25.4387 17.0877 26.7011C19.21 27.8767 9.24464 40.6011 13.5157 42.2988C18.1585 44.1464 17.5978 35.713 23.3126 35.6227L19.6899 38.7397L17.5088 43.3554L14.162 44.4515L11.3634 42.6602L11.0665 39.428L12.8927 35.2773L14.1938 31.539L15.1249 27.9498L13.9171 27.1248L10.6428 26.6242L7.5839 26.7024L5.71905 24.8358L5.36456 21.828C5.36456 21.828 6.55823 18.7317 10.2119 19.078Z" fill="#B73F39"/>
<path d="M30.6469 11.807C30.5545 11.8069 30.4656 11.7718 30.398 11.7087C30.3305 11.6456 30.2894 11.5593 30.283 11.4671C30.1446 9.46132 29.3669 7.87663 27.9712 6.75686C26.9206 5.91382 25.8915 5.66073 25.8812 5.65815C25.8345 5.64715 25.7905 5.62705 25.7515 5.59902C25.7126 5.57099 25.6796 5.53556 25.6543 5.49476C25.6291 5.45396 25.6121 5.40859 25.6044 5.36124C25.5967 5.31389 25.5984 5.26549 25.6094 5.2188C25.6204 5.1721 25.6405 5.12803 25.6686 5.0891C25.6966 5.05018 25.732 5.01715 25.7728 4.99191C25.8136 4.96668 25.859 4.94972 25.9064 4.94202C25.9537 4.93432 26.0021 4.93601 26.0488 4.94702C26.0965 4.95819 27.2244 5.23061 28.4009 6.16518C29.4863 7.02671 30.8201 8.63761 31.0117 11.4168C31.0183 11.5135 30.9863 11.6088 30.9226 11.6818C30.8589 11.7548 30.7689 11.7995 30.6723 11.8061C30.6637 11.807 30.6551 11.807 30.6469 11.807Z" fill="#F3B427"/>
<path d="M20.1545 11.1582C20.6175 11.1582 20.9928 10.7542 20.9928 10.2558C20.9928 9.7575 20.6175 9.3535 20.1545 9.3535C19.6915 9.3535 19.3162 9.7575 19.3162 10.2558C19.3162 10.7542 19.6915 11.1582 20.1545 11.1582Z" fill="#A81A3F"/>
<path d="M27.3366 11.0344C27.7996 11.0344 28.1749 10.6304 28.1749 10.132C28.1749 9.63365 27.7996 9.22965 27.3366 9.22965C26.8736 9.22965 26.4983 9.63365 26.4983 10.132C26.4983 10.6304 26.8736 11.0344 27.3366 11.0344Z" fill="#A81A3F"/>
<path d="M24.8045 21.5703C24.7978 21.5707 24.791 21.5707 24.7843 21.5703C24.7391 21.565 24.6978 21.542 24.6695 21.5063C24.6412 21.4706 24.6283 21.4252 24.6335 21.3799C24.7336 20.5154 24.0482 20.3645 23.97 20.3486C23.9253 20.3406 23.8855 20.3152 23.8595 20.2779C23.8335 20.2407 23.8233 20.1946 23.8311 20.1498C23.8389 20.1051 23.8642 20.0652 23.9014 20.039C23.9385 20.0128 23.9845 20.0024 24.0293 20.01C24.0401 20.01 25.1147 20.2116 24.9746 21.4182C24.9698 21.4599 24.9498 21.4985 24.9184 21.5265C24.8871 21.5546 24.8465 21.5701 24.8045 21.5703Z" fill="#98D639"/>
<path d="M24.8045 26.6212C24.7978 26.6216 24.791 26.6216 24.7843 26.6212C24.7391 26.6159 24.6978 26.5929 24.6695 26.5572C24.6412 26.5215 24.6283 26.476 24.6335 26.4308C24.7336 25.5667 24.0482 25.4155 23.97 25.3996C23.9253 25.3916 23.8855 25.3661 23.8595 25.3289C23.8335 25.2916 23.8233 25.2455 23.8311 25.2008C23.8389 25.156 23.8642 25.1162 23.9014 25.09C23.9385 25.0638 23.9845 25.0534 24.0293 25.061C24.0401 25.061 25.1147 25.2621 24.9746 26.4686C24.9699 26.5105 24.9499 26.5491 24.9186 26.5773C24.8872 26.6054 24.8466 26.621 24.8045 26.6212Z" fill="#98D639"/>
<path d="M24.8045 31.6711H24.7843C24.7618 31.6685 24.7401 31.6615 24.7204 31.6505C24.7007 31.6395 24.6833 31.6247 24.6693 31.607C24.6553 31.5892 24.6449 31.5689 24.6388 31.5472C24.6326 31.5255 24.6308 31.5027 24.6335 31.4803C24.7336 30.6162 24.0482 30.465 23.97 30.4491C23.9253 30.4411 23.8855 30.4156 23.8595 30.3784C23.8335 30.3411 23.8233 30.295 23.8311 30.2503C23.8389 30.2055 23.8642 30.1657 23.9014 30.1395C23.9385 30.1133 23.9845 30.1029 24.0293 30.1105C24.0401 30.1105 25.1147 30.312 24.9746 31.5181C24.97 31.5601 24.9501 31.5988 24.9187 31.627C24.8873 31.6552 24.8467 31.6709 24.8045 31.6711Z" fill="#98D639"/>
<path d="M41.0244 23.966H41.0093C40.9529 23.964 40.8975 23.951 40.8461 23.9276C40.7948 23.9042 40.7485 23.871 40.71 23.8297C40.6715 23.7884 40.6415 23.74 40.6217 23.6872C40.6019 23.6343 40.5927 23.5781 40.5947 23.5217C40.669 21.3663 38.8669 20.9315 38.79 20.9143C38.6804 20.8884 38.5853 20.8205 38.5253 20.7252C38.4652 20.6299 38.445 20.5149 38.4689 20.4048C38.4928 20.2947 38.559 20.1985 38.6533 20.1367C38.7475 20.075 38.8622 20.0527 38.9726 20.0747C39.4413 20.1965 39.8786 20.417 40.2552 20.7214C40.8297 21.185 41.5039 22.0534 41.4524 23.5513C41.4485 23.6624 41.4017 23.7676 41.3219 23.8449C41.2421 23.9222 41.1355 23.9656 41.0244 23.966Z" fill="#FFEAE8"/>
<path d="M33.8162 43.1312C33.7114 43.1311 33.6102 43.0927 33.5317 43.0232C33.4533 42.9537 33.4029 42.8579 33.3901 42.7539C33.3774 42.6499 33.403 42.5448 33.4624 42.4584C33.5217 42.3719 33.6105 42.3102 33.7122 42.2847C35.4082 41.8606 35.2226 39.8037 35.214 39.7165C35.2041 39.6041 35.2388 39.4924 35.3106 39.4054C35.3823 39.3185 35.4854 39.2632 35.5976 39.2515C35.7097 39.2398 35.822 39.2727 35.9101 39.343C35.9983 39.4134 36.0552 39.5156 36.0687 39.6275C36.1065 40.1255 36.0582 40.6262 35.926 41.1078C35.6252 42.17 34.933 42.8652 33.921 43.1183C33.8867 43.1268 33.8515 43.1311 33.8162 43.1312Z" fill="#FFEAE8"/>
</svg>
