<svg width="98" height="98" viewBox="0 0 98 98" fill="none" xmlns="http://www.w3.org/2000/svg">
<g clip-path="url(#clip0_3_6765)">
<path d="M35.2188 35.2187C35.2188 27.0965 38.4453 19.3069 44.1886 13.5636C49.9319 7.82028 57.7215 4.59373 65.8438 4.59373H68.9062C43.5028 -9.18752 10.7188 9.30998 10.7188 39.8125C10.7188 50.3714 14.9133 60.4979 22.3796 67.9642C29.8459 75.4305 39.9723 79.625 50.5312 79.625C57.7889 79.5584 64.8936 77.531 71.0934 73.7572C77.2932 69.9834 82.3574 64.6037 85.75 58.1875C81.3484 62.0628 75.9206 64.5834 70.1199 65.446C64.3192 66.3087 58.3929 65.4765 53.0541 63.0498C47.7152 60.6231 43.1915 56.7051 40.0273 51.7676C36.8631 46.83 35.1932 41.0831 35.2188 35.2187Z" fill="url(#paint0_linear_3_6765)"/>
<path d="M44.4062 79.625C44.0001 79.625 43.6107 79.4637 43.3235 79.1765C43.0363 78.8893 42.875 78.4999 42.875 78.0938V55.125C42.875 54.7189 43.0363 54.3294 43.3235 54.0422C43.6107 53.7551 44.0001 53.5938 44.4062 53.5938C44.8124 53.5938 45.2018 53.7551 45.489 54.0422C45.7762 54.3294 45.9375 54.7189 45.9375 55.125V78.0938C45.9375 78.4999 45.7762 78.8893 45.489 79.1765C45.2018 79.4637 44.8124 79.625 44.4062 79.625Z" fill="#7ECE67"/>
<path d="M64.3125 81.1562C63.9064 81.1562 63.5169 80.9949 63.2297 80.7078C62.9426 80.4206 62.7812 80.0311 62.7812 79.625V65.8438C62.7812 65.4376 62.9426 65.0482 63.2297 64.761C63.5169 64.4738 63.9064 64.3125 64.3125 64.3125C64.7186 64.3125 65.1081 64.4738 65.3953 64.761C65.6824 65.0482 65.8438 65.4376 65.8438 65.8438V79.625C65.8438 80.0311 65.6824 80.4206 65.3953 80.7078C65.1081 80.9949 64.7186 81.1562 64.3125 81.1562Z" fill="#7ECE67"/>
<path d="M67.375 81.7994V81.1562C67.375 80.7501 67.2137 80.3607 66.9265 80.0735C66.6394 79.7863 66.2499 79.625 65.8438 79.625H62.7813C62.3751 79.625 61.9857 79.7863 61.6985 80.0735C61.4113 80.3607 61.25 80.7501 61.25 81.1562V81.7994C59.6379 82.503 58.3172 83.7402 57.51 85.303C56.7028 86.8658 56.4584 88.6588 56.8178 90.3807C57.1771 92.1025 58.1184 93.6481 59.4833 94.7576C60.8483 95.867 62.5536 96.4727 64.3125 96.4727C66.0715 96.4727 67.7768 95.867 69.1417 94.7576C70.5066 93.6481 71.4479 92.1025 71.8073 90.3807C72.1666 88.6588 71.9222 86.8658 71.115 85.303C70.3078 83.7402 68.9871 82.503 67.375 81.7994Z" fill="url(#paint1_linear_3_6765)"/>
<path d="M53.165 91.5841C52.507 93.6674 51.128 95.4481 49.2756 96.6065C41.2365 96.4687 37.1634 92.3344 35.2187 89.18C35.1586 87.7729 35.4261 86.3711 36.0001 85.085C36.574 83.7989 37.4388 82.6637 38.5262 81.7687C39.445 83.7134 43.0434 89.8078 53.165 91.5841Z" fill="#EE9FFF"/>
<path d="M49.2756 96.6066C47.911 97.4612 46.3457 97.9422 44.7366 98.0013C43.1275 98.0604 41.5311 97.6956 40.1074 96.9434C38.6837 96.1913 37.4827 95.0781 36.6247 93.7156C35.7667 92.353 35.2818 90.7889 35.2188 89.18C37.1634 92.3344 41.2366 96.4687 49.2756 96.6066Z" fill="url(#paint2_linear_3_6765)"/>
<path d="M53.165 91.5841C43.0434 89.8078 39.3838 83.7134 38.5416 81.7688C39.3791 81.0987 40.3275 80.5804 41.3438 80.2375V78.0938C41.3438 77.6876 41.5051 77.2982 41.7922 77.011C42.0794 76.7238 42.4689 76.5625 42.875 76.5625H45.9375C46.3436 76.5625 46.7331 76.7238 47.0203 77.011C47.3074 77.2982 47.4688 77.6876 47.4688 78.0938V80.1609C49.7135 80.9556 51.5619 82.5908 52.6246 84.7218C53.6872 86.8527 53.881 89.313 53.165 91.5841Z" fill="url(#paint3_linear_3_6765)"/>
<path d="M36.75 26.0312C36.5485 26.0324 36.3487 25.9937 36.1621 25.9175C35.9756 25.8413 35.8059 25.7291 35.6628 25.5871C24.3622 14.2865 27.5625 5.91058 27.6697 5.5584C27.7439 5.37127 27.8544 5.20063 27.9946 5.05622C28.1349 4.91182 28.3023 4.7965 28.4872 4.71685C28.6721 4.6372 28.8708 4.5948 29.0721 4.59206C29.2734 4.58932 29.4733 4.62631 29.6603 4.7009C30.0345 4.85096 30.3344 5.14254 30.4949 5.51236C30.6555 5.88217 30.6637 6.30037 30.5178 6.67621C30.4106 6.99777 28.0984 13.6893 37.8372 23.4128C38.0531 23.6269 38.2004 23.9006 38.2602 24.1988C38.3201 24.497 38.2897 24.8063 38.1731 25.0872C38.0565 25.3681 37.8588 25.6079 37.6054 25.776C37.3519 25.9441 37.0541 26.033 36.75 26.0312Z" fill="#7ECE67"/>
<path d="M17.3797 61.25C33.6875 54.4359 34.3613 40.3637 34.3766 39.8125C34.3888 39.4064 34.5618 39.0217 34.8575 38.7432C35.1533 38.4646 35.5476 38.315 35.9538 38.3272C36.3599 38.3394 36.7445 38.5124 37.0231 38.8081C37.3016 39.1039 37.4513 39.4982 37.4391 39.9044C37.4391 40.5781 36.7806 56.5184 18.5588 64.1747C18.1709 64.331 17.7369 64.3269 17.3521 64.1632C16.9672 63.9995 16.6632 63.6897 16.5069 63.3019C16.3505 62.914 16.3546 62.4799 16.5183 62.0951C16.682 61.7103 16.9919 61.4063 17.3797 61.25Z" fill="#7ECE67"/>
<path d="M68.9062 4.59375V12.25C68.9062 13.0622 68.5836 13.8412 68.0093 14.4155C67.4349 14.9898 66.656 15.3125 65.8438 15.3125C65.0315 15.3125 64.2526 14.9898 63.6782 14.4155C63.1039 13.8412 62.7812 13.0622 62.7812 12.25V11.4844C62.7812 10.8752 62.5393 10.291 62.1085 9.86024C61.6778 9.42949 61.0935 9.1875 60.4844 9.1875C59.8752 9.1875 59.291 9.42949 58.8602 9.86024C58.4295 10.291 58.1875 10.8752 58.1875 11.4844V16.8438C58.1875 17.656 57.8648 18.4349 57.2905 19.0093C56.7162 19.5836 55.9372 19.9062 55.125 19.9062C54.3128 19.9062 53.5338 19.5836 52.9595 19.0093C52.3852 18.4349 52.0625 17.656 52.0625 16.8438V0C57.967 0.139606 63.7484 1.71637 68.9062 4.59375Z" fill="url(#paint4_linear_3_6765)"/>
<path d="M65.8438 24.5C67.5351 24.5 68.9062 23.1289 68.9062 21.4375C68.9062 19.7461 67.5351 18.375 65.8438 18.375C64.1524 18.375 62.7812 19.7461 62.7812 21.4375C62.7812 23.1289 64.1524 24.5 65.8438 24.5Z" fill="url(#paint5_linear_3_6765)"/>
<path d="M61.25 49C62.9414 49 64.3125 47.6289 64.3125 45.9375C64.3125 44.2461 62.9414 42.875 61.25 42.875C59.5586 42.875 58.1875 44.2461 58.1875 45.9375C58.1875 47.6289 59.5586 49 61.25 49Z" fill="url(#paint6_linear_3_6765)"/>
<path d="M84.2188 79.625C85.0644 79.625 85.75 78.9394 85.75 78.0938C85.75 77.2481 85.0644 76.5625 84.2188 76.5625C83.3731 76.5625 82.6875 77.2481 82.6875 78.0938C82.6875 78.9394 83.3731 79.625 84.2188 79.625Z" fill="url(#paint7_linear_3_6765)"/>
<path d="M85.75 58.1875V70.4375C85.75 70.8436 85.5887 71.2331 85.3015 71.5203C85.0143 71.8074 84.6248 71.9688 84.2187 71.9688C83.8126 71.9688 83.4231 71.8074 83.136 71.5203C82.8488 71.2331 82.6875 70.8436 82.6875 70.4375V68.9062C82.6875 68.5001 82.5262 68.1107 82.239 67.8235C81.9518 67.5363 81.5623 67.375 81.1562 67.375C80.7501 67.375 80.3606 67.5363 80.0735 67.8235C79.7863 68.1107 79.625 68.5001 79.625 68.9062V78.0938C79.625 78.906 79.3023 79.6849 78.728 80.2593C78.1537 80.8336 77.3747 81.1562 76.5625 81.1562C75.7503 81.1562 74.9713 80.8336 74.397 80.2593C73.8226 79.6849 73.5 78.906 73.5 78.0938V66.4716C73.4855 64.5953 74.1606 62.779 75.3969 61.3676C76.6333 59.9562 78.345 59.0479 80.2069 58.8153L85.75 58.1875Z" fill="url(#paint8_linear_3_6765)"/>
</g>
<defs>
<linearGradient id="paint0_linear_3_6765" x1="10.7188" y1="39.7819" x2="85.75" y2="39.7819" gradientUnits="userSpaceOnUse">
<stop stop-color="#F0AE4F"/>
<stop offset="1" stop-color="#FFE5C3"/>
</linearGradient>
<linearGradient id="paint1_linear_3_6765" x1="56.6716" y1="88.0469" x2="71.9688" y2="88.0469" gradientUnits="userSpaceOnUse">
<stop stop-color="#DA5466"/>
<stop offset="1" stop-color="#F4929C"/>
</linearGradient>
<linearGradient id="paint2_linear_3_6765" x1="35.2341" y1="93.59" x2="49.2756" y2="93.59" gradientUnits="userSpaceOnUse">
<stop stop-color="#B15DE5"/>
<stop offset="1" stop-color="#DF86EF"/>
</linearGradient>
<linearGradient id="paint3_linear_3_6765" x1="38.5416" y1="84.0656" x2="53.5938" y2="84.0656" gradientUnits="userSpaceOnUse">
<stop stop-color="#B15DE5"/>
<stop offset="1" stop-color="#DF86EF"/>
</linearGradient>
<linearGradient id="paint4_linear_3_6765" x1="52.0625" y1="9.96844" x2="68.8297" y2="9.96844" gradientUnits="userSpaceOnUse">
<stop stop-color="#D4D8E1"/>
<stop offset="1" stop-color="#F3F4F5"/>
</linearGradient>
<linearGradient id="paint5_linear_3_6765" x1="62.7812" y1="21.4375" x2="68.9062" y2="21.4375" gradientUnits="userSpaceOnUse">
<stop stop-color="#D4D8E1"/>
<stop offset="1" stop-color="#F3F4F5"/>
</linearGradient>
<linearGradient id="paint6_linear_3_6765" x1="58.1875" y1="45.9375" x2="64.3125" y2="45.9375" gradientUnits="userSpaceOnUse">
<stop stop-color="#D4D8E1"/>
<stop offset="1" stop-color="#F3F4F5"/>
</linearGradient>
<linearGradient id="paint7_linear_3_6765" x1="82.6875" y1="78.0938" x2="85.75" y2="78.0938" gradientUnits="userSpaceOnUse">
<stop stop-color="#D4D8E1"/>
<stop offset="1" stop-color="#F3F4F5"/>
</linearGradient>
<linearGradient id="paint8_linear_3_6765" x1="73.5" y1="69.6719" x2="85.75" y2="69.6719" gradientUnits="userSpaceOnUse">
<stop stop-color="#D4D8E1"/>
<stop offset="1" stop-color="#F3F4F5"/>
</linearGradient>
<clipPath id="clip0_3_6765">
<rect width="98" height="98" fill="white"/>
</clipPath>
</defs>
</svg>
