<svg width="61" height="47" viewBox="0 0 61 47" fill="none" xmlns="http://www.w3.org/2000/svg">
<path d="M11.2842 20.3669C11.2842 20.3669 24.8534 5.36282 26.0782 4.6704C26.6734 4.33408 29.1231 2.01533 30.9473 1.82331C33.3097 1.57427 36.2941 3.13601 38.337 4.35095L48.9782 10.6887C49.3713 10.9228 49.6968 11.255 49.9228 11.6529C50.1487 12.0507 50.2674 12.5004 50.2671 12.958V12.958C50.2672 13.1677 50.2015 13.3722 50.0794 13.5427C49.9573 13.7133 49.7849 13.8413 49.5863 13.9087L44.865 15.5147C44.1602 15.7544 43.5498 16.2116 43.1215 16.8205C42.6933 17.4295 42.4695 18.1586 42.4822 18.9029L42.7377 33.8069" fill="#E20613"/>
<path d="M46.4776 36.9204C46.4776 36.2776 46.2976 35.6476 45.9582 35.1018C45.6187 34.5559 45.1332 34.116 44.5566 33.8318C43.9801 33.5476 43.3355 33.4304 42.6958 33.4935C42.0561 33.5567 41.4469 33.7976 40.937 34.1891C41.1372 33.2905 41.0462 32.3516 40.6772 31.5082C40.3082 30.6648 39.6803 29.9608 38.8844 29.4981C38.0886 29.0354 37.1661 28.838 36.2506 28.9346C35.3351 29.0311 34.4741 29.4166 33.7922 30.0351C34.1096 29.4588 34.2769 28.8119 34.2787 28.1539C34.2787 25.578 31.7109 23.4897 28.5432 23.4897C26.7976 23.4897 25.2312 24.1251 24.1792 25.1276C23.8882 22.7705 21.4444 20.9294 18.4716 20.9294C16.6533 20.9294 15.0322 21.6178 13.9813 22.6919C13.7495 21.9146 13.2698 21.2345 12.6153 20.7553C11.9608 20.2762 11.1675 20.0243 10.3565 20.0381C9.54548 20.052 8.76126 20.3308 8.12351 20.832C7.48575 21.3332 7.0295 22.0293 6.82436 22.8141C5.63308 22.5361 4.38026 22.7372 3.33586 23.3742C2.29146 24.0111 1.53908 25.0328 1.24085 26.2192C0.942614 27.4056 1.12239 28.6616 1.74145 29.7167C2.36051 30.7718 3.36928 31.5415 4.55042 31.8598C4.77736 32.8482 5.22098 33.7739 5.84924 34.57C6.4775 35.3661 7.27471 36.0127 8.18331 36.4631C9.0919 36.9136 10.0892 37.1566 11.1031 37.1747C12.1171 37.1928 13.1224 36.9855 14.0465 36.5678C14.326 37.752 14.9162 38.8404 15.7562 39.7207C16.5963 40.601 17.6558 41.2415 18.8257 41.576C19.9957 41.9106 21.2336 41.9272 22.4121 41.6241C23.5906 41.3211 24.6669 40.7093 25.5303 39.8518C25.7582 40.8806 26.2629 41.8275 26.9898 42.5903C27.7166 43.3532 28.6381 43.9029 29.6546 44.1803C30.6711 44.4577 31.7441 44.4521 32.7577 44.1641C33.7712 43.8762 34.6869 43.3168 35.4058 42.5465C35.7176 43.5942 36.4274 44.4782 37.3831 45.009C38.3388 45.5397 39.4644 45.675 40.5186 45.3859C41.5729 45.0967 42.472 44.4061 43.0232 43.4621C43.5744 42.518 43.7339 41.3956 43.4676 40.3354C44.2989 40.2299 45.0632 39.8248 45.6173 39.1962C46.1714 38.5675 46.4773 37.7584 46.4776 36.9204V36.9204Z" fill="#F6F6F6"/>
<path d="M60.183 12.5578C60.1834 11.8679 59.9715 11.1947 59.5761 10.6294C59.1807 10.0641 58.621 9.63421 57.9728 9.39802C57.3247 9.16183 56.6196 9.1308 55.9532 9.30916C55.2868 9.48751 54.6915 9.8666 54.248 10.395C53.9405 10.0551 53.519 9.83991 53.0633 9.79012C52.6077 9.74033 52.1497 9.85943 51.776 10.1248C51.4024 10.3903 51.1391 10.7835 51.0361 11.2301C50.933 11.6767 50.9974 12.1456 51.2171 12.5479C50.7072 12.8916 50.318 13.3865 50.1041 13.963C49.8901 14.5395 49.8624 15.1685 50.0246 15.7616C50.1868 16.3547 50.531 16.882 51.0085 17.2693C51.4861 17.6567 52.073 17.8845 52.6868 17.9208C53.1109 18.5148 53.7127 18.9586 54.4054 19.1884C55.0981 19.4181 55.8459 19.4219 56.5409 19.1992C57.2358 18.9764 57.8421 18.5387 58.2722 17.949C58.7022 17.3594 58.9339 16.6484 58.9337 15.9186C58.9336 15.6859 58.9102 15.4537 58.8639 15.2256C59.2742 14.9124 59.6067 14.5087 59.8354 14.046C60.0642 13.5832 60.1832 13.074 60.183 12.5578Z" fill="#F3F3F3"/>
<path d="M12.4771 19.6007C12.576 19.5676 13.5617 18.8775 14.3827 19.6007C14.3827 19.6007 20.593 16.2492 24.5689 21.0135C24.5689 21.0135 32.7151 19.1736 36.0695 26.3364C36.0695 26.3364 42.05 26.4679 42.1157 32.3494V33.2036H41.4914L39.3553 29.5896L34.7551 29.066L32.981 25.2873L28.4052 23.4923L24.8651 24.3651L23.7147 24.0695L20.6587 21.3737L16.3529 21.1764L14.1511 22.4565L12.1146 20.6493L11.8516 19.6636L12.4771 19.6007Z" fill="#A81A3F"/>
<path d="M14.9086 33.4764C14.9086 33.4764 16.5518 42.0258 25.2262 39.479C25.2262 39.479 21.0327 41.9135 18.6011 41.5516C16.1695 41.1897 13.1176 34.906 14.9086 33.4764Z" fill="#DADADA"/>
<path d="M5.3406 28.4829C5.3406 28.4829 7.28578 35.0935 14.0052 35.7999C14.0052 35.7999 12.9212 37.6892 8.50131 36.1449C6.18082 35.3338 3.54961 29.912 5.3406 28.4829Z" fill="#DADADA"/>
<path d="M35.3291 40.0604C35.3291 40.0604 39.3597 45.907 42.7799 39.841C42.7799 39.841 43.5608 43.7826 40.7434 44.8596C38.4398 45.7394 35.3285 43.4044 35.3291 40.0604Z" fill="#DADADA"/>
<path d="M26.0465 35.8754C26.0465 35.8754 25.531 41.8821 35.1586 41.8489C35.1586 41.8489 32.1707 44.3125 29.739 43.9512C27.3074 43.5899 24.3701 39.9351 26.0465 35.8754Z" fill="#DADADA"/>
<path d="M39.275 46.2879C38.1996 46.2909 37.1532 45.9396 36.2976 45.2882C35.769 44.8863 35.326 44.3828 34.9948 43.8073C34.2022 44.4093 33.2826 44.8224 32.3062 45.0151C31.3298 45.2078 30.3223 45.1752 29.3604 44.9195C28.3985 44.6639 27.5077 44.1921 26.7558 43.5401C26.0039 42.888 25.4107 42.0729 25.0215 41.1569C23.7278 42.0956 22.1693 42.5991 20.5708 42.5947C19.0064 42.5946 17.4801 42.1117 16.2002 41.2119C14.9204 40.3122 13.9494 39.0394 13.4197 37.5674C12.2187 37.9532 10.9407 38.0345 9.70054 37.8042C8.46036 37.5738 7.29682 37.039 6.31448 36.2477C5.10618 35.2703 4.22463 33.9476 3.78743 32.4562C2.53969 32.0088 1.49915 31.1197 0.862564 29.957C0.225977 28.7943 0.0374735 27.4387 0.332697 26.1464C0.62792 24.8542 1.38641 23.7149 2.46473 22.944C3.54305 22.1731 4.86647 21.824 6.18473 21.9628C6.51345 21.2092 7.04369 20.5608 7.7171 20.089C8.39052 19.6172 9.18101 19.3403 10.0016 19.2888C10.8222 19.2372 11.6412 19.413 12.3683 19.7968C13.0955 20.1806 13.7027 20.7576 14.1231 21.4642C15.2869 20.635 16.7712 20.173 18.3353 20.173C21.1742 20.173 23.6047 21.6812 24.4804 23.8335C25.5999 23.1254 26.976 22.7332 28.4063 22.7332C30.1117 22.7332 31.7229 23.2784 32.939 24.2688C34.2028 25.2963 34.8982 26.676 34.8982 28.1539C34.8982 28.2487 34.8953 28.3436 34.8894 28.4379C35.6301 28.18 36.4202 28.0965 37.1983 28.194C37.9765 28.2914 38.7216 28.5671 39.3758 28.9997C40.03 29.4322 40.5755 30.0099 40.9698 30.6878C41.3642 31.3656 41.5968 32.1253 41.6496 32.9078C42.7095 32.5776 43.8569 32.6804 44.8413 33.1936C45.8256 33.7068 46.5668 34.5888 46.903 35.6468C47.2391 36.7048 47.1428 37.8528 46.6351 38.84C46.1274 39.8273 45.2496 40.5734 44.1935 40.9155C44.2063 41.0605 44.2127 41.2058 44.2127 41.3513C44.2112 42.6603 43.6904 43.9152 42.7647 44.8407C41.839 45.7662 40.584 46.2866 39.275 46.2879V46.2879ZM35.2688 41.79C35.3276 41.7899 35.3861 41.7965 35.4434 41.8098C35.573 41.8403 35.6923 41.9046 35.7892 41.996C35.886 42.0875 35.957 42.2029 35.995 42.3306C36.2551 43.1834 36.8376 43.9011 37.6187 44.3311C38.3997 44.7612 39.3177 44.8696 40.1775 44.6334C41.0372 44.3972 41.7709 43.8349 42.2226 43.0662C42.6743 42.2975 42.8084 41.3829 42.5963 40.5169C42.5708 40.4133 42.5676 40.3054 42.5867 40.2005C42.6059 40.0955 42.6471 39.9958 42.7075 39.9078C42.768 39.8199 42.8463 39.7458 42.9375 39.6903C43.0286 39.6348 43.1305 39.5992 43.2363 39.5859C43.6456 39.5334 44.0373 39.3874 44.381 39.1592C44.7247 38.931 45.0113 38.6267 45.2185 38.2699C45.4256 37.913 45.5479 37.5133 45.5757 37.1016C45.6034 36.69 45.5361 36.2774 45.3787 35.896C45.2214 35.5146 44.9784 35.1745 44.6684 34.9022C44.3585 34.6298 43.99 34.4325 43.5915 34.3255C43.193 34.2185 42.7753 34.2047 42.3706 34.2852C41.9659 34.3656 41.5852 34.5382 41.258 34.7895C41.1349 34.8841 40.9856 34.9384 40.8306 34.9453C40.6755 34.9521 40.522 34.911 40.3911 34.8277C40.2602 34.7443 40.158 34.6227 40.0986 34.4793C40.0391 34.3359 40.0252 34.1777 40.0587 34.0261C40.1757 33.5029 40.1735 32.9602 40.0525 32.4379C39.9314 31.9157 39.6945 31.4273 39.3594 31.0089C39.0242 30.5905 38.5993 30.2528 38.1161 30.0207C37.6328 29.7886 37.1036 29.668 36.5675 29.6679C35.6786 29.667 34.8213 29.9977 34.1633 30.5954C34.031 30.7156 33.8605 30.7851 33.6819 30.7916C33.5034 30.7981 33.3283 30.7411 33.1877 30.6308C33.0471 30.5206 32.9501 30.3641 32.9138 30.1891C32.8776 30.0141 32.9044 29.832 32.9896 29.6749C33.2471 29.2094 33.3828 28.6864 33.3841 28.1545C33.3841 26.0016 31.1509 24.2467 28.4051 24.2467C26.9167 24.2467 25.5161 24.7703 24.5648 25.6757C24.4632 25.7724 24.3368 25.839 24.1996 25.868C24.0624 25.897 23.9198 25.8873 23.7878 25.84C23.6558 25.7927 23.5396 25.7096 23.4521 25.6C23.3645 25.4905 23.3092 25.3587 23.2922 25.2195C23.1759 24.2827 22.6289 23.4064 21.7468 22.753C20.8158 22.0652 19.6067 21.6864 18.3359 21.6864C16.78 21.6864 15.3404 22.2462 14.3862 23.2214C14.294 23.3155 14.179 23.384 14.0523 23.42C13.9256 23.456 13.7917 23.4583 13.6639 23.4266C13.536 23.395 13.4187 23.3306 13.3234 23.2397C13.2281 23.1488 13.1582 23.0346 13.1206 22.9084C12.9366 22.2884 12.5546 21.7457 12.0331 21.3634C11.5115 20.981 10.8791 20.78 10.2325 20.791C9.58593 20.802 8.96073 21.0245 8.45252 21.4244C7.94431 21.8243 7.58105 22.3797 7.41829 23.0055C7.36852 23.1965 7.24613 23.3604 7.0772 23.4624C6.90827 23.5643 6.70619 23.5962 6.51406 23.5513C5.51624 23.3188 4.46699 23.4874 3.59227 24.0208C2.71755 24.5543 2.08733 25.41 1.83733 26.4036C1.58732 27.3972 1.73754 28.4493 2.25562 29.3332C2.77371 30.2171 3.61821 30.8622 4.60728 31.1296C4.74033 31.1651 4.86115 31.2363 4.95672 31.3355C5.05229 31.4346 5.11897 31.558 5.14958 31.6923C5.45659 33.0234 6.20086 34.2133 7.26351 35.0717C8.14104 35.7783 9.19723 36.2277 10.3148 36.3702C11.4323 36.5126 12.5675 36.3426 13.5942 35.8788C13.6959 35.8329 13.8065 35.8101 13.9181 35.8119C14.0296 35.8138 14.1394 35.8403 14.2395 35.8896C14.3396 35.9388 14.4275 36.0097 14.4971 36.0969C14.5666 36.1842 14.6159 36.2858 14.6416 36.3943C14.9558 37.7163 15.7014 38.896 16.7608 39.7471C17.9276 40.682 19.3978 41.1547 20.8909 41.075C22.3839 40.9954 23.7955 40.369 24.8563 39.3153C24.9524 39.22 25.0723 39.1522 25.2035 39.1189C25.3347 39.0857 25.4725 39.0883 25.6023 39.1265C25.7322 39.1647 25.8495 39.237 25.9419 39.3359C26.0343 39.4348 26.0984 39.5567 26.1277 39.6889C26.3756 40.806 26.9972 41.8051 27.8896 42.5213C28.782 43.2375 29.892 43.6279 31.0363 43.6281C31.727 43.6315 32.4108 43.4911 33.0443 43.2159C33.6778 42.9407 34.2471 42.5368 34.716 42.0297C34.7868 41.954 34.8724 41.8937 34.9675 41.8525C35.0626 41.8112 35.1652 41.79 35.2688 41.79V41.79Z" fill="#690A3F"/>
<path d="M42.8955 34.2328C42.6971 34.2328 42.5066 34.1549 42.3651 34.0158C42.2236 33.8767 42.1425 33.6876 42.1391 33.4892L41.8837 18.5852C41.8663 17.6799 42.138 16.7927 42.6593 16.0524C43.1806 15.3121 43.9244 14.7572 44.7825 14.4685L49.5038 12.8625C49.5525 12.846 49.5949 12.8147 49.625 12.773C49.6552 12.7313 49.6716 12.6812 49.672 12.6298C49.6711 12.3036 49.586 11.9832 49.4248 11.6997C49.2636 11.4162 49.0319 11.1791 48.752 11.0116L38.1062 4.67386C36.993 4.01111 33.6048 1.99377 31.1819 2.24863C30.0182 2.37082 28.3372 3.68875 27.4335 4.39689C27.0559 4.69248 26.8051 4.88857 26.6108 4.99912C25.66 5.61009 17.1484 14.8566 12.0029 20.5455C11.9372 20.6222 11.8568 20.685 11.7664 20.7301C11.676 20.7752 11.5775 20.8018 11.4766 20.8082C11.3758 20.8146 11.2747 20.8008 11.1794 20.7675C11.084 20.7342 10.9962 20.6822 10.9213 20.6144C10.8463 20.5467 10.7857 20.4646 10.743 20.373C10.7003 20.2815 10.6764 20.1823 10.6726 20.0813C10.6689 19.9804 10.6854 19.8797 10.7212 19.7852C10.757 19.6908 10.8114 19.6044 10.8811 19.5313C10.9148 19.4935 14.317 15.7329 17.8245 11.9367C24.999 4.17462 25.6047 3.83015 25.8642 3.68468C25.9602 3.63057 26.2488 3.40422 26.5043 3.20522C27.5994 2.34696 29.4328 0.911494 31.0266 0.743334C33.645 0.46811 36.7626 2.11247 38.8818 3.37338L49.5242 9.7111C50.0286 10.0132 50.4463 10.4405 50.737 10.9515C51.0276 11.4626 51.1813 12.0401 51.1831 12.628C51.1831 12.9957 51.068 13.3542 50.8538 13.6531C50.6397 13.952 50.3373 14.1763 49.9891 14.2945L45.2684 15.9004C44.7145 16.0874 44.2346 16.4459 43.8983 16.9241C43.562 17.4022 43.3869 17.9751 43.3983 18.5596L43.6537 33.4636C43.6554 33.563 43.6375 33.6618 43.6009 33.7543C43.5644 33.8468 43.51 33.9312 43.4408 34.0026C43.3716 34.0741 43.2891 34.1312 43.1978 34.1707C43.1065 34.2102 43.0083 34.2313 42.9089 34.2328H42.8955Z" fill="#690A3F"/>
<path d="M55.3521 20.1201C54.7433 20.1191 54.142 19.9862 53.5895 19.7304C53.037 19.4747 52.5465 19.1022 52.1518 18.6387C51.4698 18.5317 50.8313 18.2359 50.3087 17.7848C49.7861 17.3337 49.4002 16.7453 49.1948 16.0862C48.9894 15.427 48.9726 14.7236 49.1464 14.0554C49.3202 13.3873 49.6776 12.7811 50.1781 12.3056C50.0484 11.8025 50.0708 11.2722 50.2425 10.7818C50.4141 10.2914 50.7273 9.86294 51.1425 9.55054C51.5576 9.23814 52.0561 9.05586 52.5749 9.02674C53.0936 8.99763 53.6094 9.12299 54.0569 9.38697C54.878 8.70841 55.9302 8.37445 56.9923 8.45522C58.0545 8.536 59.044 9.02523 59.7531 9.82015C60.4622 10.6151 60.8356 11.6538 60.795 12.7183C60.7543 13.7827 60.3028 14.79 59.5352 15.5286C59.5476 15.6578 59.5536 15.7879 59.5533 15.919C59.552 17.0328 59.109 18.1007 58.3214 18.8883C57.5338 19.6759 56.466 20.1189 55.3521 20.1201V20.1201ZM52.7238 10.5356C52.4281 10.5359 52.1445 10.6535 51.9354 10.8626C51.7263 11.0717 51.6087 11.3553 51.6084 11.651C51.6075 11.8377 51.6541 12.0215 51.744 12.1852C51.8342 12.3504 51.8595 12.5433 51.8151 12.7262C51.7706 12.9091 51.6596 13.0689 51.5036 13.1743C51.125 13.4296 50.8358 13.7972 50.6769 14.2253C50.5179 14.6534 50.4972 15.1206 50.6175 15.5612C50.7379 16.0017 50.9933 16.3934 51.3478 16.6813C51.7024 16.9692 52.1382 17.1387 52.5941 17.166C52.7068 17.1725 52.8166 17.2041 52.9154 17.2586C53.0143 17.3131 53.0997 17.389 53.1655 17.4807C53.5242 17.9803 54.0434 18.3419 54.6364 18.505C55.2294 18.6682 55.8604 18.6232 56.4243 18.3776C56.9881 18.1319 57.4507 17.7003 57.735 17.1549C58.0192 16.6095 58.1079 15.9831 57.9863 15.3802C57.9578 15.2412 57.969 15.097 58.0186 14.9641C58.0682 14.8311 58.1542 14.7148 58.2667 14.6284C58.5574 14.406 58.798 14.1248 58.9727 13.8032C59.1474 13.4815 59.2524 13.1267 59.2807 12.7618C59.3091 12.3968 59.2602 12.03 59.1372 11.6853C59.0143 11.3405 58.8201 11.0255 58.5672 10.7609C58.3144 10.4962 58.0086 10.2878 57.6698 10.1493C57.331 10.0108 56.9668 9.94523 56.6009 9.95691C56.2351 9.96859 55.8758 10.0573 55.5466 10.2171C55.2173 10.377 54.9254 10.6044 54.69 10.8847C54.6205 10.9673 54.5341 11.0341 54.4366 11.0806C54.3392 11.127 54.2329 11.1521 54.125 11.1541H54.111C54.0054 11.1541 53.901 11.132 53.8045 11.0892C53.708 11.0464 53.6216 10.9839 53.5507 10.9056C53.4469 10.7889 53.3196 10.6955 53.177 10.6317C53.0345 10.5679 52.88 10.5352 52.7238 10.5356V10.5356Z" fill="#690A3F"/>
<path d="M24.4375 10.4892C24.3283 10.4892 24.2213 10.4584 24.1288 10.4005C24.0363 10.3426 23.9619 10.2598 23.9142 10.1616C23.8665 10.0634 23.8474 9.95374 23.859 9.84519C23.8707 9.73664 23.9127 9.63356 23.9801 9.54773C24.1163 9.37317 27.355 5.28554 30.6751 3.63594C31.6864 3.13378 33.119 3.26005 35.0473 4.02288C36.3722 4.54656 37.8938 5.35478 39.5707 6.42775C39.7008 6.51093 39.7925 6.64238 39.8257 6.79318C39.8589 6.94399 39.8308 7.1018 39.7476 7.23189C39.6644 7.36198 39.533 7.45371 39.3822 7.48688C39.2314 7.52005 39.0736 7.49196 38.9435 7.40878C35.2643 5.05512 32.4393 4.05954 31.1924 4.67865C28.1085 6.21071 24.9268 10.2268 24.8954 10.2675C24.8409 10.3367 24.7713 10.3926 24.692 10.4311C24.6126 10.4695 24.5256 10.4893 24.4375 10.4892V10.4892Z" fill="#FE5B4A"/>
<path d="M21.8748 26.9179C21.7535 26.9179 21.6352 26.88 21.5365 26.8095C21.4378 26.739 21.3637 26.6394 21.3244 26.5246C20.8786 25.223 20.1833 24.3583 19.2581 23.9551C17.7825 23.3116 16.1492 24.0232 16.1323 24.0307C15.9916 24.0941 15.8314 24.0989 15.6871 24.0442C15.5428 23.9895 15.4262 23.8797 15.3628 23.7389C15.2995 23.5982 15.2946 23.4381 15.3493 23.2937C15.4041 23.1494 15.5139 23.0328 15.6546 22.9694C15.7396 22.931 17.7581 22.0384 19.7114 22.8833C20.9543 23.4204 21.8672 24.5189 22.4253 26.1476C22.4553 26.2352 22.4639 26.3287 22.4505 26.4203C22.4371 26.5119 22.402 26.599 22.3482 26.6744C22.2944 26.7497 22.2233 26.8111 22.141 26.8535C22.0587 26.8958 21.9674 26.9179 21.8748 26.9179V26.9179Z" fill="white"/>
<path d="M31.8468 29.6448C31.7255 29.6448 31.6072 29.6068 31.5084 29.5361C31.4097 29.4655 31.3356 29.3658 31.2964 29.2509C30.8507 27.9493 30.1559 27.0846 29.2302 26.6814C27.7551 26.0384 26.1213 26.75 26.105 26.757C25.9651 26.8158 25.8077 26.8175 25.6666 26.7619C25.5254 26.7064 25.4115 26.5978 25.3492 26.4595C25.2869 26.3211 25.2811 26.1639 25.333 26.0213C25.385 25.8788 25.4905 25.7621 25.6273 25.6963C25.7122 25.6579 27.7307 24.7653 29.684 25.6096C30.9269 26.1472 31.8399 27.2452 32.3979 28.8738C32.4227 28.9462 32.4331 29.0227 32.4283 29.099C32.4236 29.1753 32.4038 29.25 32.3702 29.3186C32.3366 29.3873 32.2898 29.4487 32.2324 29.4993C32.1751 29.5499 32.1083 29.5886 32.036 29.6134C31.975 29.634 31.9112 29.6446 31.8468 29.6448V29.6448Z" fill="white"/>
</svg>
