<svg width="48" height="48" viewBox="0 0 48 48" fill="none" xmlns="http://www.w3.org/2000/svg">
<path d="M6.65497 31.076C6.18799 30.1755 5.8567 29.2109 5.67185 28.2135C4.52801 22.0586 9.16006 15.9197 16.2852 13.6363C16.2852 13.6363 23.2281 19.8371 33.7829 17.5551C35.6173 17.1584 35.8596 20.6595 36.209 22.5394C37.4748 29.3517 31.6654 36.1442 23.2324 37.7113C17.2404 38.825 11.5362 37.0001 8.28221 33.4067" fill="#F3F3F3"/>
<path d="M27.3985 24.9834C27.8516 24.5303 27.6834 23.6276 27.023 22.9672C26.3625 22.3067 25.4598 22.1385 25.0067 22.5916C24.5537 23.0447 24.7218 23.9474 25.3823 24.6079C26.0427 25.2683 26.9454 25.4365 27.3985 24.9834Z" fill="black"/>
<path d="M26.7237 25.584C26.2042 25.584 25.6198 25.3314 25.1394 24.851C24.3325 24.044 24.1679 22.9449 24.7639 22.3485C25.0612 22.0512 25.5124 21.933 26.0005 22.0237C26.4487 22.1096 26.8981 22.3558 27.2664 22.724C27.6346 23.0923 27.883 23.5404 27.9663 23.9899C28.0574 24.4784 27.9388 24.9287 27.6419 25.2261C27.4004 25.4676 27.0769 25.584 26.7237 25.584ZM25.6787 22.6811C25.5364 22.6811 25.3714 22.7137 25.249 22.8349C24.9362 23.1477 25.1081 23.8481 25.6245 24.3646C26.141 24.8811 26.8414 25.0521 27.1542 24.7401C27.467 24.4282 27.2952 23.7265 26.7787 23.21C26.5118 22.9432 26.1818 22.7571 25.8733 22.6996C25.8091 22.6877 25.744 22.6816 25.6787 22.6811Z" fill="black"/>
<path d="M12.005 24.6043C12.661 23.9349 12.8205 23.0272 12.3612 22.5771C11.9019 22.127 10.9977 22.3048 10.3416 22.9743C9.68551 23.6438 9.52601 24.5514 9.98534 25.0016C10.4447 25.4517 11.3489 25.2738 12.005 24.6043Z" fill="black"/>
<path d="M10.6503 25.5923C10.2834 25.5923 9.96626 25.4686 9.73379 25.2344C9.13911 24.635 9.30411 23.5303 10.1093 22.719C10.567 22.258 11.1604 21.983 11.6966 21.983C12.064 21.983 12.3807 22.1067 12.6131 22.3409C13.2082 22.9399 13.0428 24.045 12.238 24.8563C11.7804 25.3169 11.187 25.5923 10.6503 25.5923ZM11.6966 22.6705C11.3395 22.6705 10.9283 22.8694 10.597 23.2033C10.0793 23.7249 9.90739 24.4335 10.2219 24.7502C10.3508 24.8791 10.5248 24.9048 10.6516 24.9048C11.0091 24.9048 11.4199 24.7055 11.7512 24.3716C12.2689 23.85 12.4413 23.1418 12.1267 22.8247C11.9982 22.6971 11.8221 22.6705 11.6966 22.6705Z" fill="black"/>
<path d="M36.0414 13.9038L36.7607 15.6685C36.8039 15.7741 36.8244 15.8876 36.8209 16.0016C36.8174 16.1156 36.79 16.2276 36.7404 16.3303C36.6908 16.433 36.6201 16.5242 36.533 16.5978C36.4459 16.6715 36.3443 16.726 36.2348 16.7578C23.9972 20.3001 15.8173 13.2674 13.6693 11.1147C13.595 11.0397 13.5369 10.9503 13.4985 10.852C13.4601 10.7537 13.4423 10.6486 13.446 10.5432C13.4498 10.4377 13.475 10.3341 13.5203 10.2388C13.5656 10.1435 13.6299 10.0584 13.7092 9.9889L15.061 8.80855C15.1995 8.68799 15.3783 8.62401 15.5619 8.62934C15.7454 8.63468 15.9202 8.70894 16.0514 8.83734C16.5355 9.31064 17.0438 9.75855 17.5743 10.1793C20.65 12.6285 27.0618 16.3638 35.2052 13.5239C35.3667 13.4681 35.5435 13.4763 35.6991 13.547C35.8547 13.6177 35.9772 13.7454 36.0414 13.9038Z" fill="#124379"/>
<path d="M29.5329 18.2984C20.8558 18.2984 15.0954 13.3342 13.2744 11.5093C13.1459 11.3803 13.0452 11.2264 12.9787 11.0569C12.9121 10.8874 12.881 10.7061 12.8874 10.5241C12.8937 10.3422 12.9374 10.1635 13.0157 9.99907C13.0939 9.83468 13.2051 9.6881 13.3423 9.56842L14.6958 8.3872C14.9408 8.17499 15.2566 8.06249 15.5806 8.07196C15.9046 8.08143 16.2133 8.21218 16.4455 8.43834C16.9159 8.89829 17.4097 9.33371 17.9249 9.74287C20.9263 12.1371 27.1443 15.7439 35.0222 12.9965C35.3189 12.8934 35.6438 12.9082 35.9299 13.0379C36.216 13.1676 36.4413 13.4023 36.5592 13.6934L37.2785 15.4582C37.351 15.6362 37.3853 15.8275 37.3792 16.0196C37.3731 16.2117 37.3267 16.4004 37.243 16.5735C37.1593 16.7465 37.0402 16.9001 36.8934 17.0242C36.7466 17.1482 36.5753 17.2401 36.3907 17.2938C33.942 18.0041 31.6496 18.2984 29.5329 18.2984ZM15.5419 9.189C15.5002 9.18917 15.4601 9.20444 15.4289 9.23197L14.0771 10.4093C14.0551 10.4284 14.0373 10.4517 14.0247 10.4779C14.0122 10.5041 14.0051 10.5327 14.004 10.5617C14.003 10.5907 14.0078 10.6197 14.0184 10.6468C14.029 10.6739 14.045 10.6985 14.0655 10.7191C15.798 12.4559 21.2803 17.1782 29.5407 17.1786C31.5602 17.1786 33.743 16.8972 36.0801 16.2204C36.1141 16.2107 36.1458 16.1938 36.1728 16.1709C36.1998 16.148 36.2217 16.1196 36.2369 16.0877C36.2527 16.0554 36.2615 16.0203 36.2627 15.9844C36.2639 15.9486 36.2574 15.9129 36.2438 15.8797L35.5245 14.115C35.5144 14.0892 35.4949 14.0682 35.4699 14.0564C35.4449 14.0446 35.4163 14.0428 35.39 14.0514C33.2467 14.799 31.222 15.1054 29.3383 15.1058C23.8572 15.1058 19.5977 12.5053 17.2271 10.6164C16.6813 10.1832 16.1583 9.72211 15.66 9.23498C15.6445 9.21957 15.626 9.20739 15.6057 9.19913C15.5855 9.19087 15.5638 9.1867 15.5419 9.18685V9.189Z" fill="black"/>
<path d="M33.7799 13.9602L33.5156 5.48078C33.5156 5.48078 30.2264 1.31281 22.7541 3.16261C22.4885 3.2635 22.2596 3.44234 22.0975 3.67566L17.5742 10.1794C17.5742 10.1794 24.9722 15.7533 33.7799 13.9602Z" fill="#124379"/>
<path d="M30.2135 14.8737C29.2914 14.8728 28.3705 14.8078 27.4574 14.6791C25.6457 14.4178 23.8715 13.9418 22.1723 13.2611C19.1864 12.0777 17.3202 10.683 17.2425 10.625C17.1271 10.538 17.05 10.4098 17.0271 10.2672C17.0043 10.1246 17.0376 9.97871 17.12 9.86012L21.6412 3.35679C21.8675 3.03053 22.1875 2.78073 22.559 2.6405C22.5801 2.63277 22.602 2.62589 22.623 2.62031C24.389 2.18374 26.0786 2.03851 27.6444 2.19062C28.9098 2.31222 30.097 2.62589 31.1742 3.12304C33.0305 3.97984 33.9199 5.08929 33.9569 5.13613C34.031 5.23003 34.0731 5.34526 34.0768 5.46484L34.3398 13.9443C34.3438 14.076 34.3012 14.2049 34.2194 14.3082C34.1377 14.4115 34.022 14.4826 33.8929 14.5089C32.6817 14.7536 31.4491 14.8759 30.2135 14.8737ZM18.3541 10.0393C19.6957 10.914 21.1229 11.6498 22.6136 12.2354C24.2265 12.8794 25.9102 13.3292 27.6293 13.5756C29.5328 13.8399 31.4063 13.8141 33.2062 13.5L32.9643 5.69644C32.6098 5.31574 31.8042 4.63425 30.644 4.10874C29.6449 3.66416 28.5784 3.38968 27.4888 3.29663C26.0708 3.16773 24.5373 3.30093 22.9255 3.69581C22.7773 3.75906 22.6501 3.86324 22.559 3.99617L18.3541 10.0393Z" fill="black"/>
<path d="M21.3657 30.4916C21.9226 24.7501 17.575 24.1219 17.575 24.1219L2.37094 34.5827L7.99985 33.0788L21.3657 30.4916Z" fill="#FA6F00"/>
<path d="M2.37016 35.1416C2.25088 35.1417 2.13472 35.1035 2.03868 35.0328C1.94263 34.9621 1.87175 34.8625 1.8364 34.7485C1.80105 34.6346 1.8031 34.5124 1.84224 34.3997C1.88138 34.287 1.95555 34.1899 2.05391 34.1224L17.2584 23.6616C17.3742 23.5819 17.5158 23.5487 17.655 23.5688C17.7062 23.5761 18.9157 23.7605 20.0432 24.729C21.9064 26.3317 22.0928 28.7758 21.9214 30.5444C21.9098 30.6643 21.8597 30.7773 21.7786 30.8664C21.6975 30.9555 21.5898 31.0161 21.4715 31.0389L8.12153 33.6248L2.51454 35.1223C2.46747 35.135 2.41893 35.1415 2.37016 35.1416ZM17.6924 24.7191L5.35477 33.2076L7.85341 32.5403C7.866 32.5368 7.87876 32.5339 7.89165 32.5317L20.8403 30.024C20.9533 28.0414 20.4407 26.5466 19.3136 25.5776C18.843 25.1756 18.2894 24.8825 17.6924 24.7191Z" fill="black"/>
<path d="M34.5386 30.4915C35.7336 29.2183 36.8976 33.1517 37.442 34.5825C37.6298 35.0767 37.7742 35.5399 37.8825 35.9331C37.98 36.2897 37.9764 36.6665 37.872 37.0212C37.7675 37.3759 37.5665 37.6945 37.2912 37.9414C24.1024 49.7961 12.0501 44.4194 7.72268 41.7657C7.07716 41.3708 6.56313 40.7935 6.24552 40.1066C5.92791 39.4198 5.82096 38.6542 5.93819 37.9066C6.13885 36.6425 6.68885 34.9912 7.99811 33.0782C7.99811 33.0799 20.2653 45.7003 34.5386 30.4915Z" fill="#98D639"/>
<path d="M37.4417 34.5826L43.9395 30.4915C43.9395 30.4915 43.3671 26.3626 40.4053 23.253C39.9689 22.7949 39.4934 22.3756 38.9843 22L36.3469 23.5942C36.3469 23.5942 37.2973 27.2109 35.3092 30.0253C35.3092 30.0253 37.5358 32.8797 37.4417 34.5826Z" fill="#98D639"/>
<path d="M40.4055 23.8121C40.2826 23.8123 40.1631 23.772 40.0655 23.6973C39.9678 23.6227 39.8975 23.5179 39.8655 23.3993C39.8334 23.2806 39.8414 23.1547 39.8881 23.0411C39.9349 22.9274 40.0178 22.8323 40.1241 22.7706L42.2815 21.5155C42.345 21.4768 42.4155 21.4512 42.489 21.4402C42.5624 21.4291 42.6374 21.4328 42.7094 21.4511C42.7814 21.4694 42.8491 21.5019 42.9084 21.5466C42.9677 21.5913 43.0175 21.6475 43.0549 21.7117C43.0922 21.7759 43.1164 21.847 43.126 21.9206C43.1355 21.9943 43.1303 22.0692 43.1106 22.1408C43.0908 22.2125 43.057 22.2794 43.0111 22.3378C42.9652 22.3963 42.9081 22.4449 42.8431 22.481L40.6861 23.7361C40.601 23.7859 40.5041 23.8121 40.4055 23.8121Z" fill="black"/>
<path d="M42.1362 26.1323C42.0125 26.1324 41.8922 26.0915 41.7943 26.0159C41.6964 25.9403 41.6263 25.8344 41.5951 25.7147C41.5639 25.595 41.5733 25.4683 41.6219 25.3546C41.6704 25.2408 41.7553 25.1463 41.8633 25.086L44.1777 23.7914C44.2417 23.7544 44.3125 23.7305 44.3859 23.7211C44.4593 23.7117 44.5339 23.7169 44.6052 23.7366C44.6766 23.7562 44.7433 23.7898 44.8016 23.8355C44.8598 23.8811 44.9084 23.9379 44.9445 24.0025C44.9807 24.0671 45.0036 24.1382 45.012 24.2117C45.0204 24.2852 45.0141 24.3597 44.9935 24.4307C44.9729 24.5018 44.9383 24.5681 44.8919 24.6257C44.8455 24.6833 44.788 24.7311 44.7229 24.7664L42.4103 26.061C42.3266 26.1079 42.2322 26.1325 42.1362 26.1323Z" fill="black"/>
<path d="M43.4845 29.1956C43.3631 29.1963 43.2448 29.1574 43.1475 29.0848C43.0501 29.0123 42.9791 28.91 42.9451 28.7935C42.9111 28.6769 42.916 28.5525 42.9591 28.439C43.0021 28.3255 43.081 28.2291 43.1837 28.1644L45.3282 26.7954C45.4531 26.7156 45.6045 26.6887 45.7492 26.7206C45.8939 26.7525 46.0199 26.8405 46.0997 26.9653C46.1795 27.0902 46.2064 27.2416 46.1745 27.3863C46.1427 27.531 46.0546 27.6571 45.9298 27.7368L43.7852 29.1075C43.6956 29.1653 43.5911 29.1959 43.4845 29.1956Z" fill="black"/>
<path d="M39.9481 33.5626C39.8199 33.5623 39.6957 33.518 39.5964 33.437C39.497 33.3561 39.4285 33.2434 39.4024 33.1179C38.8008 30.221 37.9079 28.5422 37.2664 27.6441C36.5811 26.6851 36.0315 26.3955 36.0259 26.3925L36.0328 26.3959L36.5158 25.3883C36.5909 25.4244 37.2742 25.7724 38.097 26.8875C39.1592 28.326 39.9666 30.3456 40.496 32.8902C40.5109 32.962 40.5116 33.0361 40.4979 33.1082C40.4843 33.1803 40.4565 33.2489 40.4163 33.3103C40.3761 33.3717 40.3242 33.4245 40.2635 33.4658C40.2029 33.5071 40.1347 33.5361 40.0628 33.551C40.0251 33.5587 39.9866 33.5626 39.9481 33.5626Z" fill="black"/>
<path d="M37.9075 37.4413H37.8985C34.1073 37.385 31.0153 34.6423 30.8855 34.5254C30.831 34.4763 30.7866 34.417 30.755 34.3508C30.7234 34.2846 30.7051 34.2128 30.7013 34.1396C30.6974 34.0663 30.708 33.993 30.7325 33.9238C30.7569 33.8547 30.7948 33.791 30.8438 33.7365C30.8929 33.6819 30.9522 33.6376 31.0184 33.606C31.0846 33.5744 31.1564 33.5561 31.2297 33.5522C31.3029 33.5484 31.3762 33.559 31.4454 33.5834C31.5145 33.6079 31.5782 33.6457 31.6327 33.6948C31.6718 33.7296 34.5546 36.2729 37.9148 36.3241C38.063 36.3251 38.2046 36.3849 38.3087 36.4904C38.4127 36.5959 38.4706 36.7384 38.4695 36.8865C38.4685 37.0347 38.4087 37.1764 38.3032 37.2804C38.1977 37.3844 38.0552 37.4423 37.9071 37.4413H37.9075Z" fill="black"/>
<path d="M32.6902 42.0045H32.6614C30.7708 41.9096 28.9412 41.0515 27.3729 39.5239C26.2037 38.3848 25.5884 37.2784 25.5626 37.232C25.4922 37.1023 25.4759 36.95 25.5173 36.8084C25.5588 36.6668 25.6546 36.5473 25.7838 36.4761C25.913 36.4049 26.0652 36.3877 26.2071 36.4283C26.3489 36.4688 26.469 36.5639 26.541 36.6927C26.9924 37.4462 27.5414 38.1367 28.1738 38.7462C29.5587 40.086 31.0866 40.8087 32.716 40.8886C32.7894 40.8904 32.8616 40.9067 32.9287 40.9364C32.9958 40.9661 33.0564 41.0088 33.107 41.062C33.1576 41.1151 33.1972 41.1777 33.2236 41.2462C33.25 41.3146 33.2627 41.3876 33.2609 41.461C33.259 41.5343 33.2428 41.6066 33.2131 41.6737C33.1833 41.7408 33.1407 41.8013 33.0875 41.8519C33.0344 41.9025 32.9718 41.9421 32.9033 41.9686C32.8349 41.995 32.7619 42.0076 32.6885 42.0058L32.6902 42.0045Z" fill="black"/>
<path d="M26.5231 44.8754C26.437 44.8753 26.3522 44.8553 26.2751 44.8169C20.7935 42.0936 20.3965 38.2083 20.3823 38.0442C20.3728 37.8986 20.4206 37.7551 20.5154 37.6443C20.6103 37.5335 20.7448 37.4642 20.8901 37.4512C21.0354 37.4383 21.18 37.4827 21.293 37.5749C21.406 37.6672 21.4784 37.8 21.4948 37.9449C21.4948 37.9643 21.5915 38.8181 22.2751 39.9533C22.9132 41.0138 24.2117 42.5443 26.7723 43.8162C26.8853 43.8722 26.9761 43.9647 27.0298 44.0789C27.0835 44.193 27.097 44.3219 27.0682 44.4447C27.0393 44.5675 26.9697 44.6769 26.8707 44.7551C26.7717 44.8333 26.6492 44.8757 26.5231 44.8754Z" fill="black"/>
<path d="M19.9885 45.8689C19.8979 45.8689 19.8086 45.8468 19.7285 45.8045C16.789 44.2546 15.4746 42.0469 14.8924 40.4678C14.2564 38.749 14.323 37.3938 14.3265 37.3371C14.3345 37.1889 14.4011 37.05 14.5115 36.9509C14.622 36.8519 14.7672 36.8007 14.9154 36.8088C15.0635 36.8168 15.2024 36.8833 15.3015 36.9938C15.4006 37.1042 15.4517 37.2495 15.4437 37.3976C15.4437 37.4191 15.3925 38.6218 15.9593 40.1266C16.7156 42.1354 18.1593 43.7132 20.2515 44.8162C20.3619 44.8744 20.4497 44.968 20.5007 45.0819C20.5518 45.1959 20.5632 45.3237 20.5331 45.4449C20.503 45.5661 20.4332 45.6737 20.3348 45.7505C20.2364 45.8274 20.1151 45.8691 19.9902 45.8689H19.9885Z" fill="black"/>
<path d="M12.1633 44.4602C12.0728 44.4603 11.9837 44.4385 11.9035 44.3965C11.8233 44.3545 11.7546 44.2936 11.7031 44.2192C9.88814 41.5938 9.5822 39.3121 9.64407 37.8619C9.71282 36.2562 10.2353 35.2743 10.2572 35.2335C10.3274 35.103 10.4466 35.0058 10.5885 34.9631C10.7304 34.9205 10.8834 34.936 11.0139 35.0062C11.1444 35.0764 11.2417 35.1956 11.2843 35.3375C11.3269 35.4794 11.3114 35.6324 11.2412 35.7629C11.2339 35.7762 10.8038 36.6089 10.7578 37.9741C10.6951 39.8153 11.3224 41.7029 12.6222 43.5841C12.6801 43.6679 12.714 43.7659 12.7202 43.8675C12.7264 43.9692 12.7048 44.0706 12.6575 44.1608C12.6102 44.251 12.5392 44.3266 12.4521 44.3794C12.365 44.4322 12.2652 44.4601 12.1633 44.4602Z" fill="black"/>
<path d="M17.8001 31.1807C17.422 29.2081 16.6782 27.9581 16.1209 27.256C15.5193 26.4998 15.0002 26.2007 14.9951 26.1977L15.5352 25.2197C15.6383 25.2765 18.0704 26.6519 18.8975 30.9706L17.8001 31.1807Z" fill="black"/>
<path d="M14.7143 31.754C14.3427 29.1819 12.657 27.7094 12.6398 27.6947L13.3638 26.8418C13.4463 26.9114 15.3859 28.5863 15.8204 31.5924L14.7143 31.754Z" fill="black"/>
<path d="M12.1632 32.8322C12.1538 32.8322 12.1443 32.8322 12.1349 32.8322C11.987 32.8248 11.848 32.759 11.7486 32.6493C11.6492 32.5396 11.5974 32.3948 11.6047 32.2469C11.7129 30.0602 10.4179 29.4771 10.3629 29.4539L10.3693 29.4565L10.7852 28.418C10.8712 28.4519 12.8709 29.2877 12.7218 32.3011C12.7148 32.4444 12.6528 32.5795 12.5488 32.6784C12.4448 32.7773 12.3067 32.8323 12.1632 32.8322Z" fill="black"/>
<path d="M9.76475 33.2965C9.7287 33.2964 9.69273 33.2929 9.65733 33.2861C9.58533 33.2721 9.5168 33.244 9.45565 33.2035C9.3945 33.1629 9.34194 33.1108 9.30096 33.0499C9.25999 32.9891 9.23139 32.9207 9.21682 32.8488C9.20225 32.7769 9.20199 32.7029 9.21604 32.6309C9.46096 31.3736 8.44003 30.9087 8.32315 30.8601H8.32702L8.73995 29.822C9.43389 30.0979 10.6555 31.0844 10.3126 32.8436C10.2881 32.9709 10.22 33.0858 10.12 33.1684C10.02 33.251 9.89445 33.2963 9.76475 33.2965Z" fill="black"/>
<path d="M7.22549 33.8448C7.17179 33.8449 7.11837 33.8371 7.06694 33.8216C6.92519 33.7796 6.80588 33.6831 6.73517 33.5532C6.66445 33.4234 6.64809 33.2708 6.68967 33.129C6.84865 32.5927 6.34162 32.3082 6.23849 32.2567L6.24322 32.2588L6.72276 31.2499C7.23495 31.4931 8.11065 32.2653 7.76089 33.4461C7.72647 33.5613 7.65577 33.6624 7.55931 33.7342C7.46285 33.8061 7.34577 33.8449 7.22549 33.8448Z" fill="black"/>
<path d="M22.6359 3.91849C22.6359 3.91849 30.5529 3.85231 30.2131 8.32493C29.8732 12.7976 19.0029 10.5653 19.0029 10.5653C19.0029 10.5653 25.7967 16.853 33.3674 13.6363V5.31196C33.3674 5.31196 26.2922 0.828171 22.6359 3.91849Z" fill="#123166"/>
<path opacity="0.4" d="M17.9183 16.2852C19.4007 17.8428 22.2027 19.883 27.1016 20.6775C27.237 20.6995 27.3612 20.7659 27.4548 20.8661C28.3816 21.8582 33.0536 27.7901 21.9213 31.0768C21.9037 31.082 21.6424 30.6076 21.6244 30.6114L9.76498 33.0353C9.6489 33.0591 9.54196 33.1154 9.45661 33.1976C9.37126 33.2798 9.31101 33.3845 9.28288 33.4997C9.25474 33.6148 9.25987 33.7355 9.29768 33.8478C9.33549 33.9601 9.40441 34.0594 9.49643 34.134C12.5859 36.6232 22.693 43.014 33.7845 31.1352C33.8309 31.0854 33.8782 31.0368 33.9259 30.9887C34.5318 30.379 39.1947 24.7621 33.559 18.2102C33.5004 18.1421 33.4278 18.0875 33.3463 18.0499C33.2647 18.0123 33.1761 17.9927 33.0863 17.9923C31.6546 17.9923 24.997 17.8437 18.6058 15.2728C17.9832 15.0219 17.4555 15.7966 17.9183 16.2852Z" fill="#DADADA"/>
<path d="M10.1838 30.9273C10.1144 30.9273 10.0468 30.9048 9.99114 30.8633C9.93549 30.8218 9.89472 30.7635 9.87492 30.6969C9.85512 30.6304 9.85735 30.5592 9.88126 30.494C9.90517 30.4288 9.94949 30.3731 10.0076 30.3352L17.9074 25.1819C17.979 25.1357 18.0659 25.1197 18.1492 25.1374C18.2326 25.1552 18.3055 25.2052 18.352 25.2765C18.3986 25.3478 18.415 25.4347 18.3977 25.5181C18.3804 25.6015 18.3309 25.6746 18.2598 25.7216L10.3613 30.8748C10.3086 30.9095 10.2468 30.9278 10.1838 30.9273Z" fill="#F3970D"/>
<path d="M7.28155 25.6472C7.24621 25.6471 7.21101 25.6428 7.1767 25.6343C7.06616 25.6066 6.97115 25.5362 6.91257 25.4384C6.85399 25.3407 6.83663 25.2237 6.86432 25.1131C7.75506 21.5575 9.83518 19.1319 11.4233 17.7225C13.1421 16.1962 14.6425 15.5148 14.7053 15.4881C14.7568 15.4641 14.8127 15.4507 14.8695 15.4484C14.9263 15.4462 14.9831 15.4553 15.0364 15.4751C15.0897 15.495 15.1385 15.5252 15.18 15.5641C15.2215 15.603 15.2549 15.6497 15.2782 15.7016C15.3016 15.7535 15.3143 15.8095 15.3159 15.8663C15.3174 15.9232 15.3076 15.9798 15.2871 16.0328C15.2665 16.0859 15.2357 16.1343 15.1963 16.1754C15.1569 16.2164 15.1098 16.2492 15.0576 16.2719C15.0434 16.2783 13.5967 16.94 11.9707 18.3872C10.4819 19.7132 8.53323 21.9927 7.69791 25.3228C7.67449 25.4155 7.62083 25.4977 7.54541 25.5565C7.47 25.6152 7.37715 25.6472 7.28155 25.6472Z" fill="white"/>
<path opacity="0.5" d="M19.8405 26.5072C19.8405 26.5072 14.0698 30.8599 5.31702 33.2863L20.9379 30.3426C20.9379 30.3426 22.6549 26.7414 19.8405 26.5072Z" fill="#B73F39"/>
<path d="M10.8902 36.0433C10.8902 36.0433 9.5225 41.8303 12.1698 43.4318C14.8171 45.0332 18.1678 44.8497 18.3487 44.8497C18.5296 44.8497 14.2177 40.1988 14.8816 37.7745L10.8902 36.0433Z" fill="#F3D427"/>
<path d="M36.5664 26.0822V23.4611L39.1798 22.1458C39.1798 22.1458 43.936 27.1616 44.0816 30.4925L40.144 32.8829C40.144 32.8829 37.7485 26.3482 36.5664 26.0822Z" fill="#F3D427"/>
<path d="M21.2595 38.4697C21.2595 38.4697 24.3876 44.4354 27.2381 44.0221C30.0887 43.6087 32.2173 41.444 32.3389 41.3357C32.4605 41.2274 27.2291 39.5705 26.0518 37.3679L21.2595 38.4697Z" fill="#F3D427"/>
<path d="M31.5391 34.0379C31.5391 34.0379 34.8266 36.6985 36.01 36.913C38.8459 37.426 38.0003 36.5069 37.9676 36.3466C37.4275 33.7002 36.2059 32.9091 35.0298 30.7053L31.5391 34.0379Z" fill="#F3D427"/>
<path opacity="0.4" d="M7.93875 34.1105C7.93875 34.1105 13.5531 45.6893 34.3676 36.0983C34.3676 36.0983 36.5658 35.3029 37.6701 34.5827C37.6701 34.5827 35.5969 31.0782 35.0319 30.7053C35.0319 30.7053 28.584 37.5686 19.3912 37.7762C19.3916 37.7762 14.8301 38.7288 7.93875 34.1105Z" fill="#227B39"/>
<path opacity="0.4" d="M38.1137 34.4417C38.1137 34.4417 43.3486 31.4455 44.4529 30.7258C44.4529 30.7258 43.3009 26.6257 42.7342 26.2523C42.7342 26.2523 41.4541 31.6492 34.7738 29.8849L38.1137 34.4417Z" fill="#227B39"/>
<path d="M20.2685 9.73328C20.1902 9.73322 20.1134 9.71178 20.0465 9.67126C19.9795 9.63075 19.9248 9.5727 19.8884 9.50339C19.852 9.43408 19.8352 9.35614 19.8399 9.27799C19.8446 9.19984 19.8705 9.12445 19.9149 9.05996L22.6812 5.03207C22.7129 4.98494 22.7537 4.94457 22.8011 4.91329C22.8485 4.88201 22.9016 4.86043 22.9574 4.84981C23.0132 4.83918 23.0705 4.83973 23.1261 4.8514C23.1817 4.86308 23.2344 4.88566 23.2812 4.91783C23.328 4.95001 23.368 4.99114 23.3988 5.03885C23.4296 5.08656 23.4506 5.13991 23.4607 5.1958C23.4707 5.2517 23.4696 5.30903 23.4574 5.36449C23.4451 5.41995 23.422 5.47243 23.3894 5.5189L20.6252 9.5468C20.5855 9.60463 20.5322 9.65187 20.47 9.68437C20.4079 9.71688 20.3387 9.73367 20.2685 9.73328Z" fill="#469BB5"/>
<path d="M6.15877 31.3329C5.6666 30.3838 5.31695 29.3674 5.12108 28.3164C4.54315 25.2064 5.3617 21.9485 7.42592 19.143C9.44546 16.3973 12.5315 14.2532 16.1121 13.1055L16.4532 14.1694C13.0944 15.2436 10.2082 17.2473 8.32569 19.8052C6.44323 22.3631 5.69858 25.3095 6.22022 28.1123C6.39604 29.0556 6.70994 29.9677 7.15178 30.8194L6.15877 31.3329Z" fill="#5B5B5B"/>
<path d="M26.7237 25.584C26.2042 25.584 25.6198 25.3314 25.1394 24.851C24.3325 24.044 24.1679 22.9449 24.7639 22.3485C25.0612 22.0512 25.5124 21.933 26.0005 22.0237C26.4487 22.1096 26.8981 22.3558 27.2664 22.724C27.6346 23.0923 27.883 23.5404 27.9663 23.9899C28.0574 24.4784 27.9388 24.9287 27.6419 25.2261C27.4004 25.4676 27.0769 25.584 26.7237 25.584ZM25.6787 22.6811C25.5364 22.6811 25.3714 22.7137 25.249 22.8349C24.9362 23.1477 25.1081 23.8481 25.6245 24.3646C26.141 24.8811 26.8414 25.0521 27.1542 24.7401C27.467 24.4282 27.2952 23.7265 26.7787 23.21C26.5118 22.9432 26.1818 22.7571 25.8733 22.6996C25.8091 22.6877 25.744 22.6816 25.6787 22.6811Z" fill="black"/>
<path d="M10.6503 25.5923C10.2834 25.5923 9.96626 25.4686 9.73379 25.2344C9.13911 24.635 9.30411 23.5303 10.1093 22.719C10.567 22.258 11.1604 21.983 11.6966 21.983C12.064 21.983 12.3807 22.1067 12.6131 22.3409C13.2082 22.9399 13.0428 24.045 12.238 24.8563C11.7804 25.3169 11.187 25.5923 10.6503 25.5923ZM11.6966 22.6705C11.3395 22.6705 10.9283 22.8694 10.597 23.2033C10.0793 23.7249 9.90739 24.4335 10.2219 24.7502C10.3508 24.8791 10.5248 24.9048 10.6516 24.9048C11.0091 24.9048 11.4199 24.7055 11.7512 24.3716C12.2689 23.85 12.4413 23.1418 12.1267 22.8247C11.9982 22.6971 11.8221 22.6705 11.6966 22.6705Z" fill="black"/>
<path d="M33.7807 14.5188C33.6355 14.5189 33.496 14.4624 33.3917 14.3613C33.2874 14.2602 33.2266 14.1225 33.2221 13.9774L32.9643 5.69644C32.6098 5.31574 31.8042 4.63425 30.644 4.10874C29.6448 3.66416 28.5784 3.38968 27.4888 3.29663C26.0708 3.16773 24.5373 3.30093 22.9255 3.69581C22.7774 3.75913 22.6504 3.86331 22.5594 3.99617L18.0339 10.4986C17.9486 10.6184 17.8195 10.6997 17.6746 10.7249C17.5296 10.7501 17.3806 10.7171 17.2599 10.633C17.1392 10.549 17.0565 10.4208 17.0297 10.2762C17.003 10.1315 17.0343 9.98219 17.117 9.86054L21.6416 3.35679C21.8679 3.03053 22.188 2.78073 22.5594 2.6405C22.5805 2.63277 22.6024 2.62589 22.6234 2.62031C24.3895 2.18374 26.079 2.03851 27.6448 2.19062C28.9102 2.31222 30.0974 2.62589 31.1747 3.12304C33.0309 3.97984 33.9204 5.08929 33.9573 5.13613C34.0315 5.23003 34.0735 5.34526 34.0772 5.46484L34.3402 13.9443C34.3425 14.0176 34.3303 14.0907 34.3043 14.1593C34.2784 14.2279 34.2392 14.2908 34.1889 14.3442C34.1387 14.3977 34.0784 14.4408 34.0116 14.4709C33.9447 14.5011 33.8725 14.5178 33.7992 14.5201L33.7807 14.5188Z" fill="#0A1D38"/>
<path d="M19.9935 45.8688C19.7168 45.8688 19.4399 45.8636 19.1629 45.8533C16.7612 45.7572 14.3884 45.2948 12.1263 44.4822C10.4886 43.8986 8.91515 43.1485 7.43069 42.2435C6.68955 41.7923 6.09939 41.1309 5.73532 40.3433C5.37125 39.5557 5.24974 38.6776 5.38624 37.8207C5.64878 36.1673 6.37237 34.4661 7.53468 32.7646C7.57525 32.7021 7.62791 32.6484 7.68955 32.6066C7.7512 32.5647 7.82059 32.5357 7.89364 32.5211C7.96668 32.5065 8.04191 32.5066 8.1149 32.5215C8.18788 32.5364 8.25715 32.5658 8.31863 32.6078C8.3801 32.6499 8.43254 32.7039 8.47285 32.7665C8.51317 32.8291 8.54055 32.8992 8.55339 32.9726C8.56622 33.046 8.56425 33.1212 8.54758 33.1938C8.53092 33.2664 8.4999 33.3349 8.45636 33.3954C7.38643 34.9594 6.72385 36.5072 6.48753 37.996C6.38575 38.6351 6.4766 39.2899 6.7485 39.8771C7.02041 40.4643 7.46104 40.9573 8.01421 41.293C9.97874 42.4961 14.0449 44.5466 19.2046 44.7391C19.4724 44.7491 19.7397 44.7542 20.0064 44.7542C25.8952 44.752 31.5826 42.3243 36.9176 37.5268C37.1167 37.3498 37.2621 37.1205 37.3375 36.865C37.4128 36.6095 37.415 36.338 37.3438 36.0813C37.221 35.6357 37.0783 35.1988 36.9197 34.7815C36.4471 33.5445 35.6002 31.8768 34.2273 30.9573C34.1663 30.9165 34.1139 30.8641 34.0731 30.8031C34.0323 30.7421 34.004 30.6737 33.9896 30.6017C33.9753 30.5297 33.9753 30.4556 33.9896 30.3836C34.0039 30.3116 34.0323 30.2432 34.0731 30.1821C34.1138 30.1211 34.1662 30.0687 34.2272 30.0279C34.2883 29.9872 34.3567 29.9588 34.4287 29.9445C34.5007 29.9302 34.5748 29.9301 34.6467 29.9445C34.7187 29.9588 34.7872 29.9871 34.8482 30.0279C36.1463 30.8993 37.1939 32.365 37.9622 34.3841C38.134 34.834 38.287 35.3053 38.4193 35.7844C38.5465 36.2412 38.543 36.7245 38.4092 37.1794C38.2755 37.6343 38.0168 38.0426 37.6627 38.3578C34.5474 41.159 31.2655 43.2047 27.9079 44.4383C25.322 45.3888 22.6636 45.8688 19.9935 45.8688Z" fill="#225039"/>
<path d="M37.4425 35.1416C37.3214 35.1417 37.2034 35.1024 37.1066 35.0297C37.0097 34.9569 36.9391 34.8546 36.9054 34.7382C36.8718 34.6218 36.8769 34.4976 36.92 34.3844C36.9631 34.2711 37.0418 34.175 37.1443 34.1104L43.3228 30.2204C43.1118 29.1892 42.3117 26.0645 40.0013 23.6389C39.6725 23.2934 39.3203 22.971 38.9473 22.6738L36.636 24.0703C36.5093 24.1457 36.3579 24.1679 36.2149 24.1321C36.0718 24.0963 35.9487 24.0054 35.8725 23.8792C35.7962 23.753 35.7729 23.6018 35.8077 23.4585C35.8424 23.3152 35.9325 23.1914 36.0581 23.1143L38.6955 21.5201C38.7901 21.4629 38.8996 21.4351 39.01 21.4401C39.1205 21.4452 39.227 21.4829 39.316 21.5485C39.8514 21.9441 40.3513 22.3856 40.81 22.8681C43.8608 26.0709 44.4688 30.2393 44.4928 30.4151C44.5073 30.5217 44.4907 30.6303 44.445 30.7277C44.3992 30.8251 44.3263 30.9072 44.235 30.9642L37.7395 35.0553C37.6507 35.1117 37.5477 35.1416 37.4425 35.1416Z" fill="#225039"/>
<path d="M40.4055 23.8121C40.2826 23.8123 40.1631 23.772 40.0655 23.6973C39.9678 23.6227 39.8975 23.5179 39.8655 23.3993C39.8334 23.2806 39.8414 23.1547 39.8881 23.0411C39.9349 22.9274 40.0178 22.8323 40.1241 22.7706L42.2815 21.5155C42.345 21.4768 42.4155 21.4512 42.489 21.4402C42.5624 21.4291 42.6374 21.4328 42.7094 21.4511C42.7814 21.4694 42.8491 21.5019 42.9084 21.5466C42.9677 21.5913 43.0175 21.6475 43.0549 21.7117C43.0922 21.7759 43.1164 21.847 43.126 21.9206C43.1355 21.9943 43.1303 22.0692 43.1106 22.1408C43.0908 22.2125 43.057 22.2794 43.0111 22.3378C42.9652 22.3963 42.9081 22.4449 42.8431 22.481L40.6861 23.7361C40.601 23.7859 40.5041 23.8121 40.4055 23.8121Z" fill="#225039"/>
<path d="M42.1362 26.1323C42.0125 26.1324 41.8922 26.0915 41.7943 26.0159C41.6964 25.9403 41.6263 25.8344 41.5951 25.7147C41.5639 25.595 41.5733 25.4683 41.6219 25.3546C41.6704 25.2408 41.7553 25.1463 41.8633 25.086L44.1777 23.7914C44.2417 23.7544 44.3125 23.7305 44.3859 23.7211C44.4593 23.7117 44.5339 23.7169 44.6052 23.7366C44.6766 23.7562 44.7433 23.7898 44.8016 23.8355C44.8598 23.8811 44.9084 23.9379 44.9445 24.0025C44.9807 24.0671 45.0036 24.1382 45.012 24.2117C45.0204 24.2852 45.0141 24.3597 44.9935 24.4307C44.9729 24.5018 44.9383 24.5681 44.8919 24.6257C44.8455 24.6833 44.788 24.7311 44.7229 24.7664L42.4103 26.061C42.3266 26.1079 42.2322 26.1325 42.1362 26.1323Z" fill="#225039"/>
<path d="M43.4845 29.1956C43.3631 29.1963 43.2448 29.1574 43.1475 29.0848C43.0501 29.0123 42.9791 28.91 42.9451 28.7935C42.9111 28.6769 42.916 28.5525 42.9591 28.439C43.0021 28.3255 43.081 28.2291 43.1837 28.1644L45.3282 26.7954C45.4531 26.7156 45.6045 26.6887 45.7492 26.7206C45.8939 26.7525 46.0199 26.8405 46.0997 26.9653C46.1795 27.0902 46.2064 27.2416 46.1745 27.3863C46.1427 27.531 46.0546 27.6571 45.9298 27.7368L43.7852 29.1075C43.6956 29.1653 43.5911 29.1959 43.4845 29.1956Z" fill="#225039"/>
<path d="M39.9481 33.5626C39.8199 33.5623 39.6957 33.518 39.5964 33.437C39.497 33.3561 39.4285 33.2434 39.4024 33.1179C38.8008 30.221 37.9079 28.5422 37.2664 27.6441C36.5811 26.6851 36.0315 26.3955 36.0259 26.3925L36.0328 26.3959L36.5158 25.3883C36.5909 25.4244 37.2742 25.7724 38.097 26.8875C39.1592 28.326 39.9666 30.3456 40.496 32.8902C40.5109 32.962 40.5116 33.0361 40.4979 33.1082C40.4843 33.1803 40.4565 33.2489 40.4163 33.3103C40.3761 33.3717 40.3242 33.4245 40.2635 33.4658C40.2029 33.5071 40.1347 33.5361 40.0628 33.551C40.0251 33.5587 39.9866 33.5626 39.9481 33.5626Z" fill="#225039"/>
<path d="M37.9075 37.4413H37.8985C34.1073 37.385 31.0153 34.6423 30.8855 34.5254C30.831 34.4763 30.7866 34.417 30.755 34.3508C30.7234 34.2846 30.7051 34.2128 30.7013 34.1396C30.6974 34.0663 30.708 33.993 30.7325 33.9238C30.7569 33.8547 30.7948 33.791 30.8438 33.7365C30.8929 33.6819 30.9522 33.6376 31.0184 33.606C31.0846 33.5744 31.1564 33.5561 31.2297 33.5522C31.3029 33.5484 31.3762 33.559 31.4454 33.5834C31.5145 33.6079 31.5782 33.6457 31.6327 33.6948C31.6718 33.7296 34.5546 36.2729 37.9148 36.3241C38.063 36.3251 38.2046 36.3849 38.3087 36.4904C38.4127 36.5959 38.4706 36.7384 38.4695 36.8865C38.4685 37.0347 38.4087 37.1764 38.3032 37.2804C38.1977 37.3844 38.0552 37.4423 37.9071 37.4413H37.9075Z" fill="#225039"/>
<path d="M32.6902 42.0045H32.6614C30.7708 41.9096 28.9412 41.0515 27.3729 39.5239C26.2037 38.3848 25.5884 37.2784 25.5626 37.232C25.4922 37.1023 25.4759 36.95 25.5173 36.8084C25.5588 36.6668 25.6546 36.5473 25.7838 36.4761C25.913 36.4049 26.0652 36.3877 26.2071 36.4283C26.3489 36.4688 26.469 36.5639 26.541 36.6927C26.9924 37.4462 27.5414 38.1367 28.1738 38.7462C29.5587 40.086 31.0866 40.8087 32.716 40.8886C32.7894 40.8904 32.8616 40.9067 32.9287 40.9364C32.9958 40.9661 33.0564 41.0088 33.107 41.062C33.1576 41.1151 33.1972 41.1777 33.2236 41.2462C33.25 41.3146 33.2627 41.3876 33.2609 41.461C33.259 41.5343 33.2428 41.6066 33.2131 41.6737C33.1833 41.7408 33.1407 41.8013 33.0875 41.8519C33.0344 41.9025 32.9718 41.9421 32.9033 41.9686C32.8349 41.995 32.7619 42.0076 32.6885 42.0058L32.6902 42.0045Z" fill="#225039"/>
<path d="M26.5231 44.8754C26.437 44.8753 26.3522 44.8553 26.2751 44.8169C20.7935 42.0936 20.3965 38.2083 20.3823 38.0442C20.3728 37.8986 20.4206 37.7551 20.5154 37.6443C20.6103 37.5335 20.7448 37.4642 20.8901 37.4512C21.0354 37.4383 21.18 37.4827 21.293 37.5749C21.406 37.6672 21.4784 37.8 21.4948 37.9449C21.4948 37.9643 21.5915 38.8181 22.2751 39.9533C22.9132 41.0138 24.2117 42.5443 26.7723 43.8162C26.8853 43.8722 26.9761 43.9647 27.0298 44.0789C27.0835 44.193 27.097 44.3219 27.0682 44.4447C27.0393 44.5675 26.9697 44.6769 26.8707 44.7551C26.7717 44.8333 26.6492 44.8757 26.5231 44.8754Z" fill="#225039"/>
<path d="M19.9885 45.8689C19.8979 45.8689 19.8086 45.8468 19.7285 45.8045C16.789 44.2546 15.4746 42.0469 14.8924 40.4678C14.2564 38.749 14.323 37.3938 14.3265 37.3371C14.3345 37.1889 14.4011 37.05 14.5115 36.9509C14.622 36.8519 14.7672 36.8007 14.9154 36.8088C15.0635 36.8168 15.2024 36.8833 15.3015 36.9938C15.4006 37.1042 15.4517 37.2495 15.4437 37.3976C15.4437 37.4191 15.3925 38.6218 15.9593 40.1266C16.7156 42.1354 18.1593 43.7132 20.2515 44.8162C20.3619 44.8744 20.4497 44.968 20.5007 45.0819C20.5518 45.1959 20.5632 45.3237 20.5331 45.4449C20.503 45.5661 20.4332 45.6737 20.3348 45.7505C20.2364 45.8274 20.1151 45.8691 19.9902 45.8689H19.9885Z" fill="#225039"/>
<path d="M12.1633 44.4602C12.0728 44.4603 11.9837 44.4385 11.9035 44.3965C11.8233 44.3545 11.7546 44.2936 11.7031 44.2192C9.88814 41.5938 9.5822 39.3121 9.64407 37.8619C9.71282 36.2562 10.2353 35.2743 10.2572 35.2335C10.3274 35.103 10.4466 35.0058 10.5885 34.9631C10.7304 34.9205 10.8834 34.936 11.0139 35.0062C11.1444 35.0764 11.2417 35.1956 11.2843 35.3375C11.3269 35.4794 11.3114 35.6324 11.2412 35.7629C11.2339 35.7762 10.8038 36.6089 10.7578 37.9741C10.6951 39.8153 11.3224 41.7029 12.6222 43.5841C12.6801 43.6679 12.714 43.7659 12.7202 43.8675C12.7264 43.9692 12.7048 44.0706 12.6575 44.1608C12.6102 44.251 12.5392 44.3266 12.4521 44.3794C12.365 44.4322 12.2652 44.4601 12.1633 44.4602Z" fill="#225039"/>
<path d="M19.7377 38.5924C17.989 38.5974 16.2488 38.3501 14.5707 37.8581C11.8774 37.0589 9.55927 35.6486 7.86758 33.7799L8.69559 33.0301C10.2502 34.7489 12.3909 36.0461 14.8887 36.7873C17.4711 37.5547 20.3204 37.6836 23.1292 37.1607C27.0824 36.4259 30.5628 34.4966 32.9317 31.7277C35.2705 28.9928 36.2403 25.7654 35.6581 22.6402C35.335 20.9017 34.5611 19.3136 33.3584 17.9197L34.204 17.1892C35.536 18.7361 36.3954 20.5 36.7564 22.4353C37.0825 24.1897 36.9738 25.9699 36.4332 27.7256C35.9146 29.4108 35.0221 31.0011 33.7808 32.4522C31.2456 35.4145 27.537 37.4761 23.3333 38.2573C22.1476 38.4789 20.944 38.5911 19.7377 38.5924Z" fill="#5B5B5B"/>
<path d="M17.8001 31.1807C17.422 29.2081 16.6782 27.9581 16.1209 27.256C15.5193 26.4998 15.0002 26.2007 14.9951 26.1977L15.5352 25.2197C15.6383 25.2765 18.0704 26.6519 18.8975 30.9706L17.8001 31.1807Z" fill="#B73F39"/>
<path d="M2.37016 35.1416C2.25088 35.1417 2.13472 35.1035 2.03868 35.0328C1.94263 34.9621 1.87175 34.8625 1.8364 34.7485C1.80105 34.6346 1.8031 34.5124 1.84224 34.3997C1.88138 34.287 1.95555 34.1899 2.05391 34.1224L17.2584 23.6616C17.3742 23.5819 17.5158 23.5487 17.655 23.5688C17.7062 23.5761 18.9157 23.7605 20.0432 24.729C21.9064 26.3317 22.0928 28.7758 21.9214 30.5444C21.9098 30.6643 21.8597 30.7773 21.7786 30.8664C21.6975 30.9555 21.5898 31.0161 21.4715 31.0389L8.12153 33.6248L2.51454 35.1223C2.46747 35.135 2.41893 35.1415 2.37016 35.1416ZM17.6924 24.7191L5.35477 33.2076L7.85341 32.5403C7.866 32.5368 7.87876 32.5339 7.89165 32.5317L20.8403 30.024C20.9533 28.0414 20.4407 26.5466 19.3136 25.5776C18.843 25.1756 18.2894 24.8825 17.6924 24.7191Z" fill="#B73F39"/>
<path d="M29.5329 18.2984C20.8558 18.2984 15.0954 13.3342 13.2744 11.5093C13.1459 11.3803 13.0452 11.2264 12.9787 11.0569C12.9121 10.8874 12.881 10.7061 12.8874 10.5241C12.8937 10.3422 12.9374 10.1635 13.0157 9.99907C13.0939 9.83468 13.2051 9.6881 13.3423 9.56842L14.6958 8.3872C14.9408 8.17499 15.2566 8.06249 15.5806 8.07196C15.9046 8.08143 16.2133 8.21218 16.4455 8.43834C16.9159 8.89829 17.4097 9.33371 17.9249 9.74287C20.9263 12.1371 27.1443 15.7439 35.0222 12.9965C35.3189 12.8934 35.6438 12.9082 35.9299 13.0379C36.216 13.1676 36.4413 13.4023 36.5592 13.6934L37.2785 15.4582C37.351 15.6362 37.3853 15.8275 37.3792 16.0196C37.3731 16.2117 37.3267 16.4004 37.243 16.5735C37.1593 16.7465 37.0402 16.9001 36.8934 17.0242C36.7466 17.1482 36.5753 17.2401 36.3907 17.2938C33.942 18.0041 31.6496 18.2984 29.5329 18.2984ZM15.5419 9.189C15.5002 9.18917 15.4601 9.20444 15.4289 9.23197L14.0771 10.4093C14.0551 10.4284 14.0373 10.4517 14.0247 10.4779C14.0122 10.5041 14.0051 10.5327 14.004 10.5617C14.003 10.5907 14.0078 10.6197 14.0184 10.6468C14.029 10.6739 14.045 10.6985 14.0655 10.7191C15.798 12.4559 21.2803 17.1782 29.5407 17.1786C31.5602 17.1786 33.743 16.8972 36.0801 16.2204C36.1141 16.2107 36.1458 16.1938 36.1728 16.1709C36.1998 16.148 36.2217 16.1196 36.2369 16.0877C36.2527 16.0554 36.2615 16.0203 36.2627 15.9844C36.2639 15.9486 36.2574 15.9129 36.2438 15.8797L35.5245 14.115C35.5144 14.0892 35.4949 14.0682 35.4699 14.0564C35.4449 14.0446 35.4163 14.0428 35.39 14.0514C33.2467 14.799 31.222 15.1054 29.3383 15.1058C23.8572 15.1058 19.5977 12.5053 17.2271 10.6164C16.6813 10.1832 16.1583 9.72211 15.66 9.23498C15.6445 9.21957 15.626 9.20739 15.6057 9.19913C15.5855 9.19087 15.5638 9.1867 15.5419 9.18685V9.189Z" fill="#0A1D38"/>
<path d="M14.7143 31.754C14.3427 29.1819 12.657 27.7094 12.6398 27.6947L13.3638 26.8418C13.4463 26.9114 15.3859 28.5863 15.8204 31.5924L14.7143 31.754Z" fill="#B73F39"/>
<path d="M12.1632 32.8322C12.1538 32.8322 12.1443 32.8322 12.1349 32.8322C11.987 32.8248 11.848 32.759 11.7486 32.6493C11.6492 32.5396 11.5974 32.3948 11.6047 32.2469C11.7129 30.0602 10.4179 29.4771 10.3629 29.4539L10.3693 29.4565L10.7852 28.418C10.8712 28.4519 12.8709 29.2877 12.7218 32.3011C12.7148 32.4444 12.6528 32.5795 12.5488 32.6784C12.4448 32.7773 12.3067 32.8323 12.1632 32.8322Z" fill="#B73F39"/>
<path d="M9.76475 33.2965C9.7287 33.2964 9.69273 33.2929 9.65733 33.2861C9.58533 33.2721 9.5168 33.244 9.45565 33.2035C9.3945 33.1629 9.34194 33.1108 9.30096 33.0499C9.25999 32.9891 9.23139 32.9207 9.21682 32.8488C9.20225 32.7769 9.20199 32.7029 9.21604 32.6309C9.46096 31.3736 8.44003 30.9087 8.32315 30.8601H8.32702L8.73995 29.822C9.43389 30.0979 10.6555 31.0844 10.3126 32.8436C10.2881 32.9709 10.22 33.0858 10.12 33.1684C10.02 33.251 9.89445 33.2963 9.76475 33.2965Z" fill="#B73F39"/>
<path d="M7.22549 33.8448C7.17179 33.8449 7.11837 33.8371 7.06694 33.8216C6.92519 33.7796 6.80588 33.6831 6.73517 33.5532C6.66445 33.4234 6.64809 33.2708 6.68967 33.129C6.84865 32.5927 6.34162 32.3082 6.23849 32.2567L6.24322 32.2588L6.72276 31.2499C7.23495 31.4931 8.11065 32.2653 7.76089 33.4461C7.72647 33.5613 7.65577 33.6624 7.55931 33.7342C7.46285 33.8061 7.34577 33.8449 7.22549 33.8448Z" fill="#B73F39"/>
<path d="M27.3636 24.9584C27.3566 24.9588 27.3496 24.9588 27.3426 24.9584C27.2859 24.953 27.2337 24.9252 27.1974 24.8813C27.1612 24.8374 27.1438 24.7809 27.1492 24.7242C27.2351 23.8219 26.7887 23.4244 26.784 23.4206C26.7619 23.4024 26.7436 23.38 26.7303 23.3546C26.717 23.3293 26.7088 23.3015 26.7064 23.273C26.704 23.2444 26.7073 23.2157 26.7161 23.1885C26.7249 23.1612 26.7391 23.136 26.7578 23.1143C26.7765 23.0927 26.7993 23.0749 26.825 23.0622C26.8506 23.0495 26.8786 23.042 26.9072 23.0402C26.9357 23.0385 26.9644 23.0424 26.9914 23.0519C27.0184 23.0613 27.0433 23.0761 27.0646 23.0953C27.0903 23.1172 27.6859 23.6449 27.5772 24.7655C27.5718 24.8183 27.5469 24.8673 27.5075 24.903C27.468 24.9386 27.4168 24.9584 27.3636 24.9584Z" fill="white"/>
<path d="M12.0506 24.2151C12.0149 24.2151 11.9798 24.2062 11.9485 24.1892C11.9171 24.1722 11.8905 24.1477 11.8709 24.1179C11.8514 24.088 11.8396 24.0538 11.8366 24.0183C11.8336 23.9827 11.8395 23.947 11.8538 23.9143C12.1421 23.2539 11.8998 22.8031 11.8895 22.7842C11.8754 22.7597 11.8662 22.7327 11.8626 22.7047C11.8589 22.6767 11.8608 22.6482 11.8681 22.6209C11.8755 22.5936 11.8881 22.568 11.9054 22.5456C11.9226 22.5232 11.944 22.5044 11.9685 22.4903C11.993 22.4762 12.0201 22.4671 12.0481 22.4634C12.0761 22.4597 12.1046 22.4616 12.1319 22.469C12.1592 22.4763 12.1847 22.489 12.2071 22.5062C12.2295 22.5234 12.2483 22.5449 12.2624 22.5694C12.2775 22.5952 12.6268 23.2165 12.2478 24.0849C12.2313 24.1235 12.2038 24.1564 12.1687 24.1796C12.1337 24.2027 12.0926 24.2151 12.0506 24.2151Z" fill="white"/>
</svg>
