<svg width="48" height="48" viewBox="0 0 48 48" fill="none" xmlns="http://www.w3.org/2000/svg">
<path d="M25.5934 13.8789L24.5956 11.8594C24.5875 11.8435 24.5789 11.8276 24.5703 11.8121C24.5533 11.7835 24.5343 11.7561 24.5136 11.73C24.5037 11.7176 24.4934 11.7056 24.4826 11.6944C24.462 11.672 24.4398 11.6512 24.416 11.6321C24.2976 11.5387 24.1509 11.4882 24.0001 11.489C23.9247 11.4889 23.8498 11.5013 23.7784 11.5255C23.7502 11.5353 23.7226 11.547 23.6959 11.5603C23.6561 11.5803 23.6185 11.6043 23.5837 11.6321C23.5599 11.6513 23.5375 11.6721 23.5167 11.6944C23.5064 11.7056 23.4961 11.718 23.4862 11.73C23.4543 11.7699 23.4268 11.8132 23.4041 11.859L22.4068 13.8785L21.9195 13.6688C20.8074 13.19 19.8945 12.3422 19.3349 11.2684C18.7752 10.1947 18.6031 8.9608 18.8475 7.7749C19.092 6.58901 19.738 5.52374 20.6766 4.75884C21.6153 3.99395 22.789 3.57626 23.9999 3.57626C25.2107 3.57626 26.3845 3.99395 27.3231 4.75884C28.2617 5.52374 28.9078 6.58901 29.1522 7.7749C29.3967 8.9608 29.2245 10.1947 28.6649 11.2684C28.1052 12.3422 27.1923 13.19 26.0802 13.6688L25.5934 13.8789ZM24.0001 10.3701C24.406 10.3693 24.8 10.5067 25.1173 10.7598C25.1829 10.8126 25.2447 10.87 25.302 10.9317C25.3313 10.9631 25.3596 10.9957 25.388 11.0292C25.4427 11.0971 25.4924 11.1689 25.5367 11.2441C25.559 11.2819 25.5796 11.3218 25.6002 11.3618L26.1133 12.4017C26.8949 11.939 27.5029 11.2324 27.8437 10.3904C28.1845 9.54851 28.2391 8.61792 27.9993 7.74186C27.7595 6.86581 27.2385 6.09282 26.5164 5.54184C25.7943 4.99086 24.9112 4.69241 24.0029 4.69241C23.0946 4.69241 22.2115 4.99086 21.4894 5.54184C20.7673 6.09282 20.2463 6.86581 20.0064 7.74186C19.7666 8.61792 19.8213 9.54851 20.1621 10.3904C20.5028 11.2324 21.1108 11.939 21.8925 12.4017L22.4055 11.3618C22.4639 11.2431 22.5351 11.1312 22.6178 11.0279C22.6444 10.9949 22.6728 10.9622 22.7037 10.9308C22.8456 10.7783 23.0135 10.6523 23.1996 10.5587C23.2716 10.523 23.3458 10.4918 23.4217 10.4655C23.608 10.4021 23.8033 10.3696 24.0001 10.3692V10.3701Z" fill="black"/>
<path d="M40.8832 24.6726C41.6089 23.9649 41.2084 22.7326 40.2051 22.5865L30.4018 21.1621C30.2056 21.1335 30.0193 21.0577 29.8588 20.9411C29.6984 20.8246 29.5688 20.6708 29.481 20.493L25.8595 13.1553L25.0968 11.6084C25.0827 11.58 25.0676 11.5525 25.0539 11.5259C25.0233 11.4738 24.989 11.4239 24.9512 11.3768C24.9327 11.3536 24.9138 11.3312 24.8936 11.3102C24.8545 11.2681 24.8124 11.2289 24.7677 11.1929C24.5502 11.0195 24.2801 10.9255 24.002 10.9265C23.8095 10.9253 23.6195 10.9695 23.4473 11.0554C23.3206 11.1189 23.2063 11.2046 23.11 11.3085C23.0902 11.3295 23.0709 11.3514 23.0524 11.3751C22.9951 11.4467 22.9456 11.5244 22.905 11.6067L18.5196 20.493C18.4319 20.6709 18.3022 20.8247 18.1418 20.9412C17.9814 21.0578 17.795 21.1336 17.5988 21.1621L7.79503 22.5865C6.79171 22.7326 6.39124 23.9649 7.11699 24.6726L14.2111 31.5872C14.3532 31.7256 14.4594 31.8965 14.5207 32.0851C14.5819 32.2738 14.5963 32.4745 14.5626 32.67L12.8868 42.4338C12.715 43.4328 13.7638 44.1955 14.661 43.7228L23.4309 39.1131C23.6065 39.0209 23.8018 38.9726 24.0001 38.9726C24.1984 38.9726 24.3937 39.0209 24.5692 39.1131L33.3378 43.7228C34.235 44.1955 35.2835 43.4328 35.112 42.4338L33.4362 32.67C33.4025 32.4745 33.4169 32.2738 33.4782 32.0851C33.5394 31.8965 33.6457 31.7256 33.7877 31.5872L40.8832 24.6726Z" fill="#F3B427"/>
<path d="M33.9083 44.4237C33.6188 44.4235 33.3337 44.3527 33.0778 44.2174L24.3091 39.6073C24.2138 39.5572 24.1077 39.531 24 39.531C23.8922 39.531 23.7861 39.5572 23.6908 39.6073L14.9222 44.2174C14.6279 44.3721 14.2963 44.4413 13.9648 44.4173C13.6332 44.3933 13.3151 44.277 13.0462 44.0816C12.7773 43.8862 12.5684 43.6195 12.4432 43.3116C12.318 43.0037 12.2814 42.6669 12.3376 42.3393L14.0134 32.5755C14.0316 32.4693 14.0237 32.3603 13.9904 32.2578C13.9571 32.1553 13.8993 32.0625 13.8222 31.9873L6.72715 25.0727C6.48907 24.8406 6.32069 24.5466 6.24106 24.2238C6.16143 23.9009 6.17372 23.5623 6.27655 23.2461C6.37939 22.9299 6.56865 22.6488 6.82293 22.4346C7.07722 22.2204 7.38637 22.0816 7.71543 22.034L17.5188 20.6096C17.6253 20.594 17.7265 20.5528 17.8136 20.4895C17.9008 20.4261 17.9712 20.3426 18.0189 20.2461L22.4017 11.3623C22.4601 11.2436 22.5313 11.1316 22.614 11.0284C22.6406 10.9953 22.669 10.9627 22.6999 10.9313C22.8418 10.7788 23.0097 10.6528 23.1958 10.5592C23.2678 10.5234 23.342 10.4923 23.4179 10.466C23.7031 10.3685 24.0081 10.3442 24.3051 10.3954C24.602 10.4466 24.8813 10.5716 25.1174 10.759C25.183 10.8118 25.2448 10.8692 25.3021 10.9309C25.3313 10.9622 25.3597 10.9949 25.3881 11.0284C25.4428 11.0963 25.4925 11.1681 25.5367 11.2433C25.5591 11.2811 25.5797 11.321 25.6003 11.361L29.9831 20.2448C30.0309 20.3413 30.1013 20.4249 30.1884 20.4882C30.2755 20.5515 30.3767 20.5927 30.4833 20.6083L40.2866 22.0327C40.6157 22.0803 40.9248 22.2191 41.1791 22.4333C41.4334 22.6475 41.6227 22.9286 41.7255 23.2448C41.8283 23.561 41.8406 23.8997 41.761 24.2225C41.6814 24.5453 41.513 24.8394 41.2749 25.0714L34.179 31.9873C34.1019 32.0625 34.0443 32.1554 34.011 32.2578C33.9778 32.3603 33.97 32.4693 33.9883 32.5755L35.664 42.3393C35.7076 42.5949 35.695 42.8569 35.627 43.1071C35.559 43.3574 35.4373 43.5898 35.2703 43.7882C35.1034 43.9866 34.8952 44.1462 34.6603 44.256C34.4254 44.3657 34.1694 44.423 33.9101 44.4237H33.9083ZM24.0002 38.4141C24.289 38.414 24.5735 38.4842 24.829 38.6186L33.5977 43.2266C33.7073 43.2844 33.831 43.3103 33.9547 43.3015C34.0783 43.2926 34.197 43.2493 34.2973 43.1765C34.3977 43.1036 34.4756 43.0041 34.5222 42.8893C34.5689 42.7744 34.5825 42.6488 34.5615 42.5266L32.8857 32.7624C32.8369 32.4778 32.858 32.1855 32.9473 31.9109C33.0366 31.6362 33.1914 31.3874 33.3983 31.1859L40.4929 24.2727L40.883 24.6727L40.4929 24.2727C40.5816 24.1861 40.6444 24.0765 40.6741 23.9562C40.7038 23.8358 40.6993 23.7095 40.6609 23.5917C40.6226 23.4738 40.5521 23.369 40.4573 23.2891C40.3625 23.2092 40.2473 23.1574 40.1246 23.1396L30.3213 21.7152C30.0355 21.6735 29.7641 21.5631 29.5304 21.3933C29.2967 21.2236 29.1078 20.9996 28.9798 20.7406L24.597 11.8569C24.5888 11.841 24.5802 11.8251 24.5717 11.8096C24.5546 11.781 24.5357 11.7535 24.5149 11.7275C24.5051 11.7151 24.4947 11.703 24.484 11.6919C24.4634 11.6694 24.4411 11.6486 24.4174 11.6295C24.2989 11.5362 24.1523 11.4857 24.0015 11.4865C23.9261 11.4864 23.8511 11.4987 23.7797 11.523C23.7515 11.5328 23.724 11.5444 23.6972 11.5578C23.6575 11.5777 23.6199 11.6018 23.5851 11.6295C23.5613 11.6487 23.5389 11.6695 23.5181 11.6919C23.5077 11.703 23.4974 11.7155 23.4876 11.7275C23.4556 11.7674 23.4281 11.8106 23.4055 11.8564L19.0227 20.7402C18.8947 20.9992 18.7058 21.2232 18.4721 21.3929C18.2384 21.5627 17.967 21.6731 17.6812 21.7147L7.87527 23.1396C7.7526 23.1574 7.63736 23.2092 7.54258 23.2891C7.4478 23.369 7.37727 23.4738 7.33896 23.5917C7.30065 23.7095 7.29608 23.8358 7.32578 23.9562C7.35549 24.0765 7.41827 24.1861 7.50703 24.2727L14.6007 31.1876C14.8076 31.3891 14.9624 31.6379 15.0517 31.9126C15.141 32.1872 15.1622 32.4795 15.1134 32.7641L13.4376 42.5283C13.4168 42.6505 13.4306 42.776 13.4775 42.8907C13.5244 43.0055 13.6024 43.1048 13.7028 43.1774C13.8032 43.2501 13.9219 43.2932 14.0455 43.3019C14.1691 43.3106 14.2927 43.2845 14.4022 43.2266L23.1709 38.6186C23.4266 38.4841 23.7112 38.4139 24.0002 38.4141Z" fill="black"/>
<path d="M23.7785 11.5229L23.418 10.4659C23.6059 10.4018 23.803 10.3691 24.0015 10.3692V11.4864C23.9257 11.4862 23.8503 11.4985 23.7785 11.5229Z" fill="black"/>
<path d="M25.5972 11.3613L24.5954 11.8558L25.3582 13.4012L26.36 12.9068L25.5972 11.3613Z" fill="black"/>
<path d="M23.696 11.5585L23.1945 10.5591C23.2665 10.5233 23.3407 10.4922 23.4167 10.4659L23.778 11.5229C23.75 11.5331 23.7226 11.545 23.696 11.5585Z" fill="black"/>
<path d="M27.1102 21.7292C27.0004 21.7296 26.8929 21.6975 26.8012 21.637C26.7095 21.5766 26.6376 21.4904 26.5946 21.3894L23.869 14.9832C23.8388 14.9154 23.8224 14.8424 23.8207 14.7682C23.8191 14.6941 23.8322 14.6203 23.8593 14.5513C23.8864 14.4823 23.927 14.4193 23.9787 14.3662C24.0304 14.313 24.0922 14.2706 24.1604 14.2416C24.2287 14.2126 24.302 14.1974 24.3762 14.197C24.4504 14.1966 24.5239 14.211 24.5924 14.2393C24.661 14.2676 24.7232 14.3093 24.7755 14.3619C24.8277 14.4145 24.869 14.477 24.8969 14.5457L27.6237 20.9515C27.66 21.0366 27.6746 21.1294 27.6662 21.2215C27.6577 21.3136 27.6266 21.4022 27.5755 21.4793C27.5243 21.5564 27.4549 21.6196 27.3733 21.6632C27.2917 21.7069 27.2006 21.7295 27.1081 21.7292H27.1102Z" fill="#F3D49E"/>
<path d="M7.50228 23.5039L18.1087 30.0059C18.1654 30.0405 18.21 30.0917 18.2366 30.1526C18.2631 30.2135 18.2702 30.2811 18.2569 30.3462L16.4999 38.9902C16.4893 39.0413 16.4911 39.0942 16.5053 39.1444C16.5194 39.1946 16.5455 39.2406 16.5813 39.2786C16.6171 39.3166 16.6615 39.3453 16.7108 39.3625C16.76 39.3796 16.8127 39.3846 16.8643 39.377L22.3257 38.5739C22.6789 38.5219 22.8439 38.9954 22.5349 39.1754L14.7945 43.6463C14.7533 43.6703 14.7072 43.6849 14.6596 43.6889C14.6121 43.6929 14.5642 43.6863 14.5195 43.6695L13.1978 43.1763C13.1281 43.1502 13.0695 43.101 13.0318 43.0368C12.9942 42.9726 12.9798 42.8975 12.9911 42.8239L14.538 32.8251C14.5455 32.7767 14.5418 32.7272 14.5274 32.6803C14.513 32.6335 14.4881 32.5906 14.4546 32.5548L7.18861 24.75C7.14146 24.7003 7.11135 24.637 7.10267 24.5691L7.01029 23.8201C7.0024 23.7593 7.01193 23.6976 7.03776 23.642C7.06359 23.5865 7.10466 23.5394 7.1562 23.5063C7.20774 23.4731 7.26763 23.4553 7.32889 23.4549C7.39016 23.4545 7.45029 23.4715 7.50228 23.5039Z" fill="#F3970D"/>
<path d="M23.1237 11.3261L23.0923 11.2969C23.1324 11.2541 23.1755 11.2142 23.2213 11.1775L23.2483 11.211C23.2041 11.2464 23.1625 11.2849 23.1237 11.3261Z" fill="#B73F39"/>
<path d="M24.8763 11.3261C24.8378 11.2849 24.7965 11.2464 24.7526 11.211L24.7796 11.1775C24.8254 11.2142 24.8684 11.2541 24.9085 11.2969L24.8763 11.3261Z" fill="#B73F39"/>
<path d="M25.0336 11.538C25.0036 11.4867 24.9699 11.4378 24.9326 11.3915L24.9662 11.3644C25.0046 11.4124 25.0395 11.4631 25.0706 11.5161L25.0336 11.538Z" fill="#B73F39"/>
<path d="M24.7526 11.2109C24.5388 11.0408 24.2734 10.9485 24.0002 10.9493V10.9063C24.2833 10.9055 24.5582 11.0011 24.7796 11.1774L24.7526 11.2109Z" fill="#B73F39"/>
<path d="M25.5934 13.8789L24.5956 11.8594C24.5875 11.8435 24.5789 11.8276 24.5703 11.8121C24.5533 11.7835 24.5343 11.7561 24.5136 11.73C24.5037 11.7176 24.4934 11.7056 24.4826 11.6944C24.462 11.672 24.4398 11.6512 24.416 11.6321C24.2976 11.5387 24.1509 11.4882 24.0001 11.489C23.9247 11.4889 23.8498 11.5013 23.7784 11.5255C23.7502 11.5353 23.7226 11.547 23.6959 11.5603C23.6561 11.5803 23.6185 11.6043 23.5837 11.6321C23.5599 11.6513 23.5375 11.6721 23.5167 11.6944C23.5064 11.7056 23.4961 11.718 23.4862 11.73C23.4543 11.7699 23.4268 11.8132 23.4041 11.859L22.4068 13.8785L21.9195 13.6688C20.8074 13.19 19.8945 12.3422 19.3349 11.2684C18.7752 10.1947 18.6031 8.9608 18.8475 7.7749C19.092 6.58901 19.738 5.52374 20.6766 4.75884C21.6153 3.99395 22.789 3.57626 23.9999 3.57626C25.2107 3.57626 26.3845 3.99395 27.3231 4.75884C28.2617 5.52374 28.9078 6.58901 29.1522 7.7749C29.3967 8.9608 29.2245 10.1947 28.6649 11.2684C28.1052 12.3422 27.1923 13.19 26.0802 13.6688L25.5934 13.8789ZM24.0001 10.3701C24.406 10.3693 24.8 10.5067 25.1173 10.7598C25.1829 10.8126 25.2447 10.87 25.302 10.9317C25.3313 10.9631 25.3596 10.9957 25.388 11.0292C25.4427 11.0971 25.4924 11.1689 25.5367 11.2441C25.559 11.2819 25.5796 11.3218 25.6002 11.3618L26.1133 12.4017C26.8949 11.939 27.5029 11.2324 27.8437 10.3904C28.1845 9.54851 28.2391 8.61792 27.9993 7.74186C27.7595 6.86581 27.2385 6.09282 26.5164 5.54184C25.7943 4.99086 24.9112 4.69241 24.0029 4.69241C23.0946 4.69241 22.2115 4.99086 21.4894 5.54184C20.7673 6.09282 20.2463 6.86581 20.0064 7.74186C19.7666 8.61792 19.8213 9.54851 20.1621 10.3904C20.5028 11.2324 21.1108 11.939 21.8925 12.4017L22.4055 11.3618C22.4639 11.2431 22.5351 11.1312 22.6178 11.0279C22.6444 10.9949 22.6728 10.9622 22.7037 10.9308C22.8456 10.7783 23.0135 10.6523 23.1996 10.5587C23.2716 10.523 23.3458 10.4918 23.4217 10.4655C23.608 10.4021 23.8033 10.3696 24.0001 10.3692V10.3701Z" fill="#B73F39"/>
<path d="M33.9083 44.4237C33.6188 44.4235 33.3337 44.3527 33.0778 44.2174L24.3091 39.6073C24.2138 39.5572 24.1077 39.531 24 39.531C23.8922 39.531 23.7861 39.5572 23.6908 39.6073L14.9222 44.2174C14.6279 44.3721 14.2963 44.4413 13.9648 44.4173C13.6332 44.3933 13.3151 44.277 13.0462 44.0816C12.7773 43.8862 12.5684 43.6195 12.4432 43.3116C12.318 43.0037 12.2814 42.6669 12.3376 42.3393L14.0134 32.5755C14.0316 32.4693 14.0237 32.3603 13.9904 32.2578C13.9571 32.1553 13.8993 32.0625 13.8222 31.9873L6.72715 25.0727C6.48907 24.8406 6.32069 24.5466 6.24106 24.2238C6.16143 23.9009 6.17372 23.5623 6.27655 23.2461C6.37939 22.9299 6.56865 22.6488 6.82293 22.4346C7.07722 22.2204 7.38637 22.0816 7.71543 22.034L17.5188 20.6096C17.6253 20.594 17.7265 20.5528 17.8136 20.4895C17.9008 20.4261 17.9712 20.3426 18.0189 20.2461L22.4017 11.3623C22.4601 11.2436 22.5313 11.1316 22.614 11.0284C22.6406 10.9953 22.669 10.9627 22.6999 10.9313C22.8418 10.7788 23.0097 10.6528 23.1958 10.5592C23.2678 10.5234 23.342 10.4923 23.4179 10.466C23.7031 10.3685 24.0081 10.3442 24.3051 10.3954C24.602 10.4466 24.8813 10.5716 25.1174 10.759C25.183 10.8118 25.2448 10.8692 25.3021 10.9309C25.3313 10.9622 25.3597 10.9949 25.3881 11.0284C25.4428 11.0963 25.4925 11.1681 25.5367 11.2433C25.5591 11.2811 25.5797 11.321 25.6003 11.361L29.9831 20.2448C30.0309 20.3413 30.1013 20.4249 30.1884 20.4882C30.2755 20.5515 30.3767 20.5927 30.4833 20.6083L40.2866 22.0327C40.6157 22.0803 40.9248 22.2191 41.1791 22.4333C41.4334 22.6475 41.6227 22.9286 41.7255 23.2448C41.8283 23.561 41.8406 23.8997 41.761 24.2225C41.6814 24.5453 41.513 24.8394 41.2749 25.0714L34.179 31.9873C34.1019 32.0625 34.0443 32.1554 34.011 32.2578C33.9778 32.3603 33.97 32.4693 33.9883 32.5755L35.664 42.3393C35.7076 42.5949 35.695 42.8569 35.627 43.1071C35.559 43.3574 35.4373 43.5898 35.2703 43.7882C35.1034 43.9866 34.8952 44.1462 34.6603 44.256C34.4254 44.3657 34.1694 44.423 33.9101 44.4237H33.9083ZM24.0002 38.4141C24.289 38.414 24.5735 38.4842 24.829 38.6186L33.5977 43.2266C33.7073 43.2844 33.831 43.3103 33.9547 43.3015C34.0783 43.2926 34.197 43.2493 34.2973 43.1765C34.3977 43.1036 34.4756 43.0041 34.5222 42.8893C34.5689 42.7744 34.5825 42.6488 34.5615 42.5266L32.8857 32.7624C32.8369 32.4778 32.858 32.1855 32.9473 31.9109C33.0366 31.6362 33.1914 31.3874 33.3983 31.1859L40.4929 24.2727L40.883 24.6727L40.4929 24.2727C40.5816 24.1861 40.6444 24.0765 40.6741 23.9562C40.7038 23.8358 40.6993 23.7095 40.6609 23.5917C40.6226 23.4738 40.5521 23.369 40.4573 23.2891C40.3625 23.2092 40.2473 23.1574 40.1246 23.1396L30.3213 21.7152C30.0355 21.6735 29.7641 21.5631 29.5304 21.3933C29.2967 21.2236 29.1078 20.9996 28.9798 20.7406L24.597 11.8569C24.5888 11.841 24.5802 11.8251 24.5717 11.8096C24.5546 11.781 24.5357 11.7535 24.5149 11.7275C24.5051 11.7151 24.4947 11.703 24.484 11.6919C24.4634 11.6694 24.4411 11.6486 24.4174 11.6295C24.2989 11.5362 24.1523 11.4857 24.0015 11.4865C23.9261 11.4864 23.8511 11.4987 23.7797 11.523C23.7515 11.5328 23.724 11.5444 23.6972 11.5578C23.6575 11.5777 23.6199 11.6018 23.5851 11.6295C23.5613 11.6487 23.5389 11.6695 23.5181 11.6919C23.5077 11.703 23.4974 11.7155 23.4876 11.7275C23.4556 11.7674 23.4281 11.8106 23.4055 11.8564L19.0227 20.7402C18.8947 20.9992 18.7058 21.2232 18.4721 21.3929C18.2384 21.5627 17.967 21.6731 17.6812 21.7147L7.87527 23.1396C7.7526 23.1574 7.63736 23.2092 7.54258 23.2891C7.4478 23.369 7.37727 23.4738 7.33896 23.5917C7.30065 23.7095 7.29608 23.8358 7.32578 23.9562C7.35549 24.0765 7.41827 24.1861 7.50703 24.2727L14.6007 31.1876C14.8076 31.3891 14.9624 31.6379 15.0517 31.9126C15.141 32.1872 15.1622 32.4795 15.1134 32.7641L13.4376 42.5283C13.4168 42.6505 13.4306 42.776 13.4775 42.8907C13.5244 43.0055 13.6024 43.1048 13.7028 43.1774C13.8032 43.2501 13.9219 43.2932 14.0455 43.3019C14.1691 43.3106 14.2927 43.2845 14.4022 43.2266L23.1709 38.6186C23.4266 38.4841 23.7112 38.4139 24.0002 38.4141Z" fill="#B73F39"/>
<path d="M23.7785 11.5229L23.418 10.4659C23.6059 10.4018 23.803 10.3691 24.0015 10.3692V11.4864C23.9257 11.4862 23.8503 11.4985 23.7785 11.5229Z" fill="#B73F39"/>
<path d="M23.696 11.5585L23.1945 10.5591C23.2665 10.5233 23.3407 10.4922 23.4167 10.4659L23.778 11.5229C23.75 11.5331 23.7226 11.545 23.696 11.5585Z" fill="#B73F39"/>
</svg>
