<svg width="48" height="48" viewBox="0 0 48 48" fill="none" xmlns="http://www.w3.org/2000/svg">
<path d="M24.0001 44.956C32.3406 44.956 39.1019 38.1947 39.1019 29.8542C39.1019 21.5137 32.3406 14.7524 24.0001 14.7524C15.6596 14.7524 8.8983 21.5137 8.8983 29.8542C8.8983 38.1947 15.6596 44.956 24.0001 44.956Z" fill="#B71A5D"/>
<path d="M23.888 28.7608L23.854 27.6436C26.7046 27.5577 30.873 27.1482 34.5429 25.701C36.7343 24.8378 37.717 24.002 37.7265 23.9934L38.46 24.8361C38.417 24.8743 37.3664 25.7775 35.0298 26.7095C32.914 27.5547 29.2616 28.5958 23.888 28.7608Z" fill="black"/>
<path d="M23.8716 28.7611H23.8553C18.7922 28.6172 15.1704 27.6551 13.0233 26.874C10.6656 26.0146 9.51829 25.1879 9.4706 25.1552L10.1289 24.2529C10.1396 24.261 11.2327 25.0431 13.4637 25.8483C15.5227 26.5912 18.9994 27.5056 23.8703 27.6465C29.0266 27.4863 32.5195 26.5023 34.5429 25.7043C36.7343 24.8411 37.717 24.0054 37.7264 23.9968L38.4599 24.8359C38.417 24.8742 37.3664 25.7774 35.0297 26.7094C32.9139 27.5546 29.2616 28.5957 23.8879 28.7607L23.8716 28.7611Z" fill="#F3970D"/>
<path d="M23.8682 36.5729H23.8523C18.5731 36.429 14.7966 35.4686 12.5579 34.6887C10.1005 33.8324 8.90558 33.0065 8.8566 32.97L9.49597 32.0547C9.50629 32.0616 10.6497 32.8454 12.9829 33.6523C15.1361 34.3965 18.7716 35.3131 23.8656 35.454C29.2573 35.2937 32.911 34.3076 35.0276 33.5079C37.3174 32.643 38.3474 31.8051 38.3573 31.7969L39.0727 32.6563C39.0271 32.6941 37.9344 33.5947 35.5003 34.525C33.2925 35.3681 29.4846 36.4079 23.8828 36.5725L23.8682 36.5729Z" fill="#F3970D"/>
<path d="M18.1809 35.8188C18.1601 35.8187 18.1393 35.8175 18.1186 35.8153C18.0274 35.805 17.9401 35.7724 17.8644 35.7203C17.7888 35.6682 17.7272 35.5983 17.685 35.5167L13.7697 27.9503L9.30097 32.5591L8.49918 31.781L13.5085 26.6153C13.5702 26.5517 13.6461 26.5036 13.73 26.4752C13.8139 26.4467 13.9033 26.4386 13.991 26.4515C14.0786 26.4645 14.1619 26.4981 14.234 26.5495C14.3062 26.601 14.365 26.6689 14.4057 26.7476L18.2931 34.2616L23.4411 28.166C23.4933 28.1042 23.5583 28.0545 23.6316 28.0203C23.7049 27.9861 23.7848 27.9682 23.8657 27.9679H23.8678C23.9484 27.9679 24.028 27.9852 24.1012 28.0188C24.1744 28.0524 24.2394 28.1015 24.2919 28.1626L29.5229 34.2641L33.3742 26.7493C33.4141 26.6715 33.4717 26.604 33.5424 26.5525C33.6131 26.501 33.6949 26.4668 33.7812 26.4526C33.8675 26.4385 33.956 26.4449 34.0394 26.4712C34.1228 26.4975 34.1989 26.543 34.2615 26.6041L39.0311 31.2623L38.2503 32.062L34.0213 27.9327L30.1378 35.515C30.0959 35.5961 30.0347 35.6658 29.9596 35.7178C29.8846 35.7698 29.7979 35.8026 29.7071 35.8133C29.6164 35.8241 29.5245 35.8124 29.4393 35.7793C29.3542 35.7463 29.2784 35.6928 29.2187 35.6237L23.8708 29.3906L18.608 35.6211C18.5555 35.6831 18.4901 35.733 18.4163 35.7671C18.3425 35.8012 18.2622 35.8189 18.1809 35.8188Z" fill="#F3970D"/>
<path d="M18.4228 13.2975C18.4228 13.2975 24.1252 11.9225 29.3949 13.2975H18.4228Z" fill="#F3970D"/>
<path d="M19.1579 13.1463L19.6804 15.3794L28.205 15.3459L28.7671 13.1463" fill="#F3970D"/>
<path d="M24.135 13.1055C23.1347 13.1055 22.213 12.519 21.5401 11.4538C20.9175 10.4685 20.5746 9.16958 20.5746 7.79672C20.5746 6.42386 20.9184 5.12448 21.5401 4.13921C22.2147 3.07229 23.1347 2.48576 24.135 2.48576C25.1353 2.48576 26.057 3.07229 26.7299 4.13706C27.3525 5.12234 27.6954 6.42129 27.6954 7.79457C27.6954 9.16786 27.3516 10.4664 26.7299 11.4517C26.057 12.5169 25.1366 13.1055 24.135 13.1055ZM24.135 3.6051C22.8107 3.6051 21.6918 5.52452 21.6918 7.79672C21.6918 10.0689 22.809 11.9883 24.135 11.9883C25.461 11.9883 26.5782 10.0685 26.5782 7.79672C26.5782 5.52495 25.4593 3.60296 24.135 3.60296V3.6051Z" fill="black"/>
<path opacity="0.5" d="M10.2451 23.6113C10.2451 23.6113 14.8066 43.866 34.461 40.7456C34.461 40.7456 23.348 51.1871 11.7687 38.7136C11.7687 38.7149 6.75084 32.1428 10.2451 23.6113Z" fill="#A81A3F"/>
<path d="M24.135 45.5142C20.2652 45.509 16.5353 44.0668 13.6688 41.4672C10.8022 38.8676 9.00333 35.296 8.6211 31.4452C8.23887 27.5944 9.30052 23.7388 11.6001 20.6264C13.8997 17.5141 17.2734 15.3667 21.0666 14.601C24.8598 13.8352 28.8023 14.5056 32.1292 16.4821C35.4561 18.4587 37.9304 21.6004 39.072 25.2979C40.2136 28.9955 39.9412 32.9852 38.3076 36.4933C36.674 40.0013 33.7957 42.7776 30.231 44.2836C28.3025 45.0997 26.2291 45.5183 24.135 45.5142ZM24.135 15.3111C20.7704 15.311 17.5099 16.4775 14.909 18.6119C12.3081 20.7462 10.5277 23.7164 9.87127 27.0163C9.21479 30.3162 9.72283 33.7417 11.3088 36.709C12.8948 39.6763 15.4606 42.0019 18.569 43.2895C21.6775 44.5771 25.1362 44.7471 28.3559 43.7704C31.5756 42.7938 34.3571 40.731 36.2264 37.9334C38.0956 35.1359 38.9371 31.7768 38.6073 28.4284C38.2775 25.0801 36.797 21.9497 34.4179 19.5705C33.0706 18.216 31.4681 17.142 29.7031 16.4109C27.938 15.6798 26.0455 15.3059 24.135 15.3111Z" fill="#861A3F"/>
<path d="M29.5306 13.8562C29.4833 13.8555 29.4362 13.8487 29.3906 13.836C24.3151 12.5104 18.7459 13.8253 18.6913 13.8386C18.6195 13.8573 18.5447 13.8615 18.4713 13.851C18.3978 13.8404 18.3272 13.8154 18.2635 13.7772C18.1999 13.7391 18.1445 13.6887 18.1005 13.6289C18.0566 13.5692 18.025 13.5012 18.0075 13.4291C17.9901 13.357 17.9873 13.2821 17.9991 13.2088C18.011 13.1356 18.0373 13.0654 18.0765 13.0025C18.1158 12.9395 18.1672 12.885 18.2277 12.8421C18.2883 12.7993 18.3568 12.7689 18.4292 12.7528C18.4889 12.7381 19.9207 12.3965 22.024 12.223C23.9692 12.0622 26.8752 12.0244 29.6724 12.7553C29.8039 12.7896 29.9184 12.8706 29.9944 12.9832C30.0705 13.0957 30.1029 13.2322 30.0856 13.3669C30.0684 13.5017 30.0026 13.6255 29.9006 13.7153C29.7986 13.805 29.6674 13.8545 29.5315 13.8545L29.5306 13.8562Z" fill="#861A3F"/>
<path d="M19.8155 15.938C19.6897 15.938 19.5677 15.8956 19.469 15.8176C19.3704 15.7397 19.3009 15.6307 19.2719 15.5083L18.7494 13.2739C18.7157 13.1297 18.7407 12.9779 18.8188 12.852C18.897 12.7262 19.022 12.6365 19.1662 12.6028C19.3105 12.569 19.4623 12.594 19.5881 12.6722C19.714 12.7503 19.8037 12.8753 19.8374 13.0196L20.3599 15.2539C20.3766 15.3254 20.3791 15.3994 20.3672 15.4718C20.3553 15.5442 20.3292 15.6135 20.2905 15.6759C20.2518 15.7382 20.2012 15.7923 20.1416 15.8351C20.082 15.8778 20.0145 15.9084 19.9431 15.9251C19.9012 15.9342 19.8584 15.9386 19.8155 15.938Z" fill="#861A3F"/>
<path d="M28.3404 15.9045C28.2554 15.9043 28.1716 15.8846 28.0953 15.8471C28.019 15.8096 27.9523 15.7551 27.9002 15.6879C27.8482 15.6207 27.8122 15.5425 27.7949 15.4592C27.7777 15.376 27.7796 15.2899 27.8007 15.2075L28.3593 13.0084C28.3767 12.9365 28.4081 12.8687 28.4519 12.8091C28.4956 12.7494 28.5508 12.699 28.6142 12.6608C28.6775 12.6227 28.7479 12.5975 28.8211 12.5867C28.8943 12.5759 28.9689 12.5798 29.0406 12.5981C29.1122 12.6164 29.1796 12.6488 29.2387 12.6933C29.2977 12.7378 29.3474 12.7937 29.3847 12.8575C29.422 12.9214 29.4463 12.992 29.4561 13.0654C29.4659 13.1387 29.461 13.2133 29.4418 13.2847L28.8797 15.4843C28.8491 15.6041 28.7795 15.7105 28.6819 15.7865C28.5843 15.8626 28.4642 15.9041 28.3404 15.9045Z" fill="#861A3F"/>
<path d="M24.2705 13.1055C23.2702 13.1055 22.3485 12.519 21.6756 11.4538C21.0547 10.4664 20.711 9.16743 20.711 7.79457C20.711 6.42172 21.0547 5.12234 21.6765 4.13706C22.3494 3.07229 23.271 2.48576 24.2714 2.48576C25.2717 2.48576 26.1934 3.07229 26.8662 4.13706C27.4889 5.12234 27.8318 6.42129 27.8318 7.79457C27.8318 9.16786 27.488 10.4664 26.8662 11.4517C26.1925 12.5169 25.2708 13.1055 24.2705 13.1055ZM24.2705 3.6051C22.9453 3.60296 21.8282 5.52238 21.8282 7.79457C21.8282 10.0668 22.9453 11.9883 24.2705 11.9883C25.5957 11.9883 26.7137 10.0685 26.7137 7.79672C26.7137 5.52495 25.5948 3.60296 24.2705 3.60296V3.6051Z" fill="#861A3F"/>
<path d="M34.461 23.9615C34.3791 23.9617 34.2982 23.9439 34.2239 23.9094C34.1497 23.8749 34.0839 23.8245 34.0313 23.7617C30.4971 19.5344 27.4949 18.6351 27.4652 18.6269C27.3299 18.581 27.2174 18.4849 27.1507 18.3585C27.0841 18.2321 27.0684 18.085 27.107 17.9474C27.1455 17.8098 27.2353 17.6922 27.3579 17.6188C27.4805 17.5453 27.6265 17.5217 27.766 17.5527C27.9005 17.5901 31.1068 18.5246 34.8872 23.0463C34.9555 23.1278 34.999 23.2272 35.0127 23.3327C35.0264 23.4381 35.0097 23.5453 34.9646 23.6416C34.9194 23.7379 34.8478 23.8194 34.7579 23.8763C34.6681 23.9333 34.5639 23.9634 34.4576 23.9632L34.461 23.9615Z" fill="#CB4C81"/>
</svg>
