<svg width="43" height="59" viewBox="0 0 43 59" fill="none" xmlns="http://www.w3.org/2000/svg">
<path d="M21.5002 57.8779C32.7946 57.8779 41.9506 48.722 41.9506 37.4275C41.9506 26.1331 32.7946 16.9772 21.5002 16.9772C10.2057 16.9772 1.0498 26.1331 1.0498 37.4275C1.0498 48.722 10.2057 57.8779 21.5002 57.8779Z" fill="#B71A5D"/>
<path d="M21.3482 35.947L21.3022 34.4341C25.1624 34.3178 30.8071 33.7632 35.7768 31.8035C38.7443 30.6345 40.0751 29.5028 40.0879 29.4911L41.0811 30.6322C41.0229 30.684 39.6003 31.9071 36.4361 33.1691C33.571 34.3137 28.6251 35.7235 21.3482 35.947Z" fill="black"/>
<path d="M21.326 35.9474H21.3039C14.4478 35.7524 9.5432 34.4496 6.6356 33.3918C3.44288 32.2281 1.88929 31.1085 1.82471 31.0643L2.71613 29.8424C2.73068 29.8535 4.21095 30.9125 7.23201 32.0029C10.0203 33.0089 14.7282 34.2472 21.3243 34.438C28.3067 34.221 33.0367 32.8885 35.7768 31.808C38.7443 30.639 40.075 29.5072 40.0878 29.4956L41.0811 30.632C41.0229 30.6838 39.6002 31.9069 36.436 33.1689C33.5709 34.3135 28.625 35.7234 21.3482 35.9468L21.326 35.9474Z" fill="#F3970D"/>
<path d="M21.3215 46.5258H21.2999C14.1511 46.3309 9.03704 45.0304 6.00551 43.9743C2.6778 42.8147 1.05962 41.6963 0.993286 41.6469L1.85911 40.4075C1.87307 40.4168 3.42143 41.4781 6.58097 42.5709C9.49672 43.5787 14.4199 44.8198 21.318 45.0106C28.6193 44.7936 33.5669 43.4582 36.4332 42.3754C39.534 41.204 40.9287 40.0694 40.9421 40.0583L41.9109 41.2221C41.8492 41.2733 40.3695 42.4929 37.0732 43.7526C34.0836 44.8943 28.9271 46.3024 21.3412 46.5252L21.3215 46.5258Z" fill="#F3970D"/>
<path d="M13.6199 45.5046C13.5918 45.5044 13.5636 45.5029 13.5356 45.4999C13.412 45.4859 13.2938 45.4417 13.1914 45.3712C13.089 45.3007 13.0056 45.206 12.9485 45.0955L7.64648 34.8494L1.59505 41.0905L0.509277 40.0367L7.29271 33.0415C7.37623 32.9554 7.47904 32.8903 7.59265 32.8518C7.70626 32.8132 7.82741 32.8023 7.9461 32.8198C8.06479 32.8373 8.17761 32.8828 8.27525 32.9525C8.37289 33.0222 8.45255 33.1141 8.50765 33.2207L13.7718 43.3959L20.7432 35.1415C20.8139 35.0578 20.9019 34.9905 21.0012 34.9442C21.1004 34.8978 21.2085 34.8736 21.3181 34.8732H21.321C21.4301 34.8731 21.5379 34.8967 21.637 34.9422C21.7361 34.9877 21.8242 35.0541 21.8953 35.1368L28.979 43.3993L34.1943 33.223C34.2482 33.1176 34.3262 33.0263 34.422 32.9565C34.5177 32.8867 34.6285 32.8404 34.7454 32.8213C34.8623 32.8021 34.982 32.8107 35.095 32.8464C35.208 32.882 35.311 32.9436 35.3958 33.0264L41.8546 39.3344L40.7973 40.4173L35.0706 34.8255L29.8116 45.0932C29.7549 45.2031 29.672 45.2974 29.5703 45.3678C29.4686 45.4383 29.3512 45.4827 29.2284 45.4972C29.1056 45.5118 28.981 45.4959 28.8657 45.4512C28.7504 45.4064 28.6478 45.334 28.567 45.2404L21.3251 36.7998L14.1983 45.2369C14.1272 45.3209 14.0386 45.3884 13.9387 45.4346C13.8388 45.4808 13.73 45.5047 13.6199 45.5046V45.5046Z" fill="#F3970D"/>
<path d="M13.9475 15.007C13.9475 15.007 21.6695 13.1451 28.8056 15.007Z" fill="#F3970D"/>
<path d="M14.943 14.8024L15.6505 17.8263L27.1942 17.781L27.9553 14.8024" fill="#F3970D"/>
<path d="M21.6828 14.7471C20.3282 14.7471 19.0801 13.9528 18.1689 12.5104C17.3258 11.1761 16.8615 9.41715 16.8615 7.55807C16.8615 5.69899 17.3269 3.93942 18.1689 2.60519C19.0824 1.1604 20.3282 0.36615 21.6828 0.36615C23.0374 0.36615 24.2855 1.1604 25.1967 2.60228C26.0398 3.93651 26.5041 5.6955 26.5041 7.55516C26.5041 9.41482 26.0386 11.1732 25.1967 12.5075C24.2855 13.9499 23.0391 14.7471 21.6828 14.7471ZM21.6828 1.88192C19.8895 1.88192 18.3743 4.48114 18.3743 7.55807C18.3743 10.635 19.8872 13.2342 21.6828 13.2342C23.4784 13.2342 24.9913 10.6344 24.9913 7.55807C24.9913 4.48172 23.4761 1.87901 21.6828 1.87901V1.88192Z" fill="black"/>
<path opacity="0.5" d="M2.87346 28.9737C2.87346 28.9737 9.05058 56.4019 35.6659 52.1764C35.6659 52.1764 20.617 66.3158 4.93677 49.4247C4.93677 49.4264 -1.8583 40.5267 2.87346 28.9737Z" fill="#A81A3F"/>
<path d="M21.6828 58.6338C16.4425 58.6268 11.3915 56.6738 7.50972 53.1535C3.62791 49.6332 1.19195 44.7967 0.674344 39.582C0.156743 34.3673 1.5944 29.1463 4.70845 24.9316C7.8225 20.717 12.3909 17.8091 17.5276 16.7721C22.6643 15.7352 28.003 16.643 32.5083 19.3195C37.0135 21.9961 40.364 26.2505 41.9099 31.2576C43.4558 36.2647 43.0869 41.6675 40.8748 46.4179C38.6626 51.1684 34.7649 54.928 29.9377 56.9673C27.3262 58.0725 24.5185 58.6393 21.6828 58.6338V58.6338ZM21.6828 17.7337C17.1266 17.7336 12.7113 19.3132 9.18923 22.2035C5.66717 25.0939 3.25626 29.116 2.36729 33.5846C1.47831 38.0532 2.16628 42.6918 4.31397 46.71C6.46166 50.7283 9.93619 53.8775 14.1455 55.6212C18.3549 57.3648 23.0386 57.595 27.3986 56.2724C31.7586 54.9499 35.5252 52.1565 38.0565 48.3682C40.5878 44.5799 41.7272 40.0311 41.2807 35.4968C40.8341 30.9626 38.8292 26.7235 35.6075 23.5018C33.7831 21.6674 31.613 20.2132 29.2228 19.2231C26.8327 18.233 24.2699 17.7268 21.6828 17.7337V17.7337Z" fill="#861A3F"/>
<path d="M28.9893 15.7636C28.9252 15.7626 28.8614 15.7534 28.7996 15.7362C21.9266 13.9412 14.385 15.7217 14.3111 15.7397C14.2139 15.765 14.1126 15.7707 14.0131 15.7565C13.9136 15.7422 13.818 15.7083 13.7318 15.6567C13.6456 15.6051 13.5706 15.5368 13.511 15.4558C13.4515 15.3749 13.4087 15.2829 13.3851 15.1852C13.3616 15.0875 13.3577 14.9862 13.3737 14.887C13.3898 14.7878 13.4254 14.6928 13.4786 14.6075C13.5317 14.5223 13.6013 14.4484 13.6833 14.3904C13.7653 14.3323 13.8581 14.2912 13.9562 14.2693C14.037 14.2496 15.9758 13.787 18.8241 13.5519C21.4582 13.3343 25.3934 13.2831 29.1813 14.2728C29.3594 14.3192 29.5144 14.4289 29.6174 14.5813C29.7204 14.7338 29.7643 14.9185 29.7409 15.101C29.7175 15.2835 29.6284 15.4512 29.4903 15.5727C29.3521 15.6943 29.1745 15.7613 28.9905 15.7613L28.9893 15.7636Z" fill="#861A3F"/>
<path d="M15.8335 18.5827C15.6632 18.5828 15.4979 18.5253 15.3643 18.4197C15.2308 18.3141 15.1367 18.1666 15.0974 18.0009L14.3899 14.9751C14.3442 14.7798 14.378 14.5743 14.4838 14.4038C14.5897 14.2334 14.7589 14.1119 14.9543 14.0663C15.1497 14.0206 15.3552 14.0544 15.5256 14.1602C15.6961 14.2661 15.8175 14.4353 15.8632 14.6307L16.5707 17.6564C16.5933 17.7531 16.5967 17.8534 16.5806 17.9514C16.5645 18.0495 16.5292 18.1434 16.4768 18.2278C16.4244 18.3122 16.3558 18.3854 16.2751 18.4433C16.1944 18.5012 16.103 18.5427 16.0063 18.5653C15.9495 18.5776 15.8916 18.5835 15.8335 18.5827V18.5827Z" fill="#861A3F"/>
<path d="M27.3776 18.5373C27.2625 18.537 27.1489 18.5105 27.0456 18.4596C26.9423 18.4088 26.852 18.3351 26.7815 18.244C26.711 18.153 26.6623 18.0471 26.6389 17.9344C26.6155 17.8217 26.6182 17.7051 26.6467 17.5936L27.4032 14.6155C27.4267 14.5181 27.4693 14.4264 27.5285 14.3456C27.5878 14.2648 27.6625 14.1966 27.7483 14.1449C27.8341 14.0932 27.9294 14.0591 28.0285 14.0445C28.1276 14.0299 28.2286 14.0352 28.3257 14.0599C28.4228 14.0847 28.514 14.1285 28.594 14.1888C28.674 14.2491 28.7412 14.3247 28.7917 14.4112C28.8423 14.4977 28.8752 14.5934 28.8884 14.6927C28.9017 14.792 28.8951 14.8929 28.869 14.9897L28.1079 17.9683C28.0664 18.1306 27.9722 18.2746 27.84 18.3776C27.7078 18.4806 27.5452 18.5368 27.3776 18.5373V18.5373Z" fill="#861A3F"/>
<path d="M21.8662 14.7471C20.5116 14.7471 19.2635 13.9528 18.3523 12.5104C17.5115 11.1732 17.046 9.41424 17.046 7.55516C17.046 5.69608 17.5115 3.93651 18.3535 2.60228C19.2647 1.1604 20.5128 0.36615 21.8674 0.36615C23.222 0.36615 24.4701 1.1604 25.3813 2.60228C26.2244 3.93651 26.6888 5.6955 26.6888 7.55516C26.6888 9.41482 26.2233 11.1732 25.3813 12.5075C24.4689 13.9499 23.2208 14.7471 21.8662 14.7471ZM21.8662 1.88192C20.0717 1.87901 18.5589 4.47823 18.5589 7.55516C18.5589 10.6321 20.0717 13.2342 21.8662 13.2342C23.6607 13.2342 25.1747 10.6344 25.1747 7.55807C25.1747 4.48172 23.6595 1.87901 21.8662 1.87901V1.88192Z" fill="#861A3F"/>
<path d="M35.6659 29.4479C35.555 29.4482 35.4454 29.4241 35.3449 29.3774C35.2443 29.3306 35.1553 29.2623 35.0841 29.1773C30.2982 23.4529 26.2326 22.235 26.1925 22.224C26.0093 22.1617 25.8569 22.0317 25.7666 21.8605C25.6764 21.6893 25.6552 21.4901 25.7073 21.3038C25.7595 21.1174 25.8811 20.9582 26.0471 20.8588C26.2131 20.7593 26.4109 20.7273 26.5998 20.7693C26.7819 20.8199 31.1238 22.0855 36.2431 28.2085C36.3355 28.319 36.3945 28.4535 36.413 28.5964C36.4316 28.7392 36.409 28.8843 36.3478 29.0147C36.2867 29.1452 36.1897 29.2554 36.068 29.3326C35.9464 29.4097 35.8053 29.4505 35.6613 29.4502L35.6659 29.4479Z" fill="#CB4C81"/>
</svg>
