<svg width="98" height="98" viewBox="0 0 98 98" fill="none" xmlns="http://www.w3.org/2000/svg">
<g clip-path="url(#clip0_3_6049)">
<path d="M26.0312 27.5625H38.2812C39.0935 27.5625 39.8724 27.8852 40.4468 28.4595C41.0211 29.0338 41.3438 29.8128 41.3438 30.625V36.75H22.9688V30.625C22.9688 29.8128 23.2914 29.0338 23.8657 28.4595C24.4401 27.8852 25.219 27.5625 26.0312 27.5625Z" fill="url(#paint0_linear_3_6049)"/>
<path d="M61.25 18.375H70.4375C71.2497 18.375 72.0287 18.6977 72.603 19.272C73.1773 19.8463 73.5 20.6253 73.5 21.4375V27.5625H58.1875V21.4375C58.1875 20.6253 58.5102 19.8463 59.0845 19.272C59.6588 18.6977 60.4378 18.375 61.25 18.375Z" fill="url(#paint1_linear_3_6049)"/>
<path d="M65.8438 88.8125C83.6032 88.8125 98 74.4157 98 56.6562C98 38.8968 83.6032 24.5 65.8438 24.5C48.0843 24.5 33.6875 38.8968 33.6875 56.6562C33.6875 74.4157 48.0843 88.8125 65.8438 88.8125Z" fill="url(#paint2_linear_3_6049)"/>
<path d="M9.1875 7.65625L9.01906 8.71281C8.59699 11.1936 7.54644 13.5249 5.96759 15.4844C4.38874 17.4438 2.33424 18.9662 0 19.9062C2.33667 20.8425 4.39343 22.3638 5.97282 24.3239C7.5522 26.2841 8.60119 28.6173 9.01906 31.0997L9.1875 32.1562L9.35594 31.0997C9.77801 28.6189 10.8286 26.2876 12.4074 24.3281C13.9863 22.3687 16.0408 20.8463 18.375 19.9062C16.0383 18.97 13.9816 17.4487 12.4022 15.4886C10.8228 13.5284 9.77381 11.1952 9.35594 8.71281L9.1875 7.65625Z" fill="url(#paint3_linear_3_6049)"/>
<path d="M94.8303 70.5906C91.7413 77.0198 86.6024 82.2395 80.2222 85.4284C49.5972 77.9253 41.3284 52.8587 39.0928 38.8172C43.4311 32.3016 49.9971 27.5921 57.5597 25.5719C59.8259 39.0928 67.6659 62.1534 94.8303 70.5906Z" fill="#BB59D0"/>
<path d="M65.8437 7.65625C64.6323 7.65625 63.4481 8.01547 62.4409 8.6885C61.4336 9.36152 60.6486 10.3181 60.185 11.4373C59.7214 12.5565 59.6001 13.788 59.8364 14.9762C60.0728 16.1643 60.6561 17.2557 61.5127 18.1123C62.3693 18.9689 63.4607 19.5522 64.6488 19.7886C65.8369 20.0249 67.0685 19.9036 68.1877 19.44C69.3069 18.9764 70.2635 18.1914 70.9365 17.1841C71.6095 16.1769 71.9687 14.9927 71.9687 13.7812C71.9687 12.1568 71.3234 10.5989 70.1748 9.45022C69.0261 8.30156 67.4682 7.65625 65.8437 7.65625ZM65.8437 16.8438C65.238 16.8438 64.6459 16.6641 64.1423 16.3276C63.6387 15.9911 63.2462 15.5128 63.0144 14.9532C62.7826 14.3936 62.7219 13.7779 62.8401 13.1838C62.9583 12.5897 63.2499 12.044 63.6782 11.6157C64.1065 11.1874 64.6522 10.8958 65.2463 10.7776C65.8403 10.6594 66.4561 10.7201 67.0157 10.9519C67.5753 11.1837 68.0536 11.5762 68.3901 12.0798C68.7266 12.5834 68.9062 13.1755 68.9062 13.7812C68.9062 14.5935 68.5836 15.3724 68.0093 15.9468C67.4349 16.5211 66.656 16.8438 65.8437 16.8438Z" fill="url(#paint4_linear_3_6049)"/>
<path d="M32.1562 98C49.9157 98 64.3125 83.6032 64.3125 65.8438C64.3125 48.0843 49.9157 33.6875 32.1562 33.6875C14.3968 33.6875 0 48.0843 0 65.8438C0 83.6032 14.3968 98 32.1562 98Z" fill="url(#paint5_linear_3_6049)"/>
<path d="M32.1563 16.8438C30.9448 16.8438 29.7606 17.203 28.7534 17.876C27.7461 18.549 26.9611 19.5056 26.4975 20.6248C26.0339 21.744 25.9126 22.9755 26.1489 24.1637C26.3853 25.3518 26.9686 26.4432 27.8252 27.2998C28.6818 28.1564 29.7732 28.7397 30.9613 28.9761C32.1495 29.2124 33.381 29.0911 34.5002 28.6275C35.6194 28.1639 36.576 27.3789 37.249 26.3716C37.922 25.3644 38.2813 24.1802 38.2813 22.9688C38.2813 21.3443 37.6359 19.7864 36.4873 18.6377C35.3386 17.4891 33.7807 16.8438 32.1563 16.8438ZM32.1563 26.0312C31.5505 26.0312 30.9584 25.8516 30.4548 25.5151C29.9512 25.1786 29.5587 24.7003 29.3269 24.1407C29.0951 23.5811 29.0344 22.9654 29.1526 22.3713C29.2708 21.7772 29.5624 21.2315 29.9907 20.8032C30.419 20.3749 30.9647 20.0833 31.5588 19.9651C32.1529 19.8469 32.7686 19.9076 33.3282 20.1394C33.8878 20.3712 34.3661 20.7637 34.7026 21.2673C35.0391 21.7709 35.2188 22.363 35.2188 22.9688C35.2188 23.781 34.8961 24.5599 34.3218 25.1343C33.7474 25.7086 32.9685 26.0312 32.1563 26.0312Z" fill="url(#paint6_linear_3_6049)"/>
<path d="M62.4597 76.5625L58.8 73.6838C58.2103 73.2107 57.4665 72.9724 56.7117 73.0148C55.9569 73.0572 55.2445 73.3773 54.7116 73.9134L52.6903 75.9347C52.1165 76.5051 51.3403 76.8252 50.5312 76.8252C49.7222 76.8252 48.946 76.5051 48.3722 75.9347L46.5653 74.1278C45.9915 73.5574 45.2153 73.2373 44.4062 73.2373C43.5972 73.2373 42.821 73.5574 42.2472 74.1278L40.4403 75.9347C39.8665 76.5051 39.0903 76.8252 38.2812 76.8252C37.4722 76.8252 36.696 76.5051 36.1222 75.9347L34.3153 74.1278C33.7415 73.5574 32.9653 73.2373 32.1562 73.2373C31.3472 73.2373 30.571 73.5574 29.9972 74.1278L28.1903 75.9347C27.6165 76.5051 26.8403 76.8252 26.0312 76.8252C25.2222 76.8252 24.446 76.5051 23.8722 75.9347L22.0653 74.1278C21.4915 73.5574 20.7153 73.2373 19.9062 73.2373C19.0972 73.2373 18.321 73.5574 17.7472 74.1278L15.9403 75.9347C15.3665 76.5051 14.5903 76.8252 13.7812 76.8252C12.9722 76.8252 12.196 76.5051 11.6222 75.9347L9.60093 73.9134C9.06797 73.3773 8.35553 73.0572 7.60074 73.0148C6.84595 72.9724 6.10215 73.2107 5.51249 73.6838L1.8528 76.5625C-0.14221 70.963 -0.539852 64.9189 0.704366 59.1062L5.51249 55.3088C6.10215 54.8357 6.84595 54.5974 7.60074 54.6398C8.35553 54.6822 9.06797 55.0023 9.60093 55.5384L11.6222 57.5597C12.196 58.1301 12.9722 58.4502 13.7812 58.4502C14.5903 58.4502 15.3665 58.1301 15.9403 57.5597L17.7472 55.7528C18.321 55.1824 19.0972 54.8623 19.9062 54.8623C20.7153 54.8623 21.4915 55.1824 22.0653 55.7528L23.8722 57.5597C24.446 58.1301 25.2222 58.4502 26.0312 58.4502C26.8403 58.4502 27.6165 58.1301 28.1903 57.5597L29.9972 55.7528C30.571 55.1824 31.3472 54.8623 32.1562 54.8623C32.9653 54.8623 33.7415 55.1824 34.3153 55.7528L36.1222 57.5597C36.696 58.1301 37.4722 58.4502 38.2812 58.4502C39.0903 58.4502 39.8665 58.1301 40.4403 57.5597L42.2472 55.7528C42.821 55.1824 43.5972 54.8623 44.4062 54.8623C45.2153 54.8623 45.9915 55.1824 46.5653 55.7528L48.3722 57.5597C48.946 58.1301 49.7222 58.4502 50.5312 58.4502C51.3403 58.4502 52.1165 58.1301 52.6903 57.5597L54.7116 55.5384C55.2445 55.0023 55.9569 54.6822 56.7117 54.6398C57.4665 54.5974 58.2103 54.8357 58.8 55.3088L63.6081 59.1522C64.8436 64.9501 64.4461 70.9771 62.4597 76.5625Z" fill="url(#paint7_linear_3_6049)"/>
<path d="M13.7812 55.125C14.6269 55.125 15.3125 54.4394 15.3125 53.5938C15.3125 52.7481 14.6269 52.0625 13.7812 52.0625C12.9356 52.0625 12.25 52.7481 12.25 53.5938C12.25 54.4394 12.9356 55.125 13.7812 55.125Z" fill="url(#paint8_linear_3_6049)"/>
<path d="M7.65625 79.625C8.50194 79.625 9.1875 78.9394 9.1875 78.0938C9.1875 77.2481 8.50194 76.5625 7.65625 76.5625C6.81056 76.5625 6.125 77.2481 6.125 78.0938C6.125 78.9394 6.81056 79.625 7.65625 79.625Z" fill="url(#paint9_linear_3_6049)"/>
<path d="M20.0441 79.625C20.8898 79.625 21.5753 78.9394 21.5753 78.0938C21.5753 77.2481 20.8898 76.5625 20.0441 76.5625C19.1984 76.5625 18.5128 77.2481 18.5128 78.0938C18.5128 78.9394 19.1984 79.625 20.0441 79.625Z" fill="url(#paint10_linear_3_6049)"/>
<path d="M32.4472 79.625C33.2929 79.625 33.9784 78.9394 33.9784 78.0938C33.9784 77.2481 33.2929 76.5625 32.4472 76.5625C31.6015 76.5625 30.9159 77.2481 30.9159 78.0938C30.9159 78.9394 31.6015 79.625 32.4472 79.625Z" fill="url(#paint11_linear_3_6049)"/>
<path d="M44.835 79.625C45.6807 79.625 46.3662 78.9394 46.3662 78.0938C46.3662 77.2481 45.6807 76.5625 44.835 76.5625C43.9893 76.5625 43.3037 77.2481 43.3037 78.0938C43.3037 78.9394 43.9893 79.625 44.835 79.625Z" fill="url(#paint12_linear_3_6049)"/>
<path d="M57.2381 79.625C58.0838 79.625 58.7694 78.9394 58.7694 78.0938C58.7694 77.2481 58.0838 76.5625 57.2381 76.5625C56.3924 76.5625 55.7069 77.2481 55.7069 78.0938C55.7069 78.9394 56.3924 79.625 57.2381 79.625Z" fill="url(#paint13_linear_3_6049)"/>
<path d="M26.0312 55.125C26.8769 55.125 27.5625 54.4394 27.5625 53.5938C27.5625 52.7481 26.8769 52.0625 26.0312 52.0625C25.1856 52.0625 24.5 52.7481 24.5 53.5938C24.5 54.4394 25.1856 55.125 26.0312 55.125Z" fill="url(#paint14_linear_3_6049)"/>
<path d="M38.2812 55.125C39.1269 55.125 39.8125 54.4394 39.8125 53.5938C39.8125 52.7481 39.1269 52.0625 38.2812 52.0625C37.4356 52.0625 36.75 52.7481 36.75 53.5938C36.75 54.4394 37.4356 55.125 38.2812 55.125Z" fill="url(#paint15_linear_3_6049)"/>
<path d="M50.5312 55.125C51.3769 55.125 52.0625 54.4394 52.0625 53.5938C52.0625 52.7481 51.3769 52.0625 50.5312 52.0625C49.6856 52.0625 49 52.7481 49 53.5938C49 54.4394 49.6856 55.125 50.5312 55.125Z" fill="url(#paint16_linear_3_6049)"/>
<path d="M51.6491 91.4156C46.0476 95.6851 39.1993 97.9974 32.1562 97.9974C25.1132 97.9974 18.2649 95.6851 12.6634 91.4156C22.9688 85.9031 41.3438 85.9031 51.6491 91.4156Z" fill="url(#paint17_linear_3_6049)"/>
<path d="M30.625 21.4375V0H33.6875V21.4375C33.6875 21.8436 33.5262 22.2331 33.239 22.5203C32.9518 22.8074 32.5624 22.9688 32.1562 22.9688C31.7501 22.9688 31.3607 22.8074 31.0735 22.5203C30.7863 22.2331 30.625 21.8436 30.625 21.4375Z" fill="url(#paint18_linear_3_6049)"/>
<path d="M64.3125 12.25V0H67.375V12.25C67.375 12.6561 67.2137 13.0456 66.9265 13.3328C66.6393 13.6199 66.2499 13.7812 65.8438 13.7812C65.4376 13.7812 65.0482 13.6199 64.761 13.3328C64.4738 13.0456 64.3125 12.6561 64.3125 12.25Z" fill="url(#paint19_linear_3_6049)"/>
<path d="M87.2812 71.9688C86.9153 73.8279 86.1859 75.5966 85.1348 77.1732C84.0837 78.7498 82.7317 80.1034 81.1562 81.1562C82.7317 82.2091 84.0837 83.5627 85.1348 85.1393C86.1859 86.7159 86.9153 88.4846 87.2812 90.3438C87.6472 88.4846 88.3766 86.7159 89.4277 85.1393C90.4788 83.5627 91.8308 82.2091 93.4062 81.1562C91.8308 80.1034 90.4788 78.7498 89.4277 77.1732C88.3766 75.5966 87.6472 73.8279 87.2812 71.9688Z" fill="url(#paint20_linear_3_6049)"/>
</g>
<defs>
<linearGradient id="paint0_linear_3_6049" x1="32.1562" y1="40.1188" x2="32.1562" y2="21.7438" gradientUnits="userSpaceOnUse">
<stop stop-color="#E9A254"/>
<stop offset="0.23" stop-color="#EDAA60"/>
<stop offset="0.68" stop-color="#F2B773"/>
<stop offset="1" stop-color="#F4BB79"/>
</linearGradient>
<linearGradient id="paint1_linear_3_6049" x1="65.8438" y1="29.9972" x2="65.8438" y2="14.6847" gradientUnits="userSpaceOnUse">
<stop stop-color="#9E00FF"/>
<stop offset="1" stop-color="#DF86EF"/>
</linearGradient>
<linearGradient id="paint2_linear_3_6049" x1="33.6875" y1="56.6562" x2="98" y2="56.6562" gradientUnits="userSpaceOnUse">
<stop stop-color="#9E00FF"/>
<stop offset="1" stop-color="#DF86EF"/>
</linearGradient>
<linearGradient id="paint3_linear_3_6049" x1="-0.030625" y1="19.9062" x2="18.4056" y2="19.9062" gradientUnits="userSpaceOnUse">
<stop stop-color="#C18A3A"/>
<stop offset="1" stop-color="#FFE5C3"/>
</linearGradient>
<linearGradient id="paint4_linear_3_6049" x1="59.7187" y1="13.7812" x2="71.9687" y2="13.7812" gradientUnits="userSpaceOnUse">
<stop stop-color="#9E00FF"/>
<stop offset="1" stop-color="#DF86EF"/>
</linearGradient>
<linearGradient id="paint5_linear_3_6049" x1="0" y1="65.8438" x2="64.3125" y2="65.8438" gradientUnits="userSpaceOnUse">
<stop stop-color="#EF8918"/>
<stop offset="1" stop-color="#F4BB79"/>
</linearGradient>
<linearGradient id="paint6_linear_3_6049" x1="26.0313" y1="22.9687" x2="38.2813" y2="22.9687" gradientUnits="userSpaceOnUse">
<stop stop-color="#C7853D"/>
<stop offset="1" stop-color="#F4BB79"/>
</linearGradient>
<linearGradient id="paint7_linear_3_6049" x1="-8.88531e-06" y1="65.7366" x2="64.3125" y2="65.7366" gradientUnits="userSpaceOnUse">
<stop stop-color="#E2A54B"/>
<stop offset="1" stop-color="#FFE5C3"/>
</linearGradient>
<linearGradient id="paint8_linear_3_6049" x1="12.25" y1="53.5938" x2="15.3125" y2="53.5938" gradientUnits="userSpaceOnUse">
<stop stop-color="#875C1D"/>
<stop offset="1" stop-color="#FFE5C3"/>
</linearGradient>
<linearGradient id="paint9_linear_3_6049" x1="6.125" y1="78.0938" x2="9.1875" y2="78.0938" gradientUnits="userSpaceOnUse">
<stop stop-color="#875C1D"/>
<stop offset="1" stop-color="#FFE5C3"/>
</linearGradient>
<linearGradient id="paint10_linear_3_6049" x1="18.5128" y1="78.0938" x2="21.5753" y2="78.0938" gradientUnits="userSpaceOnUse">
<stop stop-color="#875C1D"/>
<stop offset="1" stop-color="#FFE5C3"/>
</linearGradient>
<linearGradient id="paint11_linear_3_6049" x1="30.9159" y1="78.0938" x2="33.9784" y2="78.0938" gradientUnits="userSpaceOnUse">
<stop stop-color="#875C1D"/>
<stop offset="1" stop-color="#FFE5C3"/>
</linearGradient>
<linearGradient id="paint12_linear_3_6049" x1="43.3037" y1="78.0938" x2="46.3662" y2="78.0938" gradientUnits="userSpaceOnUse">
<stop stop-color="#875C1D"/>
<stop offset="1" stop-color="#FFE5C3"/>
</linearGradient>
<linearGradient id="paint13_linear_3_6049" x1="55.7069" y1="78.0938" x2="58.7694" y2="78.0938" gradientUnits="userSpaceOnUse">
<stop stop-color="#875C1D"/>
<stop offset="1" stop-color="#FFE5C3"/>
</linearGradient>
<linearGradient id="paint14_linear_3_6049" x1="24.5" y1="53.5938" x2="27.5625" y2="53.5938" gradientUnits="userSpaceOnUse">
<stop stop-color="#875C1D"/>
<stop offset="1" stop-color="#FFE5C3"/>
</linearGradient>
<linearGradient id="paint15_linear_3_6049" x1="36.75" y1="53.5938" x2="39.8125" y2="53.5938" gradientUnits="userSpaceOnUse">
<stop stop-color="#875C1D"/>
<stop offset="1" stop-color="#FFE5C3"/>
</linearGradient>
<linearGradient id="paint16_linear_3_6049" x1="49" y1="53.5938" x2="52.0625" y2="53.5938" gradientUnits="userSpaceOnUse">
<stop stop-color="#875C1D"/>
<stop offset="1" stop-color="#FFE5C3"/>
</linearGradient>
<linearGradient id="paint17_linear_3_6049" x1="12.6634" y1="92.6406" x2="51.6491" y2="92.6406" gradientUnits="userSpaceOnUse">
<stop stop-color="#FBCC88"/>
<stop offset="1" stop-color="#FFE5C3"/>
</linearGradient>
<linearGradient id="paint18_linear_3_6049" x1="30.625" y1="11.4691" x2="33.6875" y2="11.4691" gradientUnits="userSpaceOnUse">
<stop stop-color="#FBCC88"/>
<stop offset="1" stop-color="#FFE5C3"/>
</linearGradient>
<linearGradient id="paint19_linear_3_6049" x1="64.3125" y1="6.87531" x2="67.375" y2="6.87531" gradientUnits="userSpaceOnUse">
<stop stop-color="#FBCC88"/>
<stop offset="1" stop-color="#FFE5C3"/>
</linearGradient>
<linearGradient id="paint20_linear_3_6049" x1="81.1562" y1="81.1562" x2="93.4062" y2="81.1562" gradientUnits="userSpaceOnUse">
<stop stop-color="#FBCC88"/>
<stop offset="1" stop-color="#FFE5C3"/>
</linearGradient>
<clipPath id="clip0_3_6049">
<rect width="98" height="98" fill="white"/>
</clipPath>
</defs>
</svg>
