<svg width="48" height="48" viewBox="0 0 48 48" fill="none" xmlns="http://www.w3.org/2000/svg">
<path d="M27.3158 29.8753C25.3547 32.2201 25.2576 36.4165 25.423 38.4618C25.5884 40.5071 25.2593 41.0971 25.2593 41.0971C25.2593 41.0971 23.8284 35.9021 16.2122 32.3658C9.60534 29.2983 3.79639 30.7227 3.79639 30.7227C3.79639 30.7227 8.55045 29.0039 11.2351 24.6211C16.2341 16.4734 19.9746 17.0547 19.9746 17.0547L25.533 17.71C25.533 17.71 24.3883 22.0928 25.2593 23.8666C26.1303 25.6403 27.3158 29.8753 27.3158 29.8753Z" fill="#FA9800"/>
<path d="M25.2589 41.0971C25.2589 41.0971 24.9556 46.9958 11.2438 40.2313C-0.824422 34.2784 3.79601 30.7227 3.79601 30.7227C3.79601 30.7227 19.7911 28.4982 25.2589 41.0971Z" fill="#FA9800"/>
<path d="M14.158 36.4868C15.5175 37.0884 16.9815 36.758 17.4283 35.7491L17.4374 35.7259C16.669 35.2374 15.87 34.799 15.0453 34.4132C14.2375 34.0379 13.3993 33.7317 12.5398 33.498C12.5278 33.522 12.5157 33.5457 12.5046 33.5706C12.0581 34.5795 12.7985 35.8853 14.158 36.4868Z" fill="#FA9800"/>
<path d="M5.2919 32.8711C5.2919 32.8711 10.5702 32.2996 15.1575 34.4519C21.1151 37.2462 23.117 41.3983 23.117 41.3983" fill="#FA9800"/>
<path d="M17.1931 20.1902C17.1931 20.1902 22.9647 21.9381 23.363 26.7859C23.7613 31.6336 21.4547 33.122 18.9673 33.2217C18.9673 33.2217 24.6271 38.699 24.7913 39.4952C24.927 40.1565 25.7873 32.5871 27.0729 30.1658C27.3307 29.6781 27.1279 29.0632 26.901 28.5592L24.4063 22.9763L24.79 18.0778L19.1808 17.5532L15.5547 19.3961L17.1931 20.1902Z" fill="#FA6F00"/>
<path d="M31.4528 17.065C31.4528 17.065 34.2213 16.4054 38.4095 22.7463C40.6606 26.1546 44.3112 27.304 44.3112 27.304C44.3112 27.304 39.8854 26.4472 35.1082 29.2642C29.6013 32.5114 28.815 36.7877 28.815 36.7877C28.815 36.7877 28.5361 36.3266 28.5477 34.6633C28.5593 33 28.4278 30.1318 27.3875 28.9557C27.3875 28.9557 23.1147 22.9491 25.5347 17.7099" fill="#F3970D"/>
<path d="M44.3114 27.3041C44.5748 27.509 44.7774 27.7818 44.8975 28.093C45.7186 30.2892 41.8085 33.7147 39.2579 35.3771C36.055 37.4654 30.8451 39.4811 29.2462 37.7043C29.0205 37.4448 28.8717 37.1273 28.8165 36.7878C28.0294 32.5175 41.0523 24.7045 44.3114 27.3041Z" fill="#F3970D"/>
<path d="M36.8708 32.4947C35.8864 33.0507 34.7722 32.8573 34.3829 32.065C34.3799 32.059 34.3773 32.0529 34.3748 32.0469C34.9206 31.6144 35.4948 31.219 36.0935 30.8631C36.6748 30.52 37.2857 30.2298 37.9188 29.996C37.9291 30.0145 37.9394 30.0334 37.9489 30.0527C38.3382 30.8451 37.8548 31.9391 36.8708 32.4947Z" fill="#F3970D"/>
<path d="M43.3095 29.1196C43.3095 29.1196 39.3284 28.925 36.0121 30.8985C31.7057 33.4616 30.4347 36.9232 30.4347 36.9232" fill="#F3970D"/>
<path d="M35.5344 20.1353C33.9059 20.2384 32.359 20.9289 31.2276 22.1071C30.4696 22.896 29.8436 23.9548 29.7796 25.3225C29.6077 28.9696 31.3264 30.031 33.1466 30.0456C33.1466 30.0456 29.1505 34.2913 29.0512 34.8929C28.9683 35.3922 28.1532 29.7345 27.1555 27.9474C26.9548 27.5878 25.1162 22.612 25.2683 22.2283L25.5411 17.5314L28.5219 18.8204L31.9503 17.042L36.5553 20.0708L35.5344 20.1353Z" fill="#FA6F00"/>
<path d="M25.7872 16.6393C27.3796 16.6393 28.6704 14.7432 28.6704 12.4042C28.6704 10.0653 27.3796 8.16922 25.7872 8.16922C24.1949 8.16922 22.904 10.0653 22.904 12.4042C22.904 14.7432 24.1949 16.6393 25.7872 16.6393Z" fill="#E20613"/>
<path d="M27.493 8.99039C27.493 8.99039 32.0778 3.61499 34.4204 4.65355C35.7065 5.22288 38.4341 11.043 35.4182 16.0347C35.4182 16.0347 32.5698 18.6253 28.1891 14.4852" fill="#E20613"/>
<path d="M23.8268 8.99039C23.8268 8.99039 19.242 3.61499 16.8989 4.65355C15.6137 5.22288 12.8856 11.043 15.9012 16.0347C15.9012 16.0347 18.75 18.6253 23.1307 14.4852" fill="#E20613"/>
<path d="M22.6406 14.9259L16.39 21.1822L20.4196 20.4891L20.7869 23.8665L25.7863 16.6391" fill="#E20613"/>
<path d="M28.5682 14.9259L34.8189 21.1822L30.7893 20.4891L30.4219 23.8665L25.4224 16.6391" fill="#E20613"/>
<path d="M5.58584 34.3385C6.43963 35.0324 13.0311 40.2188 21.8186 41.965C21.8186 41.965 23.9533 42.2254 22.235 40.5071C20.5167 38.7888 16.457 33.9526 11.5585 33.5324C6.66006 33.1122 4.53095 32.7207 4.76943 33.3425C4.90481 33.6896 5.13334 33.9926 5.42986 34.2182C5.48486 34.2573 5.53685 34.2968 5.58584 34.3385Z" fill="#FA6F00"/>
<path d="M43.3848 30.0674C42.7746 30.6368 38.0429 34.9118 31.3427 36.89C31.3427 36.89 29.7026 37.2523 30.9083 35.8738C32.114 34.4954 34.9044 30.6789 38.6797 29.9759C42.4549 29.273 44.0822 28.8158 43.9429 29.2833C43.8608 29.5488 43.706 29.786 43.4961 29.9682C43.4583 30.0008 43.4209 30.0352 43.3848 30.0674Z" fill="#FA6F00"/>
<path d="M10.3744 28.633C10.2831 28.6331 10.1942 28.6043 10.1204 28.5505C10.0467 28.4968 9.99198 28.4209 9.96422 28.334C9.93645 28.2471 9.93709 28.1536 9.96602 28.067C9.99496 27.9805 10.0507 27.9054 10.1252 27.8527C11.0029 27.186 11.7867 26.4039 12.4553 25.5276C13.368 24.3245 14.5178 22.2762 14.5312 22.2556C14.5587 22.2062 14.5957 22.1628 14.6401 22.1278C14.6844 22.0927 14.7353 22.0668 14.7896 22.0515C14.844 22.0361 14.9009 22.0316 14.957 22.0383C15.0132 22.045 15.0674 22.0626 15.1167 22.0903C15.166 22.118 15.2093 22.1551 15.2442 22.1995C15.2791 22.2439 15.305 22.2948 15.3202 22.3493C15.3354 22.4037 15.3397 22.4606 15.3329 22.5167C15.3261 22.5728 15.3083 22.627 15.2805 22.6762C15.2324 22.7622 14.089 24.7946 13.1403 26.0467C11.9754 27.5841 10.6777 28.5144 10.6227 28.5535C10.5503 28.6052 10.4634 28.633 10.3744 28.633Z" fill="#FFEABA"/>
<path d="M38.4689 25.9391C38.3835 25.9392 38.3001 25.9136 38.2295 25.8656C37.7064 25.489 37.2373 25.0425 36.8352 24.5387C36.2968 23.8693 35.611 22.7632 35.5822 22.7168C35.5506 22.6689 35.5289 22.615 35.5185 22.5585C35.508 22.502 35.509 22.444 35.5214 22.3879C35.5337 22.3317 35.5572 22.2787 35.5905 22.2318C35.6237 22.1849 35.666 22.1452 35.7149 22.1149C35.7637 22.0847 35.8182 22.0646 35.875 22.0557C35.9317 22.0469 35.9897 22.0496 36.0455 22.0635C36.1012 22.0775 36.1536 22.1025 36.1995 22.1371C36.2454 22.1717 36.2839 22.2151 36.3127 22.2648C36.3196 22.2755 37.0002 23.3725 37.5042 24.0003C37.8536 24.4364 38.2592 24.8243 38.7104 25.154C38.7864 25.2057 38.8438 25.2804 38.8742 25.3671C38.9047 25.4539 38.9065 25.5481 38.8794 25.6359C38.8523 25.7238 38.7978 25.8006 38.7239 25.8552C38.6499 25.9097 38.5604 25.9391 38.4684 25.9391H38.4689Z" fill="#FFEABA"/>
<path d="M35.0994 10.2098C34.9912 10.2101 34.8869 10.1697 34.8072 10.0965C34.7276 10.0233 34.6785 9.92273 34.6697 9.81491C34.576 8.66764 34.0557 7.69612 33.6359 7.08296C33.5709 6.98928 33.4745 6.92193 33.3642 6.89309C33.2539 6.86425 33.1369 6.87581 33.0343 6.92569L31.9743 7.44132C31.9235 7.46606 31.8683 7.48056 31.8119 7.48398C31.7556 7.48741 31.699 7.47969 31.6456 7.46128C31.5378 7.42409 31.4491 7.34558 31.3991 7.24302C31.3492 7.14045 31.342 7.02224 31.3792 6.91438C31.4164 6.80652 31.4949 6.71785 31.5974 6.66788L32.6579 6.15226C32.9456 6.01348 33.2734 5.98195 33.5822 6.06332C33.8911 6.14469 34.1608 6.33362 34.3427 6.59612C34.8214 7.29479 35.4169 8.40811 35.5239 9.74401C35.5332 9.85757 35.497 9.97016 35.4233 10.057C35.3495 10.1439 35.2443 10.1979 35.1308 10.2072L35.0994 10.2098Z" fill="#FE5B4A"/>
<path d="M16.2023 10.001H16.1671C16.0536 9.99165 15.9483 9.93763 15.8746 9.85077C15.8009 9.7639 15.7647 9.65132 15.7739 9.53776C15.8831 8.20186 16.4765 7.08854 16.9552 6.38987C17.1372 6.12734 17.407 5.93839 17.7159 5.85702C18.0248 5.77565 18.3527 5.80721 18.6404 5.94601L19.7004 6.46163C19.803 6.5116 19.8815 6.60027 19.9187 6.70813C19.9559 6.81599 19.9487 6.9342 19.8987 7.03677C19.8488 7.13933 19.7601 7.21784 19.6522 7.25503C19.5444 7.29222 19.4262 7.28504 19.3236 7.23507L18.2636 6.71944C18.1615 6.6698 18.045 6.65819 17.9352 6.6867C17.8253 6.71522 17.7292 6.78198 17.6641 6.87499C17.2443 7.48772 16.724 8.45924 16.6303 9.60651C16.6215 9.71396 16.5726 9.81416 16.4933 9.88723C16.414 9.9603 16.3102 10.0009 16.2023 10.001Z" fill="#FE5B4A"/>
<path d="M27.1933 13.9567C27.1766 13.9565 27.16 13.9555 27.1434 13.9537C27.0873 13.9471 27.0331 13.9297 26.9838 13.9022C26.9345 13.8747 26.8911 13.8378 26.8561 13.7935C26.821 13.7493 26.7951 13.6986 26.7796 13.6443C26.7642 13.59 26.7596 13.5332 26.7662 13.4771C27.0807 10.7615 25.6533 9.98636 25.5927 9.9537L25.5965 9.95585L25.976 9.18499C26.0593 9.22581 28.0079 10.2257 27.6199 13.5755C27.608 13.6804 27.5579 13.7771 27.4792 13.8474C27.4006 13.9177 27.2988 13.9566 27.1933 13.9567Z" fill="#FE5B4A"/>
<path d="M25.7872 17.1974C24.8264 17.1974 23.9396 16.6702 23.2869 15.7128C22.6797 14.8212 22.3454 13.646 22.3454 12.4042C22.3454 11.1624 22.6797 9.98723 23.2869 9.09563C23.9383 8.13829 24.8264 7.61106 25.7872 7.61106C26.748 7.61106 27.6349 8.13829 28.2876 9.09563C28.8947 9.98723 29.229 11.1624 29.229 12.4042C29.229 13.646 28.8947 14.8217 28.2876 15.7128C27.6357 16.6719 26.748 17.1974 25.7872 17.1974ZM25.7872 8.72782C24.527 8.72782 23.4626 10.4113 23.4626 12.4038C23.4626 14.3963 24.527 16.0802 25.7872 16.0802C27.0475 16.0802 28.1118 14.3967 28.1118 12.4038C28.1118 10.4109 27.0471 8.72782 25.7872 8.72782Z" fill="#690A3F"/>
<path d="M33.0043 17.3938C32.3396 17.3938 31.6568 17.2601 30.9668 16.9954C29.9218 16.5937 28.8583 15.886 27.806 14.89L28.5743 14.0792C32.215 17.5197 34.5877 15.9754 34.9895 15.6656C35.7181 14.4273 36.1374 13.0316 36.212 11.5968C36.2793 10.3345 36.1192 9.07029 35.7393 7.86458C35.2181 6.20856 34.4769 5.2886 34.1963 5.16399C33.4706 4.84215 32.1046 5.45703 30.4498 6.85137C29.0607 8.02141 27.931 9.33969 27.9198 9.35301L27.0703 8.6277C27.8887 7.69069 28.7743 6.81467 29.7202 6.00661C31.8072 4.24488 33.4658 3.61926 34.6492 4.14391C35.4067 4.47992 36.2734 5.84075 36.8054 7.53028C37.2264 8.86528 37.4036 10.2652 37.3283 11.663C37.2303 13.3483 36.7495 14.9166 35.8987 16.3247L35.8558 16.3947L35.7956 16.4493C35.7608 16.4807 34.9311 17.2227 33.5054 17.3693C33.3389 17.3861 33.1717 17.3943 33.0043 17.3938Z" fill="#690A3F"/>
<path d="M18.3163 17.3937C18.1493 17.3938 17.9823 17.3852 17.8162 17.368C16.39 17.221 15.5603 16.4794 15.5259 16.448L15.4658 16.3934L15.4228 16.3234C14.572 14.9153 14.0908 13.3469 13.9933 11.6617C13.9178 10.2639 14.0948 8.864 14.5157 7.52897C15.0481 5.83944 15.9144 4.47819 16.6723 4.1426C17.8557 3.61796 19.5139 4.24487 21.6008 6.0053C22.5469 6.81329 23.4327 7.68932 24.2511 8.6264L23.4012 9.35171L23.8262 8.98905L23.4012 9.35171C23.3901 9.33839 22.26 8.01968 20.8708 6.85007C19.2161 5.45573 17.851 4.84085 17.1248 5.16268C16.8442 5.28729 16.103 6.20725 15.5814 7.86327C15.2014 9.06899 15.0413 10.3332 15.1087 11.5955C15.1833 13.0302 15.6025 14.4259 16.3307 15.6643C16.7329 15.9741 19.1057 17.5184 22.7464 14.0778L23.5138 14.89C22.4611 15.8847 21.3976 16.5924 20.3526 16.9954C19.7041 17.2521 19.0138 17.3872 18.3163 17.3937Z" fill="#690A3F"/>
<path d="M20.7877 24.4251C20.6499 24.4252 20.517 24.3743 20.4144 24.2823C20.3118 24.1903 20.2469 24.0637 20.2321 23.9267L19.9313 21.1406L16.4874 21.7327C16.3705 21.7528 16.2503 21.7352 16.1441 21.6824C16.0379 21.6297 15.9513 21.5445 15.8967 21.4392C15.8422 21.3339 15.8225 21.214 15.8407 21.0968C15.8588 20.9796 15.9137 20.8713 15.9975 20.7874L22.2477 14.5312C22.2996 14.4793 22.3612 14.4381 22.4289 14.41C22.4967 14.3819 22.5693 14.3675 22.6427 14.3674C22.716 14.3674 22.7887 14.3818 22.8565 14.4099C22.9242 14.438 22.9858 14.4791 23.0377 14.5309C23.0896 14.5828 23.1308 14.6444 23.1588 14.7121C23.1869 14.7799 23.2014 14.8525 23.2014 14.9259C23.2014 14.9992 23.187 15.0719 23.159 15.1397C23.1309 15.2074 23.0898 15.269 23.0379 15.3209L18.0282 20.3341L20.324 19.9375C20.3992 19.9245 20.4762 19.9271 20.5503 19.9451C20.6244 19.963 20.6941 19.9959 20.755 20.0418C20.8159 20.0877 20.8668 20.1456 20.9045 20.2119C20.9422 20.2782 20.9659 20.3515 20.9741 20.4273L21.1791 22.3145L25.326 16.3199C25.3672 16.2584 25.4203 16.2057 25.482 16.1648C25.5438 16.124 25.6131 16.0959 25.6859 16.082C25.7586 16.0682 25.8334 16.069 25.9058 16.0843C25.9783 16.0997 26.047 16.1293 26.1079 16.1714C26.1688 16.2136 26.2207 16.2674 26.2606 16.3298C26.3005 16.3922 26.3276 16.4618 26.3404 16.5348C26.3531 16.6078 26.3512 16.6825 26.3348 16.7547C26.3183 16.8269 26.2877 16.8952 26.2447 16.9554L21.247 24.1841C21.1956 24.2584 21.127 24.3192 21.047 24.3611C20.967 24.4031 20.878 24.4251 20.7877 24.4251Z" fill="#690A3F"/>
<path d="M30.4212 24.4251C30.3308 24.4251 30.2418 24.4032 30.1618 24.3612C30.0818 24.3192 30.0132 24.2584 29.9618 24.1841L24.9641 16.9567C24.9211 16.8965 24.8905 16.8282 24.874 16.756C24.8576 16.6838 24.8557 16.6091 24.8684 16.5361C24.8811 16.4631 24.9083 16.3934 24.9482 16.3311C24.9881 16.2687 25.04 16.2149 25.1009 16.1727C25.1618 16.1306 25.2305 16.101 25.3029 16.0856C25.3754 16.0703 25.4502 16.0695 25.5229 16.0833C25.5957 16.0971 25.665 16.1253 25.7268 16.1661C25.7885 16.207 25.8416 16.2597 25.8828 16.3212L30.0297 22.3158L30.2347 20.4286C30.2428 20.3528 30.2664 20.2794 30.3039 20.213C30.3415 20.1466 30.3923 20.0887 30.4531 20.0426C30.5139 19.9966 30.5835 19.9636 30.6576 19.9455C30.7317 19.9274 30.8087 19.9247 30.8839 19.9375L33.1815 20.3328L28.1735 15.3209C28.1216 15.269 28.0805 15.2074 28.0524 15.1397C28.0244 15.0719 28.0099 14.9992 28.01 14.9259C28.01 14.8525 28.0244 14.7799 28.0525 14.7121C28.0806 14.6444 28.1218 14.5828 28.1737 14.5309C28.2256 14.4791 28.2872 14.438 28.3549 14.4099C28.4227 14.3818 28.4954 14.3674 28.5687 14.3674C28.6421 14.3675 28.7147 14.3819 28.7825 14.41C28.8502 14.4381 28.9118 14.4793 28.9637 14.5312L35.2139 20.7874C35.2977 20.8713 35.3526 20.9797 35.3708 21.0968C35.3889 21.214 35.3692 21.3339 35.3147 21.4392C35.2601 21.5445 35.1735 21.6297 35.0673 21.6824C34.9611 21.7352 34.8409 21.7528 34.7241 21.7327L31.2805 21.1406L30.9798 23.9267C30.9649 24.0642 30.8995 24.1913 30.7963 24.2834C30.6931 24.3754 30.5594 24.426 30.4212 24.4251Z" fill="#690A3F"/>
<path d="M25.2593 41.6555C25.2369 41.6555 25.2145 41.6542 25.1923 41.6517C25.082 41.6386 24.9781 41.5929 24.894 41.5205C24.8098 41.4481 24.7491 41.3522 24.7196 41.2452C24.7162 41.2344 24.3552 39.987 23.1044 38.3409C21.9486 36.8194 19.7735 34.6357 15.9759 32.8727C13.3347 31.6523 10.4674 30.9981 7.5583 30.952C5.3669 30.9219 3.94162 31.2601 3.92744 31.2635C3.78837 31.2979 3.64141 31.2775 3.51693 31.2067C3.39244 31.1358 3.29996 31.0198 3.25858 30.8826C3.2172 30.7455 3.2301 30.5976 3.29461 30.4697C3.35911 30.3418 3.4703 30.2436 3.60518 30.1953C3.61635 30.1915 4.7735 29.7656 6.23143 28.8272C7.56346 27.9678 9.43131 26.4927 10.7578 24.3305C12.8817 20.8685 15.0508 18.5014 17.2031 17.2952C18.8832 16.3546 19.9415 16.4844 20.0571 16.5025L19.8852 17.6063H19.8951C19.8865 17.6063 19.0327 17.5152 17.6177 18.3445C16.2797 19.1283 14.1686 20.9038 11.7091 24.9136C10.2692 27.2679 8.24967 28.8616 6.80979 29.7845L6.72385 29.84C6.98166 29.8331 7.25151 29.8309 7.53424 29.8344C10.6147 29.8772 13.6518 30.567 16.4485 31.8591C20.4876 33.7347 22.8079 36.0825 24.039 37.7217C24.3488 38.1328 24.6357 38.5607 24.8984 39.0035C24.8911 38.8492 24.8807 38.6842 24.8661 38.5068C24.7854 37.5056 24.5022 32.3687 26.8857 29.5168C26.9323 29.4592 26.9899 29.4115 27.0552 29.3764C27.1205 29.3413 27.1921 29.3195 27.2658 29.3124C27.3396 29.3052 27.414 29.3128 27.4848 29.3347C27.5556 29.3566 27.6214 29.3923 27.6782 29.4399C27.7351 29.4874 27.7819 29.5458 27.8159 29.6116C27.85 29.6775 27.8706 29.7494 27.8766 29.8233C27.8826 29.8971 27.8738 29.9715 27.8508 30.0419C27.8277 30.1123 27.7909 30.1775 27.7425 30.2336C26.9458 31.1858 26.401 32.5762 26.1221 34.3667C25.842 36.1667 25.9283 37.7986 25.9782 38.4165C26.15 40.522 25.814 41.2456 25.7453 41.3689C25.697 41.4555 25.6265 41.5277 25.5411 41.5781C25.4557 41.6285 25.3584 41.6552 25.2593 41.6555Z" fill="#690A3F"/>
<path d="M21.5269 44.0383C20.9678 44.0348 20.4098 43.9891 19.8576 43.9016C17.5166 43.5446 14.5359 42.4781 10.9965 40.7344C5.52662 38.0338 2.62924 35.4188 2.38517 32.9601C2.21588 31.2538 3.40482 30.3175 3.45552 30.2784L4.13701 31.1636L4.14088 31.1606C3.90378 31.3727 3.72156 31.6391 3.60977 31.937C3.49798 32.2349 3.45995 32.5554 3.49892 32.8712C3.59002 33.7082 4.14346 34.6281 5.14076 35.6061C6.49213 36.9304 8.62854 38.3174 11.4911 39.7311C14.9054 41.415 17.7646 42.445 19.9826 42.7913C21.6085 43.0448 22.8559 42.9322 23.6904 42.4566C24.6254 41.9242 24.6989 41.0971 24.7014 41.0623V41.0687L25.8186 41.1263C25.8156 41.1843 25.7288 42.5571 24.2855 43.4036C23.5636 43.8281 22.6398 44.0383 21.5269 44.0383Z" fill="#690A3F"/>
<path d="M15.5302 37.3464C14.9791 37.3417 14.4351 37.2224 13.9326 36.9962C13.166 36.6572 12.5395 36.1097 12.1687 35.4553C11.767 34.7468 11.7051 33.9965 11.9947 33.3425C12.0115 33.3047 12.0282 33.2716 12.0424 33.2433C12.1007 33.1289 12.1966 33.0381 12.314 32.9861C12.4314 32.9342 12.5631 32.9242 12.6869 32.958C13.5769 33.2002 14.4448 33.5173 15.2814 33.9059C16.1278 34.3021 16.9479 34.7521 17.7366 35.2534C17.8469 35.324 17.9289 35.4312 17.9681 35.5562C18.0074 35.6811 18.0015 35.8159 17.9515 35.937C17.9468 35.9499 17.942 35.9611 17.9373 35.9722C17.6473 36.6275 17.0504 37.086 16.2559 37.2652C16.0178 37.319 15.7744 37.3462 15.5302 37.3464ZM14.3846 35.9761C15.2315 36.3508 16.1438 36.2923 16.6362 35.8902C16.0501 35.5408 15.4378 35.216 14.8087 34.9212C14.2008 34.6373 13.5743 34.395 12.9336 34.1959C12.94 34.4465 13.0112 34.6912 13.1403 34.9062C13.3938 35.3535 13.8355 35.7333 14.3842 35.9761H14.3846Z" fill="#690A3F"/>
<path d="M23.1165 41.9573C23.0113 41.9573 22.9082 41.9277 22.8191 41.8717C22.73 41.8158 22.6585 41.7358 22.6129 41.641C22.6086 41.632 22.1136 40.6287 20.9216 39.3091C19.8234 38.0926 17.8902 36.3515 14.9198 34.9572C10.5241 32.8947 5.40261 33.421 5.35147 33.4266C5.27854 33.4345 5.20477 33.428 5.13436 33.4074C5.06396 33.3868 4.9983 33.3525 4.94115 33.3065C4.88399 33.2605 4.83645 33.2037 4.80124 33.1394C4.76603 33.075 4.74384 33.0044 4.73595 32.9314C4.72805 32.8585 4.73459 32.7847 4.7552 32.7143C4.77581 32.6439 4.81009 32.5782 4.85607 32.5211C4.94894 32.4057 5.08387 32.3318 5.23116 32.3159C5.28702 32.3099 6.6212 32.1689 8.53976 32.297C10.3148 32.4151 12.9445 32.7976 15.3933 33.9461C18.5558 35.4294 20.6149 37.2977 21.7858 38.5997C23.0688 40.0297 23.5969 41.1103 23.6188 41.1559C23.6599 41.241 23.6787 41.3351 23.6735 41.4294C23.6683 41.5238 23.6392 41.6153 23.589 41.6953C23.5388 41.7754 23.4692 41.8414 23.3865 41.8872C23.3039 41.933 23.211 41.9571 23.1165 41.9573Z" fill="#690A3F"/>
<path d="M28.8138 37.3454C28.7179 37.3454 28.6235 37.3207 28.5399 37.2737C28.4563 37.2266 28.3862 37.1589 28.3364 37.0769C28.2505 36.9368 27.9768 36.3494 27.9888 34.6594C28.0077 32.0242 27.6352 30.0802 26.9674 29.3261C26.9541 29.3114 26.9417 29.2959 26.93 29.2797C26.8845 29.2157 25.8077 27.6899 25.0252 25.4843C24.562 24.1806 24.2991 22.9062 24.2432 21.703C24.1723 20.1751 24.4357 18.7524 25.0257 17.4753C25.0556 17.4074 25.0987 17.3461 25.1525 17.295C25.2063 17.2439 25.2698 17.204 25.3392 17.1778C25.4086 17.1515 25.4826 17.1393 25.5568 17.1419C25.631 17.1445 25.7039 17.1619 25.7712 17.193C25.8386 17.2242 25.8991 17.2684 25.9492 17.3232C25.9993 17.3779 26.038 17.4421 26.063 17.512C26.088 17.5819 26.0988 17.6561 26.0948 17.7302C26.0908 17.8043 26.0721 17.8769 26.0397 17.9437C25.528 19.0523 25.2985 20.2941 25.3587 21.6351C25.4072 22.7266 25.6461 23.8867 26.0685 25.083C26.7496 27.014 27.6975 28.4242 27.8259 28.6107C28.3523 29.2204 28.7085 30.1799 28.9139 31.5433C29.0428 32.4027 29.1086 33.3974 29.1068 34.5052C29.2002 34.329 29.3036 34.146 29.4171 33.956C30.258 32.5544 31.8783 30.5185 34.8242 28.7826C36.8477 27.5884 39.1146 26.8665 41.456 26.6707C41.5382 26.6638 41.619 26.6578 41.6984 26.6526C40.4914 25.9011 39.0597 24.7444 37.9429 23.054C36.8261 21.3636 35.1048 19.1305 33.2529 18.1035C32.1825 17.5101 31.5737 17.6107 31.5676 17.6115L31.5827 17.6085L31.3249 16.5219C31.4164 16.4999 32.2577 16.3289 33.6181 17.0315C34.3731 17.4212 35.1568 18.0112 35.947 18.7842C36.9138 19.7295 37.8991 20.9592 38.8766 22.4387C40.9838 25.6308 44.4449 26.7605 44.4793 26.7695C44.6154 26.8124 44.7299 26.9057 44.7994 27.0303C44.8689 27.155 44.8881 27.3015 44.8529 27.4398C44.8178 27.5781 44.7311 27.6977 44.6105 27.7741C44.49 27.8505 44.3448 27.8779 44.2047 27.8506C44.1953 27.8506 43.1228 27.6504 41.5037 27.7861C39.3456 27.974 37.2571 28.6429 35.3914 29.7438C32.6745 31.3457 31.1805 33.2028 30.4071 34.4781C29.5679 35.86 29.3668 36.8788 29.3646 36.8887C29.3405 37.0167 29.2723 37.1323 29.172 37.2154C29.0716 37.2985 28.9454 37.3439 28.8151 37.3437L28.8138 37.3454Z" fill="#690A3F"/>
<path d="M31.384 39.0985C30.7463 39.0985 30.1899 38.984 29.7147 38.7548C28.4217 38.1317 28.2658 36.9028 28.2597 36.8508L29.3696 36.7219V36.7146C29.3735 36.743 29.4775 37.4112 30.2234 37.7579C30.5599 37.9147 30.9539 37.9839 31.3917 37.9839C33.6399 37.9839 36.9742 36.1414 38.9633 34.9013C41.0133 33.623 42.5241 32.4031 43.4544 31.2752C44.1337 30.4511 44.4899 29.6969 44.5131 29.0335C44.5423 28.1827 43.9902 27.7586 43.9846 27.7548C43.8646 27.6679 43.784 27.5369 43.7606 27.3906C43.7372 27.2443 43.7729 27.0947 43.8598 26.9747C43.9467 26.8547 44.0777 26.7741 44.224 26.7507C44.3703 26.7273 44.5199 26.7629 44.6399 26.8498C44.6828 26.8803 45.6797 27.6194 45.6281 29.0722C45.5581 31.099 43.5141 33.3794 39.5528 35.8492C36.0878 38.0119 33.3511 39.0981 31.384 39.0985Z" fill="#690A3F"/>
<path d="M35.7231 33.3709C35.488 33.372 35.2542 33.3375 35.0295 33.2687C34.7825 33.1963 34.553 33.0738 34.3555 32.9088C34.158 32.7438 33.9966 32.5398 33.8814 32.3096C33.8763 32.2997 33.8715 32.289 33.8668 32.2778C33.8149 32.1642 33.8025 32.0366 33.8316 31.9151C33.8607 31.7937 33.9297 31.6855 34.0275 31.6079C34.5927 31.1599 35.1873 30.7502 35.8073 30.3816C36.4174 30.0214 37.0586 29.7167 37.7232 29.4711C37.8485 29.4244 37.9864 29.4241 38.1118 29.4704C38.2373 29.5167 38.342 29.6064 38.4069 29.7233C38.4219 29.75 38.4361 29.777 38.4498 29.805C38.7124 30.3395 38.7076 30.9728 38.4361 31.5877C38.1843 32.1588 37.7258 32.6538 37.147 32.9812C36.7137 33.2313 36.2233 33.3655 35.7231 33.3709ZM35.1872 32.1287C35.2419 32.1587 35.2995 32.1832 35.3591 32.2017C35.7205 32.3139 36.1828 32.2413 36.5957 32.0084C37.1221 31.711 37.4723 31.21 37.5196 30.7576C37.1273 30.9285 36.746 31.1235 36.3779 31.3415C35.9684 31.586 35.5692 31.8498 35.1872 32.1287Z" fill="#690A3F"/>
<path d="M30.435 37.4809C30.3452 37.4809 30.2567 37.4591 30.1771 37.4176C30.0975 37.376 30.029 37.3159 29.9776 37.2423C29.9262 37.1687 29.8932 37.0837 29.8816 36.9947C29.87 36.9056 29.88 36.8151 29.9108 36.7307C29.9654 36.5816 31.3008 33.053 35.7266 30.4186C39.1482 28.3818 43.1679 28.5537 43.3372 28.5619C43.4106 28.5655 43.4825 28.5835 43.5489 28.6148C43.6153 28.6462 43.6749 28.6904 43.7242 28.7448C43.7735 28.7992 43.8117 28.8628 43.8364 28.9319C43.8612 29.0011 43.8721 29.0744 43.8685 29.1478C43.8649 29.2211 43.8469 29.2931 43.8155 29.3595C43.7842 29.4259 43.74 29.4854 43.6856 29.5348C43.6312 29.5841 43.5676 29.6222 43.4985 29.647C43.4293 29.6718 43.356 29.6827 43.2826 29.6791C43.2207 29.6765 39.4154 29.5257 36.2976 31.3798C34.1746 32.6439 32.837 34.1345 32.0867 35.161C31.2738 36.2782 30.9601 37.108 30.9571 37.1166C30.9175 37.2232 30.8463 37.3153 30.753 37.3804C30.6597 37.4455 30.5488 37.4806 30.435 37.4809Z" fill="#690A3F"/>
</svg>
