<svg width="98" height="98" viewBox="0 0 98 98" fill="none" xmlns="http://www.w3.org/2000/svg">
<path d="M94.9375 83.1009C84.7724 87.3355 73.8696 89.5156 62.8578 89.5156C51.846 89.5156 40.9432 87.3355 30.7781 83.1009C30.293 82.8979 29.8683 82.5734 29.545 82.1586C29.2216 81.7438 29.0106 81.2528 28.9321 80.7327C28.8536 80.2127 28.9104 79.6813 29.097 79.1895C29.2835 78.6978 29.5935 78.2624 29.9972 77.9253L62.7812 50.5312C103.88 84.7853 77.9865 63.2253 95.6419 77.9253C96.0478 78.2568 96.362 78.687 96.5541 79.1746C96.7463 79.6623 96.8101 80.1911 96.7394 80.7104C96.6687 81.2298 96.4659 81.7223 96.1504 82.1409C95.8349 82.5594 95.4173 82.89 94.9375 83.1009Z" fill="url(#paint0_linear_3_6192)"/>
<path d="M62.7812 33.6875L35.7853 59.3206C35.404 59.6823 35.1223 60.1361 34.9672 60.6382C34.812 61.1403 34.7887 61.6739 34.8995 62.1876C35.0102 62.7013 35.2513 63.1779 35.5995 63.5715C35.9477 63.9651 36.3914 64.2625 36.8878 64.435C53.6505 70.3082 71.9119 70.3082 88.6746 64.435C89.171 64.2625 89.6147 63.9651 89.9629 63.5715C90.3111 63.1779 90.5522 62.7013 90.663 62.1876C90.7737 61.6739 90.7504 61.1403 90.5952 60.6382C90.4401 60.1361 90.1584 59.6823 89.7771 59.3206L62.7812 33.6875Z" fill="url(#paint1_linear_3_6192)"/>
<path d="M62.7813 19.9062L41.4509 41.2366C41.1005 41.5889 40.841 42.0212 40.695 42.4962C40.5489 42.9712 40.5206 43.4746 40.6126 43.963C40.7045 44.4513 40.9139 44.91 41.2227 45.2993C41.5315 45.6887 41.9304 45.9971 42.385 46.1978C48.8157 49.0155 55.7604 50.4702 62.7813 50.4702C69.8021 50.4702 76.7468 49.0155 83.1775 46.1978C83.6321 45.9971 84.031 45.6887 84.3398 45.2993C84.6486 44.91 84.858 44.4513 84.95 43.963C85.0419 43.4746 85.0136 42.9712 84.8676 42.4962C84.7215 42.0212 84.462 41.5889 84.1116 41.2366L62.7813 19.9062Z" fill="url(#paint2_linear_3_6192)"/>
<path d="M27.5625 24.5C26.0482 24.5 24.568 24.949 23.3089 25.7903C22.0499 26.6316 21.0685 27.8273 20.4891 29.2263C19.9096 30.6253 19.7579 32.1647 20.0534 33.6499C20.3488 35.1351 21.078 36.4993 22.1487 37.57C23.2195 38.6408 24.5837 39.37 26.0688 39.6654C27.554 39.9608 29.0934 39.8092 30.4924 39.2297C31.8914 38.6502 33.0872 37.6689 33.9284 36.4098C34.7697 35.1508 35.2188 33.6705 35.2188 32.1563C35.2188 31.1508 35.0207 30.1552 34.636 29.2263C34.2512 28.2974 33.6872 27.4534 32.9763 26.7425C32.2653 26.0315 31.4213 25.4676 30.4924 25.0828C29.5635 24.698 28.5679 24.5 27.5625 24.5ZM27.5625 36.75C26.6539 36.75 25.7658 36.4806 25.0104 35.9758C24.2549 35.471 23.6661 34.7536 23.3184 33.9142C22.9707 33.0748 22.8798 32.1512 23.057 31.2601C23.2343 30.369 23.6718 29.5504 24.3142 28.908C24.9567 28.2655 25.7752 27.828 26.6663 27.6508C27.5574 27.4735 28.4811 27.5645 29.3205 27.9122C30.1599 28.2599 30.8773 28.8487 31.3821 29.6041C31.8868 30.3595 32.1563 31.2477 32.1563 32.1563C32.1563 33.3746 31.6723 34.543 30.8108 35.4045C29.9493 36.266 28.7808 36.75 27.5625 36.75Z" fill="url(#paint3_linear_3_6192)"/>
<path d="M21.4375 36.75H33.6875C34.4997 36.75 35.2787 37.0727 35.853 37.647C36.4273 38.2213 36.75 39.0003 36.75 39.8125V45.9375H18.375V39.8125C18.375 39.0003 18.6977 38.2213 19.272 37.647C19.8463 37.0727 20.6253 36.75 21.4375 36.75Z" fill="url(#paint4_linear_3_6192)"/>
<path d="M27.5625 98C42.7848 98 55.125 85.6598 55.125 70.4375C55.125 55.2152 42.7848 42.875 27.5625 42.875C12.3402 42.875 0 55.2152 0 70.4375C0 85.6598 12.3402 98 27.5625 98Z" fill="url(#paint5_linear_3_6192)"/>
<path d="M52.2463 82.6875C51.151 84.9101 49.7547 86.9712 48.0966 88.8125H7.02847C5.3704 86.9712 3.97403 84.9101 2.87878 82.6875H52.2463Z" fill="url(#paint6_linear_3_6192)"/>
<path d="M33.6875 81.1562H21.4375C20.5918 81.1562 19.9062 81.8418 19.9062 82.6875V88.8125C19.9062 89.6582 20.5918 90.3438 21.4375 90.3438H33.6875C34.5332 90.3438 35.2188 89.6582 35.2188 88.8125V82.6875C35.2188 81.8418 34.5332 81.1562 33.6875 81.1562Z" fill="url(#paint7_linear_3_6192)"/>
<path d="M30.625 87.2812H24.5C24.0939 87.2812 23.7044 87.1199 23.4172 86.8328C23.1301 86.5456 22.9688 86.1561 22.9688 85.75C22.9688 85.3439 23.1301 84.9544 23.4172 84.6672C23.7044 84.3801 24.0939 84.2188 24.5 84.2188H30.625C31.0311 84.2188 31.4206 84.3801 31.7078 84.6672C31.9949 84.9544 32.1562 85.3439 32.1562 85.75C32.1562 86.1561 31.9949 86.5456 31.7078 86.8328C31.4206 87.1199 31.0311 87.2812 30.625 87.2812Z" fill="url(#paint8_linear_3_6192)"/>
<path d="M27.5625 75.0312C29.2539 75.0312 30.625 73.6601 30.625 71.9688C30.625 70.2774 29.2539 68.9062 27.5625 68.9062C25.8711 68.9062 24.5 70.2774 24.5 71.9688C24.5 73.6601 25.8711 75.0312 27.5625 75.0312Z" fill="url(#paint9_linear_3_6192)"/>
<path d="M27.5625 59.7188C29.2539 59.7188 30.625 58.3476 30.625 56.6562C30.625 54.9649 29.2539 53.5938 27.5625 53.5938C25.8711 53.5938 24.5 54.9649 24.5 56.6562C24.5 58.3476 25.8711 59.7188 27.5625 59.7188Z" fill="url(#paint10_linear_3_6192)"/>
<path d="M41.3438 67.375C40.1254 67.375 38.957 66.891 38.0955 66.0295C37.234 65.168 36.75 63.9996 36.75 62.7812V58.1875H45.9375V62.7812C45.9375 63.9996 45.4535 65.168 44.592 66.0295C43.7305 66.891 42.5621 67.375 41.3438 67.375Z" fill="#FFABB7"/>
<path d="M26.0312 30.625V0H29.0938V30.625C29.0938 31.0311 28.9324 31.4206 28.6453 31.7078C28.3581 31.9949 27.9686 32.1562 27.5625 32.1562C27.1564 32.1562 26.7669 31.9949 26.4797 31.7078C26.1926 31.4206 26.0312 31.0311 26.0312 30.625Z" fill="url(#paint11_linear_3_6192)"/>
<path d="M62.7813 10.7188C61.5698 10.7188 60.3856 11.078 59.3784 11.751C58.3711 12.424 57.5861 13.3806 57.1225 14.4998C56.6589 15.619 56.5376 16.8505 56.7739 18.0387C57.0103 19.2268 57.5936 20.3182 58.4502 21.1748C59.3068 22.0314 60.3982 22.6147 61.5863 22.8511C62.7745 23.0874 64.006 22.9661 65.1252 22.5025C66.2444 22.0389 67.201 21.2539 67.874 20.2466C68.547 19.2394 68.9063 18.0552 68.9063 16.8438C68.9063 15.2193 68.2609 13.6614 67.1123 12.5127C65.9636 11.3641 64.4057 10.7188 62.7813 10.7188ZM62.7813 19.9062C62.1755 19.9062 61.5834 19.7266 61.0798 19.3901C60.5762 19.0536 60.1837 18.5753 59.9519 18.0157C59.7201 17.4561 59.6594 16.8404 59.7776 16.2463C59.8958 15.6522 60.1874 15.1065 60.6157 14.6782C61.044 14.2499 61.5897 13.9583 62.1838 13.8401C62.7779 13.7219 63.3936 13.7826 63.9532 14.0144C64.5128 14.2462 64.9911 14.6387 65.3276 15.1423C65.6641 15.6459 65.8438 16.238 65.8438 16.8438C65.8438 17.656 65.5211 18.4349 64.9468 19.0093C64.3724 19.5836 63.5935 19.9062 62.7813 19.9062Z" fill="url(#paint12_linear_3_6192)"/>
<path d="M61.25 15.3125V0H64.3125V15.3125C64.3125 15.7186 64.1512 16.1081 63.864 16.3953C63.5768 16.6824 63.1874 16.8438 62.7812 16.8438C62.3751 16.8438 61.9857 16.6824 61.6985 16.3953C61.4113 16.1081 61.25 15.7186 61.25 15.3125Z" fill="url(#paint13_linear_3_6192)"/>
<defs>
<linearGradient id="paint0_linear_3_6192" x1="62.7812" y1="94.6006" x2="62.7812" y2="29.6297" gradientUnits="userSpaceOnUse">
<stop stop-color="#1A7804"/>
<stop offset="1" stop-color="#D4E6B6"/>
</linearGradient>
<linearGradient id="paint1_linear_3_6192" x1="62.7812" y1="64.1288" x2="62.7812" y2="10.045" gradientUnits="userSpaceOnUse">
<stop stop-color="#1A7804"/>
<stop offset="1" stop-color="#D4E6B6"/>
</linearGradient>
<linearGradient id="paint2_linear_3_6192" x1="62.7813" y1="52.0931" x2="62.7813" y2="9.57031" gradientUnits="userSpaceOnUse">
<stop stop-color="#1A7804"/>
<stop offset="1" stop-color="#D4E6B6"/>
</linearGradient>
<linearGradient id="paint3_linear_3_6192" x1="19.9063" y1="32.1563" x2="35.2188" y2="32.1563" gradientUnits="userSpaceOnUse">
<stop stop-color="#FF0022"/>
<stop offset="1" stop-color="#F4929C"/>
</linearGradient>
<linearGradient id="paint4_linear_3_6192" x1="18.375" y1="41.3438" x2="36.75" y2="41.3438" gradientUnits="userSpaceOnUse">
<stop stop-color="#474F72"/>
<stop offset="1" stop-color="#878C9F"/>
</linearGradient>
<linearGradient id="paint5_linear_3_6192" x1="0" y1="70.4375" x2="55.125" y2="70.4375" gradientUnits="userSpaceOnUse">
<stop stop-color="#FF0408"/>
<stop offset="1" stop-color="#F4929C"/>
</linearGradient>
<linearGradient id="paint6_linear_3_6192" x1="2.87878" y1="85.75" x2="52.2463" y2="85.75" gradientUnits="userSpaceOnUse">
<stop stop-color="#D4D8E1"/>
<stop offset="1" stop-color="#F3F4F5"/>
</linearGradient>
<linearGradient id="paint7_linear_3_6192" x1="19.9062" y1="85.75" x2="35.2188" y2="85.75" gradientUnits="userSpaceOnUse">
<stop stop-color="#FBCC88"/>
<stop offset="1" stop-color="#FFE5C3"/>
</linearGradient>
<linearGradient id="paint8_linear_3_6192" x1="22.9841" y1="85.75" x2="32.1409" y2="85.75" gradientUnits="userSpaceOnUse">
<stop stop-color="#474F72"/>
<stop offset="1" stop-color="#878C9F"/>
</linearGradient>
<linearGradient id="paint9_linear_3_6192" x1="24.5" y1="71.9688" x2="30.625" y2="71.9688" gradientUnits="userSpaceOnUse">
<stop stop-color="#474F72"/>
<stop offset="1" stop-color="#878C9F"/>
</linearGradient>
<linearGradient id="paint10_linear_3_6192" x1="24.5" y1="56.6562" x2="30.625" y2="56.6562" gradientUnits="userSpaceOnUse">
<stop stop-color="#474F72"/>
<stop offset="1" stop-color="#878C9F"/>
</linearGradient>
<linearGradient id="paint11_linear_3_6192" x1="26.0312" y1="16.0628" x2="29.0938" y2="16.0628" gradientUnits="userSpaceOnUse">
<stop stop-color="#FBCC88"/>
<stop offset="1" stop-color="#FFE5C3"/>
</linearGradient>
<linearGradient id="paint12_linear_3_6192" x1="62.7813" y1="21.3303" x2="62.7813" y2="2.48062" gradientUnits="userSpaceOnUse">
<stop stop-color="#1A7804"/>
<stop offset="1" stop-color="#D4E6B6"/>
</linearGradient>
<linearGradient id="paint13_linear_3_6192" x1="61.25" y1="8.40656" x2="64.3125" y2="8.40656" gradientUnits="userSpaceOnUse">
<stop stop-color="#FBCC88"/>
<stop offset="1" stop-color="#FFE5C3"/>
</linearGradient>
</defs>
</svg>
