<svg width="59" height="55" viewBox="0 0 59 55" fill="none" xmlns="http://www.w3.org/2000/svg">
<path d="M33.9902 35.4561C31.3345 38.6314 31.203 44.3139 31.427 47.0836C31.6511 49.8533 31.2053 50.6522 31.2053 50.6522C31.2053 50.6522 29.2677 43.6174 18.9541 38.8287C10.0073 34.6747 2.14099 36.6036 2.14099 36.6036C2.14099 36.6036 8.57879 34.2761 12.2143 28.3411C18.9838 17.3077 24.0489 18.0949 24.0489 18.0949L31.576 18.9823C31.576 18.9823 30.0259 24.9173 31.2053 27.3193C32.3848 29.7212 33.9902 35.4561 33.9902 35.4561Z" fill="#FA9800"/>
<path d="M31.2049 50.6523C31.2049 50.6523 30.7941 58.6401 12.2261 49.4798C-4.11631 41.4186 2.14053 36.6037 2.14053 36.6037C2.14053 36.6037 23.8006 33.5913 31.2049 50.6523Z" fill="#FA9800"/>
<path d="M16.1723 44.4093C18.0133 45.2239 19.9957 44.7764 20.6009 43.4102L20.6131 43.3788C19.5726 42.7174 18.4906 42.1236 17.3738 41.6012C16.2799 41.0929 15.1449 40.6783 13.981 40.3618C13.9647 40.3944 13.9484 40.4264 13.9333 40.4602C13.3287 41.8264 14.3313 43.5947 16.1723 44.4093Z" fill="#FA9800"/>
<path d="M4.16614 39.5129C4.16614 39.5129 11.3138 38.739 17.5258 41.6536C25.5934 45.4375 28.3044 51.0601 28.3044 51.0601" fill="#FA9800"/>
<path d="M20.2824 22.3408C20.2824 22.3408 28.098 24.7079 28.6374 31.2725C29.1768 37.8372 26.0533 39.8528 22.6849 39.9877C22.6849 39.9877 30.3493 47.4048 30.5715 48.483C30.7554 49.3785 31.9203 39.1283 33.6613 35.8495C34.0104 35.1891 33.7357 34.3564 33.4285 33.6739L30.0502 26.1137L30.5698 19.4804L22.9741 18.7699L18.0637 21.2655L20.2824 22.3408Z" fill="#FA6F00"/>
<path d="M39.5924 18.1088C39.5924 18.1088 43.3413 17.2157 49.0128 25.8023C52.0612 30.4177 57.0048 31.9742 57.0048 31.9742C57.0048 31.9742 51.0116 30.8139 44.5423 34.6287C37.0851 39.0259 36.0203 44.8166 36.0203 44.8166C36.0203 44.8166 35.6426 44.1923 35.6583 41.9399C35.674 39.6874 35.496 35.8035 34.0873 34.2109C34.0873 34.2109 28.3012 26.0769 31.5783 18.9822" fill="#F3970D"/>
<path d="M57.0051 31.9743C57.3617 32.2518 57.636 32.6211 57.7987 33.0426C58.9107 36.0166 53.6157 40.6552 50.1618 42.9065C45.8245 45.7344 38.7694 48.4639 36.6043 46.0579C36.2986 45.7064 36.0971 45.2766 36.0224 44.8168C34.9564 39.0342 52.5916 28.454 57.0051 31.9743Z" fill="#F3970D"/>
<path d="M46.9293 39.0032C45.5962 39.7561 44.0874 39.4943 43.5602 38.4213C43.5562 38.4131 43.5527 38.405 43.5492 38.3969C44.2884 37.8112 45.066 37.2757 45.8767 36.7938C46.6638 36.3292 47.491 35.9362 48.3484 35.6196C48.3624 35.6446 48.3764 35.6702 48.3892 35.6964C48.9164 36.7693 48.2617 38.2508 46.9293 39.0032Z" fill="#F3970D"/>
<path d="M55.6483 34.4328C55.6483 34.4328 50.2573 34.1692 45.7664 36.8417C39.9349 40.3126 38.2137 45.0001 38.2137 45.0001" fill="#F3970D"/>
<path d="M45.1196 22.2665C42.9143 22.4062 40.8195 23.3412 39.2875 24.9367C38.2611 26.005 37.4133 27.4387 37.3266 29.2908C37.0938 34.2297 39.4213 35.6669 41.8861 35.6867C41.8861 35.6867 36.4747 41.4361 36.3403 42.2508C36.228 42.9269 35.1242 35.2654 33.7731 32.8454C33.5014 32.3584 31.0116 25.6204 31.2175 25.1008L31.587 18.7404L35.6234 20.486L40.2662 18.0776L46.5021 22.1792L45.1196 22.2665Z" fill="#FA6F00"/>
<path d="M31.9203 17.5323C34.0766 17.5323 35.8247 14.9647 35.8247 11.7974C35.8247 8.63005 34.0766 6.06244 31.9203 6.06244C29.764 6.06244 28.016 8.63005 28.016 11.7974C28.016 14.9647 29.764 17.5323 31.9203 17.5323Z" fill="#E20613"/>
<path d="M34.2301 7.17446C34.2301 7.17446 40.4386 -0.10472 43.611 1.30166C45.3525 2.07263 49.0462 9.95405 44.9621 16.7136C44.9621 16.7136 41.1049 20.2217 35.1727 14.6154" fill="#E20613"/>
<path d="M29.2656 7.17446C29.2656 7.17446 23.057 -0.10472 19.8841 1.30166C18.1437 2.07263 14.4494 9.95405 18.533 16.7136C18.533 16.7136 22.3908 20.2217 28.3229 14.6154" fill="#E20613"/>
<path d="M27.6592 15.2122L19.1948 23.6842L24.6516 22.7457L25.1491 27.3192L31.9191 17.5321" fill="#E20613"/>
<path d="M35.6862 15.2122L44.1507 23.6842L38.6939 22.7457L38.1964 27.3192L31.4263 17.5321" fill="#E20613"/>
<path d="M4.56421 41.5C5.72038 42.4398 14.6463 49.4629 26.5461 51.8276C26.5461 51.8276 29.4368 52.1803 27.1099 49.8534C24.783 47.5265 19.2855 40.9775 12.6522 40.4085C6.01888 39.8394 3.13572 39.3093 3.45865 40.1513C3.64198 40.6213 3.95145 41.0316 4.35299 41.3371C4.42747 41.3901 4.49787 41.4436 4.56421 41.5Z" fill="#FA6F00"/>
<path d="M55.7503 35.7163C54.9241 36.4873 48.5165 42.2763 39.4434 44.9552C39.4434 44.9552 37.2224 45.4457 38.8551 43.5791C40.4879 41.7124 44.2665 36.5443 49.3788 35.5923C54.4912 34.6404 56.6947 34.0213 56.5062 34.6544C56.3949 35.0139 56.1853 35.3352 55.901 35.5819C55.8498 35.6261 55.7992 35.6726 55.7503 35.7163Z" fill="#FA6F00"/>
<path d="M11.0487 33.7738C10.9251 33.774 10.8047 33.7349 10.7048 33.6621C10.605 33.5893 10.5309 33.4866 10.4933 33.3689C10.4557 33.2512 10.4565 33.1246 10.4957 33.0074C10.5349 32.8902 10.6104 32.7885 10.7112 32.7171C11.8998 31.8143 12.9612 30.7552 13.8667 29.5686C15.1026 27.9394 16.6597 25.1656 16.6777 25.1377C16.715 25.0709 16.7651 25.012 16.8252 24.9646C16.8852 24.9172 16.9541 24.8821 17.0277 24.8613C17.1014 24.8405 17.1784 24.8345 17.2544 24.8435C17.3304 24.8525 17.4039 24.8764 17.4706 24.9139C17.5373 24.9514 17.596 25.0016 17.6433 25.0618C17.6906 25.122 17.7255 25.1909 17.7461 25.2646C17.7667 25.3383 17.7726 25.4153 17.7634 25.4913C17.7542 25.5673 17.7301 25.6407 17.6925 25.7073C17.6273 25.8237 16.079 28.5759 14.7942 30.2715C13.2167 32.3534 11.4595 33.6132 11.385 33.6661C11.2869 33.7362 11.1693 33.7739 11.0487 33.7738V33.7738Z" fill="#FFEABA"/>
<path d="M49.0933 30.1258C48.9777 30.126 48.8648 30.0913 48.7692 30.0263C48.0608 29.5163 47.4255 28.9118 46.8811 28.2295C46.152 27.3229 45.2233 25.8252 45.1843 25.7624C45.1415 25.6974 45.1121 25.6245 45.098 25.548C45.0838 25.4715 45.0851 25.3929 45.1019 25.3169C45.1186 25.2409 45.1505 25.169 45.1955 25.1055C45.2405 25.0421 45.2978 24.9883 45.3639 24.9473C45.4301 24.9064 45.5038 24.8791 45.5807 24.8671C45.6576 24.8552 45.7361 24.8588 45.8116 24.8777C45.8871 24.8966 45.958 24.9305 46.0202 24.9773C46.0823 25.0241 46.1345 25.0829 46.1735 25.1502C46.1828 25.1648 47.1045 26.6503 47.787 27.5004C48.2602 28.0909 48.8094 28.6163 49.4203 29.0627C49.5233 29.1327 49.601 29.2338 49.6423 29.3513C49.6835 29.4688 49.6859 29.5963 49.6493 29.7153C49.6126 29.8342 49.5388 29.9383 49.4386 30.0122C49.3384 30.0861 49.2172 30.1259 49.0927 30.1258H49.0933Z" fill="#FFEABA"/>
<path d="M44.5305 8.82576C44.3841 8.82624 44.2428 8.77145 44.1349 8.67232C44.027 8.5732 43.9605 8.43703 43.9487 8.29102C43.8218 6.73743 43.1172 5.42183 42.5487 4.5915C42.4607 4.46464 42.3302 4.37345 42.1808 4.33439C42.0314 4.29534 41.8729 4.311 41.7341 4.37854L40.2986 5.07678C40.2298 5.11029 40.1552 5.12992 40.0788 5.13456C40.0024 5.1392 39.9259 5.12875 39.8536 5.10382C39.7075 5.05346 39.5875 4.94714 39.5198 4.80825C39.4521 4.66936 39.4424 4.50928 39.4928 4.36322C39.5431 4.21716 39.6494 4.09709 39.7883 4.02942L41.2244 3.33118C41.6139 3.14326 42.0578 3.10055 42.476 3.21074C42.8943 3.32093 43.2595 3.57678 43.5059 3.93225C44.1541 4.87837 44.9605 6.38599 45.1054 8.19501C45.118 8.34879 45.0689 8.50125 44.9691 8.61888C44.8693 8.73651 44.7268 8.80966 44.573 8.82227L44.5305 8.82576Z" fill="#FE5B4A"/>
<path d="M18.9407 8.54296H18.893C18.7392 8.53036 18.5967 8.4572 18.4969 8.33957C18.3971 8.22195 18.348 8.06948 18.3606 7.91571C18.5084 6.10668 19.3119 4.59906 19.9601 3.65294C20.2066 3.29743 20.5719 3.04156 20.9903 2.93137C21.4086 2.82119 21.8526 2.86392 22.2422 3.05187L23.6777 3.75011C23.8166 3.81778 23.9229 3.93786 23.9733 4.08391C24.0236 4.22997 24.0139 4.39006 23.9462 4.52894C23.8786 4.66783 23.7585 4.77415 23.6124 4.82451C23.4664 4.87487 23.3063 4.86515 23.1674 4.79748L21.7319 4.09924C21.5937 4.03201 21.436 4.0163 21.2872 4.0549C21.1385 4.09351 21.0083 4.18392 20.9202 4.30987C20.3517 5.13962 19.6471 6.45522 19.5202 8.00881C19.5083 8.15431 19.442 8.29 19.3347 8.38895C19.2273 8.48789 19.0867 8.54287 18.9407 8.54296V8.54296Z" fill="#FE5B4A"/>
<path d="M33.8243 13.8996C33.8018 13.8994 33.7792 13.898 33.7568 13.8955C33.6809 13.8867 33.6074 13.8631 33.5407 13.8259C33.4739 13.7887 33.4151 13.7387 33.3677 13.6787C33.3203 13.6188 33.2851 13.5501 33.2642 13.4766C33.2433 13.4031 33.2371 13.3262 33.2459 13.2503C33.6719 9.57286 31.7389 8.52317 31.6569 8.47895L31.6621 8.48186L32.1759 7.43799C32.2888 7.49327 34.9275 8.84727 34.4021 13.3835C34.386 13.5255 34.3181 13.6565 34.2116 13.7517C34.105 13.8469 33.9672 13.8995 33.8243 13.8996V13.8996Z" fill="#FE5B4A"/>
<path d="M31.9203 18.2881C30.6192 18.2881 29.4183 17.5742 28.5344 16.2778C27.7122 15.0704 27.2595 13.479 27.2595 11.7974C27.2595 10.1158 27.7122 8.52438 28.5344 7.317C29.4165 6.02059 30.6192 5.30664 31.9203 5.30664C33.2214 5.30664 34.4223 6.02059 35.3062 7.317C36.1284 8.52438 36.5811 10.1158 36.5811 11.7974C36.5811 13.479 36.1284 15.071 35.3062 16.2778C34.4235 17.5765 33.2214 18.2881 31.9203 18.2881ZM31.9203 6.81892C30.2137 6.81892 28.7724 9.09868 28.7724 11.7968C28.7724 14.4949 30.2137 16.7753 31.9203 16.7753C33.6269 16.7753 35.0682 14.4955 35.0682 11.7968C35.0682 9.0981 33.6263 6.81892 31.9203 6.81892Z" fill="#690A3F"/>
<path d="M41.6935 18.554C40.7933 18.554 39.8687 18.373 38.9342 18.0146C37.5191 17.4706 36.079 16.5122 34.654 15.1635L35.6944 14.0655C40.6246 18.7245 43.8376 16.6333 44.3817 16.2137C45.3683 14.5369 45.9362 12.6469 46.0371 10.704C46.1284 8.99456 45.9116 7.28263 45.3971 5.64989C44.6913 3.40737 43.6875 2.16159 43.3076 1.99285C42.3248 1.55703 40.475 2.38968 38.2342 4.27785C36.3531 5.86227 34.8233 7.64745 34.8082 7.66549L33.6578 6.68329C34.766 5.41443 35.9653 4.22814 37.2462 3.13389C40.0724 0.748227 42.3184 -0.0989733 43.9209 0.611489C44.9467 1.06651 46.1203 2.90929 46.8407 5.1972C47.4109 7.00501 47.6508 8.90075 47.5488 10.7936C47.4161 13.0757 46.765 15.1995 45.6129 17.1063L45.5547 17.2012L45.4733 17.2751C45.4262 17.3175 44.3026 18.3224 42.3719 18.5208C42.1465 18.5436 41.92 18.5547 41.6935 18.554V18.554Z" fill="#690A3F"/>
<path d="M21.8034 18.554C21.5771 18.5541 21.3511 18.5424 21.1261 18.5191C19.1949 18.3201 18.0713 17.3158 18.0247 17.2733L17.9433 17.1994L17.8851 17.1046C16.733 15.1978 16.0813 13.074 15.9492 10.7919C15.8471 8.89905 16.0867 7.00331 16.6567 5.19546C17.3777 2.90755 18.5507 1.06419 19.5771 0.609752C21.1796 -0.10071 23.425 0.748236 26.2511 3.13215C27.5323 4.22631 28.7318 5.4126 29.8401 6.68155L28.6892 7.66375L29.2646 7.17265L28.6892 7.66375C28.674 7.64571 27.1437 5.85996 25.2626 4.27611C23.0218 2.38794 21.1732 1.55529 20.1898 1.99111C19.8099 2.15985 18.8062 3.40563 18.0998 5.64815C17.5853 7.28089 17.3685 8.99282 17.4597 10.7023C17.5608 12.6451 18.1284 14.535 19.1146 16.212C19.6592 16.6315 22.8722 18.7227 27.8024 14.0637L28.8416 15.1635C27.416 16.5105 25.9759 17.4688 24.5608 18.0146C23.6826 18.3623 22.7478 18.5451 21.8034 18.554Z" fill="#690A3F"/>
<path d="M25.1501 28.0756C24.9635 28.0757 24.7835 28.0069 24.6446 27.8823C24.5057 27.7577 24.4178 27.5862 24.3977 27.4007L23.9904 23.6279L19.3268 24.4297C19.1685 24.4569 19.0057 24.433 18.8619 24.3616C18.7181 24.2901 18.6008 24.1748 18.527 24.0322C18.4531 23.8896 18.4265 23.7273 18.451 23.5686C18.4756 23.4099 18.55 23.2631 18.6634 23.1496L27.1273 14.6776C27.1975 14.6073 27.2809 14.5516 27.3726 14.5135C27.4644 14.4755 27.5627 14.4559 27.6621 14.4559C27.7614 14.4558 27.8598 14.4754 27.9516 14.5134C28.0434 14.5514 28.1268 14.6071 28.197 14.6773C28.2673 14.7475 28.323 14.8309 28.3611 14.9226C28.3991 15.0144 28.4187 15.1128 28.4187 15.2121C28.4187 15.3114 28.3992 15.4098 28.3612 15.5016C28.3232 15.5934 28.2675 15.6768 28.1973 15.747L21.4133 22.5357L24.5222 21.9986C24.624 21.9811 24.7283 21.9846 24.8287 22.0089C24.929 22.0332 25.0234 22.0778 25.1058 22.1399C25.1883 22.2021 25.2572 22.2805 25.3082 22.3702C25.3593 22.46 25.3914 22.5593 25.4026 22.662L25.6802 25.2175L31.2957 17.0999C31.3516 17.0166 31.4234 16.9452 31.507 16.8899C31.5907 16.8346 31.6845 16.7964 31.783 16.7777C31.8816 16.759 31.9828 16.7601 32.081 16.7809C32.1791 16.8016 32.2721 16.8417 32.3545 16.8988C32.437 16.9558 32.5073 17.0287 32.5614 17.1132C32.6154 17.1977 32.6521 17.2921 32.6694 17.3909C32.6866 17.4896 32.684 17.5909 32.6618 17.6887C32.6395 17.7865 32.5981 17.8789 32.5398 17.9605L25.7721 27.7492C25.7025 27.8499 25.6096 27.9322 25.5013 27.989C25.3929 28.0459 25.2724 28.0756 25.1501 28.0756V28.0756Z" fill="#690A3F"/>
<path d="M38.1954 28.0757C38.073 28.0756 37.9525 28.0459 37.8442 27.9891C37.7358 27.9322 37.6429 27.8499 37.5734 27.7493L30.8056 17.9622C30.7474 17.8806 30.7059 17.7882 30.6836 17.6904C30.6614 17.5926 30.6588 17.4914 30.6761 17.3926C30.6933 17.2938 30.73 17.1994 30.784 17.1149C30.8381 17.0305 30.9084 16.9576 30.9909 16.9005C31.0734 16.8435 31.1664 16.8034 31.2645 16.7826C31.3626 16.7618 31.4638 16.7608 31.5624 16.7795C31.6609 16.7982 31.7547 16.8363 31.8384 16.8916C31.922 16.9469 31.9939 17.0183 32.0497 17.1016L37.6653 25.2193L37.9429 22.6637C37.9539 22.561 37.9858 22.4617 38.0366 22.3718C38.0875 22.2819 38.1563 22.2034 38.2386 22.1411C38.321 22.0787 38.4153 22.034 38.5156 22.0095C38.6159 21.985 38.7202 21.9813 38.8221 21.9986L41.9333 22.534L35.1516 15.747C35.0814 15.6768 35.0257 15.5934 34.9877 15.5016C34.9497 15.4098 34.9302 15.3114 34.9302 15.2121C34.9302 15.1128 34.9498 15.0144 34.9879 14.9226C35.0259 14.8309 35.0817 14.7475 35.1519 14.6773C35.2222 14.6071 35.3056 14.5514 35.3974 14.5134C35.4892 14.4754 35.5875 14.4558 35.6869 14.4559C35.7862 14.4559 35.8846 14.4755 35.9763 14.5135C36.0681 14.5516 36.1515 14.6073 36.2217 14.6776L44.6855 23.1496C44.799 23.2632 44.8734 23.4099 44.898 23.5686C44.9225 23.7273 44.8959 23.8897 44.822 24.0322C44.7482 24.1748 44.6308 24.2902 44.4871 24.3616C44.3433 24.4331 44.1805 24.4569 44.0222 24.4297L39.3591 23.6279L38.9518 27.4007C38.9316 27.5869 38.8431 27.759 38.7034 27.8837C38.5637 28.0084 38.3827 28.0768 38.1954 28.0757V28.0757Z" fill="#690A3F"/>
<path d="M31.2054 51.4085C31.175 51.4085 31.1447 51.4068 31.1146 51.4033C30.9653 51.3855 30.8246 51.3237 30.7106 51.2256C30.5966 51.1276 30.5144 50.9978 30.4745 50.8528C30.4699 50.8383 29.9811 49.1491 28.2873 46.92C26.7221 44.8596 23.7766 41.9025 18.6341 39.5151C15.0575 37.8625 11.1747 36.9765 7.23528 36.9142C4.26775 36.8734 2.33769 37.3314 2.31849 37.336C2.13016 37.3826 1.93115 37.355 1.76258 37.259C1.59401 37.163 1.46876 37.0059 1.41273 36.8202C1.3567 36.6344 1.37417 36.4343 1.46152 36.2611C1.54887 36.0879 1.69943 35.9548 1.88208 35.8895C1.89721 35.8842 3.46418 35.3076 5.43847 34.0368C7.24226 32.8731 9.77164 30.8755 11.5679 27.9476C14.4441 23.2594 17.3813 20.0539 20.2959 18.4206C22.571 17.1469 24.0042 17.3226 24.1607 17.3471L23.9279 18.8419H23.9413C23.9297 18.8419 22.7735 18.7185 20.8574 19.8415C19.0455 20.9029 16.1868 23.3071 12.8561 28.7371C10.9063 31.9252 8.17151 34.0834 6.22166 35.3332L6.10529 35.4083C6.45441 35.399 6.81982 35.3961 7.20269 35.4007C11.3742 35.4587 15.4869 36.3928 19.2741 38.1425C24.7437 40.6823 27.8858 43.8617 29.5529 46.0815C29.9725 46.6382 30.361 47.2176 30.7166 47.8172C30.7067 47.6083 30.6927 47.3849 30.673 47.1446C30.5636 45.7888 30.1801 38.8326 33.4077 34.9707C33.4709 34.8927 33.5489 34.8281 33.6373 34.7805C33.7257 34.733 33.8227 34.7035 33.9225 34.6938C34.0224 34.6841 34.1232 34.6944 34.2191 34.724C34.315 34.7537 34.404 34.8021 34.481 34.8665C34.558 34.9309 34.6214 35.0099 34.6675 35.0991C34.7136 35.1882 34.7415 35.2856 34.7496 35.3857C34.7577 35.4857 34.7458 35.5863 34.7146 35.6817C34.6835 35.7771 34.6336 35.8653 34.568 35.9413C33.4892 37.2307 32.7514 39.1136 32.3738 41.5383C31.9944 43.9757 32.1113 46.1857 32.1788 47.0224C32.4116 49.8735 31.9566 50.8534 31.8635 51.0204C31.7981 51.1377 31.7027 51.2354 31.587 51.3036C31.4714 51.3719 31.3396 51.408 31.2054 51.4085Z" fill="#690A3F"/>
<path d="M26.1511 54.6351C25.394 54.6305 24.6383 54.5686 23.8905 54.4501C20.7205 53.9666 16.6841 52.5224 11.8912 50.1611C4.48401 46.5041 0.560473 42.9629 0.229971 39.6334C0.000714794 37.3229 1.61075 36.055 1.67941 36.002L2.60225 37.2007L2.60749 37.1966C2.28642 37.4839 2.03966 37.8446 1.88828 38.248C1.7369 38.6514 1.6854 39.0854 1.73818 39.513C1.86153 40.6465 2.61098 41.8922 3.9615 43.2166C5.79147 45.0099 8.68453 46.8882 12.5609 48.8025C17.1845 51.0828 21.0562 52.4776 24.0598 52.9465C26.2616 53.2898 27.9508 53.1374 29.0808 52.4933C30.3469 51.7723 30.4464 50.6522 30.4499 50.6051V50.6138L31.9628 50.6918C31.9587 50.7704 31.8412 52.6294 29.8867 53.7757C28.9091 54.3506 27.6581 54.6351 26.1511 54.6351Z" fill="#690A3F"/>
<path d="M18.0305 45.5732C17.2843 45.5669 16.5475 45.4054 15.8671 45.099V45.099C14.829 44.6399 13.9807 43.8986 13.4785 43.0124C12.9345 42.0529 12.8507 41.0369 13.2429 40.1513C13.2655 40.1001 13.2882 40.0553 13.3074 40.0169C13.3864 39.862 13.5163 39.739 13.6752 39.6687C13.8342 39.5983 14.0125 39.5848 14.1802 39.6305C15.3854 39.9586 16.5607 40.388 17.6936 40.9142C18.8397 41.4507 19.9503 42.0602 21.0184 42.7389C21.1677 42.8346 21.2787 42.9798 21.3319 43.149C21.385 43.3182 21.3771 43.5007 21.3093 43.6647C21.3029 43.6821 21.2965 43.6972 21.2901 43.7124C20.8974 44.5997 20.0891 45.2206 19.0133 45.4632C18.6908 45.5361 18.3611 45.573 18.0305 45.5732V45.5732ZM16.4792 43.7176C17.6261 44.225 18.8614 44.1459 19.5282 43.6012C18.7345 43.1282 17.9054 42.6883 17.0535 42.2891C16.2303 41.9047 15.3819 41.5765 14.5142 41.3069C14.5229 41.6463 14.6194 41.9777 14.7941 42.2687C15.1374 42.8745 15.7356 43.3888 16.4786 43.7176H16.4792Z" fill="#690A3F"/>
<path d="M28.3037 51.8171C28.1612 51.8172 28.0216 51.777 27.901 51.7013C27.7803 51.6255 27.6835 51.5172 27.6217 51.3889C27.6159 51.3766 26.9456 50.018 25.3315 48.2311C23.8442 46.5838 21.2264 44.226 17.2039 42.3379C11.2514 39.5449 4.3161 40.2577 4.24686 40.2652C4.1481 40.2759 4.0482 40.2671 3.95286 40.2392C3.85752 40.2113 3.76861 40.1648 3.69121 40.1026C3.61381 40.0403 3.54943 39.9634 3.50176 39.8762C3.45408 39.7891 3.42403 39.6934 3.41333 39.5946C3.40264 39.4959 3.4115 39.396 3.43941 39.3006C3.46732 39.2053 3.51374 39.1164 3.57601 39.039C3.70177 38.8827 3.88448 38.7827 4.08394 38.7611C4.15958 38.753 5.96629 38.5621 8.56433 38.7355C10.968 38.8955 14.5291 39.4134 17.8451 40.9687C22.1277 42.9773 24.916 45.5073 26.5016 47.2704C28.2391 49.2068 28.9542 50.6703 28.9839 50.7319C29.0395 50.8472 29.065 50.9746 29.0579 51.1024C29.0508 51.2301 29.0115 51.354 28.9435 51.4624C28.8756 51.5708 28.7813 51.6602 28.6693 51.7223C28.5574 51.7843 28.4316 51.8169 28.3037 51.8171V51.8171Z" fill="#690A3F"/>
<path d="M36.0187 45.5719C35.8888 45.5719 35.7611 45.5384 35.6478 45.4747C35.5346 45.411 35.4397 45.3193 35.3722 45.2082C35.2559 45.0185 34.8852 44.2231 34.9015 41.9346C34.9271 38.366 34.4226 35.7336 33.5184 34.7125C33.5004 34.6924 33.4835 34.6715 33.4678 34.6496C33.4061 34.5629 31.9479 32.4967 30.8884 29.51C30.2611 27.7446 29.905 26.0187 29.8294 24.3895C29.7334 22.3204 30.09 20.3938 30.889 18.6645C30.9294 18.5725 30.9878 18.4895 31.0607 18.4203C31.1336 18.3511 31.2196 18.2971 31.3136 18.2615C31.4076 18.2259 31.5077 18.2094 31.6082 18.213C31.7086 18.2165 31.8073 18.2401 31.8986 18.2822C31.9898 18.3244 32.0718 18.3843 32.1396 18.4584C32.2074 18.5326 32.2598 18.6196 32.2936 18.7142C32.3275 18.8088 32.3421 18.9093 32.3367 19.0096C32.3313 19.11 32.306 19.2083 32.2622 19.2987C31.5692 20.8 31.2584 22.4816 31.3399 24.2976C31.4056 25.7755 31.7292 27.3466 32.3011 28.9665C33.2234 31.5814 34.507 33.4911 34.681 33.7436C35.3938 34.5693 35.8761 35.8686 36.1543 37.7149C36.3288 38.8786 36.4178 40.2257 36.4155 41.7257C36.542 41.4872 36.682 41.2393 36.8356 40.9821C37.9743 39.084 40.1686 36.3271 44.1578 33.9764C46.8979 32.3593 49.9678 31.3817 53.1384 31.1165C53.2497 31.1072 53.3591 31.0991 53.4665 31.0921C51.8321 30.0744 49.8933 28.508 48.381 26.2189C46.8687 23.9298 44.5378 20.9059 42.0299 19.5152C40.5805 18.7116 39.756 18.8478 39.7479 18.8489L39.7682 18.8449L39.4191 17.3733C39.5431 17.3436 40.6823 17.1121 42.5245 18.0634C43.5469 18.5912 44.6082 19.3901 45.6782 20.4369C46.9874 21.717 48.3217 23.3823 49.6454 25.3857C52.4989 29.7084 57.1858 31.2381 57.2324 31.2503C57.4167 31.3084 57.5718 31.4348 57.6659 31.6036C57.76 31.7723 57.7859 31.9707 57.7383 32.158C57.6908 32.3453 57.5733 32.5073 57.4101 32.6108C57.2469 32.7142 57.0502 32.7513 56.8606 32.7143C56.8478 32.7143 55.3954 32.4432 53.2029 32.627C50.2806 32.8814 47.4523 33.7872 44.9259 35.278C41.2468 37.4472 39.2236 39.9621 38.1762 41.6891C37.0399 43.5604 36.7675 44.94 36.7646 44.9534C36.7319 45.1268 36.6396 45.2832 36.5037 45.3958C36.3678 45.5083 36.1969 45.5698 36.0204 45.5696L36.0187 45.5719Z" fill="#690A3F"/>
<path d="M39.4992 47.9459C38.6357 47.9459 37.8822 47.7907 37.2386 47.4804C35.4878 46.6367 35.2766 44.9725 35.2684 44.9021L36.7714 44.7276V44.7177C36.7766 44.7561 36.9175 45.6609 37.9276 46.1305C38.3832 46.3428 38.9168 46.4365 39.5097 46.4365C42.554 46.4365 47.0693 43.9415 49.7628 42.2622C52.5389 40.5311 54.5847 38.8792 55.8445 37.3518C56.7644 36.2358 57.2468 35.2146 57.2782 34.3162C57.3178 33.1641 56.5701 32.5898 56.5625 32.5845C56.4 32.4669 56.2909 32.2895 56.2592 32.0913C56.2275 31.8932 56.2758 31.6906 56.3935 31.5281C56.5111 31.3656 56.6886 31.2565 56.8867 31.2248C57.0848 31.1931 57.2874 31.2414 57.4499 31.3591C57.5081 31.4004 58.858 32.4012 58.7882 34.3685C58.6933 37.1132 55.9254 40.2012 50.5611 43.5458C45.8689 46.4743 42.163 47.9453 39.4992 47.9459Z" fill="#690A3F"/>
<path d="M45.3751 40.1897C45.0568 40.1912 44.7402 40.1445 44.4359 40.0513C44.1014 39.9533 43.7907 39.7874 43.5232 39.564C43.2556 39.3405 43.0371 39.0643 42.8812 38.7525C42.8742 38.7392 42.8678 38.7246 42.8614 38.7095C42.7911 38.5557 42.7743 38.3828 42.8137 38.2184C42.8532 38.0539 42.9466 37.9075 43.079 37.8024C43.8444 37.1956 44.6496 36.6408 45.4891 36.1417C46.3153 35.654 47.1837 35.2413 48.0836 34.9087C48.2533 34.8454 48.44 34.8451 48.6099 34.9078C48.7797 34.9705 48.9215 35.092 49.0094 35.2503C49.0297 35.2864 49.0489 35.323 49.0676 35.3608C49.4231 36.0847 49.4167 36.9424 49.0489 37.775C48.708 38.5483 48.0871 39.2186 47.3034 39.662C46.7166 40.0006 46.0525 40.1824 45.3751 40.1897V40.1897ZM44.6495 38.5076C44.7236 38.5482 44.8015 38.5814 44.8822 38.6065C45.3716 38.7584 45.9976 38.66 46.5568 38.3446C47.2696 37.942 47.7438 37.2635 47.8078 36.6508C47.2767 36.8823 46.7604 37.1464 46.2618 37.4416C45.7073 37.7727 45.1667 38.1299 44.6495 38.5076V38.5076Z" fill="#690A3F"/>
<path d="M38.2142 45.7554C38.0925 45.7553 37.9727 45.7259 37.8649 45.6696C37.7571 45.6133 37.6644 45.5319 37.5947 45.4322C37.5251 45.3325 37.4805 45.2175 37.4647 45.0969C37.449 44.9763 37.4626 44.8537 37.5043 44.7394C37.5782 44.5375 39.3866 39.7592 45.3798 36.1918C50.0133 33.4337 55.4566 33.6665 55.6859 33.6775C55.7852 33.6824 55.8826 33.7067 55.9725 33.7492C56.0624 33.7917 56.1431 33.8515 56.2099 33.9252C56.2767 33.9989 56.3284 34.085 56.3619 34.1786C56.3954 34.2722 56.4102 34.3716 56.4053 34.4709C56.4005 34.5702 56.3761 34.6676 56.3336 34.7575C56.2911 34.8475 56.2313 34.9281 56.1577 34.9949C56.084 35.0618 55.9979 35.1134 55.9043 35.1469C55.8106 35.1805 55.7113 35.1952 55.612 35.1904C55.5282 35.1869 50.3752 34.9826 46.1531 37.4934C43.2781 39.2053 41.4668 41.2238 40.4509 42.6139C39.35 44.1267 38.9252 45.2503 38.9211 45.262C38.8676 45.4064 38.7712 45.5311 38.6448 45.6192C38.5185 45.7074 38.3682 45.7549 38.2142 45.7554V45.7554Z" fill="#690A3F"/>
</svg>
