<svg width="48" height="48" viewBox="0 0 48 48" fill="none" xmlns="http://www.w3.org/2000/svg">
<path d="M31.7159 41.6923C31.5771 41.477 31.4693 41.2433 31.3958 40.9979L23.3804 14.2322L23.3116 13.9606C23.1601 13.4566 22.8934 12.9948 22.5326 12.6115C22.1719 12.2283 21.727 11.9342 21.2331 11.7524C20.7391 11.5707 20.2097 11.5063 19.6866 11.5643C19.1635 11.6223 18.6611 11.8012 18.219 12.0868C18.219 12.0868 16.3481 12.9337 16.3528 15.0632C16.3571 16.9362 16.9196 18.7358 15.3465 19.7528C14.9242 20.0254 14.4468 20.2007 13.9485 20.2663C13.4502 20.3318 12.9436 20.2859 12.4653 20.1319C11.9869 19.9778 11.5487 19.7195 11.1824 19.3755C10.816 19.0315 10.5305 18.6105 10.3466 18.1428L10.1881 17.6173C9.04684 13.421 10.6655 8.79709 14.4974 6.31393C19.2403 3.23994 25.5756 4.60978 28.6483 9.37158C29.1737 10.1839 29.582 11.0663 29.8609 11.9927L38.0907 39.39C38.231 39.9833 38.1888 40.6052 37.9696 41.1741C37.5425 42.2741 36.4609 42.7841 36.4609 42.7841C36.0868 43.0259 35.6688 43.1917 35.2306 43.272C34.7925 43.3522 34.3428 43.3454 33.9073 43.2519C33.4718 43.1583 33.059 42.9799 32.6924 42.7269C32.3258 42.4738 32.0127 42.151 31.7709 41.7769L31.7159 41.6923Z" fill="#E20613"/>
<path d="M34.6269 43.8875C34.3455 43.8873 34.065 43.8574 33.7899 43.7981C33.2821 43.6904 32.8007 43.483 32.3736 43.188C31.9465 42.8929 31.5821 42.5161 31.3016 42.0794L31.2466 41.9934C31.0787 41.7341 30.9485 41.4523 30.8598 41.1564L22.8419 14.3813L22.7731 14.1106C22.6451 13.6911 22.4215 13.3071 22.12 12.9887C21.8184 12.6703 21.4472 12.4261 21.0353 12.2754C20.6235 12.1247 20.1823 12.0716 19.7465 12.1202C19.3107 12.1688 18.892 12.3178 18.5235 12.5555L18.4887 12.5783L18.4505 12.5955C18.3899 12.6239 16.9075 13.3341 16.9113 15.0619C16.9113 15.4426 16.938 15.8302 16.9629 16.2053C17.0613 17.6985 17.1636 19.2428 15.6498 20.2216C14.7698 20.7899 13.7003 20.9857 12.676 20.766C11.6518 20.5463 10.7566 19.9291 10.1872 19.0498C10.0441 18.8283 9.9233 18.5931 9.82667 18.3477L9.81163 18.3048L9.64878 17.7633C8.91501 15.0287 9.28554 12.1151 10.6804 9.65117C12.0753 7.18719 14.3828 5.37022 17.1052 4.59213C19.8276 3.81404 22.7468 4.13719 25.2331 5.49188C27.7194 6.84658 29.5736 9.12425 30.3958 11.8337L38.6256 39.2306C38.6389 39.2761 38.9208 40.2678 38.4902 41.379C38.0313 42.5589 36.9571 43.1579 36.7384 43.2696C36.1079 43.6727 35.3753 43.8871 34.6269 43.8875ZM32.1837 41.3893L32.2387 41.4752C32.4407 41.7877 32.7023 42.0573 33.0085 42.2687C33.3147 42.4801 33.6595 42.629 34.0233 42.7071C34.387 42.7852 34.7626 42.7909 35.1286 42.7238C35.4946 42.6567 35.8437 42.5182 36.1562 42.3161L36.1875 42.2959L36.2211 42.28C36.2279 42.2766 37.1101 41.8422 37.4474 40.9734C37.6203 40.5182 37.6569 40.0225 37.5527 39.5468L29.3259 12.1525C29.0616 11.2768 28.6756 10.4426 28.179 9.67447C26.9288 7.7319 25.0243 6.3012 22.8104 5.64143C20.5965 4.98167 18.2196 5.13644 16.1099 6.07773C14.0003 7.01903 12.2974 8.68461 11.3096 10.7729C10.3219 12.8612 10.1145 15.2342 10.7251 17.4621L10.8747 17.961C10.9427 18.1303 11.0267 18.2928 11.1256 18.4461C11.5343 19.0763 12.1763 19.5187 12.9107 19.6761C13.6451 19.8335 14.412 19.6931 15.0431 19.2857C15.9609 18.6923 15.9488 17.8025 15.8479 16.2809C15.8221 15.8886 15.795 15.483 15.7942 15.0666C15.789 12.7652 17.6332 11.7555 17.9478 11.5999C18.4628 11.2737 19.0464 11.071 19.6528 11.0078C20.2592 10.9445 20.872 11.0224 21.4433 11.2353C22.0146 11.4482 22.529 11.7904 22.9461 12.2351C23.3632 12.6797 23.6718 13.2149 23.8478 13.7986L23.8547 13.8231L23.9204 14.0831L31.9311 40.838C31.9891 41.0327 32.0742 41.2182 32.1837 41.3893Z" fill="black"/>
<path d="M10.1878 17.6172C10.2263 17.7968 10.2793 17.973 10.3464 18.144C10.2884 17.9678 10.2359 17.7925 10.1878 17.6172Z" fill="#E20613"/>
<path d="M9.82687 18.3478C9.74871 18.1485 9.68692 17.9432 9.64211 17.7338L10.7275 17.47C10.7739 17.6419 10.8242 17.8077 10.877 17.968L9.82687 18.3478Z" fill="black"/>
<path d="M14.2591 26.2992C14.2591 26.2992 15.7389 28.3364 16.3761 28.7716C17.0134 29.2069 19.1493 29.6383 19.1493 29.6383C19.1493 29.6383 17.6046 31.1762 17.3128 31.8899C17.0211 32.6036 16.9085 35.1194 16.9085 35.1194C16.9085 35.1194 15.4287 33.0823 14.7919 32.6474C14.1551 32.2126 12.0187 31.7803 12.0187 31.7803C12.0187 31.7803 13.5634 30.2425 13.8551 29.5288C14.1469 28.815 14.2591 26.2992 14.2591 26.2992Z" fill="#F3B427"/>
<path d="M16.9085 35.6783C16.8206 35.6783 16.7339 35.6576 16.6555 35.6178C16.5771 35.578 16.5092 35.5203 16.4574 35.4493C15.9069 34.6918 14.8826 33.3868 14.4774 33.1101C14.1031 32.8544 12.7496 32.4995 11.9083 32.3293C11.8088 32.3095 11.7166 32.2629 11.6416 32.1947C11.5666 32.1264 11.5116 32.039 11.4824 31.9418C11.4533 31.8447 11.4512 31.7414 11.4764 31.6431C11.5015 31.5449 11.5529 31.4553 11.6251 31.384C12.2331 30.7782 13.1668 29.7362 13.3383 29.3168C13.5243 28.8626 13.6597 27.2113 13.7018 26.2737C13.707 26.1581 13.7481 26.0469 13.8192 25.9556C13.8904 25.8642 13.9882 25.7973 14.0991 25.764C14.21 25.7307 14.3285 25.7326 14.4382 25.7696C14.5479 25.8066 14.6434 25.8768 14.7116 25.9704C15.262 26.7279 16.2864 28.0329 16.6916 28.3096C17.0662 28.5674 18.4193 28.9202 19.2602 29.0903C19.3597 29.1101 19.452 29.1566 19.5271 29.2249C19.6021 29.2931 19.6572 29.3805 19.6863 29.4777C19.7155 29.5749 19.7176 29.6782 19.6925 29.7765C19.6674 29.8748 19.616 29.9644 19.5438 30.0357C18.9354 30.6415 18.0017 31.6835 17.8302 32.1029C17.6446 32.5579 17.5088 34.2109 17.4671 35.1459C17.462 35.2617 17.4209 35.3729 17.3497 35.4643C17.2785 35.5557 17.1806 35.6227 17.0697 35.656C17.0174 35.6715 16.9631 35.679 16.9085 35.6783ZM13.1019 31.4532C13.8058 31.6311 14.6823 31.8941 15.1069 32.1837C15.4635 32.4273 15.9929 33.0314 16.4539 33.6016C16.5235 32.8712 16.6323 32.0745 16.7977 31.6745C16.9919 31.1988 17.5784 30.4963 18.0674 29.96C17.364 29.7817 16.4875 29.5187 16.0629 29.2296C15.7063 28.9859 15.1765 28.3818 14.7154 27.8116C14.6462 28.5421 14.5371 29.3387 14.3738 29.7387C14.1775 30.2157 13.5909 30.9182 13.1019 31.4532Z" fill="#A81A3F"/>
<path d="M10.9463 18.6756L9.91505 18.2459C9.95072 18.16 10.8049 16.1469 12.7428 15.505C13.958 15.1024 15.2956 15.3288 16.7183 16.1779L16.146 17.1374C15.0142 16.4619 13.9876 16.2694 13.0952 16.5654C11.6351 17.0501 10.9532 18.6597 10.9463 18.6756Z" fill="#F3E0BF"/>
<path d="M16.4288 13.6096C15.6472 12.5491 14.7311 11.9415 13.7067 11.8049C11.9506 11.5694 10.4248 12.7575 10.4097 12.7695L9.71666 11.893C9.794 11.832 11.6348 10.3998 13.8554 10.6976C15.1913 10.8768 16.3596 11.6339 17.3282 12.9474L16.4288 13.6096Z" fill="#F3E0BF"/>
<path d="M19.4848 11.6687C18.2816 6.4587 14.7217 6.84757 14.5708 6.86647L14.4209 5.75788C14.4707 5.751 15.6507 5.59761 17.0016 6.24429C17.7879 6.62026 18.475 7.1896 19.0435 7.93511C19.7348 8.84218 20.2496 10.0131 20.5732 11.4156L19.4848 11.6687Z" fill="#F3E0BF"/>
<path d="M23.1039 13.1055L22.224 12.418C23.345 10.9863 23.6698 9.37284 23.1895 7.62186C22.961 6.79711 22.5861 6.02018 22.0826 5.32818L22.957 4.63295C22.9922 4.67592 23.8189 5.72608 24.2555 7.28284C24.8433 9.37756 24.445 11.3907 23.1039 13.1055Z" fill="#F3E0BF"/>
<path d="M25.1368 19.0017L24.2684 18.2991C28.261 13.3633 27.0218 8.14259 27.0089 8.09059L28.093 7.82032C28.1076 7.88005 28.4548 9.3079 28.2649 11.4005C28.0874 13.3233 27.4021 16.2027 25.1368 19.0017Z" fill="#F3E0BF"/>
<path d="M26.7467 24.5396L25.9603 23.7459C28.5513 21.1786 29.4778 18.6623 29.7987 17.0037C30.1468 15.2059 29.8799 13.9959 29.8769 13.983L30.9653 13.7299C30.9782 13.7862 31.2855 15.1363 30.9082 17.1489C30.5657 18.979 29.5654 21.7466 26.7467 24.5396Z" fill="#F3E0BF"/>
<path d="M28.4319 30.2161L27.6765 29.3933C32.7271 24.7526 31.8115 20.4325 31.8016 20.3896L32.8908 20.1408C32.9029 20.1932 33.1783 21.4436 32.7503 23.3175C32.3636 25.0105 31.3005 27.5817 28.4319 30.2161Z" fill="#F3E0BF"/>
<path d="M30.5452 37.2539L29.7898 36.4311C34.8403 31.7905 33.9246 27.4704 33.9148 27.4274L35.004 27.1786C35.016 27.231 35.2915 28.4814 34.8635 30.3553C34.4768 32.047 33.4137 34.6182 30.5452 37.2539Z" fill="#F3E0BF"/>
<path d="M32.0457 42.4101L31.3672 41.5211C32.8621 40.3777 34.8142 38.5511 35.6246 36.3413C36.1015 35.0415 35.9529 34.2096 35.9511 34.2014V34.2066L37.0447 33.9784C37.0821 34.1408 37.8078 38.0016 32.0457 42.4101Z" fill="#F3E0BF"/>
<path d="M34.6269 43.8875C34.3455 43.8873 34.065 43.8574 33.7899 43.7981C33.2821 43.6904 32.8007 43.483 32.3736 43.188C31.9465 42.8929 31.5821 42.5161 31.3016 42.0794L31.2466 41.9934C31.0787 41.7341 30.9485 41.4523 30.8598 41.1564L22.8419 14.3813L22.7731 14.1106C22.6451 13.6911 22.4215 13.3071 22.12 12.9887C21.8184 12.6703 21.4472 12.4261 21.0353 12.2754C20.6235 12.1247 20.1823 12.0716 19.7465 12.1202C19.3107 12.1688 18.892 12.3178 18.5235 12.5555L18.4887 12.5783L18.4505 12.5955C18.3899 12.6239 16.9075 13.3341 16.9113 15.0619C16.9113 15.4426 16.938 15.8302 16.9629 16.2053C17.0613 17.6985 17.1636 19.2428 15.6498 20.2216C14.7698 20.7899 13.7003 20.9857 12.676 20.766C11.6518 20.5463 10.7566 19.9291 10.1872 19.0498C10.0441 18.8283 9.9233 18.5931 9.82667 18.3477L9.81163 18.3048L9.64878 17.7633C8.91501 15.0287 9.28554 12.1151 10.6804 9.65117C12.0753 7.18719 14.3828 5.37022 17.1052 4.59213C19.8276 3.81404 22.7468 4.13719 25.2331 5.49188C27.7194 6.84658 29.5736 9.12425 30.3958 11.8337L38.6256 39.2306C38.6389 39.2761 38.9208 40.2678 38.4902 41.379C38.0313 42.5589 36.9571 43.1579 36.7384 43.2696C36.1079 43.6727 35.3753 43.8871 34.6269 43.8875ZM32.1837 41.3893L32.2387 41.4752C32.4407 41.7877 32.7023 42.0573 33.0085 42.2687C33.3147 42.4801 33.6595 42.629 34.0233 42.7071C34.387 42.7852 34.7626 42.7909 35.1286 42.7238C35.4946 42.6567 35.8437 42.5182 36.1562 42.3161L36.1875 42.2959L36.2211 42.28C36.2279 42.2766 37.1101 41.8422 37.4474 40.9734C37.6203 40.5182 37.6569 40.0225 37.5527 39.5468L29.3259 12.1525C29.0616 11.2768 28.6756 10.4426 28.179 9.67447C26.9288 7.7319 25.0243 6.3012 22.8104 5.64143C20.5965 4.98167 18.2196 5.13644 16.1099 6.07773C14.0003 7.01903 12.2974 8.68461 11.3096 10.7729C10.3219 12.8612 10.1145 15.2342 10.7251 17.4621L10.8747 17.961C10.9427 18.1303 11.0267 18.2928 11.1256 18.4461C11.5343 19.0763 12.1763 19.5187 12.9107 19.6761C13.6451 19.8335 14.412 19.6931 15.0431 19.2857C15.9609 18.6923 15.9488 17.8025 15.8479 16.2809C15.8221 15.8886 15.795 15.483 15.7942 15.0666C15.789 12.7652 17.6332 11.7555 17.9478 11.5999C18.4628 11.2737 19.0464 11.071 19.6528 11.0078C20.2592 10.9445 20.872 11.0224 21.4433 11.2353C22.0146 11.4482 22.529 11.7904 22.9461 12.2351C23.3632 12.6797 23.6718 13.2149 23.8478 13.7986L23.8547 13.8231L23.9204 14.0831L31.9311 40.838C31.9891 41.0327 32.0742 41.2182 32.1837 41.3893Z" fill="#A81A3F"/>
<path d="M9.82687 18.3478C9.74871 18.1485 9.68692 17.9432 9.64211 17.7338L10.7275 17.47C10.7739 17.6419 10.8242 17.8077 10.877 17.968L9.82687 18.3478Z" fill="#A81A3F"/>
<path d="M15.1928 8.8542C15.074 8.85415 14.9583 8.81624 14.8626 8.74597C14.7668 8.6757 14.6959 8.57673 14.6602 8.46344C14.6245 8.35014 14.6259 8.22842 14.6641 8.11595C14.7023 8.00347 14.7754 7.90611 14.8727 7.83799C14.923 7.80275 16.1257 6.97518 18.0064 6.51412C19.7458 6.08788 22.4206 5.90655 25.2845 7.46502C25.3489 7.50009 25.4058 7.54751 25.4519 7.60457C25.498 7.66163 25.5325 7.72721 25.5532 7.79758C25.574 7.86794 25.5807 7.94171 25.573 8.01466C25.5652 8.08762 25.5432 8.15833 25.5081 8.22277C25.4731 8.28721 25.4256 8.34412 25.3686 8.39023C25.3115 8.43634 25.2459 8.47077 25.1756 8.49153C25.1052 8.5123 25.0314 8.51901 24.9585 8.51127C24.8855 8.50353 24.8148 8.4815 24.7504 8.44643C22.7167 7.33955 20.551 7.05123 18.3141 7.5892C16.6228 7.99568 15.5211 8.74935 15.5099 8.75537C15.4168 8.81988 15.3061 8.85436 15.1928 8.8542Z" fill="#FFEAE8"/>
<path opacity="0.4" d="M10.1878 17.6172C10.1878 17.6172 13.893 19.5474 14.1874 16.066C14.6579 10.502 17.1243 9.2555 19.2654 9.10511C22.4047 8.88382 24.1638 9.40589 26.0472 14.624C27.9305 19.8421 33.724 39.9146 33.724 39.9146C33.724 39.9146 36.2862 42.326 37.7669 38.314C37.7669 38.314 39.8952 41.8439 35.7083 43.1484C31.5214 44.4529 31.1042 40.025 31.1042 40.025L23.7011 15.3042C23.7011 15.3042 23.3083 11.6617 20.029 11.5432C16.7496 11.4246 16.4312 14.3245 16.4312 14.3245L16.3917 18.1427C16.3917 18.1427 15.6182 21.0599 12.0183 19.9539C12.0183 19.9539 10.899 19.4898 10.1878 17.6172Z" fill="#A81A3F"/>
<path d="M28.4457 13.3204C28.3331 13.3203 28.2232 13.2862 28.1303 13.2226C28.0375 13.1589 27.966 13.0687 27.9253 12.9637C27.4707 11.7959 26.9671 10.9872 26.6242 10.5107C26.2542 9.99504 25.9857 9.75398 25.9831 9.75141C25.9265 9.70338 25.8799 9.64455 25.8463 9.57834C25.8127 9.51213 25.7926 9.43987 25.7872 9.3658C25.7818 9.29173 25.7912 9.21733 25.8149 9.14695C25.8387 9.07657 25.8762 9.01163 25.9253 8.95592C25.9744 8.90021 26.0341 8.85485 26.101 8.8225C26.1678 8.79014 26.2404 8.77145 26.3146 8.7675C26.3888 8.76355 26.463 8.77443 26.5329 8.7995C26.6028 8.82457 26.667 8.86333 26.7217 8.91352C26.7733 8.95648 27.9885 10.0432 28.966 12.5568C28.9994 12.6416 29.0116 12.7333 29.0015 12.8238C28.9914 12.9144 28.9593 13.0011 28.908 13.0764C28.8567 13.1517 28.7877 13.2133 28.7071 13.2558C28.6265 13.2983 28.5368 13.3205 28.4457 13.3204Z" fill="#FFEAE8"/>
</svg>
