<svg width="46" height="38" viewBox="0 0 46 38" fill="none" xmlns="http://www.w3.org/2000/svg">
<path d="M23.5742 11.4558H11.304V27.7108H23.5742V11.4558Z" fill="#E883A0"/>
<path d="M23.5742 28.2694H11.304C11.1559 28.2694 11.0138 28.2106 10.909 28.1058C10.8043 28.0011 10.7454 27.859 10.7454 27.7109V11.457C10.7454 11.3089 10.8043 11.1668 10.909 11.0621C11.0138 10.9573 11.1559 10.8985 11.304 10.8985H23.5742C23.7223 10.8985 23.8644 10.9573 23.9692 11.0621C24.0739 11.1668 24.1328 11.3089 24.1328 11.457V27.7121C24.1324 27.8601 24.0734 28.0018 23.9687 28.1063C23.864 28.2108 23.7221 28.2694 23.5742 28.2694ZM11.8626 27.1523H23.0156V12.0156H11.8626V27.1523Z" fill="black"/>
<path d="M33.4062 31.2244H1.4722L3.63525 27.7108H31.2431L33.4062 31.2244Z" fill="#B71A5D"/>
<path d="M33.406 31.7812H1.47207C1.37264 31.7812 1.27502 31.7547 1.18927 31.7044C1.10352 31.6541 1.03275 31.5818 0.984272 31.495C0.935792 31.4082 0.911357 31.3101 0.913489 31.2107C0.915621 31.1113 0.944244 31.0142 0.996402 30.9296L3.15945 27.4183C3.20943 27.337 3.27938 27.2699 3.36265 27.2234C3.44591 27.1768 3.53972 27.1523 3.63511 27.1523H31.243C31.3384 27.1523 31.4322 27.1768 31.5155 27.2234C31.5987 27.2699 31.6687 27.337 31.7187 27.4183L33.8817 30.9313C33.9334 31.0159 33.9617 31.1128 33.9636 31.2119C33.9655 31.311 33.941 31.4089 33.8925 31.4954C33.8441 31.582 33.7735 31.654 33.688 31.7043C33.6025 31.7545 33.5052 31.7811 33.406 31.7812ZM2.47195 30.6641H32.4062L30.931 28.2678H3.94664L2.47195 30.6641Z" fill="black"/>
<path d="M31.4399 31.2243H3.43887L5.33552 36.6122H29.5433L31.4399 31.2243Z" fill="#A81A3F"/>
<path d="M29.5432 37.1707H5.33541C5.21968 37.1708 5.10679 37.1349 5.01234 37.068C4.91789 37.0011 4.84655 36.9065 4.80818 36.7973L2.91025 31.4095C2.88027 31.325 2.87104 31.2346 2.88334 31.1459C2.89565 31.0571 2.92912 30.9726 2.98095 30.8995C3.03277 30.8264 3.10142 30.7668 3.18111 30.7258C3.26079 30.6849 3.34916 30.6636 3.43877 30.664H31.4415C31.5308 30.664 31.6187 30.6854 31.698 30.7264C31.7773 30.7675 31.8456 30.8269 31.8972 30.8997C31.9488 30.9726 31.9821 31.0567 31.9945 31.1451C32.0069 31.2335 31.9979 31.3236 31.9683 31.4078L30.07 36.7973C30.0316 36.9064 29.9603 37.001 29.866 37.0678C29.7716 37.1347 29.6588 37.1707 29.5432 37.1707ZM5.73072 36.0535H29.1487L30.6526 31.7829H4.22768L5.73072 36.0535Z" fill="black"/>
<path d="M17.4393 12.0156C17.2912 12.0156 17.1491 11.9567 17.0443 11.8519C16.9396 11.7472 16.8807 11.6051 16.8807 11.457V7.1691C16.8807 7.02095 16.9396 6.87887 17.0443 6.77412C17.1491 6.66936 17.2912 6.61051 17.4393 6.61051C17.5875 6.61051 17.7296 6.66936 17.8343 6.77412C17.9391 6.87887 17.9979 7.02095 17.9979 7.1691V11.457C17.9979 11.6051 17.9391 11.7472 17.8343 11.8519C17.7296 11.9567 17.5875 12.0156 17.4393 12.0156Z" fill="black"/>
<path d="M17.4393 9.31245C17.4393 9.31245 13.7333 9.19815 14.9136 5.96732C15.9797 3.04844 17.4827 2.59383 17.4393 1.3877C17.4393 1.3877 19.9315 4.39552 20.0888 6.42193C20.2289 8.22963 19.5976 9.23166 17.4393 9.31245Z" fill="#CB4C81"/>
<path d="M17.4394 9.87101H17.4222C17.3397 9.86843 15.397 9.7941 14.5274 8.5089C14.0375 7.78488 13.9911 6.86534 14.389 5.77608C14.9845 4.14327 15.7124 3.24093 16.244 2.57792C16.6831 2.03135 16.8937 1.75335 16.8812 1.40874C16.8769 1.29216 16.9093 1.17717 16.9737 1.07991C17.0381 0.982652 17.1314 0.908004 17.2404 0.86644C17.3494 0.824877 17.4687 0.818484 17.5815 0.848158C17.6943 0.877833 17.795 0.942086 17.8695 1.0319C17.9756 1.16081 20.4768 4.19956 20.6457 6.37894C20.7338 7.51288 20.5275 8.34476 20.0119 8.92183C19.4825 9.51566 18.6476 9.82417 17.4596 9.87058L17.4394 9.87101ZM17.6413 2.57147C17.479 2.81629 17.3031 3.05184 17.1145 3.27702C16.6049 3.91167 15.9707 4.70101 15.4387 6.15894C15.1715 6.88941 15.1758 7.46991 15.4516 7.87984C15.7275 8.28976 16.2324 8.49902 16.6118 8.60773C16.883 8.68508 17.1615 8.7339 17.4428 8.75339C18.2979 8.71816 18.8664 8.52995 19.1796 8.17847C19.4804 7.84073 19.5964 7.27999 19.5332 6.46487C19.4426 5.31632 18.4195 3.65557 17.6413 2.57147Z" fill="black"/>
<path d="M11.7259 27.7773C11.6217 27.7772 11.5195 27.748 11.431 27.6928C11.3424 27.6376 11.2712 27.5588 11.2251 27.4652C11.1791 27.3716 11.1602 27.267 11.1706 27.1632C11.181 27.0594 11.2202 26.9606 11.2838 26.878L20.9144 14.3788C20.9586 14.3193 21.0143 14.2692 21.0781 14.2315C21.142 14.1937 21.2127 14.1691 21.2861 14.1589C21.3596 14.1488 21.4343 14.1533 21.506 14.1724C21.5776 14.1914 21.6448 14.2246 21.7035 14.2698C21.7623 14.3151 21.8114 14.3716 21.8481 14.4361C21.8847 14.5005 21.9082 14.5716 21.9171 14.6452C21.926 14.7189 21.9201 14.7935 21.8999 14.8648C21.8796 14.9362 21.8454 15.0028 21.7991 15.0607L12.169 27.5599C12.1167 27.6277 12.0496 27.6825 11.9728 27.7202C11.8959 27.7579 11.8115 27.7774 11.7259 27.7773Z" fill="black"/>
<path d="M11.3127 21.158C11.2082 21.1579 11.1057 21.1284 11.017 21.0729C10.9284 21.0173 10.8571 20.9381 10.8113 20.844C10.7655 20.75 10.747 20.645 10.7579 20.541C10.7689 20.437 10.8088 20.3381 10.8732 20.2556L14.8581 15.1625C14.9021 15.1016 14.9579 15.0502 15.0223 15.0113C15.0866 14.9725 15.1581 14.947 15.2325 14.9365C15.3069 14.9259 15.3826 14.9305 15.4552 14.9499C15.5278 14.9693 15.5958 15.0031 15.655 15.0494C15.7142 15.0957 15.7634 15.1535 15.7998 15.2192C15.8362 15.285 15.8589 15.3574 15.8666 15.4321C15.8743 15.5069 15.8669 15.5824 15.8447 15.6542C15.8226 15.726 15.7862 15.7926 15.7377 15.85L11.7528 20.9436C11.7005 21.0104 11.6337 21.0644 11.5575 21.1015C11.4812 21.1387 11.3976 21.158 11.3127 21.158Z" fill="black"/>
<path d="M17.6871 28.2059C17.5825 28.2057 17.48 28.1762 17.3914 28.1207C17.3027 28.0652 17.2314 27.9859 17.1856 27.8919C17.1398 27.7979 17.1213 27.6929 17.1323 27.5888C17.1432 27.4848 17.1831 27.386 17.2475 27.3035L20.6609 22.9413C20.7052 22.8811 20.7611 22.8304 20.8253 22.7922C20.8895 22.754 20.9608 22.729 21.0348 22.7188C21.1088 22.7087 21.1841 22.7134 21.2563 22.7329C21.3284 22.7523 21.3959 22.786 21.4548 22.832C21.5137 22.878 21.5627 22.9354 21.5991 23.0007C21.6354 23.066 21.6582 23.1379 21.6663 23.2122C21.6743 23.2865 21.6673 23.3616 21.6458 23.4332C21.6243 23.5047 21.5886 23.5712 21.5409 23.6288L18.1275 27.9915C18.0752 28.0583 18.0084 28.1124 17.932 28.1495C17.8557 28.1867 17.772 28.2059 17.6871 28.2059Z" fill="black"/>
<path d="M31.237 3.64135C31.237 3.64135 32.068 6.01839 32.5532 6.61823C33.0383 7.21808 34.9594 8.24632 34.9594 8.24632C34.9594 8.24632 33.0379 9.27457 32.5532 9.87441C32.0685 10.4743 31.237 12.8513 31.237 12.8513C31.237 12.8513 30.4056 10.4743 29.9209 9.87441C29.4362 9.27457 27.5146 8.24632 27.5146 8.24632C27.5146 8.24632 29.4362 7.21808 29.9209 6.61823C30.4056 6.01839 31.237 3.64135 31.237 3.64135Z" fill="#E883A0"/>
<path d="M31.2369 13.4099C31.1213 13.4096 31.0086 13.3734 30.9144 13.3064C30.8202 13.2394 30.7491 13.1447 30.711 13.0356C30.4016 12.1517 29.7962 10.607 29.4877 10.2254C29.2028 9.87311 28.0087 9.14393 27.2533 8.73873C27.1642 8.69101 27.0897 8.62001 27.0378 8.53329C26.9858 8.44657 26.9584 8.34739 26.9584 8.24631C26.9584 8.14523 26.9858 8.04605 27.0378 7.95933C27.0897 7.87261 27.1642 7.80161 27.2533 7.75389C28.01 7.34869 29.2041 6.61951 29.4877 6.26674C29.7962 5.88518 30.4016 4.34088 30.711 3.45702C30.7492 3.34771 30.8205 3.25299 30.915 3.18598C31.0094 3.11897 31.1224 3.08297 31.2382 3.08297C31.354 3.08297 31.467 3.11897 31.5614 3.18598C31.6559 3.25299 31.7272 3.34771 31.7654 3.45702C32.0748 4.34088 32.6802 5.88518 32.9888 6.26674C33.2736 6.61951 34.4677 7.34869 35.2231 7.75389C35.3122 7.80161 35.3867 7.87261 35.4386 7.95933C35.4906 8.04605 35.518 8.14523 35.518 8.24631C35.518 8.34739 35.4906 8.44657 35.4386 8.53329C35.3867 8.62001 35.3122 8.69101 35.2231 8.73873C34.4664 9.14393 33.2723 9.87311 32.9888 10.2254C32.6798 10.6074 32.0744 12.1517 31.7654 13.0356C31.7271 13.1452 31.6557 13.2401 31.5609 13.3071C31.4662 13.3742 31.353 13.4101 31.2369 13.4099ZM28.6455 8.24631C29.2681 8.621 30.0321 9.1233 30.3552 9.52334C30.6268 9.85936 30.9598 10.5907 31.2369 11.2709C31.5136 10.5907 31.8471 9.85936 32.1186 9.52334C32.4418 9.12373 33.2057 8.621 33.8284 8.24674C33.2057 7.87377 32.4418 7.36932 32.1186 6.96971C31.8471 6.63369 31.5136 5.9028 31.2369 5.22217C30.9598 5.9028 30.6268 6.63369 30.3552 6.96971C30.0321 7.36889 29.2681 7.87334 28.6455 8.24631Z" fill="black"/>
<path d="M5.32137 15.6717C5.32137 15.6717 5.83699 17.1413 6.13476 17.5121C6.43254 17.8829 7.62234 18.5185 7.62234 18.5185C7.62234 18.5185 6.43383 19.154 6.13305 19.5248C5.83227 19.8956 5.31965 21.3652 5.31965 21.3652C5.31965 21.3652 4.80403 19.8956 4.50582 19.5248C4.20762 19.154 3.01825 18.5185 3.01825 18.5185C3.01825 18.5185 4.20633 17.8829 4.50582 17.5121C4.80532 17.1413 5.32137 15.6717 5.32137 15.6717Z" fill="#E883A0"/>
<path d="M5.32099 21.9239C5.20515 21.9239 5.09218 21.8878 4.99772 21.8208C4.90326 21.7537 4.83198 21.659 4.79376 21.5496C4.56087 20.884 4.2154 20.0526 4.07274 19.8764C3.93653 19.7075 3.28169 19.2929 2.75618 19.011C2.66707 18.9633 2.59259 18.8923 2.54066 18.8055C2.48873 18.7188 2.4613 18.6196 2.4613 18.5186C2.4613 18.4175 2.48873 18.3183 2.54066 18.2316C2.59259 18.1449 2.66707 18.0739 2.75618 18.0261C3.28169 17.7447 3.93653 17.3296 4.07274 17.1612C4.2154 16.9846 4.56087 16.1531 4.79376 15.4875C4.83202 15.3782 4.90331 15.2835 4.99777 15.2165C5.09222 15.1495 5.20517 15.1135 5.32099 15.1135C5.4368 15.1135 5.54975 15.1495 5.6442 15.2165C5.73866 15.2835 5.80995 15.3782 5.84821 15.4875C6.0811 16.1531 6.42614 16.9846 6.5688 17.1612C6.70544 17.3296 7.35985 17.7447 7.88579 18.0261C7.9749 18.0739 8.04938 18.1449 8.10131 18.2316C8.15324 18.3183 8.18067 18.4175 8.18067 18.5186C8.18067 18.6196 8.15324 18.7188 8.10131 18.8055C8.04938 18.8923 7.9749 18.9633 7.88579 19.011C7.35985 19.2929 6.70544 19.7075 6.5688 19.8764C6.42614 20.053 6.08067 20.884 5.84821 21.5496C5.80999 21.659 5.73871 21.7537 5.64425 21.8208C5.54979 21.8878 5.43682 21.9239 5.32099 21.9239ZM4.12431 18.5186C4.44915 18.7278 4.77442 18.9667 4.94071 19.1738C5.05974 19.3212 5.19251 19.5709 5.32013 19.8485C5.44903 19.5709 5.57794 19.3212 5.69911 19.1738C5.86669 18.9667 6.19196 18.7278 6.51552 18.5186C6.19067 18.3093 5.8654 18.0704 5.69911 17.8633C5.58009 17.7163 5.44731 17.4663 5.32013 17.1887C5.19122 17.4663 5.05974 17.7163 4.94071 17.8633C4.77442 18.0704 4.44915 18.3093 4.12431 18.5186Z" fill="black"/>
<path d="M35.7181 35.0674C35.1163 35.0664 34.5152 35.0299 33.9177 34.9583C31.9205 34.7224 30.4565 34.1939 30.3942 34.1715C30.255 34.1208 30.1417 34.0168 30.0792 33.8824C30.0166 33.7481 30.01 33.5944 30.0608 33.4552C30.1116 33.316 30.2156 33.2027 30.3499 33.1402C30.4842 33.0776 30.6379 33.071 30.7771 33.1218C30.8325 33.142 36.3544 35.107 40.1933 32.9069C42.0461 31.8439 43.2325 29.9567 43.7167 27.2974C44.2895 24.1658 43.8783 21.8343 42.4947 20.3678C40.5392 18.2954 37.1872 18.5696 36.8288 18.6061C36.1543 18.7966 35.5128 19.0887 34.9262 19.4723C33.7269 20.2707 33.1185 21.3054 33.1185 22.548C33.1185 23.9333 33.4648 24.9375 34.1497 25.5326C34.6258 25.9473 35.5415 26.392 37.2005 26.1634C38.1815 26.0276 38.9622 25.6435 39.3489 25.1094C39.6115 24.7437 39.6901 24.3089 39.5896 23.7799C39.4177 22.8802 39.0121 22.2795 38.4152 22.0427C38.1634 21.947 37.8918 21.915 37.6246 21.9494C37.3574 21.9838 37.1028 22.0836 36.8834 22.2399C36.6127 22.4363 36.5096 22.661 36.5487 22.9704C36.575 23.149 36.6354 23.3208 36.7266 23.4766L36.2539 23.7774L35.7864 24.0824C35.6122 23.8007 35.4954 23.4874 35.4426 23.1603C35.3305 22.4299 35.6072 21.7785 36.2217 21.3329C36.593 21.0651 37.0254 20.8944 37.4795 20.8365C37.9337 20.7786 38.3951 20.8352 38.8217 21.0012C39.7786 21.3806 40.4391 22.2924 40.6818 23.5681C40.8404 24.4021 40.6956 25.1391 40.2522 25.7595C39.6914 26.539 38.6357 27.0903 37.353 27.2694C36.2084 27.4284 34.5966 27.4018 33.4171 26.3744C32.4795 25.558 32.0038 24.2689 32.0038 22.5476C32.0038 20.9195 32.8117 19.5273 34.3396 18.5219C35.0357 18.0678 35.7993 17.7267 36.6019 17.5112C36.6215 17.5065 36.6413 17.503 36.6612 17.5005C36.8331 17.479 40.852 17.0042 43.3042 19.5952C44.9499 21.3342 45.4595 23.9931 44.8185 27.4985C44.2702 30.4985 42.8995 32.6453 40.7454 33.8785C39.3696 34.6644 37.6551 35.0674 35.7181 35.0674Z" fill="black"/>
<path d="M17.8444 2.41246C17.8986 2.37679 14.755 7.45956 19.268 8.05769C19.268 8.05769 17.343 10.5327 15.3372 7.83124C15.3372 7.83124 14.2213 4.79035 17.8444 2.41246Z" fill="#B71A5D"/>
<path d="M11.5806 12.1789C11.5806 12.1789 16.8688 25.1125 23.3197 27.3696L11.7263 27.2188L11.5806 12.1789Z" fill="#CB4C81"/>
<path d="M4.74316 33.374H30.347L31.2369 31.5298H3.99765L4.74316 33.374Z" fill="#690A3F"/>
<path d="M11.7259 27.7773C11.6217 27.7772 11.5195 27.748 11.431 27.6928C11.3424 27.6376 11.2712 27.5588 11.2251 27.4652C11.1791 27.3716 11.1602 27.267 11.1706 27.1632C11.181 27.0594 11.2202 26.9606 11.2838 26.878L20.9144 14.3788C20.9586 14.3193 21.0143 14.2692 21.0781 14.2315C21.142 14.1937 21.2127 14.1691 21.2861 14.1589C21.3596 14.1488 21.4343 14.1533 21.506 14.1724C21.5776 14.1914 21.6448 14.2246 21.7035 14.2698C21.7623 14.3151 21.8114 14.3716 21.8481 14.4361C21.8847 14.5005 21.9082 14.5716 21.9171 14.6452C21.926 14.7189 21.9201 14.7935 21.8999 14.8648C21.8796 14.9362 21.8454 15.0028 21.7991 15.0607L12.169 27.5599C12.1167 27.6277 12.0496 27.6825 11.9728 27.7202C11.8959 27.7579 11.8115 27.7774 11.7259 27.7773Z" fill="#FFDDE8"/>
<path d="M11.3127 21.158C11.2082 21.1579 11.1057 21.1284 11.017 21.0729C10.9284 21.0173 10.8571 20.9381 10.8113 20.844C10.7655 20.75 10.747 20.645 10.7579 20.541C10.7689 20.437 10.8088 20.3381 10.8732 20.2556L14.8581 15.1625C14.9021 15.1016 14.9579 15.0502 15.0223 15.0113C15.0866 14.9725 15.1581 14.947 15.2325 14.9365C15.3069 14.9259 15.3826 14.9305 15.4552 14.9499C15.5278 14.9693 15.5958 15.0031 15.655 15.0494C15.7142 15.0957 15.7634 15.1535 15.7998 15.2192C15.8362 15.285 15.8589 15.3574 15.8666 15.4321C15.8743 15.5069 15.8669 15.5824 15.8447 15.6542C15.8226 15.726 15.7862 15.7926 15.7377 15.85L11.7528 20.9436C11.7005 21.0104 11.6337 21.0644 11.5575 21.1015C11.4812 21.1387 11.3976 21.158 11.3127 21.158Z" fill="#FFDDE8"/>
<path d="M17.6871 28.2059C17.5825 28.2057 17.48 28.1762 17.3914 28.1207C17.3027 28.0652 17.2314 27.9859 17.1856 27.8919C17.1398 27.7979 17.1213 27.6929 17.1323 27.5888C17.1432 27.4848 17.1831 27.386 17.2475 27.3035L20.6609 22.9413C20.7052 22.8811 20.7611 22.8304 20.8253 22.7922C20.8895 22.754 20.9608 22.729 21.0348 22.7188C21.1088 22.7087 21.1841 22.7134 21.2563 22.7329C21.3284 22.7523 21.3959 22.786 21.4548 22.832C21.5137 22.878 21.5627 22.9354 21.5991 23.0007C21.6354 23.066 21.6582 23.1379 21.6663 23.2122C21.6743 23.2865 21.6673 23.3616 21.6458 23.4332C21.6243 23.5047 21.5886 23.5712 21.5409 23.6288L18.1275 27.9915C18.0752 28.0583 18.0084 28.1124 17.932 28.1495C17.8557 28.1867 17.772 28.2059 17.6871 28.2059Z" fill="#FFDDE8"/>
<path d="M23.5742 28.2694H11.304C11.1559 28.2694 11.0138 28.2106 10.909 28.1058C10.8043 28.0011 10.7454 27.859 10.7454 27.7109V11.457C10.7454 11.3089 10.8043 11.1668 10.909 11.0621C11.0138 10.9573 11.1559 10.8985 11.304 10.8985H23.5742C23.7223 10.8985 23.8644 10.9573 23.9692 11.0621C24.0739 11.1668 24.1328 11.3089 24.1328 11.457V27.7121C24.1324 27.8601 24.0734 28.0018 23.9687 28.1063C23.864 28.2108 23.7221 28.2694 23.5742 28.2694ZM11.8626 27.1523H23.0156V12.0156H11.8626V27.1523Z" fill="#690A3F"/>
<path d="M33.406 31.7812H1.47207C1.37264 31.7812 1.27502 31.7547 1.18927 31.7044C1.10352 31.6541 1.03275 31.5818 0.984272 31.495C0.935792 31.4082 0.911357 31.3101 0.913489 31.2107C0.915621 31.1113 0.944244 31.0142 0.996402 30.9296L3.15945 27.4183C3.20943 27.337 3.27938 27.2699 3.36265 27.2234C3.44591 27.1768 3.53972 27.1523 3.63511 27.1523H31.243C31.3384 27.1523 31.4322 27.1768 31.5155 27.2234C31.5987 27.2699 31.6687 27.337 31.7187 27.4183L33.8817 30.9313C33.9334 31.0159 33.9617 31.1128 33.9636 31.2119C33.9655 31.311 33.941 31.4089 33.8925 31.4954C33.8441 31.582 33.7735 31.654 33.688 31.7043C33.6025 31.7545 33.5052 31.7811 33.406 31.7812ZM2.47195 30.6641H32.4062L30.931 28.2678H3.94664L2.47195 30.6641Z" fill="#690A3F"/>
<path d="M29.5432 37.1707H5.33541C5.21968 37.1708 5.10679 37.1349 5.01234 37.068C4.91789 37.0011 4.84655 36.9065 4.80818 36.7973L2.91025 31.4095C2.88027 31.325 2.87104 31.2346 2.88334 31.1459C2.89565 31.0571 2.92912 30.9726 2.98095 30.8995C3.03277 30.8264 3.10142 30.7668 3.18111 30.7258C3.26079 30.6849 3.34916 30.6636 3.43877 30.664H31.4415C31.5308 30.664 31.6187 30.6854 31.698 30.7264C31.7773 30.7675 31.8456 30.8269 31.8972 30.8997C31.9488 30.9726 31.9821 31.0567 31.9945 31.1451C32.0069 31.2335 31.9979 31.3236 31.9683 31.4078L30.07 36.7973C30.0316 36.9064 29.9603 37.001 29.866 37.0678C29.7716 37.1347 29.6588 37.1707 29.5432 37.1707ZM5.73072 36.0535H29.1487L30.6526 31.7829H4.22768L5.73072 36.0535Z" fill="#690A3F"/>
<path d="M17.4393 12.0156C17.2912 12.0156 17.1491 11.9567 17.0443 11.8519C16.9396 11.7472 16.8807 11.6051 16.8807 11.457V7.1691C16.8807 7.02095 16.9396 6.87887 17.0443 6.77412C17.1491 6.66936 17.2912 6.61051 17.4393 6.61051C17.5875 6.61051 17.7296 6.66936 17.8343 6.77412C17.9391 6.87887 17.9979 7.02095 17.9979 7.1691V11.457C17.9979 11.6051 17.9391 11.7472 17.8343 11.8519C17.7296 11.9567 17.5875 12.0156 17.4393 12.0156Z" fill="#690A3F"/>
<path d="M17.4394 9.87101H17.4222C17.3397 9.86843 15.397 9.7941 14.5274 8.5089C14.0375 7.78488 13.9911 6.86534 14.389 5.77608C14.9845 4.14327 15.7124 3.24093 16.244 2.57792C16.6831 2.03135 16.8937 1.75335 16.8812 1.40874C16.8769 1.29216 16.9093 1.17717 16.9737 1.07991C17.0381 0.982652 17.1314 0.908004 17.2404 0.86644C17.3494 0.824877 17.4687 0.818484 17.5815 0.848158C17.6943 0.877833 17.795 0.942086 17.8695 1.0319C17.9756 1.16081 20.4768 4.19956 20.6457 6.37894C20.7338 7.51288 20.5275 8.34476 20.0119 8.92183C19.4825 9.51566 18.6476 9.82417 17.4596 9.87058L17.4394 9.87101ZM17.6413 2.57147C17.479 2.81629 17.3031 3.05184 17.1145 3.27702C16.6049 3.91167 15.9707 4.70101 15.4387 6.15894C15.1715 6.88941 15.1758 7.46991 15.4516 7.87984C15.7275 8.28976 16.2324 8.49902 16.6118 8.60773C16.883 8.68508 17.1615 8.7339 17.4428 8.75339C18.2979 8.71816 18.8664 8.52995 19.1796 8.17847C19.4804 7.84073 19.5964 7.27999 19.5332 6.46487C19.4426 5.31632 18.4195 3.65557 17.6413 2.57147Z" fill="#690A3F"/>
<path d="M31.2369 13.4099C31.1213 13.4096 31.0086 13.3734 30.9144 13.3064C30.8202 13.2394 30.7491 13.1447 30.711 13.0356C30.4016 12.1517 29.7962 10.607 29.4877 10.2254C29.2028 9.87311 28.0087 9.14393 27.2533 8.73873C27.1642 8.69101 27.0897 8.62001 27.0378 8.53329C26.9858 8.44657 26.9584 8.34739 26.9584 8.24631C26.9584 8.14523 26.9858 8.04605 27.0378 7.95933C27.0897 7.87261 27.1642 7.80161 27.2533 7.75389C28.01 7.34869 29.2041 6.61951 29.4877 6.26674C29.7962 5.88518 30.4016 4.34088 30.711 3.45702C30.7492 3.34771 30.8205 3.25299 30.915 3.18598C31.0094 3.11897 31.1224 3.08297 31.2382 3.08297C31.354 3.08297 31.467 3.11897 31.5614 3.18598C31.6559 3.25299 31.7272 3.34771 31.7654 3.45702C32.0748 4.34088 32.6802 5.88518 32.9888 6.26674C33.2736 6.61951 34.4677 7.34869 35.2231 7.75389C35.3122 7.80161 35.3867 7.87261 35.4386 7.95933C35.4906 8.04605 35.518 8.14523 35.518 8.24631C35.518 8.34739 35.4906 8.44657 35.4386 8.53329C35.3867 8.62001 35.3122 8.69101 35.2231 8.73873C34.4664 9.14393 33.2723 9.87311 32.9888 10.2254C32.6798 10.6074 32.0744 12.1517 31.7654 13.0356C31.7271 13.1452 31.6557 13.2401 31.5609 13.3071C31.4662 13.3742 31.353 13.4101 31.2369 13.4099ZM28.6455 8.24631C29.2681 8.621 30.0321 9.1233 30.3552 9.52334C30.6268 9.85936 30.9598 10.5907 31.2369 11.2709C31.5136 10.5907 31.8471 9.85936 32.1186 9.52334C32.4418 9.12373 33.2057 8.621 33.8284 8.24674C33.2057 7.87377 32.4418 7.36932 32.1186 6.96971C31.8471 6.63369 31.5136 5.9028 31.2369 5.22217C30.9598 5.9028 30.6268 6.63369 30.3552 6.96971C30.0321 7.36889 29.2681 7.87334 28.6455 8.24631Z" fill="#690A3F"/>
<path d="M5.32099 21.9239C5.20515 21.9239 5.09218 21.8878 4.99772 21.8208C4.90326 21.7537 4.83198 21.659 4.79376 21.5496C4.56087 20.884 4.2154 20.0526 4.07274 19.8764C3.93653 19.7075 3.28169 19.2929 2.75618 19.011C2.66707 18.9633 2.59259 18.8923 2.54066 18.8055C2.48873 18.7188 2.4613 18.6196 2.4613 18.5186C2.4613 18.4175 2.48873 18.3183 2.54066 18.2316C2.59259 18.1449 2.66707 18.0739 2.75618 18.0261C3.28169 17.7447 3.93653 17.3296 4.07274 17.1612C4.2154 16.9846 4.56087 16.1531 4.79376 15.4875C4.83202 15.3782 4.90331 15.2835 4.99777 15.2165C5.09222 15.1495 5.20517 15.1135 5.32099 15.1135C5.4368 15.1135 5.54975 15.1495 5.6442 15.2165C5.73866 15.2835 5.80995 15.3782 5.84821 15.4875C6.0811 16.1531 6.42614 16.9846 6.5688 17.1612C6.70544 17.3296 7.35985 17.7447 7.88579 18.0261C7.9749 18.0739 8.04938 18.1449 8.10131 18.2316C8.15324 18.3183 8.18067 18.4175 8.18067 18.5186C8.18067 18.6196 8.15324 18.7188 8.10131 18.8055C8.04938 18.8923 7.9749 18.9633 7.88579 19.011C7.35985 19.2929 6.70544 19.7075 6.5688 19.8764C6.42614 20.053 6.08067 20.884 5.84821 21.5496C5.80999 21.659 5.73871 21.7537 5.64425 21.8208C5.54979 21.8878 5.43682 21.9239 5.32099 21.9239ZM4.12431 18.5186C4.44915 18.7278 4.77442 18.9667 4.94071 19.1738C5.05974 19.3212 5.19251 19.5709 5.32013 19.8485C5.44903 19.5709 5.57794 19.3212 5.69911 19.1738C5.86669 18.9667 6.19196 18.7278 6.51552 18.5186C6.19067 18.3093 5.8654 18.0704 5.69911 17.8633C5.58009 17.7163 5.44731 17.4663 5.32013 17.1887C5.19122 17.4663 5.05974 17.7163 4.94071 17.8633C4.77442 18.0704 4.44915 18.3093 4.12431 18.5186Z" fill="#690A3F"/>
<path d="M35.7181 35.0674C35.1163 35.0664 34.5152 35.0299 33.9177 34.9583C31.9205 34.7224 30.4565 34.1939 30.3942 34.1715C30.255 34.1208 30.1417 34.0168 30.0792 33.8824C30.0166 33.7481 30.01 33.5944 30.0608 33.4552C30.1116 33.316 30.2156 33.2027 30.3499 33.1402C30.4842 33.0776 30.6379 33.071 30.7771 33.1218C30.8325 33.142 36.3544 35.107 40.1933 32.9069C42.0461 31.8439 43.2325 29.9567 43.7167 27.2974C44.2895 24.1658 43.8783 21.8343 42.4947 20.3678C40.5392 18.2954 37.1872 18.5696 36.8288 18.6061C36.1543 18.7966 35.5128 19.0887 34.9262 19.4723C33.7269 20.2707 33.1185 21.3054 33.1185 22.548C33.1185 23.9333 33.4648 24.9375 34.1497 25.5326C34.6258 25.9473 35.5415 26.392 37.2005 26.1634C38.1815 26.0276 38.9622 25.6435 39.3489 25.1094C39.6115 24.7437 39.6901 24.3089 39.5896 23.7799C39.4177 22.8802 39.0121 22.2795 38.4152 22.0427C38.1634 21.947 37.8918 21.915 37.6246 21.9494C37.3574 21.9838 37.1028 22.0836 36.8834 22.2399C36.6127 22.4363 36.5096 22.661 36.5487 22.9704C36.575 23.149 36.6354 23.3208 36.7266 23.4766L36.2539 23.7774L35.7864 24.0824C35.6122 23.8007 35.4954 23.4874 35.4426 23.1603C35.3305 22.4299 35.6072 21.7785 36.2217 21.3329C36.593 21.0651 37.0254 20.8944 37.4795 20.8365C37.9337 20.7786 38.3951 20.8352 38.8217 21.0012C39.7786 21.3806 40.4391 22.2924 40.6818 23.5681C40.8404 24.4021 40.6956 25.1391 40.2522 25.7595C39.6914 26.539 38.6357 27.0903 37.353 27.2694C36.2084 27.4284 34.5966 27.4018 33.4171 26.3744C32.4795 25.558 32.0038 24.2689 32.0038 22.5476C32.0038 20.9195 32.8117 19.5273 34.3396 18.5219C35.0357 18.0678 35.7993 17.7267 36.6019 17.5112C36.6215 17.5065 36.6413 17.503 36.6612 17.5005C36.8331 17.479 40.852 17.0042 43.3042 19.5952C44.9499 21.3342 45.4595 23.9931 44.8185 27.4985C44.2702 30.4985 42.8995 32.6453 40.7454 33.8785C39.3696 34.6644 37.6551 35.0674 35.7181 35.0674Z" fill="#690A3F"/>
<path d="M30.1064 29.1347H4.2422C4.15673 29.1347 4.07476 29.1007 4.01433 29.0403C3.95389 28.9798 3.91994 28.8979 3.91994 28.8124C3.91994 28.7269 3.95389 28.645 4.01433 28.5845C4.07476 28.5241 4.15673 28.4901 4.2422 28.4901H30.1094C30.1949 28.4901 30.2769 28.5241 30.3373 28.5845C30.3977 28.645 30.4317 28.7269 30.4317 28.8124C30.4317 28.8979 30.3977 28.9798 30.3373 29.0403C30.2769 29.1007 30.1949 29.1347 30.1094 29.1347H30.1064Z" fill="#CB4C81"/>
<path d="M18.8227 6.43259C18.7709 6.43246 18.7209 6.41366 18.6819 6.37963C18.6429 6.34561 18.6175 6.29865 18.6104 6.24739C18.4815 5.31455 17.8305 4.40319 17.8236 4.39416C17.8072 4.37125 17.7954 4.34532 17.7889 4.31785C17.7824 4.29038 17.7815 4.26191 17.786 4.23406C17.7906 4.20621 17.8006 4.17953 17.8154 4.15554C17.8303 4.13155 17.8497 4.11072 17.8726 4.09424C17.8955 4.07777 17.9215 4.06596 17.9489 4.05951C17.9764 4.05305 18.0049 4.05207 18.0327 4.05662C18.0606 4.06117 18.0873 4.07116 18.1112 4.08602C18.1352 4.10088 18.1561 4.12032 18.1725 4.14323C18.2018 4.18362 18.891 5.15084 19.0358 6.1881C19.0434 6.24456 19.0282 6.30172 18.9936 6.34701C18.9591 6.39229 18.9079 6.42199 18.8515 6.42958C18.842 6.43139 18.8323 6.43239 18.8227 6.43259Z" fill="#FFDDE8"/>
</svg>
