<svg width="41" height="55" viewBox="0 0 41 55" fill="none" xmlns="http://www.w3.org/2000/svg">
<path d="M30.9486 51.4583C30.7606 51.1668 30.6146 50.8503 30.5151 50.518L19.6609 14.2728L19.5678 13.9051C19.3626 13.2226 19.0014 12.5971 18.5129 12.0781C18.0244 11.5592 17.422 11.1609 16.7531 10.9148C16.0842 10.6687 15.3673 10.5815 14.6589 10.66C13.9505 10.7386 13.2702 10.9808 12.6715 11.3676C12.6715 11.3676 10.138 12.5144 10.1444 15.3982C10.1502 17.9345 10.9119 20.3714 8.78169 21.7487C8.20989 22.1177 7.5633 22.3552 6.88857 22.4439C6.21385 22.5327 5.52784 22.4705 4.88006 22.2619C4.23228 22.0533 3.6389 21.7035 3.14275 21.2377C2.6466 20.7719 2.26007 20.2018 2.01106 19.5684L1.79635 18.8568C0.250907 13.1743 2.44281 6.91277 7.63192 3.55015C14.0546 -0.612539 22.6337 1.24246 26.7946 7.69073C27.5061 8.79079 28.0589 9.98569 28.4366 11.2401L39.5812 48.3407C39.7712 49.1441 39.714 49.9862 39.4171 50.7566C38.8387 52.2462 37.3741 52.9369 37.3741 52.9369C36.8676 53.2643 36.3015 53.4888 35.7081 53.5975C35.1148 53.7062 34.5059 53.6969 33.9161 53.5703C33.3264 53.4436 32.7673 53.2021 32.2709 52.8594C31.7745 52.5167 31.3505 52.0795 31.023 51.573L30.9486 51.4583Z" fill="#E20613"/>
<path d="M34.8906 54.431C34.5095 54.4308 34.1296 54.3902 33.7571 54.31C33.0694 54.1641 32.4176 53.8832 31.8392 53.4837C31.2608 53.0842 30.7674 52.574 30.3875 51.9825L30.313 51.8661C30.0857 51.515 29.9094 51.1334 29.7893 50.7327L18.9317 14.4747L18.8386 14.1081C18.6652 13.5401 18.3624 13.0201 17.9541 12.5889C17.5457 12.1577 17.043 11.8271 16.4853 11.623C15.9276 11.4189 15.3302 11.347 14.74 11.4128C14.1498 11.4786 13.5829 11.6804 13.0839 12.0023L13.0368 12.0331L12.985 12.0564C12.9029 12.0948 10.8955 13.0567 10.9007 15.3963C10.9007 15.9119 10.9368 16.4367 10.9705 16.9447C11.1038 18.9667 11.2423 21.0579 9.19236 22.3834C8.00074 23.153 6.55238 23.4182 5.1654 23.1207C3.77842 22.8231 2.56623 21.9873 1.79508 20.7967C1.60127 20.4967 1.43774 20.1782 1.30689 19.8459L1.28652 19.7877L1.066 19.0546C0.0723571 15.3513 0.574107 11.4059 2.46303 8.06931C4.35195 4.73268 7.47667 2.27219 11.1633 1.21853C14.8498 0.164871 18.8029 0.60247 22.1697 2.43695C25.5366 4.27143 28.0475 7.35578 29.1609 11.0248L40.3054 48.1247C40.3235 48.1864 40.7052 49.5294 40.1221 51.0341C39.5007 52.6319 38.046 53.443 37.7499 53.5943C36.896 54.1401 35.9039 54.4304 34.8906 54.431V54.431ZM31.5821 51.048L31.6565 51.1644C31.9301 51.5875 32.2843 51.9526 32.6989 52.2389C33.1135 52.5251 33.5805 52.7268 34.0731 52.8326C34.5657 52.9383 35.0744 52.946 35.5699 52.8551C36.0655 52.7643 36.5383 52.5767 36.9614 52.3031L37.0039 52.2758L37.0493 52.2543C37.0586 52.2496 38.2532 51.6613 38.7099 50.4848C38.9441 49.8684 38.9936 49.1971 38.8525 48.553L27.7121 11.4565C27.3542 10.2707 26.8314 9.1411 26.159 8.10087C24.466 5.4703 21.8871 3.5329 18.8891 2.63946C15.8911 1.74603 12.6723 1.95562 9.81546 3.23029C6.95864 4.50495 4.65268 6.76044 3.31509 9.58834C1.9775 12.4162 1.69672 15.6296 2.52357 18.6467L2.72606 19.3222C2.8182 19.5515 2.93198 19.7715 3.06588 19.9791C3.61929 20.8325 4.48865 21.4315 5.48319 21.6447C6.47773 21.8578 7.51622 21.6677 8.37076 21.1161C9.61363 20.3126 9.59734 19.1075 9.4606 17.0471C9.42569 16.5159 9.38903 15.9666 9.38787 15.4027C9.38089 12.2863 11.8783 10.9189 12.3042 10.7082C13.0017 10.2665 13.7919 9.99204 14.6131 9.90638C15.4343 9.82073 16.2641 9.92618 17.0378 10.2145C17.8114 10.5028 18.5079 10.9662 19.0728 11.5683C19.6376 12.1705 20.0555 12.8952 20.2938 13.6857L20.3031 13.7188L20.3922 14.0708L31.2399 50.3015C31.3185 50.5651 31.4337 50.8164 31.5821 51.048V51.048Z" fill="black"/>
<path d="M1.7959 18.8566C1.84798 19.0999 1.91978 19.3384 2.01061 19.57C1.93206 19.3314 1.86107 19.094 1.7959 18.8566Z" fill="#E20613"/>
<path d="M1.30721 19.846C1.20137 19.5761 1.11769 19.2981 1.05701 19.0146L2.52681 18.6573C2.58965 18.89 2.65773 19.1146 2.7293 19.3317L1.30721 19.846Z" fill="black"/>
<path d="M7.30913 30.6135C7.30913 30.6135 9.31309 33.3722 10.176 33.9616C11.0389 34.551 13.9314 35.1352 13.9314 35.1352C13.9314 35.1352 11.8396 37.2177 11.4445 38.1842C11.0494 39.1507 10.8969 42.5575 10.8969 42.5575C10.8969 42.5575 8.89298 39.7989 8.03065 39.2101C7.16832 38.6212 4.27527 38.0358 4.27527 38.0358C4.27527 38.0358 6.36709 35.9533 6.76218 34.9869C7.15727 34.0204 7.30913 30.6135 7.30913 30.6135Z" fill="#F3B427"/>
<path d="M10.8969 43.3144C10.7778 43.3144 10.6604 43.2864 10.5543 43.2325C10.4481 43.1786 10.3562 43.1004 10.2859 43.0043C9.54053 41.9784 8.15336 40.2113 7.60466 39.8366C7.09785 39.4904 5.26496 39.0097 4.12566 38.7793C3.99096 38.7524 3.86611 38.6894 3.76452 38.597C3.66294 38.5045 3.58844 38.3861 3.54902 38.2546C3.50961 38.123 3.50677 37.9831 3.5408 37.8501C3.57483 37.717 3.64446 37.5957 3.74221 37.4992C4.56555 36.6788 5.82995 35.2677 6.06212 34.6998C6.31407 34.0848 6.49736 31.8487 6.55438 30.579C6.56146 30.4224 6.61703 30.2718 6.71342 30.1482C6.8098 30.0245 6.94224 29.9338 7.0924 29.8887C7.24256 29.8436 7.40303 29.8463 7.55161 29.8964C7.7002 29.9464 7.82955 30.0414 7.92177 30.1682C8.66715 31.1941 10.0543 32.9612 10.603 33.3359C11.1104 33.6851 12.9427 34.1628 14.0814 34.3932C14.2162 34.42 14.3411 34.483 14.4428 34.5754C14.5444 34.6678 14.619 34.7861 14.6585 34.9177C14.6979 35.0493 14.7008 35.1892 14.6668 35.3223C14.6328 35.4554 14.5632 35.5768 14.4655 35.6733C13.6415 36.4937 12.3771 37.9048 12.145 38.4727C11.8936 39.0889 11.7097 41.3273 11.6533 42.5935C11.6463 42.7502 11.5907 42.9008 11.4943 43.0246C11.3978 43.1483 11.2653 43.239 11.1151 43.2841C11.0443 43.3051 10.9707 43.3153 10.8969 43.3144V43.3144ZM5.74209 37.5929C6.69519 37.8338 7.88221 38.1899 8.45709 38.5821C8.94004 38.912 9.65691 39.7301 10.2813 40.5022C10.3755 39.513 10.5227 38.4343 10.7467 37.8925C11.0098 37.2484 11.804 36.2971 12.4662 35.5709C11.5137 35.3294 10.3266 34.9733 9.75175 34.5817C9.2688 34.2518 8.55135 33.4337 7.92701 32.6615C7.83333 33.6507 7.68554 34.7295 7.46442 35.2712C7.19851 35.9171 6.40426 36.8685 5.74209 37.5929Z" fill="#A81A3F"/>
<path d="M2.82312 20.2899L1.42664 19.7081C1.47493 19.5917 2.63169 16.8656 5.25591 15.9963C6.90144 15.4511 8.7128 15.7577 10.6394 16.9075L9.86432 18.2068C8.33167 17.2921 6.94159 17.0315 5.73305 17.4324C3.75586 18.0887 2.83243 20.2684 2.82312 20.2899Z" fill="#F3E0BF"/>
<path d="M10.2473 13.4296C9.18892 11.9936 7.94837 11.1708 6.5612 10.9858C4.1831 10.6669 2.11688 12.2758 2.09651 12.2921L1.15796 11.1051C1.2627 11.0224 3.75542 9.08308 6.76252 9.48632C8.57155 9.72895 10.1537 10.7542 11.4652 12.533L10.2473 13.4296Z" fill="#F3E0BF"/>
<path d="M14.3855 10.8013C12.7563 3.74617 7.93551 4.27276 7.73127 4.29836L7.5282 2.79714C7.5957 2.78783 9.19351 2.5801 11.0229 3.45582C12.0877 3.96495 13.0181 4.73593 13.7879 5.74547C14.7242 6.97379 15.4213 8.55939 15.8594 10.4586L14.3855 10.8013Z" fill="#F3E0BF"/>
<path d="M19.2865 12.7471L18.0949 11.8161C19.6129 9.87732 20.0528 7.6924 19.4023 5.32129C19.093 4.20444 18.5853 3.15235 17.9034 2.21527L19.0875 1.2738C19.1352 1.33199 20.2547 2.75408 20.8459 4.86219C21.6419 7.6988 21.1025 10.4249 19.2865 12.7471Z" fill="#F3E0BF"/>
<path d="M22.0394 20.7314L20.8634 19.7801C26.2701 13.0961 24.592 6.02643 24.5746 5.95602L26.0426 5.59003C26.0624 5.67091 26.5325 7.60446 26.2753 10.4382C26.035 13.042 25.107 16.9411 22.0394 20.7314Z" fill="#F3E0BF"/>
<path d="M24.2194 28.2307L23.1545 27.156C26.6632 23.6793 27.9177 20.2719 28.3524 18.0259C28.8237 15.5913 28.4624 13.9528 28.4583 13.9353L29.9322 13.5926C29.9496 13.6688 30.3656 15.4971 29.8548 18.2225C29.391 20.7007 28.0364 24.4486 24.2194 28.2307Z" fill="#F3E0BF"/>
<path d="M26.5015 35.9177L25.4785 34.8034C32.3179 28.5192 31.0779 22.6691 31.0645 22.6109L32.5396 22.274C32.5559 22.345 32.9289 24.0382 32.3493 26.5758C31.8256 28.8683 30.3861 32.3502 26.5015 35.9177Z" fill="#F3E0BF"/>
<path d="M29.3632 45.448L28.3403 44.3338C35.1795 38.0496 33.9396 32.1995 33.9262 32.1413L35.4012 31.8044C35.4175 31.8754 35.7905 33.5686 35.211 36.1061C34.6873 38.397 33.2478 41.8789 29.3632 45.448Z" fill="#F3E0BF"/>
<path d="M31.3952 52.4304L30.4764 51.2265C32.5008 49.6782 35.1442 47.2047 36.2416 44.2121C36.8875 42.452 36.6861 41.3255 36.6838 41.3144V41.3214L38.1647 41.0125C38.2153 41.2324 39.1981 46.4605 31.3952 52.4304Z" fill="#F3E0BF"/>
<path d="M34.8906 54.431C34.5095 54.4308 34.1296 54.3902 33.7571 54.31C33.0694 54.1641 32.4176 53.8832 31.8392 53.4837C31.2608 53.0842 30.7674 52.574 30.3875 51.9825L30.313 51.8661C30.0857 51.515 29.9094 51.1334 29.7893 50.7327L18.9317 14.4747L18.8386 14.1081C18.6652 13.5401 18.3624 13.0201 17.9541 12.5889C17.5457 12.1577 17.043 11.8271 16.4853 11.623C15.9276 11.4189 15.3302 11.347 14.74 11.4128C14.1498 11.4786 13.5829 11.6804 13.0839 12.0023L13.0368 12.0331L12.985 12.0564C12.9029 12.0948 10.8955 13.0567 10.9007 15.3963C10.9007 15.9119 10.9368 16.4367 10.9705 16.9447C11.1038 18.9667 11.2423 21.0579 9.19236 22.3834C8.00074 23.153 6.55238 23.4182 5.1654 23.1207C3.77842 22.8231 2.56623 21.9873 1.79508 20.7967C1.60127 20.4967 1.43774 20.1782 1.30689 19.8459L1.28652 19.7877L1.066 19.0546C0.0723571 15.3513 0.574107 11.4059 2.46303 8.06931C4.35195 4.73268 7.47667 2.27219 11.1633 1.21853C14.8498 0.164871 18.8029 0.60247 22.1697 2.43695C25.5366 4.27143 28.0475 7.35578 29.1609 11.0248L40.3054 48.1247C40.3235 48.1864 40.7052 49.5294 40.1221 51.0341C39.5007 52.6319 38.046 53.443 37.7499 53.5943C36.896 54.1401 35.9039 54.4304 34.8906 54.431V54.431ZM31.5821 51.048L31.6565 51.1644C31.9301 51.5875 32.2843 51.9526 32.6989 52.2389C33.1135 52.5251 33.5805 52.7268 34.0731 52.8326C34.5657 52.9383 35.0744 52.946 35.5699 52.8551C36.0655 52.7643 36.5383 52.5767 36.9614 52.3031L37.0039 52.2758L37.0493 52.2543C37.0586 52.2496 38.2532 51.6613 38.7099 50.4848C38.9441 49.8684 38.9936 49.1971 38.8525 48.553L27.7121 11.4565C27.3542 10.2707 26.8314 9.1411 26.159 8.10087C24.466 5.4703 21.8871 3.5329 18.8891 2.63946C15.8911 1.74603 12.6723 1.95562 9.81546 3.23029C6.95864 4.50495 4.65268 6.76044 3.31509 9.58834C1.9775 12.4162 1.69672 15.6296 2.52357 18.6467L2.72606 19.3222C2.8182 19.5515 2.93198 19.7715 3.06588 19.9791C3.61929 20.8325 4.48865 21.4315 5.48319 21.6447C6.47773 21.8578 7.51622 21.6677 8.37076 21.1161C9.61363 20.3126 9.59734 19.1075 9.4606 17.0471C9.42569 16.5159 9.38903 15.9666 9.38787 15.4027C9.38089 12.2863 11.8783 10.9189 12.3042 10.7082C13.0017 10.2665 13.7919 9.99204 14.6131 9.90638C15.4343 9.82073 16.2641 9.92618 17.0378 10.2145C17.8114 10.5028 18.5079 10.9662 19.0728 11.5683C19.6376 12.1705 20.0555 12.8952 20.2938 13.6857L20.3031 13.7188L20.3922 14.0708L31.2399 50.3015C31.3185 50.5651 31.4337 50.8164 31.5821 51.048V51.048Z" fill="#A81A3F"/>
<path d="M1.30721 19.846C1.20137 19.5761 1.11769 19.2981 1.05701 19.0146L2.52681 18.6573C2.58965 18.89 2.65773 19.1146 2.7293 19.3317L1.30721 19.846Z" fill="#A81A3F"/>
<path d="M8.57352 6.99008C8.41267 6.99002 8.25602 6.93868 8.12633 6.84353C7.99664 6.74837 7.90066 6.61435 7.85233 6.46093C7.804 6.30751 7.80584 6.14267 7.85758 5.99036C7.90931 5.83806 8.00825 5.70621 8.14003 5.61396C8.20811 5.56625 9.83676 4.44558 12.3836 3.82123C14.739 3.24402 18.3612 2.99847 22.2393 5.1089C22.3266 5.15639 22.4036 5.22061 22.4661 5.29788C22.5285 5.37514 22.5751 5.46396 22.6033 5.55924C22.6314 5.65453 22.6405 5.75442 22.63 5.85321C22.6195 5.952 22.5897 6.04776 22.5422 6.13503C22.4947 6.22229 22.4305 6.29934 22.3532 6.36179C22.2759 6.42424 22.1871 6.47085 22.0918 6.49897C21.9966 6.5271 21.8967 6.53618 21.7979 6.5257C21.6991 6.51522 21.6033 6.48538 21.516 6.43789C18.7621 4.939 15.8294 4.54856 12.8002 5.27706C10.51 5.82751 9.01807 6.84811 9.00294 6.85625C8.8768 6.94361 8.72696 6.9903 8.57352 6.99008V6.99008Z" fill="#FFEAE8"/>
<path opacity="0.4" d="M1.7959 18.8567C1.7959 18.8567 6.81335 21.4704 7.21193 16.7561C7.84908 9.2215 11.189 7.5335 14.0885 7.32984C18.3396 7.03018 20.7218 7.73715 23.2721 14.8034C25.8224 21.8696 33.6678 49.051 33.6678 49.051C33.6678 49.051 37.1375 52.3165 39.1426 46.8836C39.1426 46.8836 42.0246 51.6636 36.3548 53.4302C30.6851 55.1967 30.1201 49.2006 30.1201 49.2006L20.0951 15.7245C20.0951 15.7245 19.5633 10.792 15.1224 10.6314C10.6816 10.4708 10.2505 14.3978 10.2505 14.3978L10.1969 19.5683C10.1969 19.5683 9.14956 23.5186 4.27466 22.0209C4.27466 22.0209 2.75889 21.3925 1.7959 18.8567Z" fill="#A81A3F"/>
<path d="M26.5201 13.038C26.3677 13.0379 26.2188 12.9917 26.0931 12.9055C25.9673 12.8194 25.8706 12.6972 25.8155 12.5551C25.1998 10.9736 24.5179 9.87848 24.0536 9.23319C23.5526 8.53495 23.1889 8.20852 23.1854 8.20503C23.1087 8.14 23.0457 8.06032 23.0001 7.97066C22.9546 7.881 22.9274 7.78316 22.9201 7.68285C22.9128 7.58255 22.9256 7.4818 22.9577 7.38649C22.9898 7.29119 23.0406 7.20324 23.1071 7.1278C23.1736 7.05236 23.2545 6.99094 23.345 6.94713C23.4355 6.90332 23.5339 6.878 23.6343 6.87265C23.7347 6.86731 23.8352 6.88204 23.9299 6.91599C24.0246 6.94994 24.1115 7.00243 24.1856 7.07038C24.2555 7.12857 25.901 8.60012 27.2247 12.004C27.27 12.1188 27.2865 12.2429 27.2728 12.3656C27.2591 12.4882 27.2156 12.6056 27.1462 12.7076C27.0767 12.8095 26.9833 12.893 26.8742 12.9506C26.7651 13.0082 26.6435 13.0382 26.5201 13.038V13.038Z" fill="#FFEAE8"/>
</svg>
