<svg width="53" height="59" viewBox="0 0 53 59" fill="none" xmlns="http://www.w3.org/2000/svg">
<path d="M26.9704 46.0067C27.0536 46.0067 27.1368 46.0108 27.2194 46.0195C32.252 46.549 34.1099 53.8637 34.1099 53.8637C34.1505 54.0091 34.2015 54.1515 34.2623 54.2896C34.7528 55.3871 35.6047 56.2833 36.6759 56.8287C37.7471 57.3741 38.973 57.5359 40.149 57.2869C41.325 57.0379 42.3801 56.3933 43.1384 55.4605C43.8967 54.5278 44.3123 53.3632 44.3159 52.1612V52.1612C44.3148 51.559 44.2128 50.9612 44.0139 50.3929C43.4716 48.8433 42.2683 45.447 41.0207 42.1949C39.7732 38.9428 38.1905 35.8159 38.6776 34.8442C39.6598 32.885 45.0502 33.0945 46.559 33.1928C46.83 33.2108 47.1022 33.1958 47.3695 33.148L47.8641 33.0596C48.9761 32.7558 49.9574 32.095 50.6569 31.1788C51.3564 30.2626 51.7353 29.1419 51.7353 27.9892C51.7353 25.8397 50.4459 24.1354 48.6013 23.2702L48.4547 23.1992C48.0533 23.0062 47.6272 22.8691 47.1886 22.7919C45.4767 22.4922 40.7764 21.8103 35.2341 22.2042C31.9069 22.4405 32.8769 19.6126 32.8769 19.6126C33.0015 19.4732 33.1408 19.3478 33.2924 19.2384C35.7944 17.4346 37.4033 14.619 37.4033 11.4559C37.4033 6.01254 32.636 1.59674 26.7522 1.59674H26.2477C20.365 1.59674 15.5995 6.0108 15.5995 11.4559C15.5995 14.619 17.2083 17.4341 19.711 19.2384C19.8622 19.3479 20.0013 19.4734 20.1258 19.6126V19.6126C20.1258 19.6126 21.0958 22.4405 17.7687 22.2042C12.2264 21.8103 7.52778 22.4922 5.81418 22.7919C5.37568 22.8691 4.94985 23.0062 4.54861 23.1992L4.40198 23.2702C2.55688 24.1354 1.26746 25.8397 1.26746 27.9892C1.26743 29.1419 1.64635 30.2626 2.34585 31.1788C3.04536 32.095 4.02666 32.7558 5.13863 33.0596L5.63322 33.148C5.90058 33.1958 6.17276 33.2108 6.44376 33.1928C7.95255 33.0945 13.343 32.885 14.3252 34.8442C14.8122 35.8159 13.2324 38.9335 11.982 42.1949C10.7316 45.4563 9.52825 48.8445 8.98595 50.394C8.7872 50.962 8.68512 51.5594 8.68396 52.1612V52.1612C8.68783 53.3631 9.10361 54.5275 9.86197 55.46C10.6203 56.3926 11.6755 57.037 12.8514 57.2858C14.0274 57.5347 15.2531 57.3729 16.3242 56.8274C17.3953 56.282 18.2471 55.3859 18.7375 54.2885C18.7983 54.1502 18.8494 54.0079 18.8905 53.8625V53.8625C18.8905 53.8625 20.7769 46.4338 25.8986 46.0073C25.9777 46.0009 26.0574 45.9992 26.1371 45.9997L26.9704 46.0067Z" fill="#F3970D"/>
<path d="M39.0546 58.1597C37.8941 58.16 36.7584 57.8237 35.7852 57.1915C34.812 56.5594 34.0431 55.6585 33.5717 54.598C33.4963 54.4282 33.4331 54.2532 33.3825 54.0744L33.3767 54.0522C33.3593 53.9847 31.5846 47.2415 27.1403 46.7742C27.0908 46.769 27.0338 46.7661 26.9657 46.7655L26.1325 46.7597C26.0644 46.7597 26.0103 46.7597 25.962 46.7649C21.431 47.142 19.6423 53.9801 19.6248 54.0522L19.6184 54.0744C19.5678 54.2532 19.5046 54.4282 19.4293 54.598C18.8684 55.8534 17.894 56.8786 16.6687 57.5026C15.4434 58.1265 14.0413 58.3116 12.6961 58.027C11.3508 57.7424 10.1438 57.0052 9.27627 55.9384C8.40873 54.8716 7.9331 53.5397 7.92869 52.1647C7.9292 51.4765 8.04565 50.7933 8.27315 50.1438C8.8655 48.4518 10.0432 45.1339 11.2739 41.9249C11.5869 41.1103 11.9139 40.3126 12.2334 39.5428C12.6837 38.4523 13.1091 37.4224 13.3756 36.6003C13.7247 35.5186 13.6578 35.2201 13.6444 35.1793C13.1504 34.2117 10.2114 33.7055 6.49147 33.9493C6.15945 33.9698 5.82615 33.9503 5.4988 33.8911L4.97047 33.7968L4.93788 33.7881C3.66657 33.4392 2.54485 32.6828 1.74486 31.635C0.94487 30.5871 0.510806 29.3057 0.509277 27.9874C0.509277 25.6535 1.84234 23.6339 4.07555 22.5848L4.21869 22.5161C4.68259 22.2929 5.17502 22.1347 5.68209 22.046C7.46436 21.7335 12.2153 21.0504 17.821 21.4484C18.5711 21.5019 19.1064 21.3751 19.3281 21.0905C19.5608 20.7949 19.509 20.2841 19.4445 19.9989C19.3876 19.9458 19.3276 19.8963 19.2647 19.8506C16.4525 17.8228 14.8425 14.7627 14.8425 11.4548C14.8401 5.60409 19.9577 0.840332 26.2477 0.840332H26.7522C33.0427 0.840332 38.1568 5.60235 38.1568 11.4559C38.1568 14.7639 36.5438 17.8239 33.7346 19.8517C33.6715 19.8973 33.6115 19.9469 33.5548 20.0001C33.4925 20.2829 33.4419 20.7949 33.6712 21.0917C33.8928 21.3762 34.4276 21.5031 35.1788 21.4495C40.7845 21.0515 45.536 21.7347 47.3177 22.0471C47.8246 22.136 48.3168 22.2942 48.7805 22.5173L48.9243 22.5859C51.1575 23.6333 52.49 25.6547 52.49 27.9886C52.4884 29.3069 52.0544 30.5883 51.2544 31.6361C50.4544 32.684 49.3327 33.4404 48.0614 33.7892L48.0288 33.798L47.5004 33.8922C47.1731 33.9514 46.8398 33.971 46.5078 33.9504C42.7896 33.7055 39.8512 34.2117 39.3566 35.1793C39.3432 35.2201 39.2751 35.5191 39.6254 36.6003C39.8919 37.4224 40.3173 38.4523 40.7676 39.5422C41.0853 40.3126 41.4141 41.1092 41.7271 41.9278C42.9578 45.1357 44.1355 48.4541 44.7278 50.1462C44.9548 50.7938 45.0712 51.4749 45.0723 52.1612C45.0661 53.7535 44.4296 55.2786 43.3018 56.4027C42.174 57.5269 40.6469 58.1586 39.0546 58.1597V58.1597ZM34.8395 53.6647C34.8709 53.7728 34.9098 53.8786 34.9559 53.9813C35.3767 54.9189 36.1059 55.6841 37.022 56.1498C37.9382 56.6154 38.9862 56.7534 39.9916 56.5407C40.9971 56.3279 41.8994 55.7774 42.5485 54.9806C43.1976 54.1839 43.5544 53.1889 43.5594 52.1612C43.5582 51.645 43.4705 51.1326 43.2999 50.6454C42.7105 48.9609 41.5386 45.657 40.3167 42.4667C40.0106 41.6689 39.6854 40.8811 39.3706 40.12C38.1294 37.1146 37.5051 35.4999 38.0032 34.5061C38.5525 33.411 39.971 32.7535 42.341 32.4963C44.0203 32.3136 45.7368 32.38 46.6102 32.4381C46.8203 32.4522 47.0313 32.4404 47.2386 32.4032L47.6989 32.3212C48.6428 32.0547 49.474 31.4875 50.0663 30.7056C50.6586 29.9238 50.9796 28.97 50.9806 27.9892C50.9806 26.2564 49.9716 24.7482 48.2813 23.9545L48.1265 23.8823C47.7878 23.7195 47.4284 23.604 47.0582 23.539C45.3306 23.2365 40.7257 22.5743 35.2876 22.9607C33.9743 23.0538 33.027 22.7349 32.4713 22.0128C31.6532 20.9491 32.1071 19.5276 32.1612 19.3688L32.2112 19.2239L32.3137 19.1075C32.4745 18.928 32.6541 18.7663 32.8496 18.6252C35.2631 16.8848 36.6468 14.2716 36.6468 11.4559C36.6468 6.43675 32.2083 2.35319 26.7551 2.35319H26.2506C20.7944 2.35319 16.3588 6.43675 16.3588 11.4559C16.3588 14.2716 17.7425 16.8848 20.1561 18.6246C20.3515 18.7659 20.5312 18.9278 20.692 19.1075L20.7944 19.2239L20.8444 19.3688C20.8985 19.5276 21.3524 20.9491 20.5343 22.0128C19.9786 22.7349 19.0313 23.0543 17.7181 22.9607C12.2799 22.5737 7.67499 23.2359 5.94742 23.539C5.57727 23.604 5.2178 23.7195 4.87911 23.8823L4.72608 23.9557C3.03575 24.7493 2.02679 26.2575 2.02679 27.9903C2.02777 28.9712 2.34877 29.9249 2.94106 30.7068C3.53334 31.4886 4.36457 32.0559 5.30853 32.3223L5.76879 32.4044C5.97625 32.4416 6.18749 32.4533 6.39779 32.4393C7.2706 32.3811 8.98711 32.3136 10.6664 32.4975C13.0363 32.7547 14.4549 33.4122 15.0042 34.5073C15.5023 35.5011 14.878 37.1158 13.6368 40.1211C13.322 40.8828 12.9968 41.6701 12.6907 42.4678C11.4618 45.6576 10.2922 48.9609 9.6999 50.6437C9.52925 51.1314 9.44153 51.6444 9.44038 52.1612C9.44498 53.1896 9.80171 54.1853 10.4512 54.9827C11.1006 55.7801 12.0036 56.3309 13.0098 56.5435C14.016 56.756 15.0646 56.6176 15.9811 56.151C16.8976 55.6845 17.6266 54.9181 18.0468 53.9795C18.0928 53.8766 18.1317 53.7706 18.1632 53.6624C18.549 52.2835 19.1055 50.9582 19.8198 49.7173C21.4042 46.9948 23.4855 45.4522 25.8357 45.2561C25.93 45.2486 26.0277 45.2451 26.1424 45.2462L26.9762 45.2521C27.0925 45.2521 27.2008 45.2585 27.2991 45.2689C29.6074 45.5116 31.6503 47.0663 33.2068 49.7639C33.9095 50.992 34.4579 52.3022 34.8395 53.6647V53.6647Z" fill="black"/>
<path opacity="0.3" d="M28.9551 26.4106C26.6579 30.4407 22.6197 27.6907 23.9341 24.91C24.4695 23.7753 28.9551 26.4106 28.9551 26.4106Z" fill="#B73F39"/>
<path opacity="0.3" d="M28.9551 33.2317C26.6579 37.2617 22.6197 34.5118 23.9341 31.731C24.4695 30.5964 28.9551 33.2317 28.9551 33.2317Z" fill="#B73F39"/>
<path opacity="0.3" d="M28.9551 39.8743C26.6579 43.9043 22.6197 41.1544 23.9341 38.3737C24.4695 37.2391 28.9551 39.8743 28.9551 39.8743Z" fill="#B73F39"/>
<path d="M14.9727 46.2842C14.9709 46.2419 14.9657 46.1999 14.957 46.1585C14.9599 46.1835 14.9623 46.2085 14.9646 46.233C14.9669 46.2574 14.9698 46.2685 14.9727 46.2842Z" fill="#FA6F00"/>
<path d="M18.0624 11.9592V11.9626C18.0879 11.8789 18.056 11.8003 18.0461 11.8189C18.0576 11.8648 18.0631 11.9119 18.0624 11.9592Z" fill="#FA6F00"/>
<path d="M19.7838 20.7285C19.7326 20.7494 19.75 20.746 19.7838 20.7285V20.7285Z" fill="#FA6F00"/>
<path d="M16.0662 24.8455L16.0575 24.8536C16.1931 24.7885 16.2163 24.7477 16.1896 24.7535H16.1855C16.1471 24.7821 16.1075 24.8181 16.0662 24.8455Z" fill="#FA6F00"/>
<path d="M14.7931 26.7184C14.9095 26.5084 14.8728 26.5398 14.8373 26.6084C14.8263 26.6335 14.8158 26.6608 14.8047 26.6881C14.8007 26.698 14.7966 26.7085 14.7931 26.7184Z" fill="#FA6F00"/>
<path d="M43.2017 32.5619C43.2017 32.5619 45.2493 32.662 47.2631 32.5619C49.2769 32.4619 51.2239 30.7582 51.2576 28.8316C51.2914 26.905 51.3245 25.8961 48.872 24.097C46.4194 22.2978 42.9352 22.8971 42.9352 22.8971L44.4794 24.9494L40.8521 27.2222L44.0524 28.7053L40.3488 31.1678C40.3488 31.1678 41.8587 32.662 43.2017 32.5619Z" fill="#F3D49E"/>
<path d="M9.80794 32.5619C9.80794 32.5619 7.76035 32.662 5.74651 32.5619C3.73266 32.4619 1.78573 30.7582 1.75198 28.8316C1.71823 26.905 1.68507 25.8961 4.13764 24.097C6.59021 22.2978 10.0768 22.8971 10.0768 22.8971L8.53249 24.9494L12.1575 27.2222L8.95725 28.7053L12.6608 31.1678C12.6608 31.1678 11.1509 32.662 9.80794 32.5619Z" fill="#F3D49E"/>
<path d="M19.3153 51.2576C19.3153 51.2576 18.8649 53.1149 17.874 54.8408C16.8831 56.5666 13.8626 57.5412 12.2607 56.7551C10.6588 55.969 9.81161 55.571 9.43398 52.6582C9.05634 49.7453 11.1261 46.9337 11.1261 46.9337L12.1205 49.1582L15.6286 46.9378L15.4075 50.3755L19.107 48.1644C19.107 48.1644 20.0036 50.1212 19.3153 51.2576Z" fill="#F3D49E"/>
<path d="M33.7671 51.2576C33.7671 51.2576 34.2175 53.1149 35.2084 54.8408C36.1993 56.5666 39.2198 57.5412 40.8217 56.7551C42.4236 55.969 43.2708 55.571 43.6484 52.6582C44.026 49.7453 41.9563 46.9337 41.9563 46.9337L40.9619 49.1582L37.4538 46.9378L37.6749 50.3755L34.2169 48.6031C34.2169 48.6031 33.0787 50.1212 33.7671 51.2576Z" fill="#F3D49E"/>
<path d="M39.0546 58.1597C37.8941 58.16 36.7584 57.8237 35.7852 57.1915C34.812 56.5594 34.0431 55.6585 33.5717 54.598C33.4963 54.4282 33.4331 54.2532 33.3825 54.0744L33.3767 54.0522C33.3593 53.9847 31.5846 47.2415 27.1403 46.7742C27.0908 46.769 27.0338 46.7661 26.9657 46.7655L26.1325 46.7597C26.0644 46.7597 26.0103 46.7597 25.962 46.7649C21.431 47.142 19.6423 53.9801 19.6248 54.0522L19.6184 54.0744C19.5678 54.2532 19.5046 54.4282 19.4293 54.598C18.8684 55.8534 17.894 56.8786 16.6687 57.5026C15.4434 58.1265 14.0413 58.3116 12.6961 58.027C11.3508 57.7424 10.1438 57.0052 9.27627 55.9384C8.40873 54.8716 7.9331 53.5397 7.92869 52.1647C7.9292 51.4765 8.04565 50.7933 8.27315 50.1438C8.8655 48.4518 10.0432 45.1339 11.2739 41.9249C11.5869 41.1103 11.9139 40.3126 12.2334 39.5428C12.6837 38.4523 13.1091 37.4224 13.3756 36.6003C13.7247 35.5186 13.6578 35.2201 13.6444 35.1793C13.1504 34.2117 10.2114 33.7055 6.49147 33.9493C6.15945 33.9698 5.82615 33.9503 5.4988 33.8911L4.97047 33.7968L4.93788 33.7881C3.66657 33.4392 2.54485 32.6828 1.74486 31.635C0.94487 30.5871 0.510806 29.3057 0.509277 27.9874C0.509277 25.6535 1.84234 23.6339 4.07555 22.5848L4.21869 22.5161C4.68259 22.2929 5.17502 22.1347 5.68209 22.046C7.46436 21.7335 12.2153 21.0504 17.821 21.4484C18.5711 21.5019 19.1064 21.3751 19.3281 21.0905C19.5608 20.7949 19.509 20.2841 19.4445 19.9989C19.3876 19.9458 19.3276 19.8963 19.2647 19.8506C16.4525 17.8228 14.8425 14.7627 14.8425 11.4548C14.8401 5.60409 19.9577 0.840332 26.2477 0.840332H26.7522C33.0427 0.840332 38.1568 5.60235 38.1568 11.4559C38.1568 14.7639 36.5438 17.8239 33.7346 19.8517C33.6715 19.8973 33.6115 19.9469 33.5548 20.0001C33.4925 20.2829 33.4419 20.7949 33.6712 21.0917C33.8928 21.3762 34.4276 21.5031 35.1788 21.4495C40.7845 21.0515 45.536 21.7347 47.3177 22.0471C47.8246 22.136 48.3168 22.2942 48.7805 22.5173L48.9243 22.5859C51.1575 23.6333 52.49 25.6547 52.49 27.9886C52.4884 29.3069 52.0544 30.5883 51.2544 31.6361C50.4544 32.684 49.3327 33.4404 48.0614 33.7892L48.0288 33.798L47.5004 33.8922C47.1731 33.9514 46.8398 33.971 46.5078 33.9504C42.7896 33.7055 39.8512 34.2117 39.3566 35.1793C39.3432 35.2201 39.2751 35.5191 39.6254 36.6003C39.8919 37.4224 40.3173 38.4523 40.7676 39.5422C41.0853 40.3126 41.4141 41.1092 41.7271 41.9278C42.9578 45.1357 44.1355 48.4541 44.7278 50.1462C44.9548 50.7938 45.0712 51.4749 45.0723 52.1612C45.0661 53.7535 44.4296 55.2786 43.3018 56.4027C42.174 57.5269 40.6469 58.1586 39.0546 58.1597V58.1597ZM34.8395 53.6647C34.8709 53.7728 34.9098 53.8786 34.9559 53.9813C35.3767 54.9189 36.1059 55.6841 37.022 56.1498C37.9382 56.6154 38.9862 56.7534 39.9916 56.5407C40.9971 56.3279 41.8994 55.7774 42.5485 54.9806C43.1976 54.1839 43.5544 53.1889 43.5594 52.1612C43.5582 51.645 43.4705 51.1326 43.2999 50.6454C42.7105 48.9609 41.5386 45.657 40.3167 42.4667C40.0106 41.6689 39.6854 40.8811 39.3706 40.12C38.1294 37.1146 37.5051 35.4999 38.0032 34.5061C38.5525 33.411 39.971 32.7535 42.341 32.4963C44.0203 32.3136 45.7368 32.38 46.6102 32.4381C46.8203 32.4522 47.0313 32.4404 47.2386 32.4032L47.6989 32.3212C48.6428 32.0547 49.474 31.4875 50.0663 30.7056C50.6586 29.9238 50.9796 28.97 50.9806 27.9892C50.9806 26.2564 49.9716 24.7482 48.2813 23.9545L48.1265 23.8823C47.7878 23.7195 47.4284 23.604 47.0582 23.539C45.3306 23.2365 40.7257 22.5743 35.2876 22.9607C33.9743 23.0538 33.027 22.7349 32.4713 22.0128C31.6532 20.9491 32.1071 19.5276 32.1612 19.3688L32.2112 19.2239L32.3137 19.1075C32.4745 18.928 32.6541 18.7663 32.8496 18.6252C35.2631 16.8848 36.6468 14.2716 36.6468 11.4559C36.6468 6.43675 32.2083 2.35319 26.7551 2.35319H26.2506C20.7944 2.35319 16.3588 6.43675 16.3588 11.4559C16.3588 14.2716 17.7425 16.8848 20.1561 18.6246C20.3515 18.7659 20.5312 18.9278 20.692 19.1075L20.7944 19.2239L20.8444 19.3688C20.8985 19.5276 21.3524 20.9491 20.5343 22.0128C19.9786 22.7349 19.0313 23.0543 17.7181 22.9607C12.2799 22.5737 7.67499 23.2359 5.94742 23.539C5.57727 23.604 5.2178 23.7195 4.87911 23.8823L4.72608 23.9557C3.03575 24.7493 2.02679 26.2575 2.02679 27.9903C2.02777 28.9712 2.34877 29.9249 2.94106 30.7068C3.53334 31.4886 4.36457 32.0559 5.30853 32.3223L5.76879 32.4044C5.97625 32.4416 6.18749 32.4533 6.39779 32.4393C7.2706 32.3811 8.98711 32.3136 10.6664 32.4975C13.0363 32.7547 14.4549 33.4122 15.0042 34.5073C15.5023 35.5011 14.878 37.1158 13.6368 40.1211C13.322 40.8828 12.9968 41.6701 12.6907 42.4678C11.4618 45.6576 10.2922 48.9609 9.6999 50.6437C9.52925 51.1314 9.44153 51.6444 9.44038 52.1612C9.44498 53.1896 9.80171 54.1853 10.4512 54.9827C11.1006 55.7801 12.0036 56.3309 13.0098 56.5435C14.016 56.756 15.0646 56.6176 15.9811 56.151C16.8976 55.6845 17.6266 54.9181 18.0468 53.9795C18.0928 53.8766 18.1317 53.7706 18.1632 53.6624C18.549 52.2835 19.1055 50.9582 19.8198 49.7173C21.4042 46.9948 23.4855 45.4522 25.8357 45.2561C25.93 45.2486 26.0277 45.2451 26.1424 45.2462L26.9762 45.2521C27.0925 45.2521 27.2008 45.2585 27.2991 45.2689C29.6074 45.5116 31.6503 47.0663 33.2068 49.7639C33.9095 50.992 34.4579 52.3022 34.8395 53.6647V53.6647Z" fill="#B73F39"/>
<path d="M32.2411 11.7751C32.7403 11.2758 32.6729 10.399 32.0905 9.81659C31.5081 9.23418 30.6312 9.16676 30.132 9.666C29.6327 10.1652 29.7002 11.0421 30.2826 11.6245C30.865 12.2069 31.7418 12.2743 32.2411 11.7751Z" fill="#FE5B4A"/>
<path d="M31.3996 12.3119C30.9457 12.2989 30.5123 12.1208 30.1802 11.8112C29.8482 11.5016 29.6404 11.0815 29.5958 10.6297C29.5759 10.4282 29.6005 10.2248 29.6678 10.0338C29.735 9.84279 29.8433 9.66885 29.985 9.52419C30.5628 8.94581 31.5706 9.01389 32.231 9.67431C32.5411 9.97735 32.7326 10.3812 32.771 10.813C32.7907 11.0146 32.7661 11.2179 32.6988 11.4089C32.6316 11.5999 32.5234 11.7739 32.3817 11.9186V11.9186C32.2521 12.0457 32.0985 12.1459 31.93 12.2134C31.7614 12.2809 31.5811 12.3144 31.3996 12.3119V12.3119ZM30.973 9.53525C30.8443 9.5324 30.7162 9.55521 30.5963 9.60237C30.4764 9.64952 30.3671 9.72006 30.2748 9.80989C30.1747 9.91349 30.0986 10.0378 30.0517 10.174C30.0049 10.3102 29.9885 10.4551 30.0037 10.5983C30.0344 10.9332 30.1838 11.2461 30.4249 11.4804C30.9271 11.982 31.6759 12.0501 32.0949 11.6311C32.195 11.5275 32.2711 11.4033 32.318 11.267C32.3648 11.1308 32.3812 10.986 32.366 10.8427C32.3291 10.4934 32.1677 10.169 31.9113 9.92893C31.6548 9.68884 31.3206 9.5491 30.9696 9.53525H30.973Z" fill="#A81A3F"/>
<path d="M22.3866 11.6248C22.969 11.0424 23.0364 10.1655 22.5371 9.66627C22.0379 9.16704 21.1611 9.23446 20.5787 9.81686C19.9963 10.3993 19.9289 11.2761 20.4281 11.7753C20.9273 12.2746 21.8042 12.2072 22.3866 11.6248Z" fill="#FE5B4A"/>
<path d="M21.2699 12.3118C21.0879 12.3147 20.9071 12.2815 20.738 12.2141C20.5689 12.1467 20.4148 12.0464 20.2848 11.919V11.919C20.1432 11.7743 20.0349 11.6003 19.9677 11.4093C19.9004 11.2184 19.8758 11.015 19.8955 10.8135C19.9339 10.3816 20.1254 9.97778 20.4355 9.67475C21.0959 9.01433 22.1037 8.94683 22.6815 9.52462C22.8232 9.66928 22.9315 9.84322 22.9987 10.0342C23.066 10.2252 23.0906 10.4286 23.0708 10.6302C23.0262 11.0815 22.8188 11.5011 22.4874 11.8107C22.1559 12.1202 21.7232 12.2986 21.2699 12.3123V12.3118ZM21.697 9.5351C21.346 9.54895 21.0117 9.68869 20.7552 9.92877C20.4988 10.1689 20.3374 10.4932 20.3005 10.8426C20.2853 10.9858 20.3017 11.1306 20.3485 11.2669C20.3954 11.4031 20.4715 11.5274 20.5716 11.631C20.9906 12.0499 21.7394 11.9801 22.2416 11.4803C22.4829 11.246 22.6326 10.9331 22.6635 10.5982C22.679 10.4551 22.6631 10.3104 22.6167 10.1742C22.5704 10.038 22.4948 9.91359 22.3952 9.80974C22.3029 9.71991 22.1936 9.64937 22.0737 9.60222C21.9538 9.55506 21.8258 9.53225 21.697 9.5351V9.5351Z" fill="#A81A3F"/>
<path d="M26.1552 16.9893C21.3944 16.9893 20.2423 14.0934 20.1946 13.9671C20.1504 13.8518 20.1539 13.7236 20.2043 13.6108C20.2546 13.4981 20.3477 13.4099 20.4631 13.3658C20.5785 13.3216 20.7066 13.3251 20.8194 13.3755C20.9322 13.4258 21.0203 13.5189 21.0645 13.6343C21.0709 13.6512 21.3315 14.2825 22.1078 14.8876C23.1551 15.7023 24.668 16.1096 26.4863 16.0514H26.5003C28.3692 16.0514 29.9025 15.6307 30.9347 14.8359C31.701 14.2458 31.9303 13.6477 31.932 13.6413C31.9527 13.5836 31.9846 13.5305 32.0258 13.4852C32.067 13.4398 32.1168 13.403 32.1722 13.3768C32.2276 13.3507 32.2877 13.3357 32.3489 13.3328C32.4101 13.3298 32.4713 13.339 32.529 13.3597C32.5867 13.3804 32.6398 13.4122 32.6851 13.4534C32.7305 13.4947 32.7673 13.5444 32.7935 13.5998C32.8196 13.6553 32.8346 13.7153 32.8376 13.7765C32.8405 13.8378 32.8314 13.899 32.8107 13.9567C32.7676 14.08 31.6882 16.9824 26.5084 16.9824C26.3882 16.987 26.2704 16.9893 26.1552 16.9893Z" fill="#B73F39"/>
<path d="M26.5002 27.621C27.6866 27.621 28.6484 26.6592 28.6484 25.4727C28.6484 24.2863 27.6866 23.3245 26.5002 23.3245C25.3137 23.3245 24.3519 24.2863 24.3519 25.4727C24.3519 26.6592 25.3137 27.621 26.5002 27.621Z" fill="#68BA39"/>
<path d="M26.5002 28.0859C25.9832 28.086 25.4778 27.9328 25.0479 27.6456C24.6179 27.3585 24.2828 26.9503 24.0849 26.4727C23.887 25.995 23.8352 25.4694 23.9361 24.9624C24.0369 24.4553 24.2858 23.9895 24.6514 23.6239C25.017 23.2584 25.4828 23.0094 25.9898 22.9086C26.4969 22.8078 27.0225 22.8596 27.5001 23.0575C27.9777 23.2554 28.386 23.5905 28.6731 24.0204C28.9603 24.4503 29.1135 24.9557 29.1134 25.4727C29.112 26.1654 28.8362 26.8292 28.3465 27.319C27.8567 27.8087 27.1928 28.0845 26.5002 28.0859V28.0859ZM26.5002 23.79C26.1674 23.7899 25.8419 23.8884 25.5651 24.0733C25.2883 24.2581 25.0726 24.5209 24.9451 24.8284C24.8177 25.1358 24.7843 25.4742 24.8491 25.8007C24.914 26.1271 25.0742 26.427 25.3095 26.6624C25.5448 26.8978 25.8447 27.0581 26.1711 27.1231C26.4975 27.1881 26.8359 27.1548 27.1434 27.0274C27.451 26.9001 27.7138 26.6844 27.8987 26.4077C28.0837 26.1309 28.1824 25.8056 28.1824 25.4727C28.1819 25.0267 28.0046 24.599 27.6892 24.2836C27.3738 23.9681 26.9462 23.7906 26.5002 23.79Z" fill="#227B39"/>
<path d="M26.5002 34.3909C27.6866 34.3909 28.6484 33.4291 28.6484 32.2426C28.6484 31.0562 27.6866 30.0944 26.5002 30.0944C25.3137 30.0944 24.3519 31.0562 24.3519 32.2426C24.3519 33.4291 25.3137 34.3909 26.5002 34.3909Z" fill="#68BA39"/>
<path d="M26.5002 34.8557C25.9832 34.8558 25.4778 34.7026 25.0479 34.4155C24.6179 34.1283 24.2828 33.7201 24.0849 33.2425C23.887 32.7649 23.8352 32.2393 23.9361 31.7322C24.0369 31.2251 24.2858 30.7594 24.6514 30.3938C25.017 30.0282 25.4828 29.7793 25.9898 29.6784C26.4969 29.5776 27.0225 29.6294 27.5001 29.8273C27.9777 30.0252 28.386 30.3603 28.6731 30.7902C28.9603 31.2201 29.1135 31.7256 29.1134 32.2426C29.112 32.9352 28.8362 33.5991 28.3465 34.0888C27.8567 34.5786 27.1928 34.8543 26.5002 34.8557ZM26.5002 30.5598C26.1674 30.5597 25.8419 30.6583 25.5651 30.8431C25.2883 31.0279 25.0726 31.2907 24.9451 31.5982C24.8177 31.9057 24.7843 32.244 24.8491 32.5705C24.914 32.897 25.0742 33.1968 25.3095 33.4322C25.5448 33.6676 25.8447 33.828 26.1711 33.8929C26.4975 33.9579 26.8359 33.9246 27.1434 33.7973C27.451 33.6699 27.7138 33.4542 27.8987 33.1775C28.0837 32.9008 28.1824 32.5754 28.1824 32.2426C28.1819 31.7965 28.0046 31.3689 27.6892 31.0534C27.3738 30.7379 26.9462 30.5604 26.5002 30.5598Z" fill="#227B39"/>
<path d="M26.5002 41.1611C27.6866 41.1611 28.6484 40.1993 28.6484 39.0128C28.6484 37.8264 27.6866 36.8646 26.5002 36.8646C25.3137 36.8646 24.3519 37.8264 24.3519 39.0128C24.3519 40.1993 25.3137 41.1611 26.5002 41.1611Z" fill="#68BA39"/>
<path d="M26.5002 41.6257C25.9833 41.6258 25.4779 41.4726 25.048 41.1856C24.6182 40.8985 24.2831 40.4904 24.0851 40.0129C23.8872 39.5353 23.8352 39.0098 23.9359 38.5028C24.0366 37.9958 24.2854 37.53 24.6508 37.1644C25.0162 36.7987 25.4818 36.5496 25.9888 36.4486C26.4957 36.3476 27.0213 36.3991 27.4989 36.5968C27.9766 36.7944 28.3849 37.1292 28.6723 37.5589C28.9596 37.9886 29.1131 38.4939 29.1134 39.0108C29.1124 39.7037 28.8369 40.368 28.3471 40.8582C27.8573 41.3483 27.1931 41.6243 26.5002 41.6257ZM26.5002 37.3298C26.1673 37.3296 25.8418 37.4283 25.565 37.6132C25.2881 37.7981 25.0723 38.061 24.9449 38.3686C24.8175 38.6761 24.7842 39.0146 24.8492 39.3411C24.9143 39.6676 25.0746 39.9675 25.3101 40.2028C25.5456 40.4382 25.8456 40.5983 26.1722 40.6631C26.4987 40.7279 26.8372 40.6944 27.1447 40.5668C27.4521 40.4391 27.7149 40.2232 27.8996 39.9462C28.0843 39.6692 28.1827 39.3437 28.1824 39.0108C28.1815 38.565 28.0039 38.1378 27.6886 37.8227C27.3733 37.5076 26.9459 37.3304 26.5002 37.3298Z" fill="#227B39"/>
<path d="M9.39632 33.6252C9.29779 33.6247 9.20193 33.593 9.12256 33.5347C9.04319 33.4763 8.98439 33.3942 8.95463 33.3003C8.92488 33.2063 8.92569 33.1054 8.95696 33.0119C8.98824 32.9185 9.04835 32.8374 9.12866 32.7803L11.8442 30.8462L9.10422 29.0197C9.03692 28.9748 8.98244 28.9133 8.94617 28.841C8.9099 28.7687 8.89308 28.6883 8.89737 28.6075C8.90165 28.5268 8.9269 28.4485 8.97062 28.3805C9.01434 28.3125 9.07503 28.257 9.1467 28.2196L11.5143 26.9802L8.59567 25.3079C8.53614 25.2738 8.48487 25.227 8.44554 25.1708C8.40622 25.1146 8.3798 25.0504 8.36818 24.9828C8.35656 24.9151 8.36002 24.8458 8.37833 24.7797C8.39663 24.7136 8.42932 24.6523 8.47406 24.6003L10.8161 21.8801C10.8981 21.7926 11.0107 21.7401 11.1304 21.7337C11.2502 21.7272 11.3678 21.7671 11.4588 21.8452C11.5498 21.9233 11.6072 22.0335 11.6189 22.1529C11.6307 22.2722 11.5959 22.3915 11.5219 22.4858L9.54761 24.7807L12.7153 26.595C12.7873 26.6366 12.8468 26.6968 12.8877 26.7692C12.9286 26.8417 12.9493 26.9238 12.9477 27.0069C12.9461 27.0901 12.9222 27.1713 12.8786 27.2421C12.8349 27.3129 12.7731 27.3708 12.6996 27.4096L10.2715 28.6793L12.9195 30.4441C12.9824 30.4859 13.0341 30.5423 13.0703 30.6086C13.1065 30.6748 13.1261 30.7488 13.1273 30.8243C13.1285 30.8998 13.1113 30.9744 13.0772 31.0418C13.0432 31.1091 12.9932 31.1672 12.9317 31.211L9.66631 33.5385C9.58752 33.5948 9.49314 33.6251 9.39632 33.6252Z" fill="#B73F39"/>
<path d="M43.6133 33.6253C43.5164 33.6263 43.4216 33.597 43.3422 33.5415L40.0779 31.214C40.0164 31.1703 39.9665 31.1122 39.9324 31.0448C39.8983 30.9775 39.8812 30.9028 39.8824 30.8274C39.8836 30.7519 39.9031 30.6778 39.9393 30.6116C39.9755 30.5454 40.0273 30.4889 40.0901 30.4471L42.7382 28.6823L40.3101 27.4127C40.2365 27.3739 40.1747 27.316 40.1311 27.2452C40.0874 27.1744 40.0636 27.0932 40.062 27.01C40.0604 26.9269 40.0811 26.8448 40.1219 26.7723C40.1628 26.6999 40.2223 26.6397 40.2944 26.5981L43.462 24.7838L41.4878 22.486C41.4479 22.4397 41.4175 22.3859 41.3984 22.3279C41.3793 22.2698 41.3718 22.2085 41.3764 22.1475C41.3809 22.0865 41.3975 22.0271 41.425 21.9725C41.4526 21.9179 41.4906 21.8693 41.5369 21.8294C41.5833 21.7895 41.637 21.7591 41.6951 21.74C41.7532 21.7209 41.8145 21.7134 41.8754 21.718C41.9364 21.7225 41.9959 21.7391 42.0505 21.7666C42.1051 21.7942 42.1537 21.8322 42.1936 21.8786L44.5356 24.5988C44.5803 24.6508 44.613 24.712 44.6313 24.7781C44.6496 24.8443 44.6531 24.9136 44.6415 24.9812C44.6299 25.0488 44.6034 25.113 44.5641 25.1692C44.5248 25.2254 44.4735 25.2722 44.414 25.3063L41.4947 26.9786L43.8659 28.2197C43.9375 28.2572 43.9982 28.3126 44.0419 28.3807C44.0857 28.4487 44.1109 28.5269 44.1152 28.6077C44.1195 28.6884 44.1027 28.7689 44.0664 28.8411C44.0301 28.9134 43.9756 28.975 43.9083 29.0198L41.1683 30.8463L43.8839 32.7804C43.9644 32.8377 44.0246 32.919 44.0558 33.0127C44.087 33.1065 44.0876 33.2077 44.0575 33.3018C44.0274 33.3958 43.9681 33.4779 43.8882 33.536C43.8084 33.5942 43.7121 33.6255 43.6133 33.6253Z" fill="#B73F39"/>
<path d="M33.5985 53.2243C33.5757 53.2243 33.5529 53.2225 33.5304 53.219C33.4083 53.2012 33.2982 53.1356 33.2245 53.0366C33.1507 52.9376 33.1193 52.8134 33.1371 52.6913L33.7149 48.7241C33.7257 48.6495 33.7545 48.5786 33.7988 48.5175C33.8431 48.4565 33.9016 48.4071 33.9692 48.3737C34.0368 48.3402 34.1115 48.3237 34.1869 48.3256C34.2623 48.3274 34.3362 48.3476 34.4021 48.3843L37.1822 49.9338L37.2026 47.1944C37.2033 47.1109 37.2264 47.0292 37.2696 46.9577C37.3127 46.8863 37.3742 46.8277 37.4478 46.7882C37.5213 46.7487 37.6041 46.7297 37.6875 46.7332C37.7709 46.7367 37.8518 46.7625 37.9218 46.808L40.9824 48.7974L42.1205 45.9934C42.1418 45.9345 42.1748 45.8805 42.2174 45.8346C42.26 45.7888 42.3115 45.752 42.3686 45.7265C42.4258 45.701 42.4876 45.6873 42.5502 45.6862C42.6128 45.6851 42.675 45.6966 42.733 45.7201C42.791 45.7436 42.8437 45.7786 42.888 45.8229C42.9322 45.8673 42.967 45.9201 42.9903 45.9782C43.0136 46.0363 43.025 46.0985 43.0237 46.1611C43.0224 46.2237 43.0085 46.2854 42.9829 46.3425L41.6323 49.6685C41.6065 49.732 41.567 49.7891 41.5166 49.8356C41.4662 49.8821 41.4061 49.9169 41.3406 49.9374C41.2752 49.958 41.206 49.9639 41.138 49.9546C41.0701 49.9453 41.005 49.9211 40.9475 49.8838L38.1266 48.0503L38.1068 50.7269C38.1062 50.8077 38.0845 50.887 38.0439 50.9569C38.0033 51.0268 37.9452 51.0849 37.8753 51.1255C37.8055 51.1662 37.7262 51.1879 37.6454 51.1886C37.5646 51.1893 37.485 51.1689 37.4144 51.1295L34.5388 49.5265L34.0582 52.8257C34.0421 52.9362 33.9868 53.0373 33.9025 53.1105C33.8181 53.1836 33.7102 53.224 33.5985 53.2243V53.2243Z" fill="#B73F39"/>
<path d="M19.6981 52.7348C19.5864 52.7348 19.4784 52.6945 19.3939 52.6214C19.3094 52.5484 19.254 52.4474 19.2378 52.3368L18.7572 49.0376L15.881 50.6407C15.8104 50.6801 15.7307 50.7005 15.6498 50.6997C15.569 50.699 15.4897 50.6772 15.4198 50.6365C15.3499 50.5958 15.2918 50.5376 15.2513 50.4676C15.2107 50.3977 15.1891 50.3183 15.1886 50.2375L15.1694 47.5609L12.3485 49.3937C12.291 49.4311 12.2259 49.4553 12.158 49.4647C12.0901 49.474 12.0209 49.4682 11.9555 49.4477C11.89 49.4271 11.8299 49.3924 11.7795 49.346C11.729 49.2996 11.6895 49.2425 11.6636 49.179L10.3125 45.8531C10.2686 45.7391 10.2712 45.6125 10.3198 45.5005C10.3684 45.3884 10.4591 45.3 10.5723 45.2542C10.6855 45.2084 10.8121 45.2089 10.925 45.2556C11.0378 45.3024 11.1277 45.3915 11.1754 45.504L12.3136 48.3074L15.3748 46.318C15.4448 46.2725 15.5258 46.2466 15.6092 46.2432C15.6927 46.2397 15.7755 46.2588 15.849 46.2983C15.9226 46.3379 15.9841 46.3965 16.0272 46.4681C16.0703 46.5396 16.0934 46.6214 16.094 46.7049L16.1137 49.4444L18.8939 47.8949C18.9598 47.8581 19.0336 47.838 19.109 47.8362C19.1844 47.8343 19.2592 47.8508 19.3268 47.8843C19.3944 47.9177 19.4529 47.967 19.4972 48.0281C19.5415 48.0891 19.5703 48.16 19.5811 48.2347L20.1589 52.2018C20.1767 52.324 20.1453 52.4482 20.0715 52.5472C19.9978 52.6461 19.8877 52.7118 19.7656 52.7296C19.7432 52.7331 19.7207 52.7348 19.6981 52.7348V52.7348Z" fill="#B73F39"/>
<path opacity="0.3" d="M22.2637 2.71002C22.2637 2.71002 11.608 15.162 25.5716 19.92C25.5716 19.92 18.531 21.9798 16.5341 16.5242C14.5371 11.0686 16.395 4.95778 22.2637 2.71002Z" fill="#B73F39"/>
<path opacity="0.3" d="M7.8286 22.8348C7.8286 22.8348 5.24335 24.1836 4.19424 25.7052C2.70407 27.8686 3.02643 30.487 7.20309 30.9827C13.418 31.7205 14.05 31.4482 17.1397 33.1578C20.0135 34.7497 6.51881 51.9806 12.3026 54.2796C18.5897 56.7816 17.8304 45.3613 25.5692 45.2391L20.6635 49.46L17.7099 55.7104L13.1777 57.1948L9.38801 54.769L8.98594 50.3921L11.4589 44.7713L13.2208 39.709L14.4817 34.8487L12.8461 33.7315L8.41222 33.0536L4.26988 33.1595L1.74457 30.6319L1.26453 26.5588C1.26453 26.5588 2.88096 22.3658 7.8286 22.8348Z" fill="#B73F39"/>
<path d="M35.5011 12.9886C35.376 12.9885 35.2556 12.9409 35.1641 12.8555C35.0726 12.7701 35.017 12.6532 35.0083 12.5284C34.8209 9.81222 33.7677 7.66628 31.8778 6.14993C30.4551 5.00831 29.0616 4.66559 29.0476 4.66209C28.9844 4.64719 28.9247 4.61999 28.872 4.58202C28.8193 4.54406 28.7745 4.49608 28.7404 4.44084C28.7062 4.38559 28.6832 4.32415 28.6728 4.26003C28.6624 4.19591 28.6647 4.13036 28.6796 4.06713C28.6945 4.0039 28.7217 3.94423 28.7596 3.89151C28.7976 3.83879 28.8456 3.79407 28.9008 3.7599C28.9561 3.72572 29.0175 3.70276 29.0816 3.69233C29.1458 3.6819 29.2113 3.6842 29.2745 3.6991C29.3391 3.71423 30.8665 4.08313 32.4597 5.3487C33.9295 6.51535 35.7356 8.69677 35.9951 12.4603C36.0041 12.5912 35.9607 12.7202 35.8745 12.8191C35.7883 12.918 35.6663 12.9785 35.5355 12.9875C35.5238 12.9886 35.5122 12.9886 35.5011 12.9886Z" fill="#F3B427"/>
<path d="M21.2926 12.11C21.9195 12.11 22.4278 11.563 22.4278 10.8881C22.4278 10.2133 21.9195 9.6662 21.2926 9.6662C20.6656 9.6662 20.1573 10.2133 20.1573 10.8881C20.1573 11.563 20.6656 12.11 21.2926 12.11Z" fill="#A81A3F"/>
<path d="M31.0183 11.9423C31.6453 11.9423 32.1535 11.3953 32.1535 10.7204C32.1535 10.0456 31.6453 9.49847 31.0183 9.49847C30.3913 9.49847 29.8831 10.0456 29.8831 10.7204C29.8831 11.3953 30.3913 11.9423 31.0183 11.9423Z" fill="#A81A3F"/>
<path d="M27.5894 26.2097C27.5803 26.2103 27.5712 26.2103 27.5621 26.2097C27.5008 26.2026 27.4449 26.1714 27.4066 26.1231C27.3683 26.0748 27.3508 26.0132 27.3578 25.952C27.4934 24.7812 26.5653 24.577 26.4594 24.5555C26.3988 24.5446 26.345 24.5101 26.3098 24.4597C26.2745 24.4092 26.2607 24.3469 26.2713 24.2862C26.2819 24.2256 26.3161 24.1716 26.3664 24.1362C26.4167 24.1007 26.479 24.0866 26.5397 24.0969C26.5543 24.0969 28.0095 24.3698 27.8198 26.0038C27.8133 26.0603 27.7862 26.1126 27.7438 26.1505C27.7013 26.1885 27.6464 26.2096 27.5894 26.2097Z" fill="#98D639"/>
<path d="M27.5894 33.0495C27.5803 33.0501 27.5712 33.0501 27.5621 33.0495C27.5008 33.0424 27.4449 33.0112 27.4066 32.9629C27.3683 32.9145 27.3508 32.853 27.3578 32.7917C27.4934 31.6216 26.5653 31.4168 26.4594 31.3953C26.3988 31.3844 26.345 31.35 26.3098 31.2995C26.2745 31.2491 26.2607 31.1867 26.2713 31.1261C26.2819 31.0654 26.3161 31.0115 26.3664 30.976C26.4167 30.9405 26.479 30.9264 26.5397 30.9368C26.5543 30.9368 28.0095 31.2091 27.8198 32.8429C27.8134 32.8996 27.7864 32.952 27.7439 32.9901C27.7014 33.0281 27.6465 33.0493 27.5894 33.0495V33.0495Z" fill="#98D639"/>
<path d="M27.5894 39.8879H27.5621C27.5317 39.8844 27.5023 39.8749 27.4756 39.86C27.4489 39.8451 27.4254 39.8251 27.4064 39.8011C27.3874 39.7771 27.3734 39.7496 27.3651 39.7202C27.3567 39.6907 27.3543 39.66 27.3578 39.6296C27.4934 38.4595 26.5653 38.2547 26.4594 38.2331C26.3988 38.2222 26.345 38.1878 26.3098 38.1373C26.2745 38.0869 26.2607 38.0245 26.2713 37.9639C26.2819 37.9033 26.3161 37.8493 26.3664 37.8138C26.4167 37.7784 26.479 37.7643 26.5397 37.7746C26.5543 37.7746 28.0095 38.0475 27.8198 39.6808C27.8135 39.7376 27.7866 39.7901 27.7441 39.8283C27.7016 39.8665 27.6466 39.8877 27.5894 39.8879Z" fill="#98D639"/>
<path d="M49.5539 29.4539H49.5336C49.4572 29.4513 49.3821 29.4336 49.3125 29.4019C49.243 29.3703 49.1803 29.3252 49.1282 29.2694C49.076 29.2135 49.0354 29.1479 49.0086 29.0763C48.9818 29.0048 48.9694 28.9286 48.9721 28.8522C49.0727 25.9336 46.6324 25.3447 46.5282 25.3214C46.3798 25.2864 46.251 25.1944 46.1697 25.0654C46.0884 24.9364 46.061 24.7805 46.0934 24.6315C46.1258 24.4824 46.2154 24.3521 46.343 24.2685C46.4706 24.1849 46.6259 24.1547 46.7755 24.1845C47.4102 24.3494 48.0024 24.6479 48.5124 25.0602C49.2903 25.688 50.2033 26.864 50.1335 28.8924C50.1282 29.0427 50.0649 29.1852 49.9568 29.2899C49.8488 29.3946 49.7044 29.4534 49.5539 29.4539V29.4539Z" fill="#FFEAE8"/>
<path d="M39.7928 55.4068C39.6509 55.4066 39.5139 55.3546 39.4076 55.2605C39.3014 55.1664 39.2332 55.0367 39.2159 54.8959C39.1986 54.755 39.2334 54.6127 39.3137 54.4957C39.394 54.3786 39.5143 54.295 39.652 54.2605C41.9487 53.6862 41.6973 50.9008 41.6857 50.7827C41.6723 50.6306 41.7193 50.4793 41.8165 50.3615C41.9136 50.2437 42.0532 50.1688 42.2051 50.153C42.357 50.1372 42.509 50.1818 42.6284 50.277C42.7477 50.3723 42.8248 50.5106 42.8431 50.6623C42.8943 51.3366 42.8289 52.0147 42.6499 52.6668C42.2426 54.1052 41.3051 55.0466 39.9348 55.3893C39.8883 55.4008 39.8407 55.4067 39.7928 55.4068Z" fill="#FFEAE8"/>
</svg>
