<svg width="48" height="48" viewBox="0 0 48 48" fill="none" xmlns="http://www.w3.org/2000/svg">
<path d="M23.9716 45.1601C23.9716 45.1601 21.726 41.998 19.056 40.3446C13.9169 37.1649 11.8926 33.5731 11.3125 31.9201C10.6134 29.9272 9.85161 28.3279 11.6099 24.7873C12.8238 22.3415 14.231 19.439 14.231 19.439C14.231 19.439 30.1685 41.7784 33.7672 19.439C33.7672 19.439 35.1748 22.3415 36.3883 24.7873C38.1448 28.3266 37.3847 29.9259 36.6856 31.9201C36.1055 33.5731 34.0813 37.1623 28.9422 40.3446C26.2734 41.9958 24.0279 45.1601 24.0279 45.1601" fill="#DEDEDE"/>
<path d="M23.9721 45.7186C23.8828 45.7187 23.7949 45.6974 23.7156 45.6565C23.6362 45.6156 23.5679 45.5563 23.5162 45.4836C23.4891 45.4449 21.2986 42.3898 18.7617 40.8197C16.45 39.3885 14.5254 37.7372 13.0412 35.9119C11.6332 34.1794 11.0217 32.7829 10.7858 32.1048C10.7428 31.988 10.7033 31.8728 10.6625 31.7581C9.98832 29.8675 9.35109 28.0834 11.1094 24.5394C12.3082 22.1241 13.715 19.2246 13.7305 19.1953C13.7728 19.1082 13.8371 19.0335 13.917 18.9787C13.9969 18.9238 14.0897 18.8907 14.1863 18.8826C14.2828 18.8745 14.3799 18.8917 14.4678 18.9324C14.5557 18.9732 14.6316 19.0361 14.6878 19.115C14.7076 19.1425 16.6953 21.9135 19.3714 24.4732C21.7652 26.7694 25.2156 29.3643 28.0386 28.703C29.1911 28.4332 30.1931 27.6176 31.016 26.28C31.9905 24.6958 32.7308 22.3638 33.2164 19.3492C33.2353 19.2319 33.291 19.1237 33.3756 19.0403C33.4601 18.9569 33.569 18.9026 33.6865 18.8853C33.804 18.868 33.924 18.8886 34.029 18.9442C34.134 18.9997 34.2186 19.0872 34.2704 19.1941C34.2846 19.2233 35.6914 22.1228 36.8915 24.5381C38.6498 28.0813 38.0126 29.8662 37.3384 31.7568C37.2954 31.8715 37.2563 31.9867 37.2151 32.1036C36.9774 32.7816 36.3677 34.1781 34.9596 35.9106C33.4725 37.735 31.5496 39.3863 29.2379 40.8176C26.698 42.3898 24.5049 45.4509 24.4834 45.4814C24.4291 45.5579 24.3565 45.6194 24.2722 45.6604C24.1878 45.7014 24.0945 45.7205 24.0009 45.716L23.9721 45.7186ZM14.3333 20.5063C13.8259 21.5479 12.9209 23.4015 12.1101 25.0348C10.5632 28.1526 11.0711 29.577 11.7148 31.3804C11.7566 31.497 11.7983 31.6144 11.8398 31.7327C12.0117 32.2234 12.5583 33.5443 13.9084 35.205C15.3134 36.9337 17.1443 38.502 19.3499 39.8676C21.4193 41.1484 23.2098 43.2586 24 44.2675C24.7898 43.2586 26.5803 41.1484 28.6497 39.8676C30.8552 38.502 32.6862 36.9337 34.0912 35.205C35.4413 33.5443 35.9874 32.2234 36.1597 31.7327C36.2016 31.6141 36.2432 31.4967 36.2848 31.3804C36.9293 29.5757 37.4368 28.1526 35.8895 25.0348C35.2385 23.7229 34.5261 22.2689 34.0083 21.208C33.509 23.5738 32.8245 25.4722 31.9673 26.8657C30.9824 28.4663 29.7462 29.4507 28.2926 29.791C26.8003 30.1403 25.0923 29.8047 23.2158 28.7932C21.7695 28.0134 20.211 26.827 18.5834 25.2677C16.6614 23.4256 15.1162 21.5225 14.3333 20.5063Z" fill="black"/>
<path d="M15.834 15.836L12.418 4.51976L20.0209 8.08531L23.9289 2.84183H24.0281L27.9362 8.08531L35.5395 4.51976L32.123 15.836" fill="#F4BC3F"/>
<path d="M32.1231 16.3946C32.0359 16.3946 31.9499 16.3743 31.872 16.3351C31.7941 16.296 31.7264 16.2391 31.6744 16.1691C31.6224 16.0991 31.5875 16.0179 31.5726 15.932C31.5576 15.8461 31.5629 15.7579 31.5881 15.6745L34.6423 5.55746L28.173 8.59105C28.0564 8.64578 27.9245 8.65856 27.7997 8.62724C27.6748 8.59592 27.5645 8.52242 27.4876 8.41918L23.9784 3.71023L20.4687 8.41918C20.3917 8.52242 20.2815 8.59592 20.1566 8.62724C20.0317 8.65856 19.8999 8.64578 19.7833 8.59105L13.3139 5.55746L16.3681 15.6745C16.3903 15.745 16.3982 15.8191 16.3915 15.8927C16.3848 15.9663 16.3635 16.0378 16.329 16.1031C16.2944 16.1685 16.2473 16.2263 16.1902 16.2732C16.1331 16.3202 16.0673 16.3553 15.9966 16.3767C15.9259 16.398 15.8516 16.4051 15.7781 16.3976C15.7046 16.39 15.6333 16.3679 15.5684 16.3326C15.5035 16.2973 15.4462 16.2495 15.3999 16.1919C15.3536 16.1343 15.3192 16.0681 15.2987 15.9972L11.8826 4.68347C11.8512 4.57996 11.8505 4.46955 11.8806 4.36564C11.9107 4.26173 11.9703 4.16879 12.0522 4.09812C12.1341 4.02745 12.2348 3.98209 12.342 3.96754C12.4492 3.95299 12.5583 3.96988 12.6561 4.01616L19.8452 7.38621L23.4808 2.50796C23.5328 2.43823 23.6003 2.3816 23.678 2.34259C23.7558 2.30358 23.8415 2.28325 23.9285 2.28323H24.0278C24.1147 2.28325 24.2005 2.30358 24.2782 2.34259C24.356 2.3816 24.4235 2.43823 24.4755 2.50796L28.1111 7.38621L35.3019 4.01402C35.3997 3.96773 35.5088 3.95084 35.616 3.96539C35.7232 3.97994 35.8239 4.0253 35.9058 4.09597C35.9877 4.16664 36.0473 4.25958 36.0774 4.36349C36.1075 4.4674 36.1068 4.57781 36.0754 4.68132L32.6559 15.9972C32.6214 16.1117 32.551 16.2122 32.455 16.2838C32.3591 16.3553 32.2428 16.3942 32.1231 16.3946Z" fill="black"/>
<path d="M27.2041 31.0072C25.4033 31.6214 23.4649 31.7108 21.6152 31.265L24.4081 29.2188L27.2041 31.0072Z" fill="#FFDDE8"/>
<path d="M18.4289 23.3131C18.2018 23.3131 17.9797 23.2458 17.7908 23.1195C17.602 22.9933 17.4547 22.814 17.3678 22.6041C17.2809 22.3942 17.2581 22.1633 17.3024 21.9405C17.3468 21.7177 17.4562 21.513 17.6168 21.3524C17.7774 21.1917 17.9821 21.0823 18.2049 21.038C18.4277 20.9937 18.6586 21.0165 18.8685 21.1034C19.0783 21.1903 19.2577 21.3375 19.3839 21.5264C19.5101 21.7153 19.5775 21.9374 19.5775 22.1645C19.5772 22.4691 19.456 22.761 19.2407 22.9763C19.0254 23.1917 18.7334 23.3128 18.4289 23.3131ZM18.4289 22.1332C18.4227 22.1332 18.4167 22.135 18.4115 22.1385C18.4064 22.1419 18.4023 22.1468 18.4 22.1525C18.3976 22.1583 18.397 22.1646 18.3982 22.1707C18.3994 22.1767 18.4024 22.1823 18.4068 22.1867C18.4111 22.1911 18.4167 22.1941 18.4228 22.1953C18.4289 22.1965 18.4352 22.1959 18.4409 22.1935C18.4467 22.1911 18.4516 22.1871 18.455 22.182C18.4585 22.1768 18.4603 22.1707 18.4603 22.1645C18.4603 22.1562 18.457 22.1482 18.4511 22.1424C18.4452 22.1365 18.4373 22.1332 18.4289 22.1332Z" fill="black"/>
<path d="M29.3976 23.3131C29.1704 23.3131 28.9483 23.2458 28.7594 23.1195C28.5706 22.9933 28.4233 22.814 28.3364 22.6041C28.2495 22.3942 28.2267 22.1633 28.2711 21.9405C28.3154 21.7177 28.4248 21.513 28.5854 21.3524C28.746 21.1917 28.9507 21.0823 29.1735 21.038C29.3963 20.9937 29.6272 21.0165 29.8371 21.1034C30.047 21.1903 30.2263 21.3375 30.3525 21.5264C30.4788 21.7153 30.5461 21.9374 30.5461 22.1645C30.5458 22.4691 30.4247 22.761 30.2093 22.9763C29.994 23.1917 29.7021 23.3128 29.3976 23.3131ZM29.3976 22.1332C29.3913 22.1332 29.3853 22.135 29.3801 22.1385C29.375 22.1419 29.3709 22.1468 29.3686 22.1525C29.3662 22.1583 29.3656 22.1646 29.3668 22.1707C29.368 22.1767 29.371 22.1823 29.3754 22.1867C29.3798 22.1911 29.3853 22.1941 29.3914 22.1953C29.3975 22.1965 29.4038 22.1959 29.4096 22.1935C29.4153 22.1911 29.4202 22.1871 29.4236 22.182C29.4271 22.1768 29.4289 22.1707 29.4289 22.1645C29.4289 22.1562 29.4256 22.1482 29.4197 22.1424C29.4139 22.1365 29.4059 22.1332 29.3976 22.1332Z" fill="black"/>
<path d="M33.0726 25.6476C33.6463 24.3665 33.942 22.9783 33.9401 21.5746C33.9401 16.0694 29.477 11.6058 23.9714 11.6058C18.4658 11.6058 14.0026 16.0685 14.0026 21.5746C14.0009 22.9658 14.2917 24.3419 14.856 25.6136" fill="#FFE1EB"/>
<path d="M33.5821 25.8762L32.5629 25.4194C33.2028 23.9878 33.4748 22.4189 33.3542 20.8554C33.2336 19.2919 32.7242 17.7834 31.8722 16.4668C31.0203 15.1503 29.8528 14.0675 28.476 13.317C27.0991 12.5664 25.5565 12.1718 23.9884 12.1691C22.4202 12.1663 20.8763 12.5555 19.4968 13.3013C18.1173 14.047 16.9461 15.1257 16.0896 16.4392C15.233 17.7528 14.7183 19.2596 14.5922 20.8226C14.4661 22.3857 14.7327 23.9555 15.3676 25.3893L14.3462 25.8427C13.6357 24.2386 13.3374 22.4823 13.4783 20.7336C13.6192 18.9849 14.1949 17.2991 15.1531 15.8295C16.1113 14.3598 17.4216 13.153 18.9649 12.3186C20.5082 11.4842 22.2356 11.0488 23.99 11.0518C25.7444 11.0549 27.4702 11.4964 29.0106 12.3361C30.5509 13.1759 31.857 14.3873 32.8101 15.8602C33.7632 17.3332 34.333 19.021 34.4678 20.7702C34.6027 22.5194 34.2982 24.2746 33.5821 25.8762Z" fill="black"/>
<path opacity="0.6" d="M18.4292 25.4047C18.4292 23.8965 17.2317 23.0461 15.7222 23.0461C15.2795 23.0456 14.8433 23.1531 14.4516 23.3594C14.6625 24.5595 15.0933 25.7103 15.7222 26.754L16.9648 26.0622C17.67 25.5693 18.4292 26.3299 18.4292 25.4047Z" fill="#FE5B4A"/>
<path opacity="0.6" d="M29.6116 25.4047C29.6116 23.8965 30.8091 23.0461 32.3186 23.0461C32.7613 23.0456 33.1975 23.1531 33.5892 23.3594C33.3781 24.5595 32.9474 25.7102 32.3186 26.754L31.076 26.0622C30.3708 25.5693 29.6116 26.3299 29.6116 25.4047Z" fill="#FE5B4A"/>
<path d="M24.3529 7.01064H23.9684C23.6836 7.01064 23.4527 7.2415 23.4527 7.52627V9.1432C23.4527 9.42797 23.6836 9.65882 23.9684 9.65882H24.3529C24.6377 9.65882 24.8686 9.42797 24.8686 9.1432V7.52627C24.8686 7.2415 24.6377 7.01064 24.3529 7.01064Z" fill="#E20613"/>
<path d="M24.3528 10.0021H23.966C23.7381 10.0021 23.5195 9.91159 23.3584 9.75042C23.1972 9.58926 23.1067 9.37067 23.1067 9.14275V7.52626C23.1067 7.29834 23.1972 7.07975 23.3584 6.91858C23.5195 6.75742 23.7381 6.66688 23.966 6.66688H24.3528C24.5807 6.66688 24.7993 6.75742 24.9604 6.91858C25.1216 7.07975 25.2121 7.29834 25.2121 7.52626V9.14275C25.2121 9.37067 25.1216 9.58926 24.9604 9.75042C24.7993 9.91159 24.5807 10.0021 24.3528 10.0021ZM23.966 7.35438C23.9206 7.35494 23.8772 7.37323 23.8451 7.40534C23.813 7.43745 23.7947 7.48085 23.7942 7.52626V9.14275C23.7947 9.18816 23.813 9.23156 23.8451 9.26367C23.8772 9.29578 23.9206 9.31407 23.966 9.31463H24.3528C24.3982 9.31407 24.4416 9.29578 24.4737 9.26367C24.5058 9.23156 24.5241 9.18816 24.5246 9.14275V7.52626C24.5241 7.48085 24.5058 7.43745 24.4737 7.40534C24.4416 7.37323 24.3982 7.35494 24.3528 7.35438H23.966Z" fill="black"/>
<path d="M31.577 8.92387L31.2277 8.76311C30.969 8.64407 30.6627 8.75728 30.5437 9.01598L29.8678 10.4848C29.7487 10.7435 29.8619 11.0498 30.1206 11.1688L30.47 11.3296C30.7287 11.4486 31.0349 11.3354 31.154 11.0767L31.8299 9.60783C31.9489 9.34913 31.8357 9.04292 31.577 8.92387Z" fill="#E20613"/>
<path d="M30.6828 11.7215C30.5593 11.7215 30.4374 11.6946 30.3253 11.6429L29.976 11.4822C29.7693 11.3865 29.6089 11.2128 29.5299 10.9992C29.4509 10.7856 29.4597 10.5494 29.5544 10.3422L30.2303 8.87354C30.2775 8.77101 30.3444 8.67877 30.4272 8.6021C30.51 8.52542 30.6072 8.46581 30.713 8.42667C30.8189 8.38753 30.9314 8.36962 31.0442 8.37397C31.157 8.37832 31.2678 8.40484 31.3703 8.45202L31.7196 8.61272C31.8223 8.65996 31.9145 8.72698 31.9912 8.80992C32.0679 8.89287 32.1275 8.99013 32.1666 9.09612C32.2057 9.20212 32.2235 9.31478 32.2189 9.42766C32.2144 9.54054 32.1877 9.65143 32.1403 9.75397L31.4644 11.2226C31.395 11.3718 31.2846 11.498 31.146 11.5866C31.0074 11.6752 30.8464 11.7225 30.6819 11.7228L30.6828 11.7215ZM31.0132 9.06131C30.9802 9.06118 30.9478 9.07044 30.9198 9.08801C30.8918 9.10558 30.8693 9.13075 30.8551 9.16057L30.1792 10.6297C30.1699 10.6503 30.1647 10.6725 30.1639 10.6951C30.1632 10.7177 30.1669 10.7402 30.1749 10.7614C30.1829 10.7825 30.195 10.8019 30.2105 10.8184C30.2259 10.8349 30.2445 10.8481 30.2651 10.8574L30.6145 11.0181C30.6351 11.0275 30.6574 11.0328 30.68 11.0335C30.7027 11.0343 30.7252 11.0306 30.7464 11.0226C30.7676 11.0146 30.7871 11.0025 30.8036 10.987C30.8201 10.9715 30.8334 10.9528 30.8426 10.9322L31.5185 9.4635C31.5367 9.42177 31.5379 9.37458 31.5219 9.33197C31.5058 9.28937 31.4738 9.2547 31.4326 9.23534L31.0833 9.07463C31.0612 9.06516 31.0373 9.06061 31.0132 9.06131Z" fill="black"/>
<path d="M17.5817 11.3298L17.931 11.169C18.1897 11.05 18.303 10.7438 18.1839 10.4851L17.508 9.01619C17.389 8.75749 17.0828 8.64428 16.8241 8.76332L16.4747 8.92408C16.216 9.04312 16.1028 9.34934 16.2218 9.60804L16.8978 11.0769C17.0168 11.3356 17.323 11.4488 17.5817 11.3298Z" fill="#E20613"/>
<path d="M17.3673 11.7215C17.2647 11.7215 17.1628 11.7031 17.0666 11.6673C16.961 11.6284 16.8641 11.5689 16.7816 11.4924C16.699 11.4158 16.6325 11.3237 16.5857 11.2213L15.909 9.75394C15.8618 9.65141 15.8353 9.5406 15.8309 9.42782C15.8266 9.31504 15.8445 9.20251 15.8836 9.09665C15.9228 8.9908 15.9824 8.89369 16.0591 8.81087C16.1357 8.72805 16.228 8.66115 16.3305 8.61398L16.6798 8.45328C16.7824 8.4061 16.8932 8.37958 17.006 8.37523C17.1187 8.37088 17.2313 8.38879 17.3371 8.42793C17.443 8.46707 17.5401 8.52668 17.6229 8.60336C17.7057 8.68003 17.7726 8.77227 17.8198 8.8748L18.4957 10.3435C18.5429 10.446 18.5694 10.5568 18.5737 10.6696C18.5781 10.7824 18.5602 10.8949 18.521 11.0008C18.4819 11.1066 18.4223 11.2037 18.3456 11.2865C18.2689 11.3694 18.1767 11.4363 18.0742 11.4834L17.7248 11.6446C17.6126 11.6957 17.4907 11.722 17.3673 11.7215ZM17.0373 9.06128C17.0132 9.06118 16.9893 9.06631 16.9673 9.07632L16.618 9.23832C16.5767 9.25759 16.5446 9.29226 16.5285 9.33489C16.5125 9.37753 16.5137 9.42476 16.532 9.46648L17.2079 10.9352C17.2172 10.9558 17.2305 10.9744 17.247 10.9898C17.2634 11.0053 17.2828 11.0174 17.304 11.0254C17.3251 11.0334 17.3476 11.0371 17.3702 11.0364C17.3928 11.0356 17.4151 11.0304 17.4357 11.0211L17.7846 10.8604C17.8052 10.8511 17.8238 10.8378 17.8392 10.8214C17.8547 10.8049 17.8668 10.7855 17.8748 10.7644C17.8828 10.7432 17.8865 10.7207 17.8858 10.6981C17.885 10.6755 17.8798 10.6532 17.8705 10.6327L17.1946 9.16355C17.1808 9.13336 17.1586 9.10772 17.1308 9.08961C17.103 9.07151 17.0706 9.06168 17.0373 9.06128Z" fill="black"/>
<path d="M23.8507 7.28153C23.8507 7.28153 23.647 9.30364 24.4493 9.0772C24.8575 8.96161 24.4171 9.43298 24.4171 9.43298L23.4257 9.26669L23.8507 7.28153Z" fill="#A81A3F"/>
<path d="M34.2719 26.0976C33.3021 25.7663 32.1506 25.8599 31.231 25.4509C30.1138 24.9529 28.9597 23.965 27.8747 23.965C25.8981 23.965 24.5145 25.7203 24.5145 27.6969C24.5145 29.6734 26.1203 31.1567 28.0934 31.2758C34.9715 31.6908 36.1428 26.7361 34.2719 26.0976Z" fill="#DEDEDE"/>
<path d="M28.8789 31.8584C28.6108 31.8584 28.3376 31.8499 28.0595 31.833C25.7202 31.6921 23.956 29.9136 23.956 27.6968C23.956 26.5796 24.3375 25.5261 25.0302 24.7243C25.7649 23.8743 26.7747 23.4064 27.8738 23.4064C28.7504 23.4064 29.5844 23.8941 30.3914 24.3655C30.7631 24.5829 31.1141 24.7878 31.457 24.9404C31.882 25.1295 32.3959 25.1982 32.9394 25.2674C33.4387 25.3323 33.9556 25.3993 34.4519 25.5682C35.3427 25.8724 35.793 26.8297 35.5717 27.9504C35.3598 29.0246 34.5834 30.0446 33.4404 30.7463C32.2498 31.4789 30.6844 31.8584 28.8789 31.8584ZM27.8747 24.5236C26.4976 24.5236 25.0731 25.7104 25.0731 27.6968C25.0731 29.3142 26.3858 30.6131 28.1269 30.718C30.0493 30.8344 31.6847 30.5152 32.8565 29.795C34.1026 29.0293 34.4034 28.0995 34.4768 27.7351C34.61 27.0592 34.3527 26.715 34.0901 26.6261C33.7 26.4928 33.2604 26.4357 32.7946 26.3751C32.1956 26.2969 31.576 26.2166 31.0024 25.9609C30.6032 25.7834 30.2088 25.5531 29.8272 25.3301C29.15 24.9335 28.4488 24.5236 27.8747 24.5236Z" fill="black"/>
<path d="M21.1541 23.965C20.0691 23.965 18.9167 24.9533 17.7982 25.4509C16.8783 25.8599 15.7267 25.7663 14.7569 26.0976C12.8864 26.7361 14.0573 31.6908 20.9354 31.2758C22.9085 31.1567 24.5143 29.6734 24.5143 27.6969C24.5143 25.7203 23.1307 23.965 21.1541 23.965Z" fill="#DEDEDE"/>
<path d="M20.1522 31.8584C18.3476 31.8584 16.7813 31.4789 15.5898 30.7472C14.4473 30.0455 13.6704 29.0263 13.4586 27.9512C13.2373 26.8306 13.6876 25.8732 14.5788 25.569C15.0746 25.3993 15.5915 25.3323 16.0908 25.2682C16.6344 25.1973 17.1483 25.1303 17.5733 24.9412C17.917 24.7887 18.2672 24.5837 18.6389 24.3663C19.4458 23.8937 20.2799 23.4073 21.1564 23.4073C22.2556 23.4073 23.2653 23.8752 24.0001 24.7251C24.6936 25.5269 25.0743 26.5826 25.0743 27.6977C25.0743 29.9144 23.31 31.6938 20.9708 31.8339C20.6921 31.8502 20.4192 31.8584 20.1522 31.8584ZM21.1564 24.5236C20.5824 24.5236 19.8811 24.9335 19.2026 25.3301C18.8211 25.5531 18.4266 25.7834 18.0274 25.9609C17.4538 26.2187 16.8342 26.2969 16.2352 26.3751C15.7694 26.4357 15.3299 26.4928 14.9397 26.626C14.6784 26.715 14.4211 27.0592 14.553 27.7351C14.6252 28.0994 14.9268 29.0293 16.1733 29.795C17.3451 30.5147 18.9805 30.834 20.9029 30.718C22.644 30.6131 23.9567 29.3142 23.9567 27.6968C23.9558 26.1371 22.9078 24.5236 21.1543 24.5236H21.1564Z" fill="black"/>
<path d="M31.3675 18.7412C31.764 18.0515 31.2351 17.0036 30.1863 16.4009C29.1375 15.7981 27.9659 15.8686 27.5695 16.5584C27.1731 17.2482 27.7019 18.296 28.7507 18.8988C29.7995 19.5016 30.9711 19.431 31.3675 18.7412Z" fill="#DEDEDE"/>
<path d="M30.1031 19.9805C29.5625 19.9805 28.9691 19.8215 28.4024 19.4936C27.0703 18.7249 26.4662 17.3645 27.0274 16.396C27.5885 15.4274 29.0671 15.271 30.3983 16.0398C31.7294 16.8085 32.3344 18.1689 31.7733 19.1374C31.4532 19.6926 30.828 19.9805 30.1031 19.9805ZM28.6628 16.6718C28.3581 16.6718 28.1042 16.7578 27.9916 16.955C27.7849 17.3134 28.1549 18.0619 28.9597 18.5264C29.6235 18.9097 30.5538 19.0137 30.8048 18.5792C31.0114 18.2204 30.6415 17.4723 29.8367 17.0074C29.4732 16.7973 29.0301 16.6718 28.6628 16.6718Z" fill="black"/>
<path d="M19.5221 19.0099C20.5661 18.4072 21.0911 17.3619 20.6947 16.6753C20.2982 15.9887 19.1305 15.9207 18.0865 16.5234C17.0425 17.1262 16.5175 18.1715 16.9139 18.8581C17.3103 19.5447 18.4781 19.6127 19.5221 19.0099Z" fill="#DEDEDE"/>
<path d="M18.099 19.9805C17.3746 19.9805 16.7507 19.6922 16.4301 19.1371C15.8715 18.1685 16.4761 16.8077 17.8073 16.0394C19.1384 15.2711 20.6191 15.4271 21.1782 16.3956C21.7372 17.3641 21.1322 18.7246 19.801 19.4933C19.2334 19.8216 18.6383 19.9805 18.099 19.9805ZM17.3978 18.5789C17.6044 18.9373 18.4376 18.991 19.2424 18.526C19.9067 18.1428 20.4614 17.3891 20.2105 16.9547C20.0038 16.5963 19.1707 16.5426 18.3659 17.0071C17.702 17.3908 17.1468 18.144 17.3978 18.5789Z" fill="black"/>
<path d="M24.2881 8.42188C24.2539 8.42188 24.2212 8.4083 24.197 8.38413C24.1728 8.35995 24.1593 8.32717 24.1593 8.29298V7.60548C24.1593 7.57129 24.1728 7.5385 24.197 7.51433C24.2212 7.49015 24.2539 7.47657 24.2881 7.47657C24.3223 7.47657 24.355 7.49015 24.3792 7.51433C24.4034 7.5385 24.417 7.57129 24.417 7.60548V8.29298C24.417 8.32717 24.4034 8.35995 24.3792 8.38413C24.355 8.4083 24.3223 8.42188 24.2881 8.42188Z" fill="#FE5B4A"/>
<path d="M16.4968 9.22102C16.4968 9.22102 17.1573 11.1434 17.7915 10.602C18.1137 10.3266 17.9105 10.9389 17.9105 10.9389L16.9407 11.2023L16.4968 9.22102Z" fill="#A81A3F"/>
<path d="M17.3164 10.0861C17.2917 10.0861 17.2676 10.079 17.2469 10.0656C17.2262 10.0523 17.2097 10.0333 17.1995 10.011L16.912 9.38659C16.8977 9.35554 16.8963 9.32007 16.9082 9.288C16.92 9.25593 16.9441 9.22987 16.9752 9.21557C17.0062 9.20127 17.0417 9.19989 17.0738 9.21174C17.1058 9.22358 17.1319 9.24768 17.1462 9.27874L17.4337 9.9031C17.4428 9.92276 17.4468 9.94441 17.4453 9.96603C17.4438 9.98765 17.4369 10.0085 17.4252 10.0268C17.4135 10.045 17.3974 10.06 17.3784 10.0704C17.3594 10.0808 17.338 10.0862 17.3164 10.0861Z" fill="#FE5B4A"/>
<path d="M31.5864 9.20943C31.5864 9.20943 30.926 11.1319 30.2926 10.5905C29.9703 10.315 30.1736 10.9273 30.1736 10.9273L31.1434 11.1907L31.5864 9.20943Z" fill="#A81A3F"/>
<path d="M30.7653 10.074C30.7468 10.0741 30.7284 10.0701 30.7116 10.0624C30.6961 10.0553 30.6822 10.0452 30.6706 10.0327C30.659 10.0202 30.6501 10.0056 30.6442 9.98958C30.6383 9.9736 30.6357 9.95661 30.6364 9.9396C30.6371 9.92259 30.6412 9.9059 30.6484 9.89048L30.9372 9.26699C30.9438 9.25099 30.9536 9.2365 30.966 9.22438C30.9783 9.21225 30.993 9.20275 31.0092 9.19642C31.0253 9.1901 31.0425 9.1871 31.0598 9.18759C31.0772 9.18808 31.0942 9.19205 31.1099 9.19928C31.1257 9.2065 31.1398 9.21682 31.1515 9.22963C31.1631 9.24243 31.1721 9.25746 31.1778 9.2738C31.1836 9.29015 31.1859 9.30748 31.1848 9.32477C31.1837 9.34206 31.1791 9.35894 31.1713 9.37441L30.8839 9.99919C30.8734 10.0218 30.8567 10.0408 30.8356 10.0541C30.8146 10.0674 30.7902 10.0743 30.7653 10.074Z" fill="#FE5B4A"/>
<path d="M13.3682 22.6036C12.8182 24.5372 10.5323 34.7152 22.1768 38.2941C22.2415 38.314 22.2979 38.3544 22.3375 38.4093C22.6516 38.8454 24.0133 40.9264 23.9703 44.1473C23.9226 47.7872 22.2241 41.9636 20.9136 41.3329C19.6713 40.7347 14.1675 36.165 13.599 35.6915C13.5674 35.6654 13.5414 35.6333 13.5225 35.597L10.8241 30.4368C10.8042 30.3991 10.7924 30.3577 10.7893 30.3152L10.5388 26.8425C10.5346 26.7854 10.5464 26.7283 10.5727 26.6775L12.7929 22.3755C12.8243 22.3149 12.8746 22.2664 12.9363 22.2373C12.9979 22.2082 13.0674 22.2001 13.1341 22.2143C13.1757 22.2232 13.2151 22.2406 13.2498 22.2653C13.2844 22.2901 13.3136 22.3217 13.3356 22.3582C13.3575 22.3947 13.3718 22.4353 13.3774 22.4775C13.383 22.5197 13.3799 22.5627 13.3682 22.6036Z" fill="#BEBEBE"/>
<path d="M25.3313 26.168C25.3313 26.168 31.9451 28.71 33.5882 27.6332C35.2313 26.5564 34.8429 27.4781 34.8429 27.4781C34.8429 27.4781 34.576 31.0209 31.0333 31.0935C27.4905 31.1661 25.3313 29.9334 25.3313 29.9334C25.3313 29.9334 23.5842 26.7266 25.3313 26.168Z" fill="#BEBEBE"/>
<path d="M23.4065 26.168C23.4065 26.168 16.7927 28.71 15.1496 27.6332C13.5065 26.5564 13.8949 27.4781 13.8949 27.4781C13.8949 27.4781 14.1617 31.0209 17.7045 31.0935C21.2473 31.1661 23.4065 29.9334 23.4065 29.9334C23.4065 29.9334 25.1536 26.7266 23.4065 26.168Z" fill="#BEBEBE"/>
<path d="M33.5821 25.8762L32.5629 25.4194C33.2028 23.9878 33.4748 22.4189 33.3542 20.8554C33.2336 19.2919 32.7242 17.7834 31.8722 16.4668C31.0203 15.1503 29.8528 14.0675 28.476 13.317C27.0991 12.5664 25.5565 12.1718 23.9884 12.1691C22.4202 12.1663 20.8763 12.5555 19.4968 13.3013C18.1173 14.047 16.9461 15.1257 16.0896 16.4392C15.233 17.7528 14.7183 19.2596 14.5922 20.8226C14.4661 22.3857 14.7327 23.9555 15.3676 25.3893L14.3462 25.8427C13.6357 24.2386 13.3374 22.4823 13.4783 20.7336C13.6192 18.9849 14.1949 17.2991 15.1531 15.8295C16.1113 14.3598 17.4216 13.153 18.9649 12.3186C20.5082 11.4842 22.2356 11.0488 23.99 11.0518C25.7444 11.0549 27.4702 11.4964 29.0106 12.3361C30.5509 13.1759 31.857 14.3873 32.8101 15.8602C33.7632 17.3332 34.333 19.021 34.4678 20.7702C34.6027 22.5194 34.2982 24.2746 33.5821 25.8762Z" fill="#690A3F"/>
<path d="M23.9719 32.1015C23.1339 32.1017 22.2989 32.0023 21.4844 31.8055L21.7478 30.7196C23.4939 31.1414 25.324 31.0578 27.0244 30.4786L27.3862 31.5356C26.2872 31.9117 25.1334 32.1029 23.9719 32.1015Z" fill="#690A3F"/>
<path d="M18.4289 23.3131C18.2018 23.3131 17.9797 23.2458 17.7908 23.1195C17.602 22.9933 17.4547 22.814 17.3678 22.6041C17.2809 22.3942 17.2581 22.1633 17.3024 21.9405C17.3468 21.7177 17.4562 21.513 17.6168 21.3524C17.7774 21.1917 17.9821 21.0823 18.2049 21.038C18.4277 20.9937 18.6586 21.0165 18.8685 21.1034C19.0783 21.1903 19.2577 21.3375 19.3839 21.5264C19.5101 21.7153 19.5775 21.9374 19.5775 22.1645C19.5772 22.4691 19.456 22.761 19.2407 22.9763C19.0254 23.1917 18.7334 23.3128 18.4289 23.3131ZM18.4289 22.1332C18.4227 22.1332 18.4167 22.135 18.4115 22.1385C18.4064 22.1419 18.4023 22.1468 18.4 22.1525C18.3976 22.1583 18.397 22.1646 18.3982 22.1707C18.3994 22.1767 18.4024 22.1823 18.4068 22.1867C18.4111 22.1911 18.4167 22.1941 18.4228 22.1953C18.4289 22.1965 18.4352 22.1959 18.4409 22.1935C18.4467 22.1911 18.4516 22.1871 18.455 22.182C18.4585 22.1768 18.4603 22.1707 18.4603 22.1645C18.4603 22.1562 18.457 22.1482 18.4511 22.1424C18.4452 22.1365 18.4373 22.1332 18.4289 22.1332Z" fill="#690A3F"/>
<path d="M29.3976 23.3131C29.1704 23.3131 28.9483 23.2458 28.7594 23.1195C28.5706 22.9933 28.4233 22.814 28.3364 22.6041C28.2495 22.3942 28.2267 22.1633 28.2711 21.9405C28.3154 21.7177 28.4248 21.513 28.5854 21.3524C28.746 21.1917 28.9507 21.0823 29.1735 21.038C29.3963 20.9937 29.6272 21.0165 29.8371 21.1034C30.047 21.1903 30.2263 21.3375 30.3525 21.5264C30.4788 21.7153 30.5461 21.9374 30.5461 22.1645C30.5458 22.4691 30.4247 22.761 30.2093 22.9763C29.994 23.1917 29.7021 23.3128 29.3976 23.3131ZM29.3976 22.1332C29.3913 22.1332 29.3853 22.135 29.3801 22.1385C29.375 22.1419 29.3709 22.1468 29.3686 22.1525C29.3662 22.1583 29.3656 22.1646 29.3668 22.1707C29.368 22.1767 29.371 22.1823 29.3754 22.1867C29.3798 22.1911 29.3853 22.1941 29.3914 22.1953C29.3975 22.1965 29.4038 22.1959 29.4096 22.1935C29.4153 22.1911 29.4202 22.1871 29.4236 22.182C29.4271 22.1768 29.4289 22.1707 29.4289 22.1645C29.4289 22.1562 29.4256 22.1482 29.4197 22.1424C29.4139 22.1365 29.4059 22.1332 29.3976 22.1332Z" fill="#690A3F"/>
<path d="M18.099 19.9805C17.3746 19.9805 16.7507 19.6922 16.4301 19.1371C15.8715 18.1685 16.4761 16.8077 17.8073 16.0394C19.1384 15.2711 20.6191 15.4271 21.1782 16.3956C21.7372 17.3641 21.1322 18.7246 19.801 19.4933C19.2334 19.8216 18.6383 19.9805 18.099 19.9805ZM17.3978 18.5789C17.6044 18.9373 18.4376 18.991 19.2424 18.526C19.9067 18.1428 20.4614 17.3891 20.2105 16.9547C20.0038 16.5963 19.1707 16.5426 18.3659 17.0071C17.702 17.3908 17.1468 18.144 17.3978 18.5789Z" fill="#690A3F"/>
<path d="M30.1031 19.9805C29.5625 19.9805 28.9691 19.8215 28.4024 19.4936C27.0703 18.7249 26.4662 17.3645 27.0274 16.396C27.5885 15.4274 29.0671 15.271 30.3983 16.0398C31.7294 16.8085 32.3344 18.1689 31.7733 19.1374C31.4532 19.6926 30.828 19.9805 30.1031 19.9805ZM28.6628 16.6718C28.3581 16.6718 28.1042 16.7578 27.9916 16.955C27.7849 17.3134 28.1549 18.0619 28.9597 18.5264C29.6235 18.9097 30.5538 19.0137 30.8048 18.5792C31.0114 18.2204 30.6415 17.4723 29.8367 17.0074C29.4732 16.7973 29.0301 16.6718 28.6628 16.6718Z" fill="#690A3F"/>
<path d="M28.8789 31.8584C28.6108 31.8584 28.3376 31.8499 28.0595 31.833C25.7202 31.6921 23.956 29.9136 23.956 27.6968C23.956 26.5796 24.3375 25.5261 25.0302 24.7243C25.7649 23.8743 26.7747 23.4064 27.8738 23.4064C28.7504 23.4064 29.5844 23.8941 30.3914 24.3655C30.7631 24.5829 31.1141 24.7878 31.457 24.9404C31.882 25.1295 32.3959 25.1982 32.9394 25.2674C33.4387 25.3323 33.9556 25.3993 34.4519 25.5682C35.3427 25.8724 35.793 26.8297 35.5717 27.9504C35.3598 29.0246 34.5834 30.0446 33.4404 30.7463C32.2498 31.4789 30.6844 31.8584 28.8789 31.8584ZM27.8747 24.5236C26.4976 24.5236 25.0731 25.7104 25.0731 27.6968C25.0731 29.3142 26.3858 30.6131 28.1269 30.718C30.0493 30.8344 31.6847 30.5152 32.8565 29.795C34.1026 29.0293 34.4034 28.0995 34.4768 27.7351C34.61 27.0592 34.3527 26.715 34.0901 26.6261C33.7 26.4928 33.2604 26.4357 32.7946 26.3751C32.1956 26.2969 31.576 26.2166 31.0024 25.9609C30.6032 25.7834 30.2088 25.5531 29.8272 25.3301C29.15 24.9335 28.4488 24.5236 27.8747 24.5236Z" fill="#690A3F"/>
<path d="M20.1522 31.8584C18.3476 31.8584 16.7813 31.4789 15.5898 30.7472C14.4473 30.0455 13.6704 29.0263 13.4586 27.9512C13.2373 26.8306 13.6876 25.8732 14.5788 25.569C15.0746 25.3993 15.5915 25.3323 16.0908 25.2682C16.6344 25.1973 17.1483 25.1303 17.5733 24.9412C17.917 24.7887 18.2672 24.5837 18.6389 24.3663C19.4458 23.8937 20.2799 23.4073 21.1564 23.4073C22.2556 23.4073 23.2653 23.8752 24.0001 24.7251C24.6936 25.5269 25.0743 26.5826 25.0743 27.6977C25.0743 29.9144 23.31 31.6938 20.9708 31.8339C20.6921 31.8502 20.4192 31.8584 20.1522 31.8584ZM21.1564 24.5236C20.5824 24.5236 19.8811 24.9335 19.2026 25.3301C18.8211 25.5531 18.4266 25.7834 18.0274 25.9609C17.4538 26.2187 16.8342 26.2969 16.2352 26.3751C15.7694 26.4357 15.3299 26.4928 14.9397 26.626C14.6784 26.715 14.4211 27.0592 14.553 27.7351C14.6252 28.0994 14.9268 29.0293 16.1733 29.795C17.3451 30.5147 18.9805 30.834 20.9029 30.718C22.644 30.6131 23.9567 29.3142 23.9567 27.6968C23.9558 26.1371 22.9078 24.5236 21.1543 24.5236H21.1564Z" fill="#690A3F"/>
<path d="M24.0276 45.7186C23.9251 45.7185 23.8246 45.6903 23.7371 45.6369C23.6496 45.5835 23.5784 45.5071 23.5315 45.416C23.4845 45.325 23.4635 45.2227 23.4707 45.1205C23.478 45.0182 23.5132 44.92 23.5726 44.8364C23.6667 44.7036 25.9148 41.5626 28.6498 39.8697C30.8554 38.5041 32.6863 36.9358 34.0913 35.2071C35.4414 33.5464 35.9876 32.2256 36.1599 31.7349C36.2017 31.6163 36.2434 31.4988 36.2849 31.3825C36.9294 29.5778 37.4369 28.1547 35.8896 25.0369C34.6865 22.6169 33.2797 19.7131 33.2655 19.6839C33.2028 19.5508 33.195 19.3985 33.244 19.2598C33.2929 19.1211 33.3946 19.0073 33.5269 18.9431C33.6592 18.8789 33.8115 18.8695 33.9507 18.9169C34.0899 18.9642 34.2048 19.0646 34.2705 19.1962C34.2847 19.2254 35.6915 22.1249 36.8916 24.5402C38.6499 28.0829 38.0127 29.8683 37.3385 31.7589C37.2955 31.8736 37.2564 31.9888 37.2152 32.1057C36.9776 32.7837 36.3678 34.1802 34.9597 35.9127C33.4726 37.735 31.5497 39.3863 29.238 40.8176C26.6977 42.3898 24.505 45.4509 24.4835 45.4814C24.432 45.5545 24.3638 45.6142 24.2844 45.6555C24.2051 45.6968 24.117 45.7184 24.0276 45.7186Z" fill="#690A3F"/>
<path d="M23.9721 45.7186C23.8828 45.7187 23.7948 45.6974 23.7155 45.6565C23.6362 45.6156 23.5678 45.5563 23.5162 45.4836C23.4947 45.4531 21.302 42.3898 18.7617 40.8198C16.45 39.3885 14.5254 37.7372 13.0412 35.9119C11.6332 34.1794 11.0217 32.7829 10.7858 32.1048C10.7428 31.9879 10.7033 31.8728 10.6625 31.7581C9.98832 29.8674 9.35109 28.0829 11.1094 24.5393C12.3082 22.124 13.715 19.2245 13.7305 19.1953C13.7961 19.0637 13.9111 18.9633 14.0503 18.916C14.1895 18.8686 14.3418 18.878 14.4741 18.9422C14.6064 19.0064 14.7081 19.1202 14.757 19.2589C14.8059 19.3976 14.7982 19.55 14.7355 19.683C14.7213 19.7122 13.3124 22.616 12.1114 25.036C10.5645 28.1538 11.0724 29.5783 11.7161 31.3817C11.7579 31.4983 11.7996 31.6157 11.8411 31.734C12.013 32.2247 12.5596 33.5456 13.9096 35.2063C15.3147 36.9349 17.1456 38.5033 19.3512 39.8689C22.0862 41.5618 24.3356 44.7028 24.4284 44.8356C24.488 44.9193 24.5235 45.0177 24.5308 45.1202C24.5381 45.2227 24.5171 45.3252 24.4699 45.4165C24.4227 45.5078 24.3513 45.5843 24.2635 45.6376C24.1756 45.6909 24.0748 45.7189 23.9721 45.7186Z" fill="#690A3F"/>
<path d="M32.1233 16.3947C32.0361 16.3948 31.9501 16.3744 31.8722 16.3352C31.7943 16.2961 31.7267 16.2392 31.6747 16.1692C31.6227 16.0992 31.5878 16.018 31.5728 15.9321C31.5578 15.8462 31.5631 15.758 31.5884 15.6746L34.6426 5.55756L28.1732 8.59116C28.0567 8.64588 27.9248 8.65867 27.7999 8.62735C27.675 8.59603 27.5648 8.52253 27.4879 8.41928L23.5777 3.17709C23.5339 3.11826 23.502 3.05138 23.484 2.98025C23.4661 2.90913 23.4622 2.83515 23.4728 2.76255C23.4834 2.68995 23.5082 2.62015 23.5458 2.55714C23.5834 2.49412 23.633 2.43912 23.6918 2.39527C23.7506 2.35143 23.8175 2.3196 23.8886 2.3016C23.9598 2.28361 24.0337 2.2798 24.1063 2.29039C24.1789 2.30099 24.2487 2.32578 24.3117 2.36334C24.3748 2.40091 24.4298 2.45053 24.4736 2.50935L28.1113 7.38631L35.3022 4.01412C35.3999 3.96784 35.5091 3.95095 35.6163 3.96549C35.7234 3.98004 35.8241 4.02541 35.906 4.09608C35.9879 4.16675 36.0476 4.25968 36.0777 4.36359C36.1078 4.4675 36.107 4.57792 36.0756 4.68143L32.6561 15.9973C32.6216 16.1118 32.5512 16.2123 32.4553 16.2839C32.3594 16.3554 32.243 16.3943 32.1233 16.3947Z" fill="#690A3F"/>
<path d="M15.8332 16.3947C15.7132 16.3946 15.5965 16.3559 15.5002 16.2844C15.4039 16.2128 15.3333 16.1121 15.2986 15.9972L11.8826 4.68355C11.8512 4.58004 11.8505 4.46963 11.8806 4.36572C11.9107 4.26181 11.9703 4.16888 12.0522 4.09821C12.1341 4.02754 12.2348 3.98217 12.342 3.96762C12.4492 3.95307 12.5583 3.96997 12.6561 4.01625L19.8452 7.38629L23.4807 2.50804C23.5693 2.38924 23.7014 2.31048 23.848 2.28908C23.9946 2.26769 24.1438 2.30541 24.2626 2.39396C24.3814 2.48251 24.4601 2.61462 24.4815 2.76124C24.5029 2.90786 24.4652 3.05698 24.3766 3.17578L20.4665 8.41797C20.3896 8.52122 20.2793 8.59472 20.1544 8.62604C20.0296 8.65736 19.8977 8.64457 19.7811 8.58985L13.3118 5.55625L16.366 15.6733C16.3912 15.7567 16.3965 15.8449 16.3816 15.9308C16.3666 16.0167 16.3317 16.0979 16.2797 16.1679C16.2277 16.2379 16.16 16.2948 16.0821 16.3339C16.0042 16.3731 15.9182 16.3934 15.831 16.3934L15.8332 16.3947Z" fill="#690A3F"/>
<path d="M24.3528 10.0021H23.966C23.7381 10.0021 23.5195 9.91159 23.3584 9.75042C23.1972 9.58926 23.1067 9.37067 23.1067 9.14275V7.52626C23.1067 7.29834 23.1972 7.07975 23.3584 6.91858C23.5195 6.75742 23.7381 6.66688 23.966 6.66688H24.3528C24.5807 6.66688 24.7993 6.75742 24.9604 6.91858C25.1216 7.07975 25.2121 7.29834 25.2121 7.52626V9.14275C25.2121 9.37067 25.1216 9.58926 24.9604 9.75042C24.7993 9.91159 24.5807 10.0021 24.3528 10.0021ZM23.966 7.35438C23.9206 7.35494 23.8772 7.37323 23.8451 7.40534C23.813 7.43745 23.7947 7.48085 23.7942 7.52626V9.14275C23.7947 9.18816 23.813 9.23156 23.8451 9.26367C23.8772 9.29578 23.9206 9.31407 23.966 9.31463H24.3528C24.3982 9.31407 24.4416 9.29578 24.4737 9.26367C24.5058 9.23156 24.5241 9.18816 24.5246 9.14275V7.52626C24.5241 7.48085 24.5058 7.43745 24.4737 7.40534C24.4416 7.37323 24.3982 7.35494 24.3528 7.35438H23.966Z" fill="#690A3F"/>
<path d="M30.6828 11.7215C30.5593 11.7215 30.4374 11.6946 30.3253 11.6429L29.976 11.4822C29.7693 11.3865 29.6089 11.2128 29.5299 10.9992C29.4509 10.7856 29.4597 10.5494 29.5544 10.3422L30.2303 8.87354C30.2775 8.77101 30.3444 8.67877 30.4272 8.6021C30.51 8.52542 30.6072 8.46581 30.713 8.42667C30.8189 8.38753 30.9314 8.36962 31.0442 8.37397C31.157 8.37832 31.2678 8.40484 31.3703 8.45202L31.7196 8.61272C31.8223 8.65996 31.9145 8.72698 31.9912 8.80992C32.0679 8.89287 32.1275 8.99013 32.1666 9.09612C32.2057 9.20212 32.2235 9.31478 32.2189 9.42766C32.2144 9.54054 32.1877 9.65143 32.1403 9.75397L31.4644 11.2226C31.395 11.3718 31.2846 11.498 31.146 11.5866C31.0074 11.6752 30.8464 11.7225 30.6819 11.7228L30.6828 11.7215ZM31.0132 9.06131C30.9802 9.06118 30.9478 9.07044 30.9198 9.08801C30.8918 9.10558 30.8693 9.13075 30.8551 9.16057L30.1792 10.6297C30.1699 10.6503 30.1647 10.6725 30.1639 10.6951C30.1632 10.7177 30.1669 10.7402 30.1749 10.7614C30.1829 10.7825 30.195 10.8019 30.2105 10.8184C30.2259 10.8349 30.2445 10.8481 30.2651 10.8574L30.6145 11.0181C30.6351 11.0275 30.6574 11.0328 30.68 11.0335C30.7027 11.0343 30.7252 11.0306 30.7464 11.0226C30.7676 11.0146 30.7871 11.0025 30.8036 10.987C30.8201 10.9715 30.8334 10.9528 30.8426 10.9322L31.5185 9.4635C31.5367 9.42177 31.5379 9.37458 31.5219 9.33197C31.5058 9.28937 31.4738 9.2547 31.4326 9.23534L31.0833 9.07463C31.0612 9.06516 31.0373 9.06061 31.0132 9.06131Z" fill="#690A3F"/>
<path d="M17.3673 11.7215C17.2647 11.7215 17.1628 11.7031 17.0666 11.6673C16.961 11.6284 16.8641 11.5689 16.7816 11.4924C16.699 11.4158 16.6325 11.3237 16.5857 11.2213L15.909 9.75394C15.8618 9.65141 15.8353 9.5406 15.8309 9.42782C15.8266 9.31504 15.8445 9.20251 15.8836 9.09665C15.9228 8.9908 15.9824 8.89369 16.0591 8.81087C16.1357 8.72805 16.228 8.66115 16.3305 8.61398L16.6798 8.45328C16.7824 8.4061 16.8932 8.37958 17.006 8.37523C17.1187 8.37088 17.2313 8.38879 17.3371 8.42793C17.443 8.46707 17.5401 8.52668 17.6229 8.60336C17.7057 8.68003 17.7726 8.77227 17.8198 8.8748L18.4957 10.3435C18.5429 10.446 18.5694 10.5568 18.5737 10.6696C18.5781 10.7824 18.5602 10.8949 18.521 11.0008C18.4819 11.1066 18.4223 11.2037 18.3456 11.2865C18.2689 11.3694 18.1767 11.4363 18.0742 11.4834L17.7248 11.6446C17.6126 11.6957 17.4907 11.722 17.3673 11.7215ZM17.0373 9.06128C17.0132 9.06118 16.9893 9.06631 16.9673 9.07632L16.618 9.23832C16.5767 9.25759 16.5446 9.29226 16.5285 9.33489C16.5125 9.37753 16.5137 9.42476 16.532 9.46648L17.2079 10.9352C17.2172 10.9558 17.2305 10.9744 17.247 10.9898C17.2634 11.0053 17.2828 11.0174 17.304 11.0254C17.3251 11.0334 17.3476 11.0371 17.3702 11.0364C17.3928 11.0356 17.4151 11.0304 17.4357 11.0211L17.7846 10.8604C17.8052 10.8511 17.8238 10.8378 17.8392 10.8214C17.8547 10.8049 17.8668 10.7855 17.8748 10.7644C17.8828 10.7432 17.8865 10.7207 17.8858 10.6981C17.885 10.6755 17.8798 10.6532 17.8705 10.6327L17.1946 9.16355C17.1808 9.13336 17.1586 9.10772 17.1308 9.08961C17.103 9.07151 17.0706 9.06168 17.0373 9.06128Z" fill="#690A3F"/>
<path d="M13.2634 5.56656L20.8367 10.2038C20.859 10.2169 20.885 10.2223 20.9106 10.2191C20.9363 10.216 20.9602 10.2045 20.9787 10.1864C20.9972 10.1683 21.0092 10.1446 21.0129 10.119C21.0166 10.0934 21.0117 10.0673 20.9991 10.0448L20.187 8.57523L13.2634 5.56656Z" fill="#F3970D"/>
<path d="M34.8759 5.45367L27.3279 10.1218C27.2972 10.1398 27.2614 10.1472 27.2261 10.1429C27.1908 10.1386 27.1578 10.1228 27.1324 10.098C27.1069 10.0731 27.0903 10.0406 27.0851 10.0054C27.0799 9.97018 27.0864 9.93424 27.1036 9.90309L27.8375 8.57536L34.8759 5.45367Z" fill="#F3970D"/>
<path d="M25.2792 6.53111C25.2459 6.53111 25.213 6.52335 25.1831 6.50843C25.1533 6.49352 25.1273 6.47186 25.1073 6.44518L23.7998 4.72085C23.7656 4.67526 23.7509 4.61797 23.759 4.56156C23.7671 4.50515 23.7972 4.45426 23.8428 4.42007C23.8884 4.38588 23.9457 4.3712 24.0021 4.37926C24.0585 4.38732 24.1094 4.41745 24.1436 4.46304L25.4502 6.18736C25.4742 6.21928 25.4887 6.25724 25.4923 6.29698C25.4959 6.33671 25.4884 6.37666 25.4705 6.41235C25.4527 6.44804 25.4252 6.47805 25.3913 6.49903C25.3574 6.52 25.3182 6.53111 25.2783 6.53111H25.2792Z" fill="#F3D49E"/>
<path d="M19.0125 22.2844C18.9577 22.2845 18.9049 22.2637 18.865 22.2261C18.825 22.1886 18.8009 22.1372 18.7977 22.0825C18.7766 21.731 18.4741 21.6958 18.4135 21.6958C18.3568 21.6932 18.3033 21.6683 18.2649 21.6264C18.2265 21.5845 18.2062 21.5291 18.2086 21.4723C18.2109 21.416 18.2353 21.3628 18.2766 21.3243C18.3178 21.2857 18.3726 21.265 18.429 21.2665C18.6868 21.2747 19.1904 21.4504 19.2265 22.0584C19.2299 22.1153 19.2106 22.1712 19.1728 22.2138C19.135 22.2564 19.0818 22.2823 19.025 22.2857L19.0125 22.2844Z" fill="white"/>
<path d="M29.9437 22.2844C29.8889 22.2845 29.8361 22.2637 29.7962 22.2261C29.7562 22.1886 29.7321 22.1372 29.7288 22.0825C29.7082 21.731 29.4053 21.6958 29.3447 21.6958C29.2879 21.6932 29.2345 21.6683 29.1961 21.6264C29.1576 21.5845 29.1374 21.5291 29.1397 21.4723C29.1421 21.416 29.1665 21.3628 29.2077 21.3243C29.249 21.2857 29.3037 21.265 29.3601 21.2665C29.6201 21.2747 30.1216 21.4504 30.1577 22.0584C30.1611 22.1153 30.1418 22.1712 30.104 22.2138C30.0662 22.2564 30.013 22.2823 29.9562 22.2857L29.9437 22.2844Z" fill="white"/>
</svg>
