<svg width="59" height="59" viewBox="0 0 59 59" fill="none" xmlns="http://www.w3.org/2000/svg">
<path d="M20.8395 21.2087C20.8395 21.2087 9.16666 19.6557 3.26709 23.4564C3.26709 23.4564 5.49041 29.1372 16.2655 27.5435C16.2643 27.5435 18.6162 22.7186 20.8395 21.2087Z" fill="#B73F39"/>
<path d="M38.781 21.2087C38.781 21.2087 50.4545 19.6557 56.3535 23.4564C56.3535 23.4564 54.1295 29.1372 43.3545 27.5435C43.3562 27.5435 41.0049 22.7186 38.781 21.2087Z" fill="#B73F39"/>
<path d="M42.6034 25.5507C42.6034 25.5507 47.0576 26.1908 49.5276 23.9442C49.5276 23.9442 44.6644 22.4534 41.1249 23.7632L42.6034 25.5507Z" fill="#E883A0"/>
<path d="M16.6555 25.5977C16.6555 25.5977 11.687 26.2378 8.93066 23.9912C8.93066 23.9912 14.3548 22.4998 18.3022 23.8102L16.6555 25.5977Z" fill="#E883A0"/>
<path d="M47.8207 44.2391C47.8207 51.7953 39.5756 57.9212 29.4057 57.9212C19.2358 57.9212 10.9907 51.7953 10.9907 44.2391C10.9907 38.4536 15.5485 25.5826 22.4698 20.429C24.5884 18.8516 27.3535 19.0797 29.7368 19.0797C32.0812 19.0797 35.2279 19.157 37.2633 20.6891C44.0572 25.8026 47.8207 38.4245 47.8207 44.2391Z" fill="#B73F39"/>
<path d="M29.4058 58.6781C24.3255 58.6781 19.5408 57.2019 15.9332 54.5212C14.1573 53.2021 12.7603 51.6602 11.7804 49.9396C10.7546 48.1358 10.2344 46.2197 10.2344 44.2373C10.2344 41.0859 11.4633 36.3175 13.4416 31.7923C15.7767 26.4536 18.8228 22.2019 22.0201 19.8221C24.1085 18.2673 26.6751 18.2941 28.9415 18.3179C29.2173 18.3179 29.4785 18.3232 29.7386 18.3232C32.4682 18.3232 35.5608 18.4593 37.7201 20.0851C39.3918 21.3431 40.9704 23.0957 42.4135 25.294C43.679 27.2223 44.8166 29.4532 45.7947 31.9232C47.5118 36.2605 48.579 40.98 48.579 44.239C48.579 46.2174 48.0588 48.1376 47.0324 49.9414C46.0513 51.6596 44.6548 53.2016 42.8778 54.5207C39.2702 57.2013 34.4861 58.6781 29.4058 58.6781ZM28.0768 19.8244C26.2253 19.8244 24.3784 19.9507 22.922 21.0353C19.9335 23.2609 17.0591 27.2968 14.8276 32.3997C12.9564 36.6835 11.7472 41.3274 11.7472 44.239C11.7472 51.3663 19.6688 57.1647 29.4058 57.1647C39.1428 57.1647 47.0644 51.3663 47.0644 44.239C47.0644 41.2046 46.0129 36.5886 44.3878 32.48C42.3937 27.444 39.7025 23.471 36.8095 21.2936C35.0232 19.9489 32.2226 19.836 29.738 19.836C29.4698 19.836 29.1928 19.836 28.9234 19.8302C28.6424 19.8273 28.3625 19.8244 28.0768 19.8244Z" fill="#861A3F"/>
<path d="M46.1735 48.8912C42.8743 53.4879 38.0203 57.1799 28.9269 57.1799C19.8334 57.1799 13.7459 51.5357 12.5863 48.5479C10.6155 43.4751 29.4058 38.6264 29.4058 38.6264C29.4058 38.6264 49.3476 44.4713 46.1735 48.8912Z" fill="#FFEAE8"/>
<path d="M28.9267 57.2088C23.8575 57.2088 20.059 55.4684 17.7653 54.0085C16.459 53.1771 15.2702 52.1972 14.3282 51.1766C13.4903 50.2677 12.8619 49.3379 12.5593 48.5582C12.3266 47.9542 12.3731 47.3229 12.7019 46.6817C13.8563 44.4316 18.3361 42.3538 21.8913 41.0062C25.7392 39.548 29.3619 38.6077 29.3974 38.5984H29.4056H29.4132C29.4521 38.61 33.3588 39.7621 37.3888 41.3989C42.8049 43.6007 45.8498 45.5884 46.4398 47.3008C46.6359 47.8698 46.5562 48.4104 46.1966 48.9079L46.1727 48.891L46.1966 48.9079C44.3183 51.5234 42.205 53.4465 39.7378 54.7848C36.7272 56.4157 33.1918 57.2088 28.9267 57.2088ZM29.405 38.6566C29.2147 38.706 25.6706 39.6359 21.9111 41.0608C18.3658 42.4044 13.8994 44.4752 12.7537 46.705C12.4325 47.3316 12.3853 47.9467 12.6134 48.5338C13.4211 50.6145 15.9103 52.7552 17.7967 53.9562C20.0835 55.4108 23.8714 57.1477 28.9267 57.1477C33.1813 57.1477 36.708 56.357 39.7087 54.7301C42.1701 53.3953 44.277 51.4792 46.1495 48.8712C46.4957 48.39 46.5748 47.8669 46.3857 47.3165C45.6578 45.202 41.0802 42.9589 37.3667 41.4495C33.4246 39.85 29.6023 38.7148 29.405 38.6566V38.6566Z" fill="#861A3F"/>
<path d="M41.6162 44.015C41.6162 44.015 39.8561 53.6565 29.4994 57.1575C29.4994 57.1575 40.861 58.0711 46.4318 48.3807L41.6162 44.015Z" fill="#FFDDE8"/>
<path d="M12.3929 48.6946L11.2932 47.6554C11.3636 47.5815 13.0435 45.8114 15.6636 43.7597C19.1991 40.9895 22.5943 39.1345 25.7556 38.243L26.1664 39.6977C19.0565 41.7046 12.4587 48.6247 12.3929 48.6946Z" fill="#861A3F"/>
<path d="M32.8496 38.9125C32.8496 40.1577 29.4056 41.1666 29.4056 41.1666C29.4056 41.1666 25.9609 40.1577 25.9609 38.9125C25.9609 37.6673 27.5029 36.6577 29.4056 36.6577C31.3083 36.6577 32.8496 37.6673 32.8496 38.9125Z" fill="#E20613"/>
<path d="M29.4052 41.9551L29.1922 41.8928C28.5654 41.7017 27.9527 41.4668 27.3587 41.1899C25.9093 40.5033 25.2058 39.7579 25.2058 38.9125C25.2058 37.2251 27.0509 35.9013 29.4069 35.9013C31.763 35.9013 33.6075 37.2239 33.6075 38.9125C33.6075 39.7579 32.9029 40.5033 31.4546 41.1899C30.8606 41.4669 30.248 41.7018 29.6211 41.8928L29.4052 41.9551ZM26.7169 38.9037C26.7309 38.941 26.8956 39.3111 28.0948 39.8644C28.5219 40.0583 28.9594 40.2285 29.4052 40.3741C29.8508 40.2284 30.2881 40.0582 30.715 39.8644C31.9142 39.3116 32.0795 38.941 32.0929 38.9037C32.0859 38.1962 30.9803 37.4142 29.4052 37.4142C27.8301 37.4142 26.7257 38.1962 26.7169 38.9037V38.9037Z" fill="#861A3F"/>
<path d="M25.7694 50.6537C23.9738 50.6537 22.3649 49.4109 21.7231 47.5018L21.4124 46.5754C21.3808 46.4812 21.368 46.3818 21.3748 46.2826C21.3816 46.1835 21.4079 46.0867 21.4521 45.9978C21.4964 45.9088 21.5577 45.8294 21.6326 45.7642C21.7075 45.6989 21.7945 45.649 21.8887 45.6174C22.0789 45.5535 22.2867 45.5678 22.4663 45.6571C22.5553 45.7013 22.6347 45.7626 22.6999 45.8375C22.7652 45.9124 22.8151 45.9995 22.8467 46.0936L23.1569 47.0171C23.6049 48.349 24.7046 49.1991 25.8998 49.1351L27.0525 49.0775C27.9479 49.0286 28.6491 48.129 28.6491 47.0299V41.167C28.6491 40.9663 28.7288 40.7739 28.8706 40.6321C29.0125 40.4902 29.2049 40.4105 29.4055 40.4105C29.6061 40.4105 29.7985 40.4902 29.9404 40.6321C30.0823 40.7739 30.1619 40.9663 30.1619 41.167V47.027C30.1619 48.9297 28.8324 50.4926 27.1362 50.5851L25.9818 50.6485C25.9108 50.6514 25.8398 50.6537 25.7694 50.6537Z" fill="#861A3F"/>
<path d="M33.041 50.6537C32.9706 50.6537 32.8996 50.6537 32.8287 50.6479L31.6754 50.5851C29.9787 50.4926 28.6497 48.9297 28.6497 47.027V41.167C28.6497 40.9663 28.7294 40.7739 28.8712 40.6321C29.0131 40.4902 29.2055 40.4105 29.4061 40.4105C29.6067 40.4105 29.7991 40.4902 29.941 40.6321C30.0828 40.7739 30.1625 40.9663 30.1625 41.167V47.027C30.1625 48.1261 30.8637 49.0257 31.7586 49.0746L32.9107 49.1356C34.1047 49.2002 35.2056 48.3495 35.6536 47.0176L35.9644 46.0942C36.032 45.9091 36.1693 45.7576 36.347 45.6722C36.5246 45.5867 36.7286 45.574 36.9155 45.6368C37.1024 45.6995 37.2574 45.8327 37.3476 46.008C37.4377 46.1833 37.4558 46.3869 37.3981 46.5754L37.0903 47.5018C36.4456 49.4109 34.8367 50.6537 33.041 50.6537Z" fill="#861A3F"/>
<path d="M36.9978 21.2587C36.8484 21.2587 36.7022 21.2143 36.5779 21.1313C36.4536 21.0482 36.3567 20.9302 36.2994 20.7921C36.2421 20.654 36.2271 20.5021 36.2561 20.3554C36.2851 20.2088 36.357 20.074 36.4625 19.9681L55.8195 0.545353C55.889 0.472373 55.9724 0.414019 56.0648 0.373718C56.1571 0.333417 56.2566 0.311982 56.3574 0.310672C56.4582 0.309362 56.5582 0.328203 56.6516 0.366089C56.745 0.403974 56.8299 0.460141 56.9012 0.531289C56.9726 0.602437 57.0291 0.687132 57.0673 0.780399C57.1054 0.873666 57.1246 0.973624 57.1236 1.0744C57.1226 1.17518 57.1015 1.27475 57.0615 1.36725C57.0215 1.45976 56.9635 1.54334 56.8907 1.61308L37.5337 21.0359C37.4635 21.1065 37.38 21.1625 37.288 21.2007C37.1961 21.239 37.0974 21.2587 36.9978 21.2587V21.2587Z" fill="#861A3F"/>
<path d="M46.1201 12.1048C45.938 12.1045 45.7622 12.0385 45.6248 11.919C45.4875 11.7995 45.3979 11.6345 45.3724 11.4542L44.1033 2.46322C44.0873 2.36389 44.0912 2.26235 44.1149 2.16455C44.1385 2.06676 44.1815 1.97466 44.2412 1.89367C44.3009 1.81267 44.3761 1.7444 44.4625 1.69286C44.549 1.64131 44.6448 1.60752 44.7444 1.59347C44.8441 1.57942 44.9455 1.58539 45.0428 1.61103C45.1401 1.63667 45.2313 1.68146 45.3111 1.74278C45.3908 1.80411 45.4576 1.88073 45.5074 1.96817C45.5572 2.05561 45.589 2.1521 45.601 2.252L46.8701 11.2424C46.884 11.3409 46.8783 11.4411 46.8535 11.5373C46.8286 11.6335 46.785 11.7239 46.7252 11.8033C46.6654 11.8827 46.5905 11.9495 46.5048 11.9999C46.4192 12.0504 46.3244 12.0834 46.226 12.0972C46.1909 12.1023 46.1555 12.1048 46.1201 12.1048V12.1048Z" fill="#861A3F"/>
<path d="M45.3102 6.35821C45.1589 6.35856 45.011 6.31354 44.8855 6.22895C44.7601 6.14435 44.6629 6.02409 44.6065 5.88368C44.5501 5.74328 44.5371 5.58919 44.5692 5.44133C44.6013 5.29347 44.677 5.15863 44.7865 5.05424L47.6307 2.34272C47.7021 2.27156 47.7869 2.21537 47.8803 2.17744C47.9736 2.13952 48.0736 2.12063 48.1744 2.12188C48.2751 2.12314 48.3746 2.14451 48.467 2.18475C48.5594 2.22498 48.6428 2.28327 48.7123 2.35619C48.7819 2.42911 48.8361 2.51518 48.872 2.60937C48.9078 2.70355 48.9244 2.80394 48.9209 2.90464C48.9174 3.00535 48.8938 3.10433 48.8515 3.19579C48.8092 3.28724 48.7491 3.36933 48.6746 3.43722L45.8304 6.14874C45.6903 6.28263 45.504 6.35761 45.3102 6.35821Z" fill="#861A3F"/>
<path d="M50.0708 15.4121H42.8242C42.6236 15.4121 42.4312 15.3324 42.2893 15.1906C42.1474 15.0487 42.0677 14.8563 42.0677 14.6557C42.0677 14.4551 42.1474 14.2627 42.2893 14.1208C42.4312 13.979 42.6236 13.8993 42.8242 13.8993H49.7543L56.7745 6.77894C56.9154 6.63604 57.1073 6.55497 57.308 6.55355C57.5087 6.55213 57.7017 6.63048 57.8446 6.77138C57.9875 6.91227 58.0686 7.10417 58.07 7.30484C58.0714 7.50552 57.993 7.69853 57.8521 7.84144L50.609 15.1869C50.5387 15.2582 50.4549 15.3148 50.3625 15.3535C50.2701 15.3922 50.171 15.4121 50.0708 15.4121V15.4121Z" fill="#861A3F"/>
<path d="M22.0015 21.2587C21.9019 21.2586 21.8033 21.2389 21.7113 21.2007C21.6194 21.1624 21.5359 21.1064 21.4656 21.0358L2.10858 1.61301C1.97228 1.4699 1.8974 1.27912 1.89997 1.0815C1.90254 0.883873 1.98235 0.695105 2.12233 0.555581C2.26231 0.416057 2.45134 0.33686 2.64897 0.334936C2.8466 0.333012 3.03713 0.408513 3.1798 0.545285L22.5368 19.9681C22.6424 20.0739 22.7142 20.2087 22.7433 20.3553C22.7723 20.502 22.7572 20.654 22.6999 20.792C22.6427 20.9301 22.5458 21.0482 22.4215 21.1312C22.2971 21.2142 22.151 21.2586 22.0015 21.2587V21.2587Z" fill="#861A3F"/>
<path d="M12.8794 12.1048C12.8438 12.1049 12.8082 12.1023 12.773 12.0972C12.6745 12.0835 12.5797 12.0505 12.4939 12.0001C12.4082 11.9497 12.3333 11.8829 12.2734 11.8035C12.2135 11.7241 12.1699 11.6337 12.1449 11.5374C12.12 11.4412 12.1144 11.3409 12.1283 11.2425L13.3985 2.252C13.4105 2.1521 13.4424 2.05561 13.4922 1.96817C13.5419 1.88073 13.6087 1.80411 13.6885 1.74278C13.7682 1.68146 13.8594 1.63667 13.9567 1.61103C14.054 1.58539 14.1555 1.57942 14.2551 1.59347C14.3547 1.60752 14.4506 1.64131 14.537 1.69286C14.6234 1.7444 14.6987 1.81267 14.7584 1.89367C14.8181 1.97466 14.861 2.06676 14.8847 2.16455C14.9084 2.26235 14.9123 2.36389 14.8962 2.46322L13.6277 11.4543C13.6022 11.6346 13.5125 11.7997 13.375 11.9192C13.2376 12.0387 13.0616 12.1046 12.8794 12.1048V12.1048Z" fill="#861A3F"/>
<path d="M13.6889 6.35821C13.4938 6.35851 13.3062 6.28346 13.1652 6.14874L10.3239 3.43722C10.2495 3.36933 10.1893 3.28724 10.147 3.19579C10.1047 3.10433 10.0811 3.00535 10.0776 2.90464C10.0741 2.80394 10.0907 2.70355 10.1266 2.60937C10.1624 2.51518 10.2166 2.42911 10.2862 2.35619C10.3557 2.28327 10.4391 2.22498 10.5315 2.18475C10.6239 2.14451 10.7234 2.12314 10.8242 2.12188C10.9249 2.12063 11.0249 2.13952 11.1183 2.17744C11.2116 2.21537 11.2965 2.27156 11.3678 2.34272L14.212 5.05424C14.3215 5.15863 14.3972 5.29347 14.4293 5.44133C14.4614 5.58919 14.4484 5.74328 14.392 5.88368C14.3356 6.02409 14.2384 6.14435 14.113 6.22895C13.9875 6.31354 13.8396 6.35856 13.6883 6.35821H13.6889Z" fill="#861A3F"/>
<path d="M16.1745 15.4121H8.9279C8.82774 15.4121 8.72859 15.3922 8.6362 15.3535C8.54381 15.3148 8.46001 15.2582 8.38967 15.1869L1.14656 7.84144C1.00567 7.69853 0.927311 7.50552 0.92873 7.30484C0.930148 7.10417 1.01123 6.91227 1.15413 6.77138C1.29703 6.63048 1.49005 6.55213 1.69072 6.55355C1.8914 6.55497 2.08329 6.63604 2.22419 6.77894L9.24443 13.8993H16.1745C16.3751 13.8993 16.5675 13.979 16.7094 14.1208C16.8512 14.2627 16.9309 14.4551 16.9309 14.6557C16.9309 14.8563 16.8512 15.0487 16.7094 15.1906C16.5675 15.3324 16.3751 15.4121 16.1745 15.4121V15.4121Z" fill="#861A3F"/>
<path d="M56.5668 24.0436C56.4286 24.0434 56.2932 24.0054 56.1752 23.9337C52.1952 21.5189 47.3092 20.9661 43.9111 20.9271C40.204 20.8841 37.4377 21.4258 37.4098 21.431C37.3117 21.452 37.2105 21.4532 37.112 21.4347C37.0134 21.4162 36.9195 21.3783 36.8358 21.3231C36.752 21.268 36.6801 21.1968 36.6241 21.1136C36.5681 21.0304 36.5292 20.9369 36.5097 20.8385C36.4902 20.7402 36.4904 20.6389 36.5104 20.5407C36.5304 20.4424 36.5697 20.3491 36.626 20.2661C36.6824 20.1832 36.7547 20.1123 36.8387 20.0576C36.9227 20.0028 37.0167 19.9653 37.1154 19.9472C37.2318 19.924 40.0649 19.37 43.9279 19.4143C46.2013 19.4404 48.3583 19.6697 50.3407 20.0968C52.8387 20.6356 55.0661 21.4933 56.9601 22.6402C57.1015 22.7258 57.2109 22.8553 57.2717 23.0091C57.3325 23.1628 57.3413 23.3322 57.2966 23.4913C57.252 23.6505 57.1565 23.7907 57.0247 23.8904C56.8929 23.9901 56.732 24.044 56.5668 24.0436V24.0436Z" fill="#861A3F"/>
<path d="M45.6574 29.154C44.1935 29.154 43.2055 28.9922 43.1426 28.9794C43.0437 28.9641 42.9488 28.9293 42.8634 28.8769C42.7781 28.8246 42.7039 28.7559 42.6453 28.6747C42.5867 28.5936 42.5448 28.5016 42.522 28.4041C42.4993 28.3066 42.4961 28.2056 42.5126 28.1069C42.5292 28.0081 42.5652 27.9137 42.6185 27.8289C42.6718 27.7442 42.7415 27.6709 42.8233 27.6133C42.9052 27.5557 42.9977 27.5149 43.0955 27.4933C43.1932 27.4717 43.2943 27.4698 43.3928 27.4875V27.4875C43.4149 27.491 45.6423 27.8518 48.3096 27.441C51.7938 26.9051 54.3575 25.3707 55.9286 22.8809C55.9816 22.7968 56.0506 22.724 56.1317 22.6667C56.2128 22.6093 56.3045 22.5685 56.4014 22.5465C56.4983 22.5245 56.5986 22.5219 56.6965 22.5387C56.7944 22.5554 56.8881 22.5914 56.9722 22.6444C57.0562 22.6973 57.129 22.7664 57.1864 22.8475C57.2438 22.9286 57.2846 23.0203 57.3066 23.1172C57.3285 23.2141 57.3312 23.3143 57.3144 23.4123C57.2976 23.5102 57.2617 23.6039 57.2087 23.6879C55.4107 26.5385 52.3972 28.3557 48.4952 28.9445C47.5558 29.085 46.6073 29.155 45.6574 29.154V29.154Z" fill="#861A3F"/>
<path d="M42.7922 27.1351C42.5912 27.1351 42.388 27.1328 42.1824 27.1282C41.9818 27.1234 41.7913 27.0391 41.6528 26.8939C41.5143 26.7486 41.4392 26.5543 41.444 26.3537C41.4488 26.1531 41.5331 25.9626 41.6783 25.8241C41.8235 25.6856 42.0178 25.6105 42.2185 25.6153C46.309 25.7125 48.4811 24.7338 49.5169 24.0111C44.8351 22.7664 40.2948 23.8947 40.2453 23.9075C40.1486 23.9336 40.0477 23.9401 39.9484 23.9269C39.8491 23.9136 39.7534 23.8808 39.6669 23.8302C39.5804 23.7797 39.5048 23.7124 39.4445 23.6324C39.3842 23.5524 39.3404 23.4613 39.3156 23.3642C39.2908 23.2671 39.2856 23.1661 39.3002 23.067C39.3148 22.9679 39.3489 22.8726 39.4006 22.7868C39.4523 22.701 39.5205 22.6263 39.6013 22.5671C39.6821 22.5078 39.7738 22.4652 39.8712 22.4418C40.1074 22.3836 45.7213 20.9871 51.2252 22.9596C51.3314 22.9976 51.4276 23.0589 51.5071 23.1389C51.5865 23.2189 51.647 23.3157 51.6842 23.4221C51.7214 23.5285 51.7343 23.6419 51.7221 23.754C51.7098 23.8661 51.6727 23.974 51.6133 24.0698C51.5551 24.1612 51.0192 24.984 49.5611 25.7532C47.823 26.6714 45.5479 27.1351 42.7922 27.1351Z" fill="#861A3F"/>
<path d="M2.19179 24.0437C2.0265 24.044 1.86564 23.9902 1.73383 23.8904C1.60202 23.7907 1.50651 23.6505 1.4619 23.4914C1.4173 23.3322 1.42605 23.1628 1.48683 23.0091C1.5476 22.8554 1.65706 22.7258 1.79844 22.6402C3.69126 21.491 5.91982 20.6357 8.41837 20.0969C10.4002 19.6698 12.5572 19.4405 14.8306 19.4143C18.6924 19.3689 21.525 19.924 21.6431 19.9473C21.7417 19.9654 21.8358 20.0029 21.9198 20.0576C22.0038 20.1124 22.0761 20.1833 22.1324 20.2662C22.1888 20.3491 22.2281 20.4425 22.2481 20.5407C22.268 20.639 22.2683 20.7402 22.2488 20.8386C22.2292 20.9369 22.1904 21.0304 22.1344 21.1136C22.0784 21.1968 22.0065 21.2681 21.9227 21.3232C21.8389 21.3783 21.7451 21.4163 21.6465 21.4348C21.548 21.4533 21.4467 21.452 21.3487 21.4311V21.4311C21.3207 21.4258 18.5237 20.883 14.8137 20.9278C11.426 20.9697 6.55406 21.5248 2.58339 23.9337C2.46543 24.0056 2.32994 24.0437 2.19179 24.0437Z" fill="#861A3F"/>
<path d="M13.1016 29.1542C12.1526 29.155 11.2048 29.085 10.2662 28.9447C6.36182 28.3559 3.34831 26.5387 1.55091 23.6905C1.44389 23.5207 1.40869 23.3154 1.45305 23.1197C1.4974 22.924 1.61769 22.7539 1.78744 22.6469C1.9572 22.5399 2.16251 22.5047 2.35822 22.5491C2.55393 22.5934 2.72401 22.7137 2.83103 22.8834C4.40208 25.3732 6.9658 26.9076 10.4535 27.4435C13.1202 27.8543 15.3476 27.4935 15.3698 27.49C15.566 27.4606 15.766 27.5094 15.9266 27.6259C16.0871 27.7425 16.1955 27.9175 16.2282 28.1132C16.261 28.309 16.2155 28.5097 16.1016 28.6722C15.9877 28.8347 15.8145 28.946 15.6194 28.9819C15.5536 28.9924 14.5656 29.1542 13.1016 29.1542Z" fill="#861A3F"/>
<path d="M15.9681 27.1352C13.2123 27.1352 10.9378 26.6697 9.1992 25.7532C7.74452 24.984 7.20397 24.1612 7.14753 24.0699C7.0881 23.9743 7.05074 23.8667 7.03818 23.7549C7.02561 23.643 7.03816 23.5298 7.07489 23.4234C7.11163 23.3171 7.17164 23.2202 7.25054 23.14C7.32944 23.0598 7.42524 22.9982 7.53098 22.9596C13.0349 20.9871 18.6487 22.3813 18.885 22.4418C19.076 22.4944 19.2387 22.6198 19.3383 22.7911C19.4378 22.9624 19.4661 23.1659 19.4172 23.3579C19.3683 23.5499 19.246 23.715 19.0766 23.8178C18.9072 23.9205 18.7043 23.9528 18.5114 23.9075C18.4532 23.893 13.9042 22.7723 9.23818 24.0122C9.49118 24.1882 9.75685 24.3451 10.033 24.4818C11.1502 25.0433 13.1867 25.6962 16.5406 25.6153C16.7413 25.6104 16.9356 25.6855 17.0809 25.8239C17.2262 25.9623 17.3105 26.1528 17.3154 26.3534C17.3203 26.554 17.2452 26.7484 17.1068 26.8937C16.9684 27.039 16.7779 27.1233 16.5773 27.1282C16.3705 27.1328 16.1675 27.1352 15.9681 27.1352Z" fill="#861A3F"/>
<path d="M37.5796 35.7489C38.2684 35.0602 38.1936 33.8687 37.4126 33.0877C36.6316 32.3067 35.4401 32.2319 34.7514 32.9206C34.0626 33.6094 34.1374 34.8009 34.9184 35.5819C35.6994 36.3629 36.8909 36.4377 37.5796 35.7489Z" fill="black"/>
<path d="M36.4021 36.9744C35.672 36.9603 34.9733 36.6749 34.4421 36.1739C33.9109 35.6729 33.5851 34.9921 33.5283 34.2641C33.5012 33.92 33.5486 33.574 33.6673 33.2499C33.7859 32.9258 33.9731 32.631 34.2161 32.3858C34.7048 31.897 35.3722 31.6532 36.0943 31.6986C36.7938 31.7544 37.4505 32.0575 37.9467 32.5537C38.4429 33.0498 38.746 33.7066 38.8018 34.406C38.8289 34.7502 38.7815 35.0961 38.6628 35.4202C38.5441 35.7444 38.3569 36.0391 38.114 36.2843V36.2843C37.8884 36.5068 37.621 36.6824 37.3272 36.8008C37.0333 36.9193 36.7189 36.9783 36.4021 36.9744ZM35.9262 33.2056C35.8083 33.2028 35.691 33.2235 35.5811 33.2663C35.4713 33.3092 35.371 33.3734 35.2861 33.4553C35.196 33.5494 35.1273 33.6619 35.0846 33.785C35.0419 33.9081 35.0263 34.0389 35.0388 34.1686C35.0658 34.502 35.2133 34.8142 35.4537 35.0467C35.9384 35.5314 36.6523 35.6064 37.0451 35.2137C37.135 35.1194 37.2036 35.0069 37.2462 34.8839C37.2889 34.7608 37.3046 34.63 37.2924 34.5003C37.2601 34.1684 37.1135 33.8581 36.8776 33.6223C36.6418 33.3866 36.3314 33.2401 35.9995 33.208C35.9751 33.2062 35.9512 33.2056 35.9262 33.2056Z" fill="black"/>
<path d="M23.3765 35.582C24.1575 34.801 24.2323 33.6095 23.5436 32.9208C22.8548 32.232 21.6634 32.3068 20.8824 33.0878C20.1014 33.8688 20.0266 35.0603 20.7153 35.749C21.4041 36.4378 22.5955 36.363 23.3765 35.582Z" fill="black"/>
<path d="M21.892 36.9744C21.5753 36.9782 21.261 36.9192 20.9673 36.8007C20.6735 36.6823 20.4062 36.5068 20.1807 36.2843V36.2843C19.1979 35.3016 19.273 33.6281 20.3477 32.5534C21.4224 31.4787 23.0965 31.4036 24.0787 32.3858C25.0609 33.368 24.9864 35.042 23.9111 36.1168C23.3782 36.6587 22.6521 36.9672 21.892 36.9744V36.9744ZM21.2519 35.2143C21.6447 35.607 22.3575 35.532 22.8434 35.0473C23.3292 34.5626 23.4031 33.848 23.0109 33.4559C22.6188 33.0637 21.9054 33.1382 21.4195 33.6229C20.9337 34.1076 20.8563 34.8215 21.2502 35.2137L21.2519 35.2143Z" fill="black"/>
<path d="M46.3867 49.0313C46.371 49.0133 44.8029 47.1414 42.3212 45.0531C40.0548 43.1457 36.5386 40.6588 32.6587 39.6417L33.0416 38.1777C37.2072 39.2693 40.9311 41.9005 43.3197 43.9161C45.8962 46.0882 47.483 47.984 47.5493 48.0637L46.3867 49.0313Z" fill="#861A3F"/>
<path d="M31.366 19.6458C31.366 19.6458 39.5918 29.4131 41.512 37.7152C41.512 37.7152 42.1765 40.6362 42.0525 42.8665L46.6708 47.099C46.6708 47.099 48.3 40.1887 46.5148 36.6608C44.7297 33.133 41.8134 22.8461 36.0069 20.1712L31.366 19.6458Z" fill="#9B2A39"/>
<path d="M29.4058 58.6781C24.3255 58.6781 19.5408 57.2019 15.9332 54.5212C14.1573 53.2021 12.7603 51.6602 11.7804 49.9396C10.7546 48.1358 10.2344 46.2197 10.2344 44.2373C10.2344 41.0859 11.4633 36.3175 13.4416 31.7923C15.7767 26.4536 18.8228 22.2019 22.0201 19.8221C24.1085 18.2673 26.6751 18.2941 28.9415 18.3179C29.2173 18.3179 29.4785 18.3232 29.7386 18.3232C32.4682 18.3232 35.5608 18.4593 37.7201 20.0851C39.3918 21.3431 40.9704 23.0957 42.4135 25.294C43.679 27.2223 44.8166 29.4532 45.7947 31.9232C47.5118 36.2605 48.579 40.98 48.579 44.239C48.579 46.2174 48.0588 48.1376 47.0324 49.9414C46.0513 51.6596 44.6548 53.2016 42.8778 54.5207C39.2702 57.2013 34.4861 58.6781 29.4058 58.6781ZM28.0768 19.8244C26.2253 19.8244 24.3784 19.9507 22.922 21.0353C19.9335 23.2609 17.0591 27.2968 14.8276 32.3997C12.9564 36.6835 11.7472 41.3274 11.7472 44.239C11.7472 51.3663 19.6688 57.1647 29.4058 57.1647C39.1428 57.1647 47.0644 51.3663 47.0644 44.239C47.0644 41.2046 46.0129 36.5886 44.3878 32.48C42.3937 27.444 39.7025 23.471 36.8095 21.2936C35.0232 19.9489 32.2226 19.836 29.738 19.836C29.4698 19.836 29.1928 19.836 28.9234 19.8302C28.6424 19.8273 28.3625 19.8244 28.0768 19.8244Z" fill="#861A3F"/>
<path d="M37.6204 34.258C37.8638 33.9951 37.7654 33.5081 37.4005 33.1704C37.0357 32.8327 36.5427 32.7721 36.2992 33.0351C36.0558 33.298 36.1543 33.7849 36.5191 34.1227C36.8839 34.4604 37.377 34.521 37.6204 34.258Z" fill="#FFEAE8"/>
<path d="M35.9088 36.1263C36.0347 35.9902 35.9837 35.7381 35.7948 35.5632C35.6059 35.3883 35.3507 35.3569 35.2248 35.493C35.0988 35.6291 35.1498 35.8811 35.3387 36.056C35.5276 36.2309 35.7828 36.2623 35.9088 36.1263Z" fill="#FFEAE8"/>
<path d="M23.9596 34.0497C24.203 33.7867 24.1046 33.2998 23.7398 32.9621C23.3749 32.6244 22.8819 32.5638 22.6385 32.8268C22.3951 33.0897 22.4935 33.5766 22.8583 33.9143C23.2231 34.252 23.7162 34.3126 23.9596 34.0497Z" fill="#FFEAE8"/>
<path d="M31.4392 38.6775C31.5181 38.4234 31.0963 38.0665 30.4969 37.8802C29.8976 37.694 29.3477 37.7491 29.2688 38.0032C29.1899 38.2573 29.6117 38.6142 30.211 38.8004C30.8104 38.9867 31.3602 38.9316 31.4392 38.6775Z" fill="#FFEAE8"/>
<path d="M22.2493 35.9182C22.3753 35.7821 22.3242 35.5301 22.1353 35.3552C21.9464 35.1804 21.6912 35.1489 21.5652 35.285C21.4393 35.4211 21.4903 35.6731 21.6792 35.848C21.8681 36.0229 22.1233 36.0543 22.2493 35.9182Z" fill="#FFEAE8"/>
</svg>
