<svg width="48" height="48" viewBox="0 0 48 48" fill="none" xmlns="http://www.w3.org/2000/svg">
<path d="M17.6045 17.8772C17.6045 17.8772 8.98454 16.7303 4.62793 19.5371C4.62793 19.5371 6.26977 23.7321 14.2267 22.5552C14.2259 22.5552 15.9627 18.9922 17.6045 17.8772Z" fill="#B73F39"/>
<path d="M30.8536 17.8772C30.8536 17.8772 39.474 16.7303 43.8302 19.5371C43.8302 19.5371 42.1879 23.7321 34.231 22.5552C34.2323 22.5552 32.4959 18.9922 30.8536 17.8772Z" fill="#B73F39"/>
<path d="M33.6763 21.0836C33.6763 21.0836 36.9655 21.5563 38.7896 19.8973C38.7896 19.8973 35.1982 18.7964 32.5844 19.7636L33.6763 21.0836Z" fill="#E883A0"/>
<path d="M14.5148 21.1183C14.5148 21.1183 10.8457 21.591 8.81027 19.932C8.81027 19.932 12.8158 18.8307 15.7308 19.7983L14.5148 21.1183Z" fill="#E883A0"/>
<path d="M37.5292 34.8843C37.5292 40.4642 31.4405 44.988 23.9304 44.988C16.4203 44.988 10.3316 40.4642 10.3316 34.8843C10.3316 30.6119 13.6974 21.1072 18.8085 17.3014C20.373 16.1365 22.4149 16.305 24.1749 16.305C25.9061 16.305 28.2299 16.3621 29.7329 17.4935C34.7499 21.2696 37.5292 30.5904 37.5292 34.8843Z" fill="#B73F39"/>
<path d="M23.9304 45.5469C20.1788 45.5469 16.6455 44.4568 13.9814 42.4772C12.67 41.5031 11.6383 40.3645 10.9147 39.0939C10.1572 37.7618 9.77306 36.3469 9.77306 34.8829C9.77306 32.5557 10.6806 29.0345 12.1415 25.6928C13.8658 21.7504 16.1152 18.6107 18.4764 16.8532C20.0185 15.7051 21.9139 15.7249 23.5875 15.7425C23.7912 15.7425 23.9841 15.7464 24.1762 15.7464C26.1919 15.7464 28.4757 15.8469 30.0702 17.0474C31.3047 17.9764 32.4705 19.2707 33.5361 20.894C34.4707 22.318 35.3107 23.9654 36.033 25.7894C37.301 28.9923 38.0891 32.4775 38.0891 34.8842C38.0891 36.3452 37.7049 37.7631 36.9469 39.0952C36.2225 40.364 35.1912 41.5027 33.879 42.4768C31.2149 44.4564 27.682 45.5469 23.9304 45.5469ZM22.949 16.8549C21.5817 16.8549 20.2179 16.9482 19.1424 17.7491C16.9355 19.3927 14.8129 22.373 13.165 26.1414C11.7831 29.3047 10.8902 32.7341 10.8902 34.8842C10.8902 40.1475 16.74 44.4293 23.9304 44.4293C31.1208 44.4293 36.9706 40.1475 36.9706 34.8842C36.9706 32.6434 36.1941 29.2347 34.994 26.2007C33.5215 22.4817 31.5342 19.5478 29.3978 17.9399C28.0786 16.9469 26.0105 16.8635 24.1758 16.8635C23.9777 16.8635 23.7731 16.8635 23.5742 16.8592C23.3667 16.8571 23.16 16.8549 22.949 16.8549Z" fill="#861A3F"/>
<path d="M36.3126 38.3197C33.8763 41.7142 30.2918 44.4406 23.5766 44.4406C16.8615 44.4406 12.3661 40.2726 11.5097 38.0661C10.0544 34.3201 23.9303 30.7395 23.9303 30.7395C23.9303 30.7395 38.6565 35.0557 36.3126 38.3197Z" fill="#FFEAE8"/>
<path d="M23.5765 44.4619C19.8331 44.4619 17.0281 43.1767 15.3343 42.0987C14.3696 41.4846 13.4918 40.761 12.7961 40.0074C12.1774 39.3362 11.7133 38.6496 11.4899 38.0738C11.318 37.6278 11.3524 37.1616 11.5951 36.6881C12.4476 35.0265 15.7558 33.492 18.3812 32.4969C21.2227 31.4201 23.8979 30.7257 23.9242 30.7189H23.9302H23.9358C23.9645 30.7274 26.8495 31.5782 29.8255 32.7869C33.825 34.4129 36.0736 35.8807 36.5093 37.1452C36.6541 37.5655 36.5952 37.9647 36.3297 38.332L36.3121 38.3196L36.3297 38.332C34.9426 40.2635 33.382 41.6836 31.5601 42.6719C29.3369 43.8763 26.7262 44.4619 23.5765 44.4619ZM23.9297 30.7618C23.7892 30.7983 21.172 31.485 18.3958 32.5373C15.7777 33.5294 12.4794 35.0587 11.6334 36.7052C11.3962 37.168 11.3614 37.6222 11.5298 38.0557C12.1262 39.5923 13.9644 41.1731 15.3575 42.06C17.0461 43.1342 19.8434 44.4168 23.5765 44.4168C26.7184 44.4168 29.3228 43.8329 31.5387 42.6315C33.3562 41.6458 34.9121 40.2308 36.2949 38.305C36.5505 37.9496 36.609 37.5633 36.4693 37.1568C35.9318 35.5954 32.5514 33.9389 29.8092 32.8243C26.898 31.6431 24.0754 30.8048 23.9297 30.7618Z" fill="#861A3F"/>
<path d="M32.9473 34.7188C32.9473 34.7188 31.6475 41.8386 23.9995 44.4241C23.9995 44.4241 32.3896 45.0987 36.5034 37.9427L32.9473 34.7188Z" fill="#FFDDE8"/>
<path d="M11.367 38.1745L10.5549 37.4071C10.6069 37.3525 11.8474 36.0454 13.7823 34.5303C16.3931 32.4846 18.9003 31.1147 21.2348 30.4564L21.5382 31.5307C16.2878 33.0126 11.4156 38.1229 11.367 38.1745Z" fill="#861A3F"/>
<path d="M26.4735 30.9508C26.4735 31.8703 23.9302 32.6154 23.9302 32.6154C23.9302 32.6154 21.3864 31.8703 21.3864 30.9508C21.3864 30.0312 22.5251 29.2857 23.9302 29.2857C25.3352 29.2857 26.4735 30.0312 26.4735 30.9508Z" fill="#E20613"/>
<path d="M23.9299 33.1976L23.7727 33.1516C23.3098 33.0105 22.8573 32.837 22.4187 32.6326C21.3484 32.1255 20.8289 31.5751 20.8289 30.9508C20.8289 29.7047 22.1914 28.7271 23.9312 28.7271C25.6711 28.7271 27.0332 29.7038 27.0332 30.9508C27.0332 31.5751 26.5128 32.1255 25.4433 32.6326C25.0047 32.8371 24.5523 33.0106 24.0894 33.1516L23.9299 33.1976ZM21.9448 30.9443C21.9551 30.9718 22.0767 31.2451 22.9623 31.6537C23.2777 31.7969 23.6007 31.9226 23.9299 32.0301C24.259 31.9225 24.5819 31.7968 24.8972 31.6537C25.7828 31.2455 25.9048 30.9718 25.9147 30.9443C25.9095 30.4218 25.0931 29.8443 23.9299 29.8443C22.7668 29.8443 21.9512 30.4218 21.9448 30.9443Z" fill="#861A3F"/>
<path d="M21.245 39.6212C19.919 39.6212 18.7309 38.7034 18.2569 37.2936L18.0275 36.6096C18.0041 36.54 17.9947 36.4665 17.9997 36.3934C18.0048 36.3202 18.0242 36.2487 18.0568 36.183C18.0895 36.1173 18.1348 36.0587 18.1901 36.0105C18.2454 35.9623 18.3096 35.9254 18.3792 35.9021C18.5196 35.8549 18.6731 35.8654 18.8058 35.9314C18.8715 35.9641 18.9301 36.0093 18.9783 36.0647C19.0265 36.12 19.0633 36.1842 19.0867 36.2538L19.3157 36.9357C19.6465 37.9193 20.4587 38.547 21.3412 38.4998L22.1924 38.4572C22.8537 38.4211 23.3715 37.7568 23.3715 36.9451V32.6156C23.3715 32.4675 23.4303 32.3254 23.5351 32.2206C23.6399 32.1159 23.7819 32.057 23.9301 32.057C24.0782 32.057 24.2203 32.1159 24.3251 32.2206C24.4298 32.3254 24.4887 32.4675 24.4887 32.6156V36.943C24.4887 38.3481 23.5068 39.5022 22.2543 39.5705L21.4018 39.6174C21.3494 39.6195 21.297 39.6212 21.245 39.6212Z" fill="#861A3F"/>
<path d="M26.6149 39.6212C26.5629 39.6212 26.5105 39.6212 26.4581 39.6169L25.6064 39.5705C24.3534 39.5022 23.372 38.3481 23.372 36.943V32.6156C23.372 32.4675 23.4309 32.3254 23.5356 32.2206C23.6404 32.1159 23.7825 32.057 23.9306 32.057C24.0788 32.057 24.2209 32.1159 24.3256 32.2206C24.4304 32.3254 24.4892 32.4675 24.4892 32.6156V36.943C24.4892 37.7547 25.007 38.419 25.6679 38.4551L26.5187 38.5002C27.4004 38.5479 28.2133 37.9197 28.5442 36.9361L28.7737 36.2542C28.8236 36.1175 28.925 36.0057 29.0562 35.9426C29.1874 35.8795 29.338 35.8701 29.4761 35.9164C29.6141 35.9627 29.7285 36.0611 29.7951 36.1906C29.8617 36.32 29.875 36.4704 29.8324 36.6096L29.6051 37.2936C29.129 38.7034 27.9409 39.6212 26.6149 39.6212Z" fill="#861A3F"/>
<path d="M29.5369 17.9142C29.4265 17.9141 29.3185 17.8814 29.2268 17.82C29.135 17.7587 29.0634 17.6716 29.0211 17.5696C28.9788 17.4676 28.9677 17.3554 28.9891 17.2471C29.0105 17.1388 29.0636 17.0393 29.1415 16.9611L43.4359 2.61813C43.4872 2.56424 43.5488 2.52114 43.617 2.49138C43.6853 2.46162 43.7587 2.44579 43.8331 2.44483C43.9076 2.44386 43.9814 2.45777 44.0504 2.48575C44.1194 2.51373 44.182 2.5552 44.2347 2.60774C44.2875 2.66028 44.3291 2.72283 44.3573 2.7917C44.3855 2.86057 44.3997 2.93439 44.399 3.00881C44.3982 3.08323 44.3827 3.15676 44.3531 3.22507C44.3236 3.29338 44.2807 3.3551 44.227 3.40661L29.9326 17.7496C29.8807 17.8017 29.8191 17.8431 29.7511 17.8713C29.6832 17.8996 29.6104 17.9141 29.5369 17.9142Z" fill="#861A3F"/>
<path d="M36.2732 11.1543C36.1388 11.1541 36.009 11.1054 35.9075 11.0171C35.8061 10.9289 35.7399 10.807 35.7211 10.6739L34.784 4.0344C34.7721 3.96105 34.775 3.88607 34.7925 3.81385C34.8099 3.74163 34.8417 3.67362 34.8857 3.61381C34.9298 3.554 34.9854 3.50359 35.0492 3.46552C35.113 3.42746 35.1838 3.40251 35.2574 3.39213C35.331 3.38175 35.4059 3.38616 35.4777 3.40509C35.5496 3.42403 35.6169 3.4571 35.6758 3.50239C35.7347 3.54768 35.784 3.60426 35.8208 3.66883C35.8576 3.7334 35.8811 3.80466 35.89 3.87843L36.8271 10.5175C36.8374 10.5902 36.8332 10.6642 36.8148 10.7353C36.7965 10.8063 36.7643 10.8731 36.7201 10.9317C36.6759 10.9903 36.6206 11.0397 36.5574 11.0769C36.4941 11.1141 36.4241 11.1386 36.3515 11.1487C36.3256 11.1525 36.2994 11.1544 36.2732 11.1543Z" fill="#861A3F"/>
<path d="M35.6752 6.91069C35.5635 6.91095 35.4542 6.8777 35.3616 6.81524C35.2689 6.75277 35.1972 6.66396 35.1555 6.56027C35.1139 6.45659 35.1043 6.3428 35.128 6.23361C35.1517 6.12442 35.2076 6.02485 35.2885 5.94776L37.3888 3.94541C37.4415 3.89286 37.5041 3.85136 37.5731 3.82336C37.642 3.79535 37.7158 3.7814 37.7902 3.78233C37.8647 3.78326 37.9381 3.79904 38.0063 3.82875C38.0746 3.85846 38.1362 3.90151 38.1875 3.95535C38.2389 4.0092 38.279 4.07276 38.3054 4.14232C38.3319 4.21187 38.3441 4.286 38.3416 4.36037C38.339 4.43473 38.3215 4.50783 38.2903 4.57537C38.2591 4.6429 38.2146 4.70352 38.1597 4.75365L36.0593 6.756C35.9558 6.85488 35.8183 6.91025 35.6752 6.91069Z" fill="#861A3F"/>
<path d="M39.1906 13.5967H33.8393C33.6911 13.5967 33.5491 13.5378 33.4443 13.4331C33.3396 13.3283 33.2807 13.1862 33.2807 13.0381C33.2807 12.8899 33.3396 12.7478 33.4443 12.6431C33.5491 12.5383 33.6911 12.4795 33.8393 12.4795H38.9569L44.1411 7.2214C44.2451 7.11588 44.3868 7.056 44.535 7.05496C44.6832 7.05391 44.8258 7.11177 44.9313 7.21582C45.0368 7.31986 45.0967 7.46157 45.0977 7.60976C45.0988 7.75795 45.0409 7.90049 44.9369 8.00601L39.5881 13.4304C39.5362 13.483 39.4743 13.5248 39.4061 13.5534C39.3378 13.5819 39.2646 13.5966 39.1906 13.5967Z" fill="#861A3F"/>
<path d="M18.4626 17.9141C18.3891 17.9141 18.3162 17.8995 18.2483 17.8713C18.1804 17.843 18.1188 17.8017 18.0669 17.7495L3.77245 3.40656C3.67179 3.30087 3.6165 3.15999 3.61839 3.01405C3.62029 2.86811 3.67923 2.72872 3.7826 2.62568C3.88597 2.52265 4.02556 2.46417 4.1715 2.46275C4.31745 2.46132 4.45815 2.51708 4.5635 2.61808L18.8579 16.9611C18.9359 17.0392 18.9889 17.1387 19.0104 17.247C19.0318 17.3553 19.0207 17.4676 18.9784 17.5695C18.9361 17.6715 18.8645 17.7587 18.7727 17.82C18.6809 17.8813 18.573 17.9141 18.4626 17.9141Z" fill="#861A3F"/>
<path d="M11.7264 11.1543C11.7001 11.1544 11.6738 11.1525 11.6477 11.1487C11.575 11.1386 11.505 11.1143 11.4417 11.077C11.3784 11.0398 11.323 10.9905 11.2788 10.9319C11.2346 10.8732 11.2024 10.8065 11.184 10.7354C11.1656 10.6643 11.1614 10.5903 11.1716 10.5175L12.1096 3.87843C12.1185 3.80466 12.1421 3.7334 12.1788 3.66883C12.2156 3.60426 12.2649 3.54768 12.3238 3.50239C12.3827 3.4571 12.45 3.42403 12.5219 3.40509C12.5938 3.38616 12.6687 3.38175 12.7422 3.39213C12.8158 3.40251 12.8866 3.42746 12.9504 3.46552C13.0142 3.50359 13.0698 3.554 13.1139 3.61381C13.158 3.67363 13.1897 3.74163 13.2072 3.81385C13.2246 3.88607 13.2275 3.96105 13.2157 4.0344L12.2789 10.6739C12.2601 10.8071 12.1939 10.929 12.0923 11.0173C11.9908 11.1056 11.8609 11.1542 11.7264 11.1543Z" fill="#861A3F"/>
<path d="M12.324 6.91069C12.1799 6.91091 12.0414 6.85549 11.9372 6.756L9.83908 4.75365C9.78409 4.70352 9.73968 4.6429 9.70844 4.57537C9.67721 4.50783 9.65978 4.43473 9.65719 4.36037C9.65459 4.286 9.66688 4.21187 9.69333 4.14232C9.71978 4.07276 9.75986 4.0092 9.81122 3.95535C9.86257 3.90151 9.92417 3.85846 9.99239 3.82875C10.0606 3.79904 10.1341 3.78326 10.2085 3.78233C10.2829 3.7814 10.3567 3.79535 10.4257 3.82336C10.4946 3.85136 10.5573 3.89286 10.6099 3.94541L12.7102 5.94776C12.7911 6.02485 12.847 6.12442 12.8707 6.23361C12.8944 6.3428 12.8848 6.45659 12.8432 6.56027C12.8015 6.66396 12.7298 6.75277 12.6371 6.81524C12.5445 6.8777 12.4353 6.91095 12.3235 6.91069H12.324Z" fill="#861A3F"/>
<path d="M14.1596 13.5967H8.80823C8.73427 13.5966 8.66105 13.5819 8.59282 13.5534C8.52459 13.5248 8.46271 13.483 8.41077 13.4304L3.06201 8.00601C2.95797 7.90049 2.9001 7.75795 2.90115 7.60976C2.9022 7.46157 2.96207 7.31986 3.0676 7.21582C3.17313 7.11177 3.31566 7.05391 3.46386 7.05496C3.61205 7.056 3.75375 7.11588 3.8578 7.2214L9.04198 12.4795H14.1596C14.3077 12.4795 14.4498 12.5383 14.5546 12.6431C14.6593 12.7478 14.7182 12.8899 14.7182 13.0381C14.7182 13.1862 14.6593 13.3283 14.5546 13.4331C14.4498 13.5378 14.3077 13.5967 14.1596 13.5967Z" fill="#861A3F"/>
<path d="M43.9877 19.9707C43.8857 19.9705 43.7857 19.9424 43.6985 19.8895C40.7594 18.1063 37.1513 17.6981 34.6419 17.6693C31.9044 17.6375 29.8616 18.0375 29.841 18.0414C29.7686 18.0569 29.6938 18.0578 29.621 18.0441C29.5483 18.0304 29.4789 18.0024 29.4171 17.9617C29.3552 17.921 29.3021 17.8684 29.2608 17.807C29.2194 17.7455 29.1907 17.6765 29.1763 17.6038C29.1619 17.5312 29.1621 17.4564 29.1768 17.3839C29.1916 17.3113 29.2206 17.2424 29.2622 17.1812C29.3038 17.1199 29.3572 17.0676 29.4192 17.0271C29.4813 16.9867 29.5507 16.959 29.6236 16.9457C29.7095 16.9285 31.8017 16.5194 34.6544 16.5521C36.3332 16.5714 37.926 16.7407 39.39 17.0561C41.2346 17.454 42.8795 18.0874 44.2781 18.9343C44.3825 18.9975 44.4634 19.0932 44.5083 19.2067C44.5531 19.3202 44.5596 19.4453 44.5267 19.5628C44.4937 19.6804 44.4232 19.7839 44.3258 19.8575C44.2285 19.9312 44.1097 19.9709 43.9877 19.9707Z" fill="#861A3F"/>
<path d="M35.9316 23.7445C34.8505 23.7445 34.1209 23.625 34.0745 23.6156C34.0014 23.6043 33.9314 23.5785 33.8683 23.5399C33.8053 23.5013 33.7505 23.4505 33.7073 23.3906C33.664 23.3306 33.633 23.2627 33.6162 23.1907C33.5994 23.1187 33.597 23.0441 33.6093 22.9712C33.6215 22.8983 33.6481 22.8286 33.6875 22.766C33.7268 22.7034 33.7783 22.6493 33.8387 22.6068C33.8992 22.5642 33.9675 22.5341 34.0397 22.5182C34.1119 22.5022 34.1865 22.5008 34.2593 22.5139C34.2756 22.5165 35.9204 22.7829 37.8901 22.4795C40.4631 22.0838 42.3563 20.9507 43.5164 19.112C43.5556 19.05 43.6065 18.9962 43.6664 18.9538C43.7264 18.9115 43.794 18.8813 43.8656 18.8651C43.9371 18.8489 44.0112 18.8469 44.0835 18.8593C44.1558 18.8717 44.225 18.8982 44.2871 18.9374C44.3491 18.9765 44.4029 19.0275 44.4453 19.0874C44.4876 19.1473 44.5178 19.215 44.534 19.2865C44.5502 19.3581 44.5522 19.4321 44.5398 19.5045C44.5274 19.5768 44.5009 19.6459 44.4617 19.708C43.134 21.8131 40.9087 23.155 38.0272 23.5898C37.3335 23.6935 36.633 23.7452 35.9316 23.7445Z" fill="#861A3F"/>
<path d="M33.8157 22.2537C33.6673 22.2537 33.5172 22.2519 33.3654 22.2485C33.2173 22.245 33.0766 22.1827 32.9743 22.0755C32.8721 21.9682 32.8166 21.8247 32.8201 21.6766C32.8237 21.5284 32.8859 21.3878 32.9932 21.2855C33.1004 21.1832 33.2439 21.1278 33.392 21.1313C36.4128 21.2031 38.0168 20.4803 38.7816 19.9467C35.3244 19.0275 31.9715 19.8607 31.935 19.8702C31.8635 19.8894 31.789 19.8943 31.7157 19.8845C31.6423 19.8747 31.5717 19.8504 31.5078 19.8131C31.4439 19.7758 31.3881 19.7261 31.3436 19.6671C31.2991 19.608 31.2667 19.5406 31.2484 19.469C31.2301 19.3973 31.2262 19.3227 31.237 19.2495C31.2478 19.1763 31.273 19.106 31.3111 19.0426C31.3493 18.9792 31.3997 18.9241 31.4593 18.8803C31.519 18.8366 31.5868 18.8051 31.6587 18.7878C31.8331 18.7448 35.9788 17.7135 40.0432 19.1702C40.1216 19.1983 40.1927 19.2435 40.2513 19.3026C40.31 19.3617 40.3546 19.4332 40.3821 19.5117C40.4096 19.5903 40.4191 19.6741 40.4101 19.7568C40.401 19.8396 40.3736 19.9193 40.3298 19.99C40.2868 20.0575 39.8911 20.6651 38.8143 21.2331C37.5308 21.9112 35.8507 22.2537 33.8157 22.2537Z" fill="#861A3F"/>
<path d="M3.83389 19.9707C3.71182 19.971 3.59304 19.9312 3.4957 19.8576C3.39837 19.7839 3.32784 19.6804 3.2949 19.5629C3.26195 19.4454 3.26842 19.3203 3.3133 19.2067C3.35818 19.0932 3.43901 18.9976 3.54342 18.9343C4.94119 18.0857 6.5869 17.454 8.43198 17.0562C9.89549 16.7408 11.4883 16.5715 13.1671 16.5521C16.019 16.5186 18.1107 16.9285 18.1979 16.9457C18.2708 16.9591 18.3402 16.9868 18.4023 17.0272C18.4643 17.0676 18.5177 17.12 18.5593 17.1812C18.6009 17.2425 18.6299 17.3114 18.6447 17.3839C18.6594 17.4565 18.6596 17.5313 18.6452 17.6039C18.6308 17.6765 18.6021 17.7456 18.5607 17.807C18.5194 17.8684 18.4663 17.9211 18.4044 17.9618C18.3426 18.0025 18.2732 18.0305 18.2005 18.0442C18.1277 18.0578 18.0529 18.0569 17.9805 18.0414C17.9599 18.0376 15.8944 17.6367 13.1547 17.6698C10.653 17.7007 7.05526 18.1106 4.12307 19.8895C4.03596 19.9426 3.93591 19.9707 3.83389 19.9707Z" fill="#861A3F"/>
<path d="M11.8903 23.7446C11.1895 23.7453 10.4896 23.6935 9.79645 23.5899C6.91324 23.1551 4.68788 21.8132 3.36057 19.7099C3.28154 19.5845 3.25554 19.4329 3.2883 19.2884C3.32106 19.1439 3.40988 19.0183 3.53524 18.9393C3.6606 18.8602 3.81221 18.8342 3.95674 18.867C4.10126 18.8998 4.22685 18.9886 4.30589 19.1139C5.46605 20.9525 7.35926 22.0856 9.93481 22.4814C11.9041 22.7847 13.5489 22.5183 13.5653 22.5157C13.7102 22.494 13.8578 22.53 13.9764 22.6161C14.095 22.7022 14.175 22.8314 14.1992 22.9759C14.2234 23.1205 14.1898 23.2687 14.1057 23.3887C14.0216 23.5087 13.8937 23.5909 13.7496 23.6174C13.701 23.6252 12.9714 23.7446 11.8903 23.7446Z" fill="#861A3F"/>
<path d="M14.0071 22.2537C11.9721 22.2537 10.2925 21.9099 9.00855 21.2331C7.93433 20.6651 7.53515 20.0575 7.49347 19.99C7.44958 19.9195 7.422 19.84 7.41272 19.7574C7.40344 19.6749 7.4127 19.5912 7.43983 19.5127C7.46696 19.4341 7.51127 19.3626 7.56954 19.3034C7.6278 19.2441 7.69855 19.1986 7.77663 19.1702C11.841 17.7135 15.9867 18.7431 16.1611 18.7878C16.3022 18.8266 16.4224 18.9192 16.4959 19.0457C16.5693 19.1722 16.5903 19.3225 16.5541 19.4643C16.518 19.6061 16.4277 19.728 16.3026 19.8039C16.1776 19.8798 16.0277 19.9036 15.8853 19.8702C15.8423 19.8594 12.483 19.0318 9.03734 19.9475C9.22417 20.0774 9.42036 20.1933 9.62429 20.2943C10.4493 20.7089 11.9532 21.191 14.4299 21.1313C14.5781 21.1277 14.7216 21.1831 14.8289 21.2853C14.9362 21.3876 14.9985 21.5282 15.002 21.6764C15.0056 21.8245 14.9502 21.968 14.848 22.0753C14.7458 22.1826 14.6051 22.2449 14.457 22.2485C14.3043 22.2519 14.1543 22.2537 14.0071 22.2537Z" fill="#861A3F"/>
<path d="M29.9665 28.6146C30.4751 28.106 30.4198 27.2261 29.8431 26.6494C29.2664 26.0726 28.3865 26.0174 27.8779 26.526C27.3693 27.0346 27.4245 27.9145 28.0013 28.4912C28.578 29.068 29.4578 29.1232 29.9665 28.6146Z" fill="black"/>
<path d="M29.0969 29.5196C28.5577 29.5092 28.0418 29.2985 27.6495 28.9285C27.2572 28.5585 27.0166 28.0557 26.9746 27.5181C26.9546 27.264 26.9896 27.0086 27.0773 26.7692C27.1649 26.5298 27.3031 26.3122 27.4825 26.1311C27.8435 25.7701 28.3363 25.5901 28.8696 25.6236C29.3861 25.6648 29.8711 25.8886 30.2375 26.2551C30.6039 26.6215 30.8277 27.1064 30.8689 27.623C30.8889 27.8771 30.8539 28.1325 30.7663 28.3719C30.6786 28.6113 30.5404 28.8289 30.361 29.01C30.1944 29.1743 29.997 29.3039 29.78 29.3914C29.563 29.4789 29.3308 29.5225 29.0969 29.5196ZM28.7454 26.7365C28.6583 26.7344 28.5717 26.7497 28.4906 26.7813C28.4095 26.813 28.3354 26.8604 28.2727 26.9208C28.2062 26.9904 28.1554 27.0734 28.1239 27.1643C28.0924 27.2552 28.0809 27.3519 28.0901 27.4476C28.11 27.6938 28.2189 27.9244 28.3965 28.0961C28.7544 28.454 29.2816 28.5094 29.5717 28.2194C29.638 28.1497 29.6887 28.0667 29.7202 27.9758C29.7517 27.8849 29.7633 27.7883 29.7543 27.6926C29.7304 27.4475 29.6222 27.2183 29.448 27.0442C29.2738 26.8701 29.0446 26.762 28.7995 26.7382C28.7815 26.7369 28.7639 26.7365 28.7454 26.7365Z" fill="black"/>
<path d="M19.4781 28.4913C20.0548 27.9146 20.11 27.0347 19.6014 26.5261C19.0928 26.0175 18.213 26.0727 17.6362 26.6495C17.0595 27.2262 17.0043 28.1061 17.5129 28.6147C18.0215 29.1233 18.9013 29.0681 19.4781 28.4913Z" fill="black"/>
<path d="M18.3817 29.5196C18.1479 29.5224 17.9158 29.4788 17.6988 29.3913C17.4819 29.3039 17.2845 29.1743 17.118 29.01C16.3923 28.2843 16.4477 27.0485 17.2413 26.2548C18.035 25.4612 19.2712 25.4058 19.9965 26.1311C20.7218 26.8564 20.6668 28.0926 19.8727 28.8863C19.4792 29.2865 18.943 29.5142 18.3817 29.5196ZM17.9091 28.2198C18.1991 28.5099 18.7255 28.4544 19.0843 28.0965C19.4431 27.7386 19.4976 27.2109 19.208 26.9213C18.9184 26.6317 18.3916 26.6867 18.0328 27.0446C17.674 27.4025 17.6169 27.9298 17.9078 28.2194L17.9091 28.2198Z" fill="black"/>
<path d="M36.4701 38.4232C36.4585 38.4098 35.3005 37.0275 33.4679 35.4854C31.7943 34.0769 29.1976 32.2404 26.3325 31.4893L26.6152 30.4082C29.6914 31.2143 32.4414 33.1573 34.2052 34.6458C36.1079 36.2498 37.2796 37.6497 37.3286 37.7086L36.4701 38.4232Z" fill="#861A3F"/>
<path d="M25.3779 16.7231C25.3779 16.7231 31.4523 23.9358 32.8703 30.0666C32.8703 30.0666 33.361 32.2237 33.2695 33.8706L36.6799 36.9962C36.6799 36.9962 37.883 31.8932 36.5647 29.288C35.2465 26.6828 33.0929 19.0864 28.805 17.1111L25.3779 16.7231Z" fill="#9B2A39"/>
<path d="M23.9304 45.5469C20.1788 45.5469 16.6455 44.4568 13.9814 42.4772C12.67 41.5031 11.6383 40.3645 10.9147 39.0939C10.1572 37.7618 9.77306 36.3469 9.77306 34.8829C9.77306 32.5557 10.6806 29.0345 12.1415 25.6928C13.8658 21.7504 16.1152 18.6107 18.4764 16.8532C20.0185 15.7051 21.9139 15.7249 23.5875 15.7425C23.7912 15.7425 23.9841 15.7464 24.1762 15.7464C26.1919 15.7464 28.4757 15.8469 30.0702 17.0474C31.3047 17.9764 32.4705 19.2707 33.5361 20.894C34.4707 22.318 35.3107 23.9654 36.033 25.7894C37.301 28.9923 38.0891 32.4775 38.0891 34.8842C38.0891 36.3452 37.7049 37.7631 36.9469 39.0952C36.2225 40.364 35.1912 41.5027 33.879 42.4768C31.2149 44.4564 27.682 45.5469 23.9304 45.5469ZM22.949 16.8549C21.5817 16.8549 20.2179 16.9482 19.1424 17.7491C16.9355 19.3927 14.8129 22.373 13.165 26.1414C11.7831 29.3047 10.8902 32.7341 10.8902 34.8842C10.8902 40.1475 16.74 44.4293 23.9304 44.4293C31.1208 44.4293 36.9706 40.1475 36.9706 34.8842C36.9706 32.6434 36.1941 29.2347 34.994 26.2007C33.5215 22.4817 31.5342 19.5478 29.3978 17.9399C28.0786 16.9469 26.0105 16.8635 24.1758 16.8635C23.9777 16.8635 23.7731 16.8635 23.5742 16.8592C23.3667 16.8571 23.16 16.8549 22.949 16.8549Z" fill="#861A3F"/>
<path d="M29.9965 27.5136C30.1763 27.3195 30.1036 26.9599 29.8342 26.7105C29.5648 26.4611 29.2007 26.4164 29.0209 26.6105C28.8412 26.8047 28.9138 27.1643 29.1833 27.4137C29.4527 27.6631 29.8168 27.7078 29.9965 27.5136Z" fill="#FFEAE8"/>
<path d="M28.7326 28.8933C28.8256 28.7928 28.7879 28.6066 28.6484 28.4775C28.5089 28.3484 28.3205 28.3251 28.2275 28.4256C28.1345 28.5261 28.1721 28.7123 28.3116 28.8414C28.4511 28.9706 28.6396 28.9938 28.7326 28.8933Z" fill="#FFEAE8"/>
<path d="M19.9086 27.3598C20.0884 27.1656 20.0157 26.806 19.7463 26.5567C19.4769 26.3073 19.1128 26.2625 18.933 26.4567C18.7533 26.6509 18.826 27.0104 19.0954 27.2598C19.3648 27.5092 19.7289 27.5539 19.9086 27.3598Z" fill="#FFEAE8"/>
<path d="M25.4319 30.7772C25.4902 30.5896 25.1787 30.326 24.7361 30.1885C24.2935 30.051 23.8875 30.0916 23.8292 30.2793C23.7709 30.4669 24.0824 30.7305 24.525 30.868C24.9676 31.0055 25.3736 30.9649 25.4319 30.7772Z" fill="#FFEAE8"/>
<path d="M18.6455 28.7396C18.7385 28.6391 18.7008 28.453 18.5613 28.3239C18.4219 28.1947 18.2334 28.1715 18.1403 28.272C18.0473 28.3725 18.085 28.5586 18.2245 28.6878C18.364 28.8169 18.5525 28.8401 18.6455 28.7396Z" fill="#FFEAE8"/>
</svg>
