<svg width="47" height="59" viewBox="0 0 47 59" fill="none" xmlns="http://www.w3.org/2000/svg">
<path d="M33.0964 21.2638C33.0964 21.2638 23.04 19.2168 19.0047 19.5252C14.9695 19.8336 9.02393 20.0337 6.50502 21.3069C5.86496 21.631 6.33046 22.7452 6.33046 23.4871C6.3305 24.2754 6.39923 25.0621 6.53586 25.8385C7.36777 25.4036 8.33394 25.3014 9.23842 25.5526C10.1429 25.8038 10.918 26.3896 11.4065 27.1912C11.895 27.9928 12.0604 28.9502 11.869 29.8692C11.6777 30.7882 11.144 31.6001 10.3762 32.1401L15.2476 36.0491C16.6214 36.5204 18.2931 36.9842 19.8275 36.9842C21.3741 36.9842 23.0231 36.528 24.4074 36.0491L31.4584 30.341C32.685 28.2648 33.3302 25.8968 33.3262 23.4854C33.3262 22.9117 33.1662 21.8172 33.0964 21.2638ZM12.3237 25.0849C12.1657 25.0851 12.0111 25.0383 11.8797 24.9506C11.7482 24.8629 11.6457 24.7381 11.5852 24.5922C11.5246 24.4462 11.5087 24.2855 11.5395 24.1305C11.5703 23.9755 11.6463 23.8331 11.758 23.7213C11.8697 23.6095 12.0121 23.5334 12.167 23.5025C12.322 23.4716 12.4827 23.4874 12.6287 23.5479C12.7747 23.6083 12.8995 23.7107 12.9873 23.8421C13.0752 23.9735 13.122 24.128 13.122 24.286C13.1219 24.3909 13.1011 24.4946 13.0608 24.5914C13.0205 24.6882 12.9616 24.7762 12.8874 24.8502C12.8131 24.9242 12.725 24.9829 12.6281 25.0229C12.5312 25.0628 12.4274 25.0833 12.3225 25.0832L12.3237 25.0849ZM27.177 25.0849C27.019 25.0849 26.8646 25.0381 26.7332 24.9503C26.6018 24.8625 26.4994 24.7377 26.439 24.5918C26.3785 24.4458 26.3627 24.2851 26.3935 24.1302C26.4243 23.9752 26.5004 23.8328 26.6121 23.7211C26.7239 23.6094 26.8662 23.5333 27.0212 23.5025C27.1762 23.4716 27.3368 23.4875 27.4828 23.5479C27.6288 23.6084 27.7535 23.7108 27.8413 23.8422C27.9291 23.9736 27.9759 24.128 27.9759 24.286C27.9755 24.4978 27.891 24.7007 27.7409 24.8502C27.5909 24.9997 27.3877 25.0835 27.1759 25.0832L27.177 25.0849Z" fill="#FFEAE8"/>
<path d="M12.323 25.0833C12.7642 25.0833 13.1219 24.7257 13.1219 24.2844C13.1219 23.8432 12.7642 23.4855 12.323 23.4855C11.8817 23.4855 11.524 23.8432 11.524 24.2844C11.524 24.7257 11.8817 25.0833 12.323 25.0833Z" fill="#FFEAE8"/>
<path d="M27.1762 25.0833C27.6175 25.0833 27.9751 24.7257 27.9751 24.2844C27.9751 23.8432 27.6175 23.4855 27.1762 23.4855C26.735 23.4855 26.3773 23.8432 26.3773 24.2844C26.3773 24.7257 26.735 25.0833 27.1762 25.0833Z" fill="#FFEAE8"/>
<path opacity="0.6" d="M11.9188 28.6081C11.9188 26.5652 10.2972 25.4137 8.25306 25.4137C7.6535 25.4131 7.06286 25.5589 6.53247 25.8385C6.81808 27.4636 7.40139 29.0219 8.25306 30.4352L9.93582 29.4984C10.8901 28.831 11.9188 29.8603 11.9188 28.6081Z" fill="#FE5B4A"/>
<path opacity="0.6" d="M27.5243 28.7769C27.5243 26.7339 29.1652 25.4137 31.2075 25.4137C31.8071 25.4132 32.3977 25.559 32.9281 25.8385C32.642 27.4634 32.0587 29.0217 31.2075 30.4352L29.4037 29.4984C28.4495 28.831 27.5243 28.7769 27.5243 28.7769Z" fill="#FE5B4A"/>
<path d="M36.9793 33.4039C31.9752 32.3391 26.9374 26.887 24.408 26.887C23.8066 26.887 23.211 27.0054 22.6554 27.2356C22.0997 27.4657 21.5948 27.8031 21.1695 28.2284C20.7443 28.6537 20.4069 29.1586 20.1767 29.7142C19.9466 30.2699 19.8281 30.8654 19.8281 31.4669C19.8281 33.9962 21.9746 35.3561 24.408 36.0468C28.5608 37.2274 39.8548 34.016 36.9793 33.4039Z" fill="#EEEEEE"/>
<path d="M26.7267 37.0617C25.8114 37.0617 24.9299 36.9837 24.2014 36.7772C19.9613 35.5739 19.0717 33.2278 19.0717 31.4694C19.0732 30.0546 19.6359 28.6982 20.6363 27.6977C21.6367 26.6973 22.9932 26.1346 24.408 26.1331C25.8085 26.1331 27.5204 27.3009 29.6878 28.7794C31.9845 30.3464 34.5866 32.1217 37.1357 32.6645C37.9829 32.8443 38.1156 33.2877 38.1592 33.4332C38.2081 33.5949 38.2756 34.0151 37.8683 34.427C37.0735 35.2346 34.1647 36.04 31.9152 36.4845C30.858 36.6946 28.7138 37.0617 26.7267 37.0617ZM24.408 27.6459C23.3943 27.647 22.4224 28.0502 21.7056 28.767C20.9888 29.4838 20.5856 30.4557 20.5845 31.4694C20.5845 33.2668 21.9403 34.5626 24.6145 35.3214C25.9976 35.7141 28.6172 35.5942 31.6208 35.0013C33.4054 34.6487 34.8659 34.2175 35.7823 33.8678C33.3152 33.0858 30.9528 31.4729 28.8354 30.0275C27.1177 28.8574 25.3419 27.6459 24.408 27.6459Z" fill="black"/>
<path d="M15.2482 26.8895C12.7182 26.8895 7.68391 32.3393 2.67635 33.4064C-0.199249 34.0185 11.0948 37.2299 15.2482 36.0516C17.6816 35.3609 19.8281 34.0011 19.8281 31.4717C19.8284 30.8701 19.7102 30.2743 19.4801 29.7184C19.2501 29.1624 18.9128 28.6573 18.4875 28.2318C18.0622 27.8062 17.5572 27.4687 17.0014 27.2384C16.4456 27.0081 15.8498 26.8895 15.2482 26.8895Z" fill="#EEEEEE"/>
<path d="M12.9296 37.0617C10.942 37.0617 8.79837 36.6946 7.73704 36.4845C5.4887 36.04 2.57935 35.2346 1.78394 34.427C1.37663 34.0151 1.44704 33.5949 1.493 33.4332C1.66757 32.8443 2.30762 32.7088 2.51651 32.6645C5.06684 32.1217 7.66954 30.3464 9.96444 28.7794C12.1319 27.3009 13.8438 26.1331 15.2449 26.1331C16.6597 26.1346 18.0161 26.6973 19.0165 27.6977C20.017 28.6982 20.5797 30.0546 20.5812 31.4694C20.5812 33.2266 19.691 35.5739 15.4509 36.7772C14.7265 36.9837 13.8443 37.0617 12.9296 37.0617ZM3.87343 33.8678C4.78987 34.217 6.25037 34.6487 8.03496 35.0013C11.0391 35.5942 13.6581 35.7141 15.0418 35.3214C17.7155 34.5649 19.0718 33.2668 19.0718 31.4694C19.0708 30.4557 18.6676 29.4838 17.9508 28.767C17.234 28.0502 16.2621 27.647 15.2484 27.6459C14.3145 27.6459 12.538 28.8574 10.8204 30.0316C8.70469 31.4729 6.34056 33.0858 3.87343 33.8678Z" fill="black"/>
<path d="M18.4144 29.3419C18.4144 29.3419 16.198 35.3933 3.88159 33.8636C3.88159 33.8636 7.54329 35.7867 14.2389 35.4928C14.2412 35.4917 21.1753 34.5199 18.4144 29.3419Z" fill="#DADADA"/>
<path d="M21.1035 29.3419C21.1035 29.3419 23.3199 35.3933 35.6362 33.8636C35.6362 33.8636 31.9746 35.7867 25.279 35.4928C25.2767 35.4917 18.3426 34.5199 21.1035 29.3419Z" fill="#DADADA"/>
<path d="M20.0001 58.1329C11.4013 56.1092 6.50079 40.4517 6.50079 40.4517L3.5158 42.7931C2.28864 37.3631 5.23697 35.1124 5.23697 35.1124C5.23697 35.1124 12.5947 36.6544 15.2486 36.0521C15.2486 36.0521 19.9885 37.9322 23.8201 36.0521C23.8201 36.0521 30.4819 36.8668 34.3455 35.2497C34.3455 35.2497 37.366 37.366 36.1412 42.7978L33.1585 40.4546C33.1585 40.4546 28.2551 56.1121 19.6592 58.1358" fill="#E7E7E7"/>
<path d="M34.0634 32.3514C38.6212 31.0713 37.973 28.0456 37.973 28.0456C34.9373 27.9392 33.3267 22.9328 33.3267 22.9328C33.3267 22.9328 32.3206 29.2937 31.648 30.3411C30.9753 31.3884 34.0634 32.3514 34.0634 32.3514Z" fill="#F3F3F3"/>
<path d="M5.3145 32.3514C0.756138 31.0713 1.40434 28.0456 1.40434 28.0456C4.43995 27.9392 6.05056 22.9328 6.05056 22.9328C6.05056 22.9328 7.06011 29.2937 7.72984 30.3411C8.39957 31.3884 5.3145 32.3514 5.3145 32.3514Z" fill="#F3F3F3"/>
<path d="M4.59888 19.4514C4.59888 19.4514 8.61376 23.2505 12.4809 19.4514C12.4809 19.4514 11.2007 18.599 10.5991 17.5696" fill="white"/>
<path d="M19.8282 18.599C19.8282 18.599 17.9482 22.1141 12.481 19.4514Z" fill="white"/>
<path d="M28.6352 17.5696C28.6352 17.5696 25.4576 22.1524 19.0046 19.5235Z" fill="white"/>
<path d="M34.5641 19.7708C34.5641 19.7708 29.9208 23.5338 26.7042 19.2733Z" fill="white"/>
<path d="M6.06339 20.4494C4.11705 23.9406 2.21317 19.5248 2.21317 19.5248C2.21317 19.5248 0.659006 13.4867 6.90652 15.0136" fill="white"/>
<path d="M14.2561 12.4923C14.2561 12.4923 12.6228 9.33571 9.03791 10.5757C5.45302 11.8156 5.23889 14.7651 5.23889 14.7651" fill="white"/>
<path d="M21.4634 12.1017C21.4634 12.1017 21.4634 8.62269 18.8362 8.33815C18.8362 8.33815 14.5886 7.86858 13.6244 11.6362" fill="white"/>
<path d="M28.9903 14.9798C28.9903 14.9798 30.5457 10.7904 27.1761 9.61851C23.8065 8.44663 21.1194 10.2877 21.1194 10.2877" fill="white"/>
<path d="M33.3266 17.3921C33.3266 17.3921 35.6651 15.2619 33.8543 12.7768C32.0436 10.2916 29.2407 11.8725 29.2407 11.8725" fill="white"/>
<path d="M32.6718 20.8438C35.0045 24.047 36.5167 20.4481 36.5167 20.4481C36.5167 20.4481 38.9839 17.1024 34.2888 15.9678" fill="white"/>
<path d="M3.21381 16.6733C3.93824 16.3719 5.83223 15.7866 8.12886 16.6524C8.15865 16.6637 8.19127 16.6653 8.22201 16.6569C8.25275 16.6485 8.28001 16.6305 8.29984 16.6055C8.31967 16.5806 8.33105 16.55 8.33232 16.5181C8.33359 16.4863 8.32469 16.4548 8.30691 16.4284C7.95139 15.8989 7.19845 15.0168 6.11327 14.9807C4.03774 14.912 3.28015 15.9169 3.02122 16.4703C3.00795 16.4976 3.00333 16.5284 3.00799 16.5584C3.01264 16.5885 3.02634 16.6164 3.04726 16.6384C3.06819 16.6605 3.09533 16.6757 3.12509 16.6819C3.15485 16.6881 3.1858 16.6851 3.21381 16.6733V16.6733Z" fill="#DADADA"/>
<path d="M5.628 14.7342C6.98492 13.9446 10.2306 9.9861 14.8402 14.6795C15.0444 14.8866 15.3272 14.4118 15.1736 14.0924C14.5067 12.7029 13.0969 10.3893 11.0621 10.2945C7.17228 10.1135 5.75136 12.7506 5.26608 14.2018C5.15669 14.5294 5.38944 14.8733 5.628 14.7342Z" fill="#DADADA"/>
<path d="M14.5582 11.3476C15.6096 10.9694 18.4759 8.52548 20.7906 12.7301C20.893 12.9163 21.1647 12.6068 21.1158 12.3449C20.9023 11.2079 20.3431 9.26854 18.985 8.88333C16.3881 8.14784 14.98 9.89056 14.4051 10.8949C14.2748 11.1218 14.3737 11.4139 14.5582 11.3476Z" fill="#DADADA"/>
<path d="M22.057 11.0142C23.2981 11.0671 27.2257 9.77655 28.0188 15.0017C28.0543 15.2345 28.4564 15.0314 28.5059 14.7457C28.7212 13.5034 28.8858 11.3045 27.6185 10.3509C25.1956 8.52729 23.0566 9.7108 22.071 10.4917C21.8481 10.668 21.8394 11.0049 22.057 11.0142Z" fill="#DADADA"/>
<path d="M29.8397 12.3317C30.6631 12.8286 33.7866 13.411 32.4628 17.2589C32.4046 17.4288 32.7491 17.4416 32.8841 17.2653C33.4723 16.5007 34.3678 15.067 33.8482 13.9487C32.8544 11.8086 30.9825 11.8184 30.0358 11.9831C29.8217 12.0192 29.6943 12.245 29.8397 12.3317Z" fill="#DADADA"/>
<path d="M33.9786 16.7835C34.4982 17.4107 36.8676 18.7618 34.6146 21.4198C34.5145 21.5362 34.792 21.6456 34.9561 21.5461C35.6689 21.1114 36.8361 20.2363 36.7541 19.2046C36.5964 17.2327 35.0667 16.7026 34.2445 16.5635C34.0583 16.5321 33.8872 16.6741 33.9786 16.7835Z" fill="#DADADA"/>
<path d="M36.0883 21.1951C39.4433 21.8537 42.6052 25.0831 42.6052 25.0831C42.6052 25.0831 48.8097 5.46831 30.1433 1.5756C8.89523 -2.85708 3.76489 14.9795 3.76489 14.9795C3.76489 14.9795 5.27019 11.1503 9.03721 10.5771C12.8042 10.004 13.6247 11.6379 13.6247 11.6379C13.6247 11.6379 13.1167 8.29968 18.8365 8.33983C18.8365 8.33983 20.7764 8.47133 21.1197 10.2873C21.1197 10.2873 27.4336 5.69058 29.2409 11.8741C29.2409 11.8741 35.0595 10.0563 34.2891 15.9705C34.2891 15.9705 37.3445 15.7895 37.4429 17.5712C37.5412 19.3529 36.0883 21.1951 36.0883 21.1951Z" fill="#E20613"/>
<path d="M43.0322 29.9576C44.3116 29.9576 45.3487 28.9205 45.3487 27.6411C45.3487 26.3618 44.3116 25.3247 43.0322 25.3247C41.7529 25.3247 40.7158 26.3618 40.7158 27.6411C40.7158 28.9205 41.7529 29.9576 43.0322 29.9576Z" fill="white"/>
<path d="M43.032 30.7141C42.424 30.7145 41.8296 30.5346 41.3238 30.1972C40.8181 29.8597 40.4238 29.3798 40.1909 28.8182C39.9579 28.2566 39.8967 27.6386 40.0151 27.0422C40.1335 26.4458 40.4261 25.898 40.8559 25.468C41.2856 25.0379 41.8333 24.745 42.4296 24.6263C43.0259 24.5076 43.644 24.5684 44.2057 24.801C44.7674 25.0337 45.2475 25.4277 45.5852 25.9333C45.923 26.4388 46.1032 27.0332 46.1031 27.6412C46.1022 28.4556 45.7784 29.2364 45.2027 29.8124C44.627 30.3884 43.8464 30.7127 43.032 30.7141ZM43.032 26.0806C42.7233 26.0801 42.4213 26.1713 42.1644 26.3425C41.9075 26.5137 41.7071 26.7572 41.5886 27.0424C41.4701 27.3275 41.4389 27.6413 41.4988 27.9442C41.5588 28.2471 41.7072 28.5254 41.9254 28.7439C42.1435 28.9623 42.4216 29.1112 42.7244 29.1716C43.0272 29.232 43.3411 29.2012 43.6263 29.0832C43.9116 28.9651 44.1555 28.7651 44.3271 28.5084C44.4987 28.2517 44.5902 27.9499 44.5902 27.6412C44.5899 27.2278 44.4257 26.8314 44.1336 26.5388C43.8416 26.2463 43.4454 26.0815 43.032 26.0806V26.0806Z" fill="black"/>
<path d="M7.29276 22.5677C7.29276 22.5677 10.8422 22.6003 12.323 21.3458C12.323 21.3458 15.7607 23.3014 18.7498 21.1811C18.7498 21.1811 23.08 23.0123 25.8014 21.3458C25.8014 21.3458 29.5347 24.194 32.3928 22.2535L33.0969 21.3458C33.0969 21.3458 13.691 17.2075 6.50549 21.404L6.16626 22.9308L7.29276 22.5677Z" fill="#E7CDCC"/>
<path d="M5.50859 36.0493C5.50859 36.0493 4.70794 37.6203 4.59913 39.1995C4.49032 40.7787 7.2926 37.8257 7.2926 37.8257C7.2926 37.8257 16.1766 56.5036 19.8255 57.3688C19.8255 57.3688 16.1964 59.2518 8.86772 47.1391L6.32961 41.1336L3.51569 42.7931C3.51569 42.7931 2.50557 41.1825 2.75926 39.605C3.01296 38.0276 3.98177 35.7996 5.50859 36.0493Z" fill="#C5C5C5"/>
<path d="M19.8284 37.7407C18.4947 37.7407 16.919 37.4212 15.0029 36.7649L15.4934 35.3335C17.2472 35.9351 18.6646 36.2278 19.8284 36.2278C21.0072 36.2278 22.4241 35.9369 24.161 35.3341L24.6556 36.7637C22.7575 37.4212 21.1783 37.7407 19.8284 37.7407Z" fill="#690A3F"/>
<path d="M7.60688 30.8268C6.27465 28.6098 5.5716 26.0718 5.57325 23.4853C5.5732 22.7143 5.63508 21.9445 5.75828 21.1834L7.25194 21.4261C7.14156 22.1069 7.0861 22.7955 7.08611 23.4853C7.0844 25.7968 7.71242 28.065 8.9027 30.0465L7.60688 30.8268Z" fill="#690A3F"/>
<path d="M32.1097 30.7255L30.8075 29.9557C31.9627 27.9952 32.5713 25.7609 32.57 23.4854C32.57 23.0623 32.4623 22.2419 32.3908 21.6984C32.3739 21.5716 32.3588 21.4552 32.3459 21.3557L33.8472 21.1678C33.8594 21.2644 33.8745 21.3778 33.8908 21.5018C33.9717 22.1186 34.0828 22.9634 34.0828 23.4854C34.0844 26.0318 33.403 28.532 32.1097 30.7255V30.7255Z" fill="#690A3F"/>
<path d="M12.3227 25.8398C12.015 25.8399 11.7142 25.7488 11.4584 25.578C11.2025 25.4071 11.0031 25.1643 10.8853 24.8801C10.7675 24.5959 10.7366 24.2831 10.7965 23.9814C10.8565 23.6796 11.0046 23.4025 11.2221 23.1849C11.4396 22.9673 11.7167 22.8191 12.0184 22.7591C12.3201 22.699 12.6329 22.7298 12.9171 22.8475C13.2014 22.9652 13.4443 23.1645 13.6153 23.4203C13.7862 23.6761 13.8774 23.9768 13.8774 24.2845C13.877 24.6967 13.713 25.092 13.4216 25.3835C13.1301 25.6751 12.7349 25.8392 12.3227 25.8398ZM12.3227 24.242C12.3142 24.2419 12.306 24.2443 12.2989 24.2489C12.2918 24.2535 12.2863 24.2601 12.283 24.2678C12.2797 24.2756 12.2788 24.2841 12.2803 24.2924C12.2819 24.3007 12.2859 24.3083 12.2918 24.3143C12.2977 24.3203 12.3053 24.3244 12.3136 24.3261C12.3218 24.3278 12.3304 24.327 12.3382 24.3238C12.346 24.3206 12.3527 24.3151 12.3573 24.3081C12.362 24.3011 12.3645 24.2929 12.3645 24.2845C12.3645 24.2733 12.3602 24.2626 12.3523 24.2546C12.3445 24.2467 12.3338 24.2421 12.3227 24.242V24.242Z" fill="#690A3F"/>
<path d="M27.1762 25.8398C26.8686 25.8398 26.5679 25.7486 26.3121 25.5777C26.0563 25.4068 25.857 25.1639 25.7392 24.8797C25.6215 24.5955 25.5907 24.2827 25.6507 23.981C25.7107 23.6793 25.8589 23.4022 26.0764 23.1847C26.2939 22.9672 26.5711 22.819 26.8728 22.759C27.1745 22.699 27.4872 22.7298 27.7714 22.8475C28.0556 22.9652 28.2985 23.1646 28.4694 23.4204C28.6403 23.6761 28.7315 23.9769 28.7315 24.2845C28.7311 24.6968 28.567 25.0922 28.2755 25.3838C27.9839 25.6753 27.5885 25.8394 27.1762 25.8398V25.8398ZM27.1762 24.242C27.1678 24.242 27.1596 24.2445 27.1526 24.2492C27.1456 24.2538 27.1402 24.2605 27.1369 24.2682C27.1337 24.276 27.1329 24.2845 27.1345 24.2928C27.1362 24.301 27.1402 24.3086 27.1462 24.3145C27.1521 24.3204 27.1597 24.3245 27.1679 24.3261C27.1761 24.3278 27.1847 24.3269 27.1924 24.3237C27.2002 24.3205 27.2068 24.3151 27.2115 24.3081C27.2162 24.3011 27.2187 24.2929 27.2187 24.2845C27.2187 24.2732 27.2142 24.2624 27.2062 24.2544C27.1983 24.2465 27.1875 24.242 27.1762 24.242Z" fill="#690A3F"/>
<path d="M26.7267 37.0617C25.8114 37.0617 24.9299 36.9837 24.2014 36.7772C19.9613 35.5739 19.0717 33.2278 19.0717 31.4694C19.0732 30.0546 19.6359 28.6982 20.6363 27.6977C21.6367 26.6973 22.9932 26.1346 24.408 26.1331C25.8085 26.1331 27.5204 27.3009 29.6878 28.7794C31.9845 30.3464 34.5866 32.1217 37.1357 32.6645C37.9829 32.8443 38.1156 33.2877 38.1592 33.4332C38.2081 33.5949 38.2756 34.0151 37.8683 34.427C37.0735 35.2346 34.1647 36.04 31.9152 36.4845C30.858 36.6946 28.7138 37.0617 26.7267 37.0617ZM24.408 27.6459C23.3943 27.647 22.4224 28.0502 21.7056 28.767C20.9888 29.4838 20.5856 30.4557 20.5845 31.4694C20.5845 33.2668 21.9403 34.5626 24.6145 35.3214C25.9976 35.7141 28.6172 35.5942 31.6208 35.0013C33.4054 34.6487 34.8659 34.2175 35.7823 33.8678C33.3152 33.0858 30.9528 31.4729 28.8354 30.0275C27.1177 28.8574 25.3419 27.6459 24.408 27.6459Z" fill="#690A3F"/>
<path d="M12.9296 37.0617C10.942 37.0617 8.79837 36.6946 7.73704 36.4845C5.4887 36.04 2.57935 35.2346 1.78394 34.427C1.37663 34.0151 1.44704 33.5949 1.493 33.4332C1.66757 32.8443 2.30762 32.7088 2.51651 32.6645C5.06684 32.1217 7.66954 30.3464 9.96444 28.7794C12.1319 27.3009 13.8438 26.1331 15.2449 26.1331C16.6597 26.1346 18.0161 26.6973 19.0165 27.6977C20.017 28.6982 20.5797 30.0546 20.5812 31.4694C20.5812 33.2266 19.691 35.5739 15.4509 36.7772C14.7265 36.9837 13.8443 37.0617 12.9296 37.0617ZM3.87343 33.8678C4.78987 34.217 6.25037 34.6487 8.03496 35.0013C11.0391 35.5942 13.6581 35.7141 15.0418 35.3214C17.7155 34.5649 19.0718 33.2668 19.0718 31.4694C19.0708 30.4557 18.6676 29.4838 17.9508 28.767C17.234 28.0502 16.2621 27.647 15.2484 27.6459C14.3145 27.6459 12.538 28.8574 10.8204 30.0316C8.70469 31.4729 6.34056 33.0858 3.87343 33.8678Z" fill="#690A3F"/>
<path d="M20.0005 58.8892C19.9417 58.889 19.8831 58.8822 19.8259 58.8688C17.719 58.373 15.6626 57.0842 13.7163 55.0378C12.1953 53.4405 10.7307 51.372 9.36389 48.8985C8.10046 46.5884 7.0188 44.1834 6.1287 41.7054L3.98568 43.3928C3.88524 43.4718 3.76643 43.524 3.64034 43.5447C3.51425 43.5653 3.38498 43.5537 3.26459 43.5109C3.14421 43.4681 3.03663 43.3955 2.9519 43.2998C2.86717 43.2042 2.80805 43.0886 2.78005 42.964C1.46386 37.1261 4.64203 34.6159 4.77993 34.5117L5.69928 35.7133L5.70394 35.7092C5.69754 35.7144 5.05981 36.2277 4.56638 37.321C4.03456 38.5004 3.86058 39.8754 4.04561 41.4214L6.03328 39.8597C6.12958 39.784 6.24283 39.7328 6.36328 39.7106C6.48373 39.6883 6.60779 39.6957 6.72478 39.732C6.84177 39.7682 6.9482 39.8324 7.03492 39.9189C7.12163 40.0054 7.18605 40.1117 7.22262 40.2286C7.27033 40.3805 12.0981 55.498 20.1762 57.399C20.3572 57.4412 20.5163 57.5486 20.6232 57.7007C20.7301 57.8528 20.7772 58.0389 20.7556 58.2235C20.7341 58.4081 20.6453 58.5783 20.5062 58.7016C20.3671 58.8249 20.1875 58.8927 20.0016 58.8921L20.0005 58.8892Z" fill="#690A3F"/>
<path d="M19.6559 58.8893C19.47 58.89 19.2904 58.8222 19.1513 58.6989C19.0122 58.5756 18.9234 58.4053 18.9018 58.2207C18.8803 58.0361 18.9274 57.85 19.0343 57.6979C19.1412 57.5459 19.3003 57.4385 19.4813 57.3962C27.5594 55.4953 32.3871 40.3777 32.4349 40.2253C32.4715 40.1084 32.5359 40.0022 32.6227 39.9157C32.7094 39.8293 32.8159 39.7652 32.9329 39.729C33.0498 39.6928 33.1739 39.6855 33.2943 39.7078C33.4147 39.73 33.5279 39.7812 33.6242 39.8569L35.6095 41.4169C36.075 37.4363 33.9332 35.8828 33.9093 35.8665C33.745 35.7513 33.6331 35.5756 33.5983 35.378C33.5634 35.1804 33.6086 34.9771 33.7237 34.8127C33.8388 34.6483 34.0145 34.5365 34.2121 34.5016C34.4097 34.4668 34.6131 34.512 34.7774 34.6271C34.9177 34.7254 38.1982 37.1018 36.8768 42.9612C36.8488 43.0858 36.7897 43.2012 36.705 43.2968C36.6203 43.3923 36.5128 43.4649 36.3925 43.5077C36.2722 43.5505 36.143 43.5622 36.017 43.5416C35.891 43.521 35.7722 43.4689 35.6718 43.39L33.5282 41.7026C32.6377 44.1806 31.5559 46.5855 30.2924 48.8957C28.925 51.3721 27.4605 53.4378 25.9395 55.035C23.9908 57.0814 21.9345 58.3703 19.8299 58.866C19.7729 58.8804 19.7146 58.8882 19.6559 58.8893V58.8893Z" fill="#690A3F"/>
<path d="M34.0625 33.1077C33.8785 33.1096 33.7001 33.0443 33.5607 32.9241C33.4214 32.8038 33.3306 32.6369 33.3055 32.4546C33.2804 32.2723 33.3226 32.087 33.4243 31.9336C33.5259 31.7801 33.68 31.669 33.8577 31.6211C35.4549 31.1713 36.5424 30.4306 36.9998 29.4798C37.12 29.2339 37.1986 28.9699 37.2325 28.6983C34.1841 27.9582 32.673 23.369 32.6055 23.1601C32.5438 22.9691 32.5605 22.7614 32.6519 22.5828C32.7432 22.4041 32.9019 22.269 33.0928 22.2073C33.2838 22.1455 33.4915 22.1622 33.6702 22.2536C33.8489 22.345 33.9839 22.5036 34.0457 22.6946V22.6946C34.453 23.9468 35.9513 27.2117 37.9989 27.2838C38.168 27.2896 38.3304 27.352 38.4599 27.4609C38.5895 27.5699 38.6787 27.7192 38.7134 27.8849C38.7355 27.9867 38.913 28.9136 38.419 30.0232C37.6259 31.8067 35.7243 32.6696 34.2691 33.0798C34.2018 33.0985 34.1323 33.1079 34.0625 33.1077V33.1077Z" fill="#690A3F"/>
<path d="M5.59412 33.108C5.5247 33.1081 5.45558 33.0987 5.38872 33.08C3.93405 32.6698 2.03134 31.8069 1.23825 30.0235C0.744827 28.9138 0.922297 27.9869 0.943826 27.8851C0.97913 27.7202 1.0685 27.5719 1.19774 27.4636C1.32699 27.3554 1.4887 27.2934 1.6572 27.2875C3.70421 27.2154 5.2066 23.9505 5.60983 22.6983C5.67156 22.5073 5.80663 22.3487 5.98531 22.2573C6.164 22.1659 6.37167 22.1493 6.56264 22.211C6.75361 22.2727 6.91224 22.4078 7.00363 22.5865C7.09502 22.7652 7.11169 22.9728 7.04996 23.1638C6.98246 23.3727 5.47135 27.9619 2.42352 28.7021C2.45737 28.9736 2.53602 29.2377 2.65627 29.4835C3.11594 30.4343 4.20287 31.175 5.79836 31.6248C5.97398 31.6744 6.12574 31.7859 6.22565 31.9386C6.32556 32.0913 6.36689 32.275 6.34201 32.4558C6.31714 32.6366 6.22773 32.8023 6.09029 32.9224C5.95284 33.0425 5.77662 33.1088 5.59412 33.1091V33.108Z" fill="#690A3F"/>
<path d="M8.72213 21.8965C8.08969 21.8932 7.46158 21.7919 6.86015 21.5963C5.83459 21.2594 4.88871 20.7164 4.08056 20.0008C3.93472 19.863 3.84961 19.6729 3.84393 19.4723C3.83826 19.2717 3.91249 19.0771 4.0503 18.9313C4.18811 18.7855 4.3782 18.7004 4.57877 18.6947C4.77934 18.689 4.97394 18.7632 5.11978 18.901C5.77554 19.4706 6.53945 19.902 7.3658 20.1695C8.77043 20.6042 10.0866 20.3726 11.2893 19.4817C10.8431 19.0971 10.3002 18.5572 9.95104 17.952C9.84958 17.7789 9.82102 17.5727 9.87165 17.3785C9.92228 17.1844 10.048 17.0183 10.221 16.9169C10.3941 16.8154 10.6004 16.7868 10.7945 16.8375C10.9886 16.8881 11.1547 17.0138 11.2562 17.1869C11.7618 18.0498 12.8941 18.8161 12.9052 18.8225C12.9986 18.8849 13.077 18.9674 13.1346 19.064C13.1922 19.1605 13.2275 19.2686 13.238 19.3805C13.2486 19.4924 13.234 19.6053 13.1955 19.7109C13.1569 19.8164 13.0953 19.9121 13.0152 19.9909C11.5302 21.445 10.0226 21.8965 8.72213 21.8965Z" fill="#690A3F"/>
<path d="M16.2272 21.201C14.737 21.201 13.2736 20.6773 12.15 20.131C12.0585 20.0889 11.9763 20.029 11.9082 19.9547C11.8401 19.8804 11.7876 19.7932 11.7536 19.6984C11.7197 19.6035 11.7051 19.5028 11.7106 19.4022C11.7161 19.3016 11.7417 19.2031 11.7858 19.1125C11.8299 19.0219 11.8917 18.941 11.9675 18.8746C12.0433 18.8082 12.1316 18.7577 12.2272 18.7259C12.3228 18.6941 12.4238 18.6817 12.5243 18.6895C12.6247 18.6973 12.7226 18.725 12.8122 18.7711C14.7941 19.7365 16.521 19.9448 17.807 19.374C18.7554 18.9539 19.1627 18.2428 19.1627 18.2382L19.1592 18.2446L20.4935 18.9579C20.4353 19.0708 19.8674 20.0751 18.5267 20.7099C17.8064 21.0429 17.0207 21.2107 16.2272 21.201V21.201Z" fill="#690A3F"/>
<path d="M22.8285 21.0893C21.638 21.0893 20.2654 20.8531 18.72 20.2235C18.5342 20.1478 18.386 20.0014 18.3082 19.8165C18.2303 19.6316 18.2291 19.4233 18.3048 19.2375C18.3805 19.0517 18.5269 18.9036 18.7118 18.8257C18.8967 18.7479 19.105 18.7467 19.2908 18.8224C21.7265 19.8144 23.9282 19.8371 25.8344 18.8893C27.2705 18.1753 28.0089 17.1437 28.0164 17.135C28.1312 16.9704 28.3066 16.8581 28.5041 16.8229C28.7016 16.7876 28.905 16.8323 29.0696 16.947C29.2342 17.0618 29.3465 17.2372 29.3817 17.4347C29.417 17.6322 29.3723 17.8356 29.2576 18.0002C29.2209 18.0531 28.3347 19.3123 26.5845 20.2055C25.4206 20.7947 24.133 21.0977 22.8285 21.0893Z" fill="#690A3F"/>
<path d="M30.4644 22.0615C30.2495 22.0618 30.0347 22.0487 29.8214 22.0226C28.3668 21.8451 27.1157 21.0735 26.1004 19.7294C26.0381 19.6503 25.9923 19.5595 25.9656 19.4624C25.9389 19.3653 25.9318 19.2639 25.9448 19.164C25.9578 19.0641 25.9906 18.9679 26.0413 18.8809C26.092 18.7939 26.1596 18.7179 26.2401 18.6573C26.3205 18.5968 26.4123 18.5529 26.5099 18.5283C26.6076 18.5037 26.7091 18.4988 26.8087 18.5139C26.9082 18.5291 27.0038 18.5639 27.0897 18.6165C27.1756 18.669 27.2501 18.7382 27.3089 18.82C28.0653 19.8243 28.9748 20.3974 30.0059 20.5231C32.0959 20.7791 34.0696 19.2011 34.0894 19.1848C34.2453 19.0585 34.4449 18.9993 34.6445 19.0202C34.844 19.041 35.0271 19.1404 35.1534 19.2962C35.2797 19.4521 35.3389 19.6517 35.318 19.8513C35.2971 20.0508 35.1978 20.2339 35.0419 20.3602C34.9483 20.4335 32.9088 22.0615 30.4644 22.0615Z" fill="#690A3F"/>
<path d="M4.46637 22.5469C4.43437 22.5469 4.40178 22.5469 4.36862 22.5469C3.6087 22.5085 2.88777 22.0116 2.2256 21.0701C1.95214 20.678 1.71566 20.2614 1.51922 19.8255C1.50341 19.7896 1.49076 19.7525 1.4814 19.7144C1.44939 19.5904 0.715661 16.6537 2.3315 15.0175C3.33406 14.0027 4.93361 13.7549 7.08651 14.2809C7.28142 14.3285 7.44943 14.4516 7.55359 14.6231C7.65774 14.7945 7.68951 15.0004 7.64191 15.1953C7.5943 15.3902 7.47121 15.5582 7.29973 15.6624C7.12824 15.7665 6.92241 15.7983 6.7275 15.7507C4.73694 15.2637 3.82515 15.6599 3.41086 16.0783C2.59625 16.901 2.77779 18.6106 2.93257 19.2786C3.08662 19.6062 3.26844 19.92 3.47603 20.2165C3.83097 20.7158 4.19347 21.0213 4.446 21.0341C4.69853 21.0469 5.0622 20.6896 5.40259 20.0798C5.50028 19.9046 5.66357 19.7753 5.85655 19.7205C6.04953 19.6656 6.25639 19.6897 6.43162 19.7874C6.60685 19.8851 6.7361 20.0484 6.79094 20.2414C6.84577 20.4343 6.8217 20.6412 6.72401 20.8164C6.0828 21.9656 5.32404 22.5469 4.46637 22.5469Z" fill="#690A3F"/>
<path d="M5.99218 14.8262V14.8203L4.4834 14.7115C4.49329 14.5707 4.77841 11.2506 8.78922 9.86049C10.9532 9.11046 12.5132 9.77263 13.4413 10.4604C14.0491 10.913 14.5555 11.4878 14.9279 12.1478C15.0205 12.3258 15.0386 12.5333 14.9782 12.7247C14.9178 12.916 14.7839 13.0755 14.6059 13.1681C14.4279 13.2607 14.2204 13.2788 14.029 13.2184C13.8377 13.158 13.6781 13.0241 13.5856 12.8461C13.3094 12.3759 12.9392 11.9678 12.498 11.6474C11.5833 10.9905 10.5022 10.8712 9.28439 11.2931C6.24529 12.3433 6.00149 14.7255 5.99218 14.8262Z" fill="#690A3F"/>
<path d="M21.4636 12.8581C21.263 12.8581 21.0706 12.7784 20.9288 12.6365C20.7869 12.4947 20.7072 12.3023 20.7072 12.1017C20.6899 11.5722 20.5903 11.0487 20.4122 10.5498C20.0771 9.65024 19.5347 9.17252 18.755 9.08815C18.0845 9.04201 17.4112 9.11711 16.7674 9.30984C15.4971 9.70552 14.6825 10.551 14.3573 11.8241C14.3341 11.9219 14.2917 12.0142 14.2325 12.0954C14.1733 12.1766 14.0985 12.2452 14.0124 12.2972C13.9264 12.3492 13.8309 12.3836 13.7314 12.3982C13.6319 12.4129 13.5306 12.4075 13.4332 12.3826C13.3358 12.3576 13.2444 12.3134 13.1643 12.2527C13.0842 12.192 13.017 12.1159 12.9666 12.0289C12.9162 11.9419 12.8837 11.8458 12.8709 11.7461C12.8581 11.6464 12.8653 11.5451 12.8921 11.4482C13.3576 9.63686 14.5609 8.39282 16.3764 7.84993C17.2011 7.60817 18.063 7.51885 18.9197 7.58635C20.279 7.73356 21.3193 8.61509 21.8465 10.0686C22.0768 10.7225 22.2029 11.4086 22.2201 12.1017C22.2201 12.201 22.2005 12.2994 22.1625 12.3911C22.1245 12.4829 22.0688 12.5663 21.9985 12.6365C21.9283 12.7068 21.8449 12.7625 21.7531 12.8005C21.6613 12.8385 21.563 12.8581 21.4636 12.8581Z" fill="#690A3F"/>
<path d="M28.9903 15.7362C28.9003 15.7363 28.811 15.7201 28.7267 15.6885C28.5389 15.6187 28.3864 15.4773 28.3027 15.2952C28.219 15.1131 28.211 14.9053 28.2804 14.7173C28.2926 14.6836 28.9507 12.8367 28.3211 11.5083C28.0576 10.9515 27.6014 10.5674 26.9276 10.333C23.9798 9.30771 21.643 10.8473 21.5447 10.9148C21.4626 10.9708 21.3704 11.0101 21.2731 11.0304C21.1759 11.0507 21.0756 11.0516 20.978 11.0332C20.8804 11.0147 20.7874 10.9772 20.7042 10.9228C20.6211 10.8684 20.5495 10.7982 20.4936 10.7161C20.4376 10.634 20.3983 10.5418 20.378 10.4445C20.3577 10.3473 20.3568 10.247 20.3752 10.1494C20.3937 10.0518 20.4312 9.95876 20.4856 9.87565C20.54 9.79253 20.6102 9.72094 20.6923 9.66497C20.8145 9.58118 23.7366 7.6232 27.4245 8.90854C28.4893 9.27919 29.2521 9.93961 29.6938 10.8729C30.5957 12.7873 29.738 15.1479 29.7013 15.2474C29.6468 15.3916 29.5494 15.5158 29.4223 15.6031C29.2953 15.6905 29.1445 15.7369 28.9903 15.7362Z" fill="#690A3F"/>
<path d="M33.3268 18.1487C33.1745 18.1487 33.0257 18.1027 32.9 18.0168C32.7742 17.9308 32.6773 17.8089 32.622 17.667C32.5667 17.5251 32.5555 17.3698 32.5899 17.2214C32.6243 17.073 32.7027 16.9385 32.8148 16.8354C33.1469 16.5037 33.4113 16.1106 33.5933 15.678C33.9425 14.8239 33.8261 14.0203 33.2442 13.2214C32.6623 12.4225 31.9228 12.0693 30.9831 12.1414C30.5044 12.1842 30.0383 12.3181 29.6099 12.5359C29.4349 12.6341 29.2281 12.6587 29.0349 12.6044C28.8418 12.55 28.6781 12.4212 28.58 12.2462C28.4818 12.0712 28.4572 11.8644 28.5116 11.6712C28.5659 11.4781 28.6947 11.3144 28.8697 11.2163C29.4693 10.8995 30.1253 10.7034 30.8004 10.6391C31.8407 10.5442 33.3216 10.7607 34.4661 12.3311C35.6107 13.9016 35.3692 15.3627 34.966 16.3123C34.7023 16.9285 34.3181 17.4858 33.836 17.9514C33.6969 18.0785 33.5152 18.1489 33.3268 18.1487Z" fill="#690A3F"/>
<path d="M34.5672 22.9285C33.6944 22.9285 32.8536 22.378 32.0605 21.2888C31.9511 21.1264 31.9089 20.9279 31.9428 20.735C31.9768 20.5422 32.0841 20.37 32.2424 20.2547C32.4007 20.1394 32.5975 20.0899 32.7914 20.1168C32.9854 20.1436 33.1614 20.2446 33.2824 20.3985C33.7892 21.0968 34.2716 21.454 34.6341 21.4115C35.1502 21.3534 35.664 20.5236 35.8188 20.1547C35.8421 20.0994 35.8717 20.0471 35.9072 19.9988C36.1126 19.7148 36.5933 18.8118 36.3273 18.092C36.0417 17.3181 34.964 16.9102 34.1104 16.7042C34.0124 16.6824 33.9196 16.6413 33.8376 16.5832C33.7556 16.5251 33.686 16.4513 33.6328 16.366C33.5797 16.2808 33.544 16.1858 33.528 16.0866C33.512 15.9874 33.5158 15.886 33.5394 15.7883C33.563 15.6907 33.6058 15.5987 33.6653 15.5177C33.7248 15.4368 33.7999 15.3685 33.8861 15.3169C33.9723 15.2653 34.0679 15.2313 34.1674 15.2171C34.2668 15.2028 34.3681 15.2085 34.4654 15.2338C36.2337 15.6603 37.3392 16.4499 37.7512 17.5799C38.2795 19.0317 37.4131 20.4695 37.1792 20.8186C36.9959 21.2219 36.2104 22.751 34.8087 22.9134C34.7285 22.923 34.6479 22.928 34.5672 22.9285V22.9285Z" fill="#690A3F"/>
<path d="M42.6063 25.8397C42.5056 25.8397 42.406 25.8197 42.3132 25.7807C42.2203 25.7417 42.1362 25.6846 42.0657 25.6128C42.0361 25.5825 39.022 22.5417 35.9422 21.9371C35.8432 21.9196 35.7486 21.8826 35.6641 21.8281C35.5796 21.7737 35.5068 21.703 35.4499 21.6201C35.393 21.5372 35.3532 21.4438 35.3329 21.3453C35.3125 21.2469 35.312 21.1453 35.3313 21.0467C35.3507 20.948 35.3895 20.8542 35.4455 20.7707C35.5015 20.6872 35.5736 20.6158 35.6576 20.5605C35.7415 20.5052 35.8357 20.4672 35.9345 20.4487C36.0333 20.4302 36.1348 20.4315 36.2331 20.4527C38.6653 20.9305 40.9503 22.6179 42.1891 23.6751C42.4958 22.3116 42.6956 20.9262 42.7867 19.5316C42.9653 16.7544 42.7524 12.7174 40.724 9.25584C38.6415 5.70178 35.0292 3.36674 29.9885 2.31531C25.2852 1.33427 21.0248 1.40003 17.3171 2.5114C14.3939 3.3822 11.7308 4.96116 9.5643 7.10816C5.78913 10.8263 4.50204 15.1461 4.49156 15.1892C4.43601 15.3821 4.3061 15.545 4.13041 15.6421C3.95472 15.7392 3.74765 15.7626 3.55475 15.707C3.36185 15.6515 3.19892 15.5216 3.1018 15.3459C3.00468 15.1702 2.98133 14.9631 3.03689 14.7702C3.09158 14.5805 4.42057 10.0763 8.45234 6.07883C10.7922 3.74378 13.6735 2.02405 16.8394 1.07302C20.7961 -0.123889 25.3265 -0.207096 30.2986 0.832122C35.7792 1.97549 39.7284 4.55608 42.0355 8.49708C43.7968 11.5077 44.5783 15.3719 44.2943 19.669C44.0819 22.8931 43.3581 25.2095 43.3272 25.3067C43.2788 25.4599 43.1828 25.5937 43.0532 25.6887C42.9235 25.7837 42.767 25.835 42.6063 25.835V25.8397Z" fill="#690A3F"/>
<path d="M43.032 30.7141C42.424 30.7145 41.8296 30.5346 41.3238 30.1972C40.8181 29.8597 40.4238 29.3798 40.1909 28.8182C39.9579 28.2566 39.8967 27.6386 40.0151 27.0422C40.1335 26.4458 40.4261 25.898 40.8559 25.468C41.2856 25.0379 41.8333 24.745 42.4296 24.6263C43.0259 24.5076 43.644 24.5684 44.2057 24.801C44.7674 25.0337 45.2475 25.4277 45.5852 25.9333C45.923 26.4388 46.1032 27.0332 46.1031 27.6412C46.1022 28.4556 45.7784 29.2364 45.2027 29.8124C44.627 30.3884 43.8464 30.7127 43.032 30.7141ZM43.032 26.0806C42.7233 26.0801 42.4213 26.1713 42.1644 26.3425C41.9075 26.5137 41.7071 26.7572 41.5886 27.0424C41.4701 27.3275 41.4389 27.6413 41.4988 27.9442C41.5588 28.2471 41.7072 28.5254 41.9254 28.7439C42.1435 28.9623 42.4216 29.1112 42.7244 29.1716C43.0272 29.232 43.3411 29.2012 43.6263 29.0832C43.9116 28.9651 44.1555 28.7651 44.3271 28.5084C44.4987 28.2517 44.5902 27.9499 44.5902 27.6412C44.5899 27.2278 44.4257 26.8314 44.1336 26.5388C43.8416 26.2463 43.4454 26.0815 43.032 26.0806V26.0806Z" fill="#690A3F"/>
<path d="M40.9773 14.908C40.865 14.9079 40.7557 14.8717 40.6654 14.8048C40.5752 14.7378 40.5089 14.6437 40.4764 14.5361C39.9044 12.6538 39.0281 10.9722 37.8725 9.53906C36.9403 8.38531 35.8294 7.38818 34.582 6.5855C32.4291 5.19425 30.552 4.81138 30.5334 4.80789C30.3971 4.78127 30.2769 4.70158 30.1993 4.58634C30.1217 4.47111 30.0931 4.32978 30.1197 4.19344C30.1463 4.05709 30.226 3.93691 30.3412 3.85933C30.4565 3.78174 30.5978 3.75311 30.7341 3.77973C30.8174 3.79602 32.7934 4.19344 35.111 5.68011C37.247 7.05041 40.0853 9.6467 41.4783 14.2336C41.4983 14.2994 41.5052 14.3685 41.4985 14.437C41.4917 14.5055 41.4716 14.5719 41.4392 14.6326C41.4068 14.6933 41.3627 14.747 41.3095 14.7907C41.2563 14.8343 41.1951 14.867 41.1292 14.887C41.0799 14.9013 41.0287 14.9083 40.9773 14.908V14.908Z" fill="#FE5B4A"/>
<path d="M13.1209 24.5752C13.0467 24.5754 12.9752 24.5471 12.9211 24.4963C12.8671 24.4454 12.8345 24.3759 12.83 24.3018C12.8021 23.8252 12.3919 23.7781 12.3098 23.7781C12.2327 23.7753 12.1598 23.742 12.1072 23.6855C12.0546 23.6289 12.0266 23.5538 12.0294 23.4767C12.0321 23.3995 12.0655 23.3266 12.122 23.274C12.1785 23.2214 12.2536 23.1935 12.3308 23.1962C12.6834 23.2073 13.3618 23.4453 13.4113 24.2686C13.4157 24.3456 13.3894 24.4212 13.3381 24.4788C13.2869 24.5364 13.2148 24.5713 13.1378 24.5758L13.1209 24.5752Z" fill="white"/>
<path d="M27.9232 24.5754C27.849 24.5756 27.7775 24.5473 27.7234 24.4965C27.6693 24.4456 27.6367 24.376 27.6323 24.3019C27.6323 24.1641 27.5779 24.0317 27.481 23.9337C27.384 23.8356 27.2523 23.7798 27.1144 23.7783C27.0373 23.7759 26.9642 23.7429 26.9114 23.6867C26.8585 23.6304 26.8301 23.5555 26.8325 23.4783C26.8349 23.4011 26.8679 23.3281 26.9241 23.2752C26.9804 23.2223 27.0553 23.194 27.1325 23.1964C27.4851 23.2074 28.1641 23.4454 28.2129 24.2688C28.2174 24.3458 28.1911 24.4214 28.1398 24.479C28.0885 24.5366 28.0165 24.5715 27.9395 24.576L27.9232 24.5754Z" fill="white"/>
</svg>
