<svg width="48" height="48" viewBox="0 0 48 48" fill="none" xmlns="http://www.w3.org/2000/svg">
<path d="M8 15C8 14.2 9 13.3333 9.5 13L10.5 12L11.5 10.5L13 10H15.5H17L17.5 9.5L19 9L21 8L22 9H23L24.5 8.5L26.5 9L28 10L28.5 10.5H29.5H31L31.5 11L32 13.5H32.5L33.5 14L34 15L33.5 16.5L33 18H32H31L30.5 17L30 17.5H28.5L27 16.5L26.5 16L25.5 16.5H24H22.5L20.5 16L20 16.5H17.5H16L14.5 17L13 17.5L12 16.5C11.3333 17 9.9 18 9.5 18C9 18 8 16 8 15Z" fill="white"/>
<path d="M31.0866 17.9179C31.0866 17.9179 23.6603 16.4063 20.6805 16.634C17.7006 16.8617 13.31 17.0096 11.4499 17.9497C10.9773 18.189 11.321 19.0119 11.321 19.5598C11.321 20.1418 11.3718 20.7228 11.4727 21.2961C12.087 20.975 12.8005 20.8995 13.4684 21.085C14.1364 21.2705 14.7087 21.7031 15.0695 22.2951C15.4302 22.887 15.5523 23.594 15.411 24.2727C15.2697 24.9513 14.8756 25.5508 14.3086 25.9496L17.906 28.8363C18.9205 29.1843 20.155 29.5268 21.288 29.5268C22.4301 29.5268 23.6479 29.1899 24.6701 28.8363L29.8771 24.621C30.7828 23.0879 31.2593 21.3392 31.2564 19.5585C31.2564 19.1348 31.1382 18.3265 31.0866 17.9179ZM15.7468 20.7397C15.6301 20.7398 15.516 20.7052 15.4189 20.6405C15.3218 20.5757 15.2462 20.4836 15.2014 20.3758C15.1567 20.268 15.145 20.1494 15.1677 20.0349C15.1904 19.9204 15.2466 19.8153 15.329 19.7327C15.4115 19.6502 15.5167 19.5939 15.6311 19.5711C15.7456 19.5483 15.8642 19.56 15.972 19.6046C16.0799 19.6493 16.172 19.7249 16.2369 19.8219C16.3017 19.9189 16.3363 20.033 16.3363 20.1497C16.3362 20.2271 16.3209 20.3038 16.2911 20.3753C16.2614 20.4467 16.2179 20.5117 16.163 20.5663C16.1082 20.621 16.0432 20.6643 15.9716 20.6938C15.9 20.7234 15.8234 20.7385 15.7459 20.7384L15.7468 20.7397ZM26.7154 20.7397C26.5987 20.7397 26.4847 20.7051 26.3877 20.6402C26.2906 20.5754 26.215 20.4833 26.1704 20.3755C26.1257 20.2677 26.114 20.1491 26.1368 20.0346C26.1596 19.9202 26.2157 19.8151 26.2983 19.7325C26.3808 19.65 26.4859 19.5939 26.6003 19.5711C26.7148 19.5483 26.8334 19.56 26.9412 19.6047C27.049 19.6493 27.1411 19.7249 27.206 19.8219C27.2708 19.919 27.3054 20.033 27.3054 20.1497C27.305 20.3061 27.2426 20.456 27.1318 20.5664C27.021 20.6767 26.871 20.7386 26.7146 20.7384L26.7154 20.7397Z" fill="#FFEAE8"/>
<path d="M15.7462 20.7385C16.072 20.7385 16.3361 20.4744 16.3361 20.1485C16.3361 19.8227 16.072 19.5586 15.7462 19.5586C15.4204 19.5586 15.1562 19.8227 15.1562 20.1485C15.1562 20.4744 15.4204 20.7385 15.7462 20.7385Z" fill="#FFEAE8"/>
<path d="M26.7148 20.7385C27.0406 20.7385 27.3047 20.4744 27.3047 20.1485C27.3047 19.8227 27.0406 19.5586 26.7148 19.5586C26.389 19.5586 26.1248 19.8227 26.1248 20.1485C26.1248 20.4744 26.389 20.7385 26.7148 20.7385Z" fill="#FFEAE8"/>
<path opacity="0.6" d="M15.4478 23.3414C15.4478 21.8328 14.2502 20.9824 12.7407 20.9824C12.298 20.982 11.8618 21.0896 11.4702 21.2961C11.6811 22.4962 12.1118 23.647 12.7407 24.6906L13.9834 23.9988C14.6881 23.506 15.4478 24.2661 15.4478 23.3414Z" fill="#FE5B4A"/>
<path opacity="0.6" d="M26.9718 23.466C26.9718 21.9574 28.1835 20.9824 29.6917 20.9824C30.1345 20.982 30.5706 21.0897 30.9623 21.2961C30.751 22.4961 30.3203 23.6468 29.6917 24.6906L28.3597 23.9988C27.655 23.5059 26.9718 23.466 26.9718 23.466Z" fill="#FE5B4A"/>
<path d="M33.9539 26.8829C30.2586 26.0965 26.5384 22.0704 24.6706 22.0704C24.2264 22.0704 23.7866 22.1578 23.3763 22.3278C22.966 22.4978 22.5931 22.7469 22.2791 23.0609C21.965 23.375 21.7159 23.7478 21.5459 24.1582C21.376 24.5685 21.2885 25.0083 21.2885 25.4524C21.2885 27.3203 22.8736 28.3245 24.6706 28.8345C27.7372 29.7064 36.0775 27.3349 33.9539 26.8829Z" fill="#EEEEEE"/>
<path d="M26.3829 29.5841C25.707 29.5841 25.056 29.5265 24.518 29.3739C21.3869 28.4853 20.7299 26.7528 20.7299 25.4543C20.731 24.4095 21.1466 23.4079 21.8854 22.6691C22.6241 21.9303 23.6258 21.5148 24.6706 21.5137C25.7048 21.5137 26.969 22.376 28.5695 23.4679C30.2655 24.625 32.1871 25.936 34.0695 26.3369C34.6952 26.4697 34.7931 26.7971 34.8254 26.9045C34.8614 27.024 34.9113 27.3342 34.6105 27.6384C34.0236 28.2348 31.8756 28.8295 30.2144 29.1578C29.4336 29.3129 27.8502 29.5841 26.3829 29.5841ZM24.6706 22.6308C23.922 22.6316 23.2043 22.9294 22.6749 23.4587C22.1456 23.988 21.8479 24.7057 21.8471 25.4543C21.8471 26.7816 22.8483 27.7386 24.8231 28.2989C25.8445 28.5889 27.7789 28.5004 29.997 28.0625C31.3148 27.8021 32.3933 27.4837 33.0701 27.2255C31.2482 26.648 29.5037 25.4569 27.9401 24.3896C26.6716 23.5255 25.3602 22.6308 24.6706 22.6308Z" fill="black"/>
<path d="M17.9064 22.0723C16.0382 22.0723 12.3205 26.0967 8.6226 26.8847C6.49908 27.3368 14.8393 29.7082 17.9064 28.8381C19.7034 28.328 21.2885 27.3239 21.2885 25.456C21.2887 25.0117 21.2014 24.5718 21.0316 24.1612C20.8617 23.7507 20.6126 23.3777 20.2985 23.0634C19.9845 22.7492 19.6115 22.4999 19.2011 22.3299C18.7907 22.1598 18.3507 22.0723 17.9064 22.0723Z" fill="#EEEEEE"/>
<path d="M16.1942 29.5841C14.7264 29.5841 13.1434 29.3129 12.3597 29.1578C10.6994 28.8295 8.55092 28.2348 7.96353 27.6384C7.66275 27.3342 7.71474 27.024 7.74869 26.9045C7.8776 26.4697 8.35025 26.3696 8.50451 26.3369C10.3878 25.936 12.3098 24.625 14.0045 23.4679C15.6051 22.376 16.8692 21.5137 17.9039 21.5137C18.9487 21.5148 19.9504 21.9303 20.6892 22.6691C21.4279 23.4079 21.8435 24.4095 21.8446 25.4543C21.8446 26.752 21.1872 28.4853 18.056 29.3739C17.5211 29.5265 16.8697 29.5841 16.1942 29.5841ZM9.50654 27.2255C10.1833 27.4833 11.2618 27.8021 12.5797 28.0625C14.7981 28.5004 16.7322 28.5889 17.754 28.2989C19.7284 27.7403 20.73 26.7816 20.73 25.4543C20.7292 24.7057 20.4315 23.988 19.9021 23.4587C19.3728 22.9294 18.6551 22.6316 17.9065 22.6308C17.2169 22.6308 15.905 23.5255 14.6366 24.3926C13.0742 25.4569 11.3284 26.648 9.50654 27.2255Z" fill="black"/>
<path d="M20.2444 23.8833C20.2444 23.8833 18.6077 28.352 9.51254 27.2224C9.51254 27.2224 12.2166 28.6425 17.161 28.4255C17.1627 28.4246 22.2833 27.707 20.2444 23.8833Z" fill="#DADADA"/>
<path d="M22.2303 23.8833C22.2303 23.8833 23.867 28.352 32.9622 27.2224C32.9622 27.2224 30.2581 28.6425 25.3137 28.4255C25.312 28.4246 20.1914 27.707 22.2303 23.8833Z" fill="#DADADA"/>
<path d="M21.4155 45.1443C15.0656 43.6499 11.4467 32.0874 11.4467 32.0874L9.24244 33.8165C8.33623 29.8066 10.5135 28.1446 10.5135 28.1446C10.5135 28.1446 15.9469 29.2832 17.9067 28.8385C17.9067 28.8385 21.4069 30.2268 24.2364 28.8385C24.2364 28.8385 29.1559 29.4401 32.009 28.246C32.009 28.246 34.2395 29.8088 33.335 33.8199L31.1325 32.0895C31.1325 32.0895 27.5115 43.652 21.1637 45.1465" fill="#E7E7E7"/>
<path d="M31.8006 26.1057C35.1664 25.1604 34.6878 22.926 34.6878 22.926C32.446 22.8474 31.2566 19.1504 31.2566 19.1504C31.2566 19.1504 30.5137 23.8477 30.017 24.6211C29.5203 25.3945 31.8006 26.1057 31.8006 26.1057Z" fill="#F3F3F3"/>
<path d="M10.5707 26.1057C7.20453 25.1604 7.6832 22.926 7.6832 22.926C9.92488 22.8474 11.1143 19.1504 11.1143 19.1504C11.1143 19.1504 11.8598 23.8477 12.3543 24.6211C12.8489 25.3945 10.5707 26.1057 10.5707 26.1057Z" fill="#F3F3F3"/>
<path d="M10.0423 16.5795C10.0423 16.5795 13.0071 19.385 15.8628 16.5795C15.8628 16.5795 14.9175 15.95 14.4732 15.1899" fill="white"/>
<path d="M21.2886 15.9501C21.2886 15.9501 19.9002 18.5458 15.8629 16.5796L21.2886 15.9501Z" fill="white"/>
<path d="M27.7922 15.1899C27.7922 15.1899 25.4457 18.5741 20.6804 16.6328L27.7922 15.1899Z" fill="white"/>
<path d="M32.1704 16.8154C32.1704 16.8154 28.7415 19.5942 26.3662 16.448L32.1704 16.8154Z" fill="white"/>
<path d="M11.1238 17.3165C9.6865 19.8946 8.28057 16.6337 8.28057 16.6337C8.28057 16.6337 7.13287 12.1748 11.7464 13.3023" fill="white"/>
<path d="M17.1738 11.4405C17.1738 11.4405 15.9677 9.10945 13.3204 10.0251C10.6731 10.9408 10.5149 13.1189 10.5149 13.1189" fill="white"/>
<path d="M22.4961 11.152C22.4961 11.152 22.4961 8.5829 20.556 8.37278C20.556 8.37278 17.4193 8.02602 16.7073 10.8083" fill="white"/>
<path d="M28.0544 13.2774C28.0544 13.2774 29.203 10.1837 26.7147 9.31829C24.2263 8.4529 22.242 9.81243 22.242 9.81243" fill="white"/>
<path d="M31.2566 15.0588C31.2566 15.0588 32.9835 13.4857 31.6463 11.6505C30.3092 9.81534 28.2394 10.9828 28.2394 10.9828" fill="white"/>
<path d="M30.773 17.6078C32.4956 19.9732 33.6124 17.3156 33.6124 17.3156C33.6124 17.3156 35.4343 14.8449 31.9671 14.007" fill="white"/>
<path d="M9.01949 14.528C9.55445 14.3055 10.9531 13.8732 12.6491 14.5126C12.6711 14.5209 12.6952 14.5221 12.7179 14.5159C12.7406 14.5097 12.7607 14.4964 12.7753 14.4779C12.79 14.4595 12.7984 14.4369 12.7993 14.4134C12.8002 14.3899 12.7937 14.3667 12.7806 14.3471C12.518 13.9561 11.962 13.3047 11.1606 13.2781C9.62793 13.2274 9.06848 13.9694 8.87727 14.3781C8.86747 14.3983 8.86406 14.421 8.8675 14.4432C8.87093 14.4653 8.88105 14.486 8.8965 14.5023C8.91195 14.5185 8.932 14.5297 8.95397 14.5343C8.97595 14.5389 8.9988 14.5367 9.01949 14.528Z" fill="#DADADA"/>
<path d="M10.8023 13.096C11.8043 12.5129 14.2011 9.58975 17.6051 13.0556C17.7559 13.2086 17.9647 12.858 17.8513 12.6221C17.3589 11.596 16.3177 9.88752 14.8151 9.81748C11.9427 9.68385 10.8934 11.6312 10.535 12.7029C10.4542 12.9448 10.6261 13.1987 10.8023 13.096Z" fill="#DADADA"/>
<path d="M17.3968 10.5951C18.1733 10.3158 20.2899 8.51111 21.9992 11.6161C22.0748 11.7536 22.2755 11.525 22.2394 11.3316C22.0817 10.492 21.6688 9.05983 20.6659 8.77537C18.7482 8.23224 17.7084 9.51917 17.2838 10.2608C17.1876 10.4284 17.2606 10.6441 17.3968 10.5951Z" fill="#DADADA"/>
<path d="M22.9344 10.3489C23.851 10.388 26.7514 9.435 27.337 13.2936C27.3632 13.4655 27.6602 13.3155 27.6967 13.1045C27.8557 12.1871 27.9773 10.5634 27.0414 9.8591C25.2522 8.51246 23.6726 9.38645 22.9448 9.96309C22.7802 10.0933 22.7737 10.3421 22.9344 10.3489Z" fill="#DADADA"/>
<path d="M28.6817 11.3218C29.2897 11.6888 31.5963 12.1189 30.6187 14.9604C30.5758 15.0859 30.8302 15.0954 30.9298 14.9652C31.3643 14.4006 32.0255 13.3418 31.6418 12.5159C30.9079 10.9356 29.5256 10.9429 28.8265 11.0645C28.6684 11.0911 28.5743 11.2578 28.6817 11.3218Z" fill="#DADADA"/>
<path d="M31.7381 14.6093C32.1218 15.0725 33.8715 16.0703 32.2077 18.0331C32.1338 18.119 32.3388 18.1998 32.46 18.1263C32.9863 17.8053 33.8483 17.1591 33.7877 16.3972C33.6712 14.941 32.5416 14.5496 31.9344 14.4469C31.7969 14.4237 31.6706 14.5285 31.7381 14.6093Z" fill="#DADADA"/>
<path d="M33.296 17.8671C35.7736 18.3535 38.1085 20.7383 38.1085 20.7383C38.1085 20.7383 42.6903 6.25353 28.9059 3.37892C13.215 0.105557 9.42644 13.2772 9.42644 13.2772C9.42644 13.2772 10.538 10.4494 13.3198 10.0262C16.1016 9.60295 16.7075 10.8095 16.7075 10.8095C16.7075 10.8095 16.3324 8.34439 20.5562 8.37404C20.5562 8.37404 21.9888 8.47115 22.2423 9.81221C22.2423 9.81221 26.9048 6.41767 28.2395 10.984C28.2395 10.984 32.5363 9.64162 31.9674 14.009C31.9674 14.009 34.2237 13.8753 34.2963 15.191C34.3689 16.5067 33.296 17.8671 33.296 17.8671Z" fill="#E20613"/>
<path d="M38.4238 24.3379C39.3686 24.3379 40.1344 23.5721 40.1344 22.6273C40.1344 21.6826 39.3686 20.9167 38.4238 20.9167C37.4791 20.9167 36.7132 21.6826 36.7132 22.6273C36.7132 23.5721 37.4791 24.3379 38.4238 24.3379Z" fill="white"/>
<path d="M38.4236 24.8965C37.9747 24.8969 37.5357 24.764 37.1622 24.5148C36.7887 24.2656 36.4976 23.9113 36.3255 23.4966C36.1535 23.0818 36.1083 22.6254 36.1958 22.185C36.2832 21.7446 36.4992 21.3401 36.8166 21.0225C37.134 20.7049 37.5384 20.4886 37.9788 20.401C38.4191 20.3133 38.8755 20.3582 39.2903 20.53C39.7051 20.7018 40.0597 20.9928 40.3091 21.3661C40.5585 21.7394 40.6916 22.1784 40.6915 22.6273C40.6908 23.2287 40.4517 23.8053 40.0266 24.2307C39.6015 24.6561 39.025 24.8955 38.4236 24.8965ZM38.4236 21.4749C38.1956 21.4746 37.9727 21.5419 37.7829 21.6683C37.5932 21.7947 37.4452 21.9746 37.3577 22.1851C37.2702 22.3957 37.2472 22.6275 37.2914 22.8511C37.3357 23.0748 37.4453 23.2803 37.6064 23.4416C37.7675 23.603 37.9729 23.7129 38.1965 23.7575C38.42 23.8021 38.6518 23.7794 38.8625 23.6922C39.0732 23.605 39.2533 23.4573 39.38 23.2678C39.5067 23.0782 39.5743 22.8553 39.5743 22.6273C39.5741 22.3221 39.4528 22.0293 39.2371 21.8133C39.0214 21.5973 38.7289 21.4756 38.4236 21.4749Z" fill="black"/>
<path d="M12.0316 18.8808C12.0316 18.8808 14.6527 18.9048 15.7463 17.9784C15.7463 17.9784 18.2849 19.4226 20.4922 17.8568C20.4922 17.8568 23.6899 19.2091 25.6996 17.9784C25.6996 17.9784 28.4564 20.0818 30.5671 18.6488L31.087 17.9784C31.087 17.9784 16.7565 14.9225 11.4502 18.0214L11.1997 19.1489L12.0316 18.8808Z" fill="#E7CDCC"/>
<path d="M10.7141 28.8364C10.7141 28.8364 10.1229 29.9965 10.0425 31.1627C9.96215 32.3289 12.0315 30.1482 12.0315 30.1482C12.0315 30.1482 18.592 43.9411 21.2866 44.5801C21.2866 44.5801 18.6066 45.9705 13.1947 37.0258L11.3204 32.591L9.24242 33.8164C9.24242 33.8164 8.49648 32.6271 8.68383 31.4622C8.87117 30.2973 9.5866 28.652 10.7141 28.8364Z" fill="#C5C5C5"/>
<path d="M21.2887 30.0854C20.3039 30.0854 19.1403 29.8495 17.7253 29.3648L18.0875 28.3078C19.3826 28.7521 20.4293 28.9682 21.2887 28.9682C22.1592 28.9682 23.2055 28.7534 24.4882 28.3082L24.8534 29.364C23.4517 29.8495 22.2856 30.0854 21.2887 30.0854Z" fill="#690A3F"/>
<path d="M12.2635 24.9798C11.2797 23.3426 10.7605 21.4684 10.7618 19.5584C10.7617 18.989 10.8074 18.4206 10.8984 17.8585L12.0014 18.0377C11.9199 18.5405 11.879 19.049 11.879 19.5584C11.8777 21.2653 12.3415 22.9403 13.2204 24.4036L12.2635 24.9798Z" fill="#690A3F"/>
<path d="M30.358 24.905L29.3963 24.3365C30.2494 22.8888 30.6989 21.2388 30.6978 19.5584C30.6978 19.246 30.6184 18.6402 30.5655 18.2389C30.553 18.1452 30.5419 18.0593 30.5324 17.9858L31.641 17.847C31.65 17.9183 31.6612 18.0021 31.6732 18.0936C31.733 18.5491 31.815 19.173 31.815 19.5584C31.8162 21.4389 31.313 23.2852 30.358 24.905Z" fill="#690A3F"/>
<path d="M15.7459 21.2971C15.5188 21.2972 15.2967 21.2299 15.1077 21.1037C14.9188 20.9776 14.7715 20.7982 14.6845 20.5884C14.5975 20.3785 14.5747 20.1476 14.619 19.9247C14.6632 19.7019 14.7726 19.4972 14.9332 19.3365C15.0938 19.1759 15.2985 19.0664 15.5213 19.0221C15.7441 18.9777 15.9751 19.0005 16.185 19.0874C16.3949 19.1743 16.5743 19.3215 16.7005 19.5104C16.8267 19.6993 16.8941 19.9214 16.8941 20.1485C16.8937 20.453 16.7727 20.7449 16.5574 20.9602C16.3422 21.1755 16.0504 21.2967 15.7459 21.2971ZM15.7459 20.1172C15.7397 20.1171 15.7336 20.1189 15.7284 20.1223C15.7232 20.1256 15.7191 20.1305 15.7167 20.1362C15.7142 20.142 15.7135 20.1483 15.7147 20.1544C15.7159 20.1605 15.7188 20.1661 15.7232 20.1706C15.7276 20.175 15.7331 20.178 15.7392 20.1793C15.7453 20.1805 15.7517 20.1799 15.7574 20.1776C15.7632 20.1752 15.7681 20.1712 15.7716 20.166C15.775 20.1608 15.7769 20.1548 15.7769 20.1485C15.7769 20.1403 15.7736 20.1324 15.7679 20.1265C15.7621 20.1206 15.7542 20.1173 15.7459 20.1172Z" fill="#690A3F"/>
<path d="M26.7148 21.2971C26.4876 21.2971 26.2656 21.2297 26.0767 21.1035C25.8878 20.9773 25.7406 20.798 25.6537 20.5881C25.5667 20.3782 25.544 20.1473 25.5883 19.9245C25.6326 19.7017 25.742 19.497 25.9026 19.3364C26.0633 19.1758 26.2679 19.0664 26.4907 19.0221C26.7135 18.9777 26.9444 19.0005 27.1543 19.0874C27.3642 19.1743 27.5436 19.3216 27.6698 19.5104C27.796 19.6993 27.8633 19.9214 27.8633 20.1485C27.863 20.4531 27.7419 20.745 27.5266 20.9603C27.3112 21.1756 27.0193 21.2968 26.7148 21.2971ZM26.7148 20.1172C26.7086 20.1172 26.7025 20.119 26.6974 20.1225C26.6922 20.1259 26.6882 20.1308 26.6858 20.1365C26.6834 20.1423 26.6828 20.1486 26.684 20.1547C26.6852 20.1608 26.6882 20.1663 26.6926 20.1707C26.697 20.1751 26.7026 20.1781 26.7087 20.1793C26.7147 20.1805 26.7211 20.1799 26.7268 20.1775C26.7325 20.1752 26.7374 20.1711 26.7409 20.166C26.7443 20.1608 26.7461 20.1548 26.7461 20.1485C26.7461 20.1402 26.7428 20.1322 26.737 20.1264C26.7311 20.1205 26.7231 20.1172 26.7148 20.1172Z" fill="#690A3F"/>
<path d="M26.3829 29.5841C25.707 29.5841 25.056 29.5265 24.518 29.3739C21.3869 28.4853 20.7299 26.7528 20.7299 25.4543C20.731 24.4095 21.1466 23.4079 21.8854 22.6691C22.6241 21.9303 23.6258 21.5148 24.6706 21.5137C25.7048 21.5137 26.969 22.376 28.5695 23.4679C30.2655 24.625 32.1871 25.936 34.0695 26.3369C34.6952 26.4697 34.7931 26.7971 34.8254 26.9045C34.8614 27.024 34.9113 27.3342 34.6105 27.6384C34.0236 28.2348 31.8756 28.8295 30.2144 29.1578C29.4336 29.3129 27.8502 29.5841 26.3829 29.5841ZM24.6706 22.6308C23.922 22.6316 23.2043 22.9294 22.6749 23.4587C22.1456 23.988 21.8479 24.7057 21.8471 25.4543C21.8471 26.7816 22.8483 27.7386 24.8231 28.2989C25.8445 28.5889 27.7789 28.5004 29.997 28.0625C31.3148 27.8021 32.3933 27.4837 33.0701 27.2255C31.2482 26.648 29.5037 25.4569 27.9401 24.3896C26.6716 23.5255 25.3602 22.6308 24.6706 22.6308Z" fill="#690A3F"/>
<path d="M16.1942 29.5841C14.7264 29.5841 13.1434 29.3129 12.3597 29.1578C10.6994 28.8295 8.55092 28.2348 7.96353 27.6384C7.66275 27.3342 7.71474 27.024 7.74869 26.9045C7.8776 26.4697 8.35025 26.3696 8.50451 26.3369C10.3878 25.936 12.3098 24.625 14.0045 23.4679C15.6051 22.376 16.8692 21.5137 17.9039 21.5137C18.9487 21.5148 19.9504 21.9303 20.6892 22.6691C21.4279 23.4079 21.8435 24.4095 21.8446 25.4543C21.8446 26.752 21.1872 28.4853 18.056 29.3739C17.5211 29.5265 16.8697 29.5841 16.1942 29.5841ZM9.50654 27.2255C10.1833 27.4833 11.2618 27.8021 12.5797 28.0625C14.7981 28.5004 16.7322 28.5889 17.754 28.2989C19.7284 27.7403 20.73 26.7816 20.73 25.4543C20.7292 24.7057 20.4315 23.988 19.9021 23.4587C19.3728 22.9294 18.6551 22.6316 17.9065 22.6308C17.2169 22.6308 15.905 23.5255 14.6366 24.3926C13.0742 25.4569 11.3284 26.648 9.50654 27.2255Z" fill="#690A3F"/>
<path d="M21.4157 45.7028C21.3723 45.7027 21.3291 45.6976 21.2868 45.6877C19.7309 45.3216 18.2124 44.3699 16.7751 42.8587C15.6519 41.6792 14.5704 40.1516 13.561 38.325C12.628 36.6191 11.8292 34.8431 11.1719 33.0132L9.58941 34.2593C9.51524 34.3176 9.4275 34.3562 9.33439 34.3715C9.24127 34.3867 9.14581 34.3781 9.05691 34.3465C8.96801 34.3149 8.88857 34.2613 8.826 34.1906C8.76343 34.12 8.71977 34.0347 8.6991 33.9426C7.72714 29.6316 10.0741 27.7779 10.1759 27.701L10.8548 28.5883L10.8583 28.5853C10.8536 28.5891 10.3826 28.9681 10.0182 29.7755C9.6255 30.6465 9.49703 31.6618 9.63367 32.8035L11.1015 31.6502C11.1726 31.5943 11.2562 31.5566 11.3452 31.5401C11.4341 31.5237 11.5257 31.5291 11.6121 31.5559C11.6985 31.5827 11.7771 31.6301 11.8412 31.694C11.9052 31.7578 11.9528 31.8363 11.9798 31.9227C12.015 32.0348 15.5801 43.1985 21.5455 44.6023C21.6791 44.6335 21.7967 44.7128 21.8756 44.8251C21.9545 44.9374 21.9893 45.0749 21.9734 45.2112C21.9574 45.3475 21.8919 45.4732 21.7892 45.5643C21.6865 45.6553 21.5538 45.7054 21.4166 45.7049L21.4157 45.7028Z" fill="#690A3F"/>
<path d="M21.1613 45.7029C21.024 45.7034 20.8914 45.6533 20.7887 45.5622C20.686 45.4712 20.6204 45.3455 20.6045 45.2092C20.5885 45.0728 20.6234 44.9354 20.7023 44.8231C20.7812 44.7108 20.8987 44.6315 21.0324 44.6003C26.9977 43.1965 30.5628 32.0328 30.5981 31.9202C30.6251 31.8339 30.6727 31.7555 30.7368 31.6916C30.8008 31.6278 30.8795 31.5805 30.9658 31.5537C31.0522 31.527 31.1438 31.5216 31.2327 31.538C31.3217 31.5545 31.4053 31.5923 31.4764 31.6482L32.9424 32.8002C33.2862 29.8607 31.7045 28.7134 31.6869 28.7014C31.5655 28.6164 31.4829 28.4866 31.4572 28.3407C31.4315 28.1948 31.4648 28.0446 31.5498 27.9232C31.6348 27.8019 31.7646 27.7192 31.9105 27.6935C32.0565 27.6678 32.2066 27.7011 32.328 27.7862C32.4315 27.8588 34.8541 29.6136 33.8783 33.9406C33.8576 34.0326 33.8139 34.1178 33.7514 34.1884C33.6889 34.259 33.6095 34.3125 33.5206 34.3442C33.4318 34.3758 33.3364 34.3844 33.2433 34.3692C33.1503 34.354 33.0626 34.3155 32.9884 34.2573L31.4055 33.0112C30.7479 34.841 29.949 36.617 29.016 38.323C28.0062 40.1517 26.9247 41.6771 25.8015 42.8566C24.3625 44.3678 22.8439 45.3196 21.2898 45.6857C21.2477 45.6963 21.2046 45.702 21.1613 45.7029Z" fill="#690A3F"/>
<path d="M31.8001 26.6642C31.6642 26.6655 31.5324 26.6173 31.4295 26.5285C31.3266 26.4397 31.2596 26.3165 31.2411 26.1818C31.2225 26.0472 31.2537 25.9104 31.3287 25.7971C31.4038 25.6838 31.5176 25.6017 31.6488 25.5663C32.8283 25.2342 33.6314 24.6872 33.9691 23.9851C34.0579 23.8035 34.116 23.6085 34.141 23.408C31.8899 22.8614 30.774 19.4725 30.7241 19.3182C30.6786 19.1772 30.6909 19.0238 30.7583 18.8919C30.8258 18.7599 30.943 18.6602 31.084 18.6146C31.225 18.569 31.3784 18.5813 31.5103 18.6488C31.6423 18.7163 31.742 18.8334 31.7876 18.9745C32.0884 19.8991 33.1948 22.3101 34.7069 22.3634C34.8318 22.3677 34.9517 22.4137 35.0474 22.4942C35.1431 22.5747 35.209 22.6849 35.2346 22.8073C35.2509 22.8825 35.3819 23.567 35.0171 24.3864C34.4315 25.7034 33.0273 26.3406 31.9526 26.6435C31.903 26.6574 31.8516 26.6643 31.8001 26.6642Z" fill="#690A3F"/>
<path d="M10.7772 26.6643C10.726 26.6645 10.6749 26.6575 10.6255 26.6437C9.55132 26.3408 8.14624 25.7036 7.56058 24.3866C7.1962 23.5671 7.32726 22.8827 7.34316 22.8075C7.36923 22.6857 7.43522 22.5762 7.53067 22.4962C7.62611 22.4163 7.74553 22.3705 7.86996 22.3662C9.3816 22.3129 10.4911 19.9019 10.7888 18.9772C10.8344 18.8362 10.9341 18.719 11.0661 18.6516C11.1981 18.5841 11.3514 18.5718 11.4924 18.6173C11.6335 18.6629 11.7506 18.7627 11.8181 18.8946C11.8856 19.0266 11.8979 19.1799 11.8523 19.321C11.8025 19.4752 10.6866 22.8642 8.43585 23.4107C8.46085 23.6113 8.51893 23.8063 8.60773 23.9878C8.94718 24.6899 9.74984 25.2369 10.928 25.5691C11.0577 25.6057 11.1698 25.688 11.2436 25.8008C11.3174 25.9136 11.3479 26.0492 11.3295 26.1827C11.3111 26.3163 11.2451 26.4386 11.1436 26.5273C11.0421 26.616 10.912 26.6649 10.7772 26.6652V26.6643Z" fill="#690A3F"/>
<path d="M13.0872 18.3851C12.6201 18.3826 12.1563 18.3078 11.7122 18.1634C10.9548 17.9146 10.2563 17.5137 9.65954 16.9852C9.55184 16.8834 9.48899 16.743 9.4848 16.5949C9.48061 16.4468 9.53542 16.3031 9.63719 16.1954C9.73896 16.0877 9.87934 16.0249 10.0274 16.0207C10.1756 16.0165 10.3193 16.0713 10.427 16.1731C10.9112 16.5937 11.4753 16.9122 12.0856 17.1098C13.1228 17.4308 14.0948 17.2598 14.9829 16.6019C14.6534 16.3179 14.2525 15.9191 13.9947 15.4722C13.9197 15.3444 13.8986 15.1921 13.936 15.0488C13.9734 14.9054 14.0662 14.7828 14.194 14.7078C14.3218 14.6329 14.4742 14.6118 14.6175 14.6492C14.7609 14.6866 14.8835 14.7794 14.9585 14.9072C15.3319 15.5444 16.168 16.1103 16.1762 16.1151C16.2452 16.1612 16.3031 16.2221 16.3456 16.2934C16.3881 16.3647 16.4142 16.4445 16.422 16.5272C16.4298 16.6098 16.419 16.6931 16.3906 16.7711C16.3621 16.8491 16.3166 16.9197 16.2574 16.9779C15.1608 18.0517 14.0475 18.3851 13.0872 18.3851Z" fill="#690A3F"/>
<path d="M18.6293 17.8716C17.5289 17.8716 16.4482 17.4848 15.6185 17.0814C15.5509 17.0503 15.4901 17.006 15.4399 16.9512C15.3896 16.8963 15.3508 16.832 15.3257 16.7619C15.3007 16.6918 15.2899 16.6175 15.294 16.5432C15.298 16.4689 15.3169 16.3961 15.3495 16.3293C15.3821 16.2624 15.4277 16.2026 15.4837 16.1536C15.5396 16.1046 15.6048 16.0672 15.6754 16.0438C15.746 16.0203 15.8206 16.0111 15.8948 16.0169C15.969 16.0226 16.0413 16.0431 16.1074 16.0772C17.571 16.79 18.8463 16.9439 19.7959 16.5223C20.4963 16.2121 20.7971 15.687 20.7971 15.6836L20.7945 15.6883L21.7798 16.2151C21.7368 16.2985 21.3174 17.0401 20.3274 17.5089C19.7955 17.7548 19.2153 17.8787 18.6293 17.8716Z" fill="#690A3F"/>
<path d="M23.5042 17.789C22.6251 17.789 21.6114 17.6146 20.4702 17.1497C20.333 17.0938 20.2236 16.9857 20.1661 16.8491C20.1086 16.7126 20.1077 16.5588 20.1636 16.4216C20.2195 16.2844 20.3276 16.175 20.4642 16.1175C20.6007 16.06 20.7545 16.0591 20.8917 16.115C22.6904 16.8476 24.3163 16.8644 25.7239 16.1644C26.7844 15.6372 27.3297 14.8754 27.3353 14.8689C27.42 14.7474 27.5495 14.6645 27.6954 14.6384C27.8412 14.6124 27.9915 14.6454 28.113 14.7301C28.2345 14.8148 28.3174 14.9444 28.3435 15.0902C28.3695 15.2361 28.3365 15.3863 28.2518 15.5078C28.2247 15.5469 27.5703 16.4768 26.2778 17.1364C25.4184 17.5715 24.4675 17.7953 23.5042 17.789Z" fill="#690A3F"/>
<path d="M29.143 18.507C28.9843 18.5072 28.8257 18.4976 28.6682 18.4782C27.594 18.3472 26.6701 17.7774 25.9203 16.7848C25.8744 16.7264 25.8405 16.6593 25.8208 16.5876C25.8011 16.5159 25.7959 16.441 25.8055 16.3673C25.8151 16.2936 25.8393 16.2225 25.8767 16.1582C25.9142 16.094 25.9641 16.0378 26.0235 15.9931C26.0829 15.9484 26.1507 15.916 26.2228 15.8978C26.2949 15.8796 26.3699 15.876 26.4434 15.8872C26.5169 15.8984 26.5875 15.9242 26.6509 15.963C26.7143 16.0018 26.7694 16.0529 26.8128 16.1132C27.3714 16.8549 28.043 17.2781 28.8044 17.3709C30.3478 17.56 31.8053 16.3947 31.8199 16.3826C31.935 16.2894 32.0825 16.2456 32.2298 16.2611C32.3772 16.2765 32.5123 16.3498 32.6056 16.4649C32.6989 16.58 32.7426 16.7275 32.7272 16.8748C32.7118 17.0222 32.6384 17.1573 32.5233 17.2506C32.4542 17.3047 30.9481 18.507 29.143 18.507Z" fill="#690A3F"/>
<path d="M9.94443 18.8654C9.9208 18.8654 9.89674 18.8654 9.87225 18.8654C9.31108 18.8371 8.7787 18.4701 8.28971 17.7749C8.08777 17.4853 7.91314 17.1776 7.76807 16.8558C7.7564 16.8293 7.74706 16.8018 7.74015 16.7737C7.71651 16.6822 7.17468 14.5135 8.36792 13.3053C9.10826 12.5559 10.2895 12.3728 11.8793 12.7613C12.0232 12.7964 12.1473 12.8873 12.2242 13.014C12.3011 13.1406 12.3246 13.2926 12.2894 13.4365C12.2543 13.5805 12.1634 13.7045 12.0368 13.7815C11.9101 13.8584 11.7581 13.8818 11.6142 13.8467C10.1442 13.487 9.47092 13.7796 9.16498 14.0886C8.56342 14.6962 8.69749 15.9586 8.81178 16.4519C8.92554 16.6938 9.05981 16.9255 9.21311 17.1445C9.47522 17.5132 9.74291 17.7388 9.92939 17.7482C10.1159 17.7577 10.3844 17.4939 10.6358 17.0436C10.7079 16.9142 10.8285 16.8187 10.971 16.7782C11.1135 16.7377 11.2663 16.7555 11.3957 16.8276C11.5251 16.8998 11.6205 17.0204 11.661 17.1629C11.7015 17.3054 11.6838 17.4581 11.6116 17.5875C11.1381 18.4362 10.5778 18.8654 9.94443 18.8654Z" fill="#690A3F"/>
<path d="M11.0712 13.164V13.1597L9.957 13.0793C9.96431 12.9753 10.1749 10.5235 13.1367 9.49701C14.7347 8.94314 15.8867 9.43213 16.572 9.94002C17.0209 10.2742 17.3949 10.6987 17.6699 11.1861C17.7383 11.3176 17.7516 11.4708 17.707 11.6121C17.6624 11.7534 17.5635 11.8712 17.4321 11.9396C17.3006 12.0079 17.1474 12.0213 17.0061 11.9767C16.8648 11.9321 16.747 11.8332 16.6786 11.7017C16.4747 11.3545 16.2013 11.0532 15.8755 10.8166C15.2 10.3315 14.4017 10.2434 13.5023 10.5549C11.2581 11.3305 11.0781 13.0896 11.0712 13.164Z" fill="#690A3F"/>
<path d="M22.4962 11.7106C22.3481 11.7106 22.206 11.6517 22.1013 11.547C21.9965 11.4422 21.9376 11.3001 21.9376 11.152C21.9248 10.761 21.8513 10.3744 21.7198 10.006C21.4723 9.34172 21.0718 8.98894 20.496 8.92664C20.0009 8.89257 19.5037 8.94802 19.0282 9.09035C18.0902 9.38254 17.4886 10.0069 17.2485 10.947C17.2314 11.0193 17.2 11.0874 17.1563 11.1474C17.1126 11.2074 17.0573 11.258 16.9938 11.2964C16.9303 11.3348 16.8597 11.3602 16.7863 11.371C16.7128 11.3818 16.638 11.3779 16.5661 11.3594C16.4942 11.341 16.4267 11.3084 16.3675 11.2635C16.3083 11.2187 16.2587 11.1625 16.2215 11.0983C16.1843 11.0341 16.1603 10.963 16.1508 10.8894C16.1414 10.8158 16.1467 10.741 16.1665 10.6695C16.5102 9.33184 17.3988 8.41316 18.7395 8.01226C19.3485 7.83373 19.985 7.76777 20.6176 7.81761C21.6214 7.92632 22.3897 8.5773 22.779 9.65066C22.949 10.1336 23.0421 10.6402 23.0548 11.152C23.0548 11.2254 23.0404 11.298 23.0123 11.3658C22.9842 11.4335 22.9431 11.4951 22.8912 11.547C22.8394 11.5989 22.7778 11.64 22.71 11.6681C22.6422 11.6961 22.5696 11.7106 22.4962 11.7106Z" fill="#690A3F"/>
<path d="M28.0544 13.836C27.9879 13.836 27.922 13.8241 27.8598 13.8007C27.721 13.7492 27.6084 13.6448 27.5466 13.5103C27.4848 13.3759 27.4789 13.2224 27.5302 13.0836C27.5392 13.0587 28.0252 11.6948 27.5603 10.7139C27.3656 10.3027 27.0287 10.0191 26.5312 9.8459C24.3544 9.08879 22.6287 10.2257 22.5561 10.2756C22.4955 10.3169 22.4274 10.3459 22.3556 10.3609C22.2838 10.3759 22.2097 10.3766 22.1376 10.363C22.0655 10.3494 21.9969 10.3217 21.9355 10.2815C21.8741 10.2413 21.8212 10.1894 21.7799 10.1288C21.7386 10.0682 21.7096 10.0001 21.6946 9.92828C21.6796 9.85648 21.6789 9.78242 21.6925 9.71034C21.7061 9.63826 21.7338 9.56957 21.774 9.50819C21.8142 9.44681 21.866 9.39395 21.9266 9.35262C22.0169 9.29074 24.1748 7.84485 26.8981 8.79402C27.6844 9.06773 28.2478 9.55543 28.5739 10.2446C29.2399 11.6583 28.6066 13.4016 28.5795 13.475C28.5392 13.5815 28.4673 13.6732 28.3735 13.7377C28.2796 13.8022 28.1683 13.8365 28.0544 13.836Z" fill="#690A3F"/>
<path d="M31.2568 15.6175C31.1443 15.6175 31.0344 15.5835 30.9416 15.5201C30.8487 15.4566 30.7772 15.3666 30.7363 15.2618C30.6954 15.157 30.6872 15.0423 30.7126 14.9327C30.738 14.8232 30.7959 14.7238 30.8787 14.6477C31.1239 14.4027 31.3191 14.1125 31.4536 13.793C31.7114 13.1622 31.6255 12.5688 31.1958 11.9789C30.7661 11.3889 30.22 11.1281 29.526 11.1814C29.1725 11.213 28.8283 11.3118 28.512 11.4727C28.3827 11.5452 28.23 11.5634 28.0874 11.5232C27.9447 11.4831 27.8239 11.388 27.7514 11.2587C27.6789 11.1295 27.6608 10.9768 27.7009 10.8341C27.741 10.6915 27.8362 10.5707 27.9654 10.4982C28.4082 10.2642 28.8926 10.1194 29.3911 10.0719C30.1594 10.0019 31.2529 10.1617 32.0981 11.3215C32.9433 12.4812 32.765 13.5601 32.4672 14.2614C32.2725 14.7165 31.9888 15.128 31.6328 15.4718C31.5301 15.5657 31.3959 15.6177 31.2568 15.6175Z" fill="#690A3F"/>
<path d="M32.1728 19.1472C31.5282 19.1472 30.9073 18.7407 30.3217 17.9363C30.2409 17.8164 30.2097 17.6698 30.2348 17.5274C30.2598 17.385 30.3391 17.2579 30.456 17.1727C30.5729 17.0876 30.7182 17.0511 30.8614 17.0709C31.0047 17.0907 31.1346 17.1653 31.224 17.2789C31.5983 17.7945 31.9545 18.0584 32.2222 18.027C32.6033 17.984 32.9827 17.3713 33.097 17.0989C33.1142 17.0581 33.1361 17.0194 33.1623 16.9837C33.314 16.774 33.6689 16.1072 33.4726 15.5756C33.2616 15.0041 32.4658 14.7029 31.8355 14.5508C31.763 14.5347 31.6946 14.5043 31.634 14.4614C31.5734 14.4186 31.522 14.3641 31.4828 14.3011C31.4435 14.2381 31.4172 14.168 31.4054 14.0947C31.3935 14.0215 31.3964 13.9466 31.4138 13.8745C31.4312 13.8024 31.4628 13.7344 31.5068 13.6746C31.5507 13.6149 31.6061 13.5645 31.6698 13.5263C31.7335 13.4882 31.8041 13.4632 31.8775 13.4526C31.951 13.4421 32.0258 13.4463 32.0976 13.465C33.4034 13.78 34.2198 14.3631 34.524 15.1975C34.9142 16.2696 34.2744 17.3313 34.1016 17.5892C33.9663 17.8869 33.3862 19.0162 32.3511 19.136C32.2919 19.1431 32.2324 19.1469 32.1728 19.1472Z" fill="#690A3F"/>
<path d="M38.1093 21.297C38.035 21.297 37.9614 21.2822 37.8929 21.2535C37.8243 21.2247 37.7622 21.1825 37.7102 21.1294C37.6882 21.1071 35.4625 18.8615 33.1881 18.4151C33.115 18.4022 33.0452 18.3748 32.9828 18.3346C32.9204 18.2944 32.8666 18.2422 32.8246 18.181C32.7826 18.1198 32.7532 18.0508 32.7382 17.9781C32.7232 17.9054 32.7228 17.8304 32.7371 17.7576C32.7513 17.6847 32.78 17.6154 32.8214 17.5538C32.8627 17.4921 32.916 17.4393 32.978 17.3985C33.04 17.3577 33.1095 17.3296 33.1825 17.3159C33.2554 17.3023 33.3304 17.3033 33.403 17.319C35.1991 17.6717 36.8865 18.9178 37.8013 19.6986C38.0277 18.6917 38.1753 17.6686 38.2425 16.6388C38.3745 14.5879 38.2172 11.6067 36.7193 9.05048C35.1815 6.42594 32.514 4.70161 28.7916 3.92516C25.3184 3.20071 22.1722 3.24926 19.4343 4.06996C17.2756 4.71302 15.309 5.87902 13.7091 7.4645C10.9213 10.2102 9.97081 13.4002 9.96307 13.432C9.92205 13.5745 9.82611 13.6948 9.69637 13.7665C9.56664 13.8382 9.41372 13.8554 9.27127 13.8144C9.12882 13.7734 9.00851 13.6775 8.93679 13.5477C8.86507 13.418 8.84783 13.2651 8.88885 13.1226C8.92924 12.9825 9.91065 9.65634 12.888 6.70438C14.6158 4.98003 16.7436 3.71008 19.0815 3.00778C22.0034 2.12391 25.3489 2.06246 29.0206 2.82989C33.0678 3.67422 35.9841 5.57989 37.6878 8.49016C38.9885 10.7134 39.5656 13.5669 39.3559 16.7402C39.199 19.1211 38.6645 20.8317 38.6417 20.9034C38.6059 21.0166 38.535 21.1154 38.4393 21.1855C38.3436 21.2557 38.228 21.2935 38.1093 21.2936V21.297Z" fill="#690A3F"/>
<path d="M38.4236 24.8965C37.9747 24.8969 37.5357 24.764 37.1622 24.5148C36.7887 24.2656 36.4976 23.9113 36.3255 23.4966C36.1535 23.0818 36.1083 22.6254 36.1958 22.185C36.2832 21.7446 36.4992 21.3401 36.8166 21.0225C37.134 20.7049 37.5384 20.4886 37.9788 20.401C38.4191 20.3133 38.8755 20.3582 39.2903 20.53C39.7051 20.7018 40.0597 20.9928 40.3091 21.3661C40.5585 21.7394 40.6916 22.1784 40.6915 22.6273C40.6908 23.2287 40.4517 23.8053 40.0266 24.2307C39.6015 24.6561 39.025 24.8955 38.4236 24.8965ZM38.4236 21.4749C38.1956 21.4746 37.9727 21.5419 37.7829 21.6683C37.5932 21.7947 37.4452 21.9746 37.3577 22.1851C37.2702 22.3957 37.2472 22.6275 37.2914 22.8511C37.3357 23.0748 37.4453 23.2803 37.6064 23.4416C37.7675 23.603 37.9729 23.7129 38.1965 23.7575C38.42 23.8021 38.6518 23.7794 38.8625 23.6922C39.0732 23.605 39.2533 23.4573 39.38 23.2678C39.5067 23.0782 39.5743 22.8553 39.5743 22.6273C39.5741 22.3221 39.4528 22.0293 39.2371 21.8133C39.0214 21.5973 38.7289 21.4756 38.4236 21.4749Z" fill="#690A3F"/>
<path d="M36.9064 13.2244C36.8234 13.2243 36.7426 13.1976 36.676 13.1482C36.6094 13.0987 36.5605 13.0292 36.5364 12.9498C36.114 11.5598 35.4669 10.318 34.6135 9.25964C33.9251 8.40764 33.1048 7.67129 32.1837 7.07855C30.5938 6.05116 29.2077 5.76843 29.1939 5.76585C29.0932 5.74619 29.0045 5.68734 28.9472 5.60225C28.8899 5.51715 28.8687 5.41279 28.8884 5.3121C28.9081 5.21142 28.9669 5.12267 29.052 5.06537C29.1371 5.00808 29.2415 4.98694 29.3421 5.00659C29.4036 5.01863 30.8628 5.3121 32.5743 6.40995C34.1516 7.42186 36.2476 9.33913 37.2763 12.7264C37.2911 12.775 37.2961 12.826 37.2912 12.8766C37.2862 12.9271 37.2713 12.9762 37.2474 13.021C37.2235 13.0659 37.1909 13.1055 37.1516 13.1377C37.1124 13.17 37.0671 13.1942 37.0185 13.2089C36.9821 13.2194 36.9443 13.2247 36.9064 13.2244Z" fill="#FE5B4A"/>
<path d="M16.3355 20.3633C16.2806 20.3634 16.2279 20.3425 16.1879 20.305C16.148 20.2674 16.1239 20.216 16.1206 20.1613C16.1 19.8094 15.7971 19.7746 15.7365 19.7746C15.6795 19.7726 15.6257 19.748 15.5868 19.7062C15.548 19.6645 15.5273 19.609 15.5294 19.552C15.5314 19.4951 15.556 19.4412 15.5978 19.4024C15.6395 19.3636 15.695 19.3429 15.7519 19.3449C16.0123 19.3531 16.5133 19.5288 16.5499 20.1368C16.5532 20.1937 16.5337 20.2495 16.4959 20.2921C16.458 20.3346 16.4048 20.3604 16.3479 20.3637L16.3355 20.3633Z" fill="white"/>
<path d="M27.2664 20.3634C27.2116 20.3635 27.1588 20.3426 27.1189 20.3051C27.0789 20.2676 27.0548 20.2162 27.0516 20.1614C27.0516 20.0596 27.0114 19.9619 26.9398 19.8895C26.8682 19.8171 26.771 19.7759 26.6692 19.7747C26.6122 19.773 26.5582 19.7486 26.5192 19.7071C26.4802 19.6655 26.4592 19.6102 26.461 19.5532C26.4627 19.4962 26.4871 19.4423 26.5286 19.4032C26.5701 19.3642 26.6255 19.3433 26.6825 19.345C26.9428 19.3532 27.4443 19.5289 27.4804 20.137C27.4836 20.1938 27.4642 20.2497 27.4263 20.2922C27.3885 20.3347 27.3353 20.3605 27.2784 20.3638L27.2664 20.3634Z" fill="white"/>
</svg>
