<svg width="61" height="61" viewBox="0 0 61 61" fill="none" xmlns="http://www.w3.org/2000/svg">
<path d="M7.01205 40.0821C6.37968 38.8627 5.93105 37.5564 5.68074 36.2057C4.1318 27.871 10.4044 19.5579 20.0529 16.4658C20.0529 16.4658 29.4548 24.8628 43.7478 21.7725C46.2318 21.2354 46.56 25.9765 47.0331 28.5221C48.7473 37.7471 40.8804 46.9453 29.4606 49.0674C21.3464 50.5756 13.6221 48.1044 9.2156 43.2382" fill="#F3F3F3"/>
<path d="M35.1022 31.8317C35.7157 31.2181 35.488 29.9957 34.5936 29.1013C33.6992 28.2069 32.4768 27.9792 31.8633 28.5928C31.2498 29.2063 31.4775 30.4287 32.3719 31.3231C33.2662 32.2175 34.4886 32.4452 35.1022 31.8317Z" fill="black"/>
<path d="M34.1883 32.645C33.4849 32.645 32.6935 32.3028 32.043 31.6523C30.9503 30.5596 30.7274 29.0712 31.5345 28.2635C31.9371 27.8609 32.5481 27.7009 33.2091 27.8237C33.816 27.94 34.4246 28.2734 34.9232 28.7721C35.4219 29.2707 35.7582 29.8776 35.8711 30.4863C35.9945 31.1478 35.8339 31.7576 35.4318 32.1603C35.1048 32.4873 34.6666 32.645 34.1883 32.645ZM32.7732 28.7139C32.5806 28.7139 32.3572 28.7581 32.1914 28.9222C31.7678 29.3458 32.0005 30.2942 32.6999 30.9936C33.3993 31.693 34.3478 31.9246 34.7714 31.5022C35.195 31.0798 34.9622 30.1296 34.2628 29.4302C33.9015 29.0688 33.4546 28.8169 33.0368 28.7389C32.9499 28.7229 32.8617 28.7146 32.7732 28.7139V28.7139Z" fill="black"/>
<path d="M14.2568 31.3183C15.1452 30.4117 15.3612 29.1826 14.7392 28.5731C14.1172 27.9636 12.8927 28.2044 12.0043 29.111C11.1159 30.0176 10.8999 31.2467 11.5219 31.8562C12.1439 32.4658 13.3683 32.2249 14.2568 31.3183Z" fill="black"/>
<path d="M12.4223 32.6563C11.9254 32.6563 11.496 32.4887 11.1812 32.1716C10.3759 31.3599 10.5993 29.8639 11.6898 28.7653C12.3095 28.141 13.113 27.7686 13.8392 27.7686C14.3367 27.7686 14.7655 27.9362 15.0803 28.2533C15.8862 29.0644 15.6622 30.561 14.5723 31.6595C13.9527 32.2833 13.1491 32.6563 12.4223 32.6563ZM13.8392 28.6996C13.3557 28.6996 12.7988 28.969 12.3502 29.4211C11.649 30.1275 11.4163 31.087 11.8422 31.5158C12.0168 31.6904 12.2524 31.7253 12.4241 31.7253C12.9082 31.7253 13.4645 31.4553 13.9131 31.0032C14.6142 30.2968 14.8476 29.3379 14.4216 28.9085C14.2477 28.7357 14.0091 28.6996 13.8392 28.6996V28.6996Z" fill="black"/>
<path d="M46.8061 16.828L47.7801 19.2177C47.8387 19.3607 47.8664 19.5144 47.8617 19.6688C47.857 19.8232 47.8198 19.9748 47.7527 20.1139C47.6855 20.253 47.5898 20.3765 47.4719 20.4762C47.3539 20.5759 47.2163 20.6497 47.0679 20.6928C30.4963 25.4897 19.4193 15.9663 16.5105 13.0511C16.41 12.9495 16.3313 12.8285 16.2793 12.6954C16.2273 12.5623 16.2031 12.42 16.2082 12.2772C16.2132 12.1344 16.2475 11.9941 16.3088 11.865C16.3701 11.736 16.4571 11.6208 16.5646 11.5266L18.3952 9.92821C18.5827 9.76495 18.8249 9.67831 19.0734 9.68554C19.3219 9.69276 19.5586 9.79332 19.7364 9.9672C20.3919 10.6081 21.0802 11.2147 21.7985 11.7844C25.9635 15.101 34.6462 20.1592 45.6738 16.3136C45.8925 16.238 46.1319 16.2491 46.3426 16.3448C46.5533 16.4406 46.7192 16.6135 46.8061 16.828V16.828Z" fill="#124379"/>
<path d="M37.9926 22.7791C26.2424 22.7791 18.4418 16.0567 15.9759 13.5855C15.8018 13.4109 15.6655 13.2023 15.5754 12.9728C15.4852 12.7434 15.4432 12.4978 15.4518 12.2514C15.4604 12.005 15.5195 11.763 15.6255 11.5404C15.7315 11.3178 15.882 11.1193 16.0678 10.9572L17.9007 9.35764C18.2325 9.07027 18.6601 8.91792 19.0989 8.93074C19.5376 8.94356 19.9556 9.12062 20.2701 9.42688C20.9071 10.0497 21.5758 10.6394 22.2734 11.1934C26.3378 14.4356 34.758 19.3198 45.426 15.5994C45.8278 15.4597 46.2678 15.4798 46.6552 15.6555C47.0426 15.8311 47.3477 16.1489 47.5074 16.5432L48.4814 18.9329C48.5796 19.174 48.6261 19.433 48.6178 19.6932C48.6095 19.9533 48.5467 20.2089 48.4334 20.4432C48.32 20.6776 48.1587 20.8855 47.9599 21.0535C47.7611 21.2216 47.5292 21.3459 47.2793 21.4186C43.9632 22.3805 40.8589 22.7791 37.9926 22.7791ZM19.0464 10.4434C18.99 10.4436 18.9356 10.4643 18.8934 10.5016L17.0628 12.0959C17.0331 12.1217 17.009 12.1533 16.992 12.1888C16.9749 12.2243 16.9654 12.2629 16.9639 12.3023C16.9625 12.3416 16.9691 12.3808 16.9834 12.4175C16.9977 12.4542 17.0194 12.4875 17.0471 12.5154C19.3932 14.8674 26.8173 21.2621 38.0031 21.2627C40.7379 21.2627 43.6938 20.8816 46.8586 19.9651C46.9047 19.9519 46.9475 19.9291 46.9841 19.8981C47.0207 19.8671 47.0503 19.8287 47.071 19.7853C47.0923 19.7417 47.1042 19.6941 47.1058 19.6455C47.1074 19.597 47.0987 19.5486 47.0803 19.5037L46.1062 17.114C46.0926 17.0791 46.0662 17.0507 46.0323 17.0347C45.9984 17.0187 45.9597 17.0162 45.9241 17.0278C43.0217 18.0403 40.28 18.4552 37.729 18.4558C30.3067 18.4558 24.5387 14.9343 21.3285 12.3764C20.5894 11.7897 19.8811 11.1653 19.2064 10.5057C19.1853 10.4848 19.1604 10.4683 19.1329 10.4571C19.1054 10.4459 19.076 10.4403 19.0464 10.4405V10.4434Z" fill="black"/>
<path d="M43.7436 16.9045L43.3858 5.42185C43.3858 5.42185 38.9316 -0.222278 28.8129 2.28267C28.4532 2.41928 28.1433 2.66147 27.9238 2.97742L21.7985 11.7846C21.7985 11.7846 31.8165 19.3326 43.7436 16.9045Z" fill="#124379"/>
<path d="M38.9141 18.1415C37.6654 18.1402 36.4184 18.0522 35.182 17.8779C32.7286 17.5241 30.326 16.8795 28.025 15.9577C23.9816 14.3552 21.4545 12.4665 21.3492 12.3879C21.193 12.2702 21.0885 12.0966 21.0576 11.9035C21.0267 11.7104 21.0718 11.5128 21.1834 11.3522L27.3058 2.54563C27.6122 2.10382 28.0457 1.76555 28.5487 1.57565C28.5772 1.56518 28.6069 1.55587 28.6354 1.5483C31.0269 0.957124 33.3148 0.760452 35.4351 0.966434C37.1487 1.1311 38.7564 1.55587 40.2151 2.22909C42.7288 3.38934 43.9333 4.89172 43.9833 4.95515C44.0837 5.08231 44.1406 5.23834 44.1457 5.40028L44.5018 16.8829C44.5073 17.0612 44.4496 17.2358 44.3388 17.3757C44.2281 17.5156 44.0715 17.6119 43.8966 17.6475C42.2566 17.9789 40.5873 18.1444 38.9141 18.1415V18.1415ZM22.8545 11.5949C24.6713 12.7793 26.604 13.7757 28.6226 14.5688C30.8067 15.4408 33.0868 16.05 35.4147 16.3836C37.9924 16.7415 40.5294 16.7066 42.9668 16.2812L42.6392 5.7139C42.1592 5.19837 41.0682 4.27552 39.4971 3.5639C38.1441 2.96186 36.7 2.59016 35.2245 2.46416C33.3043 2.2896 31.2276 2.46998 29.045 3.00472C28.8443 3.09036 28.6721 3.23145 28.5487 3.41145L22.8545 11.5949Z" fill="black"/>
<path d="M26.9328 39.2907C27.6869 31.5158 21.7995 30.6651 21.7995 30.6651L1.21069 44.8307L8.83318 42.7942L26.9328 39.2907Z" fill="#FA6F00"/>
<path d="M1.20966 45.5876C1.04814 45.5876 0.890836 45.536 0.760775 45.4402C0.630715 45.3445 0.534726 45.2096 0.48686 45.0553C0.438994 44.901 0.441763 44.7355 0.494764 44.5829C0.547764 44.4303 0.648211 44.2987 0.781403 44.2074L21.3708 30.0418C21.5277 29.9338 21.7194 29.8889 21.9079 29.9161C21.9771 29.926 23.6151 30.1756 25.1419 31.4871C27.6649 33.6575 27.9174 36.9672 27.6853 39.3621C27.6695 39.5245 27.6017 39.6775 27.4919 39.7982C27.3821 39.9189 27.2363 40.0009 27.0761 40.0319L8.99797 43.5336L1.40517 45.5614C1.34143 45.5786 1.27569 45.5874 1.20966 45.5876V45.5876ZM21.9585 31.4737L5.25132 42.9686L8.63489 42.0649C8.65194 42.0602 8.66922 42.0563 8.68667 42.0533L26.2213 38.6575C26.3743 35.9728 25.6802 33.9484 24.1539 32.6363C23.5166 32.0919 22.767 31.695 21.9585 31.4737Z" fill="black"/>
<path d="M44.7711 39.2905C46.3893 37.5664 47.9656 42.8929 48.7028 44.8305C48.9571 45.4996 49.1526 46.1269 49.2992 46.6593C49.4313 47.1423 49.4264 47.6525 49.285 48.1328C49.1436 48.6131 48.8713 49.0446 48.4986 49.379C30.6387 65.4322 14.3179 58.1513 8.45785 54.5576C7.5837 54.0229 6.88762 53.2411 6.45752 52.311C6.02743 51.3809 5.88261 50.3442 6.04135 49.3318C6.31308 47.62 7.05788 45.3839 8.83083 42.7934C8.83083 42.7957 25.4426 59.8858 44.7711 39.2905Z" fill="#98D639"/>
<path d="M48.7024 44.8306L57.5014 39.2906C57.5014 39.2906 56.7264 33.6994 52.7155 29.4884C52.1246 28.868 51.4808 28.3003 50.7913 27.7917L47.2198 29.9504C47.2198 29.9504 48.5069 34.848 45.8146 38.6593C45.8146 38.6593 48.8298 42.5246 48.7024 44.8306Z" fill="#98D639"/>
<path d="M52.7159 30.2456C52.5494 30.2458 52.3876 30.1912 52.2554 30.0901C52.1232 29.989 52.028 29.8472 51.9846 29.6865C51.9412 29.5258 51.9519 29.3553 52.0152 29.2014C52.0785 29.0475 52.1909 28.9188 52.3347 28.8352L55.2563 27.1355C55.3422 27.0832 55.4377 27.0485 55.5372 27.0336C55.6367 27.0186 55.7382 27.0236 55.8357 27.0484C55.9332 27.0731 56.0249 27.1171 56.1052 27.1777C56.1855 27.2383 56.2529 27.3143 56.3035 27.4012C56.3541 27.4882 56.3868 27.5844 56.3998 27.6842C56.4128 27.784 56.4057 27.8853 56.379 27.9823C56.3523 28.0794 56.3065 28.1701 56.2443 28.2492C56.1821 28.3283 56.1047 28.3941 56.0168 28.443L53.0958 30.1426C52.9805 30.21 52.8494 30.2456 52.7159 30.2456V30.2456Z" fill="black"/>
<path d="M55.0595 33.3875C54.892 33.3876 54.7292 33.3322 54.5966 33.2298C54.464 33.1274 54.3691 32.984 54.3268 32.8219C54.2846 32.6598 54.2973 32.4883 54.363 32.3342C54.4287 32.1802 54.5437 32.0523 54.69 31.9706L57.824 30.2175C57.9108 30.1674 58.0067 30.135 58.1061 30.1222C58.2055 30.1095 58.3064 30.1166 58.403 30.1432C58.4997 30.1698 58.59 30.2153 58.6689 30.2771C58.7478 30.339 58.8136 30.4158 58.8625 30.5033C58.9114 30.5907 58.9425 30.6871 58.9539 30.7866C58.9652 30.8862 58.9567 30.987 58.9288 31.0832C58.9009 31.1795 58.8541 31.2692 58.7912 31.3472C58.7283 31.4253 58.6506 31.49 58.5624 31.5377L55.4307 33.2909C55.3173 33.3544 55.1895 33.3877 55.0595 33.3875V33.3875Z" fill="black"/>
<path d="M56.8852 37.5357C56.7209 37.5366 56.5607 37.484 56.4289 37.3857C56.2971 37.2874 56.2009 37.1489 56.1549 36.9911C56.1089 36.8333 56.1155 36.6648 56.1738 36.5111C56.2321 36.3574 56.3388 36.2268 56.4779 36.1392L59.382 34.2854C59.5511 34.1774 59.7561 34.1409 59.952 34.1841C60.148 34.2273 60.3187 34.3465 60.4267 34.5155C60.5347 34.6846 60.5712 34.8896 60.528 35.0856C60.4849 35.2815 60.3657 35.4522 60.1966 35.5603L57.2925 37.4164C57.1712 37.4947 57.0297 37.5361 56.8852 37.5357V37.5357Z" fill="black"/>
<path d="M52.0965 43.4493C51.9229 43.449 51.7547 43.3889 51.6202 43.2793C51.4856 43.1696 51.3929 43.017 51.3575 42.8471C50.5429 38.9242 49.3337 36.6508 48.465 35.4347C47.5369 34.136 46.7927 33.7438 46.7852 33.7398L46.7945 33.7444L47.4485 32.3799C47.5503 32.4288 48.4755 32.9001 49.5898 34.4101C51.0281 36.3582 52.1215 39.0929 52.8383 42.5387C52.8586 42.636 52.8595 42.7363 52.841 42.8339C52.8225 42.9316 52.7849 43.0246 52.7305 43.1077C52.676 43.1908 52.6057 43.2623 52.5236 43.3183C52.4414 43.3742 52.3491 43.4134 52.2518 43.4336C52.2007 43.444 52.1486 43.4493 52.0965 43.4493V43.4493Z" fill="black"/>
<path d="M49.3331 48.7017H49.3209C44.187 48.6255 39.9999 44.9114 39.8241 44.7531C39.7503 44.6867 39.6902 44.6063 39.6474 44.5167C39.6046 44.4271 39.5799 44.3298 39.5747 44.2306C39.5694 44.1314 39.5838 44.0322 39.6169 43.9385C39.65 43.8449 39.7013 43.7586 39.7677 43.6848C39.8341 43.6109 39.9145 43.5509 40.0041 43.5081C40.0938 43.4653 40.191 43.4406 40.2902 43.4353C40.3894 43.4301 40.4886 43.4444 40.5823 43.4775C40.6759 43.5107 40.7622 43.5619 40.836 43.6284C40.889 43.6755 44.7927 47.1196 49.343 47.1888C49.5436 47.1902 49.7355 47.2713 49.8763 47.4141C50.0172 47.557 50.0956 47.7499 50.0942 47.9505C50.0928 48.1511 50.0118 48.343 49.8689 48.4839C49.7261 48.6248 49.5331 48.7031 49.3325 48.7017H49.3331Z" fill="black"/>
<path d="M42.2681 54.8811H42.2291C39.6689 54.7525 37.1913 53.5905 35.0675 51.522C33.4842 49.9794 32.651 48.4811 32.6161 48.4183C32.5207 48.2427 32.4986 48.0365 32.5547 47.8447C32.6109 47.6529 32.7406 47.4911 32.9156 47.3947C33.0906 47.2982 33.2967 47.2749 33.4888 47.3299C33.6809 47.3849 33.8435 47.5136 33.941 47.688V47.688C34.5522 48.7083 35.2957 49.6434 36.1521 50.4688C38.0274 52.2831 40.0965 53.2618 42.303 53.37C42.4023 53.3724 42.5002 53.3944 42.591 53.4347C42.6819 53.475 42.7639 53.5327 42.8324 53.6047C42.9009 53.6767 42.9546 53.7614 42.9903 53.8541C43.0261 53.9469 43.0432 54.0457 43.0408 54.145C43.0383 54.2444 43.0163 54.3422 42.9761 54.4331C42.9358 54.5239 42.878 54.6059 42.8061 54.6745C42.7341 54.743 42.6493 54.7966 42.5566 54.8324C42.4639 54.8681 42.3651 54.8853 42.2657 54.8828L42.2681 54.8811Z" fill="black"/>
<path d="M33.9167 58.7687C33.8002 58.7686 33.6853 58.7415 33.5809 58.6896C26.158 55.0017 25.6203 49.7405 25.6011 49.5182C25.5882 49.3211 25.6529 49.1267 25.7814 48.9767C25.9098 48.8266 26.0919 48.7328 26.2887 48.7152C26.4855 48.6977 26.6813 48.7578 26.8343 48.8827C26.9873 49.0076 27.0854 49.1875 27.1076 49.3838C27.1076 49.41 27.2385 50.5661 28.1643 52.1034C29.0284 53.5395 30.7868 55.6121 34.2542 57.3344C34.4072 57.4102 34.5302 57.5356 34.6029 57.6901C34.6757 57.8447 34.694 58.0193 34.6548 58.1856C34.6157 58.3518 34.5215 58.5 34.3874 58.6059C34.2534 58.7118 34.0875 58.7692 33.9167 58.7687V58.7687Z" fill="black"/>
<path d="M25.0678 60.1141C24.9451 60.1142 24.8243 60.0842 24.7158 60.0268C20.7352 57.928 18.9553 54.9384 18.1669 52.8001C17.3057 50.4726 17.3959 48.6374 17.4006 48.5606C17.4114 48.36 17.5016 48.1719 17.6511 48.0377C17.8007 47.9035 17.9974 47.8343 18.198 47.8452C18.3986 47.856 18.5867 47.9462 18.7209 48.0957C18.855 48.2453 18.9243 48.442 18.9134 48.6426C18.9134 48.6717 18.8442 50.3004 19.6117 52.3381C20.6357 55.0583 22.5908 57.1949 25.4239 58.6885C25.5735 58.7674 25.6924 58.8941 25.7615 59.0484C25.8307 59.2027 25.8461 59.3758 25.8054 59.5399C25.7646 59.704 25.6701 59.8497 25.5368 59.9538C25.4036 60.0579 25.2393 60.1144 25.0702 60.1141H25.0678Z" fill="black"/>
<path d="M14.4712 58.2065C14.3487 58.2067 14.2279 58.1771 14.1194 58.1202C14.0108 58.0633 13.9177 57.9809 13.848 57.8801C11.3902 54.3249 10.9759 51.2351 11.0597 49.2713C11.1528 47.0969 11.8604 45.7673 11.89 45.712C11.9851 45.5353 12.1465 45.4036 12.3386 45.3459C12.5308 45.2882 12.738 45.3091 12.9147 45.4042C13.0914 45.4993 13.2231 45.6606 13.2808 45.8528C13.3386 46.045 13.3176 46.2522 13.2225 46.4289C13.2126 46.4469 12.6302 47.5746 12.5679 49.4232C12.483 51.9165 13.3325 54.4727 15.0926 57.0201C15.171 57.1336 15.2169 57.2663 15.2253 57.4039C15.2338 57.5416 15.2044 57.6789 15.1404 57.8011C15.0764 57.9233 14.9802 58.0256 14.8623 58.0971C14.7444 58.1685 14.6091 58.2064 14.4712 58.2065V58.2065Z" fill="black"/>
<path d="M22.1043 40.2239C21.5923 37.5526 20.5851 35.8599 19.8304 34.9092C19.0158 33.8851 18.3129 33.4801 18.3059 33.4761L19.0373 32.1517C19.177 32.2285 22.4703 34.0911 23.5904 39.9394L22.1043 40.2239Z" fill="black"/>
<path d="M17.9258 41.0002C17.4225 37.5171 15.1399 35.5231 15.1166 35.5033L16.097 34.3483C16.2087 34.4425 18.8353 36.7107 19.4235 40.7814L17.9258 41.0002Z" fill="black"/>
<path d="M14.4711 42.4602C14.4583 42.4602 14.4455 42.4602 14.4327 42.4602C14.2324 42.4502 14.0443 42.3611 13.9096 42.2125C13.775 42.0639 13.7049 41.8679 13.7147 41.6676C13.8613 38.7065 12.1076 37.9169 12.0331 37.8855L12.0418 37.889L12.6051 36.4826C12.7214 36.5286 15.4294 37.6603 15.2275 41.741C15.218 41.9351 15.1341 42.118 14.9932 42.2519C14.8524 42.3858 14.6654 42.4604 14.4711 42.4602V42.4602Z" fill="black"/>
<path d="M11.2232 43.089C11.1743 43.0889 11.1256 43.0842 11.0777 43.075C10.9802 43.056 10.8874 43.0179 10.8046 42.963C10.7218 42.9082 10.6506 42.8375 10.5951 42.7551C10.5396 42.6727 10.5009 42.5802 10.4812 42.4828C10.4614 42.3854 10.4611 42.2852 10.4801 42.1876C10.8118 40.4851 9.42926 39.8555 9.271 39.7898H9.27623L9.83541 38.384C10.7751 38.7575 12.4294 40.0935 11.965 42.4757C11.9318 42.6481 11.8396 42.8036 11.7042 42.9155C11.5689 43.0275 11.3988 43.0888 11.2232 43.089V43.089Z" fill="black"/>
<path d="M7.78456 43.8315C7.71184 43.8316 7.6395 43.821 7.56985 43.8001C7.3779 43.7432 7.21634 43.6125 7.12057 43.4367C7.02481 43.2608 7.00265 43.0542 7.05896 42.8621C7.27426 42.1359 6.58765 41.7507 6.448 41.6809L6.4544 41.6838L7.10377 40.3176C7.79736 40.6469 8.98321 41.6925 8.50957 43.2915C8.46296 43.4476 8.36723 43.5844 8.2366 43.6817C8.10597 43.779 7.94743 43.8315 7.78456 43.8315Z" fill="black"/>
<path d="M28.6529 3.30624C28.6529 3.30624 39.3738 3.21664 38.9135 9.27331C38.4533 15.33 23.7332 12.3072 23.7332 12.3072C23.7332 12.3072 32.9331 20.8217 43.185 16.4658V5.19324C43.185 5.19324 33.604 -0.878558 28.6529 3.30624Z" fill="#123166"/>
<path opacity="0.4" d="M22.2644 20.0529C24.2719 22.1621 28.0662 24.9249 34.7001 26.0007C34.8834 26.0306 35.0517 26.1204 35.1784 26.2562C36.4335 27.5997 42.7602 35.6324 27.6851 40.0832C27.6613 40.0901 27.3075 39.4478 27.2831 39.453L11.2235 42.7353C11.0663 42.7676 10.9215 42.8438 10.8059 42.9551C10.6903 43.0664 10.6087 43.2082 10.5706 43.3641C10.5325 43.52 10.5395 43.6835 10.5907 43.8356C10.6419 43.9877 10.7352 44.1221 10.8598 44.2232C15.0434 47.5939 28.7302 56.2481 43.7499 40.1623C43.8128 40.0948 43.8768 40.029 43.9414 39.9639C44.7618 39.1382 51.0763 31.532 43.4445 22.6596C43.3651 22.5675 43.2669 22.4935 43.1565 22.4426C43.0461 22.3917 42.926 22.3651 42.8044 22.3646C40.8656 22.3646 31.8501 22.1633 23.1954 18.682C22.3523 18.3422 21.6378 19.3913 22.2644 20.0529Z" fill="#DADADA"/>
<path d="M11.7906 39.8806C11.6966 39.8806 11.6051 39.8503 11.5297 39.7941C11.4544 39.7379 11.3992 39.6588 11.3724 39.5687C11.3456 39.4786 11.3486 39.3822 11.3809 39.2939C11.4133 39.2057 11.4733 39.1302 11.5521 39.0788L22.2497 32.1004C22.3466 32.0379 22.4644 32.0163 22.5772 32.0403C22.69 32.0643 22.7887 32.132 22.8518 32.2285C22.9148 32.3251 22.9371 32.4427 22.9137 32.5557C22.8903 32.6686 22.8231 32.7677 22.7269 32.8313L12.031 39.8097C11.9597 39.8566 11.876 39.8813 11.7906 39.8806Z" fill="#F3970D"/>
<path d="M7.86051 32.7306C7.81266 32.7305 7.76499 32.7246 7.71854 32.7131C7.56885 32.6756 7.44018 32.5802 7.36085 32.4478C7.28152 32.3154 7.25802 32.157 7.29552 32.0073C8.50173 27.1923 11.3186 23.9077 13.4691 21.9992C15.7966 19.9324 17.8285 19.0095 17.9135 18.9734C17.9833 18.941 18.0589 18.9227 18.1359 18.9197C18.2128 18.9167 18.2896 18.929 18.3618 18.9559C18.434 18.9828 18.5001 19.0237 18.5563 19.0764C18.6126 19.129 18.6578 19.1923 18.6894 19.2625C18.7209 19.3328 18.7383 19.4086 18.7403 19.4856C18.7424 19.5626 18.7291 19.6392 18.7013 19.7111C18.6735 19.7829 18.6318 19.8485 18.5784 19.9041C18.5251 19.9596 18.4612 20.0041 18.3906 20.0348C18.3714 20.0435 16.4122 20.9396 14.2104 22.8993C12.1943 24.695 9.5555 27.7818 8.42434 32.2913C8.39262 32.4168 8.31995 32.5281 8.21783 32.6077C8.11571 32.6873 7.98997 32.7305 7.86051 32.7306Z" fill="white"/>
<path opacity="0.5" d="M24.8674 33.8951C24.8674 33.8951 17.0529 39.7894 5.2002 43.0752L26.3535 39.0889C26.3535 39.0889 28.6786 34.2123 24.8674 33.8951Z" fill="#B73F39"/>
<path d="M12.7472 46.8085C12.7472 46.8085 10.8951 54.6452 14.48 56.8138C18.0649 58.9824 22.6023 58.734 22.8473 58.734C23.0923 58.734 17.2532 52.4358 18.1522 49.1529L12.7472 46.8085Z" fill="#F3D427"/>
<path d="M47.5171 33.3196V29.7702L51.056 27.9891C51.056 27.9891 57.4967 34.7812 57.694 39.2919L52.3617 42.5288C52.3617 42.5288 49.1178 33.6798 47.5171 33.3196Z" fill="#F3D427"/>
<path d="M26.7889 50.0943C26.7889 50.0943 31.0249 58.173 34.885 57.6132C38.7451 57.0535 41.6277 54.122 41.7924 53.9754C41.9571 53.8288 34.8728 51.5851 33.2785 48.6024L26.7889 50.0943Z" fill="#F3D427"/>
<path d="M40.7092 44.093C40.7092 44.093 45.1611 47.6959 46.7636 47.9863C50.6039 48.681 49.4588 47.4364 49.4145 47.2194C48.6831 43.6356 47.0289 42.5644 45.4363 39.58L40.7092 44.093Z" fill="#F3D427"/>
<path opacity="0.4" d="M8.75049 44.1913C8.75049 44.1913 16.3532 59.8709 44.5395 46.883C44.5395 46.883 47.5163 45.806 49.0117 44.8308C49.0117 44.8308 46.2042 40.0851 45.4391 39.58C45.4391 39.58 36.7075 48.8742 24.259 49.1552C24.2596 49.1552 18.0825 50.4452 8.75049 44.1913Z" fill="#227B39"/>
<path opacity="0.4" d="M49.6125 44.6398C49.6125 44.6398 56.7014 40.5824 58.1968 39.6078C58.1968 39.6078 56.6368 34.0556 55.8693 33.5499C55.8693 33.5499 54.1359 40.8582 45.0896 38.469L49.6125 44.6398Z" fill="#227B39"/>
<path d="M25.4471 11.1804C25.341 11.1804 25.2371 11.1513 25.1463 11.0965C25.0556 11.0416 24.9816 10.963 24.9323 10.8691C24.883 10.7753 24.8603 10.6697 24.8666 10.5639C24.873 10.4581 24.9081 10.356 24.9682 10.2686L28.7143 4.81421C28.7572 4.7504 28.8124 4.69573 28.8765 4.65337C28.9407 4.611 29.0127 4.58178 29.0882 4.5674C29.1638 4.55301 29.2414 4.55375 29.3167 4.56956C29.392 4.58537 29.4633 4.61594 29.5267 4.65951C29.5901 4.70308 29.6442 4.75878 29.6859 4.82339C29.7276 4.888 29.7561 4.96024 29.7697 5.03593C29.7834 5.11162 29.7818 5.18926 29.7653 5.26436C29.7487 5.33946 29.7174 5.41053 29.6732 5.47346L25.93 10.9279C25.8762 11.0062 25.8041 11.0702 25.7199 11.1142C25.6357 11.1582 25.5421 11.181 25.4471 11.1804V11.1804Z" fill="#469BB5"/>
<path d="M6.34003 40.4299C5.67355 39.1447 5.20006 37.7684 4.93482 36.3452C4.1522 32.1336 5.26066 27.7219 8.05596 23.9229C10.7907 20.2047 14.9697 17.3012 19.8184 15.747L20.2804 17.1877C15.732 18.6424 11.8236 21.3556 9.27439 24.8195C6.72523 28.2834 5.71685 32.2733 6.42324 36.0688C6.66133 37.3461 7.08639 38.5813 7.68473 39.7346L6.34003 40.4299Z" fill="#5B5B5B"/>
<path d="M34.1883 32.645C33.4849 32.645 32.6935 32.3028 32.043 31.6523C30.9503 30.5596 30.7274 29.0712 31.5345 28.2635C31.9371 27.8609 32.5481 27.7009 33.2091 27.8237C33.816 27.94 34.4246 28.2734 34.9232 28.7721C35.4219 29.2707 35.7582 29.8776 35.8711 30.4863C35.9945 31.1478 35.8339 31.7576 35.4318 32.1603C35.1048 32.4873 34.6666 32.645 34.1883 32.645ZM32.7732 28.7139C32.5806 28.7139 32.3572 28.7581 32.1914 28.9222C31.7678 29.3458 32.0005 30.2942 32.6999 30.9936C33.3993 31.693 34.3478 31.9246 34.7714 31.5022C35.195 31.0798 34.9622 30.1296 34.2628 29.4302C33.9015 29.0688 33.4546 28.8169 33.0368 28.7389C32.9499 28.7229 32.8617 28.7146 32.7732 28.7139V28.7139Z" fill="black"/>
<path d="M12.4223 32.6563C11.9254 32.6563 11.496 32.4887 11.1812 32.1716C10.3759 31.3599 10.5993 29.8639 11.6898 28.7653C12.3095 28.141 13.113 27.7686 13.8392 27.7686C14.3367 27.7686 14.7655 27.9362 15.0803 28.2533C15.8862 29.0644 15.6622 30.561 14.5723 31.6595C13.9527 32.2833 13.1491 32.6563 12.4223 32.6563ZM13.8392 28.6996C13.3557 28.6996 12.7988 28.969 12.3502 29.4211C11.649 30.1275 11.4163 31.087 11.8422 31.5158C12.0168 31.6904 12.2524 31.7253 12.4241 31.7253C12.9082 31.7253 13.4645 31.4553 13.9131 31.0032C14.6142 30.2968 14.8476 29.3379 14.4216 28.9085C14.2477 28.7357 14.0091 28.6996 13.8392 28.6996V28.6996Z" fill="black"/>
<path d="M43.7447 17.6608C43.5481 17.6609 43.3591 17.5844 43.2179 17.4476C43.0767 17.3107 42.9944 17.1242 42.9883 16.9277L42.6392 5.7139C42.1592 5.19837 41.0681 4.27552 39.4971 3.5639C38.1441 2.96186 36.7 2.59016 35.2244 2.46416C33.3043 2.2896 31.2276 2.46998 29.045 3.00472C28.8445 3.09046 28.6725 3.23154 28.5492 3.41145L22.421 12.2169C22.3054 12.3791 22.1306 12.4892 21.9343 12.5233C21.7381 12.5574 21.5363 12.5127 21.3728 12.3989C21.2093 12.2851 21.0973 12.1115 21.0611 11.9156C21.0249 11.7198 21.0673 11.5175 21.1793 11.3528L27.3064 2.54563C27.6128 2.10382 28.0462 1.76555 28.5492 1.57565C28.5777 1.56518 28.6074 1.55587 28.6359 1.5483C31.0274 0.957124 33.3153 0.760452 35.4357 0.966434C37.1493 1.1311 38.757 1.55587 40.2157 2.22909C42.7294 3.38934 43.9339 4.89172 43.9839 4.95515C44.0843 5.08231 44.1412 5.23834 44.1462 5.40028L44.5023 16.8829C44.5054 16.9822 44.489 17.0811 44.4538 17.174C44.4187 17.267 44.3656 17.3521 44.2976 17.4245C44.2295 17.4969 44.1479 17.5552 44.0573 17.596C43.9668 17.6369 43.8691 17.6595 43.7698 17.6626L43.7447 17.6608Z" fill="#0A1D38"/>
<path d="M25.0746 60.1139C24.6999 60.1139 24.3249 60.1069 23.9498 60.093C20.6976 59.9628 17.4843 59.3366 14.4211 58.2362C12.2034 57.446 10.0727 56.4302 8.06248 55.2047C7.05885 54.5937 6.25968 53.698 5.76667 52.6315C5.27366 51.5649 5.10911 50.3758 5.29395 49.2155C5.64947 46.9765 6.62934 44.6729 8.20329 42.3686C8.25824 42.2841 8.32955 42.2113 8.41302 42.1547C8.4965 42.098 8.59047 42.0587 8.68938 42.0389C8.7883 42.0191 8.89018 42.0193 8.98901 42.0395C9.08785 42.0597 9.18165 42.0994 9.26489 42.1564C9.34814 42.2134 9.41915 42.2864 9.47374 42.3713C9.52834 42.4561 9.56542 42.551 9.5828 42.6503C9.60017 42.7497 9.5975 42.8515 9.57494 42.9499C9.55237 43.0482 9.51037 43.141 9.4514 43.2228C8.00255 45.3408 7.10531 47.4367 6.78528 49.4529C6.64745 50.3183 6.77048 51.2051 7.13868 52.0003C7.50689 52.7954 8.10358 53.4629 8.85266 53.9176C11.513 55.5468 17.0192 58.3235 24.0063 58.5842C24.369 58.5977 24.7309 58.6045 25.092 58.6045C33.0666 58.6016 40.7682 55.3141 47.9927 48.8175C48.2622 48.5778 48.4592 48.2673 48.5612 47.9214C48.6633 47.5754 48.6663 47.2077 48.5699 46.8601C48.4035 46.2567 48.2103 45.6649 47.9956 45.0999C47.3555 43.4247 46.2086 41.1665 44.3496 39.9213C44.2669 39.8661 44.196 39.7952 44.1408 39.7125C44.0855 39.6299 44.0471 39.5372 44.0277 39.4397C44.0083 39.3423 44.0083 39.2419 44.0277 39.1444C44.0471 39.047 44.0855 38.9543 44.1407 38.8716C44.1959 38.789 44.2668 38.718 44.3495 38.6628C44.4321 38.6076 44.5248 38.5692 44.6223 38.5498C44.7197 38.5304 44.8201 38.5304 44.9176 38.5497C45.015 38.5691 45.1077 38.6075 45.1904 38.6627C46.9482 39.8428 48.3668 41.8275 49.4072 44.5617C49.6399 45.1709 49.8471 45.8092 50.0263 46.458C50.1985 47.0766 50.1937 47.731 50.0126 48.347C49.8315 48.9631 49.4812 49.5159 49.0016 49.9428C44.7831 53.736 40.3388 56.5063 35.792 58.1769C32.2903 59.464 28.6903 60.1139 25.0746 60.1139Z" fill="#225039"/>
<path d="M48.7035 45.5876C48.5394 45.5877 48.3797 45.5345 48.2485 45.436C48.1173 45.3374 48.0217 45.1989 47.9762 45.0413C47.9306 44.8836 47.9375 44.7155 47.9958 44.5621C48.0542 44.4088 48.1608 44.2785 48.2997 44.1911L56.6663 38.9234C56.3806 37.527 55.2972 33.2956 52.1685 30.011C51.7232 29.5432 51.2463 29.1065 50.7412 28.7041L47.6113 30.5952C47.4397 30.6972 47.2347 30.7273 47.041 30.6788C46.8473 30.6303 46.6806 30.5072 46.5773 30.3363C46.4741 30.1655 46.4425 29.9607 46.4896 29.7666C46.5367 29.5726 46.6586 29.405 46.8287 29.3005L50.4002 27.1418C50.5283 27.0643 50.6766 27.0266 50.8262 27.0334C50.9757 27.0403 51.1199 27.0914 51.2404 27.1802C51.9654 27.7159 52.6424 28.3138 53.2636 28.9671C57.3948 33.3044 58.2182 38.9491 58.2507 39.187C58.2704 39.3314 58.2479 39.4784 58.1859 39.6104C58.124 39.7423 58.0253 39.8535 57.9016 39.9307L49.1056 45.4706C48.9854 45.547 48.8459 45.5876 48.7035 45.5876Z" fill="#225039"/>
<path d="M52.7159 30.2456C52.5494 30.2458 52.3876 30.1912 52.2554 30.0901C52.1232 29.989 52.028 29.8472 51.9846 29.6865C51.9412 29.5258 51.9519 29.3553 52.0152 29.2014C52.0785 29.0475 52.1909 28.9188 52.3347 28.8352L55.2563 27.1355C55.3422 27.0832 55.4377 27.0485 55.5372 27.0336C55.6367 27.0186 55.7382 27.0236 55.8357 27.0484C55.9332 27.0731 56.0249 27.1171 56.1052 27.1777C56.1855 27.2383 56.2529 27.3143 56.3035 27.4012C56.3541 27.4882 56.3868 27.5844 56.3998 27.6842C56.4128 27.784 56.4057 27.8853 56.379 27.9823C56.3523 28.0794 56.3065 28.1701 56.2443 28.2492C56.1821 28.3283 56.1047 28.3941 56.0168 28.443L53.0958 30.1426C52.9805 30.21 52.8494 30.2456 52.7159 30.2456V30.2456Z" fill="#225039"/>
<path d="M55.0595 33.3875C54.892 33.3876 54.7292 33.3322 54.5966 33.2298C54.464 33.1274 54.3691 32.984 54.3268 32.8219C54.2846 32.6598 54.2973 32.4883 54.363 32.3342C54.4287 32.1802 54.5437 32.0523 54.69 31.9706L57.824 30.2175C57.9108 30.1674 58.0067 30.135 58.1061 30.1222C58.2055 30.1095 58.3064 30.1166 58.403 30.1432C58.4997 30.1698 58.59 30.2153 58.6689 30.2771C58.7478 30.339 58.8136 30.4158 58.8625 30.5033C58.9114 30.5907 58.9425 30.6871 58.9539 30.7866C58.9652 30.8862 58.9567 30.987 58.9288 31.0832C58.9009 31.1795 58.8541 31.2692 58.7912 31.3472C58.7283 31.4253 58.6506 31.49 58.5624 31.5377L55.4307 33.2909C55.3173 33.3544 55.1895 33.3877 55.0595 33.3875V33.3875Z" fill="#225039"/>
<path d="M56.8852 37.5357C56.7209 37.5366 56.5607 37.484 56.4289 37.3857C56.2971 37.2874 56.2009 37.1489 56.1549 36.9911C56.1089 36.8333 56.1155 36.6648 56.1738 36.5111C56.2321 36.3574 56.3388 36.2268 56.4779 36.1392L59.382 34.2854C59.5511 34.1774 59.7561 34.1409 59.952 34.1841C60.148 34.2273 60.3187 34.3465 60.4267 34.5155C60.5347 34.6846 60.5712 34.8896 60.528 35.0856C60.4849 35.2815 60.3657 35.4522 60.1966 35.5603L57.2925 37.4164C57.1712 37.4947 57.0297 37.5361 56.8852 37.5357V37.5357Z" fill="#225039"/>
<path d="M52.0965 43.4493C51.9229 43.449 51.7547 43.3889 51.6202 43.2793C51.4856 43.1696 51.3929 43.017 51.3575 42.8471C50.5429 38.9242 49.3337 36.6508 48.465 35.4347C47.5369 34.136 46.7927 33.7438 46.7852 33.7398L46.7945 33.7444L47.4485 32.3799C47.5503 32.4288 48.4755 32.9001 49.5898 34.4101C51.0281 36.3582 52.1215 39.0929 52.8383 42.5387C52.8586 42.636 52.8595 42.7363 52.841 42.8339C52.8225 42.9316 52.7849 43.0246 52.7305 43.1077C52.676 43.1908 52.6057 43.2623 52.5236 43.3183C52.4414 43.3742 52.3491 43.4134 52.2518 43.4336C52.2007 43.444 52.1486 43.4493 52.0965 43.4493V43.4493Z" fill="#225039"/>
<path d="M49.3331 48.7017H49.3209C44.187 48.6255 39.9999 44.9114 39.8241 44.7531C39.7503 44.6867 39.6902 44.6063 39.6474 44.5167C39.6046 44.4271 39.5799 44.3298 39.5747 44.2306C39.5694 44.1314 39.5838 44.0322 39.6169 43.9385C39.65 43.8449 39.7013 43.7586 39.7677 43.6848C39.8341 43.6109 39.9145 43.5509 40.0041 43.5081C40.0938 43.4653 40.191 43.4406 40.2902 43.4353C40.3894 43.4301 40.4886 43.4444 40.5823 43.4775C40.6759 43.5107 40.7622 43.5619 40.836 43.6284C40.889 43.6755 44.7927 47.1196 49.343 47.1888C49.5436 47.1902 49.7355 47.2713 49.8763 47.4141C50.0172 47.557 50.0956 47.7499 50.0942 47.9505C50.0928 48.1511 50.0118 48.343 49.8689 48.4839C49.7261 48.6248 49.5331 48.7031 49.3325 48.7017H49.3331Z" fill="#225039"/>
<path d="M42.2681 54.8811H42.2291C39.6689 54.7525 37.1913 53.5905 35.0675 51.522C33.4842 49.9794 32.651 48.4811 32.6161 48.4183C32.5207 48.2427 32.4986 48.0365 32.5547 47.8447C32.6109 47.6529 32.7406 47.4911 32.9156 47.3947C33.0906 47.2982 33.2967 47.2749 33.4888 47.3299C33.6809 47.3849 33.8435 47.5136 33.941 47.688V47.688C34.5522 48.7083 35.2957 49.6434 36.1521 50.4688C38.0274 52.2831 40.0965 53.2618 42.303 53.37C42.4023 53.3724 42.5002 53.3944 42.591 53.4347C42.6819 53.475 42.7639 53.5327 42.8324 53.6047C42.9009 53.6767 42.9546 53.7614 42.9903 53.8541C43.0261 53.9469 43.0432 54.0457 43.0408 54.145C43.0383 54.2444 43.0163 54.3422 42.9761 54.4331C42.9358 54.5239 42.878 54.6059 42.8061 54.6745C42.7341 54.743 42.6493 54.7966 42.5566 54.8324C42.4639 54.8681 42.3651 54.8853 42.2657 54.8828L42.2681 54.8811Z" fill="#225039"/>
<path d="M33.9167 58.7687C33.8002 58.7686 33.6853 58.7415 33.5809 58.6896C26.158 55.0017 25.6203 49.7405 25.6011 49.5182C25.5882 49.3211 25.6529 49.1267 25.7814 48.9767C25.9098 48.8266 26.0919 48.7328 26.2887 48.7152C26.4855 48.6977 26.6813 48.7578 26.8343 48.8827C26.9873 49.0076 27.0854 49.1875 27.1076 49.3838C27.1076 49.41 27.2385 50.5661 28.1643 52.1034C29.0284 53.5395 30.7868 55.6121 34.2542 57.3344C34.4072 57.4102 34.5302 57.5356 34.6029 57.6901C34.6757 57.8447 34.694 58.0193 34.6548 58.1856C34.6157 58.3518 34.5215 58.5 34.3874 58.6059C34.2534 58.7118 34.0875 58.7692 33.9167 58.7687V58.7687Z" fill="#225039"/>
<path d="M25.0678 60.1141C24.9451 60.1142 24.8243 60.0842 24.7158 60.0268C20.7352 57.928 18.9553 54.9384 18.1669 52.8001C17.3057 50.4726 17.3959 48.6374 17.4006 48.5606C17.4114 48.36 17.5016 48.1719 17.6511 48.0377C17.8007 47.9035 17.9974 47.8343 18.198 47.8452C18.3986 47.856 18.5867 47.9462 18.7209 48.0957C18.855 48.2453 18.9243 48.442 18.9134 48.6426C18.9134 48.6717 18.8442 50.3004 19.6117 52.3381C20.6357 55.0583 22.5908 57.1949 25.4239 58.6885C25.5735 58.7674 25.6924 58.8941 25.7615 59.0484C25.8307 59.2027 25.8461 59.3758 25.8054 59.5399C25.7646 59.704 25.6701 59.8497 25.5368 59.9538C25.4036 60.0579 25.2393 60.1144 25.0702 60.1141H25.0678Z" fill="#225039"/>
<path d="M14.4712 58.2065C14.3487 58.2067 14.2279 58.1771 14.1194 58.1202C14.0108 58.0633 13.9177 57.9809 13.848 57.8801C11.3902 54.3249 10.9759 51.2351 11.0597 49.2713C11.1528 47.0969 11.8604 45.7673 11.89 45.712C11.9851 45.5353 12.1465 45.4036 12.3386 45.3459C12.5308 45.2882 12.738 45.3091 12.9147 45.4042C13.0914 45.4993 13.2231 45.6606 13.2808 45.8528C13.3386 46.045 13.3176 46.2522 13.2225 46.4289C13.2126 46.4469 12.6302 47.5746 12.5679 49.4232C12.483 51.9165 13.3325 54.4727 15.0926 57.0201C15.171 57.1336 15.2169 57.2663 15.2253 57.4039C15.2338 57.5416 15.2044 57.6789 15.1404 57.8011C15.0764 57.9233 14.9802 58.0256 14.8623 58.0971C14.7444 58.1685 14.6091 58.2064 14.4712 58.2065V58.2065Z" fill="#225039"/>
<path d="M24.7282 50.2606C22.3602 50.2673 20.0036 49.9324 17.7312 49.2661C14.0841 48.1839 10.9449 46.2742 8.65405 43.7436L9.77531 42.7282C11.8805 45.0557 14.7794 46.8124 18.1618 47.8161C21.6588 48.8553 25.5172 49.0299 29.3209 48.3218C34.6741 47.3268 39.3872 44.7142 42.5951 40.9646C45.7622 37.261 47.0754 32.8906 46.287 28.6586C45.8494 26.3044 44.8015 24.1538 43.1728 22.2662L44.318 21.277C46.1218 23.3718 47.2855 25.7603 47.7743 28.3811C48.2159 30.7569 48.0687 33.1675 47.3367 35.5451C46.6344 37.8272 45.4258 39.9807 43.7448 41.9456C40.3118 45.957 35.2897 48.7489 29.5973 49.8067C27.9916 50.1068 26.3617 50.2587 24.7282 50.2606V50.2606Z" fill="#5B5B5B"/>
<path d="M22.1043 40.2239C21.5923 37.5526 20.5851 35.8599 19.8304 34.9092C19.0158 33.8851 18.3129 33.4801 18.3059 33.4761L19.0373 32.1517C19.177 32.2285 22.4703 34.0911 23.5904 39.9394L22.1043 40.2239Z" fill="#B73F39"/>
<path d="M1.20966 45.5876C1.04814 45.5876 0.890836 45.536 0.760775 45.4402C0.630715 45.3445 0.534726 45.2096 0.48686 45.0553C0.438994 44.901 0.441763 44.7355 0.494764 44.5829C0.547764 44.4303 0.648211 44.2987 0.781403 44.2074L21.3708 30.0418C21.5277 29.9338 21.7194 29.8889 21.9079 29.9161C21.9771 29.926 23.6151 30.1756 25.1419 31.4871C27.6649 33.6575 27.9174 36.9672 27.6853 39.3621C27.6695 39.5245 27.6017 39.6775 27.4919 39.7982C27.3821 39.9189 27.2363 40.0009 27.0761 40.0319L8.99797 43.5336L1.40517 45.5614C1.34143 45.5786 1.27569 45.5874 1.20966 45.5876V45.5876ZM21.9585 31.4737L5.25132 42.9686L8.63489 42.0649C8.65194 42.0602 8.66922 42.0563 8.68667 42.0533L26.2213 38.6575C26.3743 35.9728 25.6802 33.9484 24.1539 32.6363C23.5166 32.0919 22.767 31.695 21.9585 31.4737Z" fill="#B73F39"/>
<path d="M37.9926 22.7791C26.2424 22.7791 18.4418 16.0567 15.9759 13.5855C15.8018 13.4109 15.6655 13.2023 15.5754 12.9728C15.4852 12.7434 15.4432 12.4978 15.4518 12.2514C15.4604 12.005 15.5195 11.763 15.6255 11.5404C15.7315 11.3178 15.882 11.1193 16.0678 10.9572L17.9007 9.35764C18.2325 9.07027 18.6601 8.91792 19.0989 8.93074C19.5376 8.94356 19.9556 9.12062 20.2701 9.42688C20.9071 10.0497 21.5758 10.6394 22.2734 11.1934C26.3378 14.4356 34.758 19.3198 45.426 15.5994C45.8278 15.4597 46.2678 15.4798 46.6552 15.6555C47.0426 15.8311 47.3477 16.1489 47.5074 16.5432L48.4814 18.9329C48.5796 19.174 48.6261 19.433 48.6178 19.6932C48.6095 19.9533 48.5467 20.2089 48.4334 20.4432C48.32 20.6776 48.1587 20.8855 47.9599 21.0535C47.7611 21.2216 47.5292 21.3459 47.2793 21.4186C43.9632 22.3805 40.8589 22.7791 37.9926 22.7791ZM19.0464 10.4434C18.99 10.4436 18.9356 10.4643 18.8934 10.5016L17.0628 12.0959C17.0331 12.1217 17.009 12.1533 16.992 12.1888C16.9749 12.2243 16.9654 12.2629 16.9639 12.3023C16.9625 12.3416 16.9691 12.3808 16.9834 12.4175C16.9977 12.4542 17.0194 12.4875 17.0471 12.5154C19.3932 14.8674 26.8173 21.2621 38.0031 21.2627C40.7379 21.2627 43.6938 20.8816 46.8586 19.9651C46.9047 19.9519 46.9475 19.9291 46.9841 19.8981C47.0207 19.8671 47.0503 19.8287 47.071 19.7853C47.0923 19.7417 47.1042 19.6941 47.1058 19.6455C47.1074 19.597 47.0987 19.5486 47.0803 19.5037L46.1062 17.114C46.0926 17.0791 46.0662 17.0507 46.0323 17.0347C45.9984 17.0187 45.9597 17.0162 45.9241 17.0278C43.0217 18.0403 40.28 18.4552 37.729 18.4558C30.3067 18.4558 24.5387 14.9343 21.3285 12.3764C20.5894 11.7897 19.8811 11.1653 19.2064 10.5057C19.1853 10.4848 19.1604 10.4683 19.1329 10.4571C19.1054 10.4459 19.076 10.4403 19.0464 10.4405V10.4434Z" fill="#0A1D38"/>
<path d="M17.9258 41.0002C17.4225 37.5171 15.1399 35.5231 15.1166 35.5033L16.097 34.3483C16.2087 34.4425 18.8353 36.7107 19.4235 40.7814L17.9258 41.0002Z" fill="#B73F39"/>
<path d="M14.4711 42.4602C14.4583 42.4602 14.4455 42.4602 14.4327 42.4602C14.2324 42.4502 14.0443 42.3611 13.9096 42.2125C13.775 42.0639 13.7049 41.8679 13.7147 41.6676C13.8613 38.7065 12.1076 37.9169 12.0331 37.8855L12.0418 37.889L12.6051 36.4826C12.7214 36.5286 15.4294 37.6603 15.2275 41.741C15.218 41.9351 15.1341 42.118 14.9932 42.2519C14.8524 42.3858 14.6654 42.4604 14.4711 42.4602V42.4602Z" fill="#B73F39"/>
<path d="M11.2232 43.089C11.1743 43.0889 11.1256 43.0842 11.0777 43.075C10.9802 43.056 10.8874 43.0179 10.8046 42.963C10.7218 42.9082 10.6506 42.8375 10.5951 42.7551C10.5396 42.6727 10.5009 42.5802 10.4812 42.4828C10.4614 42.3854 10.4611 42.2852 10.4801 42.1876C10.8118 40.4851 9.42926 39.8555 9.271 39.7898H9.27623L9.83541 38.384C10.7751 38.7575 12.4294 40.0935 11.965 42.4757C11.9318 42.6481 11.8396 42.8036 11.7042 42.9155C11.5689 43.0275 11.3988 43.0888 11.2232 43.089V43.089Z" fill="#B73F39"/>
<path d="M7.78456 43.8315C7.71184 43.8316 7.6395 43.821 7.56985 43.8001C7.3779 43.7432 7.21634 43.6125 7.12057 43.4367C7.02481 43.2608 7.00265 43.0542 7.05896 42.8621C7.27426 42.1359 6.58765 41.7507 6.448 41.6809L6.4544 41.6838L7.10377 40.3176C7.79736 40.6469 8.98321 41.6925 8.50957 43.2915C8.46296 43.4476 8.36723 43.5844 8.2366 43.6817C8.10597 43.779 7.94743 43.8315 7.78456 43.8315Z" fill="#B73F39"/>
<path d="M35.055 31.7978C35.0455 31.7984 35.036 31.7984 35.0265 31.7978C34.9497 31.7905 34.879 31.7529 34.8299 31.6935C34.7808 31.634 34.7573 31.5575 34.7646 31.4807C34.881 30.2588 34.2764 29.7206 34.27 29.7154C34.2401 29.6907 34.2154 29.6603 34.1973 29.626C34.1793 29.5917 34.1683 29.5541 34.165 29.5155C34.1617 29.4768 34.1661 29.4379 34.1781 29.401C34.19 29.3642 34.2093 29.33 34.2346 29.3007C34.2599 29.2713 34.2908 29.2473 34.3256 29.2301C34.3603 29.2128 34.3982 29.2027 34.4369 29.2003C34.4756 29.1979 34.5143 29.2033 34.551 29.2161C34.5876 29.2289 34.6212 29.2489 34.65 29.2749C34.6849 29.3046 35.4914 30.0191 35.3442 31.5366C35.3368 31.6082 35.3032 31.6745 35.2498 31.7228C35.1964 31.771 35.127 31.7978 35.055 31.7978V31.7978Z" fill="white"/>
<path d="M14.3186 30.7912C14.2703 30.7912 14.2228 30.7792 14.1803 30.7562C14.1378 30.7332 14.1018 30.7 14.0753 30.6596C14.0489 30.6192 14.0329 30.5728 14.0289 30.5247C14.0248 30.4766 14.0328 30.4282 14.0521 30.3839C14.4426 29.4896 14.1144 28.8792 14.1004 28.8536C14.0813 28.8204 14.0689 28.7838 14.064 28.7459C14.059 28.7079 14.0616 28.6694 14.0715 28.6324C14.0815 28.5955 14.0986 28.5608 14.1219 28.5305C14.1452 28.5001 14.1743 28.4747 14.2075 28.4556C14.2406 28.4365 14.2772 28.4241 14.3152 28.4191C14.3531 28.4142 14.3917 28.4168 14.4286 28.4267C14.4656 28.4366 14.5002 28.4538 14.5306 28.4771C14.5609 28.5004 14.5864 28.5295 14.6055 28.5627C14.6258 28.5976 15.0989 29.439 14.5857 30.6149C14.5633 30.6672 14.526 30.7118 14.4786 30.7431C14.4311 30.7744 14.3755 30.7912 14.3186 30.7912V30.7912Z" fill="white"/>
</svg>
