<svg width="98" height="98" viewBox="0 0 98 98" fill="none" xmlns="http://www.w3.org/2000/svg">
<g clip-path="url(#clip0_3_6209)">
<path d="M41.3438 22.9688C40.5315 22.9688 39.7526 22.6461 39.1782 22.0718C38.6039 21.4974 38.2813 20.7185 38.2813 19.9062V9.1875C38.2812 6.75082 39.2492 4.41395 40.9722 2.69096C42.6952 0.967966 45.0321 0 47.4688 0C49.9054 0 52.2423 0.967966 53.9653 2.69096C55.6883 4.41395 56.6562 6.75082 56.6562 9.1875V10.7188C56.6562 11.531 56.3336 12.3099 55.7593 12.8843C55.1849 13.4586 54.406 13.7812 53.5938 13.7812C52.7815 13.7812 52.0026 13.4586 51.4282 12.8843C50.8539 12.3099 50.5312 11.531 50.5312 10.7188V9.1875C50.5312 8.37527 50.2086 7.59632 49.6343 7.02199C49.0599 6.44766 48.281 6.125 47.4688 6.125C46.6565 6.125 45.8776 6.44766 45.3032 7.02199C44.7289 7.59632 44.4062 8.37527 44.4062 9.1875V19.9062C44.4062 20.7185 44.0836 21.4974 43.5093 22.0718C42.9349 22.6461 42.156 22.9688 41.3438 22.9688Z" fill="url(#paint0_linear_3_6209)"/>
<path d="M32.1562 1.53125V21.4375H26.0312V1.53125C26.0312 1.12514 26.1926 0.735658 26.4797 0.448493C26.7669 0.161328 27.1564 0 27.5625 0L30.625 0C31.0311 0 31.4206 0.161328 31.7078 0.448493C31.9949 0.735658 32.1562 1.12514 32.1562 1.53125Z" fill="url(#paint1_linear_3_6209)"/>
<path d="M32.1562 2.03656V5.09906L26.0312 7.15094V4.08844L32.1562 2.03656Z" fill="#FF0022"/>
<path d="M32.1562 8.16156V11.2241L26.0312 13.2759V10.2134L32.1562 8.16156Z" fill="#FF0022"/>
<path d="M32.1562 14.2866V17.3491L26.0312 19.4009V16.3384L32.1562 14.2866Z" fill="#FF0022"/>
<path d="M21.4375 12.25C21.4375 11.0317 20.9535 9.86322 20.092 9.00173C19.2305 8.14023 18.0621 7.65625 16.8438 7.65625C15.6254 7.65625 14.457 8.14023 13.5955 9.00173C12.734 9.86322 12.25 11.0317 12.25 12.25C12.25 14.7919 14.3019 19.9062 16.8438 19.9062C19.3856 19.9062 21.4375 14.7919 21.4375 12.25Z" fill="url(#paint2_linear_3_6209)"/>
<path d="M52.0625 18.375H15.3125C12.7754 18.375 10.7188 20.4317 10.7188 22.9688V29.0938C10.7188 31.6308 12.7754 33.6875 15.3125 33.6875H52.0625C54.5996 33.6875 56.6562 31.6308 56.6562 29.0938V22.9688C56.6562 20.4317 54.5996 18.375 52.0625 18.375Z" fill="#7ECE67"/>
<path d="M52.0625 18.375H15.3125C12.7754 18.375 10.7188 20.4317 10.7188 22.9688V29.0938C10.7188 31.6308 12.7754 33.6875 15.3125 33.6875H52.0625C54.5996 33.6875 56.6562 31.6308 56.6562 29.0938V22.9688C56.6562 20.4317 54.5996 18.375 52.0625 18.375Z" fill="url(#paint3_linear_3_6209)"/>
<path d="M52.0625 55.125V33.6875H15.3125V78.0938C15.3125 83.3732 17.4098 88.4364 21.1429 92.1696C24.8761 95.9027 29.9393 98 35.2188 98H67.375C72.6545 98 77.7177 95.9027 81.4508 92.1696C85.184 88.4364 87.2812 83.3732 87.2812 78.0938C87.2812 72.8143 85.184 67.7511 81.4508 64.0179C77.7177 60.2848 72.6545 58.1875 67.375 58.1875H55.125C54.3128 58.1875 53.5338 57.8648 52.9595 57.2905C52.3852 56.7162 52.0625 55.9372 52.0625 55.125Z" fill="url(#paint4_linear_3_6209)"/>
<path d="M87.2812 78.0938C87.2807 82.7567 85.6433 87.2715 82.6546 90.8507C79.6659 94.4299 75.5156 96.8463 70.9275 97.6784C67.1411 95.9929 63.9244 93.2459 61.667 89.77C59.4096 86.2941 58.2081 82.2384 58.2081 78.0938C58.2081 73.9491 59.4096 69.8934 61.667 66.4175C63.9244 62.9416 67.1411 60.1946 70.9275 58.5091C75.5156 59.3412 79.6659 61.7576 82.6546 65.3368C85.6433 68.916 87.2807 73.4308 87.2812 78.0938Z" fill="url(#paint5_linear_3_6209)"/>
<path d="M37.3931 98H35.2188C29.9393 98 24.8761 95.9027 21.1429 92.1696C17.4098 88.4364 15.3125 83.3732 15.3125 78.0937V70.4375C18.7786 70.1856 22.254 70.7802 25.4393 72.17C28.6245 73.5598 31.4241 75.7031 33.5969 78.4154C35.7698 81.1276 37.2506 84.3274 37.9119 87.7392C38.5732 91.151 38.3952 94.6723 37.3931 98Z" fill="url(#paint6_linear_3_6209)"/>
<path d="M15.3125 53.5938L18.375 50.5312C19.1895 49.7233 20.2903 49.27 21.4375 49.27C22.5847 49.27 23.6855 49.7233 24.5 50.5312C25.3125 51.3429 26.414 51.7988 27.5625 51.7988C28.711 51.7988 29.8125 51.3429 30.625 50.5312C31.4375 49.7196 32.539 49.2637 33.6875 49.2637C34.836 49.2637 35.9375 49.7196 36.75 50.5312C37.5625 51.3429 38.664 51.7988 39.8125 51.7988C40.961 51.7988 42.0625 51.3429 42.875 50.5312C43.6875 49.7196 44.789 49.2637 45.9375 49.2637C47.086 49.2637 48.1875 49.7196 49 50.5312L52.0625 53.5938V41.3437L49 38.2812C48.1855 37.4733 47.0847 37.02 45.9375 37.02C44.7903 37.02 43.6895 37.4733 42.875 38.2812C42.0625 39.0929 40.961 39.5488 39.8125 39.5488C38.664 39.5488 37.5625 39.0929 36.75 38.2812C35.9375 37.4696 34.836 37.0137 33.6875 37.0137C32.539 37.0137 31.4375 37.4696 30.625 38.2812C29.8125 39.0929 28.711 39.5488 27.5625 39.5488C26.414 39.5488 25.3125 39.0929 24.5 38.2812C23.6875 37.4696 22.586 37.0137 21.4375 37.0137C20.289 37.0137 19.1875 37.4696 18.375 38.2812L15.3125 41.3437" fill="url(#paint7_linear_3_6209)"/>
<path d="M38.2812 67.375C39.9726 67.375 41.3438 66.0039 41.3438 64.3125C41.3438 62.6211 39.9726 61.25 38.2812 61.25C36.5899 61.25 35.2188 62.6211 35.2188 64.3125C35.2188 66.0039 36.5899 67.375 38.2812 67.375Z" fill="url(#paint8_linear_3_6209)"/>
<path d="M49 81.1562C50.6914 81.1562 52.0625 79.7851 52.0625 78.0938C52.0625 76.4024 50.6914 75.0312 49 75.0312C47.3086 75.0312 45.9375 76.4024 45.9375 78.0938C45.9375 79.7851 47.3086 81.1562 49 81.1562Z" fill="url(#paint9_linear_3_6209)"/>
<path d="M15.3125 0V12.25C15.3125 13.0922 16.0016 16.8438 16.8438 16.8438C17.6859 16.8438 18.375 13.0922 18.375 12.25V0H15.3125Z" fill="#E7F4CE"/>
<path d="M44.4062 11.1475V14.3784L38.2812 16.415V13.1841L44.4062 11.1475Z" fill="url(#paint10_linear_3_6209)"/>
<path d="M45.3097 7.02843C45.0208 7.30838 44.7917 7.6441 44.6364 8.01524C44.4811 8.38637 44.4028 8.78519 44.4063 9.18749V10.0603L38.6488 6.59968C38.9464 5.61143 39.407 4.67985 40.0116 3.84343L45.3097 7.02843Z" fill="url(#paint11_linear_3_6209)"/>
<path d="M49 0.137811V6.53844C48.5344 6.26965 48.0063 6.12814 47.4688 6.12814C46.9312 6.12814 46.4031 6.26965 45.9375 6.53844V0.137811C46.9501 -0.0459574 47.9874 -0.0459574 49 0.137811Z" fill="url(#paint12_linear_3_6209)"/>
<path d="M55.9365 5.60438L50.5312 9.9225V9.1875C50.458 8.32333 50.0778 7.51395 49.4594 6.90594L54.2675 3.0625C54.9587 3.8131 55.5225 4.67173 55.9365 5.60438Z" fill="url(#paint13_linear_3_6209)"/>
</g>
<defs>
<linearGradient id="paint0_linear_3_6209" x1="38.2813" y1="11.4844" x2="56.6563" y2="11.4844" gradientUnits="userSpaceOnUse">
<stop stop-color="#FF0022"/>
<stop offset="1" stop-color="#F4929C"/>
</linearGradient>
<linearGradient id="paint1_linear_3_6209" x1="26.0312" y1="10.7188" x2="32.1562" y2="10.7188" gradientUnits="userSpaceOnUse">
<stop stop-color="#D4D8E1"/>
<stop offset="1" stop-color="#F3F4F5"/>
</linearGradient>
<linearGradient id="paint2_linear_3_6209" x1="12.25" y1="13.7812" x2="21.4375" y2="13.7812" gradientUnits="userSpaceOnUse">
<stop stop-color="#2B8F0E"/>
<stop offset="1" stop-color="#D4E6B6"/>
</linearGradient>
<linearGradient id="paint3_linear_3_6209" x1="10.7188" y1="26.0312" x2="56.6562" y2="26.0312" gradientUnits="userSpaceOnUse">
<stop stop-color="#2B8F0E"/>
<stop offset="1" stop-color="#D4E6B6"/>
</linearGradient>
<linearGradient id="paint4_linear_3_6209" x1="15.3125" y1="65.8437" x2="87.2812" y2="65.8437" gradientUnits="userSpaceOnUse">
<stop stop-color="#FF0022"/>
<stop offset="1" stop-color="#F4929C"/>
</linearGradient>
<linearGradient id="paint5_linear_3_6209" x1="58.2028" y1="78.0938" x2="87.2812" y2="78.0938" gradientUnits="userSpaceOnUse">
<stop stop-color="#2B8F0E"/>
<stop offset="1" stop-color="#D4E6B6"/>
</linearGradient>
<linearGradient id="paint6_linear_3_6209" x1="15.3125" y1="84.2034" x2="38.3119" y2="84.2034" gradientUnits="userSpaceOnUse">
<stop stop-color="#2B8F0E"/>
<stop offset="1" stop-color="#D4E6B6"/>
</linearGradient>
<linearGradient id="paint7_linear_3_6209" x1="15.3125" y1="45.3097" x2="52.0625" y2="45.3097" gradientUnits="userSpaceOnUse">
<stop stop-color="#2B8F0E"/>
<stop offset="1" stop-color="#D4E6B6"/>
</linearGradient>
<linearGradient id="paint8_linear_3_6209" x1="35.2188" y1="64.3125" x2="41.3438" y2="64.3125" gradientUnits="userSpaceOnUse">
<stop stop-color="#FBCC88"/>
<stop offset="1" stop-color="#FFE5C3"/>
</linearGradient>
<linearGradient id="paint9_linear_3_6209" x1="45.9375" y1="78.0938" x2="52.0625" y2="78.0938" gradientUnits="userSpaceOnUse">
<stop stop-color="#FBCC88"/>
<stop offset="1" stop-color="#FFE5C3"/>
</linearGradient>
<linearGradient id="paint10_linear_3_6209" x1="38.2812" y1="13.7813" x2="44.4062" y2="13.7813" gradientUnits="userSpaceOnUse">
<stop stop-color="#D4D8E1"/>
<stop offset="1" stop-color="#F3F4F5"/>
</linearGradient>
<linearGradient id="paint11_linear_3_6209" x1="38.6488" y1="6.95187" x2="45.3097" y2="6.95187" gradientUnits="userSpaceOnUse">
<stop stop-color="#D4D8E1"/>
<stop offset="1" stop-color="#F3F4F5"/>
</linearGradient>
<linearGradient id="paint12_linear_3_6209" x1="45.9375" y1="3.26156" x2="49" y2="3.26156" gradientUnits="userSpaceOnUse">
<stop stop-color="#D4D8E1"/>
<stop offset="1" stop-color="#F3F4F5"/>
</linearGradient>
<linearGradient id="paint13_linear_3_6209" x1="49.4594" y1="6.46187" x2="55.9365" y2="6.46187" gradientUnits="userSpaceOnUse">
<stop stop-color="#D4D8E1"/>
<stop offset="1" stop-color="#F3F4F5"/>
</linearGradient>
<clipPath id="clip0_3_6209">
<rect width="98" height="98" fill="white"/>
</clipPath>
</defs>
</svg>
