<svg width="48" height="48" viewBox="0 0 48 48" fill="none" xmlns="http://www.w3.org/2000/svg">
<path d="M31.2303 7.94846L12.7695 12.3635C11.5019 12.6666 10.7201 13.9398 11.0232 15.2073C11.3263 16.4747 12.5996 17.2565 13.8672 16.9533L32.328 12.5383C33.5956 12.2351 34.3774 10.9619 34.0743 9.69448C33.7712 8.42704 32.4979 7.64532 31.2303 7.94846Z" fill="#FFEAE8"/>
<path d="M13.32 17.5764C12.6045 17.5773 11.9135 17.3153 11.3785 16.8403C10.8434 16.3652 10.5015 15.7101 10.4178 14.9995C10.3341 14.2889 10.5143 13.5723 10.9243 12.9858C11.3342 12.3994 11.9454 11.984 12.6415 11.8186L31.1009 7.40354C31.8536 7.22348 32.647 7.34981 33.3066 7.75473C33.9661 8.15966 34.4378 8.81001 34.6179 9.56272C34.7979 10.3154 34.6716 11.1088 34.2667 11.7684C33.8618 12.428 33.2114 12.8996 32.4587 13.0797L13.9972 17.496C13.7753 17.5491 13.5481 17.5761 13.32 17.5764ZM31.7785 8.44037C31.6377 8.44038 31.4973 8.45711 31.3604 8.49022L12.8993 12.9061C12.4405 13.0227 12.0461 13.3152 11.8012 13.7203C11.5564 14.1255 11.4809 14.6107 11.5911 15.0711C11.7013 15.5315 11.9882 15.93 12.3899 16.1804C12.7916 16.4309 13.2758 16.5131 13.7376 16.4094L32.1987 11.993C32.6268 11.8893 33.0021 11.6323 33.2535 11.2707C33.505 10.909 33.6153 10.4678 33.5636 10.0304C33.5118 9.59299 33.3016 9.18968 32.9727 8.8967C32.6438 8.60373 32.219 8.44139 31.7785 8.44037Z" fill="#861A3F"/>
<path d="M34.4603 31.271L34.9282 30.5702C35.3282 29.794 35.436 28.8999 35.232 28.0509C35.2122 27.9688 35.2006 27.8958 35.1757 27.8167V27.809L31.5633 12.7188L14.6336 16.7686L17.3922 28.3006C17.3922 28.3006 17.2689 28.7217 17.137 28.9021C16.9582 29.1453 16.541 29.5325 16.541 29.5325C13.8353 31.1395 12.1363 34.623 13.0876 38.5998C14.1369 42.9873 18.5446 45.6935 22.9326 44.6438C24.0394 44.3803 25.0788 43.8879 25.9838 43.1983C26.8887 42.5087 27.6392 41.6372 28.1868 40.6399L34.4603 31.2727" fill="#E20613"/>
<path d="M32.256 32.8934L30.7018 31.7968C30.5794 31.7122 30.4779 31.6008 30.405 31.471C30.3322 31.3412 30.29 31.1965 30.2816 31.0479L29.8721 29.9578C29.6306 29.3167 29.5857 28.6182 29.7432 27.9515L30.0612 26.6028C30.0547 26.4559 30.0819 26.3094 30.1407 26.1747C30.1994 26.0399 30.2882 25.9203 30.4002 25.825L32.7518 23.787C33.316 23.298 34.2252 23.5292 34.4547 24.2214L35.9135 28.6206C35.9581 28.7552 35.9719 28.8982 35.9539 29.0389C35.9359 29.1796 35.8866 29.3145 35.8095 29.4335L33.7736 32.6132C33.4544 33.1117 32.7506 33.2423 32.256 32.8934Z" fill="#FE5B4A"/>
<path d="M13.931 32.0626L15.4375 29.6486C16.027 29.5025 16.6745 29.6284 17.2022 29.9923L19.5444 30.7967C20.9335 31.2763 22.1744 32.1082 23.1456 33.2111L25.1085 35.4408C25.7074 36.5369 26.2441 38.2578 26.3271 38.8598L26.7709 42.0825C26.975 43.564 22.4263 45.4542 20.9757 44.8987L17.0522 43.836C16.482 43.6178 14.762 41.9544 14.5171 41.404L13.0884 38.5998C12.5899 37.4715 12.7713 32.3505 13.931 32.0626Z" fill="#FE5B4A"/>
<path d="M21.0323 45.4275C17.0878 45.4275 13.5016 42.7303 12.5443 38.7295C12.0665 36.7319 12.2005 34.7386 12.9267 32.9653C13.5962 31.3355 14.7576 29.9574 16.2009 29.0847C16.3526 28.9408 16.5876 28.7045 16.6852 28.5717C16.7366 28.4785 16.7787 28.3805 16.8111 28.2791L13.9592 16.3561L31.9769 12.0463L35.7152 27.6719C35.735 27.7398 35.7479 27.8008 35.7582 27.8528C35.7629 27.8752 35.7676 27.8958 35.7732 27.9207C36.0071 28.8995 35.883 29.9297 35.4234 30.825L35.4088 30.8538L34.9233 31.5821L28.6653 40.9312C27.9096 42.2933 26.8034 43.4285 25.4613 44.2191C24.1191 45.0097 22.59 45.4269 21.0323 45.4275ZM15.3054 17.1828L17.9695 28.316L17.9265 28.4583C17.8909 28.5794 17.762 28.9928 17.5828 29.2317C17.3787 29.5093 16.9636 29.8973 16.9172 29.9407L16.8742 29.9811L16.8235 30.0112C15.562 30.761 14.5462 31.9602 13.9588 33.3881C13.3203 34.9431 13.2064 36.6997 13.6292 38.4678C14.6055 42.5499 18.7206 45.0756 22.8014 44.0968C23.8317 43.8492 24.7993 43.3896 25.6422 42.7474C26.4851 42.1052 27.185 41.2943 27.6972 40.3666L27.7221 40.3237L33.993 30.9565L34.4425 30.2831C34.7689 29.6318 34.855 28.8862 34.6857 28.1777C34.6785 28.1459 34.6716 28.1149 34.665 28.0849C34.656 28.0419 34.6487 28.0084 34.6397 27.98L34.6272 27.9323L31.1519 13.3925L15.3054 17.1828Z" fill="#861A3F"/>
<path d="M18.3285 30.7378C18.2862 30.7377 18.2439 30.733 18.2026 30.7236C17.5813 30.5801 17.1821 30.5749 17.1783 30.5749C17.0301 30.5745 16.8882 30.5153 16.7837 30.4103C16.6792 30.3052 16.6208 30.163 16.6212 30.0149C16.6216 29.8667 16.6808 29.7248 16.7858 29.6203C16.8909 29.5158 17.0331 29.4574 17.1813 29.4578C17.2019 29.4578 17.6969 29.4608 18.4523 29.6348C18.586 29.6655 18.7038 29.7444 18.7831 29.8564C18.8624 29.9685 18.8977 30.1058 18.8823 30.2421C18.8668 30.3785 18.8017 30.5044 18.6993 30.5958C18.5969 30.6873 18.4645 30.7378 18.3272 30.7378H18.3285Z" fill="#861A3F"/>
<path d="M26.24 39.7725C26.1173 39.7725 25.9979 39.732 25.9004 39.6574C25.803 39.5828 25.7328 39.4781 25.7008 39.3596C25.5261 38.7011 25.3154 38.0527 25.0695 37.4174C25.0419 37.3488 25.0281 37.2755 25.029 37.2016C25.0299 37.1277 25.0455 37.0547 25.0747 36.9869C25.104 36.9191 25.1465 36.8577 25.1997 36.8064C25.2529 36.7551 25.3157 36.7148 25.3845 36.688C25.4534 36.6611 25.5269 36.6482 25.6007 36.6499C25.6746 36.6517 25.7474 36.668 25.8149 36.6981C25.8824 36.7282 25.9433 36.7714 25.994 36.8251C26.0447 36.8789 26.0842 36.9422 26.1103 37.0113C26.3713 37.6851 26.5949 38.3728 26.7801 39.0712C26.8023 39.154 26.8051 39.2408 26.7883 39.3249C26.7716 39.4089 26.7357 39.488 26.6835 39.5559C26.6313 39.6239 26.5641 39.6789 26.4872 39.7168C26.4103 39.7546 26.3257 39.7743 26.24 39.7742V39.7725ZM24.6983 35.8662C24.5986 35.8661 24.5008 35.8394 24.415 35.7887C24.3292 35.7381 24.2585 35.6655 24.2102 35.5783C23.8852 34.9918 23.5115 34.4337 23.093 33.9098C23.0039 33.7941 22.9636 33.6482 22.9808 33.5032C22.998 33.3581 23.0713 33.2256 23.185 33.134C23.2987 33.0424 23.4438 32.9989 23.5891 33.013C23.7345 33.027 23.8686 33.0973 23.9627 33.209C24.4213 33.7817 24.831 34.392 25.1873 35.0335C25.2353 35.1186 25.26 35.2149 25.2592 35.3126C25.2583 35.4104 25.2318 35.5062 25.1823 35.5905C25.1328 35.6747 25.062 35.7446 24.9771 35.7929C24.8922 35.8413 24.796 35.8666 24.6983 35.8662ZM22.0544 32.619C21.924 32.6191 21.7977 32.5735 21.6973 32.4901C21.1895 32.0667 20.6361 31.7013 20.0473 31.4004C19.9152 31.3333 19.8153 31.2164 19.7694 31.0755C19.7235 30.9346 19.7354 30.7812 19.8026 30.6491C19.8698 30.5171 19.9867 30.4171 20.1276 30.3712C20.2685 30.3253 20.4218 30.3373 20.5539 30.4044C21.2167 30.743 21.8397 31.1543 22.4115 31.6308C22.4999 31.7042 22.5634 31.803 22.5936 31.9139C22.6237 32.0248 22.619 32.1422 22.5799 32.2503C22.5409 32.3583 22.4695 32.4517 22.3754 32.5177C22.2814 32.5837 22.1693 32.6191 22.0544 32.619Z" fill="#861A3F"/>
<path d="M26.8622 42.9809C26.7269 42.9809 26.5962 42.9317 26.4944 42.8426C26.3926 42.7534 26.3267 42.6304 26.3088 42.4963C26.2594 42.1156 26.2022 41.7374 26.139 41.3722C26.1135 41.226 26.1471 41.0756 26.2325 40.9542C26.3178 40.8328 26.4479 40.7502 26.5941 40.7247C26.7403 40.6991 26.8907 40.7327 27.0121 40.8181C27.1335 40.9034 27.2161 41.0335 27.2416 41.1797C27.3078 41.5604 27.3671 41.9531 27.4186 42.3502C27.4378 42.4971 27.3978 42.6455 27.3074 42.7629C27.2171 42.8803 27.0839 42.9571 26.937 42.9762C26.9122 42.9794 26.8872 42.9809 26.8622 42.9809Z" fill="#861A3F"/>
<path d="M32.7575 34.3716C32.6186 34.3715 32.4847 34.3198 32.3819 34.2264C31.7795 33.6865 31.2288 33.0915 30.7371 32.4492C30.6915 32.3907 30.658 32.3237 30.6386 32.2521C30.6191 32.1805 30.6142 32.1057 30.6239 32.0322C30.6337 31.9587 30.658 31.8878 30.6955 31.8238C30.7329 31.7598 30.7827 31.7038 30.842 31.6593C30.9013 31.6147 30.9689 31.5824 31.0408 31.5642C31.1127 31.546 31.1875 31.5424 31.2609 31.5534C31.3342 31.5645 31.4047 31.59 31.468 31.6286C31.5314 31.6671 31.5865 31.7179 31.63 31.778C32.0797 32.3642 32.5832 32.9071 33.1339 33.3996C33.2173 33.4755 33.2759 33.5748 33.3018 33.6846C33.3277 33.7943 33.3198 33.9093 33.2791 34.0145C33.2385 34.1197 33.1669 34.2101 33.0739 34.2738C32.9808 34.3376 32.8707 34.3716 32.7579 34.3716H32.7575ZM30.0857 30.6406C29.9677 30.6404 29.8529 30.6029 29.7575 30.5335C29.6622 30.464 29.5913 30.3661 29.555 30.2539C29.3752 29.7125 29.2822 29.146 29.2796 28.5755C29.2798 28.2804 29.3057 27.9858 29.3569 27.6951C29.3844 27.5508 29.4677 27.4232 29.5886 27.3398C29.7095 27.2565 29.8584 27.2241 30.003 27.2497C30.1476 27.2753 30.2763 27.3568 30.3613 27.4766C30.4462 27.5964 30.4806 27.7448 30.4569 27.8898C30.4169 28.1167 30.3968 28.3468 30.3968 28.5773C30.3993 29.0301 30.4736 29.4797 30.6168 29.9093C30.6439 29.9931 30.6508 30.0821 30.6369 30.169C30.6231 30.256 30.5889 30.3384 30.5371 30.4096C30.4853 30.4809 30.4174 30.5388 30.339 30.5788C30.2605 30.6188 30.1737 30.6397 30.0857 30.6398V30.6406ZM30.8162 26.2389C30.7141 26.2388 30.614 26.2108 30.5267 26.1578C30.4395 26.1048 30.3684 26.0289 30.3212 25.9384C30.274 25.8479 30.2526 25.7462 30.2592 25.6443C30.2657 25.5424 30.3001 25.4443 30.3585 25.3606C30.799 24.7294 31.3692 24.1253 32.0532 23.5649C32.11 23.5185 32.1753 23.4836 32.2456 23.4624C32.3158 23.4412 32.3895 23.4341 32.4625 23.4413C32.5355 23.4486 32.6064 23.4702 32.671 23.5049C32.7357 23.5395 32.7929 23.5866 32.8393 23.6434C32.8858 23.7001 32.9206 23.7655 32.9418 23.8357C32.963 23.9059 32.9702 23.9797 32.9629 24.0527C32.9557 24.1257 32.9341 24.1965 32.8994 24.2612C32.8647 24.3258 32.8177 24.383 32.7609 24.4295C32.1563 24.9245 31.6566 25.4526 31.2746 26C31.2232 26.0737 31.1546 26.134 31.0749 26.1756C30.9951 26.2172 30.9065 26.2389 30.8166 26.2389H30.8162Z" fill="#861A3F"/>
<path d="M32.7166 17.539L28.9508 15.7708L26.2141 19.094L22.0659 17.4178L18.9472 20.8325L15.1814 19.0644L16.0675 22.7687L19.8332 24.5368L22.9519 21.1217L27.1006 22.7983L29.8368 19.4747L33.6026 21.2429L32.7166 17.539Z" fill="#FA6F00"/>
<path d="M19.833 25.0938C19.751 25.0937 19.67 25.0755 19.5958 25.0405L15.8301 23.2728C15.7542 23.2371 15.6873 23.1847 15.6344 23.1197C15.5815 23.0546 15.544 22.9784 15.5245 22.8968L14.6385 19.1929C14.614 19.0906 14.6189 18.9835 14.6526 18.8839C14.6862 18.7843 14.7473 18.6962 14.8289 18.6297C14.9104 18.5633 15.009 18.5212 15.1134 18.5084C15.2177 18.4955 15.3236 18.5123 15.4188 18.557L18.8134 20.1503L21.6545 17.0393C21.7313 16.9551 21.8321 16.8965 21.9432 16.8712C22.0543 16.8459 22.1705 16.8553 22.2762 16.8979L26.0446 18.4212L28.5205 15.4134C28.5994 15.3176 28.7079 15.2508 28.829 15.2236C28.95 15.1964 29.0767 15.2102 29.1891 15.263L32.9548 17.0311C33.0308 17.0668 33.0977 17.119 33.1506 17.184C33.2036 17.249 33.2412 17.3251 33.2608 17.4067L34.1468 21.111C34.1712 21.2133 34.1663 21.3204 34.1326 21.4201C34.0989 21.5197 34.0377 21.6078 33.9561 21.6742C33.8746 21.7406 33.7759 21.7826 33.6715 21.7954C33.5671 21.8082 33.4612 21.7913 33.366 21.7465L29.9921 20.1649L27.5313 23.1533C27.4558 23.2451 27.3529 23.3104 27.2377 23.3397C27.1224 23.369 27.0009 23.3608 26.8907 23.3162L23.103 21.7852L20.246 24.9133C20.1934 24.9705 20.1296 25.016 20.0585 25.0471C19.9874 25.0781 19.9106 25.0941 19.833 25.0938ZM16.5485 22.3756L19.6985 23.8546L22.5401 20.7437C22.617 20.6601 22.7175 20.602 22.8283 20.577C22.9391 20.5521 23.0548 20.5615 23.1601 20.604L26.9298 22.129L29.4056 19.1211C29.4845 19.0253 29.5932 18.9584 29.7143 18.9312C29.8355 18.904 29.9623 18.9179 30.0746 18.9708L32.7894 20.2452L32.236 17.9313L29.1066 16.4622L26.6457 19.4507C26.5701 19.5424 26.4672 19.6076 26.352 19.6368C26.2368 19.6661 26.1152 19.6578 26.0051 19.6131L22.2169 18.0822L19.3599 21.2094C19.2795 21.2975 19.173 21.3575 19.0561 21.3807C18.9391 21.4039 18.8178 21.3891 18.7098 21.3383L15.9951 20.0635L16.5485 22.3756Z" fill="#861A3F"/>
<path d="M33.1333 8.8688C33.0899 8.86824 33.0466 8.86276 33.0044 8.85247C32.8987 8.82877 32.8022 8.77484 32.7266 8.69725C32.651 8.61966 32.5996 8.52177 32.5786 8.41548C32.4669 7.79149 32.4113 7.15876 32.4123 6.52485C32.417 5.08367 32.7427 4.01289 33.38 3.34128C33.9815 2.70792 34.8138 2.46257 35.855 2.61081C36.5769 2.71437 37.2132 3.24976 37.4758 3.97422C37.7525 4.73863 37.5617 5.56407 36.9537 6.23954C36.3925 6.86259 35.6217 7.48563 34.657 8.0872C34.2819 8.32181 33.9562 8.50357 33.7491 8.61486C33.4143 8.79619 33.2794 8.8688 33.1333 8.8688ZM35.2904 3.68847C34.8216 3.68847 34.4593 3.82855 34.1899 4.11215C33.7602 4.56375 33.5329 5.40121 33.5291 6.53001C33.5291 6.86216 33.5471 7.17454 33.572 7.43536C34.2729 7.03274 35.3733 6.32719 36.124 5.49446C36.5442 5.02781 36.5197 4.61832 36.4248 4.35707C36.3049 4.02621 36.0049 3.76367 35.6943 3.71941C35.5605 3.69953 35.4256 3.68919 35.2904 3.68847Z" fill="#861A3F"/>
<path opacity="0.4" d="M15.6354 18.7408C15.6354 18.7408 27.1459 15.7966 32.8057 22.138L33.6015 22.9191L31.5639 12.7188L14.6342 16.7686L15.6354 18.7408Z" fill="#A81A3F"/>
<path d="M26.1598 12.6926C26.0544 12.6924 25.9527 12.6535 25.8741 12.5833C25.7955 12.513 25.7455 12.4163 25.7335 12.3116C25.7216 12.2068 25.7486 12.1014 25.8094 12.0152C25.8701 11.9291 25.9604 11.8683 26.0631 11.8444L31.8252 10.5081C32.0555 10.4548 32.0706 10.1489 32.0714 10.0883C32.0714 9.97096 32.0439 9.89018 31.8935 9.82315C31.793 9.78175 31.6859 9.75833 31.5773 9.75397C31.4633 9.75357 31.3542 9.70792 31.2739 9.62705C31.1936 9.54619 31.1487 9.43674 31.1491 9.32278C31.1495 9.20882 31.1951 9.09968 31.276 9.01938C31.3569 8.93908 31.4663 8.8942 31.5803 8.89459C31.6465 8.89459 32.236 8.90577 32.6201 9.29463C32.7235 9.40056 32.8043 9.52634 32.8577 9.66437C32.9111 9.8024 32.936 9.94981 32.9308 10.0977C32.9235 10.7289 32.5656 11.2183 32.0194 11.3438L26.2573 12.6797C26.2254 12.6878 26.1927 12.6921 26.1598 12.6926Z" fill="white"/>
</svg>
