<svg width="37" height="59" viewBox="0 0 37 59" fill="none" xmlns="http://www.w3.org/2000/svg">
<path d="M28.2912 7.76351L3.29206 13.7422C1.57557 14.1527 0.516835 15.8768 0.927306 17.5932C1.33778 19.3095 3.06202 20.3681 4.77851 19.9576L29.7776 13.9789C31.4941 13.5684 32.5528 11.8442 32.1424 10.1279C31.7319 8.41158 30.0076 7.353 28.2912 7.76351Z" fill="#FFEAE8"/>
<path d="M4.03751 20.8013C3.06856 20.8026 2.13292 20.4479 1.40838 19.8045C0.683833 19.1612 0.220879 18.2741 0.107487 17.3118C-0.00590474 16.3495 0.238169 15.3791 0.793327 14.585C1.34849 13.7908 2.17604 13.2283 3.11874 13.0043L28.1158 7.02562C29.1351 6.78179 30.2095 6.95286 31.1027 7.5012C31.9958 8.04953 32.6346 8.93022 32.8784 9.94951C33.1223 10.9688 32.9512 12.0432 32.4028 12.9364C31.8545 13.8295 30.9738 14.4683 29.9545 14.7121L4.95453 20.6925C4.65414 20.7644 4.34638 20.8009 4.03751 20.8013V20.8013ZM29.0334 8.42967C28.8427 8.42967 28.6527 8.45233 28.4673 8.49716L3.46786 14.477C2.84657 14.6349 2.3124 15.031 1.98087 15.5796C1.64934 16.1282 1.54712 16.7853 1.6963 17.4088C1.84549 18.0322 2.23409 18.5718 2.77806 18.911C3.32203 19.2501 3.97764 19.3615 4.60308 19.221L29.6025 13.2406C30.1822 13.1 30.6903 12.7521 31.0309 12.2624C31.3714 11.7727 31.5208 11.1752 31.4507 10.5828C31.3806 9.9905 31.096 9.44435 30.6506 9.04761C30.2052 8.65088 29.6299 8.43104 29.0334 8.42967V8.42967Z" fill="#861A3F"/>
<path d="M32.665 39.3461L33.2987 38.3971C33.8403 37.346 33.9863 36.1353 33.71 34.9856C33.6833 34.8745 33.6676 34.7756 33.6338 34.6685V34.658L28.742 14.2233L5.8164 19.7075L9.552 35.3237C9.552 35.3237 9.385 35.8939 9.20636 36.1383C8.96431 36.4676 8.39931 36.9919 8.39931 36.9919C4.73528 39.1681 2.43457 43.8853 3.72283 49.2705C5.14376 55.212 11.1126 58.8766 17.0546 57.4551C18.5534 57.0983 19.9609 56.4316 21.1864 55.4977C22.4118 54.5639 23.4281 53.3837 24.1697 52.0332L32.665 39.3485" fill="#E20613"/>
<path d="M29.68 41.5432L27.5754 40.0582C27.4096 39.9436 27.2722 39.7927 27.1736 39.617C27.0749 39.4412 27.0177 39.2452 27.0064 39.044L26.4518 37.5678C26.1248 36.6997 26.064 35.7539 26.2773 34.8511L26.7079 33.0246C26.6991 32.8256 26.736 32.6274 26.8155 32.4448C26.8951 32.2623 27.0153 32.1004 27.167 31.9714L30.3515 29.2116C31.1155 28.5494 32.3467 28.8624 32.6574 29.7998L34.6329 35.757C34.6933 35.9394 34.712 36.1329 34.6877 36.3235C34.6633 36.514 34.5965 36.6967 34.4921 36.8579L31.7352 41.1638C31.3029 41.8387 30.3498 42.0156 29.68 41.5432Z" fill="#FE5B4A"/>
<path d="M4.86487 40.418L6.9049 37.1491C7.70323 36.9513 8.5801 37.1217 9.29464 37.6146L12.4664 38.7038C14.3475 39.3533 16.0278 40.4799 17.343 41.9734L20.001 44.9927C20.8122 46.4771 21.5389 48.8074 21.6512 49.6226L22.2523 53.9867C22.5287 55.993 16.369 58.5526 14.4046 57.8003L9.09157 56.3613C8.31943 56.0657 5.9902 53.8133 5.65854 53.0679L3.72382 49.2706C3.04886 47.7426 3.2944 40.8079 4.86487 40.418Z" fill="#FE5B4A"/>
<path d="M14.4814 58.5164C9.13981 58.5164 4.28353 54.864 2.98713 49.4462C2.34009 46.7411 2.52163 44.0418 3.50499 41.6405C4.41154 39.4334 5.98434 37.5674 7.93883 36.3856C8.14423 36.1907 8.46252 35.8706 8.5946 35.6908C8.66417 35.5646 8.72127 35.4319 8.76509 35.2946L4.90322 19.1489L29.3022 13.3127L34.3644 34.4724C34.3912 34.5643 34.4086 34.647 34.4226 34.7174C34.429 34.7476 34.4354 34.7756 34.443 34.8093C34.7597 36.1348 34.5917 37.5298 33.9693 38.7422L33.9495 38.7812L33.292 39.7674L24.8177 52.4277C23.7944 54.2722 22.2963 55.8094 20.4789 56.88C18.6614 57.9506 16.5907 58.5156 14.4814 58.5164ZM6.72622 20.2684L10.3338 35.3446L10.2756 35.5372C10.2273 35.7013 10.0528 36.2611 9.81012 36.5846C9.53374 36.9605 8.97165 37.4859 8.90881 37.5447L8.85062 37.5994L8.78196 37.6401C7.0736 38.6555 5.69806 40.2795 4.90264 42.213C4.03798 44.3188 3.88379 46.6975 4.45635 49.0919C5.77836 54.6196 11.3509 58.0399 16.8769 56.7144C18.2722 56.3791 19.5824 55.7568 20.7239 54.8871C21.8654 54.0174 22.8131 52.9194 23.5067 51.6631L23.5405 51.605L32.0323 38.9202L32.6409 38.0084C33.083 37.1265 33.1996 36.1168 32.9703 35.1573C32.9606 35.1142 32.9512 35.0723 32.9423 35.0316C32.9301 34.9734 32.9202 34.928 32.908 34.8896L32.8911 34.825L28.185 15.1357L6.72622 20.2684Z" fill="#861A3F"/>
<path d="M10.8199 38.6241C10.7625 38.624 10.7053 38.6175 10.6494 38.6049C9.808 38.4105 9.26744 38.4035 9.26221 38.4035C9.06159 38.403 8.8694 38.3228 8.72793 38.1805C8.58645 38.0383 8.50728 37.8457 8.50782 37.6451C8.50836 37.4445 8.58857 37.2523 8.73081 37.1108C8.87305 36.9693 9.06566 36.8901 9.26628 36.8907C9.29421 36.8907 9.96452 36.8948 10.9874 37.1304C11.1686 37.172 11.3281 37.2789 11.4355 37.4306C11.5428 37.5822 11.5906 37.7682 11.5697 37.9528C11.5488 38.1375 11.4606 38.308 11.3219 38.4318C11.1833 38.5556 11.004 38.6241 10.8181 38.6241H10.8199Z" fill="#861A3F"/>
<path d="M21.5334 50.8585C21.3672 50.8585 21.2056 50.8037 21.0736 50.7027C20.9416 50.6016 20.8465 50.4598 20.8032 50.2993C20.5667 49.4076 20.2814 48.5296 19.9484 47.6693C19.911 47.5765 19.8923 47.4772 19.8935 47.3771C19.8947 47.2771 19.9158 47.1782 19.9555 47.0864C19.9951 46.9945 20.0526 46.9114 20.1246 46.842C20.1967 46.7725 20.2817 46.718 20.375 46.6816C20.4682 46.6452 20.5677 46.6277 20.6677 46.6301C20.7678 46.6324 20.8663 46.6546 20.9577 46.6953C21.0492 46.736 21.1316 46.7945 21.2002 46.8673C21.2689 46.9401 21.3224 47.0258 21.3577 47.1194C21.7112 48.0319 22.014 48.9631 22.2649 49.9089C22.2948 50.021 22.2986 50.1385 22.2759 50.2524C22.2532 50.3662 22.2047 50.4732 22.1339 50.5653C22.0632 50.6573 21.9723 50.7318 21.8682 50.7831C21.764 50.8343 21.6495 50.861 21.5334 50.8608V50.8585ZM19.4457 45.5687C19.3107 45.5686 19.1783 45.5324 19.0621 45.4639C18.9458 45.3953 18.8501 45.2969 18.7847 45.1789C18.3446 44.3847 17.8385 43.6289 17.2718 42.9195C17.1511 42.7628 17.0966 42.5652 17.1199 42.3688C17.1432 42.1724 17.2425 41.993 17.3964 41.8689C17.5504 41.7449 17.7469 41.686 17.9437 41.705C18.1405 41.724 18.3221 41.8193 18.4495 41.9705C19.0706 42.746 19.6254 43.5725 20.1078 44.4411C20.1728 44.5564 20.2064 44.6868 20.2052 44.8191C20.204 44.9515 20.1681 45.0812 20.1011 45.1954C20.034 45.3095 19.9382 45.404 19.8232 45.4696C19.7082 45.5351 19.578 45.5693 19.4457 45.5687V45.5687ZM15.8654 41.1716C15.6888 41.1716 15.5177 41.1099 15.3819 40.997C14.6942 40.4237 13.9448 39.9287 13.1475 39.5214C12.9686 39.4304 12.8332 39.2721 12.7711 39.0813C12.7089 38.8905 12.7251 38.6828 12.8161 38.504C12.9071 38.3251 13.0654 38.1897 13.2562 38.1276C13.447 38.0654 13.6547 38.0816 13.8335 38.1726C14.731 38.6311 15.5747 39.188 16.349 39.8333C16.4686 39.9327 16.5547 40.0666 16.5955 40.2167C16.6364 40.3668 16.6299 40.5259 16.577 40.6722C16.5242 40.8185 16.4275 40.9449 16.3001 41.0343C16.1728 41.1237 16.021 41.1716 15.8654 41.1716V41.1716Z" fill="#861A3F"/>
<path d="M22.3759 55.2033C22.1927 55.2032 22.0158 55.1367 21.8779 55.0159C21.7401 54.8952 21.6507 54.7286 21.6265 54.547C21.5596 54.0314 21.4822 53.5194 21.3967 53.0248C21.3621 52.8268 21.4076 52.6232 21.5232 52.4588C21.6387 52.2943 21.8149 52.1825 22.0129 52.148C22.2109 52.1134 22.4145 52.1589 22.5789 52.2744C22.7434 52.39 22.8552 52.5662 22.8897 52.7641C22.9793 53.2797 23.0596 53.8115 23.1295 54.3491C23.1554 54.5481 23.1012 54.7491 22.9789 54.9081C22.8566 55.0671 22.6761 55.171 22.4772 55.1969C22.4436 55.2012 22.4098 55.2033 22.3759 55.2033V55.2033Z" fill="#861A3F"/>
<path d="M30.3592 43.5449C30.1711 43.5448 29.9898 43.4747 29.8506 43.3482C29.0348 42.6171 28.2891 41.8114 27.6232 40.9416C27.5615 40.8624 27.5161 40.7716 27.4898 40.6747C27.4635 40.5777 27.4568 40.4765 27.47 40.3769C27.4832 40.2774 27.5162 40.1814 27.5669 40.0947C27.6176 40.008 27.685 39.9323 27.7653 39.8719C27.8456 39.8115 27.9371 39.7678 28.0345 39.7432C28.1319 39.7186 28.2332 39.7136 28.3326 39.7286C28.4319 39.7435 28.5272 39.7781 28.6131 39.8304C28.6989 39.8826 28.7734 39.9514 28.8324 40.0327C29.4413 40.8265 30.1232 41.5617 30.8689 42.2287C30.9819 42.3314 31.0612 42.4659 31.0963 42.6145C31.1314 42.7631 31.1207 42.9189 31.0656 43.0613C31.0105 43.2038 30.9136 43.3262 30.7876 43.4125C30.6616 43.4988 30.5125 43.5449 30.3598 43.5449H30.3592ZM26.7411 38.4925C26.5814 38.4923 26.4258 38.4415 26.2967 38.3474C26.1677 38.2533 26.0717 38.1208 26.0225 37.9688C25.779 37.2357 25.6531 36.4686 25.6495 35.696C25.6498 35.2963 25.6849 34.8974 25.7543 34.5038C25.7915 34.3084 25.9042 34.1356 26.0679 34.0227C26.2317 33.9098 26.4333 33.866 26.6291 33.9006C26.825 33.9353 26.9993 34.0456 27.1143 34.2079C27.2294 34.3701 27.2759 34.5711 27.2439 34.7674C27.1896 35.0747 27.1624 35.3863 27.1624 35.6984C27.1658 36.3116 27.2664 36.9204 27.4603 37.5022C27.497 37.6156 27.5063 37.7361 27.4876 37.8539C27.4688 37.9716 27.4225 38.0833 27.3524 38.1797C27.2823 38.2762 27.1904 38.3547 27.0841 38.4088C26.9779 38.463 26.8604 38.4912 26.7411 38.4913V38.4925ZM27.7303 32.5318C27.5921 32.5317 27.4565 32.4937 27.3384 32.422C27.2202 32.3503 27.124 32.2475 27.0601 32.1249C26.9962 32.0023 26.9671 31.8646 26.9761 31.7267C26.985 31.5887 27.0315 31.4558 27.1106 31.3425C27.707 30.4877 28.4792 29.6696 29.4055 28.9109C29.4824 28.8479 29.5709 28.8008 29.666 28.772C29.7611 28.7433 29.8609 28.7336 29.9598 28.7435C30.0586 28.7533 30.1545 28.7826 30.2421 28.8295C30.3297 28.8765 30.4071 28.9402 30.47 29.017C30.533 29.0939 30.5801 29.1824 30.6088 29.2775C30.6376 29.3726 30.6473 29.4725 30.6374 29.5713C30.6275 29.6702 30.5983 29.7661 30.5514 29.8536C30.5044 29.9412 30.4407 30.0187 30.3638 30.0816C29.5451 30.7519 28.8684 31.467 28.3512 32.2083C28.2814 32.3082 28.1887 32.3898 28.0807 32.4461C27.9727 32.5024 27.8527 32.5318 27.7309 32.5318H27.7303Z" fill="#861A3F"/>
<path d="M30.3037 20.7506L25.2042 18.3563L21.4983 22.8564L15.8809 20.5866L11.6577 25.2107L6.55823 22.8163L7.75804 27.8325L12.8575 30.2269L17.0807 25.6022L22.6987 27.8727L26.404 23.372L31.5035 25.7663L30.3037 20.7506Z" fill="#FA6F00"/>
<path d="M12.8573 30.9812C12.7462 30.981 12.6366 30.9564 12.5361 30.909L7.43659 28.5152C7.33383 28.4668 7.24329 28.396 7.17167 28.3078C7.10005 28.2197 7.0492 28.1165 7.02288 28.0061L5.82307 22.9904C5.78988 22.8519 5.79647 22.7068 5.84207 22.5719C5.88766 22.437 5.97041 22.3177 6.0808 22.2277C6.19119 22.1378 6.32474 22.0808 6.46607 22.0634C6.60741 22.0459 6.7508 22.0687 6.87974 22.1292L11.4765 24.2868L15.3238 20.074C15.4279 19.96 15.5643 19.8806 15.7148 19.8464C15.8653 19.8121 16.0227 19.8248 16.1658 19.8826L21.2688 21.9453L24.6215 17.8722C24.7284 17.7425 24.8754 17.6521 25.0393 17.6152C25.2032 17.5784 25.3748 17.5971 25.5269 17.6686L30.6264 20.063C30.7292 20.1112 30.8198 20.182 30.8915 20.27C30.9633 20.358 31.0142 20.4611 31.0407 20.5715L32.2405 25.5878C32.2736 25.7263 32.267 25.8714 32.2213 26.0063C32.1756 26.1412 32.0928 26.2605 31.9823 26.3504C31.8719 26.4403 31.7383 26.4972 31.5969 26.5145C31.4555 26.5319 31.3122 26.5089 31.1832 26.4484L26.6144 24.3065L23.282 28.3534C23.1797 28.4777 23.0404 28.5662 22.8844 28.6058C22.7284 28.6455 22.5637 28.6343 22.4145 28.574L17.2853 26.5008L13.4165 30.7368C13.3453 30.8141 13.2589 30.8758 13.1626 30.9179C13.0663 30.9599 12.9623 30.9815 12.8573 30.9812V30.9812ZM8.40948 27.3003L12.6752 29.3031L16.5231 25.0903C16.6272 24.9772 16.7634 24.8985 16.9134 24.8647C17.0634 24.8309 17.2201 24.8437 17.3627 24.9012L22.4674 26.9663L25.8202 22.8932C25.927 22.7634 26.0741 22.6729 26.2382 22.636C26.4023 22.5991 26.574 22.6179 26.7261 22.6895L30.4024 24.4153L29.6529 21.282L25.4152 19.2926L22.0828 23.3395C21.9804 23.4637 21.8411 23.552 21.6851 23.5915C21.529 23.6311 21.3644 23.6198 21.2152 23.5594L16.0855 21.4862L12.2166 25.7211C12.1078 25.8403 11.9636 25.9216 11.8051 25.953C11.6467 25.9844 11.4824 25.9643 11.3363 25.8956L7.66003 24.1692L8.40948 27.3003Z" fill="#861A3F"/>
<path d="M30.8681 9.00982C30.8093 9.00905 30.7507 9.00164 30.6936 8.9877C30.5504 8.95561 30.4197 8.88258 30.3173 8.77751C30.2149 8.67244 30.1453 8.53987 30.1169 8.39594C29.9657 7.55095 29.8903 6.69413 29.8917 5.83571C29.8981 3.88412 30.3392 2.4341 31.2021 1.52464C32.0167 0.666958 33.1438 0.33471 34.5537 0.535455C35.5312 0.675686 36.393 1.4007 36.7485 2.38173C37.1232 3.41688 36.8649 4.53465 36.0415 5.44935C35.2816 6.29306 34.2377 7.13678 32.9314 7.95139C32.4235 8.26909 31.9824 8.51523 31.7019 8.66593C31.2487 8.91148 31.066 9.00982 30.8681 9.00982ZM33.7891 1.99479C33.1543 1.99479 32.6638 2.18448 32.2989 2.56851C31.7171 3.18006 31.4093 4.31412 31.404 5.8427C31.404 6.29248 31.4285 6.7155 31.4622 7.0687C32.4112 6.52348 33.9014 5.56805 34.918 4.44039C35.487 3.80848 35.4539 3.25395 35.3253 2.90018C35.1629 2.45214 34.7568 2.09661 34.3361 2.03668C34.155 2.00976 33.9722 1.99576 33.7891 1.99479V1.99479Z" fill="#861A3F"/>
<path opacity="0.4" d="M7.17301 22.3782C7.17301 22.3782 22.7601 18.3913 30.4245 26.9785L31.5021 28.0363L28.7429 14.2233L5.81726 19.7074L7.17301 22.3782Z" fill="#A81A3F"/>
<path d="M21.4247 14.1879C21.282 14.1877 21.1443 14.135 21.0378 14.0398C20.9314 13.9447 20.8637 13.8137 20.8475 13.6719C20.8313 13.5301 20.8679 13.3872 20.9502 13.2706C21.0325 13.1539 21.1548 13.0716 21.2938 13.0393L29.0966 11.2297C29.4085 11.1575 29.4289 10.7432 29.43 10.6612C29.43 10.5023 29.3928 10.3929 29.1891 10.3022C29.053 10.2461 28.908 10.2144 28.7609 10.2085C28.6066 10.2079 28.4588 10.1461 28.35 10.0366C28.2413 9.92711 28.1805 9.7789 28.1811 9.62457C28.1816 9.47025 28.2434 9.32247 28.3529 9.21373C28.4624 9.10499 28.6106 9.0442 28.765 9.04474C28.8546 9.04474 29.6529 9.05987 30.1731 9.58646C30.313 9.72991 30.4225 9.90023 30.4948 10.0871C30.5671 10.2741 30.6008 10.4737 30.5938 10.674C30.5839 11.5287 30.0992 12.1915 29.3596 12.3614L21.5568 14.1704C21.5136 14.1814 21.4693 14.1872 21.4247 14.1879V14.1879Z" fill="white"/>
</svg>
