<svg width="49" height="57" viewBox="0 0 49 57" fill="none" xmlns="http://www.w3.org/2000/svg">
<path d="M26.6577 14.7944L25.3066 12.0596C25.2955 12.038 25.2839 12.0165 25.2722 11.9956C25.2492 11.9568 25.2235 11.9197 25.1954 11.8844C25.1821 11.8675 25.1681 11.8513 25.1535 11.8361C25.1256 11.8058 25.0955 11.7776 25.0633 11.7518C24.9029 11.6253 24.7044 11.557 24.5001 11.558C24.398 11.5579 24.2965 11.5746 24.1999 11.6075C24.1616 11.6208 24.1243 11.6365 24.0881 11.6546C24.0343 11.6816 23.9834 11.7142 23.9363 11.7518V11.7518C23.9041 11.7777 23.8737 11.8059 23.8455 11.8361C23.8315 11.8513 23.8176 11.8681 23.8042 11.8844C23.761 11.9384 23.7237 11.997 23.693 12.059L22.3425 14.7938L21.6827 14.5098C20.1767 13.8614 18.9405 12.7133 18.1826 11.2593C17.4247 9.80532 17.1916 8.1344 17.5227 6.52849C17.8537 4.92259 18.7285 3.48004 19.9996 2.44424C21.2707 1.40845 22.8601 0.842834 24.4998 0.842834C26.1395 0.842834 27.7289 1.40845 29 2.44424C30.2711 3.48004 31.1459 4.92259 31.477 6.52849C31.808 8.1344 31.5749 9.80532 30.817 11.2593C30.0592 12.7133 28.8229 13.8614 27.3169 14.5098L26.6577 14.7944ZM24.5001 10.0428C25.0497 10.0417 25.5833 10.2278 26.013 10.5706C26.1019 10.642 26.1855 10.7198 26.2632 10.8033C26.3027 10.8458 26.3411 10.89 26.3795 10.9354C26.4537 11.0273 26.521 11.1246 26.5809 11.2263C26.6111 11.2775 26.639 11.3316 26.667 11.3858L27.3617 12.7939C28.4202 12.1674 29.2435 11.2105 29.705 10.0704C30.1664 8.93025 30.2405 7.67008 29.9157 6.48375C29.591 5.29743 28.8854 4.25068 27.9076 3.50455C26.9298 2.75843 25.7339 2.35428 24.5039 2.35428C23.2739 2.35428 22.078 2.75843 21.1002 3.50455C20.1224 4.25068 19.4168 5.29743 19.092 6.48375C18.7673 7.67008 18.8413 8.93025 19.3028 10.0704C19.7642 11.2105 20.5876 12.1674 21.646 12.7939L22.3408 11.3858C22.4199 11.225 22.5162 11.0734 22.6282 10.9336C22.6643 10.8888 22.7027 10.8446 22.7446 10.8021C22.9367 10.5956 23.1641 10.425 23.4161 10.2982C23.5136 10.2498 23.6141 10.2076 23.7169 10.172C23.9691 10.0861 24.2337 10.0421 24.5001 10.0416V10.0428Z" fill="black"/>
<path d="M47.3624 29.4108C48.3451 28.4525 47.8028 26.7837 46.4442 26.5858L33.1688 24.6569C32.9031 24.6182 32.6508 24.5156 32.4336 24.3577C32.2164 24.1999 32.0408 23.9917 31.9219 23.751L27.0179 13.8144L25.9851 11.7197C25.9659 11.6813 25.9455 11.644 25.9269 11.6079C25.8855 11.5374 25.839 11.4699 25.7878 11.406C25.7628 11.3746 25.7372 11.3444 25.7098 11.3158C25.6569 11.2589 25.5999 11.2058 25.5393 11.157C25.2449 10.9222 24.8791 10.7949 24.5025 10.7962C24.2418 10.7947 23.9845 10.8545 23.7513 10.9708C23.5797 11.0568 23.425 11.1728 23.2945 11.3135C23.2677 11.342 23.2415 11.3717 23.2165 11.4037C23.1389 11.5008 23.072 11.6059 23.0169 11.7173L17.0784 23.751C16.9596 23.9918 16.784 24.2 16.5667 24.3579C16.3495 24.5157 16.0972 24.6183 15.8314 24.6569L2.55553 26.5858C1.19686 26.7837 0.654559 28.4525 1.63734 29.4108L11.244 38.7742C11.4364 38.9617 11.5802 39.1931 11.6632 39.4486C11.7461 39.704 11.7656 39.9759 11.72 40.2405L9.45067 53.4624C9.21793 54.8152 10.6383 55.848 11.8532 55.208L23.7292 48.9657C23.9668 48.8407 24.2313 48.7754 24.4998 48.7754C24.7684 48.7754 25.0329 48.8407 25.2705 48.9657L37.1447 55.208C38.3597 55.848 39.7794 54.8152 39.5473 53.4624L37.278 40.2405C37.2324 39.9759 37.2519 39.704 37.3348 39.4486C37.4177 39.1931 37.5616 38.9617 37.7539 38.7742L47.3624 29.4108Z" fill="#F3B427"/>
<path d="M37.9174 56.1571C37.5254 56.1568 37.1393 56.0609 36.7927 55.8778L24.9185 49.6349C24.7894 49.567 24.6457 49.5315 24.4998 49.5315C24.3539 49.5315 24.2103 49.567 24.0812 49.6349L12.207 55.8778C11.8085 56.0872 11.3594 56.1809 10.9105 56.1484C10.4616 56.1159 10.0307 55.9584 9.66656 55.6938C9.30244 55.4292 9.0196 55.068 8.85003 54.6511C8.68047 54.2341 8.63093 53.778 8.70703 53.3344L10.9763 40.1126C11.001 39.9688 10.9903 39.8211 10.9452 39.6824C10.9001 39.5436 10.8219 39.4179 10.7174 39.3161L1.10956 29.9526C0.787162 29.6383 0.559148 29.2401 0.451315 28.803C0.343481 28.3658 0.360132 27.9072 0.499383 27.4791C0.638634 27.0509 0.894928 26.6703 1.23927 26.3802C1.58362 26.0901 2.00226 25.9022 2.44786 25.8377L15.7232 23.9088C15.8675 23.8877 16.0045 23.8319 16.1225 23.7461C16.2405 23.6604 16.3359 23.5473 16.4005 23.4165L22.3356 11.3864C22.4146 11.2257 22.511 11.0741 22.623 10.9343C22.6591 10.8895 22.6975 10.8453 22.7394 10.8028C22.9315 10.5962 23.1589 10.4256 23.4109 10.2989C23.5084 10.2505 23.6088 10.2083 23.7117 10.1726C24.0978 10.0406 24.5109 10.0078 24.913 10.0771C25.3151 10.1464 25.6934 10.3157 26.013 10.5694C26.1019 10.6409 26.1855 10.7187 26.2632 10.8022C26.3027 10.8447 26.3411 10.8889 26.3795 10.9343C26.4537 11.0262 26.521 11.1234 26.5809 11.2252C26.6111 11.2764 26.6391 11.3305 26.667 11.3846L32.6021 23.4148C32.6667 23.5455 32.7621 23.6586 32.88 23.7444C32.998 23.8301 33.135 23.8859 33.2794 23.907L46.5547 25.8359C47.0003 25.9004 47.4189 26.0884 47.7633 26.3784C48.1076 26.6685 48.3639 27.0492 48.5032 27.4773C48.6424 27.9055 48.6591 28.3641 48.5512 28.8012C48.4434 29.2384 48.2154 29.6366 47.893 29.9509L38.284 39.3161C38.1796 39.4179 38.1015 39.5437 38.0565 39.6824C38.0115 39.8212 38.0009 39.9689 38.0257 40.1126L40.2949 53.3344C40.354 53.6805 40.3368 54.0354 40.2448 54.3742C40.1527 54.7131 39.9879 55.0278 39.7618 55.2964C39.5357 55.5651 39.2538 55.7813 38.9357 55.9299C38.6176 56.0785 38.2709 56.156 37.9198 56.1571H37.9174ZM24.5001 48.0191C24.8912 48.0189 25.2764 48.1139 25.6225 48.296L37.4967 54.536C37.6452 54.6143 37.8127 54.6494 37.9802 54.6374C38.1476 54.6254 38.3084 54.5667 38.4442 54.4681C38.58 54.3694 38.6855 54.2347 38.7488 54.0792C38.812 53.9237 38.8304 53.7536 38.8019 53.5881L36.5326 40.3657C36.4665 39.9803 36.4951 39.5845 36.6161 39.2126C36.737 38.8407 36.9466 38.5037 37.2268 38.2309L46.834 28.8692L47.3623 29.4109L46.834 28.8692C46.9542 28.752 47.0392 28.6036 47.0794 28.4406C47.1196 28.2776 47.1135 28.1066 47.0616 27.947C47.0097 27.7874 46.9142 27.6454 46.7858 27.5372C46.6575 27.429 46.5014 27.3589 46.3353 27.3348L33.06 25.4059C32.6729 25.3496 32.3054 25.2 31.9889 24.9701C31.6725 24.7402 31.4166 24.4369 31.2434 24.0862L25.3083 12.0561C25.2973 12.0346 25.2856 12.0131 25.274 11.9921C25.251 11.9534 25.2253 11.9162 25.1972 11.881C25.1838 11.8641 25.1698 11.8478 25.1553 11.8327C25.1274 11.8023 25.0972 11.7741 25.0651 11.7483C24.9047 11.6218 24.7061 11.5535 24.5019 11.5546C24.3997 11.5545 24.2983 11.5712 24.2016 11.604C24.1634 11.6173 24.1261 11.6331 24.0899 11.6511C24.036 11.6781 23.9851 11.7107 23.938 11.7483C23.9058 11.7743 23.8755 11.8025 23.8473 11.8327C23.8333 11.8478 23.8193 11.8647 23.8059 11.881C23.7627 11.935 23.7255 11.9935 23.6948 12.0555L17.7597 24.0857C17.5865 24.4363 17.3306 24.7397 17.0142 24.9695C16.6978 25.1994 16.3302 25.349 15.9431 25.4053L2.66432 27.3348C2.4982 27.3589 2.34214 27.429 2.2138 27.5372C2.08545 27.6454 1.98994 27.7874 1.93806 27.947C1.88617 28.1066 1.87999 28.2776 1.92022 28.4406C1.96044 28.6036 2.04546 28.752 2.16565 28.8692L11.7717 38.2332C12.0519 38.5061 12.2615 38.843 12.3824 39.2149C12.5033 39.5868 12.532 39.9826 12.4659 40.3681L10.1966 53.5904C10.1685 53.7559 10.1872 53.9259 10.2507 54.0812C10.3142 54.2365 10.4198 54.371 10.5558 54.4694C10.6917 54.5678 10.8524 54.6261 11.0198 54.6379C11.1872 54.6497 11.3545 54.6144 11.5029 54.536L23.3771 48.296C23.7234 48.1139 24.1088 48.0188 24.5001 48.0191Z" fill="black"/>
<path d="M24.2 11.6039L23.7118 10.1725C23.9662 10.0857 24.2332 10.0415 24.502 10.0416V11.5544C24.3993 11.5541 24.2972 11.5709 24.2 11.6039Z" fill="black"/>
<path d="M26.6628 11.3851L25.3062 12.0547L26.3391 14.1475L27.6957 13.4779L26.6628 11.3851Z" fill="black"/>
<path d="M24.0881 11.6522L23.4091 10.2988C23.5066 10.2503 23.607 10.2082 23.7099 10.1725L24.1992 11.6039C24.1612 11.6177 24.1241 11.6338 24.0881 11.6522V11.6522Z" fill="black"/>
<path d="M28.7117 25.425C28.5629 25.4254 28.4174 25.382 28.2932 25.3001C28.169 25.2182 28.0717 25.1016 28.0134 24.9647L24.3226 16.2896C24.2817 16.1979 24.2594 16.099 24.2572 15.9986C24.2549 15.8982 24.2726 15.7983 24.3094 15.7048C24.3461 15.6113 24.4011 15.5261 24.4711 15.4541C24.5411 15.3821 24.6248 15.3248 24.7172 15.2854C24.8096 15.2461 24.9089 15.2256 25.0093 15.225C25.1098 15.2245 25.2093 15.244 25.3021 15.2823C25.395 15.3207 25.4792 15.3771 25.55 15.4483C25.6208 15.5196 25.6767 15.6042 25.7144 15.6973L29.407 24.3718C29.4562 24.487 29.4759 24.6126 29.4645 24.7374C29.4531 24.8622 29.4109 24.9821 29.3417 25.0865C29.2725 25.1909 29.1784 25.2765 29.0679 25.3356C28.9574 25.3947 28.834 25.4254 28.7088 25.425H28.7117Z" fill="#F3D49E"/>
<path d="M2.15914 27.8281L16.522 36.633C16.5988 36.6799 16.6592 36.7492 16.6951 36.8317C16.7311 36.9142 16.7407 37.0057 16.7227 37.0938L14.3435 48.7993C14.329 48.8684 14.3315 48.9401 14.3507 49.008C14.3699 49.076 14.4052 49.1384 14.4536 49.1898C14.5021 49.2412 14.5622 49.2802 14.629 49.3033C14.6957 49.3265 14.767 49.3333 14.8369 49.323L22.2325 48.2355C22.7108 48.165 22.9342 48.8063 22.5158 49.0501L12.034 55.1044C11.9782 55.1369 11.9158 55.1566 11.8514 55.162C11.787 55.1674 11.7222 55.1585 11.6616 55.1358L9.87182 54.4679C9.77742 54.4326 9.69804 54.3659 9.64706 54.279C9.59609 54.1921 9.57662 54.0903 9.59194 53.9907L11.6867 40.4506C11.6968 40.3851 11.6919 40.318 11.6723 40.2546C11.6528 40.1912 11.6191 40.1331 11.5738 40.0846L1.73438 29.5156C1.67052 29.4484 1.62976 29.3625 1.61801 29.2706L1.4929 28.2564C1.48222 28.1741 1.49512 28.0905 1.5301 28.0153C1.56508 27.94 1.6207 27.8763 1.69049 27.8314C1.76028 27.7866 1.84138 27.7624 1.92434 27.7619C2.00731 27.7613 2.08873 27.7843 2.15914 27.8281Z" fill="#F3970D"/>
<path d="M23.3132 11.3375L23.2708 11.2979C23.3251 11.24 23.3834 11.1859 23.4453 11.1362L23.482 11.1816C23.4221 11.2295 23.3657 11.2816 23.3132 11.3375Z" fill="#B73F39"/>
<path d="M25.6865 11.3375C25.6344 11.2817 25.5784 11.2295 25.5189 11.1816L25.5556 11.1362C25.6175 11.1859 25.6758 11.24 25.7301 11.2979L25.6865 11.3375Z" fill="#B73F39"/>
<path d="M25.8996 11.6244C25.859 11.5549 25.8133 11.4886 25.7628 11.4259L25.8082 11.3893C25.8603 11.4542 25.9075 11.5229 25.9496 11.5947L25.8996 11.6244Z" fill="#B73F39"/>
<path d="M25.519 11.1815C25.2294 10.9511 24.8701 10.8261 24.5001 10.8271V10.7689C24.8834 10.7679 25.2557 10.8974 25.5556 11.1361L25.519 11.1815Z" fill="#B73F39"/>
<path d="M26.6577 14.7944L25.3066 12.0596C25.2955 12.038 25.2839 12.0165 25.2722 11.9956C25.2492 11.9568 25.2235 11.9197 25.1954 11.8844C25.1821 11.8675 25.1681 11.8513 25.1535 11.8361C25.1256 11.8058 25.0955 11.7776 25.0633 11.7518C24.9029 11.6253 24.7044 11.557 24.5001 11.558C24.398 11.5579 24.2965 11.5746 24.1999 11.6075C24.1616 11.6208 24.1243 11.6365 24.0881 11.6546C24.0343 11.6816 23.9834 11.7142 23.9363 11.7518V11.7518C23.9041 11.7777 23.8737 11.8059 23.8455 11.8361C23.8315 11.8513 23.8176 11.8681 23.8042 11.8844C23.761 11.9384 23.7237 11.997 23.693 12.059L22.3425 14.7938L21.6827 14.5098C20.1767 13.8614 18.9405 12.7133 18.1826 11.2593C17.4247 9.80532 17.1916 8.1344 17.5227 6.52849C17.8537 4.92259 18.7285 3.48004 19.9996 2.44424C21.2707 1.40845 22.8601 0.842834 24.4998 0.842834C26.1395 0.842834 27.7289 1.40845 29 2.44424C30.2711 3.48004 31.1459 4.92259 31.477 6.52849C31.808 8.1344 31.5749 9.80532 30.817 11.2593C30.0592 12.7133 28.8229 13.8614 27.3169 14.5098L26.6577 14.7944ZM24.5001 10.0428C25.0497 10.0417 25.5833 10.2278 26.013 10.5706C26.1019 10.642 26.1855 10.7198 26.2632 10.8033C26.3027 10.8458 26.3411 10.89 26.3795 10.9354C26.4537 11.0273 26.521 11.1246 26.5809 11.2263C26.6111 11.2775 26.639 11.3316 26.667 11.3858L27.3617 12.7939C28.4202 12.1674 29.2435 11.2105 29.705 10.0704C30.1664 8.93025 30.2405 7.67008 29.9157 6.48375C29.591 5.29743 28.8854 4.25068 27.9076 3.50455C26.9298 2.75843 25.7339 2.35428 24.5039 2.35428C23.2739 2.35428 22.078 2.75843 21.1002 3.50455C20.1224 4.25068 19.4168 5.29743 19.092 6.48375C18.7673 7.67008 18.8413 8.93025 19.3028 10.0704C19.7642 11.2105 20.5876 12.1674 21.646 12.7939L22.3408 11.3858C22.4199 11.225 22.5162 11.0734 22.6282 10.9336C22.6643 10.8888 22.7027 10.8446 22.7446 10.8021C22.9367 10.5956 23.1641 10.425 23.4161 10.2982C23.5136 10.2498 23.6141 10.2076 23.7169 10.172C23.9691 10.0861 24.2337 10.0421 24.5001 10.0416V10.0428Z" fill="#B73F39"/>
<path d="M37.9174 56.1571C37.5254 56.1568 37.1393 56.0609 36.7927 55.8778L24.9185 49.6349C24.7894 49.567 24.6457 49.5315 24.4998 49.5315C24.3539 49.5315 24.2103 49.567 24.0812 49.6349L12.207 55.8778C11.8085 56.0872 11.3594 56.1809 10.9105 56.1484C10.4616 56.1159 10.0307 55.9584 9.66656 55.6938C9.30244 55.4292 9.0196 55.068 8.85003 54.6511C8.68047 54.2341 8.63093 53.778 8.70703 53.3344L10.9763 40.1126C11.001 39.9688 10.9903 39.8211 10.9452 39.6824C10.9001 39.5436 10.8219 39.4179 10.7174 39.3161L1.10956 29.9526C0.787162 29.6383 0.559148 29.2401 0.451315 28.803C0.343481 28.3658 0.360132 27.9072 0.499383 27.4791C0.638634 27.0509 0.894928 26.6703 1.23927 26.3802C1.58362 26.0901 2.00226 25.9022 2.44786 25.8377L15.7232 23.9088C15.8675 23.8877 16.0045 23.8319 16.1225 23.7461C16.2405 23.6604 16.3359 23.5473 16.4005 23.4165L22.3356 11.3864C22.4146 11.2257 22.511 11.0741 22.623 10.9343C22.6591 10.8895 22.6975 10.8453 22.7394 10.8028C22.9315 10.5962 23.1589 10.4256 23.4109 10.2989C23.5084 10.2505 23.6088 10.2083 23.7117 10.1726C24.0978 10.0406 24.5109 10.0078 24.913 10.0771C25.3151 10.1464 25.6934 10.3157 26.013 10.5694C26.1019 10.6409 26.1855 10.7187 26.2632 10.8022C26.3027 10.8447 26.3411 10.8889 26.3795 10.9343C26.4537 11.0262 26.521 11.1234 26.5809 11.2252C26.6111 11.2764 26.6391 11.3305 26.667 11.3846L32.6021 23.4148C32.6667 23.5455 32.7621 23.6586 32.88 23.7444C32.998 23.8301 33.135 23.8859 33.2794 23.907L46.5547 25.8359C47.0003 25.9004 47.4189 26.0884 47.7633 26.3784C48.1076 26.6685 48.3639 27.0492 48.5032 27.4773C48.6424 27.9055 48.6591 28.3641 48.5512 28.8012C48.4434 29.2384 48.2154 29.6366 47.893 29.9509L38.284 39.3161C38.1796 39.4179 38.1015 39.5437 38.0565 39.6824C38.0115 39.8212 38.0009 39.9689 38.0257 40.1126L40.2949 53.3344C40.354 53.6805 40.3368 54.0354 40.2448 54.3742C40.1527 54.7131 39.9879 55.0278 39.7618 55.2964C39.5357 55.5651 39.2538 55.7813 38.9357 55.9299C38.6176 56.0785 38.2709 56.156 37.9198 56.1571H37.9174ZM24.5001 48.0191C24.8912 48.0189 25.2764 48.1139 25.6225 48.296L37.4967 54.536C37.6452 54.6143 37.8127 54.6494 37.9802 54.6374C38.1476 54.6254 38.3084 54.5667 38.4442 54.4681C38.58 54.3694 38.6855 54.2347 38.7488 54.0792C38.812 53.9237 38.8304 53.7536 38.8019 53.5881L36.5326 40.3657C36.4665 39.9803 36.4951 39.5845 36.6161 39.2126C36.737 38.8407 36.9466 38.5037 37.2268 38.2309L46.834 28.8692L47.3623 29.4109L46.834 28.8692C46.9542 28.752 47.0392 28.6036 47.0794 28.4406C47.1196 28.2776 47.1135 28.1066 47.0616 27.947C47.0097 27.7874 46.9142 27.6454 46.7858 27.5372C46.6575 27.429 46.5014 27.3589 46.3353 27.3348L33.06 25.4059C32.6729 25.3496 32.3054 25.2 31.9889 24.9701C31.6725 24.7402 31.4166 24.4369 31.2434 24.0862L25.3083 12.0561C25.2973 12.0346 25.2856 12.0131 25.274 11.9921C25.251 11.9534 25.2253 11.9162 25.1972 11.881C25.1838 11.8641 25.1698 11.8478 25.1553 11.8327C25.1274 11.8023 25.0972 11.7741 25.0651 11.7483C24.9047 11.6218 24.7061 11.5535 24.5019 11.5546C24.3997 11.5545 24.2983 11.5712 24.2016 11.604C24.1634 11.6173 24.1261 11.6331 24.0899 11.6511C24.036 11.6781 23.9851 11.7107 23.938 11.7483C23.9058 11.7743 23.8755 11.8025 23.8473 11.8327C23.8333 11.8478 23.8193 11.8647 23.8059 11.881C23.7627 11.935 23.7255 11.9935 23.6948 12.0555L17.7597 24.0857C17.5865 24.4363 17.3306 24.7397 17.0142 24.9695C16.6978 25.1994 16.3302 25.349 15.9431 25.4053L2.66432 27.3348C2.4982 27.3589 2.34214 27.429 2.2138 27.5372C2.08545 27.6454 1.98994 27.7874 1.93806 27.947C1.88617 28.1066 1.87999 28.2776 1.92022 28.4406C1.96044 28.6036 2.04546 28.752 2.16565 28.8692L11.7717 38.2332C12.0519 38.5061 12.2615 38.843 12.3824 39.2149C12.5033 39.5868 12.532 39.9826 12.4659 40.3681L10.1966 53.5904C10.1685 53.7559 10.1872 53.9259 10.2507 54.0812C10.3142 54.2365 10.4198 54.371 10.5558 54.4694C10.6917 54.5678 10.8524 54.6261 11.0198 54.6379C11.1872 54.6497 11.3545 54.6144 11.5029 54.536L23.3771 48.296C23.7234 48.1139 24.1088 48.0188 24.5001 48.0191Z" fill="#B73F39"/>
<path d="M24.2 11.6039L23.7118 10.1725C23.9662 10.0857 24.2332 10.0415 24.502 10.0416V11.5544C24.3993 11.5541 24.2972 11.5709 24.2 11.6039Z" fill="#B73F39"/>
<path d="M24.0881 11.6522L23.4091 10.2988C23.5066 10.2503 23.607 10.2082 23.7099 10.1725L24.1992 11.6039C24.1612 11.6177 24.1241 11.6338 24.0881 11.6522V11.6522Z" fill="#B73F39"/>
</svg>
