<svg width="59" height="51" viewBox="0 0 59 51" fill="none" xmlns="http://www.w3.org/2000/svg">
<path d="M49.8705 27.5321C49.8672 26.3189 50.247 25.1356 50.9557 24.1509C51.3949 23.5509 51.97 23.0636 52.6339 22.7288C53.2978 22.394 54.0316 22.2213 54.7751 22.2249L57.2771 17.2133C57.3695 17.0289 57.4133 16.8239 57.4042 16.6178C57.3951 16.4117 57.3336 16.2113 57.2253 16.0357C57.1171 15.8601 56.9658 15.715 56.7857 15.6143C56.6057 15.5136 56.4029 15.4605 56.1966 15.4601H38.6701V15.5707C37.4546 21.3463 32.3481 28.1449 26.6982 30.488C25.7582 30.8731 24.7516 31.0692 23.7359 31.0652H20.9685C20.256 31.0676 19.547 30.9659 18.8639 30.7633L18.8517 30.7598C17.2457 30.066 15.7997 29.0493 14.6035 27.7728C13.4073 26.4963 12.4865 24.9874 11.8984 23.3398C11.8327 23.1598 11.7256 22.9978 11.5857 22.8669C11.4459 22.7359 11.2772 22.6397 11.0933 22.586C10.9094 22.5322 10.7155 22.5225 10.5271 22.5575C10.3388 22.5925 10.1613 22.6713 10.009 22.7876C7.37549 24.7892 5.65723 28.0768 5.65723 31.7932C5.65723 37.8935 10.2848 42.8382 15.9935 42.8382C16.1018 42.8382 16.21 42.8382 16.3176 42.8323H43.5823C43.6719 42.8323 43.7621 42.8376 43.8523 42.8376C45.7214 42.8377 47.5302 42.1757 48.9575 40.9689C50.3849 39.7622 51.3386 38.0887 51.6493 36.2456C53.2021 35.8871 54.6102 35.0675 55.6886 33.8943C55.7431 33.8358 55.7793 33.7626 55.7928 33.6838C55.8063 33.605 55.7966 33.524 55.7647 33.4506C55.7328 33.3773 55.6802 33.3149 55.6134 33.271C55.5466 33.2271 55.4684 33.2037 55.3884 33.2036H55.3791C52.3348 33.2071 49.8705 30.6649 49.8705 27.5321Z" fill="#B73F39"/>
<path d="M32.3449 0.816162C32.3449 0.816162 33.4703 4.03506 34.1272 4.84676C34.7842 5.65847 37.3857 7.05146 37.3857 7.05146C37.3857 7.05146 34.7836 8.44445 34.1272 9.25616C33.4709 10.0679 32.3449 13.2873 32.3449 13.2873C32.3449 13.2873 31.219 10.0684 30.5621 9.25616C29.9051 8.44387 27.3036 7.05146 27.3036 7.05146C27.3036 7.05146 29.9057 5.65905 30.5621 4.84676C31.2184 4.03447 32.3449 0.816162 32.3449 0.816162Z" fill="#F3B427"/>
<path d="M10.2402 0.816162C10.2402 0.816162 10.8034 2.42619 11.1316 2.8335C11.4598 3.2408 12.7608 3.93555 12.7608 3.93555C12.7608 3.93555 11.4598 4.63379 11.1316 5.0411C10.8034 5.44841 10.2402 7.05611 10.2402 7.05611C10.2402 7.05611 9.67751 5.44666 9.34933 5.0411C9.02116 4.63554 7.72009 3.93555 7.72009 3.93555C7.72009 3.93555 9.02116 3.23731 9.34933 2.8335C9.67751 2.42968 10.2402 0.816162 10.2402 0.816162Z" fill="#F3B427"/>
<path d="M10.4081 22.9172C10.4081 22.9172 9.12445 35.2383 16.2593 36.5358C23.3942 37.8334 45.8183 37.0915 45.8183 37.0915C45.8183 37.0915 49.0616 36.5358 48.1353 33.385C47.2089 30.2342 47.6552 25.0177 50.9533 24.1507C50.9533 24.1507 47.2084 30.4192 54.1588 33.8482C54.1588 33.8482 53.8585 36.6056 51.6457 36.2466C51.6457 36.2466 50.0781 41.4474 45.4465 41.9105C40.8148 42.3737 13.9092 42.614 13.9092 42.614C13.9092 42.614 -1.7274 35.4274 10.4081 22.9172Z" fill="#A81A3F"/>
<path d="M49.8705 27.5321C49.8672 26.3189 50.247 25.1356 50.9557 24.1509C51.3949 23.5509 51.97 23.0636 52.6339 22.7288C53.2978 22.394 54.0316 22.2213 54.7751 22.2249L57.2771 17.2133C57.3695 17.0289 57.4133 16.8239 57.4042 16.6178C57.3951 16.4117 57.3336 16.2113 57.2253 16.0357C57.1171 15.8601 56.9658 15.715 56.7857 15.6143C56.6057 15.5136 56.4029 15.4605 56.1966 15.4601H38.6701V15.5707C37.4546 21.3463 32.3481 28.1449 26.6982 30.488C25.7582 30.8731 24.7516 31.0692 23.7359 31.0652H20.9685C20.256 31.0676 19.547 30.9659 18.8639 30.7633L18.8517 30.7598C17.2457 30.066 15.7997 29.0493 14.6035 27.7728C13.4073 26.4963 12.4865 24.9874 11.8984 23.3398C11.8327 23.1598 11.7256 22.9978 11.5857 22.8669C11.4459 22.7359 11.2772 22.6397 11.0933 22.586C10.9094 22.5322 10.7155 22.5225 10.5271 22.5575C10.3388 22.5925 10.1613 22.6713 10.009 22.7876C7.37549 24.7892 5.65723 28.0768 5.65723 31.7932C5.65723 37.8935 10.2848 42.8382 15.9935 42.8382C16.1018 42.8382 16.21 42.8382 16.3176 42.8323H43.5823C43.6719 42.8323 43.7621 42.8376 43.8523 42.8376C45.7214 42.8377 47.5302 42.1757 48.9575 40.9689C50.3849 39.7622 51.3386 38.0887 51.6493 36.2456C53.2021 35.8871 54.6102 35.0675 55.6886 33.8943C55.7431 33.8358 55.7793 33.7626 55.7928 33.6838C55.8063 33.605 55.7966 33.524 55.7647 33.4506C55.7328 33.3773 55.6802 33.3149 55.6134 33.271C55.5466 33.2271 55.4684 33.2037 55.3884 33.2036H55.3791C52.3348 33.2071 49.8705 30.6649 49.8705 27.5321Z" stroke="#690A3F" stroke-linecap="round" stroke-linejoin="round"/>
<path d="M49.8705 27.5321C49.8672 26.3189 50.247 25.1356 50.9557 24.1509C51.3949 23.5509 51.97 23.0636 52.6339 22.7288C53.2978 22.394 54.0316 22.2213 54.7751 22.2249L57.2771 17.2133C57.3695 17.0289 57.4133 16.8239 57.4042 16.6178C57.3951 16.4117 57.3336 16.2113 57.2253 16.0357C57.1171 15.8601 56.9658 15.715 56.7857 15.6143C56.6057 15.5136 56.4029 15.4605 56.1966 15.4601H38.6701V15.5707C37.4546 21.3463 32.3481 28.1449 26.6982 30.488C25.7582 30.8731 24.7516 31.0692 23.7359 31.0652H20.9685C20.256 31.0676 19.547 30.9659 18.8639 30.7633L18.8517 30.7598C17.2457 30.066 15.7997 29.0493 14.6035 27.7728C13.4073 26.4963 12.4865 24.9874 11.8984 23.3398C11.8327 23.1598 11.7256 22.9978 11.5857 22.8669C11.4459 22.7359 11.2772 22.6397 11.0933 22.586C10.9094 22.5322 10.7155 22.5225 10.5271 22.5575C10.3388 22.5925 10.1613 22.6713 10.009 22.7876C7.37549 24.7892 5.65723 28.0768 5.65723 31.7932C5.65723 37.8935 10.2848 42.8382 15.9935 42.8382C16.1018 42.8382 16.21 42.8382 16.3176 42.8323H43.5823C43.6719 42.8323 43.7621 42.8376 43.8523 42.8376C45.7214 42.8377 47.5302 42.1757 48.9575 40.9689C50.3849 39.7622 51.3386 38.0887 51.6493 36.2456C53.2021 35.8871 54.6102 35.0675 55.6886 33.8943C55.7431 33.8358 55.7793 33.7626 55.7928 33.6838C55.8063 33.605 55.7966 33.524 55.7647 33.4506C55.7328 33.3773 55.6802 33.3149 55.6134 33.271C55.5466 33.2271 55.4684 33.2037 55.3884 33.2036H55.3791C52.3348 33.2071 49.8705 30.6649 49.8705 27.5321Z" stroke="#690A3F" stroke-linecap="round" stroke-linejoin="round"/>
<path d="M4.78995 43.6929C4.78995 43.6929 3.15257 45.2139 4.38729 45.8703C5.32294 46.3672 6.02525 45.9541 6.02525 45.9541C6.34966 45.8073 6.6352 45.5866 6.85902 45.3096C7.08283 45.0327 7.2387 44.7072 7.31414 44.3592C7.38959 44.0112 7.38251 43.6504 7.29349 43.3056C7.20446 42.9609 7.03596 42.6417 6.80147 42.3738V42.3738C6.55525 42.0906 6.25451 41.86 5.91718 41.6956C5.57986 41.5313 5.21287 41.4366 4.83814 41.4172C4.46341 41.3978 4.08861 41.4541 3.73612 41.5828C3.38364 41.7115 3.06069 41.9098 2.78657 42.1661L2.69114 42.2545C2.30327 42.6146 1.99061 43.048 1.77122 43.5297C1.55184 44.0113 1.43008 44.5317 1.41298 45.0606C1.39588 45.5896 1.48379 46.1168 1.67161 46.6116C1.85944 47.1064 2.14346 47.5591 2.50727 47.9435L2.77202 48.2233C3.35798 48.8426 4.06406 49.3359 4.84712 49.6731C5.63018 50.0102 6.47376 50.1842 7.32631 50.1843H51.8783C52.667 50.1841 53.4473 50.0232 54.1717 49.7114C54.8962 49.3996 55.5494 48.9433 56.0916 48.3706L56.4954 47.9435C56.8592 47.5591 57.1432 47.1064 57.3311 46.6116C57.5189 46.1168 57.6068 45.5896 57.5897 45.0606C57.5726 44.5317 57.4508 44.0113 57.2315 43.5297C57.0121 43.048 56.6994 42.6146 56.3115 42.2545L56.2161 42.1661C55.942 41.9098 55.619 41.7115 55.2666 41.5828C54.9141 41.4541 54.5393 41.3978 54.1645 41.4172C53.7898 41.4366 53.4228 41.5313 53.0855 41.6956C52.7482 41.86 52.4474 42.0906 52.2012 42.3738V42.3738C51.9665 42.6416 51.7978 42.9606 51.7086 43.3053C51.6194 43.65 51.6121 44.0108 51.6874 44.3588C51.7627 44.7068 51.9184 45.0324 52.1421 45.3094C52.3658 45.5864 52.6513 45.8072 52.9757 45.9541C52.9757 45.9541 53.678 46.3672 54.6136 45.8703C55.8484 45.2139 54.211 43.6929 54.211 43.6929" stroke="#690A3F" stroke-linecap="round" stroke-linejoin="round"/>
<path d="M13.1677 42.4203L9.42749 50.1842" stroke="#690A3F" stroke-linecap="round" stroke-linejoin="round"/>
<path d="M45.4496 42.6775L49.4226 50.1842" stroke="#690A3F" stroke-linecap="round" stroke-linejoin="round"/>
<path d="M32.3449 0.816162C32.3449 0.816162 33.4703 4.03506 34.1272 4.84676C34.7842 5.65847 37.3857 7.05146 37.3857 7.05146C37.3857 7.05146 34.7836 8.44445 34.1272 9.25616C33.4709 10.0679 32.3449 13.2873 32.3449 13.2873C32.3449 13.2873 31.219 10.0684 30.5621 9.25616C29.9051 8.44387 27.3036 7.05146 27.3036 7.05146C27.3036 7.05146 29.9057 5.65905 30.5621 4.84676C31.2184 4.03447 32.3449 0.816162 32.3449 0.816162Z" stroke="#690A3F" stroke-linecap="round" stroke-linejoin="round"/>
<path d="M10.2402 0.816162C10.2402 0.816162 10.8034 2.42619 11.1316 2.8335C11.4598 3.2408 12.7608 3.93555 12.7608 3.93555C12.7608 3.93555 11.4598 4.63379 11.1316 5.0411C10.8034 5.44841 10.2402 7.05611 10.2402 7.05611C10.2402 7.05611 9.67751 5.44666 9.34933 5.0411C9.02116 4.63554 7.72009 3.93555 7.72009 3.93555C7.72009 3.93555 9.02116 3.23731 9.34933 2.8335C9.67751 2.42968 10.2402 0.816162 10.2402 0.816162Z" stroke="#690A3F" stroke-linecap="round" stroke-linejoin="round"/>
<path d="M53.1615 19.1416H41.1221C40.8906 19.1416 40.6686 19.0496 40.5049 18.886C40.3412 18.7223 40.2493 18.5003 40.2493 18.2688C40.2493 18.0373 40.3412 17.8153 40.5049 17.6516C40.6686 17.488 40.8906 17.396 41.1221 17.396H53.1615C53.393 17.396 53.615 17.488 53.7787 17.6516C53.9424 17.8153 54.0343 18.0373 54.0343 18.2688C54.0343 18.5003 53.9424 18.7223 53.7787 18.886C53.615 19.0496 53.393 19.1416 53.1615 19.1416Z" fill="#FE5B4A"/>
</svg>
