<svg width="98" height="98" viewBox="0 0 98 98" fill="none" xmlns="http://www.w3.org/2000/svg">
<g clip-path="url(#clip0_3_7293)">
<path d="M92.7632 36.75C91.3917 35.4526 90.3091 33.8806 89.5862 32.1366C88.8632 30.3925 88.5161 28.5157 88.5676 26.6284C88.6159 24.3518 88.202 22.089 87.3511 19.9768C86.5002 17.8646 85.2298 15.9469 83.6167 14.3396C82.0037 12.7323 80.0815 11.4687 77.9663 10.6253C75.8511 9.78185 73.5868 9.37608 71.3104 9.43249C69.4333 9.47526 67.5682 9.12397 65.8354 8.40129C64.1025 7.67861 62.5405 6.60061 61.25 5.23686C59.6756 3.56849 57.7769 2.23931 55.6704 1.33085C53.5639 0.422394 51.2941 -0.0462036 49 -0.0462036C46.706 -0.0462036 44.4362 0.422394 42.3297 1.33085C40.2232 2.23931 38.3245 3.56849 36.75 5.23686C35.4527 6.60839 33.8807 7.69094 32.1366 8.41388C30.3926 9.13683 28.5157 9.48391 26.6285 9.43249C24.3518 9.38417 22.0891 9.79799 19.9769 10.6489C17.8647 11.4999 15.947 12.7703 14.3396 14.3833C12.7323 15.9964 11.4688 17.9186 10.6253 20.0338C9.78191 22.149 9.37614 24.4132 9.43255 26.6897C9.47532 28.5667 9.12403 30.4318 8.40135 32.1647C7.67868 33.8975 6.60067 35.4596 5.23692 36.75C3.56855 38.3245 2.23937 40.2232 1.33091 42.3297C0.422455 44.4361 -0.0461426 46.706 -0.0461426 49C-0.0461426 51.294 0.422455 53.5638 1.33091 55.6703C2.23937 57.7768 3.56855 59.6755 5.23692 61.25C6.60845 62.5474 7.691 64.1194 8.41395 65.8634C9.13689 67.6074 9.48397 69.4843 9.43255 71.3715C9.38424 73.6482 9.79806 75.911 10.649 78.0232C11.4999 80.1354 12.7703 82.0531 14.3834 83.6604C15.9964 85.2677 17.9186 86.5313 20.0338 87.3747C22.149 88.2181 24.4133 88.6239 26.6897 88.5675C28.5667 88.5247 30.4319 88.876 32.1647 89.5987C33.8976 90.3214 35.4596 91.3994 36.75 92.7631C38.323 94.4123 40.2143 95.7251 42.3093 96.6221C44.4044 97.5191 46.6598 97.9816 48.9388 97.9816C51.2178 97.9816 53.4732 97.5191 55.5682 96.6221C57.6633 95.7251 59.5546 94.4123 61.1275 92.7631C62.4249 91.3916 63.9969 90.309 65.741 89.5861C67.485 88.8631 69.3619 88.5161 71.2491 88.5675C73.5359 88.6327 75.812 88.2313 77.9386 87.3879C80.0652 86.5445 81.9977 85.2768 83.6183 83.662C85.2388 82.0472 86.5134 80.1192 87.3643 77.9956C88.2152 75.872 88.6246 73.5973 88.5676 71.3103C88.5248 69.4333 88.8761 67.5682 89.5987 65.8353C90.3214 64.1025 91.3994 62.5404 92.7632 61.25C94.4316 59.6755 95.7607 57.7768 96.6692 55.6703C97.5776 53.5638 98.0462 51.294 98.0462 49C98.0462 46.706 97.5776 44.4361 96.6692 42.3297C95.7607 40.2232 94.4316 38.3245 92.7632 36.75ZM49 75.0312C43.8516 75.0312 38.8187 73.5045 34.5379 70.6442C30.257 67.7838 26.9206 63.7183 24.9503 58.9617C22.9801 54.2051 22.4646 48.9711 23.469 43.9215C24.4734 38.872 26.9526 34.2336 30.5932 30.5931C34.2337 26.9526 38.872 24.4733 43.9216 23.4689C48.9712 22.4645 54.2052 22.98 58.9618 24.9502C63.7184 26.9205 67.7839 30.257 70.6442 34.5378C73.5046 38.8186 75.0313 43.8515 75.0313 49C75.0313 55.9039 72.2887 62.5251 67.4069 67.4069C62.5251 72.2887 55.904 75.0312 49 75.0312Z" fill="url(#paint0_linear_3_7293)"/>
<path d="M12.25 55.125C15.6327 55.125 18.375 52.3827 18.375 49C18.375 45.6173 15.6327 42.875 12.25 42.875C8.86726 42.875 6.125 45.6173 6.125 49C6.125 52.3827 8.86726 55.125 12.25 55.125Z" fill="url(#paint1_linear_3_7293)"/>
<path d="M23.7804 81.4319C27.1631 81.4319 29.9054 78.6896 29.9054 75.3069C29.9054 71.9241 27.1631 69.1819 23.7804 69.1819C20.3977 69.1819 17.6554 71.9241 17.6554 75.3069C17.6554 78.6896 20.3977 81.4319 23.7804 81.4319Z" fill="url(#paint2_linear_3_7293)"/>
<path d="M49 91.875C52.3827 91.875 55.125 89.1327 55.125 85.75C55.125 82.3673 52.3827 79.625 49 79.625C45.6173 79.625 42.875 82.3673 42.875 85.75C42.875 89.1327 45.6173 91.875 49 91.875Z" fill="url(#paint3_linear_3_7293)"/>
<path d="M76.8381 80.3447C80.2209 80.3447 82.9631 77.6024 82.9631 74.2197C82.9631 70.8369 80.2209 68.0947 76.8381 68.0947C73.4554 68.0947 70.7131 70.8369 70.7131 74.2197C70.7131 77.6024 73.4554 80.3447 76.8381 80.3447Z" fill="url(#paint4_linear_3_7293)"/>
<path d="M87.2812 53.5938C90.664 53.5938 93.4062 50.8515 93.4062 47.4688C93.4062 44.086 90.664 41.3438 87.2812 41.3438C83.8985 41.3438 81.1562 44.086 81.1562 47.4688C81.1562 50.8515 83.8985 53.5938 87.2812 53.5938Z" fill="url(#paint5_linear_3_7293)"/>
<path d="M64.9709 27.0112L49 19.9062V10.7187L64.9709 3.61373C66.9199 2.74789 69.0543 2.38269 71.1803 2.55131C73.3063 2.71993 75.3565 3.41703 77.1446 4.57928C78.9327 5.74154 80.4021 7.33212 81.4194 9.20654C82.4366 11.081 82.9694 13.1798 82.9694 15.3125C82.9694 17.4451 82.4366 19.544 81.4194 21.4184C80.4021 23.2928 78.9327 24.8834 77.1446 26.0457C75.3565 27.2079 73.3063 27.905 71.1803 28.0737C69.0543 28.2423 66.9199 27.8771 64.9709 27.0112Z" fill="url(#paint6_linear_3_7293)"/>
<path d="M76.5625 38.2812L71.9688 39.8125V44.4062L70.1619 43.4109C65.4658 40.8557 61.4022 37.2803 58.27 32.9477C55.1378 28.615 53.0167 23.6354 52.0625 18.375L53.5938 16.8438C55.5205 21.6603 58.4424 26.0159 62.1682 29.6256C65.894 33.2353 70.3399 36.0179 75.215 37.7913L76.5625 38.2812Z" fill="url(#paint7_linear_3_7293)"/>
<path d="M21.4375 38.2812L26.0312 39.8125V44.4062L27.8381 43.4109C32.5342 40.8557 36.5978 37.2803 39.73 32.9477C42.8622 28.615 44.9833 23.6354 45.9375 18.375L44.4062 16.8438C42.4795 21.6603 39.5576 26.0159 35.8318 29.6256C32.106 33.2353 27.6601 36.0179 22.785 37.7913L21.4375 38.2812Z" fill="url(#paint8_linear_3_7293)"/>
<path d="M64.0675 21.4375L49 16.8437V13.7812L64.0675 9.18748C65.0346 8.88704 66.0588 8.8181 67.0574 8.98622C68.056 9.15434 69.0012 9.55481 69.8166 10.1553C70.632 10.7559 71.2948 11.5396 71.7517 12.4434C72.2085 13.3472 72.4465 14.3457 72.4465 15.3584C72.4465 16.3711 72.2085 17.3696 71.7517 18.2734C71.2948 19.1772 70.632 19.961 69.8166 20.5615C69.0012 21.162 68.056 21.5625 67.0574 21.7306C66.0588 21.8987 65.0346 21.8298 64.0675 21.5294V21.4375Z" fill="#F6B756"/>
<path d="M33.0291 27.0112L49.0001 19.9062V10.7187L33.0291 3.61373C31.0801 2.74789 28.9457 2.38269 26.8197 2.55131C24.6938 2.71993 22.6436 3.41703 20.8555 4.57928C19.0673 5.74154 17.5979 7.33212 16.5807 9.20654C15.5635 11.081 15.0306 13.1798 15.0306 15.3125C15.0306 17.4451 15.5635 19.544 16.5807 21.4184C17.5979 23.2928 19.0673 24.8834 20.8555 26.0457C22.6436 27.2079 24.6938 27.905 26.8197 28.0737C28.9457 28.2423 31.0801 27.8771 33.0291 27.0112Z" fill="url(#paint9_linear_3_7293)"/>
<path d="M33.9326 21.4375L49.0001 16.8437V13.7812L33.9326 9.18748C32.9655 8.88704 31.9413 8.8181 30.9427 8.98622C29.9441 9.15434 28.9989 9.55481 28.1835 10.1553C27.3681 10.7559 26.7053 11.5396 26.2484 12.4434C25.7916 13.3472 25.5536 14.3457 25.5536 15.3584C25.5536 16.3711 25.7916 17.3696 26.2484 18.2734C26.7053 19.1772 27.3681 19.961 28.1835 20.5615C28.9989 21.162 29.9441 21.5625 30.9427 21.7306C31.9413 21.8987 32.9655 21.8298 33.9326 21.5294V21.4375Z" fill="#F6B756"/>
<path d="M49 26.0312C47.3755 26.0312 45.8176 25.3859 44.669 24.2373C43.5203 23.0886 42.875 21.5307 42.875 19.9062V10.7188C42.875 9.0943 43.5203 7.53638 44.669 6.38772C45.8176 5.23906 47.3755 4.59375 49 4.59375C50.6245 4.59375 52.1824 5.23906 53.331 6.38772C54.4797 7.53638 55.125 9.0943 55.125 10.7188V19.9062C55.125 21.5307 54.4797 23.0886 53.331 24.2373C52.1824 25.3859 50.6245 26.0312 49 26.0312Z" fill="url(#paint10_linear_3_7293)"/>
<path d="M18.375 36.75C20.0664 36.75 21.4375 35.3789 21.4375 33.6875C21.4375 31.9961 20.0664 30.625 18.375 30.625C16.6836 30.625 15.3125 31.9961 15.3125 33.6875C15.3125 35.3789 16.6836 36.75 18.375 36.75Z" fill="url(#paint11_linear_3_7293)"/>
<path d="M79.625 36.75C81.3164 36.75 82.6875 35.3789 82.6875 33.6875C82.6875 31.9961 81.3164 30.625 79.625 30.625C77.9336 30.625 76.5625 31.9961 76.5625 33.6875C76.5625 35.3789 77.9336 36.75 79.625 36.75Z" fill="url(#paint12_linear_3_7293)"/>
<path d="M18.375 65.8438C20.0664 65.8438 21.4375 64.4726 21.4375 62.7812C21.4375 61.0899 20.0664 59.7188 18.375 59.7188C16.6836 59.7188 15.3125 61.0899 15.3125 62.7812C15.3125 64.4726 16.6836 65.8438 18.375 65.8438Z" fill="url(#paint13_linear_3_7293)"/>
<path d="M79.625 65.8438C81.3164 65.8438 82.6875 64.4726 82.6875 62.7812C82.6875 61.0899 81.3164 59.7188 79.625 59.7188C77.9336 59.7188 76.5625 61.0899 76.5625 62.7812C76.5625 64.4726 77.9336 65.8438 79.625 65.8438Z" fill="url(#paint14_linear_3_7293)"/>
<path d="M36.75 84.2188C38.4414 84.2188 39.8125 82.8476 39.8125 81.1562C39.8125 79.4649 38.4414 78.0938 36.75 78.0938C35.0586 78.0938 33.6875 79.4649 33.6875 81.1562C33.6875 82.8476 35.0586 84.2188 36.75 84.2188Z" fill="url(#paint15_linear_3_7293)"/>
<path d="M61.25 84.2188C62.9414 84.2188 64.3125 82.8476 64.3125 81.1562C64.3125 79.4649 62.9414 78.0938 61.25 78.0938C59.5586 78.0938 58.1875 79.4649 58.1875 81.1562C58.1875 82.8476 59.5586 84.2188 61.25 84.2188Z" fill="url(#paint16_linear_3_7293)"/>
</g>
<defs>
<linearGradient id="paint0_linear_3_7293" x1="4.84417e-05" y1="49" x2="98" y2="49" gradientUnits="userSpaceOnUse">
<stop stop-color="#2B8F0E"/>
<stop offset="1" stop-color="#85CBA9"/>
</linearGradient>
<linearGradient id="paint1_linear_3_7293" x1="6.125" y1="49" x2="18.375" y2="49" gradientUnits="userSpaceOnUse">
<stop stop-color="#FF0022"/>
<stop offset="1" stop-color="#F4929C"/>
</linearGradient>
<linearGradient id="paint2_linear_3_7293" x1="-15.1923" y1="44.9905" x2="-6.53027" y2="36.3285" gradientUnits="userSpaceOnUse">
<stop stop-color="#FF0022"/>
<stop offset="1" stop-color="#F4929C"/>
</linearGradient>
<linearGradient id="paint3_linear_3_7293" x1="49" y1="91.875" x2="49" y2="79.625" gradientUnits="userSpaceOnUse">
<stop stop-color="#FF0022"/>
<stop offset="1" stop-color="#F4929C"/>
</linearGradient>
<linearGradient id="paint4_linear_3_7293" x1="46.5218" y1="113.192" x2="37.8597" y2="104.53" gradientUnits="userSpaceOnUse">
<stop stop-color="#FF0022"/>
<stop offset="1" stop-color="#F4929C"/>
</linearGradient>
<linearGradient id="paint5_linear_3_7293" x1="93.4063" y1="96.4688" x2="81.1563" y2="96.4688" gradientUnits="userSpaceOnUse">
<stop stop-color="#FF0022"/>
<stop offset="1" stop-color="#F4929C"/>
</linearGradient>
<linearGradient id="paint6_linear_3_7293" x1="49" y1="15.3278" x2="82.9938" y2="15.3278" gradientUnits="userSpaceOnUse">
<stop stop-color="#FBCC88"/>
<stop offset="1" stop-color="#FFE5C3"/>
</linearGradient>
<linearGradient id="paint7_linear_3_7293" x1="52.0625" y1="30.625" x2="76.5625" y2="30.625" gradientUnits="userSpaceOnUse">
<stop stop-color="#FBCC88"/>
<stop offset="1" stop-color="#FFE5C3"/>
</linearGradient>
<linearGradient id="paint8_linear_3_7293" x1="45.9375" y1="30.625" x2="21.4375" y2="30.625" gradientUnits="userSpaceOnUse">
<stop stop-color="#FBCC88"/>
<stop offset="1" stop-color="#FFE5C3"/>
</linearGradient>
<linearGradient id="paint9_linear_3_7293" x1="98.0001" y1="15.3278" x2="15.0063" y2="15.3278" gradientUnits="userSpaceOnUse">
<stop stop-color="#FBCC88"/>
<stop offset="1" stop-color="#FFE5C3"/>
</linearGradient>
<linearGradient id="paint10_linear_3_7293" x1="42.875" y1="15.3125" x2="55.125" y2="15.3125" gradientUnits="userSpaceOnUse">
<stop stop-color="#FBCC88"/>
<stop offset="1" stop-color="#FFE5C3"/>
</linearGradient>
<linearGradient id="paint11_linear_3_7293" x1="15.3125" y1="33.6875" x2="21.4375" y2="33.6875" gradientUnits="userSpaceOnUse">
<stop stop-color="#FBCC88"/>
<stop offset="1" stop-color="#FFE5C3"/>
</linearGradient>
<linearGradient id="paint12_linear_3_7293" x1="76.5625" y1="33.6875" x2="82.6875" y2="33.6875" gradientUnits="userSpaceOnUse">
<stop stop-color="#FBCC88"/>
<stop offset="1" stop-color="#FFE5C3"/>
</linearGradient>
<linearGradient id="paint13_linear_3_7293" x1="15.3125" y1="62.7812" x2="21.4375" y2="62.7812" gradientUnits="userSpaceOnUse">
<stop stop-color="#FBCC88"/>
<stop offset="1" stop-color="#FFE5C3"/>
</linearGradient>
<linearGradient id="paint14_linear_3_7293" x1="76.5625" y1="62.7812" x2="82.6875" y2="62.7812" gradientUnits="userSpaceOnUse">
<stop stop-color="#FBCC88"/>
<stop offset="1" stop-color="#FFE5C3"/>
</linearGradient>
<linearGradient id="paint15_linear_3_7293" x1="33.6875" y1="81.1562" x2="39.8125" y2="81.1562" gradientUnits="userSpaceOnUse">
<stop stop-color="#FBCC88"/>
<stop offset="1" stop-color="#FFE5C3"/>
</linearGradient>
<linearGradient id="paint16_linear_3_7293" x1="58.1875" y1="81.1562" x2="64.3125" y2="81.1562" gradientUnits="userSpaceOnUse">
<stop stop-color="#FBCC88"/>
<stop offset="1" stop-color="#FFE5C3"/>
</linearGradient>
<clipPath id="clip0_3_7293">
<rect width="98" height="98" fill="white"/>
</clipPath>
</defs>
</svg>
