<svg width="17" height="17" viewBox="0 0 17 17" fill="none" xmlns="http://www.w3.org/2000/svg">
<path d="M11.9538 4.77842C10.7269 4.07888 9.77392 3.5355 8.99995 3.183C8.22308 2.82917 7.54873 2.62935 6.89301 2.69742C5.85231 2.80544 4.90491 3.34467 4.28751 4.18389C3.89753 4.71398 3.73515 5.39434 3.65691 6.23665C3.57897 7.07558 3.57898 8.16291 3.57898 9.5613V9.61958C3.57898 11.018 3.57897 12.1053 3.65691 12.9442C3.73515 13.7865 3.89753 14.4669 4.28751 14.997C4.90491 15.8362 5.85231 16.3754 6.89301 16.4835C7.54873 16.5515 8.22308 16.3517 8.99995 15.9979C9.77391 15.6454 10.7269 15.102 11.9538 14.4025L12.0036 14.3741C13.2304 13.6746 14.1834 13.1312 14.8796 12.6454C15.5778 12.1583 16.0924 11.6802 16.3622 11.0817C16.7901 10.1326 16.7901 9.0483 16.3622 8.09922C16.0924 7.50065 15.5778 7.02258 14.8796 6.53544C14.1834 6.04968 13.2304 5.50629 12.0036 4.8068L11.9538 4.77842Z" fill="#555555"/>
</svg>
